<?xml version="1.0" encoding="UTF-8"?>
<!DOCTYPE svg PUBLIC "-//W3C//DTD SVG 1.1//EN" "http://www.w3.org/Graphics/SVG/1.1/DTD/svg11.dtd">
<!-- Creator: CorelDRAW 2021 (64-Bit) -->
<svg xmlns="http://www.w3.org/2000/svg" xml:space="preserve" width="512px" height="512px" version="1.1" style="shape-rendering:geometricPrecision; text-rendering:geometricPrecision; image-rendering:optimizeQuality; fill-rule:evenodd; clip-rule:evenodd"
viewBox="0 0 512 512"
 xmlns:xlink="http://www.w3.org/1999/xlink"
 xmlns:xodm="http://www.corel.com/coreldraw/odm/2003">
 <defs>
  <style type="text/css">
   <![CDATA[
    .fil1 {fill:#0D598D}
    .fil0 {fill:#196DC0}
   ]]>
  </style>
 </defs>
 <g id="Layer_x0020_1">
  <metadata id="CorelCorpID_0Corel-Layer"/>
  <g id="_2436747561760">
   <path class="fil0" d="M0 200.91l0 150.59 0 34.62c3.85,0.77 6.44,2.62 9.45,3.39 -0.75,-7.76 2,-13.23 6.77,-16.28 12.57,-8.07 28.8,4.69 22.93,18.9 -2.51,6.06 -6.62,8.59 -14.15,9.81l10.38 13.19c3.36,4.56 6.34,9.28 9.56,14.44 0.73,1.17 1.46,2.35 2.17,3.52 -1.43,0.91 -2.95,1.82 -3.85,2.67 -0.89,0.84 -2.25,2.17 -2.91,3.09 -0.73,1.03 -1.07,2.5 -2.2,2.95 1.46,4.55 1.51,6.05 0.34,10.86 1.7,1.42 2.44,3.27 4.84,5.02 5.22,3.81 16.17,6.42 22.68,7.47 -2.27,0.31 -5.49,3.59 -6.49,5.51 -3.64,7.01 -3.2,18.32 0.1,25.61 0.66,1.48 1.85,2.98 3.23,1.73 -3.11,-6.18 -4.12,-20.72 1.47,-26.2 1.77,-1.73 3.24,-2.96 4.62,-3.77 5.89,8.5 11.28,14.53 19.69,17.07 0.09,2.92 -0.35,5.79 -1.62,8.1 -0.08,7.91 -0.82,7.34 1.49,10.8 1.25,-1 1.67,-0.43 1.55,-4.5 -0.04,-1.52 -0.05,-2.98 -0.05,-4.5l0.46 0 15.72 -0.47c-1.66,-2.42 -3.59,-2.15 -6.09,-3.59 -1.36,-0.78 -4.34,-2.68 -5.38,-3.63 -0.37,-0.33 -0.72,-0.73 -1.06,-1.17 3.54,0.44 7.57,0.4 12.27,-0.19 1.11,-0.14 2.4,-0.39 3.78,-0.69 1.05,0.49 2.07,0.99 2.99,1.56 4.32,2.73 6.44,9.39 5.1,16.94l-3.56 0.1 -1.11 8.14 108.44 0 68.88 0 108.44 0 -1.11 -8.14 -3.56 -0.1c-1.34,-7.55 0.78,-14.21 5.1,-16.94 0.92,-0.57 1.94,-1.07 2.99,-1.56 1.38,0.3 2.67,0.55 3.78,0.69 4.7,0.59 8.73,0.63 12.27,0.19 -0.34,0.44 -0.69,0.84 -1.06,1.17 -1.04,0.95 -4.02,2.85 -5.38,3.63 -2.5,1.44 -4.43,1.17 -6.09,3.59l15.72 0.47 0.46 0c0,1.52 -0.01,2.98 -0.05,4.5 -0.12,4.07 0.3,3.5 1.55,4.5 2.31,-3.46 1.57,-2.89 1.49,-10.8 -1.27,-2.31 -1.71,-5.18 -1.62,-8.1 8.41,-2.54 13.8,-8.57 19.69,-17.07 1.38,0.81 2.85,2.04 4.62,3.77 5.59,5.48 4.58,20.02 1.47,26.2 1.38,1.25 2.57,-0.25 3.23,-1.73 3.3,-7.29 3.74,-18.6 0.1,-25.61 -1,-1.92 -4.22,-5.2 -6.49,-5.51 6.51,-1.05 17.46,-3.66 22.68,-7.47 2.4,-1.75 3.14,-3.6 4.84,-5.02 -1.17,-4.81 -1.12,-6.31 0.34,-10.86 -1.13,-0.45 -1.47,-1.92 -2.2,-2.95 -0.66,-0.92 -2.02,-2.25 -2.91,-3.09 -0.9,-0.85 -2.42,-1.76 -3.85,-2.67 0.71,-1.17 1.44,-2.35 2.17,-3.52 3.22,-5.16 6.2,-9.88 9.56,-14.44l10.38 -13.19c-7.53,-1.22 -11.64,-3.75 -14.15,-9.81 -5.87,-14.21 10.36,-26.97 22.93,-18.9 4.77,3.05 7.52,8.52 6.77,16.28 3.01,-0.77 5.6,-2.62 9.45,-3.39l0 -34.62 0 -150.59 0 -58.12c-5.48,-4.53 -8.18,-7.52 -15.1,-12.19 -11.05,-7.45 -25.19,-15.03 -26.62,-27.22 -0.24,-2.08 -0.2,-4.21 0.07,-6.39 1.84,-2.36 4.02,-4.37 6.56,-6.08 10.89,-7.31 21.62,-5.01 35.09,-4.27l0 -86.64 -73.72 0c-4.36,5.41 -15.33,12.37 -22.01,15.78 -8.99,4.58 -20.76,6.57 -32.11,4.58 -9.45,-1.67 -19.91,-6.49 -28.27,-9.76l-28 -10.6 -24.07 0 -95.64 0 -24.07 0 -28 10.6c-8.36,3.27 -18.82,8.09 -28.27,9.76 -11.35,1.99 -23.12,0 -32.11,-4.58 -6.68,-3.41 -17.65,-10.37 -22.01,-15.78l-73.72 0 0 86.64c13.47,-0.74 24.2,-3.04 35.09,4.27 2.54,1.71 4.72,3.72 6.56,6.08 0.27,2.18 0.31,4.31 0.07,6.39 -1.43,12.19 -15.57,19.77 -26.62,27.22 -6.92,4.67 -9.62,7.66 -15.1,12.19l0 58.12zm65.66 -44.98l0.34 0.07c0.2,-0.87 0.73,-2.03 1.41,-3.31 0.31,-0.57 0.63,-1.14 0.94,-1.71 1.47,-2.54 3.19,-5.19 3.98,-6.65l17.02 -24.04 14.49 -15.99 4.64 -4.3c0,-0.1 0,-0.21 -0.01,-0.32 0.67,-0.62 1.33,-1.23 1.9,-1.81 1.23,-1.24 1.49,-1.48 2.92,-2.58 1.29,-1 1.68,-1.65 2.86,-2.64l15.25 -11.75 44.59 -24.41c1.25,-0.56 2.55,-1.11 3.88,-1.65 8.33,-3.06 21.5,-6.81 26.43,-8.04 1.45,-0.37 3.8,-0.74 4.97,-1.2l0.23 -0.05c0.01,2.82 0.45,3.78 0.5,5.94l-0.08 0.02c-3.86,0.34 -11.52,2.78 -15.78,4.03l-0.08 0.02c-4.14,1.2 -8.39,2.61 -12.68,4.21l-3.71 1.23 -0.06 0.21c-20.81,8.19 -42.36,20.51 -58.24,34.66l-5.52 4.98c-11.19,9.36 -20.8,20.87 -29.43,32.57l-15.93 25.57c-1.26,2.42 -2.18,4.41 -3.35,7.15 -0.63,1.48 -1.12,2.24 -1.81,3.69l-1.1 2.65c-1.72,-0.5 -3.63,-1.09 -5.62,-1.71 2.16,-5.04 4.51,-9.99 7.05,-14.84zm116.41 -91.1c6,-2.2 16.17,-5.89 21.23,-7.03 3.6,-0.82 6.42,-1.54 9.7,-2.3 0,4.76 1.01,8.72 6.5,10 -0.28,-2.57 0.42,-0.62 -1.13,-1.87 -0.07,-0.05 -0.54,-0.3 -0.93,-0.57 -2.17,-1.55 -3.21,-2.82 -3.44,-5.56 1.2,0.8 1.54,1.8 2.82,2.68 1.3,0.89 2.63,0.82 4.68,0.82 0.85,-1.27 1.49,-1.25 1.83,-3.18 0.29,-1.68 -0.29,-1.95 -0.33,-4.12 0.81,-0.13 1.63,-0.25 2.46,-0.37 2.78,-0.31 6.68,-0.96 10.31,-1.4 5.23,-0.53 6.58,-0.12 10.7,-0.46 3.96,-0.32 6.89,-0.45 9.53,-0.47 2.64,0.02 5.57,0.15 9.53,0.47 4.12,0.34 5.47,-0.07 10.7,0.46 3.63,0.44 7.53,1.09 10.31,1.4 0.83,0.12 1.65,0.24 2.46,0.37 -0.04,2.17 -0.62,2.44 -0.33,4.12 0.34,1.93 0.98,1.91 1.83,3.18 2.05,0 3.38,0.07 4.68,-0.82 1.28,-0.88 1.62,-1.88 2.82,-2.68 -0.23,2.74 -1.27,4.01 -3.44,5.56 -0.39,0.27 -0.86,0.52 -0.93,0.57 -1.55,1.25 -0.85,-0.7 -1.13,1.87 5.49,-1.28 6.5,-5.24 6.5,-10 3.28,0.76 6.1,1.48 9.7,2.3 5.06,1.14 15.23,4.83 21.23,7.03 9.41,3.7 18.47,7.99 26.4,12.34 38.13,20.9 69.36,55.8 87.34,96.43 -1.55,0.37 -2.64,0.55 -3.04,0.45 -1.69,-0.41 -0.48,-1.42 -3.96,-0.78 -3.8,0.7 -14.02,6.05 -15.12,10.23 2.48,4.09 9.91,-0.81 12.86,-2.67 2.05,-1.28 3.97,-3.46 5.28,-4.19 0.22,-0.12 1.98,-0.74 4.59,-1.63 6.17,14.22 10.71,29.12 13.36,44.35 4.48,25.8 3.4,32.31 2.36,56.64 -0.3,7.13 -3.99,26.54 -6.2,34.3 -4.4,15.42 -9.98,29.33 -17.56,43.44 -4.7,8.76 -10.07,17.08 -15.81,24.69 -4.09,5.42 -11.12,14.11 -16.31,19.19 -0.92,0.91 -1.99,1.73 -2.32,2.88l5.7 -0.06c0.81,-1.11 1.43,-1.49 2.35,-2.59l7.22 -8.28c5.32,-6.53 10.89,-13.49 15.23,-20.78 0.92,-1.54 1.02,-1.98 2.06,-3.43 2.14,-2.98 3.84,-6.68 5.66,-9.84 5.87,-10.14 10.37,-20.95 14.29,-32.71 2.73,-8.17 4.7,-16.35 6.7,-24.8l2.85 -17.65c2.72,-21.85 1.6,-46.24 -3.15,-67.57 -0.69,-3.14 -1.19,-5.09 -1.83,-8.17 -1.69,-8.11 -4.8,-16.28 -7.67,-23.83l-2.94 -7.11c1.73,-0.58 3.62,-1.2 5.57,-1.84 4.6,10.89 8.3,22.18 11.16,33.66 0.42,1.68 0.82,3.39 1.2,5.14 -0.07,0.12 -0.13,0.24 -0.18,0.36l0.41 1.07c0.08,0.27 0.17,0.56 0.25,0.86 1.44,7.1 2.55,14.72 3.28,22.6 0.38,4.48 0.67,9.05 0.85,13.3 0.17,4.89 0.2,9.83 0.06,14.78 -0.06,0.97 -0.14,1.82 -0.23,2.53l-1.13 14.37c-1.37,15.91 -4.07,22.79 -7.24,36.36 -0.14,0.48 -0.29,0.96 -0.45,1.45l-13.68 34.32 -7.54 13.46c-0.83,1.26 -1.2,2.23 -2,3.5l-0.78 1.26 -0.32 0.03c-0.95,2.04 -1.93,3.13 -3.1,5.01 -3.33,5.39 -9.55,13.26 -13.74,18.26l-28.09 27.91c-3.04,2.46 -5.89,4.7 -9.06,6.93 -1.11,0.78 -2.39,1.66 -3.57,2.55l-3.49 2.5c-0.22,0.14 -0.43,0.27 -0.63,0.41 -1.5,0.92 -2.59,1.72 -4.12,2.74 -6.74,4.52 -14.25,8.36 -21.53,11.97 -1.36,0.68 -1.22,0.75 -2.6,1.4l-26.04 10.11 -0.03 -0.01c-0.13,0.06 -0.26,0.12 -0.39,0.18l-0.55 0.21c-1.64,0.56 -3.35,1.09 -5.1,1.61 -1.93,0.5 -3.93,0.97 -5.78,1.51 -1.14,0.33 -2.27,0.63 -3.4,0.9 -1.52,0.36 -3.07,0.71 -4.62,1.03 -1.3,0.27 -2.62,0.53 -3.94,0.8 -4.73,0.9 -9.49,1.66 -14.07,2.24 -5.25,0.66 -9.42,1.1 -13.1,1.38 -5.94,0.15 -10.48,0.32 -14.55,0.38 -4.07,-0.06 -8.61,-0.23 -14.55,-0.38 -3.68,-0.28 -7.85,-0.72 -13.1,-1.38 -4.58,-0.58 -9.34,-1.34 -14.07,-2.24 -1.32,-0.27 -2.64,-0.53 -3.94,-0.8 -1.55,-0.32 -3.1,-0.67 -4.62,-1.03 -1.13,-0.27 -2.26,-0.57 -3.4,-0.9 -1.85,-0.54 -3.85,-1.01 -5.78,-1.51 -1.75,-0.52 -3.46,-1.05 -5.1,-1.61l-0.55 -0.21c-0.13,-0.06 -0.26,-0.12 -0.39,-0.18l-0.03 0.01 -26.04 -10.11c-1.38,-0.65 -1.24,-0.72 -2.6,-1.4 -7.28,-3.61 -14.79,-7.45 -21.53,-11.97 -1.53,-1.02 -2.62,-1.82 -4.12,-2.74 -0.2,-0.14 -0.41,-0.27 -0.63,-0.41l-3.49 -2.5c-1.18,-0.89 -2.46,-1.77 -3.57,-2.55 -3.17,-2.23 -6.02,-4.47 -9.06,-6.93l-28.09 -27.91c-4.19,-5 -10.41,-12.87 -13.74,-18.26 -1.17,-1.88 -2.15,-2.97 -3.1,-5.01l-0.32 -0.03 -0.78 -1.26c-0.8,-1.27 -1.17,-2.24 -2,-3.5l-7.54 -13.46 -13.68 -34.32c-0.16,-0.49 -0.31,-0.97 -0.45,-1.45 -3.17,-13.57 -5.87,-20.45 -7.24,-36.36l-1.13 -14.37c-0.09,-0.71 -0.17,-1.56 -0.23,-2.53 -0.14,-4.94 -0.11,-9.89 0.06,-14.78 0.18,-4.25 0.47,-8.82 0.85,-13.3 0.73,-7.88 1.84,-15.5 3.28,-22.6 0.08,-0.3 0.17,-0.59 0.25,-0.86l0.41 -1.07c-0.05,-0.12 -0.11,-0.24 -0.18,-0.36 0.38,-1.75 0.78,-3.46 1.2,-5.14 2.86,-11.48 6.56,-22.77 11.16,-33.66 1.95,0.64 3.84,1.26 5.57,1.84l-2.94 7.11c-2.87,7.55 -5.98,15.72 -7.67,23.83 -0.64,3.08 -1.14,5.03 -1.83,8.17 -4.75,21.33 -5.87,45.72 -3.15,67.57l2.85 17.65c2,8.45 3.97,16.63 6.7,24.8 3.92,11.76 8.42,22.57 14.29,32.71 1.82,3.16 3.52,6.86 5.66,9.84 1.04,1.45 1.14,1.89 2.06,3.43 4.34,7.29 9.91,14.25 15.23,20.78l7.22 8.28c0.92,1.1 1.54,1.48 2.35,2.59l5.7 0.06c-0.33,-1.15 -1.4,-1.97 -2.32,-2.88 -5.19,-5.08 -12.22,-13.77 -16.31,-19.19 -5.74,-7.61 -11.11,-15.93 -15.81,-24.69 -7.58,-14.11 -13.16,-28.02 -17.56,-43.44 -2.21,-7.76 -5.9,-27.17 -6.2,-34.3 -1.04,-24.33 -2.12,-30.84 2.36,-56.64 2.65,-15.23 7.19,-30.13 13.36,-44.35 2.61,0.89 4.37,1.51 4.59,1.63 1.31,0.73 3.23,2.91 5.28,4.19 2.95,1.86 10.38,6.76 12.86,2.67 -1.1,-4.18 -11.32,-9.53 -15.12,-10.23 -3.48,-0.64 -2.27,0.37 -3.96,0.78 -0.4,0.1 -1.49,-0.08 -3.04,-0.45 17.98,-40.63 49.21,-75.53 87.34,-96.43 7.93,-4.35 16.99,-8.64 26.4,-12.34zm264.27 91.1l-0.34 0.07c-0.2,-0.87 -0.73,-2.04 -1.42,-3.33 -0.3,-0.56 -0.62,-1.12 -0.93,-1.68 -1.46,-2.55 -3.19,-5.2 -3.98,-6.66l-17.02 -24.04 -14.49 -15.99 -4.64 -4.3c0,-0.1 0,-0.21 0.01,-0.32 -0.67,-0.62 -1.33,-1.23 -1.9,-1.81 -1.23,-1.24 -1.49,-1.48 -2.92,-2.58 -1.29,-1 -1.68,-1.65 -2.86,-2.64l-15.25 -11.75 -44.59 -24.41c-1.25,-0.56 -2.55,-1.11 -3.88,-1.65 -8.33,-3.06 -21.5,-6.81 -26.43,-8.04 -1.45,-0.37 -3.8,-0.74 -4.97,-1.2l-0.23 -0.05c-0.01,2.82 -0.45,3.78 -0.5,5.94l0.08 0.02c3.86,0.34 11.52,2.78 15.78,4.03l0.08 0.02c4.14,1.2 8.39,2.61 12.68,4.21l3.71 1.23 0.06 0.21c20.81,8.19 42.36,20.51 58.24,34.66l5.52 4.98c11.19,9.36 20.8,20.87 29.43,32.57l15.93 25.57c1.26,2.42 2.18,4.41 3.35,7.15 0.63,1.48 1.12,2.24 1.81,3.69l1.1 2.65c1.72,-0.5 3.63,-1.09 5.62,-1.71 -2.16,-5.04 -4.51,-9.99 -7.05,-14.84zm-226.86 -105.99c11.73,-2.13 24.15,-3.2 36.52,-3.18 12.37,-0.02 24.79,1.05 36.52,3.18 0.43,0.02 0.91,0.03 1.49,0.05 3.18,0.08 2.17,0.47 4.49,1.01 0.3,-3.65 -0.17,-5.34 -2.27,-6.29 -3.76,-0.71 -7.48,-1.3 -11.07,-1.76 -2.61,-0.28 -5.6,-0.6 -8.77,-0.91l-0.87 -0.06c-2.41,-0.16 -7.2,-0.3 -9.81,-0.69 -0.68,-0.1 -1.4,-0.19 -2.15,-0.26 -2.6,-0.14 -5.15,-0.24 -7.56,-0.26 -2.41,0.02 -4.96,0.12 -7.56,0.26 -0.75,0.07 -1.47,0.16 -2.15,0.26 -2.61,0.39 -7.4,0.53 -9.81,0.69l-0.87 0.06c-3.17,0.31 -6.16,0.63 -8.77,0.91 -3.59,0.47 -7.31,1.06 -11.07,1.76 -2.1,0.95 -2.57,2.64 -2.27,6.29 2.32,-0.54 1.31,-0.93 4.49,-1.01 0.58,-0.02 1.06,-0.03 1.49,-0.05z"/>
   <path class="fil1" d="M443.17 54.91c-27.72,6.42 -37.03,34.25 -12.14,28.63 26.62,-6.02 36.77,-34.34 12.14,-28.63zm68.83 345.59l0 30.52 0 80.98 -113.12 0 -108.44 0c1.39,-1.54 3.1,-2.73 4.9,-4.16 1.68,-1.34 2.85,-2.31 4.68,-3.82 3.25,-2.67 6.39,-5 9.83,-7.68 6.11,-4.76 12.9,-9.92 20.47,-14.03 19.04,-10.33 28.9,-8.9 48.49,-3.1 1.88,0.55 4.77,0.85 5.37,2.29 -0.18,2.04 -1.11,2.81 -2.23,3.83 -1.36,-1.49 -0.36,-2.67 -3.22,-3.6 -6.61,-2.13 -11.15,7.17 -6.53,9.18 2.28,1 3.65,0.17 5.65,-0.57 3.14,-1.16 0.6,1.32 3.05,-1.38 5.48,-6.04 1.83,-2.15 5.68,-7.2 3.79,0.07 13.91,3.49 19.5,4.19 24.07,3.02 30.61,-8.15 42.96,-26.9 5.64,-8.57 10.55,-17.28 15.85,-25.96 -1.12,-0.71 -2.18,-1.42 -2.83,-2.11l4.12 0 0.88 -1.41c3.22,-5.16 6.2,-9.88 9.56,-14.44l10.38 -13.19c-2.18,-0.35 -4.07,-0.81 -5.71,-1.44l-65.81 0 0.02 -0.09 26.66 0.03c3.73,-14.59 17.57,-22.29 30.45,-28.83 9.56,-4.86 20.66,-9.87 29.72,-14.78 2.79,-1.51 7.24,-4.42 9.67,-5.33l0 34.62 0 14.38zm-512 -313.86l0 -86.64 73.72 0 110.39 0 24.07 0 -3.79 2.88c-40.93,29.06 -49.39,46.03 -113.63,26.82 -12.1,-3.62 -30.47,-10.61 -43.24,-11.14 -4.58,-0.19 -8.96,0.2 -12.83,1.23 0.97,6.26 -3.42,11.38 -8.56,12.3 -2.14,0.38 -4.05,0.24 -5.71,-0.29 -1.07,3.32 -1.23,7.31 -0.23,12.02 3.63,16.96 19.39,36.3 21.46,53.17 4.09,5.24 6.49,12.17 7.35,21.17 0.71,-1.48 0.85,-0.96 1.74,-2.3 1.57,-2.36 0.87,-2.22 3.26,-2.86 2.66,3.97 6.91,3.45 1.57,11.19 3.1,4.69 -1.4,12.25 -8.13,9.85 -0.19,-0.07 -0.37,-0.14 -0.55,-0.22 -1.93,6.23 -5.18,12.89 -8.69,15.86l0.84 0.89 -19.95 -4.08c1.43,2.57 5.41,6.64 7.53,9.39 0.96,1.23 1.83,1.93 2.54,3.09 -6.2,2.15 -19.78,20.13 -24.4,29.29 -2.41,4.76 -4.11,11.46 -4.76,12.65l0 -58.12 0 -56.15zm262.89 -77.26c14.95,4.11 8.79,26.36 -6.17,22.4 -0.24,-0.07 -0.48,-0.14 -0.72,-0.22 -0.24,0.08 -0.48,0.15 -0.72,0.22 -14.96,3.96 -21.12,-18.29 -6.17,-22.4 2.49,-0.68 4.83,-0.54 6.89,0.18 2.06,-0.72 4.4,-0.86 6.89,-0.18zm-194.06 45.53c27.72,6.42 37.03,34.25 12.14,28.63 -26.62,-6.02 -36.77,-34.34 -12.14,-28.63zm-68.83 331.21l0 125.88 221.56 0c-1.39,-1.54 -3.1,-2.73 -4.9,-4.16 -1.68,-1.34 -2.85,-2.31 -4.68,-3.82 -3.25,-2.67 -6.39,-5 -9.83,-7.68 -6.11,-4.76 -12.9,-9.92 -20.47,-14.03 -19.04,-10.33 -28.9,-8.9 -48.49,-3.1 -1.88,0.55 -4.77,0.85 -5.37,2.29 0.18,2.04 1.11,2.81 2.23,3.83 1.36,-1.49 0.36,-2.67 3.22,-3.6 6.61,-2.13 11.15,7.17 6.53,9.18 -2.28,1 -3.65,0.17 -5.65,-0.57 -3.14,-1.16 -0.6,1.32 -3.05,-1.38 -5.48,-6.04 -1.83,-2.15 -5.68,-7.2 -3.79,0.07 -13.91,3.49 -19.5,4.19 -24.07,3.02 -30.61,-8.15 -42.96,-26.9 -6.41,-9.73 -11.87,-19.64 -18.02,-29.48 -3.22,-5.16 -6.2,-9.88 -9.56,-14.44l-10.38 -13.19c7.53,-1.22 11.64,-3.75 14.15,-9.81 5.87,-14.21 -10.36,-26.97 -22.93,-18.9 -4.77,3.05 -7.52,8.52 -6.77,16.28 -3.01,-0.77 -5.6,-2.62 -9.45,-3.39zm512 -243.33l0 -142.79 -208.18 0 3.79 2.88c40.93,29.06 49.39,46.03 113.63,26.82 12.1,-3.62 30.47,-10.61 43.24,-11.14 17.06,-0.71 31.31,6.63 27.33,25.26 -4.1,19.14 -23.66,41.33 -21.53,59.56 1.43,12.19 15.57,19.77 26.62,27.22 6.92,4.67 9.62,7.66 15.1,12.19zm-480.67 187.7c11.83,4.96 4.26,21.09 -6.37,17.07 -11.43,-4.32 -4.73,-21.73 6.37,-17.07zm472.25 -117.69c8.29,3.24 3.76,16.49 -5.29,12.91 -7.72,-3.06 -3.87,-16.48 5.29,-12.91zm-481.11 -25.48c8.4,2.46 4.9,14.29 -3.25,12.46 -7.56,-1.69 -5.39,-14.99 3.25,-12.46zm467.06 0c-8.4,2.46 -4.9,14.29 3.25,12.46 7.56,-1.69 5.39,-14.99 -3.25,-12.46zm-29.36 -65.86c-8.92,3.12 -3.98,15.57 4.39,12.58 7.99,-2.85 3.93,-15.49 -4.39,-12.58zm-451.75 91.34c-8.29,3.24 -3.76,16.49 5.29,12.91 7.72,-3.06 3.87,-16.48 -5.29,-12.91zm472.25 117.69c-11.83,4.96 -4.26,21.09 6.37,17.07 11.43,-4.32 4.73,-21.73 -6.37,-17.07zm-114.81 124.24c-12.67,2.98 -8.2,22.46 4.77,19.39 4.78,-1.13 8.65,-5.8 7.39,-12.07 -0.98,-4.88 -6.28,-8.7 -12.16,-7.32zm-130.59 31.48c-13.75,4.04 -7.81,25.32 6.48,21.05 13.11,-3.92 8,-25.3 -6.48,-21.05z"/>
   <path class="fil1" d="M38.15 441.8c-0.99,-1.99 -1.1,-2.64 -3,-3.48 -4.73,-2.07 -10.3,-0.24 -10.18,8.69 0.15,11.39 10.43,11.3 13.52,5.65 1.7,1.42 2.44,3.27 4.84,5.02 5.22,3.81 16.17,6.42 22.68,7.47 -2.27,0.31 -5.49,3.59 -6.49,5.51 -3.64,7.01 -3.2,18.32 0.1,25.61 0.66,1.48 1.85,2.98 3.23,1.73 4.44,9.91 19.57,8.08 23.36,-0.87 0.45,-1.05 0.26,-0.49 0.54,-1.85 0.01,-0.02 0.17,-0.99 0.19,-1.13 0.23,-1.78 0.25,-0.08 0.07,-0.95 -0.08,7.91 -0.82,7.34 1.49,10.8 1.25,-1 1.67,-0.43 1.55,-4.5 -0.04,-1.52 -0.05,-2.98 -0.05,-4.5l0.46 0 -0.38 9.03 24.15 -0.17 -1.11 8.14 -113.12 0 0 -80.98 49.94 -0.04c-1.49,1.57 -5.08,3.27 -6.68,4.78 -0.89,0.84 -2.25,2.17 -2.91,3.09 -0.73,1.03 -1.07,2.5 -2.2,2.95zm400.09 9.92c-3.3,1.53 -5.57,4.05 -10.74,4.76 -1.81,-1.44 -3.42,-3.24 -4.21,-6.03 4.63,-0.94 5.68,-2.65 8.71,-4.67 3.01,0.85 5.68,2.95 6.24,5.94zm55.7 -145.72c-0.69,3.68 -3.85,6.76 -6.94,8.12 -2.57,-0.81 -5.75,-3.63 -6.73,-5.97 4.23,-1.4 6.09,-3.83 8.41,-6.95 1.67,1.69 3.64,2.95 5.26,4.8zm-17.61 -248.31c2.09,0.96 4.56,2.96 3.98,6.62l-3.4 1.48c-0.79,-2.95 -1.88,-4.24 -3.91,-5.42 -3.29,0.62 -11.09,5.45 -10.92,-1.9 3.34,-3.26 5.72,-3.05 11.26,-2.63 1.06,-4.28 -1.1,-6.77 -3.34,-8.23 -2.31,1.8 -1.95,3.25 -6.12,4.78 -7.44,2.73 -12.11,-5.45 0.26,-8.27 1.35,-0.31 2.87,-0.32 3.89,-1.12 -2.91,-5.58 -8.9,-5.44 -11.1,-7.02 10,0.31 12,7.18 14.56,8.02 10.46,3.45 6.1,10.23 4.84,13.69zm-330.19 397.04c12.67,2.98 8.2,22.46 -4.77,19.39 -4.78,-1.13 -8.65,-5.8 -7.39,-12.07 0.98,-4.88 6.28,-8.7 12.16,-7.32zm343.88 -443.91c14.2,2.9 10.16,23.84 -4.15,21.27 -5.26,-0.95 -9.74,-6.29 -8.48,-12.74 1.02,-5.21 6.15,-9.86 12.63,-8.53zm-213.29 475.39c13.75,4.04 7.81,25.32 -6.48,21.05 -13.11,-3.92 -8,-25.3 6.48,-21.05zm51.16 -486.21l110.39 0c-4.36,5.41 -15.33,12.37 -22.01,15.78 -8.99,4.58 -20.76,6.57 -32.11,4.58 -9.45,-1.67 -19.91,-6.49 -28.27,-9.76l-28 -10.6zm-231.39 400.41l0.02 0.09 -96.52 0 0 -49c2.43,0.91 6.88,3.82 9.67,5.33 9.06,4.91 20.16,9.92 29.72,14.78 12.88,6.54 26.72,14.24 30.45,28.83l26.66 -0.03zm415.5 -313.77l0 114.27c-0.65,-1.19 -2.35,-7.89 -4.76,-12.65 -4.62,-9.16 -18.2,-27.14 -24.4,-29.29 0.71,-1.16 1.58,-1.86 2.54,-3.09 2.12,-2.75 6.1,-6.82 7.53,-9.39l-19.95 4.08 0.84 -0.89c-4.88,-4.13 -9.24,-15.35 -10.29,-22.69 -1.44,1.75 -0.62,1.36 -3.51,1.51 -0.96,-1.45 -1.94,-2.04 -3.02,-3.53 -6.17,-8.56 -1.72,-7.87 1.02,-11.97 2.39,0.64 1.69,0.5 3.26,2.86 0.89,1.34 1.03,0.82 1.74,2.3 1.25,-13.06 5.74,-21.76 13.91,-27.25 10.89,-7.31 21.62,-5.01 35.09,-4.27z"/>
  </g>
 </g>
</svg>
