<?xml version="1.0" encoding="UTF-8"?>
<!DOCTYPE svg PUBLIC "-//W3C//DTD SVG 1.1//EN" "http://www.w3.org/Graphics/SVG/1.1/DTD/svg11.dtd">
<!-- Creator: CorelDRAW 2021 (64-Bit) -->
<svg xmlns="http://www.w3.org/2000/svg" xml:space="preserve" width="512px" height="512px" version="1.1" style="shape-rendering:geometricPrecision; text-rendering:geometricPrecision; image-rendering:optimizeQuality; fill-rule:evenodd; clip-rule:evenodd"
viewBox="0 0 512 512"
 xmlns:xlink="http://www.w3.org/1999/xlink"
 xmlns:xodm="http://www.corel.com/coreldraw/odm/2003">
 <defs>
  <style type="text/css">
   <![CDATA[
    .fil2 {fill:#050A4E}
    .fil12 {fill:#080A18}
    .fil4 {fill:#080A36}
    .fil0 {fill:#0CB29B}
    .fil13 {fill:#0F2E65}
    .fil9 {fill:#132C51}
    .fil14 {fill:#2B386B}
    .fil11 {fill:#31324E}
    .fil1 {fill:#44C4B3}
    .fil15 {fill:#54789B}
    .fil7 {fill:#6CA3D0}
    .fil6 {fill:#8BD8CE}
    .fil8 {fill:#B9B9CA}
    .fil10 {fill:#D0EBD7}
    .fil3 {fill:#F6F7F4}
    .fil5 {fill:#F6F8C9}
   ]]>
  </style>
 </defs>
 <g id="Layer_x0020_1">
  <metadata id="CorelCorpID_0Corel-Layer"/>
  <g id="_2437077507392">
   <path class="fil0" d="M260.09 28.04c-4.39,1.69 -10.16,1.38 -15.98,1.26 -4.6,3.75 -187.81,1.71 -211.39,1.76 -3.84,21.66 0.3,52.23 -1.42,75.61 -2.51,34.01 -0.86,113.12 -1.08,152.17 -0.12,20.65 -1.87,56.46 0.62,75.56l16.45 -0.54c-1.27,-20.97 -1.58,-211.56 0.9,-217.31 30.01,-9.91 68.48,20.51 105.22,-4.29 14.8,-9.99 29.91,-27.07 50.63,-43.17 6.14,-4.78 11.95,-8.46 18.24,-13.12 9.74,-7.21 9.51,-9.36 23.73,-9.2l219.38 0.04c2.54,81.88 0.21,182.26 0.18,267.5 -0.01,13.71 2.68,79.58 -1.76,86.82 2.39,-0.11 2.07,-0.79 1.68,1.36l-2.38 2.51c4.06,2.31 1.33,-0.05 2.4,4.6 0.3,1.34 0.26,6.3 0.32,7.89l-3.52 1.76c5.59,-1.01 3.44,7.12 3.26,21.64 -0.1,7.94 0.14,16.11 -0.47,23.99l-29.73 0.2 -9.82 -0.1 -3.18 0.08 -375.26 -0.06 0.25 -23.67 -18.08 0 0.53 41.2c13.97,0.51 28.64,0.1 42.72,0.19 6.88,0.04 14.66,0.33 21.44,-0.02l9.07 -0.62c4.93,0.22 6.99,0.32 12.15,0.05 8.05,1.76 234.46,0.64 267.39,0.52 9.27,-0.04 31.95,-2.25 38.34,1.06 4.71,-0.4 2.91,-2.37 3.21,2.43l2.25 -3.79 11.18 0.61 44.99 -0.13c4.31,-17.43 -4.07,-68.62 3.04,-78.73 -4.65,-2.46 -0.54,1.35 -1.96,-3.29 -0.28,-0.9 -0.65,-3.09 -0.68,-3.99 -0.13,-5.42 0.25,-5.3 2.4,-8.29l-2.68 -1.04 1.87 -3.91c-1.76,-2.48 -1.37,-2.26 -1.34,-9.43l0.06 -257.53c-0.02,-20.11 2.53,-70.86 -0.57,-87.38 -44.49,-1.82 -112.53,0.01 -161.27,-0.02l-39.84 -0.03c-0.99,0.02 -6.44,-0.04 -7.12,-0.19l-5.05 -2.53c-1.6,1.05 -2.56,2.08 -4.4,2.47 -6.48,1.36 -3.97,-0.33 -4.92,-0.9z"/>
   <path class="fil1" d="M28.88 110.08l0.63 9.24c0.37,3.95 0.77,2.15 -0.58,4.84l0.12 209.86 -29.05 0.44 0 54.31c14.77,-3.56 86.16,-0.9 106.67,-0.87 35.28,0.05 72.15,-1.08 107.22,0.12l30.29 -0.21c-2.73,-8.92 -9.58,-20 -13.74,-27.9 -4.81,-9.15 -9.29,-18.36 -13.8,-25.78l-169.35 -0.27 -16.45 0.54c-2.49,-19.1 -0.74,-54.91 -0.62,-75.56 0.22,-39.05 -1.43,-118.16 1.08,-152.17 1.72,-23.38 -2.42,-53.95 1.42,-75.61 23.58,-0.05 206.79,1.99 211.39,-1.76l-0.16 -0.99c-11.91,3.43 -87.96,0.98 -107.42,1.11 -35.55,0.24 -71.28,-0.43 -106.79,-0.02 0.17,15.24 1.95,71.08 -0.86,80.68z"/>
   <path class="fil2" d="M0 440.93l29.28 0.4 18.08 0 194.12 -0.03 -27.59 -53.28c-35.07,-1.2 -71.94,-0.07 -107.22,-0.12 -20.51,-0.03 -91.9,-2.69 -106.67,0.87l0 52.16z"/>
   <path class="fil3" d="M269.41 26.47l5.05 2.53c0.68,0.15 6.13,0.21 7.12,0.19l39.84 0.03c48.74,0.03 116.78,-1.8 161.27,0.02 3.1,16.52 0.55,67.27 0.57,87.38l-0.06 257.53c-0.03,7.17 -0.42,6.95 1.34,9.43 6.63,-7.6 11.43,-13.93 16.53,-24.68 6.3,-13.27 8.8,-28.75 10.93,-31.69l0 -120.99 -24.18 0c-0.02,-12.91 -1.43,-23.21 -1.43,-34.14l25.61 0 0 -34.13 -24.18 0c-0.02,-12.91 -1.43,-23.21 -1.43,-34.13l25.61 -0.01 0 -34.13 -24.18 0 0 -34.13 24.18 0 0 -35.55 -32.72 0 0 28.44 -34.13 0 0 -28.44 -109.36 0c-3.38,3.35 -12.96,5.38 -17.53,6.84 -14.68,4.67 -41.02,17.91 -48.85,19.63z"/>
   <path class="fil2" d="M0 19.9l0 49.8c16.17,0.31 14,15.09 10.42,20.16 -0.22,0.3 -0.43,0.64 -0.67,0.91 -3,3.33 -3.96,2.97 -9.75,3.09l0 53.66c4.67,-1.63 9.22,-8.86 13.01,-12.2 4.33,-3.81 9.78,-9.01 15.92,-11.16 1.35,-2.69 0.95,-0.89 0.58,-4.84 -13.88,5.95 -22.91,19.1 -27.66,21.08 0.35,-8.45 -1.93,-9.22 8.83,-18.81 3.55,-3.17 12.89,-9.8 18.2,-11.51 2.81,-9.6 1.03,-65.44 0.86,-80.68 35.51,-0.41 71.24,0.26 106.79,0.02 19.46,-0.13 95.51,2.32 107.42,-1.11 6.63,-6.15 56.39,-29.18 77.18,-26.26 -21.96,9.61 -34.48,12.11 -61.04,25.99 0.95,0.57 -1.56,2.26 4.92,0.9 1.84,-0.39 2.8,-1.42 4.4,-2.47 7.83,-1.72 34.17,-14.96 48.85,-19.63 4.57,-1.46 14.15,-3.49 17.53,-6.84l-233.4 0c0,5.83 -0.51,6.79 -1.42,11.37 -5.58,2.52 -9.42,4.79 -16.11,2.7 -7.16,-2.23 -6.63,-5.03 -6.63,-14.07l-65.44 0c1.61,4.81 2.62,9.96 -0.42,14.95 -2.61,4.3 -6.29,4.83 -12.37,4.95z"/>
   <path class="fil3" d="M115.19 502.04l5.68 0c0.01,-11.3 2.39,-8.78 2.86,-15.65l14.22 0.01 0 25.6 28.3 0 0.48 -11.23 12.98 0.47 0.03 10.76 198.4 0c2.15,-2.16 -1.54,-0.41 3.68,-2.34l10.68 -1.92c12.78,-3.07 25.82,-9.82 28.42,-24.03 -6.39,-3.31 -29.07,-1.1 -38.34,-1.06 -32.93,0.12 -259.34,1.24 -267.39,-0.52l3.47 4.03c0.84,1.63 1.2,3.54 0.82,6.02 -1.43,9.48 -2.29,1.78 -4.29,9.86z"/>
   <path class="fil2" d="M47.21 102.83c36.93,-4.74 68.1,15.74 101.16,-2.9 14.68,-8.27 19.78,-16.01 30.84,-25.95 9.01,-8.1 21.59,-18.26 32.47,-25.52 -4.2,-3.57 -32.95,-1.57 -39.59,-1.57 -38.18,0.03 -89.54,-1.4 -124.78,0.12l-0.1 55.82z"/>
   <path class="fil3" d="M0 147.52l0 186.94 29.05 -0.44 -0.12 -209.86c-6.14,2.15 -11.59,7.35 -15.92,11.16 -3.79,3.34 -8.34,10.57 -13.01,12.2z"/>
   <path class="fil2" d="M484.54 383.58l-1.87 3.91 2.68 1.04c17.2,-19.84 15.33,-22.74 24.83,-42.63 3.09,30.78 -10.54,40.76 -24.59,58.2 -7.11,10.11 1.27,61.3 -3.04,78.73l-44.99 0.13c-0.47,18.69 -18.65,29.27 -38.8,26.9 12.62,-5.99 22.23,-9.32 25.37,-23.72 -0.3,-4.8 1.5,-2.83 -3.21,-2.43 -2.6,14.21 -15.64,20.96 -28.42,24.03l-10.68 1.92c-5.22,1.93 -1.53,0.18 -3.68,2.34l105.34 0c-2.16,-2.61 -4.68,-4.08 -5.7,-7.34 -0.66,-2.13 -0.84,-4.66 -0.31,-6.85 1.6,-6.65 2.06,-3.6 3.37,-4.32 -0.02,-7.71 14.48,-5.8 18.38,-1.39 7.27,8.22 0.82,15.44 -3.3,19.9l16.08 0 0 -184.79c-2.13,2.94 -4.63,18.42 -10.93,31.69 -5.1,10.75 -9.9,17.08 -16.53,24.68z"/>
   <path class="fil3" d="M0 490.66l0 21.34 35.55 0c0,-2.27 -0.21,-4.06 -0.32,-6.03l0.32 -19.58 34.13 0 0 25.61 34.13 0 0.01 -9.96 11.37 0c2,-8.08 2.86,-0.38 4.29,-9.86 0.38,-2.48 0.02,-4.39 -0.82,-6.02l-3.47 -4.03c-5.16,0.27 -7.22,0.17 -12.15,-0.05l-9.07 0.62c-6.78,0.35 -14.56,0.06 -21.44,0.02 -14.08,-0.09 -28.75,0.32 -42.72,-0.19l-0.53 -41.2 -29.28 -0.4 0 2.8c8.79,0 20.49,-1.03 27.01,1.42 1.18,4.18 0.73,7.04 0.81,8.19 0.48,7.16 2.04,-0.09 2.04,28.79 -3.46,-3.98 -9.98,-3.67 -16.99,-2.62 -5.67,0.84 -1.09,1.89 -12.87,11.15z"/>
   <path class="fil3" d="M211.68 48.46c-10.88,7.26 -23.46,17.42 -32.47,25.52 -11.06,9.94 -16.16,17.68 -30.84,25.95 -33.06,18.64 -64.23,-1.84 -101.16,2.9l-0.14 8.74c44.3,-6.97 66.32,22.07 108.06,-6.29 8.19,-5.56 29.47,-27.29 42.4,-37.18l28.94 -21.43c-6.57,0.24 -9.8,-0.76 -14.79,1.79z"/>
   <path class="fil4" d="M435.37 465.08l29.73 -0.2c0.61,-7.88 0.37,-16.05 0.47,-23.99 0.18,-14.52 2.33,-22.65 -3.26,-21.64 -28.37,11.13 -30.3,12.44 -26.94,45.83z"/>
   <path class="fil3" d="M0 490.66c11.78,-9.26 7.2,-10.31 12.87,-11.15 7.01,-1.05 13.53,-1.36 16.99,2.62 0,-28.88 -1.56,-21.63 -2.04,-28.79 -0.08,-1.15 0.37,-4.01 -0.81,-8.19 -6.52,-2.45 -18.22,-1.42 -27.01,-1.42l0 46.93z"/>
   <polygon class="fil3" points="479.28,0 445.15,0 445.15,28.44 479.28,28.44 "/>
   <path class="fil3" d="M35.55 512l34.13 0 0 -25.61 -34.13 0 -0.32 19.58c0.11,1.97 0.32,3.76 0.32,6.03z"/>
   <path class="fil3" d="M512 206.22l0 -34.14 -25.61 0c0,10.93 1.41,21.23 1.43,34.14l24.18 0z"/>
   <path class="fil3" d="M512 137.95l0 -34.14 -25.61 0.01c0,10.92 1.41,21.22 1.43,34.13l24.18 0z"/>
   <path class="fil3" d="M425.55 464.98l9.82 0.1c-3.36,-33.39 -1.43,-34.7 26.94,-45.83l3.52 -1.76c-0.06,-1.59 -0.02,-6.55 -0.32,-7.89 -1.07,-4.65 1.66,-2.29 -2.4,-4.6 -6.87,3.77 -9.67,4.74 -17.69,7.74 -5.9,2.21 -11.8,5.03 -15.55,9.96 -8.28,10.89 -5.26,27.75 -4.32,42.28z"/>
   <polygon class="fil3" points="512,69.68 512,35.55 487.82,35.55 487.82,69.68 "/>
   <path class="fil3" d="M115.19 502.04l-11.37 0 -0.01 9.96 34.14 0 0 -25.6 -14.22 -0.01c-0.47,6.87 -2.85,4.35 -2.86,15.65l-5.68 0z"/>
   <path class="fil5" d="M255.09 433c-2.29,23.5 -1.7,6.29 1.35,21.37 4.24,0.21 12.72,0.07 16.05,-1.27 14.28,-5.74 7.93,-33.38 -17.4,-20.1z"/>
   <path class="fil6" d="M352.07 420.22c-15.17,5.92 -8.35,28.31 9.01,23.43 6.37,-1.79 9.53,-9.45 7.1,-16.62 -1.39,-4.13 -5.62,-7.59 -9.86,-8.03 -5.38,-0.56 -6.25,1.22 -6.25,1.22z"/>
   <path class="fil5" d="M318.58 455.11c-1.22,3.55 -1.71,0.13 -0.58,6.36 10.69,0.58 18.27,1.64 20.07,-9.22 0.24,-1.43 0.39,-2.89 0.24,-4.37 -1.01,-10.13 -8.3,-10.77 -18.31,-10.52 -0.28,0.3 -0.68,0.36 -0.82,0.92 -0.82,3.42 -6.28,1.71 -6.28,15.41 3.03,2.81 -2.82,3.24 5.68,1.42z"/>
   <path class="fil7" d="M480.84 493.49c-1.31,0.72 -1.77,-2.33 -3.37,4.32 -0.53,2.19 -0.35,4.72 0.31,6.85 1.02,3.26 3.54,4.73 5.7,7.34l12.44 0c4.12,-4.46 10.57,-11.68 3.3,-19.9 -3.9,-4.41 -18.4,-6.32 -18.38,1.39z"/>
   <path class="fil3" d="M243.95 28.31l0.16 0.99c5.82,0.12 11.59,0.43 15.98,-1.26 26.56,-13.88 39.08,-16.38 61.04,-25.99 -20.79,-2.92 -70.55,20.11 -77.18,26.26z"/>
   <path class="fil3" d="M485.35 388.53c-2.15,2.99 -2.53,2.87 -2.4,8.29 0.03,0.9 0.4,3.09 0.68,3.99 1.42,4.64 -2.69,0.83 1.96,3.29 14.05,-17.44 27.68,-27.42 24.59,-58.2 -9.5,19.89 -7.63,22.79 -24.83,42.63z"/>
   <path class="fil3" d="M424.13 486.14c-3.14,14.4 -12.75,17.73 -25.37,23.72 20.15,2.37 38.33,-8.21 38.8,-26.9l-11.18 -0.61 -2.25 3.79z"/>
   <path class="fil8" d="M93.85 84.74c-1.98,22.48 17.24,17.8 20.55,9.75 2.36,-5.72 0.05,-12.2 -5.4,-14.41 -8.42,-3.42 -10.38,1.45 -15.15,4.66z"/>
   <path class="fil9" d="M79.65 72.53c4.86,1.82 5,1.42 11.36,1.42l5.69 -5.69c-0.31,-20.74 -17.34,-16.33 -19.53,-7.23 -1.78,7.37 0.5,7.97 2.48,11.5z"/>
   <path class="fil10" d="M315.73 432.35c2.59,-8.81 1.47,-8.16 -0.43,-16.74 -8.66,-1.61 -17.11,-2.84 -17.37,8.16 -0.29,11.72 9.09,11.57 17.8,8.58z"/>
   <path class="fil11" d="M102.39 0l-24.16 0c0,9.04 -0.53,11.84 6.63,14.07 6.69,2.09 10.53,-0.18 16.11,-2.7 0.91,-4.58 1.42,-5.54 1.42,-11.37z"/>
   <path class="fil2" d="M480.84 493.49c-4.13,24 17.2,19.56 18.6,8.45 0.74,-5.88 -2.62,-7.94 -5.51,-10.97 -8.95,-0.53 -6.99,0.54 -13.09,2.52z"/>
   <path class="fil3" d="M354.62 422.4c-15.43,6.35 -5.87,22.62 5.14,18.28 13.09,-5.16 3.64,-21.9 -5.14,-18.28z"/>
   <path class="fil3" d="M22.81 503.44c1.74,-5.55 4.78,-3.22 4.02,-14.34 -2.16,-1.44 -14.45,-10.96 -18.58,1.17 -3.94,11.58 6.59,12.13 14.56,13.17z"/>
   <path class="fil12" d="M422.37 465.06l3.18 -0.08c-0.94,-14.53 -3.96,-31.39 4.32,-42.28 3.75,-4.93 9.65,-7.75 15.55,-9.96 8.02,-3 10.82,-3.97 17.69,-7.74l2.38 -2.51c0.39,-2.15 0.71,-1.47 -1.68,-1.36 -6.61,2.87 -11.59,5.63 -18.93,8.28 -7.13,2.57 -12.4,5.53 -16.79,10.14 -10.74,11.27 -6.64,29.06 -5.72,45.51z"/>
   <path class="fil3" d="M29.51 119.32l-0.63 -9.24c-5.31,1.71 -14.65,8.34 -18.2,11.51 -10.76,9.59 -8.48,10.36 -8.83,18.81 4.75,-1.98 13.78,-15.13 27.66,-21.08z"/>
   <path class="fil11" d="M0 93.86c5.79,-0.12 6.75,0.24 9.75,-3.09 0.24,-0.27 0.45,-0.61 0.67,-0.91 3.58,-5.07 5.75,-19.85 -10.42,-20.16l0 24.16z"/>
   <path class="fil13" d="M0 19.9c6.08,-0.12 9.76,-0.65 12.37,-4.95 3.04,-4.99 2.03,-10.14 0.42,-14.95l-12.79 0 0 19.9z"/>
   <path class="fil4" d="M97.52 97.42c13.66,4.4 19.3,-4.51 12.62,-15.44 -14.14,-2.04 -16.24,4.23 -12.62,15.44z"/>
   <path class="fil14" d="M211.92 19.9c6.82,1.7 6.03,1.17 12.78,0 1.75,-6.93 2.23,-7.86 0,-14.2 -13.03,-3.2 -17.16,2.54 -12.78,14.2z"/>
   <path class="fil15" d="M500.34 445.15c-3.27,-4.92 -8.33,0.56 -10.67,2.85 -1.41,7.94 2.16,16.45 11.24,11.55 3.18,-1.72 6.3,-6.98 3.75,-11.29 -3.02,-5.1 0.28,-1.58 -4.32,-3.11z"/>
   <path class="fil10" d="M228.69 506.18l8.75 1.59 5.86 -6.91 -3.98 -8.88c-13.98,-0.6 -12.53,3.69 -10.63,14.2z"/>
   <polygon class="fil5" points="166.25,512 179.74,512 179.71,501.24 166.73,500.77 "/>
   <path class="fil4" d="M500.34 445.15c-4.71,0.8 -5.45,0.82 -8.8,2.28 -1.15,9.82 0.98,13 10.92,9.64 0.56,-1.97 1.27,-3.36 0.86,-6.02 -0.76,-4.93 0.34,0.03 -1.2,-3.08l-1.78 -2.82z"/>
   <path class="fil3" d="M263.86 446.99l7.79 0.01 0.21 -10.39c-7.05,-2.85 -3.21,-3.28 -9.83,-0.84 -1.32,5.71 0.39,6.34 1.83,11.22z"/>
   <path class="fil3" d="M318.58 455.11c5.46,-1.79 4.63,-0.56 10.43,-1.41 1.56,-10.16 -1.4,-10.86 -9.06,-7.8 -0.55,5.94 0.59,3.7 -1.37,9.21z"/>
   <polygon class="fil7" points="126.92,79.57 0,0 "/>
   <polygon class="fil6" points="22.81,503.44 0,0 "/>
   <polygon class="fil2" points="126.92,79.57 0,0 "/>
  </g>
 </g>
</svg>
