<?xml version="1.0" encoding="UTF-8"?>
<!DOCTYPE svg PUBLIC "-//W3C//DTD SVG 1.1//EN" "http://www.w3.org/Graphics/SVG/1.1/DTD/svg11.dtd">
<!-- Creator: CorelDRAW 2021 (64-Bit) -->
<svg xmlns="http://www.w3.org/2000/svg" xml:space="preserve" width="512px" height="512px" version="1.1" style="shape-rendering:geometricPrecision; text-rendering:geometricPrecision; image-rendering:optimizeQuality; fill-rule:evenodd; clip-rule:evenodd"
viewBox="0 0 512 512"
 xmlns:xlink="http://www.w3.org/1999/xlink"
 xmlns:xodm="http://www.corel.com/coreldraw/odm/2003">
 <defs>
  <style type="text/css">
   <![CDATA[
    .fil1 {fill:#0B4C7B}
    .fil0 {fill:#389FE4}
    .fil2 {fill:#DCFEFF}
   ]]>
  </style>
 </defs>
 <g id="Layer_x0020_1">
  <metadata id="CorelCorpID_0Corel-Layer"/>
  <g id="_2436745684288">
   <path class="fil0" d="M0 512l512 0 0 -512 -512 0 0 512zm58.8 -358.42c2.74,2.04 3.64,3.49 6.42,5.96 2.96,2.62 3.45,2.52 7.36,4.93 4.71,3.89 14.43,6.66 21.21,7.77l4.97 3.57c-0.04,0.26 -0.11,0.74 -0.18,1.02 -2.35,9.67 -16.7,27.87 -17.42,73.45 -0.91,58.36 19.54,98.85 58.2,135.19 23.47,22.04 35.57,23.51 61.73,36.32l0.78 3.97c4.99,5.26 3.24,8.15 10.17,12.37 -6.62,-27.43 10.99,-35.23 36.83,-35.29 25.13,-0.07 50.27,0 75.4,0 34.09,-0.01 121.76,-3.9 148.31,3.79 2.67,-2.39 1.76,-0.69 -2.9,-4.28 -6.75,-5.2 -14.65,-7.95 -23.65,-7.65 2.75,-4.44 3.7,-5.14 6.09,-9.5 23.33,-42.55 33.52,-70.87 34.24,-122.09l-2.85 -39.28c-0.2,-1.32 -0.68,-4.94 -1.13,-6.05 -2.61,-6.43 -0.45,-2.62 -4.29,-5.81 0.77,19.89 3.87,20.55 4.14,54.02 0.34,40.65 -16.64,96.02 -41.34,128.43l-67.09 -0.54 -7.78 -2.08c15.57,-15.18 24.12,-21.35 37.12,-41.31 38.09,-58.5 36.27,-134.87 0.38,-190.76 -18.8,-29.29 -50.15,-57.98 -92.07,-71.57 -32.3,-10.47 -74.11,-11.44 -107.67,-1.08 -11.1,3.43 -19.34,8.1 -29.46,11.69l-0.72 -6.86 -6.9 -19.78c-2.91,-3.4 -3.41,-5.08 -6.04,-8.08 -2.98,-3.39 -3.51,-3.03 -5.76,-7.03 -3.34,-1.92 -5.13,-3.4 -6.89,-7.24 6.49,-1.49 10.53,-6.07 18,-7.91 -0.39,-0.33 -1.05,-1.18 -1.33,-0.76l-4.86 -1.18c-0.03,0.01 -5.77,2.77 -5.89,2.84 -18.88,9.89 -10.92,-0.66 -33.85,-3.62 -62.83,-8.1 -98.58,47.75 -71,103.07 -12.24,17.44 -22.43,52.55 -26.09,73.1 -5.36,30.12 -3.78,61.93 1.61,90.45 1.75,-1.95 3.48,-2.01 2.35,-10.73 -3.54,-27.2 -5.67,-49.93 -0.16,-78.12 8.26,-42.24 13.07,-41.17 24.41,-70.94 3.8,1.9 4.92,4.37 7.6,7.6z"/>
   <path class="fil1" d="M58.8 153.58c2.74,2.04 3.64,3.49 6.42,5.96 2.96,2.62 3.45,2.52 7.36,4.93 4.71,3.89 14.43,6.66 21.21,7.77l4.97 3.57c-0.04,0.26 -0.11,0.74 -0.18,1.02 -2.35,9.67 -16.7,27.87 -17.42,73.45 -0.91,58.36 19.54,98.85 58.2,135.19 23.47,22.04 35.57,23.51 61.73,36.32l0.78 3.97c4.99,5.26 3.24,8.15 10.17,12.37 -6.62,-27.43 10.99,-35.23 36.83,-35.29 25.13,-0.07 50.27,0 75.4,0 34.09,-0.01 121.76,-3.9 148.31,3.79 2.67,-2.39 1.76,-0.69 -2.9,-4.28 -6.75,-5.2 -14.65,-7.95 -23.65,-7.65 2.75,-4.44 3.7,-5.14 6.09,-9.5 23.33,-42.55 33.52,-70.87 34.24,-122.09l-2.85 -39.28c-0.2,-1.32 -0.68,-4.94 -1.13,-6.05 -2.61,-6.43 -0.45,-2.62 -4.29,-5.81 0.77,19.89 3.87,20.55 4.14,54.02 0.34,40.65 -16.64,96.02 -41.34,128.43l-67.09 -0.54 -7.78 -2.08c15.57,-15.18 24.12,-21.35 37.12,-41.31 38.09,-58.5 36.27,-134.87 0.38,-190.76 -18.8,-29.29 -50.15,-57.98 -92.07,-71.57 -32.3,-10.47 -74.11,-11.44 -107.67,-1.08 -11.1,3.43 -19.34,8.1 -29.46,11.69l-0.72 -6.86 -6.9 -19.78c-2.91,-3.4 -3.41,-5.08 -6.04,-8.08 -2.98,-3.39 -3.51,-3.03 -5.76,-7.03 -3.34,-1.92 -5.13,-3.4 -6.89,-7.24 6.49,-1.49 10.53,-6.07 18,-7.91 -0.39,-0.33 -1.05,-1.18 -1.33,-0.76l-4.86 -1.18c-0.03,0.01 -5.77,2.77 -5.89,2.84 -18.88,9.89 -10.92,-0.66 -33.85,-3.62 -62.83,-8.1 -98.58,47.75 -71,103.07 -12.24,17.44 -22.43,52.55 -26.09,73.1 -5.36,30.12 -3.78,61.93 1.61,90.45 1.75,-1.95 3.48,-2.01 2.35,-10.73 -3.54,-27.2 -5.67,-49.93 -0.16,-78.12 8.26,-42.24 13.07,-41.17 24.41,-70.94 3.8,1.9 4.92,4.37 7.6,7.6zm328.77 298.46l-3.68 0.39c-12.39,12.19 -36.94,18.81 -42.75,26.14 11.2,-2.66 42.26,-19.44 46.43,-26.53zm-273.09 -279.16c-27.42,40.68 -27.14,102.77 -7.89,148.7 6.2,14.78 13.25,24.35 21.61,35.22 16.35,21.25 46.24,45.96 75.18,52.43 10.95,-14.11 18.76,-14.96 41.24,-14.96l86.79 0.03c12.9,0.08 13.06,-1.27 21.43,-7.33 62.85,-45.55 85.14,-131.79 49.78,-205.14 -25.33,-52.55 -79.13,-87.56 -139.46,-90.94 -24.66,-1.38 -50.02,4.16 -71.96,13.61 -3.5,1.5 -6.5,2.82 -9.81,4.44 -6.38,3.13 -6.48,2.09 -7.81,7.66 -7.7,32.39 -24.51,51.94 -59.1,56.28z"/>
   <path class="fil2" d="M357.5 29.16c5.52,-3.53 2.38,-5.28 11.66,-5.53 3.46,5.1 4.52,10.03 12.1,11.51 4.75,-4.78 6.76,-9.16 12.7,-11.86 10.29,3.72 4.57,7.37 14.22,11.91 8.67,-3.39 6.34,-11.42 17.49,-11.35 5.85,5.83 2.39,8.39 10.95,11.12 7.38,-2.89 6.99,-10.25 15.65,-11.26 7.78,3.69 4.65,10.25 14.22,10.83 8.83,-2.24 7.55,-20.2 20.36,-4.99 1.98,2.34 4.32,4.34 6.61,5.44 -1.25,-4.25 0.2,-0.59 -2.34,-4.08 -3.69,-5.1 -6.65,-10.01 -11.83,-12.25 -8.19,3.4 -6.22,8.56 -14.22,11.7 -8.16,-3.07 -6.25,-8.66 -14.22,-11.67 -8.31,3.63 -5.74,8.43 -14.23,11.61 -7.15,-3.13 -7.06,-8.96 -14.22,-11.67 -7.72,3.33 -6.58,9.19 -14.22,11.78 -7.35,-3.2 -6.31,-8.42 -14.22,-11.8 -8.37,3.82 -5.67,8.16 -14.23,11.87 -5.86,-3.32 -7.55,-7.95 -12.8,-11.42 -4.74,1.46 -9.13,4.52 -9.43,10.11zm-145.46 408.97c9.15,8.75 13.04,14 31.13,14.34 15.56,0.29 31.37,0.05 46.96,0.05 30.13,0 64.18,1.45 93.76,-0.09l3.68 -0.39c10.05,1.37 69.91,1.27 77.73,-1.06 9.4,-2.8 18.62,-8.68 20.61,-19.06 2.8,-14.52 -7.24,-18.81 -13.33,-25.29 -26.55,-7.69 -114.22,-3.8 -148.31,-3.79 -25.13,0 -50.27,-0.07 -75.4,0 -25.84,0.06 -43.45,7.86 -36.83,35.29zm248.89 -183.55c-0.07,35.69 -9.25,68.14 -25.3,98.51 -6.6,12.49 -12.84,14.77 -3.86,26.78 13.47,0.13 16.45,-9.43 21.26,-19.18 20.91,-42.32 24.71,-64.52 24.83,-111.8 0.1,-41.03 -14.48,-85.05 -36.57,-117.11 -20.58,-29.88 -48.31,-55.52 -80.73,-72.7 -13.41,-7.11 -61.29,-26.75 -78.61,-23.09 -7.43,1.57 -9.03,11.77 -2.43,15.94 4.82,3.05 14.58,3.1 20.89,4.54 92.9,21.19 160.69,105.5 160.52,198.11zm-363.52 -196.43c-47.38,10.86 -49.82,67.89 -18.22,87.35 44.66,27.5 84.23,-15.38 75.38,-49.8 -7.33,-28.48 -32.57,-43.18 -57.16,-37.55zm170.31 418.35c2.92,-5.34 3.27,-6.32 1.5,-13.41 -6.54,-3.4 -32.28,-3.3 -43.32,-4.89 -71.58,-10.29 -138.85,-63.61 -161.55,-131.54 -2.09,-6.25 -3.54,-13.29 -7.37,-16.64 -6.49,-5.69 -13.97,-1.92 -15.04,4.71 -2.26,13.9 23.45,57.29 29.35,66.3 24.62,37.65 68.23,70.9 110.77,85.44 18.93,6.47 65.32,16.04 85.66,10.03zm-94.12 -384.59l0.72 6.86c10.12,-3.59 18.36,-8.26 29.46,-11.69 33.56,-10.36 75.37,-9.39 107.67,1.08 41.92,13.59 73.27,42.28 92.07,71.57 35.89,55.89 37.71,132.26 -0.38,190.76 -13,19.96 -21.55,26.13 -37.12,41.31l7.78 2.08c5.26,-9.89 48.67,-36.93 60.02,-105.09 11.96,-71.85 -13.94,-136.71 -66.14,-177.17 -14.83,-11.5 -32.39,-22.13 -53.59,-28.9 -32.08,-10.25 -74.74,-11.38 -108.6,-2.24 -12.11,3.28 -21.06,8.5 -31.89,11.43zm28.27 333.85l-0.78 -3.97c-26.16,-12.81 -38.26,-14.28 -61.73,-36.32 -38.66,-36.34 -59.11,-76.83 -58.2,-135.19 0.72,-45.58 15.07,-63.78 17.42,-73.45 0.07,-0.28 0.14,-0.76 0.18,-1.02l-4.97 -3.57c-11.51,29.1 -17.88,43.99 -18.05,80.91 -0.3,68.57 33.28,126.34 89.56,158.89 15.44,8.93 30.82,13.4 34.79,15.85 4.35,-2.21 0.6,1.21 1.78,-2.13zm-129.29 -261.29c-3.91,-2.41 -4.4,-2.31 -7.36,-4.93 -2.78,-2.47 -3.68,-3.92 -6.42,-5.96 -10.84,10.44 -29.9,77.3 -21.2,84.75 15.4,13.19 17.75,-22.15 20.03,-31.29 4.02,-16.11 14.31,-38.68 14.95,-42.57zm120.15 -122.71c-1.1,0.75 -33.05,13.14 -37.83,15.26 2.25,4 2.78,3.64 5.76,7.03 2.63,3 3.13,4.68 6.04,8.08 8.7,-3.06 20.45,-10.38 30.91,-11.04 8.93,-4.84 17.28,-2.46 15.63,-17.1 -1.34,-1.32 -2.74,-2.59 -4.23,-4.55l-16.28 2.32zm164.46 6.12c5.36,-0.98 4.02,-7.91 11.17,-4.01 4.66,2.54 5.12,7.8 11.37,10.49 6.28,-2.29 7.59,-6.5 12.25,-11.49 10.34,1.37 7.59,7.42 16.2,11.52 7.47,-3.07 6.78,-9.31 14.22,-11.47 6.14,2.44 7.82,8.1 12.8,11.19 7.32,-0.77 8.59,-5.94 13.58,-11.23 11.52,1.21 7.19,9.76 17.71,11.27 4.78,-3.06 6.34,-9.01 12.8,-11.37 6.46,2.14 7.44,7.19 12.8,11.14 2.03,-1.7 0.66,0.72 0.91,-2.43 -7.79,-5.1 -4.51,-10.69 -13.71,-13.68 -8.09,2.99 -5.38,7.87 -14.22,11.51 -10.42,-3.22 -3.93,-8.4 -14.22,-11.5 -8.17,2.9 -5.01,7.65 -14.23,11.5 -10.09,-4.01 -5.04,-8.24 -14.22,-11.59 -8.22,3.39 -5.63,8.67 -14.22,11.69 -9.6,-2.57 -4.05,-8.63 -14.22,-11.53 -7.43,2.59 -6.39,8.18 -14.23,11.39 -6.26,-1.74 -7.5,-6.41 -10.83,-11.03 -7.39,0.38 -10.02,4.04 -11.71,9.63zm1.43 -9.73c2.6,-2.8 2.7,-3.55 6.89,-5.7 7.75,3.04 7,8.12 14.22,11.7 7.48,-2.86 7.1,-8.18 14.23,-11.64 8.06,3.49 6.46,7.88 14.22,11.61 5.08,-1.89 8.57,-6.91 11.94,-11.43 10.12,1.16 6.93,6.91 16.5,11.35 7.64,-2.85 6.78,-7.85 14.23,-11.53 7.08,3.13 6.81,8.29 14.22,11.49 6.65,-2.47 7.73,-8.54 14.22,-11.38 7.07,2.85 7.23,7.72 12.8,11.18 3.08,-1.69 0.6,1.11 1.42,-2.23 -7.13,-3.71 -3.63,-5.43 -9.38,-10.99 -11.7,-11.32 -11.26,16.53 -23.34,6.68 -4.33,-3.54 -1.3,-7.92 -10.82,-9.54 -5.68,2.71 -5.75,6.23 -9.69,11.21 -13.35,0.65 -7.55,-9.24 -19.3,-10.83 -6.19,3.28 -4.7,5.71 -9.21,10.69 -13.2,0.51 -7.62,-8.64 -19.24,-10.82 -4.94,2.81 -5.77,6.46 -9.09,10.91 -13.53,0.33 -6.53,-6.88 -17.93,-10.84 -4.77,3.31 -4.41,4.48 -8.56,7.08l1.67 3.03z"/>
  </g>
 </g>
</svg>
