<?xml version="1.0" encoding="UTF-8"?>
<!DOCTYPE svg PUBLIC "-//W3C//DTD SVG 1.1//EN" "http://www.w3.org/Graphics/SVG/1.1/DTD/svg11.dtd">
<!-- Creator: CorelDRAW 2021 (64-Bit) -->
<svg xmlns="http://www.w3.org/2000/svg" xml:space="preserve" width="512px" height="512px" version="1.1" style="shape-rendering:geometricPrecision; text-rendering:geometricPrecision; image-rendering:optimizeQuality; fill-rule:evenodd; clip-rule:evenodd"
viewBox="0 0 512 512"
 xmlns:xlink="http://www.w3.org/1999/xlink"
 xmlns:xodm="http://www.corel.com/coreldraw/odm/2003">
 <defs>
  <style type="text/css">
   <![CDATA[
    .fil14 {fill:#02020B}
    .fil11 {fill:#020359}
    .fil5 {fill:#072877}
    .fil3 {fill:#0B156D}
    .fil12 {fill:#0DCBF3}
    .fil15 {fill:#66B533}
    .fil10 {fill:#BBBBBB}
    .fil16 {fill:#CAA577}
    .fil6 {fill:#CCCCB6}
    .fil2 {fill:#D1A601}
    .fil1 {fill:#D2CED0}
    .fil13 {fill:#E32A0F}
    .fil8 {fill:#E90503}
    .fil17 {fill:#EDB88E}
    .fil18 {fill:#F1D08D}
    .fil4 {fill:#F4F5F4}
    .fil9 {fill:#FA6704}
    .fil7 {fill:#FAF906}
    .fil0 {fill:#FECD05}
   ]]>
  </style>
 </defs>
 <g id="Layer_x0020_1">
  <metadata id="CorelCorpID_0Corel-Layer"/>
  <g id="_2437068336048">
   <path class="fil0" d="M175 56.41c6.83,-0.41 43.11,-19.09 96.65,-14.62 16.47,1.38 32.48,4.11 47.25,8.87 8.86,2.86 21.61,7.39 29.93,11.67 3.56,1.82 7.22,3.84 10.37,4.94 3.74,-0.66 11.06,-8.33 14.84,-10.15 2.89,-2.91 29.54,-10.96 31.32,-11.31 -0.07,5.42 -6.14,7.3 -6.16,11.89 0.65,-1.48 2.73,-2.58 4.3,-3.79 1.92,-1.48 3.04,-2.31 5.04,-3.78l30.08 -22.06c0.38,-0.34 0.33,-1.19 4.1,-2.24 1.42,-0.39 2.74,-0.49 3.96,-0.8 6.07,-1.57 15.54,-7.12 23.29,-7.86 -0.92,3.18 -0.64,2.22 -2.47,4.71l-14.12 19.36c-1.1,1.54 -0.27,1.54 -2.58,3.23 -4.77,3.72 -9.43,6.62 -13.91,10.58l10.04 -2.94c-1.96,4.06 -5.02,7.37 -7.24,10.85l-0.9 1.16c-0.1,0.14 -0.3,0.4 -0.41,0.56 -0.11,0.15 -0.27,0.36 -0.38,0.53 -0.6,0.83 -0.69,1.01 -1.32,1.9 -0.25,0.36 -0.92,1.22 -1.34,1.81 -2.54,3.61 -4.39,8.65 -7.77,10.76 -2.89,1.84 -24.29,18.04 -25,19.3 3.19,3.17 5.93,5.22 8.99,8.66 1.72,1.93 2.25,3.04 3.97,4.82 2.23,2.3 2.7,3 4.51,5.36 5.07,-0.19 10.03,-6.99 14.94,-9.29 1.7,-1.95 0.13,-0.6 2.28,-1.83l15.44 -5.52 13.3 -4.31c0.01,0.59 -0.16,0.68 -0.22,1.1 -0.56,3.46 0.05,-0.25 -1.52,2.92 2.11,1.09 11.67,-2.74 14.4,-3.97 3.65,-1.64 11.56,-4.42 15.03,-4.99 -0.51,4.39 -6.38,10.41 -9.16,14.21 -3.61,4.93 -5.4,8.2 -9.8,12.77 -2.84,3.52 -16.45,12.85 -21.19,16.22l-13.44 9.76c1.13,3.42 12.54,21.4 19.87,43.87 5.12,15.7 10.04,36.91 10.35,54.95 2.33,7.55 1.8,16.73 1.38,24.92l0.08 -19.23c8.33,-3.83 13.52,-0.94 16.63,-2.33 2.53,-1.14 -0.35,-1.15 3.14,-2.02 4.6,-1.15 0.93,1.75 5.46,2.68 5.17,1.06 0.79,0.36 4.59,-4.45l10.4 -1 0 -242.28 -331.2 0 -1.97 9.6c-3.52,0.01 -6.39,0.19 -6.41,4.04 -0.01,3.13 2.34,3.41 4.94,4.73 -0.5,1.28 -0.85,3.69 -0.95,4.29 -1.79,1.12 -2.85,1.29 -4.03,2.14 -0.15,4.55 0.58,4.73 3.24,7.2 -0.86,3.38 -2.4,21.99 -0.62,24.41z"/>
   <path class="fil1" d="M349.36 429.27c0.01,0.08 0.15,3.13 0.12,3.38 -0.26,2.53 -0.12,0.89 -0.46,2.05 -0.05,0.19 -0.48,1.09 -0.64,1.3 2.72,0.86 2.16,2.33 2.75,5.73 0.38,2.18 0.91,3.97 1.38,6.32 0.52,0.48 5.03,11.66 5.69,12.95 4.87,9.47 15.02,20.84 23.97,25.71 1.68,0.92 0.39,0.15 1.45,0.91l4.8 3.19c30.28,15.32 66.98,8.92 87.58,-13.99 7.38,-8.2 10.4,-12.8 15.43,-24.6 7.65,-17.96 6.34,-39.47 -1.8,-57.92 -1.16,-2.63 -2.66,-4.16 -3.45,-6.93 -0.6,-0.52 -0.34,-0.27 -1.13,-1.23l-2.92 -4.91 5.75 -2.03c-6.06,-9.23 -24.28,-25.46 -38.9,-28.83l-2.09 5.26 -12.98 -2.44 3.09 -5.99c-2.2,-1.45 -5.05,-1.43 -9.77,-1.75 -18.97,-1.28 -43.64,6.69 -56.95,19.28 -2.13,2.01 -3.67,3.95 -5.39,5.76 -1.42,1.5 -1.5,1.32 -2.93,2.68l-4.53 5.87c-9.94,14.9 -13.41,24.82 -15.03,44.53l7.05 -1.89 -0.09 7.59z"/>
   <path class="fil0" d="M0 462.19l0 49.81 285.42 0 -28.03 -11.68c-4.28,-2.12 -8.74,-4.38 -13.23,-6.87 -3.35,-1.85 -9.71,-6.22 -12.97,-7.09 1.21,-3.18 0.76,-2.61 0.63,-5.93 -3.93,-0.62 -3.64,-0.28 -7.02,1.03 -3.53,-2.37 -6.16,-4.68 -9.41,-7.25 -2.77,-2.18 -7.18,-5.37 -8.15,-8.99 -10.22,-1.85 -26.23,-7.56 -35.28,-11.59 -28.36,-12.65 -62.8,-35.2 -80.15,-59.6 -2.32,-0.38 -8.95,5.79 -11.66,7.71l-80.15 60.45z"/>
   <path class="fil2" d="M470.32 243.71c0.79,30.48 -1.24,51.27 -10.3,79.5 -2.3,7.2 -6.62,15.5 -8.29,21.99 18.69,5.63 39.02,23.86 45.92,38.65l-11.47 3.52c0.79,2.77 2.29,4.3 3.45,6.93 8.14,18.45 9.45,39.96 1.8,57.92 -5.03,11.8 -8.05,16.4 -15.43,24.6 -20.6,22.91 -57.3,29.31 -87.58,13.99l-4.8 -3.19c-1.06,-0.76 0.23,0.01 -1.45,-0.91 -8.95,-4.87 -19.1,-16.24 -23.97,-25.71 -0.66,-1.29 -5.17,-12.47 -5.69,-12.95 -10.44,4.47 -19.46,9 -31.09,12.58 -11.15,3.42 -22.93,6.27 -35.13,8.07 -31.22,4.62 -49.89,1.43 -79.05,-3.48 0.97,3.62 5.38,6.81 8.15,8.99 3.25,2.57 5.88,4.88 9.41,7.25 3.38,-1.31 3.09,-1.65 7.02,-1.03 0.13,3.32 0.58,2.75 -0.63,5.93 3.26,0.87 9.62,5.24 12.97,7.09 4.49,2.49 8.95,4.75 13.23,6.87l28.03 11.68 226.58 0 0 -269.72 -10.4 1c-3.8,4.81 0.58,5.51 -4.59,4.45 -4.53,-0.93 -0.86,-3.83 -5.46,-2.68 -3.49,0.87 -0.61,0.88 -3.14,2.02 -3.11,1.39 -8.3,-1.5 -16.63,2.33l-0.08 19.23c0.42,-8.19 0.95,-17.37 -1.38,-24.92z"/>
   <path class="fil3" d="M175 56.41c-2.17,2.26 -9.39,4.71 -12.86,6.5 -3.86,1.99 -8.43,4.13 -12.12,6.29 -6.94,4.06 -17.9,10.52 -22.74,14.99 -1.95,1.85 -5.82,4.78 -8.2,6.16 -2.3,3.32 -4.15,3.46 -6.69,6.05 -2.78,2.84 -4.34,4.18 -6.9,6.68 -10.94,10.7 -28.96,32.25 -35.52,46.01 -1.99,2.99 -3.92,7.62 -5.98,10.02 -1.16,4.21 -4.57,9.37 -6.02,13.21 -1.86,4.89 -3.49,9.2 -5.15,14.08 -9,26.44 -13.24,56.35 -11.08,84.57 1.98,25.97 7.3,12.91 -20.27,35.27 -5.07,4.11 -5.9,3.64 -9.84,9.44 -2.35,3.47 -6.2,8.38 -7.53,11.56 -2.33,-1.05 -2.15,-1.43 -4.1,-2.56l0 18.65 19.41 -14.32c3.26,-2.45 6.63,-4.89 9.54,-7.24 1.97,-1.59 8.36,-5.96 9.14,-7.1l20.28 -6.72c3.02,4.28 2.42,4.91 5.88,8.14 2.05,-1.01 9.1,-10.92 9.32,-13.35l-11.59 3.79c0.09,-0.29 0.33,-0.74 0.41,-0.6l16.08 -12.2c-1.3,-2.38 -1.99,-2.06 -4.29,-3.91 -2.43,-1.95 -2.23,-2.25 -4.13,-4.68 -2.44,-3.1 -5.29,-6.12 -6.13,-10.7 -3.17,1.45 -6.49,5.42 -8.9,5.78 -7.42,-45.19 7.85,-101.16 33.19,-137.62l15.82 -20.16c1.3,-1.5 1.79,-2.66 3.15,-4.08l7.89 -7.27c8.81,-9.59 20.68,-18.78 31.9,-25.7 42.62,-26.31 88.2,-37.02 140.34,-29.47 33.37,4.83 77.14,24.43 99.33,45.43 3.08,2.93 5.25,4.03 7.75,6.67 9.57,10.11 10.7,10.75 20.53,22.63 4.5,5.43 8.14,11.01 12.29,17.33 15.12,22.99 26.94,54.05 30.16,85.94 1.84,18.29 1.14,36.51 -1.53,54.76 -1.61,10.95 -8.22,37.25 -13.03,44.92 -0.08,5.55 3.94,3.4 5.94,10.02 -19.97,-3.22 -30.13,-7.64 -55.03,1.24 -8.44,3 -14.93,6.86 -21.11,10.91 -6.94,4.54 -8.97,8.09 -12.83,11.24 -1.82,1.48 -2.43,2.65 -3.81,4.21l-4.8 6.6c-0.53,-18.17 3.99,-34.22 16.1,-46.59 3.51,-3.58 12.78,-2.22 10.32,-9.63 -5.56,-4.33 -8.87,1.6 -10.72,5.27 -2.47,4.9 -16.31,14.42 -18.66,39.98 -0.47,5.06 1.34,12.94 -0.31,17 -7.3,17.87 -11.62,20.36 -10.92,48.02 4.59,-0.07 7.34,-2.52 12.38,-2.6l0.09 -7.59 -7.05 1.89c1.62,-19.71 5.09,-29.63 15.03,-44.53l4.53 -5.87c1.43,-1.36 1.51,-1.18 2.93,-2.68 1.72,-1.81 3.26,-3.75 5.39,-5.76 13.31,-12.59 37.98,-20.56 56.95,-19.28 4.72,0.32 7.57,0.3 9.77,1.75l-3.09 5.99 12.98 2.44 2.09 -5.26c14.62,3.37 32.84,19.6 38.9,28.83l-5.75 2.03 2.92 4.91c0.79,0.96 0.53,0.71 1.13,1.23l11.47 -3.52c-6.9,-14.79 -27.23,-33.02 -45.92,-38.65 1.67,-6.49 5.99,-14.79 8.29,-21.99 9.06,-28.23 11.09,-49.02 10.3,-79.5 -0.31,-18.04 -5.23,-39.25 -10.35,-54.95 -7.33,-22.47 -18.74,-40.45 -19.87,-43.87 -2.98,-3.89 -6.46,-9.58 -9.48,-13.91 -1.66,-2.38 -2.99,-3.9 -5.25,-6.74 -1.56,-1.97 -3.32,-4.97 -5.33,-6.42 -1.81,-2.36 -2.28,-3.06 -4.51,-5.36 -1.72,-1.78 -2.25,-2.89 -3.97,-4.82 -3.06,-3.44 -5.8,-5.49 -8.99,-8.66 -3.23,-2.81 -5.78,-4.69 -8.68,-7.25 -1.94,-1.71 -2.47,-2.14 -4.4,-3.56 -2.43,-1.79 -3.54,-1.59 -3.28,-4.61 -3.24,0.46 0.78,1.56 -2.74,-1.44 -6.94,-5.89 -5.78,-1.91 -11.27,-7.19 -0.17,-0.16 -0.65,-0.63 -0.82,-0.79 -2.96,-2.74 -3.31,-2.28 -5.82,-3.85l-2.81 -2.05c-1.32,-0.75 -1.1,-1.1 -3.55,-0.97 -3.15,-1.1 -6.81,-3.12 -10.37,-4.94 -8.32,-4.28 -21.07,-8.81 -29.93,-11.67 -14.77,-4.76 -30.78,-7.49 -47.25,-8.87 -53.54,-4.47 -89.82,14.21 -96.65,14.62z"/>
   <path class="fil4" d="M408 370.14l-0.8 4.26 -1.74 -1.53c-0.9,-0.9 -0.45,-0.59 -1.33,-1.54 -10.29,4.4 -13.91,7.05 -21.73,13.23l1.6 5.04c-6.67,-0.94 -2.55,-6.6 -11.27,7.11 -3.36,5.26 -3.5,4.78 -5.44,10.6 -1.45,4.34 0.93,1.75 -2.57,3.34 1.99,-0.11 3.83,0.64 5.68,1.35 -1.43,1.78 -0.32,2.54 -6.15,2.11 0.79,1.73 -1.01,9.77 -1.05,13.06 -0.11,8.97 1.49,10.81 1.6,14.43 0.44,-0.14 3.4,-2.89 7.2,0 -2.83,3.48 2.3,-0.93 -1.78,1.62 -0.61,0.38 0.64,-0.04 -1.9,0.89 -0.96,0.35 -2.22,0.57 -2.88,0.69 1.45,4.67 4.4,9.45 6.33,13.09 1.72,3.26 2.47,3.01 3.99,5.55 1.52,2.54 1.98,3.54 4.9,5.36 -0.71,-2.64 3.04,-3.62 5.74,-4 -1.01,7.15 -2.9,4.03 -3.54,6.74l10.99 7.33c4.26,2.1 8.69,4.15 13.35,5.48l3.2 -6.74c1.96,2.87 1.18,4.78 -0.1,7.72 4.78,-0.05 9.35,1.33 14.52,1.01 4.94,-0.31 9.66,-1.31 13.78,-1.85 -0.61,-4.18 -0.46,-0.25 -1.02,-3.38 -0.52,-2.95 0.23,-3.44 0.82,-4.31 1.61,1.31 -0.86,-3.47 2.59,3.46 0.37,0.73 0.86,2.09 1.41,2.94 0.47,-0.6 13.86,-6.02 18.06,-9.96 2.67,-2.5 1.97,-3.03 5.5,-4.75 -0.54,-0.49 -1.66,-1.18 -2.13,-1.72 -2.73,-3.13 -0.93,0.51 -2.23,-4.37 6.26,0.88 2.42,0.85 6.4,3.38 5.24,-3.24 11.28,-19.05 13.46,-24.18 -2.71,-0.88 -3.98,-1.04 -6.25,-3.2 0.24,-0.18 0.63,-0.66 0.8,-0.42l3 -0.76c0.41,-0.01 3.44,0.38 3.46,0.38 1.83,-9.1 0.84,-17.98 -1.2,-27.2 -0.81,0.02 -2.7,0.64 -2.95,0.64 -8.38,0 -2.16,0.93 -4.72,-2.24 2.44,-0.91 4.93,-1.55 7.22,-2.4 -1.41,-0.75 -0.57,0.04 -1.76,-2.41l-5.11 -9.18c-2.06,-3.65 -0.98,-2.22 -4.04,-5.49 -1.85,-1.98 -3.93,-3.52 -4.88,-6.12 -2.52,4 -1.01,3.32 -5.83,4 0.51,-3.56 -0.23,-3.4 2.4,-4.8 -1.11,-5.41 -18.38,-10.52 -22.85,-12.33l-1.15 -0.47c-0.02,6.59 0.55,2.64 -2.4,4 -0.16,-0.24 -0.32,-0.89 -0.37,-0.77l-0.43 -5.65c-0.05,2.37 1.22,0.69 -1.03,1.57 -1.71,0.68 -6.71,-0.57 -11.78,-0.34 -4.9,0.23 -8.91,1.25 -13.59,1.73z"/>
   <path class="fil2" d="M0 86.73c5.15,2.26 10.11,5.03 15.2,6.95 1.17,-1.15 0.29,0.33 1.15,-1.55 0.07,-0.16 0.25,-1.11 0.32,-1.37l-0.08 3.87c0.59,-0.91 0.24,-0.14 0.88,-1.84 6.87,-18.26 -2.11,-11.77 1.69,-31.98 2.08,-11.02 6.18,-14.4 7.54,-17.37 1.08,-2.35 0.7,-7.82 7.71,-6.7 0.27,8.66 -4.64,0.22 -11.16,16.93 -3.74,9.57 -3.11,15.74 -1.89,26 0.18,-0.17 0.41,-0.68 0.49,-0.53 0.08,0.14 0.37,-0.4 0.48,-0.54l2.53 -3.9 -0.61 -1.29c-1.71,-5.67 0.68,4.23 -0.43,-1.41 -1.44,-7.37 1.22,-15.35 4.47,-21.27 3.99,-7.26 7.37,-10.41 15.18,-14.44 24.92,-12.83 39.84,4.79 43.89,6.8 -0.91,1.26 0.08,0.42 -1.4,1.19 9.07,1.17 17.14,4.18 24.07,8.14 5.38,3.08 14.56,10.17 17.25,15.68l-7.97 3.26c2.87,2.97 6.31,8.82 7.97,12.83 4.84,-4.47 15.8,-10.93 22.74,-14.99 3.69,-2.16 8.26,-4.3 12.12,-6.29 3.47,-1.79 10.69,-4.24 12.86,-6.5 -1.78,-2.42 -0.24,-21.03 0.62,-24.41 -2.66,-2.47 -3.39,-2.65 -3.24,-7.2 1.18,-0.85 2.24,-1.02 4.03,-2.14 0.1,-0.6 0.45,-3.01 0.95,-4.29 -2.6,-1.32 -4.95,-1.6 -4.94,-4.73 0.02,-3.85 2.89,-4.03 6.41,-4.04l1.97 -9.6 -180.8 0 0 86.73z"/>
   <path class="fil0" d="M0 324.68c1.95,1.13 1.77,1.51 4.1,2.56 1.33,-3.18 5.18,-8.09 7.53,-11.56 3.94,-5.8 4.77,-5.33 9.84,-9.44 27.57,-22.36 22.25,-9.3 20.27,-35.27 -2.16,-28.22 2.08,-58.13 11.08,-84.57 1.66,-4.88 3.29,-9.19 5.15,-14.08 1.45,-3.84 4.86,-9 6.02,-13.21 -1.11,-3.78 -8.39,-3.37 -13.52,-7.19 -24.19,-17.99 -19.06,-27.39 -25.26,-34.35l-7.4 3.11c-0.8,-4.37 -1.55,-7.96 -1.65,-12.65 -0.09,-4.42 1.14,-9.48 0.43,-13.4l0.08 -3.87c-0.07,0.26 -0.25,1.21 -0.32,1.37 -0.86,1.88 0.02,0.4 -1.15,1.55 -5.09,-1.92 -10.05,-4.69 -15.2,-6.95l0 237.95z"/>
   <path class="fil4" d="M69.97 149.09c6.56,-13.76 24.58,-35.31 35.52,-46.01 2.56,-2.5 4.12,-3.84 6.9,-6.68 2.54,-2.59 4.39,-2.73 6.69,-6.05 -0.39,-3.56 0.15,-0.78 -6.28,0.05 1.09,-3.42 1.83,-3.94 4.68,-4.76 -3.53,-3.91 -0.74,-2.17 -6.52,-7.8l-6.16 -6.9c-2.64,2.19 -0.89,2.73 -5.6,3.46 1.23,-4.13 0.66,-1.71 2.36,-4.85 -3.84,-1.23 -6.71,-2.8 -10.62,-3.77 -1.4,-0.35 -4.87,-1.3 -6.01,-1.47 -2.69,-0.42 -0.58,-1.02 -1.8,0.73 -0.13,0.18 -0.58,1.12 -0.68,1.3l-0.85 1.66c-0.21,-0.26 -0.31,-0.61 -0.45,-0.87 -1.84,-3.61 -0.08,-3.86 -10.12,-2.03 -12.4,2.27 -8.98,2.93 -8.63,6.9l-1.77 -1c-3.63,-1.93 0.83,-0.84 -2.44,-1.1 -1.78,-0.14 -9.27,6.63 -10.99,8.57 -2.69,3 -1.14,1.56 -4.17,2.33 0.12,-0.05 0.33,-0.03 0.38,-0.02 0.05,0.01 0.31,0.01 0.38,0.02l2.61 1.6c-0.24,0.24 -0.56,0.38 -0.84,0.55l-2.82 1.68c-3.49,2.45 -4.81,12.44 -6.95,15.73 0.96,2.04 2.29,1.28 4.21,2.84 -1.56,1.29 -2.17,1.59 -4.75,1.6 0.75,8.26 0.03,11.59 3.01,19.2 1.66,-1.29 -1.29,-2.64 4.13,-0.37 0.25,0.11 0.6,0.77 0.79,0.54 0.19,-0.24 0.58,0.38 0.82,0.63l-4.23 2.4c2.96,4.66 12.11,15.23 12.51,14.51 0.09,-0.15 0.34,0.32 0.52,0.46 1.71,-3.16 0.72,-3.38 4.8,-4.57 -0.87,6.13 -0.04,0.93 -1.31,4.16 -0.09,0.25 -0.78,1.73 -0.82,2 4.6,2.4 8.25,4.28 14.5,5.33z"/>
   <path class="fil5" d="M91.81 394.03c17.35,24.4 51.79,46.95 80.15,59.6 9.05,4.03 25.06,9.74 35.28,11.59 29.16,4.91 47.83,8.1 79.05,3.48 12.2,-1.8 23.98,-4.65 35.13,-8.07 11.63,-3.58 20.65,-8.11 31.09,-12.58 -0.47,-2.35 -1,-4.14 -1.38,-6.32 -0.59,-3.4 -0.03,-4.87 -2.75,-5.73 -4.1,3.48 -23.76,10.44 -30.07,12.62 -33.5,11.59 -78.11,12.92 -112.26,3.64 -22.88,-6.21 -42.05,-15.07 -59.54,-25.98 -10.08,-6.3 -12.34,-9.22 -18.91,-13.89l-21.83 -20.55c-1.77,-2.4 -2.46,-2.73 -4.53,-5.34 -2.15,0.84 -3.5,1.74 -5.3,3.02 -0.33,0.24 -1.83,1.35 -2.25,1.75 -2.36,2.22 -1.24,0.16 -1.88,2.76z"/>
   <path class="fil6" d="M25.21 117.57c6.2,6.96 1.07,16.36 25.26,34.35 5.13,3.82 12.41,3.41 13.52,7.19 2.06,-2.4 3.99,-7.03 5.98,-10.02 -6.25,-1.05 -9.9,-2.93 -14.5,-5.33 0.04,-0.27 0.73,-1.75 0.82,-2 1.27,-3.23 0.44,1.97 1.31,-4.16 -4.08,1.19 -3.09,1.41 -4.8,4.57 -0.18,-0.14 -0.43,-0.61 -0.52,-0.46 -0.4,0.72 -9.55,-9.85 -12.51,-14.51l4.23 -2.4c-0.24,-0.25 -0.63,-0.87 -0.82,-0.63 -0.19,0.23 -0.54,-0.43 -0.79,-0.54 -5.42,-2.27 -2.47,-0.92 -4.13,0.37 -2.98,-7.61 -2.26,-10.94 -3.01,-19.2 2.58,-0.01 3.19,-0.31 4.75,-1.6 -1.92,-1.56 -3.25,-0.8 -4.21,-2.84 2.14,-3.29 3.46,-13.28 6.95,-15.73l2.82 -1.68c0.28,-0.17 0.6,-0.31 0.84,-0.55l-2.61 -1.6c-0.07,-0.01 -0.33,-0.01 -0.38,-0.02 -0.05,-0.01 -0.26,-0.03 -0.38,0.02 3.03,-0.77 1.48,0.67 4.17,-2.33 1.72,-1.94 9.21,-8.71 10.99,-8.57 3.27,0.26 -1.19,-0.83 2.44,1.1l1.77 1c-0.35,-3.97 -3.77,-4.63 8.63,-6.9 10.04,-1.83 8.28,-1.58 10.12,2.03 0.14,0.26 0.24,0.61 0.45,0.87l0.85 -1.66c0.1,-0.18 0.55,-1.12 0.68,-1.3 1.22,-1.75 -0.89,-1.15 1.8,-0.73 1.14,0.17 4.61,1.12 6.01,1.47 3.91,0.97 6.78,2.54 10.62,3.77 -1.7,3.14 -1.13,0.72 -2.36,4.85 4.71,-0.73 2.96,-1.27 5.6,-3.46l6.16 6.9c5.78,5.63 2.99,3.89 6.52,7.8 -2.85,0.82 -3.59,1.34 -4.68,4.76 6.43,-0.83 5.89,-3.61 6.28,-0.05 2.38,-1.38 6.25,-4.31 8.2,-6.16 -1.66,-4.01 -5.1,-9.86 -7.97,-12.83 -1.38,-1.35 -1.9,-2.03 -3.34,-3.36l1.75 -1.57c1.31,-1.29 0.71,0.08 1.37,-1.63 -8.69,-7.03 -15.94,-12.75 -29.91,-15.43 -23.89,-4.58 -48.3,6.91 -60.34,27.41 -5.36,9.12 -10.27,23.18 -7.71,36.5l4.36 -1.7c0.11,2.97 0.78,4.26 -0.28,5.99z"/>
   <path class="fil7" d="M70.55 337.81c-1.55,1.94 -7.09,6.42 -10.14,7.36l-5.13 -12.04c-3.55,0.6 -0.52,0.49 -4.14,1.95 -3.86,3.58 -8.78,6.9 -13.55,10.74 1,0.66 5.98,-1.89 8.23,-2.67 3.6,-1.25 6.28,-2.56 9.73,-2.75 -1.15,4.55 -7.29,11.26 -10.88,16.24 -3,4.18 -7.62,12.36 -10.88,15.06 -1.95,4.41 -12.38,10 -16.67,13.53 -3.46,2.85 -14.65,11.92 -17.12,12.5l0 15.39c2.53,-1.05 12.44,-8.83 15.05,-10.87l14.85 -11.59c4.95,-3.71 9.74,-7.05 14.7,-10.86 3.58,-2.75 12.02,-10.06 15.48,-11.07 1.71,-2.4 6.35,-2.86 10.6,-4.47 2.54,-0.96 9.45,-3.32 10.66,-3.12 0.36,-0.4 0.6,-0.85 1.3,-1.21 0.4,-1.82 15.16,-11.37 17.87,-14.29 -5.27,-6.27 -10.39,-9.43 -13.64,-18.19l-2.92 0.42c-1.65,1.65 -11.69,9.23 -13.4,9.94z"/>
   <path class="fil8" d="M82.64 359.93c-0.7,0.36 -0.94,0.81 -1.3,1.21 1.46,4.16 3.35,5.68 5.79,8.46 -1.95,2.91 -4.35,6.22 -6.53,9.42 -1.89,2.77 -4.03,7.15 -6.63,8.15 -1.83,2.89 -31.82,25.05 -37.1,28.89l-36.87 27.63 0 18.5 80.15 -60.45c2.71,-1.92 9.34,-8.09 11.66,-7.71 0.64,-2.6 -0.48,-0.54 1.88,-2.76 0.42,-0.4 1.92,-1.51 2.25,-1.75 1.8,-1.28 3.15,-2.18 5.3,-3.02 1.29,-2.69 2.92,-2.48 5.48,-5.02 -0.56,-2.29 -2.03,-2.91 -3.72,-4.46 -4.26,-3.89 -10.45,-10.89 -10.69,-17.02 0.31,-0.18 2.11,-1.03 2.13,-1.05l1.7 -3.18 -13.5 4.16z"/>
   <path class="fil9" d="M0 413.12l0 30.57 36.87 -27.63c5.28,-3.84 35.27,-26 37.1,-28.89 -1.97,-3.02 -5.38,-5.3 -8.01,-8.33 -1.51,-1.74 -5.17,-6.65 -5.88,-10.11 -3.46,1.01 -11.9,8.32 -15.48,11.07 -4.96,3.81 -9.75,7.15 -14.7,10.86l-14.85 11.59c-2.61,2.04 -12.52,9.82 -15.05,10.87z"/>
   <path class="fil10" d="M355.97 371.22c1.38,-1.56 1.99,-2.73 3.81,-4.21 3.86,-3.15 5.89,-6.7 12.83,-11.24 6.18,-4.05 12.67,-7.91 21.11,-10.91 24.9,-8.88 35.06,-4.46 55.03,-1.24 -2,-6.62 -6.02,-4.47 -5.94,-10.02 -2.02,0.77 -1.07,0.5 -2.75,-0.79 -0.6,-0.46 -1.64,-1.68 -2.46,-2.4 -18.63,-16.08 -52.58,-12.75 -68.89,6.31 -7.85,9.17 -14.82,20.51 -12.74,34.5z"/>
   <path class="fil11" d="M399.2 57.7c-4.04,2.63 -3.63,3.48 -6.34,7.14 -2.11,2.84 -3.33,5.19 -5.66,7.69 -8.73,-6.56 -7.75,-6.56 -13.16,-15.41 -3.78,1.82 -11.1,9.49 -14.84,10.15 2.45,-0.13 2.23,0.22 3.55,0.97l2.81 2.05c2.51,1.57 2.86,1.11 5.82,3.85 0.17,0.16 0.65,0.63 0.82,0.79 5.49,5.28 4.33,1.3 11.27,7.19 3.52,3 -0.5,1.9 2.74,1.44 2.26,-0.41 1.31,-0.13 3.57,-1.77 7.29,-5.3 19.1,-14.8 25.44,-18.61 3.34,-2.99 13.65,-5.34 18.38,-6.99l2.54 3.77c1.55,2.06 1.47,1.99 3.55,3 2.22,-3.48 5.28,-6.79 7.24,-10.85l-10.04 2.94c4.48,-3.96 9.14,-6.86 13.91,-10.58 -1.03,-3.13 -4.29,-4.63 -6.51,-7.18 -1.87,-2.14 -4.39,-5.84 -5.67,-9.22l-30.08 22.06c-2,1.47 -3.12,2.3 -5.04,3.78 -1.57,1.21 -3.65,2.31 -4.3,3.79z"/>
   <path class="fil12" d="M0 343.33l0 29.59c4.5,-0.88 15.55,-11.73 20.64,-14.69 2.05,-1.11 5.54,-4.07 8.17,-6.21 2.75,-2.24 5.76,-5.04 8.78,-6.2 4.77,-3.84 9.69,-7.16 13.55,-10.74 0.2,-3.89 0.96,-0.52 -1.42,-3.16 -3.86,-4.27 -11.39,-10.59 -11.63,-17.25 -0.78,1.14 -7.17,5.51 -9.14,7.1 -2.91,2.35 -6.28,4.79 -9.54,7.24l-19.41 14.32z"/>
   <path class="fil13" d="M452.7 101.18c0.74,3.16 2.21,6.22 5.08,7.62 -3.43,3.53 -6.83,10.71 -10.58,14.94 -3.14,-1.13 -11.06,-10.25 -12.22,-15.21 -4.91,2.3 -9.87,9.1 -14.94,9.29 2.01,1.45 3.77,4.45 5.33,6.42 2.26,2.84 3.59,4.36 5.25,6.74 3.02,4.33 6.5,10.02 9.48,13.91l13.44 -9.76c4.74,-3.37 18.35,-12.7 21.19,-16.22 -2.85,-4.69 -8.32,-5.35 -12.22,-16.51 1.29,-1.93 0.74,-0.88 1.75,-1.51 1.57,-3.17 0.96,0.54 1.52,-2.92 0.06,-0.42 0.23,-0.51 0.22,-1.1l-13.3 4.31z"/>
   <path class="fil10" d="M24.86 74.7c3.9,-8.02 14.79,-18.49 23.05,-22.78 11.66,-6.05 23,-9.36 38.05,-7.64 1.48,-0.77 0.49,0.07 1.4,-1.19 -4.05,-2.01 -18.97,-19.63 -43.89,-6.8 -7.81,4.03 -11.19,7.18 -15.18,14.44 -3.25,5.92 -5.91,13.9 -4.47,21.27 1.11,5.64 -1.28,-4.26 0.43,1.41l0.61 1.29z"/>
   <path class="fil14" d="M16.59 94.63c0.71,3.92 -0.52,8.98 -0.43,13.4 0.1,4.69 0.85,8.28 1.65,12.65l7.4 -3.11c1.06,-1.73 0.39,-3.02 0.28,-5.99l-4.36 1.7c-2.56,-13.32 2.35,-27.38 7.71,-36.5 12.04,-20.5 36.45,-31.99 60.34,-27.41 13.97,2.68 21.22,8.4 29.91,15.43 -0.66,1.71 -0.06,0.34 -1.37,1.63l-1.75 1.57c1.44,1.33 1.96,2.01 3.34,3.36l7.97 -3.26c-2.69,-5.51 -11.87,-12.6 -17.25,-15.68 -6.93,-3.96 -15,-6.97 -24.07,-8.14 -15.05,-1.72 -26.39,1.59 -38.05,7.64 -8.26,4.29 -19.15,14.76 -23.05,22.78l-2.53 3.9c-0.11,0.14 -0.4,0.68 -0.48,0.54 -0.08,-0.15 -0.31,0.36 -0.49,0.53 -1.22,-10.26 -1.85,-16.43 1.89,-26 6.52,-16.71 11.43,-8.27 11.16,-16.93 -7.01,-1.12 -6.63,4.35 -7.71,6.7 -1.36,2.97 -5.46,6.35 -7.54,17.37 -3.8,20.21 5.18,13.72 -1.69,31.98 -0.64,1.7 -0.29,0.93 -0.88,1.84z"/>
   <path class="fil12" d="M386.21 83.56c-0.26,3.02 0.85,2.82 3.28,4.61 1.93,1.42 2.46,1.85 4.4,3.56 2.9,2.56 5.45,4.44 8.68,7.25 0.71,-1.26 22.11,-17.46 25,-19.3 0.18,-2.5 -0.65,-2.39 -2.78,-4.47 -1.26,-1.24 -2.09,-2.1 -3.4,-3.83 -2.28,-3.04 -3.35,-5.98 -6.17,-8.2 -6.34,3.81 -18.15,13.31 -25.44,18.61 -2.26,1.64 -1.31,1.36 -3.57,1.77z"/>
   <path class="fil15" d="M0 372.92l0 24.81c2.47,-0.58 13.66,-9.65 17.12,-12.5 4.29,-3.53 14.72,-9.12 16.67,-13.53l-7.7 -5.75c-2.42,-2.67 -4.42,-4.57 -5.45,-7.72 -5.09,2.96 -16.14,13.81 -20.64,14.69z"/>
   <path class="fil16" d="M63.92 274.44c0.84,4.58 3.69,7.6 6.13,10.7 1.9,2.43 1.7,2.73 4.13,4.68 2.3,1.85 2.99,1.53 4.29,3.91 6.58,-8.64 5.74,-9.97 13.96,-18.87l5.65 -8.08c2.02,-2.77 2.07,-2.07 2.72,-5.98l-36.88 13.64z"/>
   <path class="fil16" d="M83.95 327.87l2.92 -0.42c3.25,8.76 8.37,11.92 13.64,18.19 4.21,-3.38 8.53,-12 11.44,-16.03 2.14,-2.98 2.25,-1.43 6.31,-7.46 3.34,-4.95 4.28,-4.84 4.94,-9.05 -4.93,0.86 -11.62,3.13 -15.59,5.65 -3.86,2.44 -13.81,4.6 -19.56,6.98 -2.2,0.9 -2.29,1.06 -4.1,2.14z"/>
   <path class="fil16" d="M94.44 358.95c-0.02,0.02 -1.82,0.87 -2.13,1.05 0.24,6.13 6.43,13.13 10.69,17.02 1.69,1.55 3.16,2.17 3.72,4.46 3.26,-2.47 9.21,-12.5 11.57,-15.97 2.6,-3.81 9.23,-9.03 11.31,-16.71l-33.88 12.4c-1.97,-1.23 -2.31,1.92 -1.28,-2.25z"/>
   <path class="fil16" d="M37.59 345.82c-3.02,1.16 -6.03,3.96 -8.78,6.2 -2.63,2.14 -6.12,5.1 -8.17,6.21 1.03,3.15 3.03,5.05 5.45,7.72l7.7 5.75c3.26,-2.7 7.88,-10.88 10.88,-15.06 3.59,-4.98 9.73,-11.69 10.88,-16.24 -3.45,0.19 -6.13,1.5 -9.73,2.75 -2.25,0.78 -7.23,3.33 -8.23,2.67z"/>
   <path class="fil17" d="M60.08 368.73c0.71,3.46 4.37,8.37 5.88,10.11 2.63,3.03 6.04,5.31 8.01,8.33 2.6,-1 4.74,-5.38 6.63,-8.15 2.18,-3.2 4.58,-6.51 6.53,-9.42 -2.44,-2.78 -4.33,-4.3 -5.79,-8.46 -1.21,-0.2 -8.12,2.16 -10.66,3.12 -4.25,1.61 -8.89,2.07 -10.6,4.47z"/>
   <path class="fil18" d="M38.09 314.67c0.24,6.66 7.77,12.98 11.63,17.25 2.38,2.64 1.62,-0.73 1.42,3.16 3.62,-1.46 0.59,-1.35 4.14,-1.95 -0.15,-4.18 1.55,-5.35 3.44,-8.01 1.17,-1.65 1.11,-1.81 2.16,-3.44 2.09,-3.26 0.3,-2.81 3.43,-2.16 -0.39,-2.2 -0.33,-0.87 -0.06,-3.43 -3.46,-3.23 -2.86,-3.86 -5.88,-8.14l-20.28 6.72z"/>
   <path class="fil16" d="M374.04 57.12c5.41,8.85 4.43,8.85 13.16,15.41 2.33,-2.5 3.55,-4.85 5.66,-7.69 2.71,-3.66 2.3,-4.51 6.34,-7.14 0.02,-4.59 6.09,-6.47 6.16,-11.89 -1.78,0.35 -28.43,8.4 -31.32,11.31z"/>
   <path class="fil16" d="M464.26 100.89c-1.01,0.63 -0.46,-0.42 -1.75,1.51 3.9,11.16 9.37,11.82 12.22,16.51 4.4,-4.57 6.19,-7.84 9.8,-12.77 2.78,-3.8 8.65,-9.82 9.16,-14.21 -3.47,0.57 -11.38,3.35 -15.03,4.99 -2.73,1.23 -12.29,5.06 -14.4,3.97z"/>
   <path class="fil16" d="M438.62 28.07c1.28,3.38 3.8,7.08 5.67,9.22 2.22,2.55 5.48,4.05 6.51,7.18 2.31,-1.69 1.48,-1.69 2.58,-3.23l14.12 -19.36c1.83,-2.49 1.55,-1.53 2.47,-4.71 -7.75,0.74 -17.22,6.29 -23.29,7.86 -1.22,0.31 -2.54,0.41 -3.96,0.8 -3.77,1.05 -3.72,1.9 -4.1,2.24z"/>
   <path class="fil16" d="M458.02 72c-0.16,3.06 0.69,3.24 2.22,5.33l0.67 0.97c2.39,3.52 5.47,7.47 8.69,9.73l16.73 -21.71c0.96,-1.6 1.36,-2.29 2.07,-4.3 -4.59,0.28 -12.07,3.57 -15.79,4.93 -4.69,1.71 -10.1,2.98 -14.59,5.05z"/>
   <path class="fil17" d="M415.22 63.18c2.82,2.22 3.89,5.16 6.17,8.2 1.31,1.73 2.14,2.59 3.4,3.83 2.13,2.08 2.96,1.97 2.78,4.47 3.38,-2.11 5.23,-7.15 7.77,-10.76 0.42,-0.59 1.09,-1.45 1.34,-1.81 0.63,-0.89 0.72,-1.07 1.32,-1.9 0.11,-0.17 0.27,-0.38 0.38,-0.53 0.11,-0.16 0.31,-0.42 0.41,-0.56l0.9 -1.16c-2.08,-1.01 -2,-0.94 -3.55,-3l-2.54 -3.77c-4.73,1.65 -15.04,4 -18.38,6.99z"/>
   <path class="fil18" d="M434.98 108.53c1.16,4.96 9.08,14.08 12.22,15.21 3.75,-4.23 7.15,-11.41 10.58,-14.94 -2.87,-1.4 -4.34,-4.46 -5.08,-7.62l-15.44 5.52c-2.15,1.23 -0.58,-0.12 -2.28,1.83z"/>
   <path class="fil5" d="M55.28 333.13l5.13 12.04c3.05,-0.94 8.59,-5.42 10.14,-7.36 -1.43,-5.75 -5.95,-11.59 -6.24,-18.29 -3.13,-0.65 -1.34,-1.1 -3.43,2.16 -1.05,1.63 -0.99,1.79 -2.16,3.44 -1.89,2.66 -3.59,3.83 -3.44,8.01z"/>
  </g>
 </g>
</svg>
