<?xml version="1.0" encoding="UTF-8"?>
<!DOCTYPE svg PUBLIC "-//W3C//DTD SVG 1.1//EN" "http://www.w3.org/Graphics/SVG/1.1/DTD/svg11.dtd">
<!-- Creator: CorelDRAW 2021 (64-Bit) -->
<svg xmlns="http://www.w3.org/2000/svg" xml:space="preserve" width="512px" height="512px" version="1.1" style="shape-rendering:geometricPrecision; text-rendering:geometricPrecision; image-rendering:optimizeQuality; fill-rule:evenodd; clip-rule:evenodd"
viewBox="0 0 512 512"
 xmlns:xlink="http://www.w3.org/1999/xlink"
 xmlns:xodm="http://www.corel.com/coreldraw/odm/2003">
 <defs>
  <style type="text/css">
   <![CDATA[
    .fil2 {fill:#093768}
    .fil1 {fill:#1A3567}
    .fil0 {fill:#6F6C53}
    .fil4 {fill:#75B5BE}
    .fil3 {fill:#F8F7F7}
   ]]>
  </style>
 </defs>
 <g id="Layer_x0020_1">
  <metadata id="CorelCorpID_0Corel-Layer"/>
  <g id="_2437082298384">
   <g>
    <path class="fil0" d="M75.82 285.71c0.01,1.53 0.21,0.63 -0.12,2.17l-0.55 0.45c-3.71,-0.61 -5.67,0.49 -8.97,0.58 -1.9,0.05 -3.06,-0.54 -4.09,-0.63 -1.21,-0.11 -2.54,0.53 -3.94,0.55 -5.35,0.07 -12.39,-1.7 -17.43,-1.92 -0.8,-0.83 -0.33,-0.21 -1.54,-0.57l-1.47 -0.72c3.97,-1.03 5.21,0.47 6.67,-1.92 0.41,1.32 1.26,0 4.74,0.6l9.75 1.01c5.96,0.41 10.99,-0.64 16.6,-0.4l0.35 0.8zm2.85 -83.47c1.55,-0.88 -0.04,0.87 1.05,-1.1l1.1 0.91c0.12,-1.35 0.21,-1.95 1.31,-2.74l-1.01 -1.86c-0.51,-0.92 -0.04,-0.36 -0.66,-1.25 -0.04,0.05 -1.42,-0.16 -0.07,1.26l1.02 0.39c-0.3,1.98 0.14,0.57 -0.7,2.05l-0.78 1.24c-0.66,-1.76 -0.21,-1.38 -0.21,-3.65 -0.63,-0.53 -0.24,-0.05 -1.26,-0.14 -0.13,-0.12 -0.7,-1.05 -1.03,-1.6 -0.41,-0.7 -0.62,-0.97 -1.01,-1.19l-0.74 -1.4c0.33,-2.22 2.5,-2.93 3.7,-4.37 0.68,-0.83 0.14,0.6 0.28,-0.62 1.67,-0.92 0.6,-1.02 2.07,-1.79l0 -1.15 1.41 -1.22c0.78,1.31 0.73,0.56 1.33,1.8 0.37,0.77 0.3,1.24 0.79,2.1 0.58,1 0.53,0.51 1.14,1.8 0.56,1.18 0.16,0.76 1.05,1.87 1.15,1.44 5.1,6.93 7.28,3.71 0.3,-0.44 0.15,-0.26 0.37,-0.75 1.61,-3.57 1.67,-9.21 0.97,-13.02 -0.3,-1.68 -0.59,-0.3 -0.02,-1.72l0.33 -0.5c0.12,0.06 0.2,0.29 0.25,0.32l0.65 -0.27c-0.12,-1.41 0.19,-1.28 0.37,-1.53 0.04,0.07 0.09,0.17 0.11,0.22l0.27 0.73c0.49,1.46 -0.14,-0.16 0.19,0.63 0.3,-1.27 0.06,-0.82 0.77,-1.69 3.93,0.67 4.37,0.77 8.32,-0.08 1.02,-0.36 1.92,-0.58 2.93,-0.91l2.2 -1.18 -0.19 -1.46c1.21,-0.43 0.41,0.12 1.12,-0.73 -2.26,-1.9 1.77,1.74 -0.81,-0.85 -0.31,-0.31 -0.07,-0.2 -0.65,-0.61 0.82,-0.39 -0.74,-0.49 0.43,0.07l1.03 0.66c-0.94,-1.77 -0.88,-1.26 -0.37,-2.56l-0.96 1.22c-1.28,1.06 1.46,-0.42 -1.2,0.6l-0.02 -6.58c0,-1.38 0.14,-2.52 -0.3,-3.53l-1.04 -2.11c1.08,-0.67 0.67,-0.22 0.97,-1.79 -0.74,-0.66 -1.33,-0.68 -2.08,-1.46 -0.91,-0.95 -0.31,-1.34 -1.73,-1.58l-0.22 -0.8c-1.58,-0.46 -2.97,-1.32 -4.75,-1.96 -1.03,-1.09 -2.68,-0.1 -3.47,-1.95 0.33,-0.49 1.13,-0.01 -0.21,-0.54 -0.82,-0.46 -0.72,1 -0.68,-1.51 0.04,-1.84 1.65,-1.42 -1.49,-1.42l-0.01 0.73c0.5,0.32 0.42,-0.8 0.34,1.61l-2.16 0.22c0.4,-0.79 -0.55,-0.15 0.73,-0.03l-1.83 0.18c0,-1.96 0.17,-2.09 0.73,-3.92 0.24,-0.77 1.07,-3.91 -0.25,-3.91l0.1 -0.84c0.49,-0.74 1.43,-3.47 0.9,-5.31 -0.35,-1.21 -0.85,-1.3 -1.44,-1.95l-2.73 -1.94c-0.11,0.06 -0.91,0.62 -1.27,0.94l-0.77 0.71c-1.6,1.44 -1.11,1.24 -2.48,3.01l-3.92 4.97c-0.05,-0.31 0.14,-0.64 -0.21,-1.05 -1.8,1.1 -2.13,2.61 -1.87,0.32 0.07,1.85 0.32,1.06 0.41,1.87 -0.21,0.18 -0.36,0.26 -0.62,0.46 -0.06,0.04 -0.15,0.1 -0.21,0.15 -1.69,1.37 -0.85,1.63 -1.59,2.94l-0.67 0.75c-1.26,1.98 -0.14,1.28 -0.81,1.19 -1.03,-0.15 -1.19,0.18 -2.48,-0.36l-0.57 1.09 -2.16 0.39 -0.65 -0.58c-2.23,-1.1 -4.56,-2.58 -7.67,-2.23 -7.65,0.87 -1.77,8.54 -0.14,11.6 1.92,3.62 3.81,1.86 4.31,5.19 -2.82,2.33 -9.09,3.04 -12.34,6.09l-1.36 0.36 -12.53 0.02c-6.36,-0.48 -14.01,-0.76 -20.18,0.25 -4.29,0.7 -5.33,0.8 -9.84,0.66 -3.53,-0.11 -7.06,-0.27 -10.58,-0.35l0 57.44 0 0.68 0 2.9 0 0.96 0 34.38 0 0.67 0 3.08 0 27.66c5.86,-0.26 10.48,-0.8 16.46,-0.63 3.49,0.1 14.77,-0.84 16.79,-0.34 2.03,-1.11 14.14,-1.43 17.22,-1.28 2.87,0.14 5.61,-0.22 8.34,-0.7 2.66,-0.48 5.4,-0.38 7.98,-0.2 -0.81,0.11 -1.81,0.3 -2.06,0.63l5.38 1.51c0.08,0.05 0.17,0.12 0.24,0.17 0.53,0.38 -0.1,0.46 0.6,0.69 1.23,0.07 0.45,0.12 1.61,-0.15 1.6,-0.37 2.03,-0.68 2.32,-2.23 0.55,-2.97 -1.43,-1.43 -1.74,-3.2l0.74 -0.52c3.57,-0.44 19.67,-1.19 21.55,-2.23 2.46,0.49 12.47,-0.58 15.38,-1 2.69,-0.19 7.21,0.12 8.82,-1.45 0.43,-3.55 -2.68,-2.64 -5.89,-2.65 -2.87,-0.02 -5.81,-0.02 -8.67,-0.13 -1.62,-0.01 -4.05,0.16 -5.29,-0.54l-0.5 -1.43c0.47,-0.48 0.45,-0.9 2.75,-1 1.16,-0.06 2.08,0.17 3.24,0.29 -2.27,-0.59 -1.62,0 -2.14,-1.23 3.98,-0.42 3.95,1.04 4.39,-1.34 1.38,-0.64 1.85,-0.27 3.36,-0.12 0.69,0.07 1.45,0.12 2.14,0.11l2.28 -0.44 1.36 0.09c-0.9,-0.09 -1.82,-0.96 -1.84,-1.01 -0.04,-0.15 -0.16,-0.15 -0.26,-0.2 3.06,-2.65 1.47,-0.47 2.79,-2.1l-0.03 -0.03 0 0 -0.03 -0.03 0 0 -0.03 -0.02 0 0 -0.03 -0.02 0 -0.01 -0.02 -0.02 -0.01 0 -0.02 -0.02 -0.02 -0.02 0 0 -0.02 -0.01 0 -0.01 -0.02 -0.01 -0.01 -0.01 0 -0.01 -0.01 -0.01 -0.01 0 -0.01 -0.01 -0.01 -0.01 0 -0.01 -0.01 0 -0.01 -0.01 0 -0.01 -0.01 0 -0.01 -0.01 0 -0.01 -0.01 0 0 -0.01 -0.01 0 0 -0.01 -0.01 0 0 -0.01 0 0 -0.01 0 0 -0.01 -0.01 0 0 0 -0.01 -0.01 0 -0.01 -0.01 0 0 -0.01 -0.01 -0.01 -0.01 0 0 0 0 -0.01 0 0 -0.01 0 0 0 0 0 -0.01 -0.01 0 0 0 0 0 0 0 0 -0.01 0 0 0 0 0 0 0 -0.01 0 0 -0.01 0 0 0 0 0 0 -0.01 0 0 0 -0.01 0 0 0 0 0 0 0 -0.01 0 0 0 -0.01 -0.01 0 0 -0.01 0 0 0 -0.01 0 -0.01 0 -0.02 -0.01 0 0 -0.01 0 0 0 -0.01 0 -0.01 0 -0.01 -0.01 0 0 -0.02 0 0 0 -0.02 -0.01 0 0 -0.02 0 0 -0.01 -0.02 0 0 0 -0.02 0 -0.01 -0.01 -0.01 0 -0.02 -0.01 -0.01 0 -0.01 0 -0.02 -0.01 -0.01 0 -0.02 -0.01 -0.02 0 -0.01 -0.01 -0.02 0 -0.01 -0.01 -0.03 -0.01 -0.01 0 -0.02 -0.01 -0.01 0 0 0 -0.12 -0.04c-0.23,-0.08 -0.33,-0.12 -0.37,-0.14l-0.01 0 0 0 -0.01 -0.01 0 0 0 0 -0.01 0 0 0 0.01 -0.01 0 0.01 0 0 0 0 0 0 0.01 0 0.01 0.01 0 0c0,0.01 -0.03,0.01 -0.11,0l0 0 -0.01 0 -0.01 0 -0.02 -0.01 -0.11 -0.01 -0.03 0 -0.03 -0.01 -0.04 -0.01 -3 0.05 -1.04 0.01c-0.38,-0.1 -0.7,-0.18 -0.98,-0.23 -0.52,-0.11 -0.92,-0.15 -1.42,-0.16 -0.36,-0.01 -0.75,-0.01 -1.28,-0.02 -1.93,-0.01 -2.48,0.19 -2.68,0.49l-0.01 0.01 0 0 0 0 -0.01 0.01 0 0.01 -0.01 0 0 0.01 0 0.01 -0.01 0.01 0 0 0 0.01 -0.01 0.01 0 0 0 0.01 -0.01 0 0 0.01 0 0 -0.01 0.01 0 0.01 0 0.01 0 0 -0.01 0.01 0 0.01 0 0 0 0.01 0 0 -0.01 0.01 0 0.01 0 0 0 0.01 0 0.01 -0.01 0 0 0.01 0 0.01 0 0.01 -0.01 0.01 0 0 0 0.01 0 0 0 0 0 0.01 -0.01 0.01 0 0.01 0 0 0 0.01 0 0.01 0 0 -0.01 0.01 0 0.01 0 0.01 0 0 0 0.01 0 0.01 -0.01 0.01 0 0.01 0 0.01 0 0 0 0.01 -0.01 0.01 0 0.01 0 0 0 0.01 0 0.01 0 0 0 0 -0.01 0.01 0 0.01 0 0.01 0 0 -0.01 0.01 0 0.01 0 0.01 0 0.01 -0.01 0.01 0 0 0 0.01 -0.01 0.02 0 0 0 0 0 0.02 -0.01 0 0 0.01 0 0.01 -0.01 0.01 0 0 0 0.01 0 0.01 -0.01 0.01c1.24,1.02 1.65,0.64 3.14,0.61l0.13 0c1.06,-0.01 1.73,0.16 2.71,0.48 0.57,1.13 0.03,0.41 0.23,0.81 0.05,0.11 0.16,0.31 0.37,0.66l-1.57 0c-0.05,-1 0.53,-0.69 -0.98,-1.04 -0.71,-0.17 -1.81,-0.09 -2.57,-0.07 -0.61,0.99 -0.27,-0.54 0.17,0.92l0.2 0.56c-8.24,-0.26 -2.79,0.23 -5.88,0.74 -0.01,0.01 -6.35,0.35 -7.48,-0.75 1.4,-1.2 2.76,-0.39 4.93,-0.72l6.98 -1.11c-0.71,-0.87 1.1,-0.61 -1.82,-0.71l-3.58 0.41c-0.1,0.02 -0.19,0.06 -0.28,0.09l-1.05 0.32c-1.11,0.18 -2.75,-0.15 -3.89,0.02 -1.79,0.26 -1.02,0.51 -3,1.1 0.21,0.19 0.44,0.47 0.65,0.78l0.36 0.62c0.03,0.03 0.1,0.1 0.13,0.13l-5.09 -0.03c-0.08,-0.16 -0.26,-0.08 -0.36,-0.17 0.6,-0.92 -0.71,0.17 0.49,-0.44 0.76,-0.37 0.88,-0.28 2.06,-0.08 0.06,-0.09 0.1,-0.22 0.14,-0.29 0.67,-1.4 0.38,-1.14 1.63,-2.21l-0.16 -0.27 0 0 0.05 0 0.01 0 0.05 0 0.01 0 0.05 0 0.01 0 0.05 0 0 0 0.05 0 0 0 0.06 0 0 0 0.05 0 0 0 0.05 0 0 0 0.05 0 0 0 0.05 0 0 0 0.04 0 0.01 0 0.04 0 0.01 0 0.03 0 0.01 0 0.03 -0.01 0.02 0 0.03 0 0.01 0 0.03 0 0.01 0 0.03 0 0.01 0 0.03 0 0.01 0 0.03 -0.01 0.01 0 0.02 0 0.02 0 0.02 0 0.02 0 0.02 -0.01 0.02 0 0.01 0 0.02 0 0.02 -0.01 0.02 0 0.01 0 0.02 0 0.02 -0.01 0.02 0 0.01 0 0.02 -0.01 0.01 0 0.03 0 0 0 0.03 -0.01 0.01 0 0.02 -0.01 0.01 0 0.02 -0.01 0.01 0 0.03 0 0 -0.01 0.03 0 0 -0.01 0.03 0 0 0 0.03 -0.02 0 0 0.03 -0.01 0 0 0.03 -0.01 0 0 0.03 -0.01 0.01 0 0.02 -0.01 0.01 -0.01 0.02 -0.01 0.01 0 0.02 -0.01 0.01 0 0.02 -0.02 0.01 0 0.02 -0.01 0.01 -0.01 0.02 -0.01 0.01 0 0.02 -0.02 0.02 0 0.01 -0.02 0.02 0 0.01 -0.01 0.02 -0.01 0.02 -0.01 0.01 -0.01 0.02 -0.01 0.02 -0.01 0.01 -0.02 0.02 -0.01 0.01 -0.01 0.02 -0.01 0.02 -0.01 0.02 -0.02 0.01 -0.01 0.02 -0.01 0.02 -0.01 0.02 -0.02 0.01 -0.01 0.03 -0.01 0.01 -0.01 0.02 -0.02 0.01 -0.01 0.03 -0.02 0.01 -0.01 0.03 -0.02 0.01 -0.01 0.03 -0.03 0.01 0 0.03 -0.03 0.01 0 0.03 -0.03 0.01 0 0.04 -0.04 -1.61 -0.42 -0.49 -0.13c-0.07,-0.03 -0.17,-0.08 -0.23,-0.11 -0.06,-0.02 -0.14,-0.07 -0.19,-0.09 -2.36,-1.04 -1.74,0.31 -2.25,-1.12 -0.73,-2.04 -0.19,-0.36 0.02,-1.05 0.1,-0.04 0.25,-0.26 0.3,-0.14l0.79 0.25c0,-2.44 0.41,-2 2.94,-1.97 0.88,0.01 1.65,-0.1 2.22,-0.12 0.28,-0.01 0.51,-0.01 0.69,0.04 -0.16,-0.18 -0.29,-0.33 -0.4,-0.45l-0.18 -0.17c-0.57,-0.56 -0.52,-0.18 -0.88,0l-1.45 0.42 0.04 -1.82c-1.9,0.47 -2.59,0.95 -2.25,-1.53l0.07 0.08c0.02,-0.01 0.15,-0.08 0.18,-0.09 0.02,-0.01 0.15,-0.09 0.22,-0.13 -0.17,-2.24 -0.23,-0.9 0.44,-1.2 0.05,-0.03 0.12,-0.07 0.19,-0.12 -0.27,0.21 -0.13,0.73 -0.19,0.12l-0.01 -0.08 0.87 -1.56 4.45 0.06c0.48,-0.72 0.45,-1.92 1.38,-1.76 1.85,0.31 0.04,-0.8 0.63,0.54l0.16 0 0 -0.51 -0.01 -0.15 0 -1.01 -0.98 -0.29 -0.1 -0.55 0.55 -1.33c0.99,-1.05 1.83,-0.33 4.87,-0.62 1.76,-0.17 3.03,-0.69 4.83,-0.86 3.38,-0.3 6.99,-0.37 10.25,-0.79l2.27 -0.25c1.97,0.33 6.07,0.1 7.43,-1.47 0.22,-1.69 0.08,-1.63 -0.93,-2.73 -0.27,-1.32 -0.36,-1.77 -2.2,-1.6 -1.17,0.11 -1.84,0.49 -1.73,1.64l-11.05 0.81 -0.08 0 -0.02 0 -0.21 0.02 -0.03 0 -0.03 0 -0.01 0c-3.22,0.18 -6.49,0.48 -9.6,0.95 -1.31,0.2 -3.21,0.69 -4.34,0.77 -2.58,0.18 -2.08,-0.77 -3.39,-1.75l0.23 -0.34c0.52,-0.24 0.32,0.92 0.46,-0.74 0.85,-2.95 -0.25,-2.81 -2.33,-2.99 -1.79,-0.16 -3.28,-0.46 -5.53,-0.6 -0.47,-0.72 -1.22,-1.9 -1.46,-2.3l-0.01 -1.05c0.86,-0.15 1.12,-0.15 1.25,-0.8 -0.04,0.05 -0.14,0.02 -0.16,0.09 -0.02,0.08 -0.14,0.08 -0.17,0.09 -1.5,0.71 -0.57,-0.32 -1.28,0.92l-2.05 -1.34c3.18,-2.07 2.31,0.41 4.18,-1.87 4.21,-0.06 9.69,-0.68 13.63,-0.95 2.5,-0.17 5.14,-0.49 7.66,-0.51 2.8,-0.02 4.76,-0.66 8.03,-0.73 1.71,-0.1 4.34,0.28 5.25,-0.84 0.08,0.03 0.23,-0.05 0.26,0.04 0.18,0.4 1.53,-0.57 1.63,-0.65 -0.07,-2.16 -0.48,-2.53 -2.38,-2.95 -0.09,-0.02 -0.18,-0.11 -0.23,-0.13 -2.65,-1.27 -2.17,0.02 -3.25,0.39 -3.88,1.35 -5.84,-0.67 -7.19,-0.42 -1.93,0.36 -1.52,0.82 -4.33,0.82l-0.35 -1.43c0,-0.09 0.01,-0.13 -0.01,-0.19 -1.3,0.2 0,0.51 -1.59,-0.21 -0.15,-0.98 -0.12,-0.48 -0.69,-1.03 -0.73,-0.7 -0.41,0 -0.65,-0.8 -0.91,-2.28 0.57,0.17 0.29,-4.79 -0.14,-2.56 -1.33,-2.9 -1.75,-5.08 3,0.55 2.02,0.45 1.99,2.56 2.98,-3.05 -0.76,-3.17 -0.89,-4.76 -0.18,-2.14 2.93,-3.11 1.46,-2.19l0 -6.61 -4.75 0c-0.82,0.14 -0.48,1.79 -4.76,1.85 -0.81,-2.14 -1.43,-2.01 -3.67,-1.43 -0.14,0.03 -0.5,0.16 -0.62,0.2l-2.63 0.36c-2.31,-0.16 -1.72,-0.7 -3.71,0.42l-2.54 -0.32c-1.12,-2.34 1.32,-0.12 -4.61,-1.42 -1.01,-6.96 0.94,-5.8 0.81,-7.89 0,-0.64 -0.44,-0.44 0.19,-0.52zm16.95 63.1l0.91 0.54c1.72,0 0.54,-0.33 1.18,1.15l0.01 0.03 0 0.01 0.01 0.02 0.01 0.02 0 0.01 0.01 0.02 0 0.01 0.01 0.03 0.01 0 0.01 0.03 0 0 0.01 0.03 0 0.01 0.01 0.02 0 0.01 0.01 0.02 0 0.02 0.01 0.01 0 0.02 0.01 0.01 0 0.02 0 0.01 0.01 0.02 0.01 0.01 0 0.02 0 0.02 0.01 0.01 0 0.03 0.01 0 0 0.03 0 0 0.01 0.03 0 0.01 0.01 0.02 0 0.01 0 0.01 0.01 0.03 0 0 0 0.03 0.01 0.03 0 0.01 0.01 0.02 0 0.01 0 0.02 0 0.02 0.01 0.01 0 0.02 0 0.01 0 0.03 0 0 0.01 0.03 0 0 0 0.02 0.01 0.02 0 0.01 0 0.03 0 0 0 0.03 0 0 0.01 0.03 0 0.01 0 0.02 0 0.01 0 0.02 0.01 0.02 0 0.01 0 0.02 0 0.01 0 0.03 0 0 0 0.02 0 0.01 0.01 0.02 0 0.02 0 0.01 0 0.02 0 0.01 0 0.03 0 0 0 0.03 0 0.01 0 0.02 0 0.01 0.01 0.02 0 0.02 0 0.01 0 0.02 0 0.01 0 0.03 0 0 0 0.03 0 0.01 0 0.02 0 0.01 0 0.02 0 0.02 0 0.01 0 0.02 0 0.01 0 0.03 0 0 0 0.03 0 0.01 0 0.02 0 0.01 0 0.02 0.01 0.06 0 0.03 0 0 0 0.03 0 0.01 0 0.02 -0.33 0.16 0.31 0.25 0 0.01 0.02 0.02 0.81 0.77 0.15 0.14 -0.1 -0.13c-0.18,-0.22 -0.02,0.08 0.25,-0.23 0.74,0.23 1.88,-0.27 2.91,-0.29 1.8,-0.04 1.5,0.53 3.67,0.65 -1.43,-3.89 -0.38,-5.76 -0.66,-7.31 -2.67,0 -3.28,-0.59 -5.41,-0.73l-0.3 0.74c-0.06,0.11 -0.12,0.22 -0.19,0.32 -0.15,0.26 -0.38,0.61 -0.43,0.55 -0.04,-0.06 -0.16,0.16 -0.23,0.26l-0.58 -0.1c-1.35,0.11 -2.61,-0.02 -3.59,0.47l1.2 0.01 0.32 0c0,0 -0.28,-0.19 -0.32,0 -0.01,0.07 0.01,0.19 0.1,0.4l0.02 0.47zm3.18 3.19l0.3 -0.15 0.61 -0.31 -0.91 0.46zm-0.24 -3.43l0.04 -0.1 0.1 -0.22 -0.14 0.32zm0.14 -0.32l-0.13 0.01 0.13 -0.01zm-31.27 29.77l0.23 -0.15 -0.1 0.01 -0.13 0.14zm8.91 -144.24c-0.74,0.77 0.39,0.21 -0.99,1.08l-1.31 -0.75c0.83,-1.13 0,1.07 0,-1.12 -0.01,-0.98 0.24,-0.9 1.66,-1.04 0.05,3.03 0.08,0.99 0.64,1.83zm-76.34 2.01l0 10.97c7.88,-0.46 15.21,-1.3 23.28,-1.55l-2.06 0.51c-1.35,0.72 0.22,-0.79 -1.1,0.86 1.06,0 1.55,0.06 2.58,-0.16 1.1,-0.22 0.62,-0.34 2.17,-0.55 1.55,-0.21 3.59,-0.25 4.75,0.71 -2.2,1.23 -3.25,-0.17 -4.77,0 -1.59,0.19 -0.8,-0.13 -1.65,0.93 2.03,-0.09 3.79,-0.52 6.06,-0.56 2.06,-0.03 4.15,0 6.21,0 -0.48,0.59 -0.2,1.17 -2.93,1.15 -2.34,-0.01 -7.26,-0.67 -8.43,-0.28 -1.02,0.34 -0.37,0.01 -1.07,0.59 0.62,0.51 0.77,0.66 2.18,0.78l15.76 -1.35c2.07,0.04 3.9,0.56 5.83,0.37 2.02,-0.19 3.39,-0.52 5.51,-0.53 1.25,-2.05 -0.1,-2.71 -0.1,-2.71 -0.01,0.04 -0.2,1.01 -0.23,1.11l-0.79 1.59c-0.74,-0.33 -2.27,-2.33 -2.56,-3.29 0.01,-0.63 0.37,-2.93 0.36,-4.44 -0.78,-0.69 -1.04,-0.91 -1.72,-1.54 -1,-0.91 -0.56,-0.98 -2.25,-0.77l-0.87 -0.05 -1.29 -0.95c-0.64,-0.37 -0.9,-0.52 -1.57,-0.76 -3.12,-1.43 -4.28,-0.54 -9.68,-1.22 -11.05,-1.4 -20.89,0.64 -31.62,1.14zm123.7 99.26c1.27,1.15 1.4,0.37 3.25,0.35l0.83 1.9c-0.84,0.78 -0.29,0.67 -1.7,0.84l-7.22 0.64c-5.38,-0.41 -5.78,0.97 -9.51,0.54 -3.58,-0.4 -2.49,0.48 -5.85,0.51 0.48,-1.43 0.14,-1.56 3.11,-1.89l1.55 -0.3c0.03,-0.01 0.12,-0.08 0.14,-0.1l0.32 -0.41c4.81,0.45 6.82,-1.65 7.95,-0.73 0.06,0.05 0.18,0.16 0.25,0.21 0.06,0.05 0.16,0.14 0.22,0.18 0.6,0.45 0.47,0.36 1.94,0.33 1.04,-0.02 2,-0.22 3.58,-0.19 -0.08,-0.87 -1.84,-0.27 -2.95,-0.19l0.86 -0.76c0.5,-0.55 0.22,-0.11 0.22,-0.53 -0.28,0 -6.43,0.31 -8.04,0.41l11.05 -0.81zm-92.25 12.81c1.32,0.42 0.91,0.49 1.46,2.22 -1.33,1.59 -0.88,2.48 -3.54,2.56l-6.16 0.46c-1.31,0.26 -3.86,0.42 -5.62,0.18 -4.01,-0.53 -2.09,-0.38 -5.46,0.49 -1.32,0.34 -3.86,-0.46 -5.54,-0.54 -2.2,-0.11 -4.4,0.13 -6.59,0.23l31.45 -5.6zm50.1 -43.46l2.57 -0.02c0.8,0.16 0.77,-0.01 1.43,0.39 1.15,0.71 0.44,0.24 0.6,1.07 -0.14,2.1 0.86,1.72 -0.91,2.54 -0.04,-0.12 -0.09,-0.42 -0.11,-0.36 -0.01,0.06 -0.08,-0.26 -0.1,-0.34l-0.18 -1.13c-0.83,0.84 -0.39,0.83 -0.37,0.92l0.29 0.91 -1.41 0.66c-0.02,0.2 -0.17,0.26 -0.13,0.43 0.12,0.55 0.32,0.34 0.51,0.62l-0.76 -0.02c-1.5,-0.37 -2.79,0.51 -6.18,0.51l-0.4 -0.75c0.03,-0.02 0.17,-0.08 0.19,0 0,0 0.82,0.2 1.49,-0.13 0.25,-0.12 2,-0.88 2.41,-1.32 -3.2,-1.45 -2.85,2.02 -6.42,-0.24l2.62 -1.51c3.77,-1.28 4.98,0.52 6.33,0.29 -0.4,-1.3 -1.04,-1.22 -1.16,-1.27 -0.35,-0.15 0.06,0.65 -1.64,-0.41 1.83,0.45 0.84,0.12 1.33,-0.84zm17.15 43.85l-0.14 0.32 0.14 -0.32zm0.1 3.75c-0.1,0.04 -0.21,0.08 -0.3,0.12l-0.5 0.26 0.8 -0.38zm10.52 -101.76c-0.1,0.06 -0.23,0.12 -0.31,0.17l-2.38 0.2c-0.06,-0.04 -0.13,-0.12 -0.18,-0.16l-0.76 -1.68c0.09,-0.03 1.24,-0.69 1.26,-0.7 0.11,-0.04 1.43,-0.54 1.84,0.21 0.04,0.06 0.13,0.17 0.17,0.24l0.36 1.72zm-47.38 42.99l0 0.01 0 -0.01zm15.63 56.66c-1.91,-0.36 -4.83,-0.77 -6.9,-0.48 -3.75,0.53 -2.66,0.26 -4.84,-1.63 -4.31,-0.23 -8.84,-0.03 -13.18,-0.11 -3.66,-0.07 -8.33,-1.6 -11.33,0.58 0.52,0.45 1.34,1.18 2.07,1.61 1.29,0.77 0.69,0.09 2.33,-0.21 2.33,-0.42 3.69,0.86 6.62,0.41 0.51,1.59 0.21,1.61 2.1,1.68 0.93,0.03 2.63,-0.22 3.63,-0.3 5.65,-0.48 18.05,0.65 19.62,0.55 3.27,0.03 0.98,-0.19 2.58,-1.79l-0.74 0.05 -1.96 -0.36zm46.29 9.85c0.56,-0.58 0.82,0.03 -0.32,-1.22l-0.66 -0.76c1.84,0.05 1.57,-0.02 2.63,0.85l0.3 0.24c-0.3,-0.26 -0.32,-0.31 -0.3,-0.24 0.02,0.1 0.11,0.4 -0.27,0.69 -0.75,0.61 -0.17,0.31 -1.38,0.44zm-31.97 -2.17l2.1 0.55 -2.1 -0.55zm-0.32 1.28l0.16 0.27 -0.16 -0.27zm19.97 -1.06l4.04 -0.06 -4.04 0.06zm-6.36 0.08c-1.15,-0.04 -2.13,-0.12 -2.81,-0.25 -3.41,-0.65 0.22,-0.89 -5.82,-0.6 -1.94,0.09 -4.02,0.29 -5.22,-0.61l-1 -1.1 14.85 2.56zm10.75 -0.1l-0.1 0 0.1 0zm0.73 4.03c2.91,-0.32 7.49,-0.34 9.59,-1.32 0.91,-3.63 -0.75,-3.4 -4.09,-3.48 -2.74,-0.06 -5.47,-0.13 -8.21,-0.16l-12.06 -0.44c-1.53,-0.37 -1.71,-0.67 -3.51,-0.47 -1.04,-0.73 1.29,-0.43 -1.8,-0.73 0.71,-1.62 1.26,-0.89 1.42,-2.38l18.66 8.98zm-17.04 -16.11l-0.17 -0.12 0.17 0.12zm16.81 12.26c0.3,-0.06 0.57,-0.12 0.8,-0.2 -0.37,0 -0.81,0.01 -1.29,0.02l0.49 0.18zm-54.46 -64.79l-0.01 -0.05 0 -0.07 -0.01 -0.06 -0.01 -0.06 -0.01 -0.06 0 -0.05 0 0.01 0 0 0.01 0.01 0 0 0 0 0.01 0.01 0 0.01 0.01 0.02 0 0 0 0 0.01 0.01 0 0.02 0.01 0.01 0 0 0 0.01 0 0.01 0.01 0.01 0 0 0 0.01 0 0.01 0 0 0 0.01 0 0.02 0 0.01 0 0.01 0 0 0 0.01 0 0.01 0 0.01 0 0.01 0 0.01 0 0.01 0 0 0 0.02 0 0.01 -0.01 0 0 0.01 0 0.02 0 0 -0.01 0.01 0 0.02zm-31.53 56.28c0.19,1.17 0.26,1.24 1.43,1.45l0.22 -1.97c0,0 -1.31,-0.06 -1.65,0.52zm63.55 -71.78c-0.3,-1.45 0.3,-0.07 -0.36,-1.28 -0.42,-0.76 0.14,-0.12 -0.6,-0.71 -0.32,-0.27 -1.09,-0.42 -1.61,-0.82 0,0 -1.16,-1.71 -2.01,-0.62 -0.63,0.81 -0.06,-0.42 -0.05,0.3 0,0.07 0.1,0.3 0.13,0.38l0.49 1.41c1.62,3.05 3.61,1.47 4.01,1.34zm24.14 81.96c-2.15,-0.11 -0.48,-0.07 -1.13,0.7 0.36,0 0.64,1.04 2.57,0 -0.42,-0.29 0.85,-0.57 -1.44,-0.7zm6.44 2.83c0.28,0.82 0.19,1.14 1.02,1.49l0.95 -2.16 -1.97 0.67zm3.06 1.91c0.29,-0.91 0.24,-0.36 0,-1.6 -0.77,0.19 -2.08,1.39 0,1.6zm-122.57 -1.72l0.97 0.24c-0.4,-0.59 0.5,-1.1 -0.97,-0.24z"/>
   </g>
   <path class="fil1" d="M148.24 33.05l0.56 0.74 1.22 0.22 0.3 0.26c-0.88,0.73 -0.74,-1.58 -0.74,1.01 0.86,0.56 0.88,-0.53 0.5,1.31 2.24,0.25 0.95,-0.04 1.58,0.65 1.42,-1.69 0.05,-0.61 1.58,-0.3 1.71,0.63 0.81,0.59 1.14,-0.37l0.63 1.01c1.38,-0.05 3.22,-0.07 4.08,-1.07 0.78,-0.42 0.42,-0.24 1.07,-0.25 0.99,-0.2 1.26,-0.4 1.75,-0.93 0.7,-0.76 0.61,-0.92 0.8,-1.82 0.56,-1.08 0.72,-0.99 1.17,-2.27 -0.71,-0.28 -1.05,-0.47 -1.67,-0.94l-0.48 -1.29c0.51,-0.5 0.09,-0.19 0.67,-0.5 0,0 0.43,-0.16 0.55,-0.19l1.76 0.01c-0.12,-1.74 -0.14,-1.65 -1.41,-1.81 -0.98,-1.55 -0.61,0.03 -1.26,-2.02 2.89,-1.01 3.42,-6.92 4.95,-10.31 1.07,-0.21 3,-0.83 3.92,-1.46l-0.25 -1.44 0.5 -1.24 0.94 0.07c1.05,0.64 1.32,1 1.95,1.58l-0.64 2.92c4.16,5.29 1.79,3.97 3.28,7.23 3.01,0.8 1.4,-1.08 4.78,0.39 2.47,1.08 3,0.1 3.38,-1.8l2.07 -0.18 1.58 0.08c0.35,-0.45 0.66,-0.95 1.18,-1.38l-0.14 -1.32c0.07,-0.03 0.19,-0.19 0.21,-0.13 0.27,0.6 0.7,-2.73 3.15,-0.73 0.45,-4.68 -2.27,-0.93 -2.16,-3.06 0.09,-1.66 1.16,-1.3 0.08,-0.92l0.17 -1.28 0.19 -0.55 0.77 0.19c0.07,-1.47 -0.04,-1.22 0.6,-2.21 1.71,-0.03 0.88,-0.3 2.33,0.67l1.93 0.98c0.34,2.61 1.04,3.79 2.42,5.59 1.78,2.32 1.43,3.49 4.47,4.29 0.78,0.58 5.78,2.15 7.19,2.15 2.28,-1.16 1.09,-1.26 2.55,-3 0.82,-0.98 2.57,-1.68 3.45,-1.89 1.76,0.33 1.11,-0.93 1.57,-2.46 0.17,-0.59 0.81,-1.19 1.42,-2.07 0.39,-0.56 0.62,-1.56 1.11,-2.46l0.29 -0.46c0.09,-0.09 1.05,-0.71 1.08,0.32 0.05,-0.09 0.15,-0.3 0.18,-0.24 0.03,0.06 0.14,-0.17 0.18,-0.22l0.73 -1.01c-0.62,0.52 -0.41,-0.07 0.35,0.37 0.33,2.8 0.55,1.49 1.45,2.6 1.06,1.28 0.21,1.94 1.48,3.47 1.64,3.22 2.43,8.32 5.24,9.56 0.4,0.18 6.8,1.58 9.24,-0.44 1.29,-1.06 0.85,-1.19 1.71,-2.28 6.24,0.37 4.41,-0.66 5.3,2.45l2.83 0.13c0.22,1.67 -0.6,2.83 0.71,4.1 2.15,2.1 0.65,-0.31 2.61,3.1 1.76,-0.21 1.59,-0.62 2.91,-0.87 0.86,-0.16 2.27,-0.02 3.28,-0.15 0.74,-2.37 0.2,-1.66 2.51,-2.85 2.36,-0.89 2.49,-0.94 3.9,-2.65 1.63,0.15 2.87,0.87 4.3,1.48 2.02,0.87 3.16,0.77 5.28,1.12 1.71,-1.61 2.2,0.1 3.59,-2.31 1.39,-2.4 -0.27,-0.37 3.67,-2.38 0.34,-2.06 -0.27,-2.42 0.08,-4.09 0.25,-1.16 1.04,-1.89 0.9,-3.34l-1.8 -7.16c0.81,-0.44 2.07,-2.12 2.3,-3.24 0.52,-2.51 -1.43,-2.29 -1.24,-3.64 0.8,-1.04 1.77,-1.16 3.4,-0.55 0.34,0.71 0.45,1.13 0.96,1.88 0.56,0.82 1.05,0.66 1.96,1.32 0.45,0.47 -0.11,0.17 0.67,-0.81 0.53,2.22 3.72,0.1 3.73,0.1 2.44,-1.05 1.88,-0.75 1.88,-4.06l-2.25 0 -1.09 0 -34.87 0 -3.19 0 -1.87 0 -1.78 0 -12.88 0 0.13 5.59c-2.34,0.18 -1.83,3.79 -2.44,4.81 -1.05,1.73 -0.89,-0.63 -0.9,0.88 -0.11,-0.03 -0.91,-0.18 -1.02,-0.22 -1.04,-0.36 -0.72,-0.29 -1.01,-0.45l0.24 -1.35c0.08,-0.53 0.1,-0.17 -0.06,-0.55 1.12,-2.39 -0.63,-2.98 -1.84,-4.32 0.13,-2.46 1.07,-2.65 1.45,-4.39l-7.99 0 -13.52 0c-0.18,1.78 0.23,2.66 0.12,4.04 -0.14,1.76 -0.57,1.21 -1.25,2.91 -1.19,-0.37 -1.16,-0.82 -2.41,-0.82 0.06,2.2 0.99,0.63 1.22,2.59 0.27,2.28 0.05,0.32 -0.25,1.15 -0.12,0.01 -0.25,0.04 -0.34,0.03l-1.44 -0.39c-0.92,-0.84 -0.62,-1.14 -2.29,-1.78 -1.29,-0.49 -1.99,-0.45 -2.93,-1.51 0.64,-1.31 1.06,-1.1 1.72,-2.56 -0.71,-1.74 -1.44,-0.53 -2.25,-3.66l-47.42 0 -1.74 0 -0.21 2.05c-1.35,0.57 -0.53,-0.03 -1.4,0.88 0.17,1.66 0.74,1.89 -0.22,3.27 -3.3,-0.04 -0.92,-0.47 -3.32,-2.38l-1.43 -0.89 0 2.58 0 -5.51 -19.91 0c0.1,5.95 0.19,10.61 1.9,16.2 0.68,2.2 0.86,4.78 2.18,6.57 1.98,2.69 3.43,1.07 6.13,0.71 1.59,0.25 0.58,0.66 3.08,-1.64 1.49,-1.37 0.83,-1.57 3.74,-1.01 1.19,1.82 0.63,3.91 2.28,6.07 1.2,1.57 0.04,1.39 1.99,1.49 0.41,0.13 1.7,0.45 2.33,0.69l-0.78 2.63c-1.15,-0.16 -0.4,-0.25 -0.77,0.47l0.15 0.87zm-0.27 -18.31l-0.01 0.04 0 -0.01 0.01 -0.03zm2.5 2.63c-1.22,-0.58 -1.33,-2.73 -0.96,-4.37l2.31 -0.48c-0.05,-0.72 0.12,-0.35 -0.79,-0.68 -1.8,-0.65 -0.66,-0.36 -1.09,-0.14 0.52,-1.54 0.17,-0.64 0.83,-1.15 1.49,-1.15 0.57,1.82 1.42,-4.87 0.4,0.43 0.69,0.44 0.72,2.22l-0.04 7.09c-1.68,0.12 -2.34,0.93 -2.4,2.38zm78.1 -10.79c-0.19,-1.61 1.12,0.57 0.73,-5.48 -0.88,0.29 -1.31,0.39 -1.92,1.84 -0.29,0.69 -0.48,1.48 -0.64,2.55 -0.87,0.63 0.23,-0.13 -0.8,0.29l-0.97 0.44c0.08,0.08 0.19,0.17 0.26,0.22 2.69,2.32 2.43,1.92 2.61,3.07 0.86,-0.11 3.68,-0.57 3.79,-0.6 0,0 0.8,0.06 1.03,-0.6l-0.43 -1.73c-3.39,-1.5 0.64,1.89 -3.66,0zm28.08 9.53l-1.48 -0.75 0.19 -1.02c-1.13,0.34 -1.44,0.41 -1.39,1.53 1.19,0.96 1.22,0.57 2.68,0.24zm-104.25 3.11c-0.99,0.42 -0.39,0.09 -1.15,0.55 -0.87,0.52 -1.37,1 -1.53,2.03l2.41 0.24 0.27 -2.82zm108.72 8.57l-0.03 -0.03 -0.12 -0.12c-0.85,-0.79 -2.01,-1.14 -3.19,-1.36 -0.2,1.04 -0.22,0.93 1.14,1.88 -0.5,1.06 -1.02,0.72 -1.67,2.19 0.12,-0.04 0.72,-0.2 0.86,-0.24 0.17,-0.05 0.24,-0.07 0.42,-0.11 0.16,-0.05 0.24,-0.07 0.39,-0.11 0.24,-0.06 0.74,-0.16 1.1,-0.27 0.19,-0.87 0.07,-0.48 0.5,-1.22l0.45 -0.76c0.29,-0.49 0.07,-0.02 0.12,0.12 0.01,0.01 0.02,0.03 0.03,0.03z"/>
   <g>
    <path class="fil2" d="M186.59 339.06l-3.67 0.68c0.19,-0.97 0.55,-1.71 1.3,-2.7 0.4,-0.54 1,-0.99 1.55,-1.67 1.19,-1.47 0.2,-1.32 1.72,-1.63 -0.25,-2.33 -0.31,-1.46 0.81,-2.41 1.41,-1.2 0.86,0.37 1.14,-2.07 1.44,-0.23 2.84,-0.41 3.96,0.39 0.83,0.58 1.34,2.3 4.49,2.29 2.69,0 1.17,-0.33 1.18,-0.36l4.39 25.52 -1.56 -0.24c0.7,2.06 0.02,0.09 1.99,1.17 0.21,1.26 0.39,0.44 -0.23,1.53 -0.91,1.02 -0.22,0.62 -0.93,1.66l3.16 -0.18c0.75,1.03 0.59,0.24 0.72,1.65l4.77 0.27 0.64 1.34c1.46,3.02 1.35,10.53 1.22,13.87 -0.07,1.89 0.25,1.19 -0.66,2.26 -0.08,-0.97 -0.22,-0.88 -0.25,-2.13 0,0 -1.13,2.26 -3,0.05 -0.44,-0.51 -0.19,-0.25 -0.49,-0.65l-1.53 -1.35 -2.3 -2.05 -0.35 -2.43 -0.09 -0.58 -0.26 0c-1.68,0.05 -1.07,0.08 -2.27,-0.6 -1.71,-0.97 -1.48,-0.45 -2.04,-1.42l2.3 -0.26c-1.5,-0.24 -2.44,0.39 -3.67,-0.74 -0.65,-0.59 -0.06,-0.72 -1.41,-1.02l-0.45 -0.07c-0.79,-2.08 -0.34,-2.08 -0.33,-4.55 1.01,0.19 1.91,0.4 2.5,-0.39l-0.05 0 -0.06 0 -0.05 0 -0.06 0 0 0.01 -0.05 0 -0.06 0 -0.05 0 -0.05 0 -0.01 0 -0.04 0 -0.05 0 -0.06 0 -0.04 0 -0.02 0 -0.03 0 -0.05 0 -0.05 0 -0.05 0.01 -0.03 0 -0.02 0 -0.05 0 -0.04 0 -0.05 0 -0.03 0 -0.01 0 -0.05 0 -0.04 0 -0.05 0 -0.03 0 -0.01 0 -0.04 0 -0.04 0 -0.05 0 -0.03 0 -0.01 0 -0.04 0 -0.04 0 -0.04 0 -0.04 0 0 0 -0.04 0 -0.03 0 -0.04 0 -0.04 0 -0.01 0 -0.03 0 -0.03 0 -0.04 0 -0.04 0 -0.01 0 -0.02 0 -0.04 0 -0.03 0 -0.03 0 -0.02 0 -0.02 0 -0.03 0 -0.03 -0.01 -0.03 0 -0.02 0 -0.02 0 -0.03 0 -0.03 0 -0.03 0 -0.02 0 -0.01 0 -0.03 0 -0.03 0 -0.03 0 -0.02 0 -0.01 0 -0.03 0 -0.02 0 -0.03 -0.01 -0.03 0 0 0 -0.03 0 -0.02 0c-0.35,-0.02 -0.61,-0.04 -0.82,-0.07l-0.03 -0.01 -0.02 0 -0.02 0 -0.04 -0.01 0 0 -0.03 0 -0.03 -0.01 -0.01 0 -0.03 -0.01 -0.01 0 -0.02 0 -0.03 -0.01 0 0 -0.03 -0.01 -0.02 0 -0.01 0 -0.03 -0.01 -0.01 0 -0.02 -0.01 -0.03 -0.01 0 0 -0.03 0 -0.01 -0.01 -0.01 0 -0.03 -0.01 -0.01 0 -0.02 0 -0.02 -0.01 -0.01 0 -0.02 -0.01 -0.02 0 -0.01 -0.01 -0.02 -0.01 -0.01 0 -0.02 0 -0.02 -0.01 -0.01 0 -0.02 -0.01 -0.02 0 -0.01 -0.01 -0.03 0 0 -0.01 -0.03 0 -0.02 -0.01 0 0 -0.03 -0.01 -0.02 0 -0.01 -0.01 -0.03 0 -0.01 -0.01 -0.02 0 -0.03 -0.01 0 0 -0.04 -0.01 -0.01 0 -0.02 -0.01 -0.03 -0.01 0 0 -0.04 0 -0.02 -0.01 -0.01 0 -0.04 -0.01 -0.01 0 -0.03 -0.01 -0.04 -0.01 0 0 -0.04 0 -0.02 -0.01 -0.02 0 -0.04 -0.01 -0.01 0 -0.04 -0.01 -0.04 -0.01 0 0 -0.05 0 -0.03 -0.01 -0.02 0 -0.05 -0.01 -0.01 0 -0.04 -0.01 -0.05 0 -0.01 -0.01 -0.06 0 -0.02 -0.01 -0.03 0 -0.07 -0.01 0 0 -0.06 -0.01 -0.05 0 -0.01 0 -0.07 -0.01 -0.03 0 -0.04 -0.01 -0.07 0 0 -0.01 -0.07 0 -0.06 -0.01 -0.02 0 -0.08 -0.01 -0.03 0 -0.05 0 -0.09 -0.01c0.13,-0.61 0.16,-1.09 0.17,-1.54 0.02,-0.97 -0.11,-1.72 0.2,-3.03l-2.02 -0.34c-1.89,-0.25 -2.47,-0.44 -4.01,0.16l0.05 6.21c-0.29,1.41 -0.12,2.87 1.02,3.35l0.04 7.63 -0.92 0.98c1.54,1.01 1.44,0.76 2.72,2.32 1.2,1.47 2.02,1.92 3.41,2.79 0.54,0.33 0.3,0.08 0.7,0.48 0.7,0.68 -0.01,0.17 0.58,0.84 0.84,0.95 2.9,1.86 4.1,1.91l-0.37 -3.47c4.76,0.66 4.4,-0.07 6.4,0.36 0.16,2.37 0.22,2.31 -0.36,4.64l0.18 0.3c-0.28,2.17 -0.31,4.25 0.11,6.57 -0.2,2.28 -0.16,4.6 -0.26,6.89 -0.43,10.3 2.03,0.88 0.08,10.49 -4.62,0.51 -2.07,0.82 -5.67,2.29l-5.74 0.32 -0.59 1.3 -5.28 0.02 -0.57 1.97c-5.6,0.39 -4.77,0.07 -8.32,2.88 -0.07,2.15 -0.27,2.08 0.34,3.22 0.47,0.85 0.15,-0.74 0.58,1.18 0.04,0.2 0.1,1.16 0.13,1.45l1.75 0.73c0.19,2.47 0.36,4.53 -0.04,6.98 -1.21,0 -2.41,0 -3.61,0.02 -2.11,0.03 -1.83,0.52 -2.44,-1.14 -2.62,0.07 -2.33,-0.04 -5.5,-1.21l-4.28 -0.51c0.09,-0.06 0.34,0.33 0.69,-1.5 -1.58,0 -2.63,0.24 -4.17,0.07 -1.37,-0.15 -2.3,-0.4 -3.7,-0.46l-0.69 -1.98c-1.74,-0.23 -1.56,-0.35 -3.68,-0.35 -1.35,0.01 -1.06,0.03 -2.1,-0.7 -0.05,-0.03 -0.19,-0.04 -0.23,-0.15 -0.03,-0.12 -0.15,-0.12 -0.24,-0.15 -1.61,1.14 -2.29,0.6 -4.72,0.68l-0.25 2.78 -0.22 6.4 0.09 5.12 1.02 0.47c0.59,0.25 0.34,0.06 0.62,0.26l0.09 5.12c0.08,0.06 0.21,0.12 0.26,0.16l1.77 1.98c0.04,0.05 0.9,0.93 0.9,0.93 0.49,0.42 0.45,0.25 0.96,0.59 0.38,2.22 0.09,2.07 1.47,3.53l4.04 3.6c2.47,-0.76 2.79,-0.5 6.4,-0.5l-2.86 0.61c2.25,0 3.03,0.39 4.37,-0.65 1.91,-1.49 0.25,-0.93 2.98,-1.09 -0.04,-1.31 0.25,-0.5 -0.32,-1.38 1.03,-0.02 0.77,0.19 1.38,-0.33 1.57,-1.34 -1.43,-1 4,-1.59 0.24,-0.69 0.5,-1.04 0.77,-1.75 0.44,0.03 1.51,0.25 1.66,0.27 2.98,0.51 3.06,-0.26 5.64,0.47l0.37 0.13c0.08,0.02 1.37,0.12 1.75,0.11 5.83,-0.24 2.69,0.13 4.3,0.9 0.73,0.36 3.68,0.22 4.93,0.36l0.57 1.77c0.58,0.01 1.02,-0.03 1.59,0.1 2.7,0.61 0.94,1.57 3.96,1.8l0.42 1.69 5.19 0.61 0.65 5.17 2.64 0.5c0.02,2.76 0.79,1.25 2.6,2.86 0.39,2.71 0.32,3.44 2.31,4.23 1.62,0.64 2.66,0.43 3.64,1.11l0.59 0.53 0.3 0.28c0.28,-0.06 0.4,-0.13 0.8,-0.12 1.88,0.04 0.23,-0.03 1,0.22 0.52,1.64 0.05,2.54 -1.47,2.89 0,2.4 0.52,3.58 0.57,5.49 1.73,0.46 0.21,0.33 1.66,0 0,-6.22 -0.07,-1.95 -0.36,-5.85 1.62,-0.18 2.19,0.52 2.19,-1.83 0.06,0.47 2.17,2.95 0.73,8.59 0.37,0.25 0.26,0.19 0.92,0.37l0 0.36c-0.65,0.18 -0.55,0.14 -0.92,0.37 0.4,1.83 0.2,1.08 0,2.92l2.75 0 0 0.96 1.19 0.01 2.76 0.01c0.59,1.07 1.36,2.68 1.79,0.41 0.4,1.5 1.25,2.31 3.01,2.5l0.06 0.6c0.1,0.98 0.06,0.53 1.5,1.33l0.64 0.39c0.29,0.17 0.29,0.45 1.63,0.72 0.57,0.12 1.27,0.13 1.9,0.17l0.26 0.02 -0.19 0.02 3.12 -0.03 -0.12 -4.28c-0.05,-0.54 -0.05,-0.01 -0.01,-0.67l0.07 -10.14c4.91,0 11,0.45 15.73,0l-0.74 -1.58c-0.89,1.66 -7.41,0.31 -8.97,0.08 -2.95,-0.43 -2.25,-0.04 -4.08,-0.15 -0.36,-0.03 -0.77,-0.06 -1.11,-0.17 -1.04,-0.36 -0.38,-0.05 -1.07,-0.62 1.05,-0.87 0.99,-0.73 2.92,-0.73 0.02,-2.88 -0.23,-0.41 1.1,-1.46 0.64,1.67 -0.19,1.47 1.1,1.46 0.26,-1.41 0.04,-0.61 0.37,-1.46 1.35,1.09 1.07,-1.62 1.09,1.83 3.52,0 1.93,0 2.3,-0.32l0.63 -0.78c0.08,0.07 0.21,0.07 0.26,0.21 0.04,0.14 0.19,0.16 0.26,0.19l1.67 0.33c0,-0.52 -0.22,-1.31 -0.24,-1.46 -0.29,-1.75 0.57,-1.44 0.61,-1.46 1.07,0.76 0.85,0.69 0.85,2.92l0.61 0c0,-1.98 -0.12,-1.92 0.73,-2.8l0.49 2.8 3.05 0.16 0 -1.01 0.13 0 0.13 0 0.12 0 0.08 0 0.03 0 0.08 -0.01 0.04 0 0.06 0 0.04 0 0.06 0 0.05 0 0.04 0 0.06 0 0.04 0 0.05 0 0.03 0 0.06 0 0.03 0 0.06 0 0.02 0 0.06 -0.01 0.02 0 0.06 0 0.01 0 0.07 0 0 0 0.07 0 0.07 0 0 0 0.06 0 0.01 0 0.06 0 0.01 0 0.04 0 0.02 0 0.04 0 0.02 0 0.04 0.01 0.02 0 0.03 0 0.02 0 0.03 0 0.02 0 0.03 0 0.03 0 0.02 0.01 0.02 0 0.02 0 0.03 0 0.02 0.01 0.03 0 0.01 0 0.03 0.01 0.01 0 0.04 0 0.01 0 0.03 0.01 0.01 0 0.03 0.01 0.01 0 0.03 0.01 0.01 0 0.03 0.01 0.01 0 0.03 0.01 0.01 0.01 0.03 0.01 0.01 0 0.03 0.01 0.01 0 0.02 0.02 0.02 0 0.02 0.01 0.02 0.01 0.02 0.01 0.02 0.01 0.02 0.01 0.02 0.01 0.02 0 0.02 0.02 0.02 0.01 0.03 0.01 0.01 0.01 0.03 0.01 0.01 0.01 0.03 0.02 0.01 0.01 0.04 0.02 0.01 0 0.04 0.03 0 0 0.05 0.03 0 0 0.04 0.03 0.01 0 0.04 0.03 0.01 0 0.04 0.04 0.01 0 0.05 0.03 0.01 0.01 0.04 0.03 0.02 0.01 0.04 0.03 0.02 0.01 0.04 0.03 0.02 0.01 0.04 0.03 0.03 0.02 0.03 0.02 0.04 0.03 0.03 0.02 0.04 0.03 0.03 0.02 0.04 0.03 0.03 0.02 0.05 0.03 0.02 0.02 0.06 0.04 0.02 0.01 0.07 0.05 0.01 0.01 0.08 0.05 0.01 0.01 0.08 0.05 0.01 0 0.09 0.07 0.14 6.01c0.92,-0.92 0.31,0.01 0.72,-1.44 0.16,-0.55 0.19,-0.92 0.39,-1.64 0.42,0.57 0.15,-0.1 0.37,0.83 0.11,0.47 0.12,0.89 0.13,1.37 0.01,0.78 -0.05,2.13 -0.12,2.9l0.39 13.95 0.01 0.32 -0.01 0.11c-0.14,0.91 0.23,0.41 -0.43,0.78 0,1.41 0.08,0.74 -0.3,1.29l0.5 0.36c0.36,0.12 0.4,0.14 0.5,0.15 0.07,0 0.18,0 0.46,0.02 -0.38,0.52 -0.46,0.78 -0.82,1.3 3.71,-0.3 4.79,0.87 6.54,-0.88 1.34,-1.35 -0.64,-0.92 1.8,-1.02l0.44 -10.31c2.11,0 3.15,-0.21 3.81,-2.81 0.41,-1.62 -0.19,-3.19 0.37,-5.04l1.31 -0.17 2.71 0.19 0 2.85c-0.58,0.06 -1.19,0.15 -1.86,-0.06l-1.25 -0.98c-1.48,1.59 0.45,0.64 -1.15,3.83 -1.84,3.67 0.63,1.9 -2.51,4.03l0.55 1.29c4.67,0 -1.1,-0.73 2.58,-1.27 2.85,-0.42 0.74,0.04 1.49,0.86l0.78 0.76c0.07,0.07 0.21,0.14 0.27,0.19 0.07,0.05 0.21,0.11 0.31,0.19l-0.04 1.97c-0.83,2.74 -1.41,0.24 -1.46,2.41 0.03,1.91 0.98,-0.11 0.93,3.65l0.51 4.28c0.35,1.08 0.77,1.8 1.98,2.64 1.03,0.7 0.68,0.24 1.41,0.65 1.37,0.77 0.05,-0.2 1.12,1.31l3.61 0.54c4.22,-0.07 3.76,1.33 7.68,1.33l-0.26 1.33 -43.17 0 -0.96 0 -28.91 0c-71.79,0 -143.58,0 -215.37,0l-9.71 0 0 -6.78 0 -107.32 0 -15.99 0 -13.04 0 -17.66 0 -10.2 0 -43.36c5.86,-0.26 10.48,-0.8 16.46,-0.63 3.49,0.1 14.77,-0.84 16.79,-0.34 1.53,-0.63 0.5,-0.35 2.22,-0.45 1.65,0 7.54,-0.3 8.76,0.36 0.38,0.21 0.74,0.61 0.45,0.94 -1.14,1.33 -0.26,0.26 -1.49,0.25l-1.04 -0.05c-0.08,0.01 -0.79,0.11 -0.83,0.11 -0.39,1.2 -0.45,0.08 0.96,2.92 1.18,-0.52 0.68,-0.01 1.46,-1.09 0.1,2.97 0.66,-0.79 0.25,5.11 -0.05,0.72 0.08,1.35 0.19,2.05 -2.94,2.17 -0.56,1.1 -2.93,3.17l-0.8 0.74c-2.59,2.41 -1.12,1.6 -2.05,1.95l-0.27 -1.97c-2.73,-0.05 -3.37,-0.55 -3.94,0.38 -0.35,0.59 0.19,4.69 0.19,7.44l2.92 2.56 0.63 -0.72c1.03,-1.39 -0.04,-1.12 0.84,-1.11 0,1.06 -0.13,3.13 -0.01,4.07 0.41,3.4 -0.05,0.25 0.68,1.84 0.12,0.28 0.1,-0.45 0.29,0.78 0.18,1.13 -0.66,1.4 -0.7,4.65 -0.04,2.6 -0.56,2.79 1.56,3.29 1.56,-2.09 0.14,-6.32 0.19,-8.05 1.32,-0.73 -0.56,-0.07 0.98,-0.15 2.6,-0.13 1.8,0.59 2.49,-0.58l2.2 0c0,2.99 -0.1,0.82 0.73,1.68l2.19 0c0.85,-0.88 0.71,1.32 0.73,-1.68l2.2 0c0,0.17 0.03,1.62 0.02,1.66 -0.47,1.85 0.74,-0.45 -1.12,1.27 0.11,0.08 0.3,0.01 0.37,0.17 0.82,1.96 -0.22,-0.09 0.91,0.37 0.04,0.02 0.15,0.04 0.2,0.06l2.39 6.04c0.57,0.82 0.45,1.28 0.59,2.13l1.76 0c0,2.07 0.15,2.35 1.1,4.29 0.04,0.09 0.09,0.18 0.13,0.26l0.52 1c0.88,1.89 1.17,1.64 3.36,3.98 0.59,0.63 0.65,0.55 1.11,1.08 1.36,-1.1 1.07,1.62 1.09,-1.83 0.03,4.18 0.4,3.38 2.05,4.86l2.19 1.94c2.02,0.95 0.46,-1.16 3.19,1.45l1.15 1.17c0.04,0.05 0.13,0.16 0.2,0.23 2.62,0 2.97,-0.09 4.24,1.32 -0.25,0.08 -1.25,0.14 -2.05,0.73l0.16 2.71 2.76 -0.11 0.26 -3.1c1.79,0.59 1.37,0.27 2.97,-0.03 1.97,0.31 1.14,-0.02 1.9,-1.3 1.52,-2.56 4.12,-1.78 4.27,-6.53l1.46 0.71c0.21,-1.19 0.82,-1.92 1.9,-1.74 1.43,0.24 0.2,1.09 2.2,1.28l0.3 1.94 5.42 0.28 0.22 -1.14c0.02,-1.69 -0.11,-2.04 -0.34,-3.64l5.78 0 0.64 1.42 5.21 0.48 0.47 2.62 5.83 0.01c-0.01,-2.02 0.03,-3.93 -0.13,-5.93 -0.18,-2.22 0.34,-3.36 0.34,-5.56l2.7 -0.43c0.71,-1.96 3.88,-3.2 5.05,-4.96 1.72,0.25 0.07,-0.12 1.43,0.68 0.95,-0.86 0.53,0.2 0.73,-1.22l1.68 -0.2 4.09 2.24c0.34,0.49 0.58,1.22 0.85,1.77 0.59,-0.04 1.05,0.94 1.1,-0.73 0,2.19 1,5.47 2.02,6.4 0.04,0.04 0.14,0.1 0.18,0.14 0.47,0.34 1.13,0.02 1.58,2.12 1.42,-0.17 0.96,-0.36 2.04,0.12 1.8,0.08 2.73,0.45 4.56,0.03 3.02,-0.69 2.99,-1.66 6.03,-1.89 2.17,-0.16 1.8,-0.38 3.15,-0.66 1.91,-0.41 1.36,0.35 3.42,0.69l0.42 -0.73 0 -1.83c4.94,-0.03 5.6,0.34 5.86,-1.46l2.19 0c0,1.62 -0.09,1.93 0.73,2.92l2.2 0c0.82,-1 0.73,-1.3 0.73,-2.92l2.19 0 0 3.29c-1.05,0 -1.97,-0.04 -2.92,0.44l0 3.22 2.92 0 0 1.1 -2.92 0 0 3.65c-0.16,1.2 -1.28,0.94 -2.15,1.38 -0.09,0.05 -0.18,0.1 -0.26,0.15l-0.44 0.32c-1.53,0.96 -4.85,0.52 -6.62,0.8 -1.84,0.29 -1.65,0.58 -2.66,1.59 1.3,4.89 0.3,3.62 1.71,4.5l-0.86 1.03 0.21 1.35 1.56 0.37c0.33,-1.51 -0.08,-0.59 0.56,-1.37 0.36,-0.45 0.53,-0.63 1.13,-0.43 2.28,0.75 -1.07,1.73 2.05,1.53 -0.69,-0.92 -1.6,-1.51 -0.14,-2.38 0.52,-0.31 1.23,-0.3 1.87,-0.37 3.31,-0.36 1.88,-0.67 4.73,-1.31 2.93,-0.67 2.44,-2.03 2.23,-0.94 2.08,0 4.15,-0.11 6.22,-0.04 2.5,0.09 3.68,-0.39 6.09,-0.45 0.32,-0.98 0.16,-0.51 0.65,-1.24 0.73,-1.08 0.48,-0.05 0.85,-1.51 0.39,-1.53 0.09,-3.06 -0.72,-4.35l-1.13 -2.18c-0.3,-0.51 -0.07,-0.63 -1.1,-0.95 -1.58,-0.48 -1.45,0.2 -1.47,0.24 0.15,-1.71 0.93,0.55 1.48,-1.55 0.14,-0.55 -0.32,-2.12 -0.46,-3.21 0.06,-1.01 0.1,-1.78 0.21,-2.44l-0.01 -0.24 3.73 -0.69zm35.56 51.16l0.09 7.34 0 0.24 -2.28 -0.13c-0.41,-1.27 -0.87,-1.59 -3.09,-1.76l-0.49 0.88c-0.04,0.08 -0.08,0.19 -0.11,0.26 -0.03,0.09 -0.11,0.54 -0.13,0.64l-3.3 0.17 -1.82 0.21c-0.82,1.22 0.26,1.22 -1.07,2.87 -0.05,0.05 -0.13,0.12 -0.17,0.17 -0.05,0.06 -0.13,0.13 -0.18,0.19 -0.04,0.06 -0.11,0.14 -0.15,0.2l-0.89 1.88c0.38,0.27 0.2,0.25 0.95,0.51 0.2,0.06 0.66,0.04 0.89,0.04 -0.16,3.67 2.84,2.5 3.54,0.13l2.64 -0.21 0.21 -3.15c4.56,0 6.65,0.45 7.82,1.07 1.6,0.84 1.5,2 3.69,2.73 0.88,0.29 3.56,0.52 5.37,0.07 0.11,-0.03 0.19,-0.07 0.29,-0.1l0.72 -0.29c0.38,-0.12 0.56,-0.12 0.93,-0.14l0.19 2.53 0.02 0.24c0.3,0.22 0.55,0.47 0.77,0.75 0.67,0.88 0.91,2 0.54,3.27 -0.4,1.39 -1.27,1.79 -2.67,2.01l-0.31 0.05 -0.01 0.75 -0.03 1.59 -0.69 0.21 -0.94 0.29 -0.28 0.09c-0.24,3.73 -1.02,1.44 -2.08,3.48 -0.96,1.85 -0.01,1.93 0.7,2.59 0.21,0.19 0.4,0.44 0.52,0.79 -0.39,0.53 -0.3,0.61 -1.19,0.89 0.22,2.75 -0.3,3.04 -1.88,3.95l-0.16 5.42 -2.78 0.19c-0.18,3.62 -0.03,1.9 -0.92,3.02l-0.47 0.67c-0.63,0.78 -0.21,0.58 -1.5,0.96l-0.41 4.04c-4.88,0 -7.84,-0.41 -8.88,1.65 -0.13,0.27 -0.24,0.59 -0.31,0.95l-4.02 -0.07 0.04 11.7c0.88,0.66 -1.11,0.29 1.38,0.74l0.77 5.43 4.75 0.31 1.14 0.07 -0.22 -6 -0.16 -7.5 0.81 -0.68c2.02,-1.59 6.62,-0.56 10.83,-0.89l0.17 2.67c-0.83,0.67 -0.76,0.33 -1.91,0.73l0 5.44 7.53 0.27 0.01 5.49 0.89 -0.15 -0.02 -5.45 2.62 0.06 2.79 -0.44 -0.07 6.08 1.2 0.12c-0.26,-1.95 -0.54,-1.6 -0.38,-3.59 0.23,-3.01 -0.63,-2.09 -0.71,-3.08 1.73,-1.62 2.83,-2.3 5.27,-2.3l0.24 -2.84c1.54,-0.02 1.8,-0.23 3.33,0.14l0.13 -5.21 0.02 -0.57 2.38 -0.13 0.13 2.69 0.91 -2c0.57,1.43 0.89,1.01 1.22,2.43 0.55,-0.46 0.11,0.27 0.33,-0.65 1.33,1.03 0.5,1.14 1.2,2.42 0.76,1.36 -0.08,0.09 0.95,0.82 0.99,0.7 0.59,-0.37 0.99,0.98l5.75 2.39 0.29 2.48c0.98,0.18 2.56,0.13 3.22,0.48 0.66,0.35 0.19,1.03 2.35,1.24l0.24 2.26 0.18 0.84 5.24 0.02 0.66 2.12 5.58 0.42c0.67,1.6 0.28,0.64 1.74,1.14l2.2 1.03c2.11,0.7 4.14,0.25 4.42,2.7 0.01,0.12 0.31,2.7 -2.37,2.95l-0.07 1.7c3.04,-0.61 2.72,-1.82 3.57,-2.92 0.75,0.48 4.68,0.36 5.51,0.35 3.22,-0.03 1.74,0.74 5.09,0.74 0.04,0.6 -0.51,0.96 1.83,2.2 -2.69,0.09 -1.4,0.29 -1.83,1.1 1.01,0.83 1.49,0.9 3.27,0.6 0.64,-0.11 0.96,-0.17 1.34,-0.2 0.29,-0.03 0.61,-0.04 1.13,-0.04l0.01 0 0.02 0 0.01 0 0.01 0 0 0 0.02 0 0.01 0 0.01 0 0.01 0 0 0 0.01 0 0.01 0 -0.01 0 -0.01 0 0 0 -0.01 0 -0.01 0 -0.01 0 -0.02 0 0 0 -0.01 0 -0.01 0 -0.02 0 -0.01 0c-0.3,-0.01 -0.97,-0.03 -0.99,-0.02l-0.14 0.06 -1.68 0.69 1.76 0.74 0.06 0.02c0.03,0.01 0.72,-0.02 1,-0.02l0.01 0 0.02 0 0.01 0 0.01 0 0.01 0 0.02 0 0 0 0.01 0 0.01 0 0.01 0 -0.01 0 -0.01 0 -0.01 0 0 0 -0.02 0 -0.01 0 -0.01 0 -0.01 0 -0.02 0 -0.01 0 -1.06 0 -1.03 0c-0.08,0.09 -0.18,0.11 -0.23,0.27 -0.04,0.17 -0.36,0.42 -0.44,0.48 -0.27,0.26 -0.55,0.45 -0.83,0.64l-1.79 1.17c1.15,1.42 -0.08,0.4 1.45,1.04 0.12,0.05 0.51,0.06 0.81,0.06l0.02 0 0.02 0 0.02 0 0.02 -0.01 0.01 0 0.02 0 0 0 0.02 0 0.02 0 0.01 0 0.02 0 0.02 0 0.01 0 0.02 0 0.01 0 0.01 0 0.02 0 0.01 0 0.01 0 0.01 0 -0.01 0 -0.01 0 -0.01 0 -0.02 0 -0.01 0 -0.01 0 -0.02 0 -0.01 0 -0.02 0 -0.02 0 -0.01 0 -0.02 0 -0.02 0 0 0 -0.02 0 -0.01 0 -0.02 0.01 -0.02 0 -0.02 0 -0.02 0c-3.87,0.05 -3.25,0.65 -5.55,2.19l0 3.65c4.55,0 2.06,0.52 4.34,1.06 0.31,0.08 1.15,0.04 1.51,0.04l0.03 2.93 2.9 0c0.13,2.68 1.1,2.97 2.92,3.65 0.39,-0.47 0.57,-0.11 0.65,-0.06 0.07,0.05 0.07,-0.14 0.08,-1.28l0 -0.07 0 -0.01 0 -0.41 0 0.41 0 0.01 0 0.07c-0.01,0.5 -0.05,0.92 -0.08,1.28 -0.17,1.85 -0.36,2.01 2.28,2.99 0.37,-0.45 0.55,-0.14 0.64,-0.07 0.09,0.08 0.08,-0.11 0.09,-1.76l-0.09 1.76 -0.01 0.08c-0.02,0.09 -0.06,0.18 -0.08,0.27 -0.03,0.11 -0.07,0.18 -0.11,0.3 -0.03,0.13 -0.37,0.94 -0.44,1.61 2.31,0 3.61,-0.34 4.47,1.21 0.03,0.04 0.08,0.16 0.1,0.2 0.83,1.66 -1.24,3.33 1.64,3.35l0.09 0 0.09 0 0.09 0 0.1 0 -0.1 0 -0.09 0 -0.09 0c-1.87,0.01 -2.92,0.08 -4.55,0.36l-3.95 0.74 -0.73 -1.83 -10.97 0.06c-0.14,0.47 -0.43,2.48 -0.61,3.8l-0.12 0.89 0.43 0 5.42 0 0 1.1 -2.86 0 0 3.29 33.11 0c0,-1.97 0.08,-5.08 0.24,-6.97 0.1,-1.28 0.19,-0.9 0.11,-1.64 -0.01,-0.11 -0.21,-1.19 -0.23,-1.58 -0.06,-1.18 0.14,-2.44 0.14,-3.71 -0.48,-1.52 0.78,1.34 -0.4,-0.53 -0.8,-1.26 -0.43,-1.17 -0.68,-2.73 -0.26,-1.61 -0.81,-1.5 -0.91,-2.96 -1.99,-0.26 -2.68,-0.72 -4.67,-0.28 0,-2.39 0.29,-6.73 -0.59,-8.82 -0.04,-0.09 -0.09,-0.17 -0.13,-0.27 -0.04,-0.09 -0.09,-0.18 -0.12,-0.28 -0.54,-1.59 0.12,-0.97 -0.58,-2.24l-0.98 -1.59c-0.8,-1.68 -0.68,-1.89 -0.68,-4.23l-2.62 -0.57c0,-1.95 -0.1,-3.52 -0.03,-5.49 0.06,-1.84 -0.43,-3.37 -0.45,-5.43l-2.21 -0.79 -0.7 -5.4c-2.04,-0.44 -6.19,-0.49 -8.13,0.29l-0.49 5.41c-4.19,-0.48 -3.66,0.94 -6.39,1.17 -0.76,0.06 -1.9,0 -2.68,0 0.87,-1.07 0.36,-1.1 2.93,-1.1 -0.49,0.47 -4.06,0.35 -5.12,0.37 0,-5.27 -0.59,-1.48 -1.11,-4.7 -0.01,-0.06 0.01,-1.02 0.01,-1.15 0,0.1 0.03,1.08 0.03,1.11l-0.76 1.73c-0.66,-0.94 -0.73,-1.95 -0.5,-3.19l1.2 -3.33c0.04,-0.08 0.09,-0.18 0.13,-0.26l1.42 -2.5c1.33,-3.02 0.29,0.9 2.17,-3.35l0.27 -0.53c1.11,-1.94 0.87,-1.62 1.32,-4.31 0.9,-0.29 0.17,-0.66 1.1,0.83l0.55 -2.41c0.15,-0.84 -0.04,-0.36 0.26,-1.22 0.78,-2.29 1.01,-2.39 1.01,-6.22 -1.08,-0.55 -1.26,-1.05 -1.62,-2.27 -1.32,-0.32 -2.63,-1.16 -4.1,-1.3 -1.92,-0.19 -3.72,0.15 -5.04,-0.94 1.11,-0.92 -1.38,-0.49 1.84,-0.76 0.37,-0.03 0.74,0.06 1.1,0.13 0.9,0.18 2.68,1.17 2.91,-0.1 -3.04,-0.02 -5.31,0.2 -8.04,0.2 1.28,-0.13 2.03,0.89 2.03,0.89l-0.83 0.55c-0.1,0.07 -0.4,0.23 -0.49,0.29l-0.82 0.56c-2.58,1.88 -2.68,2.52 -4.54,5.26 -0.05,0.06 -0.12,0.14 -0.16,0.21 -0.04,0.06 -0.11,0.15 -0.14,0.21 -0.51,0.92 -0.33,1.18 -0.33,2.43l1.01 0.01 0.04 -2.46c4.56,1.52 3.02,-0.09 3.91,1.35 -0.46,1.61 0.74,0.55 -1.47,0.99 -0.53,0.1 -0.51,-0.2 -1.3,0.11 2.3,0.6 1.15,-0.61 1.83,1.31 -1.93,1.26 -1.53,1.09 -4.59,1.09 -0.45,-0.51 -0.18,0.17 -0.78,-1 -0.53,-1.06 0.11,-1.11 0.2,-1.92 -0.62,0.34 -1.05,0.86 -1.36,1.42 -0.31,0.59 -0.63,1.54 -0.78,2.23 0,0 -1.84,-0.9 -0.73,-2.4 0,2.79 -0.14,2.02 -0.94,4.02l-0.81 0.44c-0.04,0.03 -0.14,0.13 -0.17,0.15 -0.02,0.02 -0.08,0.1 -0.12,0.15l-1.1 -0.74c0.53,1 -0.94,0.25 0,1.26l0.45 0.37c0.06,0.05 0.2,0.12 0.28,0.2 -0.07,0.09 -0.17,0.11 -0.2,0.26l-0.74 1.23c-0.08,0.16 -0.18,0.45 -0.36,0.74 -0.59,0.97 -0.63,0.84 -1.61,0.99l-2.94 0.08c0.21,1.37 1.83,0.27 3.9,0.87 0.03,0.06 0.03,0.18 0.02,0.21 -0.01,0.02 0,0.16 -0.01,0.19 -0.74,1.77 -1.84,-0.22 -4.47,0.79 -0.06,0.03 -0.22,0.2 -0.27,0.13 -0.04,-0.09 -0.17,0.09 -0.26,0.12 -0.08,-0.06 -0.18,-0.14 -0.24,-0.18l-0.44 -0.37c-0.5,-0.41 -0.12,-0.15 -0.59,-0.5 -0.49,-0.36 -0.64,-0.4 -1.17,-0.65 -0.04,-1.09 -0.46,-3.25 0.12,-3.91 0,2.83 0.01,2.37 -0.98,2.81 -1.24,-0.56 -0.36,0.12 -0.86,-0.99 -0.93,-2.08 -0.34,-4.39 -0.14,-6.61 0.24,-2.52 0.07,-2.5 1.27,-3.11 0.9,-0.45 2.35,-0.42 3.03,-0.87 1.65,-1.05 3.29,-7.49 0.64,-7.78l-0.05 -1.73c-0.21,-1.32 -0.32,-0.18 -0.71,-1.47 -0.36,-1.17 -0.22,-1.21 -0.16,-2.46l0.64 -0.1c-0.74,-0.51 -3.66,-0.12 -5.36,-0.12l-0.25 -1.09c-2.04,-0.28 -1.29,0.1 -2.61,-0.78 -1.41,-0.94 -1.79,-0.93 -1.95,-1.7 -0.5,-2.4 -0.68,-1.21 -1.47,-3.31 -0.25,-5.26 0.29,-0.97 -1.52,-4.05 -3.72,-1.37 -2.45,-2 -3.87,-2.21l0 -0.89c1.36,0.39 1.53,0.25 1.9,-1.57l1.27 -6.75c0.1,-0.79 0.09,-1.16 0.34,-1.86l0.25 -0.54c0.04,-0.09 0.1,-0.17 0.13,-0.26 0.97,-2.52 0.63,-13.22 0.08,-15.56 -3.02,0.33 -0.17,0.25 -1.93,1.09 -0.62,-0.46 -2.19,-1.21 -2.78,0.26 -0.72,1.77 1.54,0.24 -0.41,2.3l-0.84 -1.82c-0.5,0.37 -0.73,0.5 -1.24,0.78 -2.49,1.37 0.05,1.05 -4.99,2.41 -1.59,0.43 -2.67,0.41 -3.73,-0.39 -2.67,-2 -1.47,-1.38 -3.95,-1.2 -3.46,0.25 -3.14,-1.6 -4.37,-1.87l-0.73 1.68 -2.56 0 0.02 0.9 -0.88 -0.26 -1.5 -0.04c-1.43,-3.38 -1.16,-1.85 -2.88,-3.26 -0.73,0.78 -0.17,-0.12 -0.81,1.28 -0.06,0.14 -0.13,0.63 -0.17,0.8 -3.83,0.13 0.81,1.16 -5.74,1.33l0.05 4.16zm43.62 86.64c0.49,-2.4 -0.04,-2.32 -0.59,-3.59 -1.86,-4.37 -1.07,-1.4 -1.62,-3.08 -0.42,-1.32 0.11,-2.54 -1.15,-2.98 -0.88,-0.31 -2.03,-0.62 -3.05,-1.02 -0.53,-0.2 -1.03,-0.43 -1.42,-0.69 -0.08,-0.05 -0.15,-0.13 -0.23,-0.18 -1.38,-0.91 -2.63,-0.97 -4.99,-0.95 -12.56,0.09 -8.43,-1.11 -11.35,-2.02l24.4 14.51zm-31.66 -61.63l0.04 -2.34 -0.04 2.34zm-11.87 -17.43l-0.09 -7.58 0.09 7.58zm10.96 -11.85c-0.79,-0.76 -1.61,-1.84 -2.45,-2.67 -0.64,-0.63 -0.96,-0.86 -1.57,-1.34 -0.97,-0.77 -0.69,0.04 -1.05,-1.49 1.23,-0.21 2.46,0.03 2.79,-0.84 -0.84,-0.33 -0.8,0.12 -2.52,-0.45 -0.09,-0.03 -0.18,-0.08 -0.27,-0.11 -1.36,-0.47 -1.39,-0.33 -3.08,-0.33l0.02 -2.77 2.71 -0.84c0.07,-0.03 0.14,-0.1 0.2,-0.14 0.07,-0.03 0.14,-0.11 0.21,-0.15 1.02,-0.58 -0.28,-0.48 1.48,-0.54 0.94,1.24 0.35,2.12 0.73,2.77 0.98,-0.18 0.52,-1.43 0.52,-2.77l2.93 0.05c-1.51,0 -3.03,-0.01 -4.55,0.01 -5.63,0.05 -3.69,0.24 -4.31,-0.95l0.68 -0.33c2.33,-0.81 6.36,0.32 8.18,-0.4 -0.98,-0.38 -2.92,-0.16 -4.18,-0.15 -0.72,0 -1.93,0.08 -2.57,0.04 -0.49,-0.03 -0.62,-0.04 -1.09,-0.16 -0.86,-0.22 -0.41,-0.04 -1.02,-0.46l1.74 -0.76c0.03,0 1.11,0.03 1.27,0.03 -1.5,-0.58 -2.07,0.57 -3.08,-1.1 1.21,-1.99 3.16,0 3.04,-1.46l0.1 -2.72 -2.97 0 -0.18 -2.92c-0.3,0.78 0,1.04 -0.16,1.63 -0.36,1.35 0.22,0.84 -0.93,1.45 -1.57,-0.83 -0.59,0.34 -0.99,-1.79 -0.1,-0.56 0.2,-0.5 -0.23,-1.3l-0.04 2.93c-2.44,-0.11 -3.67,0.16 -6,0.16 0.39,0.74 0.3,0.17 0.31,1.46l2.92 0 0 3.66c2.66,0 2.22,0.21 2.93,1.1 -1.02,0 -2.74,-0.36 -2.93,0.36 0.11,0 1.08,-0.03 1.11,-0.02l1.82 0.75 -1.79 0.76c-0.03,0.01 -1.02,-0.03 -1.14,-0.03l0 1.84c0.88,-1.06 1.6,-1.58 2.93,-1.83l0 -5.13c-1.5,0 -1.69,-0.01 -2.56,-0.73 0.36,-0.87 -0.11,-0.77 0.99,-1.36 2.51,-1.36 1.24,0.12 1.25,0.13 1.34,0.64 -0.08,0.5 3.24,0.5 -0.11,0.44 -0.4,1.03 -0.44,1.16 -0.65,1.88 -0.07,3.08 -0.39,5.43 -0.32,2.36 0.1,3.73 0.1,6.58l-9.92 -0.42 -0.11 -1.21 -1.67 2.32c-0.83,-0.67 -0.84,0.84 -0.63,-0.97l20.62 5.52zm2.6 20.62c-0.25,-0.68 -2.34,0.05 -3.22,0.11 -1.45,0.09 -3.26,0 -4.74,0l0 2.55 -1.52 0.58c0.06,2.5 -0.34,5.03 -0.89,7.1 -0.62,2.32 -1.35,5.94 1.68,6.95l0.18 -1.32c0,-0.06 -0.03,-0.17 -0.04,-0.21 -0.01,-0.08 -0.06,-0.21 -0.14,-0.3l1.46 0c0.3,0.83 0.28,0.02 0,1.59l1.58 -0.05 5.65 -17zm50.9 67.36l0.14 8.92 -3.41 0.2 3.27 -9.12zm-4.1 19.93c0.6,-1.07 0.57,-0.6 0.61,-2.21l2.74 -0.12 -0.01 0.04 -3.34 2.29zm15.52 18.14l2.93 0 -2.93 0zm-48.85 -67.1l-0.15 5.78 0.15 -5.78zm16.88 37.06l0.4 14.27 -0.4 -14.27zm14.57 -1.95l0.25 -3.49c0.95,-0.63 0.6,-0.02 1.64,-0.81 0.86,-0.65 0.74,-0.82 1.21,-1.65l2.88 -0.13 -5.98 6.08zm5.21 11.67c-0.29,1.63 -0.96,1.95 -2,4.63 -0.03,0.09 -0.07,0.18 -0.11,0.26 -0.03,0.1 -0.08,0.18 -0.12,0.28 -0.99,2.43 -0.6,2.86 -0.6,6.01l1.88 0.71c0.47,0.33 0.33,0.35 0.64,1.11l0.92 -0.77c2.46,-2.04 4.05,0.03 6.15,0.45l-0.1 3.58c-2.09,0.46 -1.47,0.01 -1.89,1.4l-4.77 -17.66zm-98.68 -53c2.06,0.76 3.95,0.97 5.88,-0.19l-0.22 -10.97c-1.93,-0.95 -3.71,-1.13 -5.62,-0.18l-0.2 7.49 0.16 3.85zm-29.3 -93.08l-0.02 -1.64c1.63,0 4.09,-0.04 5.51,0.39 3.66,1.11 1.04,0.23 4.57,0.84l-0.02 6.28 -6.71 -0.44c-0.83,-1.51 -0.35,-1.59 -1.87,-2.55l0.52 -0.23c1.22,-0.68 0.59,0 0.89,-0.61l-2.72 0.18 -0.15 -2.22z"/>
   </g>
   <path class="fil3" d="M31.33 138.61l0.44 0.13c1.51,-12.55 0.16,-51.16 0.53,-65.6 0.14,-5.54 0.58,-16 -0.05,-20.84l3.63 -1.51c1.42,0.68 1.38,1.22 3.62,1.12 2.62,-0.76 3.38,-0.04 5.85,-0.03 3.07,0.01 3.07,-0.99 6.58,-0.34 1.99,0.83 4.54,-0.28 6.52,0.01 1.84,0.27 0.85,0.91 3.13,-0.2 1.44,-0.7 1.29,-0.96 3.2,-0.43 2.13,0.77 2.71,0.2 4.87,0.44 3.06,0.33 1.83,1.16 4.22,-0.73 3.8,1.34 5.1,0.77 8.93,0.26 0.77,-0.1 4.48,0.36 7.17,0.19 1.58,-0.1 1.44,-0.21 1.9,-0.61 -2.16,-1.81 -14.69,-0.63 -15.67,-0.74 -5.9,-0.64 -3.97,0.44 -6.72,0.37 -1.54,-0.03 -3.33,-1.42 -9.52,-0.44l-28.44 0.76c-0.78,0.69 -0.69,4.32 -0.65,5.34 0.32,8.77 -0.49,19.58 0.05,28.79 0.2,3.43 -0.1,7.19 0.04,9.98l-0.12 32.58c-0.17,1.85 -0.08,3.84 -0.31,5.88 -0.24,2.17 -0.46,4 0.8,5.62zm158.5 -88.09l-0.82 0.23c-0.05,1 -0.09,0.05 0.36,0.45l1.53 0.81 1.47 0.04c-0.36,-1.65 -0.02,-1.15 -1.83,-1.65l-0.71 0.12zm-41 1.37l0.77 -0.05c3.72,2.04 5.59,-0.74 8.4,-0.64 -1.85,-3.5 -5.79,-0.63 -8.33,0.15l-0.56 0c-1.44,-0.79 -2.9,-1.3 -4.45,0.01 1.33,1.37 2.31,1.31 4.17,0.53zm9.49 -0.7c3.66,1.44 4.64,0.58 8.58,0.41 -2.02,-1.65 -6.17,-1.78 -8.58,-0.41zm101.2 -0.87c0.45,0.48 0.06,0.28 0.98,0.79l3.52 1.55c1.51,0.64 3.24,1.48 4.69,2.06 -2.04,-7.37 -5.98,-4.62 -9.19,-4.4zm65.6 1.26c4.71,-0.82 8.46,0.07 13.15,0.25 4.69,0.17 9.6,-0.67 13.91,-0.35 3.08,1.19 6.75,-0.08 9.88,-0.58l19.76 0.51c1.25,0.06 1.94,0.25 3.02,0.38 1.47,0.17 1.93,-0.11 3.2,-0.1 1.96,-1.99 5.53,-0.42 11.31,-0.28 6.16,0.15 14.96,-0.82 18.06,-0.43 2.19,0.28 4.31,0.24 6.51,0.18 3.52,-0.1 9.28,0.23 12.46,-0.54 -1.38,-1.4 -31.59,-1.47 -35.19,-0.92 -3.48,0.41 -5.31,-0.43 -8.3,-0.15l-15.79 0.51c-4.62,-0.52 -16.11,-1.32 -20.62,-0.35 -2.04,0.44 -1.48,-0.15 -3.56,-0.14 -3.61,0.02 0.14,0.67 -7.41,0 -1.74,-0.15 -2.45,0.07 -4.02,0.13 -1.15,0.04 -2.39,-0.28 -3.92,-0.31 -2.69,-0.05 -5.39,0.16 -8.05,0.35 -3.47,0.25 -5.46,0.01 -8.8,-0.16 -5.52,-0.27 -17.34,0.59 -24.49,0.65 -2.95,0.03 -5.83,-0.39 -8.78,-0.32 -2.48,0.05 -6.87,-0.12 -7.4,1.22 -0.49,1.23 0.59,2.17 1.57,2.26 1.47,0.13 1.96,-0.99 2.91,-1.48 4.23,0.4 6.28,-1.1 9.51,-1.18 3.16,-0.08 0.97,1.5 9.87,1.08 7.51,-0.35 12.29,0.4 21.21,-0.23zm-122.28 0.26c0.92,-0.05 1.75,-0.19 2.68,-0.3 1.31,-0.16 1.67,-0.01 2.67,-0.75 -0.97,-0.36 -1.69,-1 -3.15,-0.86 -1.33,0.67 -1.69,1.06 -2.2,1.91zm15.47 -0.64c0.48,0.38 5.42,3.11 5.56,-0.37 -1.7,-1.31 -3.76,-1 -5.56,0.37z"/>
   <g>
    <path class="fil4" d="M491.41 491.41l6.08 0 -0.01 6.07 -6.07 0 0 -6.07zm-26.79 -85.09c1.03,1.12 1.15,0.66 1.69,2.18 -1.92,2.26 -2.85,0.86 -4.89,3.84 -0.94,1.21 -0.06,3.17 0.68,4.75 1.08,2.29 1.04,2.25 0.63,5.36 -0.5,3.82 -1.01,7.61 -1.51,11.35 -1.91,14.55 4.97,22.93 1.89,34.05 -0.92,3.31 -2.99,5.92 -3.48,9.41 -1.12,8.02 7.07,5.4 3.75,14.28 -0.34,0.91 -0.69,1.44 -1.12,2.18l-0.8 1.35c-0.43,0.53 -0.25,0.29 -0.42,0.39 -1.16,0.24 -0.97,-1.03 -0.97,0.45 -1.4,0.91 -0.48,0.19 -1.26,1.62l-1.32 -1.75c-0.64,-0.88 -0.01,-0.46 -0.77,-0.6 -1.03,2.7 -0.29,1.08 0.06,3.29 0.63,-0.52 0.86,-0.57 1.62,-0.89l1.67 4.18c-0.75,0.23 -0.84,0.94 -2.79,0.58 -0.07,-0.01 -0.22,0 -0.26,-0.1 -0.04,-0.1 -0.17,-0.07 -0.24,-0.12 -0.01,0.75 0.96,1.29 0.97,1.27 0.04,-0.08 0.2,0.12 0.28,0.2 -0.29,1.55 -1.12,2.63 -0.37,4.27 1.05,2.29 1.01,0.01 2.77,-0.98 0.64,1.61 -0.42,0.37 0.44,1.41 1.03,1.26 -0.31,0.79 1.62,0.89l1.26 2.82 48.25 0c0,-94.56 0,-189.12 0,-283.69l0 -6.06c0,-132.66 -27.46,39.08 -32.11,-65.38 0.69,-0.31 0.74,-0.56 1.48,-0.72 1.12,-0.24 1.26,-0.24 1.78,0.4l0.55 0.77 0.57 -0.8c-0.85,-1.78 -0.28,0.5 0.29,-0.87 0.66,-1.56 -0.2,-1.87 -0.35,-2.05 -3.56,0.58 -0.2,0.24 -1.82,1.64 -0.32,0.27 -0.34,0.3 -0.86,0.26 -1.18,-0.11 -0.5,0.04 -0.98,-0.44 0.66,-1.5 -0.12,-0.15 0.86,-0.95 0.08,-0.06 0.17,-0.1 0.25,-0.16 3.07,-2.35 -0.7,-0.17 2.32,-2.21 0.09,-0.06 0.34,-0.24 0.43,-0.29l0.4 -0.22c0.05,-0.01 0.15,-0.04 0.2,-0.05l0.74 0c0.07,-0.01 0.2,0 0.26,-0.02 1.52,-0.59 0.67,-0.67 0.03,-2.31l-2.38 0.81 -2.14 0.98c-1.89,0.59 -7.78,3.48 -8.61,4.56l-1.5 -0.04c-5.41,-0.88 -8.5,4.08 -9.87,8.38 -1.36,1.56 -1.32,1.66 -0.39,3.96 0.75,3.84 2.17,6.97 2,10.99 -0.18,4.22 -9.18,8.18 -0.46,11.5l0.28 1.28c0.85,0.45 1.79,2.83 1.97,3.19 0.59,6.67 -4.59,4.7 -6.77,8.15 -0.19,2.11 1.21,3.2 2.13,4.28l0.28 -0.01 1.97 2.76c0.61,1.03 0.72,2.1 1.67,2.84 0.6,2.9 2.24,6.05 1.23,9.15 -0.4,2.18 -1.43,3.81 -1.83,6.43 -0.45,2.93 -0.21,5.37 0.09,8.19 0.8,2.13 2.8,11.04 3.1,13.52 0.53,4.48 -1.48,9.79 -2.56,14.05 -1.9,7.45 -0.11,7.27 1.4,13.33 1.53,6.16 -0.37,8.33 -1.35,13.51 -1.32,2.56 -3.18,2.51 -2.6,6.58l4.59 1.6c-0.89,7.53 -0.97,12.36 -0.34,20.06 0.83,10.25 -1.8,16.81 -0.92,19.45 1.01,0.09 -0.36,-0.93 0.35,0.1 0.01,0.02 0.07,0.13 0.08,0.15 0.01,0.02 0.02,0.12 0.03,0.19 2.86,1.41 2.25,1.86 3.8,2.6 -0.56,2.56 -0.41,2.04 -2.18,3.56 -2.06,1.77 -4.13,2.39 -4.5,4.7 -0.33,2.03 -0.9,7.54 1.39,8.83 0.7,0.39 0.5,0.22 1.36,0.45l1.75 0.57c-3.69,5.12 -2.41,10.66 -2.22,16.91 -1.69,1.22 -1.1,0.88 -2.22,2.84 -0.64,4.26 0.44,8.53 0.1,12.81 -0.15,1.96 -0.54,3.89 -0.7,5.83 -0.19,2.33 0.37,3.59 0.45,5.54l0.59 0.95 1.08 1.35 0.43 0.59zm22.9 -331.6l0.13 1.04c-0.47,0.27 -1.26,0.73 -1.71,0.94 -0.89,0.6 -0.19,-0.01 -0.93,0.83 -0.83,0.91 -1.03,-1.44 -0.59,1.76 1.48,0.71 0.94,-0.09 2.3,1 0.48,0.38 -0.08,0.36 0.78,0.65l-0.06 -1.88c2.19,-0.48 0.19,-0.33 2.25,-0.03 -0.15,1.69 -0.73,1.64 0.37,2.65 0.64,-0.61 0.37,-0.74 0.36,-2.68l1.41 0.55c0.3,-0.28 0.62,-0.63 0.88,-0.92l-1.17 -0.73c-1.62,-1.77 -0.19,-2.31 -0.18,-2.32 0.09,-0.08 0.64,0.06 1.11,-0.84l0.19 -1.25c1.16,-0.59 2.88,-1.23 4.24,-1.74 0.26,0.41 0.36,0.65 0.56,1.43 0.63,1.05 0.74,1.33 2.33,0.99 0.58,-0.13 0.45,-0.52 1.56,-0.33 1.03,0.17 0.99,0.67 1.25,1.23 -0.82,0.29 -0.21,-0.62 -0.74,0.62l-0.23 -0.05 -1.19 -0.01c-1.24,-0.08 -1.9,-0.58 -2.06,0.83 -0.27,2.42 0.14,0.86 0.48,1.4 -0.03,0.81 0.19,0.55 0.78,0.92l0.7 0.12c-0.65,1.67 -1.4,2.08 -3.53,2.2 -0.18,-0.1 -0.69,-0.49 -1.22,-0.46 -1.48,0.08 -0.58,0.21 -0.95,0.48l-0.56 0.05c-0.15,0.08 -0.46,0.26 -0.69,0.42l-0.78 0.55c-0.03,0.02 -0.13,0.09 -0.19,0.12 -0.85,0.32 -0.35,0.03 -1.14,0.55 -1.03,0.69 -0.35,-0.02 -0.9,0.89 -0.32,1.02 -0.56,1.81 -1.06,2.58 -0.12,0.19 -0.73,1.02 -0.78,1.08 -0.71,0.91 -0.25,0.67 -0.99,0.9 -1.16,0.42 -0.93,-0.33 -1.99,2.03 -0.33,0.73 -0.33,0.64 -0.45,0.83l-1 1.16 0.54 3.58c0.64,0.45 0.36,0.09 0.69,0.78 0.29,0.63 0.37,1.21 0.57,1.72 2.59,0.14 1.48,1.31 3.74,1.26l1.11 -0.03c-0.55,0.89 -0.51,0.67 -0.84,1.64l-1.29 0.05 -2.09 -0.16 -0.27 1.16c-0.32,1.22 0.2,0.42 -1.18,1.45 -0.68,0.51 -0.75,0.44 -1.05,1.35l-1.29 -0.06c-0.47,-0.61 -0.25,0.37 -0.2,-0.73 0.09,-2.13 1.17,-1.83 1.4,-1.97l1.01 -0.77c0.04,-0.15 0.17,-0.15 0.22,-0.25 -2.46,-3.47 -4.56,2.21 -4.54,2.88l0.93 6.24c0.01,0.03 0.09,0.11 0.11,0.14l0.28 0.24 -1.42 0.35 0.01 -0.12c-0.06,-1.75 -0.19,-1.14 -0.45,-2.45 -0.22,-1.09 -0.06,-0.98 -0.25,-1.91l-3.33 -0.01c0.63,1.13 2.71,0.67 3.39,2.32 -0.07,0.07 -0.2,0.04 -0.24,0.16 -0.06,0.15 -2.57,0.88 -3.19,2.08 -0.49,0.94 -0.15,0.88 -0.49,1.42 -0.14,-0.7 0.15,-0.16 -0.56,-0.36l-0.39 1.57 0.76 -0.11 0 1.46c0.69,0.51 0.08,0.24 1.03,0.49 1.73,0.44 0.52,-0.04 0.43,-0.12l0.78 1.8c-0.32,0.16 -1.39,0.68 -1.63,0.86 -1.11,0.85 -0.9,1.2 -1.27,2.45 -1.55,-1.6 -0.55,-1.22 -1.38,-0.73 0.03,2.69 0.1,0.81 1.19,2.02 1.32,1.49 0.46,2.62 0.02,3.64l-1.03 3.1 0.29 1.65c0.07,-0.14 0.15,-0.82 0.2,-0.85 0.78,-0.43 -0.88,-0.9 0.63,0.2 0.07,-0.03 0.2,-0.21 0.21,-0.11 0,0.06 0.12,0.03 0.13,0.04 0,0.04 0.01,0.22 0.01,0.25 0.01,0.06 -0.05,0.27 -0.06,0.4 -0.63,2.94 -0.84,0.63 -0.25,2.05l-0.62 2.97c1.12,1.04 0.45,1.4 0.17,1.98 -0.42,0.84 -1.45,-0.19 -0.54,2.36 0.76,-1.52 0.83,-0.31 0.88,-2.24l0.08 -1.36c2.17,-0.4 0.26,0.44 0.63,-0.12l0.64 -1.35c-0.37,2.6 0.16,2.36 0.86,2.88 0.09,0.35 0.24,0.64 0.48,0.78l0.26 2.28 -0.27 1.81 0.13 -0.03c0.74,-0.17 1.2,-0.26 1.87,-0.6l0.25 -0.13c0.94,-0.51 0.52,-0.4 0.63,-0.8l-0.31 -0.31c-0.01,0 -0.03,0.13 -0.03,0.12l-0.01 0c0,-0.06 -0.01,0.11 0.03,0.17l-0.02 -0.17 -0.03 -0.26 -0.2 -1.71c-0.78,0.45 -1.09,0.4 -1.18,0.38 -0.05,-0.01 -0.03,-0.02 0.02,0.09 0.06,0.11 0.14,0.34 0.21,0.82l-0.21 -0.82 -0.02 -0.09 -0.1 -0.41 -0.86 -0.21c0.68,-2.62 0.45,-1.13 1.43,-2.81l-0.91 0.05 0.22 -0.91c-1.65,0.34 -0.29,0.18 -0.75,-0.48 0.38,-0.73 0.05,-0.47 0.74,-0.93 0.23,-0.15 1.12,-0.45 1.34,-0.54 0.48,-0.36 0.31,-0.22 0.79,-0.64l0.55 -0.08 0.16 -0.18 0.31 0.35 1.39 0.17c1.31,0.78 0.31,0.05 1.25,0.98 0.42,-0.99 0.44,-0.65 0.72,-0.87l-0.23 -0.58 -0.62 -1.28 1.8 -0.83 -0.08 1.63 0.72 -0.03 0.1 -0.25c0.4,0.53 0.45,0.65 0.72,1.19l0.01 1.15 0.75 0.24 1.37 -0.15 0.48 -0.23 0.1 0.31 2.05 0.44c-1.06,0.26 -0.33,-0.44 -1.1,0.54l0 1.1 1.03 -0.39 0.47 1.45 0.94 0.2 -0.61 -2.04 0.7 -0.68c1.45,1.79 -0.37,0.44 2.59,2.87l0.38 -3.09c0.18,-1.38 -0.16,-2.22 -1.11,-3.32l-4.38 0.56c-1.37,0 -1.23,0 -2.2,-0.37 -0.01,-0.12 -0.1,-0.98 -0.1,-1.1 0.04,-1.21 0.36,-2.55 1.31,-3.28l0.06 3.34c2.19,0.55 4.39,0.05 6.02,-0.79 1.7,-1.33 2.71,-1.15 2.43,-3.85l0.93 0.48c-1.08,0.66 -0.29,-2.33 2.15,-0.61 0.62,-0.98 0.15,-0.45 0.87,-0.77 -1.16,-1.55 -0.11,-0.55 -0.27,-3.29l-0.88 1.45 -0.5 -0.35c0.05,-1.62 -0.95,-2.86 -1.74,-3.75l-2.49 0.19 -0.12 -1.1c0.18,-1.5 0.48,-0.09 -0.23,-1.93 -0.81,-0.49 -1.64,-0.5 -2.14,0.22 -0.68,0.98 -0.52,2.17 -0.91,3.47l-0.2 0.06 -2.15 -0.18c-1.32,0.86 -0.31,-0.41 -0.89,1.18l-0.42 5.13c-2.65,0 -0.71,0.16 -1.46,-0.73 0.52,-0.72 -0.02,-0.91 0.02,-2.17 0.09,-2.24 0.1,-0.75 0.61,-2.32 0.67,-2.11 -0.23,-1.45 0.67,-3.57 0.02,-0.03 0.09,-0.09 0.11,-0.18 0.01,-0.09 0.09,-0.11 0.1,-0.17 -1.42,-0.01 -1.36,-0.82 -2.01,-1.16 0.77,-1.11 0.85,-0.79 1.62,-2.13 1.11,0.59 0.26,-1.62 -0.36,-2.24 -1.08,-1.07 -1.29,-0.57 -1.62,-2.34l0.13 -1.92c1.03,-0.23 0.98,0.15 1.45,0.74 0.23,0.28 0.12,0.5 0.7,0.67 0.03,0.01 0.13,0 0.16,0.01 0.02,0 0.13,-0.02 0.15,-0.02l0.46 -0.03c-0.05,-1.52 -0.16,-1.6 -0.36,-2.84 0,0 0.55,-0.3 0.56,-0.3 1.01,-0.45 0.24,-0.15 0.95,-0.33 2.61,0.34 2.76,-0.44 2.52,-2.82l-0.05 -0.47c1.07,-0.7 1.22,-1 1.57,-2.28l0.43 -0.2 1.17 -0.4c-0.32,-2.72 -1.08,-1.4 -0.52,-5.04l0.07 -0.01c1.21,0.57 -0.7,0.74 0.69,0l0.65 -0.58c0.86,0.7 0.67,0.72 1.87,0.91l-1.82 -2.82 1.44 -1.07c0.93,1.23 -0.54,0.58 2.17,3.12 0.07,-0.1 0.21,-0.37 0.22,-0.3l0.14 -0.94 -0.03 -0.2c0.4,1.02 0.73,1.81 1.83,2.38l0.58 0.73c0.27,0.66 0.03,0.49 0.54,1.07 0.82,0.93 0.57,0.46 1.27,0.77 0.73,-0.88 0.56,-0.55 1.11,-1.51l0.92 -0.02c0.61,0.19 0.6,0.75 0.37,-0.15 1.35,-0.06 2.41,-0.16 3.29,-0.52l0 -9.36 0 -0.31 0 -3.26 0 -0.76 -0.77 0.04 -0.47 -0.27c0.61,-1.43 0.49,-0.2 0.87,-1.51 -0.83,-0.58 1.13,-1.2 -1.09,-0.37l-0.28 1.61 -0.38 -0.23 -0.13 -2.19c0.23,-0.37 0.39,-0.63 0.68,-1.01 -0.79,-0.29 -0.64,-0.1 -1.24,-0.71l0.02 -0.73c0.78,-1.28 0.47,-2.33 0.02,-3.24l-0.89 -1.11c-1.15,-0.01 -1.18,0.13 -1.93,0.69l-0.06 0.01 -0.99 -0.06 -2.65 -0.17 -1.64 -1.69 0.02 -1.34 0.98 -0.13 0.33 0.03c0,0.11 0.08,0.03 0.47,0.03 0.55,-0.08 0.31,0.07 0.86,-0.23 0.77,-0.42 0.07,0.04 0.59,-0.67 0.56,-0.97 0.29,-2.6 0.54,-3.79 0.37,-1.73 1.31,-0.69 1.4,-2.62l0.42 -2.56c-0.68,-0.32 -0.12,-0.42 -1.99,0 -0.91,-0.76 -0.4,-0.05 -0.68,-1.25l-1.02 0.73 1.15 -0.83 -0.06 -0.19c0.48,-0.31 0.22,-0.09 0.79,-0.29l0.52 -0.26c0.9,-0.86 0.37,-1.35 1.46,-1.2l0.57 0.09c1.56,0.37 -0.32,0.18 0.64,0.27 0.5,-1.52 -0.06,-1.83 0.04,-2.57 0.24,-1.65 0.63,-0.55 1.34,-1.45 1.52,-0.22 0.89,0.26 1.25,-1.04l1.31 0.31 0 -0.83 0 -4.26 0 -1.37 0 -1.34 0 -0.61 0 -1.46 0 -0.62 0 -5.74 0 -4.43 0 -1.85 0 -0.96 0 -2.51c-0.55,-0.09 -1.37,-0.41 -1.82,-0.03 -0.86,0.74 -0.1,0.17 -0.05,0.53l0.37 1.7 -1.47 0.21 -0.42 0.06 -0.13 0.02c0.07,0.08 0.15,0.13 0.19,0.24 -1.23,-0.3 -1.4,-0.52 -2.58,0.04 -0.56,0.25 -0.26,0.08 -0.65,0.53 -0.68,0.56 -0.93,0.58 -1.5,1.08l-1.24 1.38c-0.53,0.07 -0.96,-0.11 -1.49,0.86 -0.36,0.65 -0.18,3.07 -0.18,3.95 -1.26,-0.23 -0.78,0.84 -1.12,-1.43l-0.9 1.11c1.87,0 0.19,-0.15 0.92,0.73 -0.4,1.03 -0.13,0.47 -0.69,1.46 -1.15,2.04 -2.23,1.95 -1.14,2.93 0.75,-0.36 0.38,-0.5 1.83,-2.18 0.04,-0.05 0.1,-0.13 0.14,-0.18 1.36,-1.59 -1.16,-0.79 2.05,-1.29 -0.02,0.12 -0.2,0.88 -0.23,1l-0.18 0.88c-0.03,0.13 -0.06,0.27 -0.09,0.4 -0.21,0.72 0.09,-0.02 -0.45,0.79 -0.54,0.81 -0.22,0.09 -0.59,0.85 -0.37,0.77 -0.38,1.5 -0.44,2.35 1,0.77 1.28,1.01 0.97,2.21 -1.26,0.56 -1.01,0.24 -1.64,1.38 -0.24,0.53 -0.35,0.93 -0.59,1.4 -1.19,0.72 -1.94,1.26 -2.11,2.72 -0.8,1.54 0.27,0.79 -1.04,1.31 0,1.47 -0.19,-0.05 0.61,0.59 -0.71,0.45 -0.37,0.03 -0.53,0.91l-0.42 1.66 -0.11 -0.36c-1.01,0.74 -0.51,-0.17 -0.74,1.34 -0.31,2.11 1.47,1.09 0.27,3.24 -1.65,-0.73 -0.6,0.9 -1.35,-1.36 -0.13,-0.39 -0.06,-1.75 -0.12,-2.24l-0.72 0.67c-0.36,1.27 0.28,1.23 0.73,2.2 -1.01,2.66 -0.71,2 -0.35,3.4 0.04,0.14 0.31,1.09 0.35,1.68 -2.67,0.76 -0.83,0.35 -2.79,1.5 1.01,0.57 1.23,-0.12 1.9,0.66 0.24,0.27 0.75,-0.66 -0.03,1.08 -0.02,0.03 -0.1,0.11 -0.11,0.14 -0.01,0.02 -0.08,0.09 -0.09,0.11l0.39 1.03c-0.11,0.06 -0.28,-0.01 -0.34,0.13l-2.08 0.61c0.04,0.16 0.14,-0.12 0.04,0.37 -0.11,0.49 -0.33,0.7 -0.55,0.99 -0.42,0.31 -0.26,0.14 -0.74,0.65 -0.01,0.01 -0.06,0.09 -0.07,0.1l0.08 -0.02c-1,-0.38 -0.04,0.38 -0.7,-0.55 -0.48,-0.68 0.23,-0.62 -1.41,-1.21 -1.71,-0.62 -1.77,-0.52 -2.84,0.3 0.58,0.6 -1.63,2.42 2.42,4.39 0.54,0.17 -0.17,-0.43 0.45,0.27 0.21,0.24 0.39,0.59 0.64,0.94zm14.55 -6.76l0.33 -0.3c0,0.18 -0.01,0.27 0,0.33l-0.33 -0.03zm1.42 81.47l0.84 0.22 -0.16 -0.45 -0.2 -0.53 -0.22 0.52 -4.29 -1.2c-0.1,0.08 -0.27,0.03 -0.35,0.19l-1.08 0.38c-0.13,0.03 -0.22,0.01 -0.36,0.04 -1.3,0.3 -0.63,-1.56 -1.38,0.92 -0.18,0.59 -0.09,1.73 0.23,2.21 0.78,1.21 0.03,0.23 1.65,0.77 -0.16,0.4 -0.81,0.53 0.05,2.2l-0.05 -2.16 1.8 0.38c0.13,0.01 0.25,-0.01 0.35,-0.01 0.1,0 0.23,-0.02 0.34,-0.04 -0.09,-3.23 1.67,-2.35 2.83,-3.44zm6.42 -2.57l0 0.02 0 -0.02zm0.66 0.65l0.04 -0.01 -0.04 0.01zm-27.46 -15.14l0.1 -0.2 -0.1 0.2zm6.99 0.97l1.61 -0.01 0.91 -0.01 -2.52 0.02zm19.05 -0.22c0.11,0.06 0.63,0.3 0.66,0.32 0.62,0.51 0.4,0.29 0.81,0.95 -0.06,0.01 -0.81,0.04 -0.91,0.08l-0.82 0.55 1.91 -0.41 0.1 1.62 0.94 0.03 0.16 -0.58 0 -2.36 0 -2.5 0 -1.42 0 -5.06 -0.34 0.04c-0.4,-0.62 0.61,-0.31 -0.76,-0.56 -0.06,0.1 -0.25,0.75 -1.18,0.89 2.34,0 -0.17,-0.29 0.82,0.64 -2.28,0.3 -1.44,0.96 -3.42,1.58l-1.59 1.58c-1.09,0.74 -0.92,1.07 -1.38,2.05l1.88 2.13 1.48 -0.06 2.66 0.08 -1.02 0.41zm-12.39 -39.93l0.59 -3.02 1.44 -1.32 -1.14 1.05 -0.89 3.29zm-0.72 -36.03c0.26,-0.33 0.24,-0.36 0.64,-0.48 2.76,-0.62 2.52,-0.13 2.68,2.08 -0.19,1.04 0.41,0.03 -0.43,1.14 -0.49,0.34 -0.41,0.2 -0.93,0.49 -0.19,-2.09 -0.4,-1.32 -2.02,-2.27l0.06 -0.96zm-15.54 89.86l-0.01 0 0 0 0 -0.04 0 0 0 -0.04 0 0 -0.01 -0.03 0 -0.01 0 -0.03 0 -0.01 0 -0.02 0 -0.01 0 -0.03 0 0 -0.01 -0.03 0 0 0 -0.02 0 -0.01 0 -0.02 0 -0.01 0 -0.02 0 0 0 -0.02 0 -0.01 0 -0.01 0 -0.11 0 0 0 -0.01 0 -0.03 0 -0.01 0 -0.03 0 0 0 0 0 -0.01 0 0 0 0 0 -0.01 0 0 0 0 0 0 0 -0.01 0 0 0 0 0 0 0 -0.01 0 0 0 0 0 0 -0.01 0 0 -0.01 0 0 0 0 0 0 0 0 0 0 0 -0.01 -0.01 0 0 0 -0.01 -0.01 0 0 0 0 0 0 -0.01 -0.01 0 0 0 0 0 0 -0.01 -0.01 0 0 0 0 -0.02 -0.02 -0.01 0 0 0 -0.01 -0.01 0 0 -0.01 -0.01 0 0 -0.01 -0.01 0 0 -0.01 -0.01 0 0 -0.02 -0.01 0 0 -0.01 -0.01 0 0 -0.01 -0.01 0 -0.01 -0.02 -0.01 0 0 -0.01 -0.01 -0.01 -0.01 -0.01 -0.01 0 0 -0.02 -0.02 -0.02 -0.02 0 0 -0.02 -0.02 0 0 -0.02 -0.02c-1.5,0.24 -1.12,-0.66 -0.95,0.87 0.73,0.25 -1.08,1.03 1.27,0l0 0 0 0 0 0.01 -0.6 1.17 -1.34 -0.11 -0.17 -1.74c-0.39,-1.03 0,-0.48 -0.66,-1.17 -0.95,0.47 -0.47,-0.27 -0.87,0.86 -1.75,1.36 -0.88,4.95 2.53,4.39 1.32,-0.22 -0.28,-0.4 1.24,-0.31 1.02,0.06 0.47,-0.25 0.89,0.52l-1.02 -3.62zm31.5 12.07l0 -1.45 0 -2 0 -1.19 0 -0.48 0 -3.9 0 -1.07 0 -3.79 0 -1.14 0 -4.71 0 -1.3 0 -2.38 0 23.41zm-2.85 -25.97c-1.95,-0.11 -1.22,0.49 -4.1,-0.36 0.99,2.61 1.22,1.48 2.18,2.71 0.02,0.02 0.07,0.11 0.09,0.14 0.03,0.05 0.27,0.42 0.29,0.44 -0.29,0.16 -0.52,-0.19 -1.25,0.43l-0.45 0.52c2.24,-0.49 2.29,-0.71 3.2,0.23 1.03,0.86 -0.94,-0.53 0.54,0.27 0.85,0.45 0.41,0.04 0.82,0.55l-0.23 1.43 1.06 0.21 0.33 1.15 -0.4 0.33c-1.59,0.36 -0.68,0.11 -1.35,0.73 -0.26,1.47 -0.07,1.6 0.22,2.13l0.19 0.55 -1.5 0.82c0.76,0.89 1.03,1.31 1.12,1.48l-0.76 -13.76zm0.76 13.74c-1.28,0.97 -1.9,0.16 -5.88,0.16 -0.81,2.68 -0.35,0.76 0.16,1.23l-0.22 0.42 5.94 -1.81zm-10.45 1.13l-7.21 -0.28 -0.83 0.12c0.48,-0.94 1.63,-2.3 0.73,-3.02l0.1 -0.73c-0.73,0.03 -1.02,0.1 -1.2,0.08 -0.24,-0.04 -0.23,-0.27 -0.94,-1.12 0.57,-0.38 0.79,-0.47 1,-0.75 0.14,-0.2 0.28,-0.48 0.51,-1.02 0.3,-0.7 0.49,-1.54 0.69,-2.15l-0.88 1.07 -0.89 1.08c-0.05,0.07 -0.11,0.17 -0.16,0.24l-0.64 0.7 0.03 1.12 0.05 1.26c-0.67,0.54 -0.48,0.26 -1.09,0.73l-0.79 0.74 -0.12 0.11 -0.01 0.01c-0.24,0.34 -0.36,0.33 -0.62,0.49l-0.39 -0.44 -0.04 -0.05 -2.18 0.09 -0.58 0.02 -0.22 -0.85 0.54 -0.57 0.77 -0.83 0.5 -0.24 0 -0.6 -1.36 -0.56 -0.72 0.03c-0.07,0.1 -0.16,0.13 -0.2,0.3 -0.04,0.16 -0.15,0.22 -0.2,0.28 -0.72,0.92 -0.8,0.73 -1.17,2.01 -0.57,0.39 -0.06,0.41 -0.52,-0.16 -0.12,0.79 0.29,1 0.29,0.99 0.03,-0.08 0.18,0.19 0.27,0.29l-1.07 0 -0.41 0.68 0 -0.04 18.96 0.97zm-9.84 -14.42l-0.13 -0.49 -0.08 -0.27 0.21 0.76zm5.37 23.12l-0.03 0 0.03 0 0 0 0 0zm11.16 2.48l0 0.05c0.44,0.66 0.47,0.76 0.79,1.38 -1.94,4.42 -4.66,2.78 -6.13,-1.06l1.13 -0.54c1.99,0.65 2.15,0.09 4.21,0.17zm-21.52 -12.89l0 0.01 0 -0.01zm25.94 1.23c-0.88,-1.16 -0.88,0.78 -0.39,-1.87l1.67 0.65c-0.58,1.17 -0.07,0.8 -1.28,1.22zm-15.58 9.18l0 0 0 0zm15.8 2.71l-1.7 0.25 -0.26 -1.06c1.25,-0.61 0.56,-0.64 2.02,-0.49l-0.06 1.3zm-2.67 -98.6c-0.32,1.91 -0.27,0.31 0.84,0.98 0.04,-0.02 0.13,-0.07 0.14,-0.03l1.57 -1.78c-0.87,-0.86 0.47,-0.57 -0.72,0.01 -0.68,-0.76 0.75,-0.68 -1.24,-0.66l-0.59 1.48zm-21.35 -50.78c0.76,-0.69 1.29,-1.3 0.73,-2.64 -0.04,0.02 -0.94,-0.39 -0.92,1.81 0.01,0.6 0.11,0.63 0.19,0.83zm12.16 49.88l0.03 0.85c0.18,1.56 -0.01,-0.06 0.61,0.38 -0.52,0.84 -0.24,0.55 -0.92,1.21 -0.22,0.22 -0.37,0.33 -0.58,0.5 -0.46,0.36 -0.34,0.23 -0.66,0.45l1.52 -3.39zm0.64 1.23l0.12 -1.11c0.66,-0.51 0.69,-0.16 1.27,-1.23l-0.73 -0.28 -0.33 -2.09c1.26,0.8 -0.47,-0.9 0.58,0.41 0.06,0.07 0.17,0.19 0.23,0.27l1.34 -0.29 -0.59 2.6 1.23 0.32 0.12 -0.07c-0.49,1.4 -0.04,1.1 -1.53,1.7l-0.53 -1.07 -0.99 0.68 -0.19 0.16zm-13.72 -7.65c-0.3,1.43 0.43,0.69 1.96,1.6l0.97 -0.79c0.3,-0.37 0.43,-0.86 0.71,-1.26l0.3 -1 0.97 -0.36c-0.14,-0.9 -0.33,-1.28 -0.76,-1.87 -0.87,-1.2 -0.68,-0.81 -1.57,-1.08 -0.47,-0.87 -1.03,-0.57 -1.89,-0.54l0.04 1.56 -0.29 1.35 -0.44 2.39zm3.57 -19.36l1.01 0.06c0.09,-0.67 0.3,-1.53 0.35,-2.11 0.11,-1.21 -0.2,-1.44 -0.54,-2.22 -0.58,-1.35 -0.97,-3.76 -3.17,-2.16l-0.48 1.64c-0.25,1.07 -0.73,0.93 -0.34,2.5 0.18,1.4 -0.17,1.67 0.52,2.88 1.18,-0.16 0.55,0.21 1.14,-0.67l1.51 0.08zm-12.56 111.92c1.75,1.39 0.54,1.38 0.5,3.21 -1.23,-1.19 -0.98,-1.47 -0.5,-3.21zm20.25 -56.14l-1.69 1.45 0.47 1.26 -2.28 0.31 -0.05 -1.07 -1.43 -0.11 0.06 -0.49 4.92 -1.35zm-0.74 -0.5c0.95,0.18 0.61,-0.19 0.74,0.5l-0.74 -0.5zm-6.65 -72.94c-1.48,0 -0.73,0.87 -0.32,2.02 -1.97,-1.07 -0.76,-1.82 -1.54,-3.11 -3.4,2.08 0.35,5.93 3.3,5.59 0.66,-0.08 2.12,-0.48 2.77,-0.48l0.77 -1.4c0.07,-0.98 -0.41,-1.13 -0.62,-1.37l-0.56 0.29c-0.06,0.03 -0.21,0.11 -0.26,0.14 -0.05,0.03 -0.18,0.1 -0.28,0.14l0.22 -0.78 -0.96 -1.76 -1.16 -0.1c-1.16,0.35 -0.77,-0.03 -1.36,0.82zm6.3 100.12c-0.43,0.34 0.64,0.93 -0.61,0.25 -1.08,0.82 -0.34,0.07 -0.58,-0.05 0.04,-0.69 -0.1,-0.35 0.45,-0.39 0.72,-0.06 0.26,-0.14 0.74,0.19zm-2.32 10.13l0.01 0 -0.01 0 0 0zm-3.98 19.79l0.29 -1.76c0.61,0.45 0.62,0.32 1.07,0.62 1.44,0.95 -0.18,-0.52 0.61,0.56 -0.74,0.7 1.15,0.53 -1.18,0.61l-0.79 -0.03zm-1.58 -112.98l0.72 -1.34 0.1 1.22 -0.82 0.12zm5.56 93.19l0.65 -1.18 -0.65 1.18zm11.97 -53l1.38 0.2 -0.61 0.34c0.98,1.32 0.57,0.76 -0.15,3.24 -0.89,-0.62 -0.52,-0.34 -1.05,-1.35 0.12,-1.17 -0.07,0.11 0.24,-1.12 0.21,-0.83 0.23,-0.23 0.19,-1.31zm4.87 18.36c0.98,-0.36 1.26,0.41 1.06,-3.19 -0.2,-3.61 0.08,-2.97 -1.06,-3.33l0 6.52zm-21.95 -48.86c0,1.69 -0.04,1.03 -1.89,1.04 -1.06,2.07 0.14,0.18 -0.3,1.8 -0.04,0.15 -0.04,0.22 -0.09,0.36l-0.64 1.13c1.9,-0.87 0.86,-0.71 2.38,-0.36 0.98,1.35 0.16,0.41 0.91,0.49 1.1,-1.29 1.56,-0.02 2.04,-1.95l-1.43 0.5 0.13 -1.41c0.23,0.04 0.53,0.08 0.94,0.1 0.31,-1.6 0.19,-0.27 0.52,-1.03 0.03,-0.08 0.09,-0.18 0.12,-0.26l0.2 -0.83c-0.02,0.02 -0.25,0.39 -0.51,0.53 -0.96,0.54 0.61,-0.1 -0.91,0.34 -1.42,-0.89 -0.27,0.24 -0.63,-1.07l0.28 -0.29c0.36,-0.43 -0.02,-0.17 0.53,-0.14 1.61,0.46 0.23,0.18 1.65,-1.14 1.57,-1.44 -0.28,0.4 0.65,-0.51 0.52,-0.5 0.27,-0.2 0.45,-0.65 0.25,-1.42 0.82,-0.93 -0.27,-2.32 -1.82,-2.32 -0.74,-1.58 -2.03,-1.95l-0.57 0.13 -1.74 -0.2c-0.78,0.98 -0.34,0.4 -0.65,1.25 -1.46,1.04 -1.3,4.45 -0.96,6.34l1.82 0.1zm-0.97 1.67c1.11,-0.44 1.14,-0.34 1.63,-0.18l-1.63 0.18zm11.95 7.05c-0.06,0.11 -0.44,0.39 -0.5,0.46l-0.41 0.96c-0.38,0.52 -0.89,0.74 -1.6,0.95 0.96,0.17 1.93,0.31 2.65,0.76 1.72,1.08 0.98,0.66 0.95,1.26l1.03 -0.67c0.38,-0.23 -0.19,-0.07 0.96,-0.49 -2.12,-0.94 -2.83,-0.39 -2.99,-2.88 -0.01,-0.18 -0.06,-0.24 -0.09,-0.35zm6.58 -26.14l-0.02 0 0.22 -1.27 -1.85 -0.55 -0.08 1.77 1.72 0.05 0.01 0zm-15.61 115.48l1.77 -2.15 1.29 -0.32 -0.01 -1.81 -3.05 4.28zm-12.74 1.03l-0.17 2.28 0.1 0.6 0.07 -2.88zm2.1 5.9l0.6 -1.18 -0.6 1.18zm0.6 -1.18l-0.01 0 0.01 0zm-0.01 0l0.01 0 -0.01 0zm4.09 -0.75c0.08,-0.14 0.18,-0.44 0.22,-0.36 0.03,0.08 0.15,-0.25 0.2,-0.31l1.03 -0.97c1.01,0.7 0.17,0.6 1.03,0.38 0.71,-0.28 0.52,0.4 0.76,1.16l-3.24 0.1zm2.59 -57.12c0.07,0.07 0.16,0.09 0.19,0.22l0.84 0.93 -1.53 1.23 -0.62 -0.05 1.12 -2.33zm21.33 -9.58c-0.32,0.18 -0.57,0.12 0.18,1.4 -1.44,0.83 -0.39,0.01 -0.81,0.97 -0.17,0.08 -0.58,0.2 -1.01,0.48 0.07,-0.64 0.12,-1.43 0.41,-1.97 0.61,-1.12 0.8,-0.74 1.23,-0.88zm-21.89 56.16c0.72,0.31 0.47,-0.37 0.57,0.89l-0.05 0.1c0.46,0.39 0.25,0.36 0.74,0.33 -0.04,1.21 -0.06,1.27 1.07,1.51l1.65 0.63c-0.8,0.85 -0.66,0.65 -0.84,2.14 -0.1,0.07 -0.72,0.53 -0.77,0.57 -0.48,0.43 -0.29,0.42 -0.77,0.76 -0.7,0.48 -1.51,0.49 -2.4,0.54 0.24,-0.72 0.38,-0.76 0.31,-1.69 -0.09,-1.15 0.12,-0.73 -0.49,-1.12l0 -0.14 -0.41 -0.94 -2.03 1.15 -0.19 -1.13 -1.7 1.12 -0.59 -0.96c-0.3,-0.68 -0.15,-0.19 -0.21,-0.95 1.03,0.21 1.54,-0.24 2.1,-1.03l-0.64 -1.7c1.02,0.07 1.14,-0.11 2.25,-0.32 -0.38,1.75 -0.86,2.42 1.13,2l0.81 0.97 0.61 -1.34 -0.99 -0.12 0.84 -1.27zm1.25 -96.47l0 0 0 0 0 0 -0.01 0.01 -0.01 0 0 0 0 0 -0.01 0 0 0 0 0 -0.01 0 -0.01 0 -0.02 0 -0.01 0 0 0 -0.05 0 -0.01 0 0 0 -0.02 0 0 0 -0.01 0 -0.01 0 -0.01 0 -0.01 0 -0.05 -0.01 -0.01 0 -0.01 0 -0.03 -0.01 -0.01 0 -0.01 -0.01 -0.02 0 -0.01 -0.01 -0.03 -0.01 -0.01 0 -0.01 -0.01 0 0 -0.01 -0.01 -0.01 0 -0.01 -0.01 -0.01 -0.01 0.07 -0.69 0.01 -0.01 0.01 -0.02 0 0 0.01 -0.02 0.01 -0.02 0.01 0 0.01 -0.01 0.01 -0.02 0.01 -0.02 0 -0.01 0.01 -0.01 0.01 -0.01 0.02 -0.02 0 -0.01 0.01 -0.01 0.02 -0.02 0.01 -0.02 0 0 0.01 -0.02 0.02 -0.02 0.01 -0.02c0.39,-0.5 0.74,-0.28 1.35,-0.31 -0.27,0.99 -0.11,1.41 -1.18,1.37zm1.83 64.35c-0.53,0.15 -0.88,0.35 -1.47,0.28 -1.24,-0.16 -0.27,0.38 -0.87,-0.56 0.98,-0.84 1.1,-1 2.71,-1.52 0.38,0.57 0.26,-0.1 0.08,1l-0.45 0.8zm-8.21 55.56l0.48 -1.03c-0.56,-0.42 -0.43,-0.28 -1.25,-0.61l-0.06 -0.05 0.53 -0.65 1.29 -0.05 0.88 2.1c-0.1,0.43 -0.13,0.82 -0.39,1.18 -0.65,0.87 0.33,-0.05 -0.95,0.62l0.55 -1.6 -1.08 0.09zm25.13 -121.5c0.33,-0.93 0.48,-1.98 -0.1,-3.28 -2.47,0.13 -0.66,2.83 0.1,3.28zm-14.72 64.32c0.11,0.12 1.52,0.65 0,1.32 -0.2,-0.32 -0.56,0.47 0,-1.32zm-14.63 22.09l-0.37 -3.4 1.4 0.1c-0.48,1.91 -0.02,1.45 0.43,3.93l-1.52 -0.63 0.06 0zm12.45 -81.78c-0.49,-0.14 -0.94,0.4 -2.27,0.28 -0.13,-0.35 -0.14,0.4 -0.24,-0.89 -0.01,-0.13 0.01,-0.56 0.02,-0.71l0.2 -1.8 2.29 3.12zm-7.33 118.49c-1.36,2.1 -1.68,0.68 -1.95,-0.99l0.45 -0.21 0.21 1.35c0.91,0.08 0.57,0.07 1.29,-0.15zm6.59 -21.85l-1.66 0.1 -0.34 2.29c1.48,0.29 2.03,-0.75 2,-2.39zm2.55 -122.44l-0.04 1.42c-1.32,-0.51 -0.86,0.17 -1.08,-1.23l1.12 -0.19c-0.33,-0.83 0.44,-0.02 -0.44,-0.86l0.44 0.86zm-1.8 -0.04l0.34 1.86 2.12 -0.05c0.03,-0.54 0.33,-0.12 0,-1.02 -0.58,-1.63 -0.09,-0.34 -0.66,-0.75l-1.8 -0.04zm22.28 85.25l0 -2.26 -0.89 0.65 0.89 1.61zm-5.85 -75.92l-0.73 1.27 0.67 0.2 0.06 -1.47zm2.46 1.17c-0.03,-0.08 -0.06,-0.14 -0.08,-0.12 -0.04,0.05 -0.11,-0.27 -0.17,-0.39 -0.06,-0.13 -0.12,-0.26 -0.19,-0.4 -0.06,-0.14 -0.13,-0.27 -0.19,-0.4l-0.06 -0.14c0.13,-1.29 -0.37,-0.49 0.42,-1.28 0.88,0.36 1.25,-0.49 0.69,0.72 -0.21,0.47 -0.79,0.28 -1.24,0.29l0.12 0.36 -1.78 0.19 2.48 1.17zm-19.5 -15.22c0.97,-0.77 1.56,-1.75 1.75,-2.93l-0.32 -0.82c-1.73,0.37 -2.09,1.48 -2.46,3.35 0.87,0.95 0.2,0.24 1.03,0.4zm19.91 92.47c1.69,0.62 1.37,-0.1 1.66,-0.83l-1.24 -0.31 -0.42 1.14zm-19.86 -78.84l0.89 0.16c0.88,-2.07 0.44,-1.69 0.01,-2.21 -0.78,0.66 -0.88,1.02 -0.9,2.05zm11.91 101.9c0.2,0.16 -0.38,0.49 0.73,0.4 0.82,-0.07 0.4,-0.08 0.86,-0.4 -1.2,-1.82 -1.12,-0.49 -1.59,0z"/>
   </g>
  </g>
 </g>
</svg>
