<?xml version="1.0" encoding="UTF-8"?>
<!DOCTYPE svg PUBLIC "-//W3C//DTD SVG 1.1//EN" "http://www.w3.org/Graphics/SVG/1.1/DTD/svg11.dtd">
<!-- Creator: CorelDRAW 2021 (64-Bit) -->
<svg xmlns="http://www.w3.org/2000/svg" xml:space="preserve" width="512px" height="512px" version="1.1" style="shape-rendering:geometricPrecision; text-rendering:geometricPrecision; image-rendering:optimizeQuality; fill-rule:evenodd; clip-rule:evenodd"
viewBox="0 0 512 512"
 xmlns:xlink="http://www.w3.org/1999/xlink"
 xmlns:xodm="http://www.corel.com/coreldraw/odm/2003">
 <defs>
  <style type="text/css">
   <![CDATA[
    .fil0 {fill:#757475}
    .fil1 {fill:#EBCEB9}
   ]]>
  </style>
 </defs>
 <g id="Layer_x0020_1">
  <metadata id="CorelCorpID_0Corel-Layer"/>
  <g id="_2436906199776">
   <path class="fil0" d="M491.1 0l20.9 0 0 386.48c-0.03,-60.77 -1.58,-123.89 -1.65,-137.63l-0.24 -230.48c-2.35,-16.65 -7.27,-7.69 -14.2,-18.32 -3.09,14.13 -36.64,63.03 -48.48,79.4l-28.52 36.24c-8.06,8.43 1.5,2.3 -10.27,7.18 5.98,-13.23 28.85,-37.76 39.7,-53.51l4.36 -6.48c7.76,-11.23 35.87,-51.28 38.4,-62.88z"/>
   <path class="fil0" d="M0 0c0,0 1.95,23.14 1.95,23.32 -0.06,22.74 -4.97,128.79 1.02,140.69l-0.14 -57.89c52.83,10.18 101.26,32.09 137.41,57.63 66.66,47.12 72.16,77.11 90.75,98.06 7.38,22.18 16.18,36.84 22.84,62.55 7.67,29.63 4.52,51.53 8.39,78.68 -6.66,-9.29 -18.89,-77.78 -45.26,-107.48 -5.1,-5.74 1.62,-0.06 -5.66,-5.06 7.05,16.99 16.46,27.37 24.89,46.18 42.66,95.15 10.16,123.78 7.15,163.43l-241.6 -0.56c0.55,0.43 1.4,0.45 1.6,1.33 0.26,1.15 2.3,2.09 2.7,2.48 11.87,11.48 14.84,8.22 46.57,8.19 48.54,-0.04 287.92,-3.88 318.22,0.01 3.75,0.48 -2.69,0.54 3.84,-0.21 0.01,0 4.21,-0.8 6.16,-0.98 29.47,-2.78 91.64,2.94 124.81,-1.77 5.09,-10.03 6.39,-65.04 6.36,-122.12l0 125.52 -512 0 0 -512z"/>
   <path class="fil1" d="M445.65 281.7c12.91,-1.58 16.73,0 22.55,7.87 3.28,8.6 3.97,21.53 -4.73,26.28 -12.76,6.96 -15.92,-0.86 -19.59,-7.29 -0.12,0.37 -1.6,4.57 -2.08,5.69 -0.94,2.2 -2.25,4.72 -3.44,7.42 -2.4,5.5 -4.42,11.56 -6.76,17.61 7.8,19.81 8.56,37.76 -14.51,39.61 3.65,6.37 0.59,-4.81 1.78,5.97l-12.45 96.42c-13.97,-33.05 -30,-72.17 -47.24,-104.22 -7.45,-13.86 -7.01,-8.56 -8.18,-8.76 -7.11,0.46 -11.54,3.56 -5.43,0 5.31,15.88 29.36,119.34 24.44,133.02 12.08,0 20.84,0.48 32.57,-1.39l94.36 -2.6 0.17 -218.62c-1.1,-17.39 -1.35,-58.12 0.37,-74.64 -6.87,4.33 -20.3,30.61 -25.59,40.79 -4.18,8.04 -7.19,13.35 -10.98,21.3 -8.75,18.31 -0.71,5.93 -15.26,15.54z"/>
  </g>
 </g>
</svg>
