<?xml version="1.0" encoding="UTF-8"?>
<!DOCTYPE svg PUBLIC "-//W3C//DTD SVG 1.1//EN" "http://www.w3.org/Graphics/SVG/1.1/DTD/svg11.dtd">
<!-- Creator: CorelDRAW 2021 (64-Bit) -->
<svg xmlns="http://www.w3.org/2000/svg" xml:space="preserve" width="512px" height="512px" version="1.1" style="shape-rendering:geometricPrecision; text-rendering:geometricPrecision; image-rendering:optimizeQuality; fill-rule:evenodd; clip-rule:evenodd"
viewBox="0 0 512 512"
 xmlns:xlink="http://www.w3.org/1999/xlink"
 xmlns:xodm="http://www.corel.com/coreldraw/odm/2003">
 <defs>
  <style type="text/css">
   <![CDATA[
    .fil9 {fill:none}
    .fil6 {fill:#0C0A08}
    .fil7 {fill:#231E21}
    .fil3 {fill:#352A1D}
    .fil8 {fill:#563C33}
    .fil12 {fill:#775948}
    .fil1 {fill:#897767}
    .fil2 {fill:#988677}
    .fil0 {fill:#C2996A}
    .fil13 {fill:#D2CCC3}
    .fil10 {fill:#DAAB76}
    .fil11 {fill:#DBD8D4}
    .fil4 {fill:#EDECEA}
    .fil5 {fill:white}
   ]]>
  </style>
 </defs>
 <g id="Layer_x0020_1">
  <metadata id="CorelCorpID_0Corel-Layer"/>
  <g id="_2436747509392">
   <path class="fil0" d="M55.03 349.08c-1.81,4.26 -1.32,2.87 -4.72,3.96 -3.39,7.96 -3.19,7.88 0.25,14.28 -1.82,1.42 -2.74,2.15 -4.45,4.39l-9.31 14.47c5.01,1.03 11.17,4.43 15.17,4.12 6.65,-0.54 6.55,-4.83 13.02,-3.52 -3.6,10.4 -5.46,1.06 -8.53,14.77 -6.29,-7.56 -6.01,0.1 -12.82,-0.6 -8.2,-0.84 -10.87,0.75 -11.44,12.11 0.36,-0.33 0.72,-0.79 0.99,-1.12 12.03,-14.64 5.1,-3.67 14.39,-5.86 2.25,-0.53 2.44,-1.71 4.38,-3.18 3.04,5.64 4.33,0.79 3.61,7.36 0.25,0.44 0.36,1.15 0.42,1.52l0.44 2.64c0.06,5.19 0.42,-0.69 -0.99,2.81l-0.5 2.18c-1.77,8.38 -2.37,0.85 -4.99,9.89 0.41,0.1 1.02,0.19 1.31,0.21 0.18,0.01 0.57,0.04 0.79,0.05l6.24 -0.19c-0.39,0.34 -0.93,0.47 -1.31,0.7 -0.36,0.22 -0.83,0.41 -1.24,0.69 -5.74,3.9 -3.92,0.74 -4.47,5.53 6.23,-2.25 7.2,-1.83 10.25,0.83 5.4,-3.02 1.84,-1.2 8.65,4.42 1.15,0.95 1.36,0.86 2.14,1.33 -2.3,4.32 0.24,1.81 -7.18,5.94 1.49,2.7 -0.44,0.34 2.04,2.2l4.9 2.04c-5.39,7.83 0.61,-3.66 -9.08,13.08 -6.97,1.28 -20.12,2.2 -27.22,7.03l0.99 5.72c0.33,0.04 0.76,-0.17 0.96,-0.25 11.84,-4.43 1.01,-5.3 13.33,-0.39 1.14,0.46 1.26,0.38 2.47,1.16 3.23,2.1 2.3,2.08 2.13,8.56l-1.67 11.93c-0.11,0.54 -0.28,2.18 -0.37,1.93 -0.09,-0.26 -0.3,1.37 -0.38,2.07 0.4,-0.38 0.84,-0.78 1.21,-1.13 6.83,-6.33 5.24,-3.41 9.27,-13.17 4.11,-9.96 4.76,-8.78 1.49,-20.05 6.47,-2.53 8.24,-9.02 11.41,-14.29l1.58 -2.05c-0.04,10.02 -0.07,3.05 1.78,6.41 4.93,-4.49 -0.19,-3.14 7.82,-1.92 3.22,0.49 5.65,1.1 8.8,2.71l8.85 3.24c-2.7,2.44 -3.4,1.57 -4.36,5.67 -1.75,7.44 -1.2,0.12 1.06,5.83 6.19,15.59 8.71,3.41 11.9,12.56l-12.65 1.53c0.89,7.28 4.01,13.9 8.44,19.42l-3.7 3.35 25.13 0c-0.46,-7.25 -1.99,-10.19 -0.66,-17.82l21.47 -1.48 5.08 9.31c5.1,-6.48 3.94,-20.42 12.67,4.04 4.85,-2.01 5.81,-1.69 11.22,-1.08 -3.99,2.11 -2.96,1.49 -3.61,7.03l10.13 0c-7.17,-10.12 -2.22,0.3 -3.8,-11.15l-12.67 0.11 -1.94 -8.05c3.22,0.27 4.56,1.32 6.04,1.62 20.25,4.09 4.6,2.21 13.64,10.58 3.12,-4.47 1.44,-6.28 0.51,-11.96l15.98 3.2c0.55,-1.29 0.73,0.44 1.25,-4.13 -3.94,4.21 5.12,3.57 -5.06,3.57 -1.8,-5.52 -6.03,-8.09 -9.51,-11.6 3.57,-1.15 3.35,-0.92 6.02,-2.84 1.35,-9.93 0.34,-10.24 -4.23,-16.3l5.19 0.24c1.09,-3.66 -2.34,-4.14 12.66,-4.96 24.35,-1.31 71.44,-1.15 91.24,-4 9.79,-1.42 18.36,-0.13 26.59,-0.8l77.34 -4.25 36.06 -114.76c-8.83,4.43 -182.3,5.56 -217.28,8.49 3.7,-5.75 0.45,-2.65 6.3,-4.91 0.46,-0.18 2.36,0.39 3.84,-0.24 -7.84,0.12 -10.88,3.6 -11.89,-7.6 -0.78,-8.68 0.01,-11.66 -3.13,-19.72 -6.26,-16.13 -27.59,-15.97 -40.41,-5.99 -5.65,4.4 -6.08,9.23 -9.19,12.61 -3.04,3.29 -8.6,3.44 -12.4,8.53 -3.27,4.37 -4.12,9.63 -6.5,14.58l-9.27 0.38 -5.33 -14.8c-3.8,-12.13 -4.24,1.31 -3.71,-15.15 0.48,-15.04 -8.25,-19.6 -19.7,-19.13 -21.13,0.85 -31.51,25.07 -31.3,49.34 -0.34,-0.28 -0.69,-0.71 -0.93,-0.96 -11.75,-12.37 -12.03,-5.45 -18.55,0.21 -10.35,8.99 -3.34,9.1 -8.39,6.92z"/>
   <path class="fil1" d="M235.73 339.86c-1.48,0.63 -3.38,0.06 -3.84,0.24 -5.85,2.26 -2.6,-0.84 -6.3,4.91 34.98,-2.93 208.45,-4.06 217.28,-8.49l-36.06 114.76 -77.34 4.25c-8.23,0.67 -16.8,-0.62 -26.59,0.8 -19.8,2.85 -66.89,2.69 -91.24,4 -15,0.82 -11.57,1.3 -12.66,4.96l164.56 -7.8c-30.87,13.35 -28.87,20.72 -74.69,29.63 -51.77,10.05 -74.25,-5.11 -90.83,-5.77 -2.67,1.92 -2.45,1.69 -6.02,2.84 3.48,3.51 7.71,6.08 9.51,11.6 10.18,0 1.12,0.64 5.06,-3.57 -5.84,-1.39 -2.92,-0.49 -4.06,-2.83 21.37,4.33 8.49,8.19 20.37,16.13l0.55 6.48 68.84 0c-0.81,-3.95 1.26,-3.22 -1.44,-3.24l1.17 1.06c0.14,-0.02 0.59,-0.15 0.74,-0.19l1.89 -0.87c-7.59,-9.22 -1.33,-2.89 -6.1,-15.23 7.59,2.65 1.27,-3.35 6.76,15.22 5.75,-7.58 -2.34,-5.58 3.4,-11.33 -3.23,-1.88 -3.25,3.01 -3.97,-3.24l3.15 -1.53c0.13,0.09 0.36,0.23 0.42,0.76l2.26 5.12c2.02,2.81 -1.98,3.48 6.14,2.71 1.87,-4.58 1.06,-4.22 -0.13,-11.26 4.86,1.93 -2.79,3.11 3.8,1.84 0.01,-0.01 4.36,5.54 0.22,-3.01 0.2,0.34 0.52,0.43 0.6,1.03 0.6,4.32 1.19,-3.16 2.24,9.88 0.51,6.38 -1.2,1.24 0.88,4.52 2.65,-6.68 1.82,-5.55 0.84,-12.97 3.04,7.46 3.83,6.86 10.44,8.32 -3.27,-22.34 2.85,-13.94 24.2,-26.84l-0.02 1.79c1.2,8.14 -2.92,-0.26 1.59,5.47 2.25,-2.45 1.94,-3.25 4.23,-5.07l4.22 20.19c-6.85,-9.37 -13.51,-13.52 -25.22,-10.67 -0.59,3.68 0.42,13.66 0.37,13.92 -0.37,2.2 -5.61,7.38 0.23,13.62l49.51 0c0.63,-0.88 1.67,-2.64 2.46,-4.2l1.92 -4.25c5.68,3.97 9.88,0.5 13.25,-4.51l-6.83 -0.81c-1.51,-0.43 -6.29,-2.77 -8.69,-3.7 -0.64,-5.37 -0.39,-5.99 -1.73,-9.58 -6.8,-1.44 -10.57,-0.8 -16.67,5.47 -3.52,3.62 -2.01,1.01 -3.41,4.47 -0.68,-1.3 -0.03,1.12 -0.76,-2.88l-2.34 -12.4c1.93,-1.71 -0.52,0.22 2.51,-0.48 0.22,-0.05 0.64,-0.11 0.88,-0.17l3.13 -0.99c-1.55,-5.97 -6.87,-8.1 -4.16,-13.95 3.87,0.62 1.34,0.23 4.66,7.35 1.88,4.01 5.07,5.49 8.25,2.75 0.96,-0.82 1.71,-2.3 2.37,-3.37 2.1,-3.39 -0.14,-1.15 1.94,-3.16 0.15,0.26 0.46,0.29 0.52,0.71 0.52,3.77 5.24,9.73 8.35,12.91 3.88,-1.69 4.86,-2.11 6.34,-4.86 3.24,4.84 4.53,19.06 12.71,16.65 4.02,-1.18 3.43,-2.73 3.28,-7.4 7.18,2.32 3.95,1.08 10.17,0.24 7.59,-1.03 0.82,-0.48 7.17,3.22 0.13,-4.99 -0.92,-8.56 -4.68,-10.48 -2.81,-1.44 -8.01,-0.17 -11.58,-0.33 1.56,-6.49 0.31,-11.05 -5.28,-10.45 -2.79,0.3 -4.82,2.9 -6.55,3.68 -3.48,1.58 -0.18,1.09 -5.52,-1.16 3.77,-4.24 -0.99,-9.42 -3.53,-11.72 -7.06,1.71 -5.58,6.33 -11.41,3.92 5.99,-11.19 13.51,-7.39 21.42,-2.03 11.14,7.54 17.21,4.08 27.43,0.84 -1.53,4.94 -1.07,11.93 2.28,14.88 4.65,4.08 9.64,-0.08 12.26,0.5 4,0.87 -2.63,1.39 3.53,0.72 6.84,-0.74 4.35,-2.94 5.99,-3.62 3.13,-1.32 0.48,1.96 7.22,-1.51l7.38 -3.07c8.02,-2.72 2.2,-1.76 6.52,-5.01l10.55 -6.33c0.25,-0.23 0.56,-0.45 0.81,-0.69l1.62 -1.61c0.24,-0.26 0.6,-0.72 0.79,-0.94 0.2,-0.22 0.55,-0.62 0.79,-0.98 -9.35,-8.03 -13.69,-7.34 -21.44,-12.76 -5.62,-3.93 -1.6,-1.3 -7.09,-2.35 -2.28,-0.44 -3.04,-1.14 -7.59,-1.32 -5.91,-0.23 -1.93,-0.5 -6.86,-1.49 -8.46,-1.71 6.66,-0.34 -2.1,-0.26 -0.38,0 -0.72,0.07 -1.1,0.11l-4.22 0.99c-0.34,0.02 -0.68,0.04 -1.02,0.04 -4.04,0.02 -2.93,-3.13 -7.74,0.1 -6.5,5.89 -3.39,8.98 -1.96,16.36 -2.42,0.86 -5.05,2.27 -7.34,2.82 -8.31,1.99 -4.08,0.74 -6.93,-0.36l6.11 -3.39c0.52,-4.38 1.5,-4.97 -0.35,-8.72l6.25 -9.63c4.33,-8.6 5.22,0.68 4.22,-12.54 -5.98,-0.95 -6.77,2.53 -11.87,10.53 -0.16,0.25 -0.42,0.63 -0.56,0.89l-4.04 11.15c4.79,3.46 2.18,-0.18 3.95,4.96 -0.21,-0.47 -0.94,-1.88 -1.1,-2.16 -0.12,-0.22 -0.41,-0.76 -0.57,-1.01 -0.15,-0.26 -0.39,-0.7 -0.57,-0.97l-3.07 -3.95c1.93,-4.36 3.45,-10.26 5.3,-14.85 2.79,-6.94 4.26,-3.77 6.74,-13.71 3.58,-14.33 11.38,-14.47 21.31,-18.11 -1.24,-7.06 -1.07,-3.81 -4.1,-8.42 3.32,-3.16 2.41,-2.47 3.77,-7.13 6.6,2.38 11.93,5.67 19.41,4.52 -10.98,6.64 -11.18,15.35 -17.52,21.08 -4.78,4.31 -4.58,3.77 -6.93,8.98 9.88,2.86 11.95,6.7 22.61,3.16l10.26 -2.67c0.22,4.41 1.4,9.58 4.39,13.43 3.21,4.11 -1.11,2.28 4.95,3.08 6.82,0.91 0.58,1.07 6.33,-1.7 4.78,-2.3 4.45,-4.25 11.55,2.11 4.33,3.89 5.55,4.73 10.87,6.61l0 -28.78c-14.1,-0.22 -15.27,-12.91 -17.98,-14.28 -5.12,-2.58 -11.35,8.05 -20.63,-6.02 -2.26,-3.41 -2.86,-4.84 -3.83,-9.45 -8.71,1.67 -14.2,2.58 -20.59,-4.33l7.84 2.14c1.91,0.07 1.27,0.07 2.57,-0.47 -0.31,-0.24 -0.8,-1.01 -0.97,-0.64l-6.98 -2.92c3.51,-5.42 -0.79,-2.16 4.33,-3.94 3.61,-1.25 -1.27,-0.67 3.6,1.34 4.64,1.91 8.89,-0.09 13.31,-0.49l1.94 2.32c3.03,7.21 7.85,15.73 15.11,13.83 1.56,-0.4 3.96,-1.55 5.8,-2.13 4.32,6.61 9,14.14 16.48,14.23l0 -37.8c-9.57,-0.29 -11.44,-7.11 -16.6,-16.21l-7.48 2.08c-2.56,-4.73 -1.55,-2.54 -3.93,-5.39 -6.26,-7.51 -0.85,-11.27 1.43,-16.84l2.61 1.51c0.23,-0.35 0.41,-0.91 0.53,-1.19l8.23 -12.56c-5.7,-1.51 -3.8,-1.1 -8.86,3.22l5.31 -6.67c0.25,-0.96 0.7,-0.91 1.01,-1.41 -7.31,1.7 -5.71,-0.17 -13,3.22 4.35,-5.93 5.32,1.11 11.73,-7.65l-10.24 0.45c1,-5.22 -0.55,-1.51 3.18,-5.12 0.97,-0.94 8.69,-6.7 10.87,-4.66l0.94 -3.06c2.19,0.94 3.28,0.71 4.24,3.44 2.02,-8.29 -2.11,-5.08 -6.02,-8.31l-6.44 -9.11c7.27,0 4.7,-1.8 6.02,6.48 5.73,-7.31 4.82,-3.2 7.72,-0.05l-2.33 -9.66c0.08,0.14 1.67,2.77 1.75,2.85 2.89,2.91 -0.4,1.04 1.97,0.38 -2.43,-8.95 -0.26,-3.49 -0.32,-8.52 -0.01,-0.27 -1.49,-13.06 5.15,-14.17 0.01,3.49 -0.43,0.04 2.53,1.62l0 -190.54c-3.82,3.59 -2.92,2.47 -6.99,4.87 -8.99,5.33 -3.44,7.1 -11.22,14.86 -8.1,8.08 -7.01,2.78 -7.72,2.31 0.33,-0.23 0.77,-0.44 1.01,-0.58l3.67 -2.24c1.48,-1.16 1.16,-0.95 2.67,-2.88 3.48,-4.46 3.49,-5.95 4.63,-12.11 -5.44,5.61 -0.9,0.54 -4.07,6.18 -4.38,7.79 -5.44,3.89 -8.3,7.77l-2.12 -5.85 8.07 -1.47c0.22,-4.4 -0.01,-6.03 1.36,-10.33 1.37,-4.33 2.5,-4.35 4.1,-5.43 0.25,-0.17 0.63,-0.35 0.88,-0.5 8.36,-5.01 6.5,3.3 7.82,0.08 0.17,-0.43 0.75,0.28 1.16,0.37l5.05 -11.23 0 -34.28c-10.21,10.74 -6.41,4.79 -20.23,4.75 -3.23,14.87 -8.59,12.49 -11.38,13.22 -7.5,1.95 -1.06,2.93 -12,4.08 -0.8,-5.41 -2.31,-5 -3.6,-11.43 2.89,-2.52 4.1,-2.95 7.92,-4.55 -1.9,-2.36 3.45,-8.09 -6.39,-2.16 -1.38,0.84 -2.5,3.61 -3.57,5.67l-3.49 -8.38c6.68,0.41 6.07,-0.04 8.38,-6.69 4.8,2.38 4.67,1.6 9.43,0.72l2.56 -8.6 -34.94 0c2.71,6.81 7.53,13.37 11.33,21.24 11.16,23.1 18.53,42.21 25.69,69.15 10.26,38.63 13.32,77.54 11.42,118.93 -2.32,50.35 -19.93,112.29 -41.92,150.52l-24 37.21c4.54,-16.65 17.48,-47.69 18.78,-63.57l-210.26 6.38z"/>
   <path class="fil2" d="M0 96.56c15.98,-9.18 4.38,-5.42 12.67,-11.7 10.67,15.25 -3.82,26.33 -7.61,21.02l-5.06 2.28 0 35.91c6.43,-5.44 0.04,-13.22 16.83,-16.15l-2.4 5.18c0,0.31 0.12,0.81 0.16,1.11l1.12 3.51c-0.29,0.25 -0.77,0.1 -0.91,0.68 -0.17,0.77 -1.38,1.17 -1.64,1.5 -2.87,3.65 -2.83,6.75 -5.55,14.02 5.67,-2.79 2.71,-0.27 5.74,-5.38 0.77,6.51 0.74,5.41 -0.67,11.99 -2.04,0.3 -7.06,-1.15 -9.79,1.46l10.36 4.12 -0.59 13.48c-5.83,-6.91 0.55,-8.67 -12.66,-15.22l0 28.33c12.6,-5.17 12.63,-16.88 13.35,20.14 0.15,8.01 0.21,6.82 -3.06,8.22 -4.86,-3.87 -2.62,-14.11 -10.29,-16.39l0 62.59c1.23,0.7 0.62,1.36 0,1.68l0 -0.36c0.44,-0.23 1.12,-0.54 2.11,-0.95 0.37,-0.15 1.45,-1.19 1.7,-1.53 -4.03,2.23 -0.99,-0.25 -2.54,6.09 6.21,-0.89 8.5,-2.11 12.99,2.82 3.85,4.23 4.4,8.91 3.54,15.02 0.35,0.32 0.89,0.16 1.1,0.89 1.29,4.37 0.9,0.76 2.06,1.62l8.3 4.73c1.26,6.76 1.18,11.38 -0.11,13.56 -3.31,-2.02 -1.56,-4.04 -6.69,-6.33 -0.88,-0.39 -2.03,-0.47 -2.3,-0.58l-9.39 -5.79 -1.44 -11.74c-0.62,-2.38 -7.26,-4.88 -9.33,-5.97l0 142.76 7.6 -1.92c1.36,-3.78 3.92,-13.77 1.04,-18.69 0.3,-0.2 0.79,-0.78 0.96,-0.41 0.17,0.38 0.74,-0.31 0.99,-0.4l9.68 -3.19 0.88 -10.28c7.38,-0.48 12.02,-3.41 12.15,-13.83 0.15,-12.3 -2.83,-15.35 -11.92,-14.06 0.07,-4.13 0.18,-8.14 -1.41,-11.57l-3.69 -3.68c-0.34,-0.18 -0.7,-0.27 -1.05,-0.43l-3.36 -1.23c1.26,-8.49 1.02,-9.69 7.14,-11.62 1.22,1.99 0.99,2.22 1.94,4.19l2.08 4.15c0.23,0.45 0.49,1.05 0.8,1.5 0.68,-1.78 1.79,-3.96 2.15,-5.18 1.8,-5.96 -2.44,-1.04 6.16,-8.53 2.1,-1.83 2.38,-2.46 4.61,-4.45l6.99 16.61c-7.35,-1.97 -9.95,-1.24 -15.61,1.93 -1.54,13.22 0.65,4.94 6.61,13.4 3.31,4.69 -3.33,-0.1 2.84,4.44 9.57,1.11 8.84,-6 7.94,-16.15 2.01,2.26 3.48,6.36 4.79,9.26 3.4,-1.09 2.91,0.3 4.72,-3.96 -26.06,-60.7 -38.81,-103.35 -36.2,-181.97 1.76,-53.11 16.41,-105.75 39.39,-149.51 1.75,-3.34 3.06,-5.57 4.68,-8.56 1.8,-3.3 3.37,-5.42 4.32,-9.04l-67.22 0 0 96.56z"/>
   <path class="fil3" d="M161.03 414.96l-4.79 -19.49c1.42,-1.89 2.88,1.55 6.96,-3.42 -1.36,6.69 -1.51,10.6 -0.02,16.53 2.89,-4.71 2.63,-12.98 1.11,-22.38 -8.95,-0.96 -5.19,2.81 -10.4,6.81l-0.02 -0.9 2.22 15.59 -6.4 -1.26c0.38,-0.32 0.95,-1.21 1.1,-0.87 0.15,0.33 0.8,-0.58 0.98,-0.84 2.56,-3.71 2,2.96 0.48,-11.65 -3.36,1.9 -4.95,3.63 -8.48,1.67 -2.78,-1.54 -0.96,-0.37 -2.56,-2.55l-0.02 3.06c-0.1,0.52 0.47,1.74 -1.61,4.74 -3.6,-15.91 -9.6,0.53 -1.18,-25.08 1.81,-5.49 2.18,-4.87 4.35,-10.11l-7 7.84c7.21,-10.95 2.88,-6.3 3.14,-18.06l2.7 6.25c-0.02,-16.22 -2.67,-17.24 -6.01,-29 -2.04,-7.16 1.71,-6.39 -6.07,-7.84 2.89,-10.5 2.46,-9.93 0.15,-19.01 1.49,8.08 -0.12,19.15 -6.71,20.03 4.73,-6.15 7.53,-0.32 4.45,-21.8 -24.31,-19.01 -38.23,20.1 -38.23,45.12 0,7.05 1.2,12 -0.34,18.2 -1.89,7.57 -1.5,4.52 -6.03,7.79l2.8 -2.73c1.64,-3.31 2.34,6.46 0.83,-5.02 -0.97,-7.38 -8.17,-15.23 -10.19,-22.04l-7.8 1.23 -0.74 7.18c-7.13,-7.49 -4.53,-1.65 -5.21,-1.2l-0.92 7.08 -6.99 2.49 7.5 12.99c3.88,5.51 -0.4,1.6 5.02,4.63l-8.95 -16c7.16,-1.25 7.26,8.41 12.72,12.32 -0.88,6.19 0.04,1.32 -2.45,4.69 -3.1,4.22 4.01,1.37 -2.84,2.43 -3.84,-5.8 -5,-10.76 -10.92,-13.8l22.46 28.63c0.14,-0.02 0.26,-0.57 0.28,-0.41 0.65,4.51 0.52,-0.7 0.62,-0.78 2.98,-2.35 -2.24,-3.04 1.7,-0.68 -1.01,5.7 -14.52,26.43 -14.92,27.55 0.27,0.17 0.76,-0.06 0.87,0.33 1.99,7.62 0.64,-0.19 3.11,-0.33 1.89,7.89 4.68,9.77 8.62,14.49 5.66,6.77 5.5,8.12 14.5,11.38l0.95 -26.39c0.32,8.32 -1.65,22.03 2.2,28.09 1.75,-2.96 0.36,1.92 1.15,-3.5 0.81,-5.66 -1.04,-11.79 -1.4,-17.57 -0.58,-9.11 0.12,-14.74 1.45,-23.55 -0.7,3.93 0.4,27 0.79,31.85 1.54,18.74 1.37,14.96 14.6,19.21 -1.72,-5.64 -1.59,-5.04 -4.74,-10.48l10.93 11.62c-1.39,-5.01 -5.12,-10.96 -10.97,-18.21l-4.05 -6.98c-0.34,-1.3 -0.42,-2.57 -0.91,-4.24l9.64 0.27c-0.32,0.33 0.43,-4.83 -1.2,2.11 -0.86,3.65 -1.03,0.65 0.03,2.91 2.59,-3.43 11.04,-9.26 14.59,-12.01l-5.53 32.13c0.09,5.66 -1.26,0.8 1.19,4.37 2.09,-5.55 4.45,-21.12 5.64,-28.01 0.97,-5.69 2.27,-26.84 4.73,-30.78 1.27,21.25 -5.32,37.44 -8.95,58.38 3.55,-0.11 3.68,-2.48 4.85,-7.59 2.46,-10.74 2.76,-22.58 5.73,-33.03 2.55,-8.97 9.43,-6.9 15.8,-6.26l-5.31 -4.14c4.32,0.31 6.13,1.99 9.32,3.41 1.58,0.7 1.89,0.61 3.43,1.49 2.05,1.18 1.05,0.76 2.34,1.54l1.85 1.05c0.22,0.13 0.64,0.41 0.98,0.51z"/>
   <path class="fil4" d="M384.69 512l72.96 0c-3.37,-5.82 -0.73,-4.33 -6.37,-9.94l-7.34 -6.76c-4.33,-3.05 -2.58,-2.24 -5.06,-1.93 -0.13,0.01 -4.96,1.91 -5.83,2.17 4.29,-11.46 10.23,-15.58 20.65,-17.56 -2.54,5.05 -0.52,1.97 -3.74,5.15 -0.26,0.26 -2.91,2.06 -3.48,2.45 -2.42,1.67 -3.56,2.73 -5.7,4.38 8.17,2.65 5.63,6.22 13.69,3.89 6.24,-1.8 1.61,-2.72 8.56,-1.2 1.38,0.3 4.76,1.9 7.05,1.64 3.3,-0.38 2.94,-0.28 6.27,-5.11 1.92,-2.78 2.73,-4.25 5.23,-6.23 7.49,-5.93 7.55,-0.92 16.1,1.39l14.32 -15.07 0 -32.18c-5.32,-1.88 -6.54,-2.72 -10.87,-6.61 -7.1,-6.36 -6.77,-4.41 -11.55,-2.11 -5.75,2.77 0.49,2.61 -6.33,1.7 -6.06,-0.8 -1.74,1.03 -4.95,-3.08 -2.99,-3.85 -4.17,-9.02 -4.39,-13.43l-10.26 2.67c-10.66,3.54 -12.73,-0.3 -22.61,-3.16 2.35,-5.21 2.15,-4.67 6.93,-8.98 6.34,-5.73 6.54,-14.44 17.52,-21.08 -7.48,1.15 -12.81,-2.14 -19.41,-4.52 -1.36,4.66 -0.45,3.97 -3.77,7.13 3.03,4.61 2.86,1.36 4.1,8.42 -9.93,3.64 -17.73,3.78 -21.31,18.11 -2.48,9.94 -3.95,6.77 -6.74,13.71 -1.85,4.59 -3.37,10.49 -5.3,14.85l3.07 3.95c0.18,0.27 0.42,0.71 0.57,0.97 0.16,0.25 0.45,0.79 0.57,1.01 0.16,0.28 0.89,1.69 1.1,2.16 -1.77,-5.14 0.84,-1.5 -3.95,-4.96l4.04 -11.15c0.14,-0.26 0.4,-0.64 0.56,-0.89 5.1,-8 5.89,-11.48 11.87,-10.53 1,13.22 0.11,3.94 -4.22,12.54l-6.25 9.63c1.85,3.75 0.87,4.34 0.35,8.72l-6.11 3.39c2.85,1.1 -1.38,2.35 6.93,0.36 2.29,-0.55 4.92,-1.96 7.34,-2.82 -1.43,-7.38 -4.54,-10.47 1.96,-16.36 4.81,-3.23 3.7,-0.08 7.74,-0.1 0.34,0 0.68,-0.02 1.02,-0.04l4.22 -0.99c0.38,-0.04 0.72,-0.11 1.1,-0.11 8.76,-0.08 -6.36,-1.45 2.1,0.26 4.93,0.99 0.95,1.26 6.86,1.49 4.55,0.18 5.31,0.88 7.59,1.32 5.49,1.05 1.47,-1.58 7.09,2.35 7.75,5.42 12.09,4.73 21.44,12.76 -0.24,0.36 -0.59,0.76 -0.79,0.98 -0.19,0.22 -0.55,0.68 -0.79,0.94l-1.62 1.61c-0.25,0.24 -0.56,0.46 -0.81,0.69l-10.55 6.33c-4.32,3.25 1.5,2.29 -6.52,5.01l-7.38 3.07c-6.74,3.47 -4.09,0.19 -7.22,1.51 -1.64,0.68 0.85,2.88 -5.99,3.62 -6.16,0.67 0.47,0.15 -3.53,-0.72 -2.62,-0.58 -7.61,3.58 -12.26,-0.5 -3.35,-2.95 -3.81,-9.94 -2.28,-14.88 -10.22,3.24 -16.29,6.7 -27.43,-0.84 -7.91,-5.36 -15.43,-9.16 -21.42,2.03 5.83,2.41 4.35,-2.21 11.41,-3.92 2.54,2.3 7.3,7.48 3.53,11.72 5.34,2.25 2.04,2.74 5.52,1.16 1.73,-0.78 3.76,-3.38 6.55,-3.68 5.59,-0.6 6.84,3.96 5.28,10.45 3.57,0.16 8.77,-1.11 11.58,0.33 3.76,1.92 4.81,5.49 4.68,10.48 -6.35,-3.7 0.42,-4.25 -7.17,-3.22 -6.22,0.84 -2.99,2.08 -10.17,-0.24 0.15,4.67 0.74,6.22 -3.28,7.4 -8.18,2.41 -9.47,-11.81 -12.71,-16.65 -1.48,2.75 -2.46,3.17 -6.34,4.86 -3.11,-3.18 -7.83,-9.14 -8.35,-12.91 -0.06,-0.42 -0.37,-0.45 -0.52,-0.71 -2.08,2.01 0.16,-0.23 -1.94,3.16 -0.66,1.07 -1.41,2.55 -2.37,3.37 -3.18,2.74 -6.37,1.26 -8.25,-2.75 -3.32,-7.12 -0.79,-6.73 -4.66,-7.35 -2.71,5.85 2.61,7.98 4.16,13.95l-3.13 0.99c-0.24,0.06 -0.66,0.12 -0.88,0.17 -3.03,0.7 -0.58,-1.23 -2.51,0.48l2.34 12.4c0.73,4 0.08,1.58 0.76,2.88 1.4,-3.46 -0.11,-0.85 3.41,-4.47 6.1,-6.27 9.87,-6.91 16.67,-5.47 1.34,3.59 1.09,4.21 1.73,9.58 2.4,0.93 7.18,3.27 8.69,3.7l6.83 0.81c-3.37,5.01 -7.57,8.48 -13.25,4.51l-1.92 4.25c-0.79,1.56 -1.83,3.32 -2.46,4.2z"/>
   <path class="fil4" d="M0 423.18l0 5.2 5.09 -0.74c4.21,-6.99 0.55,-7.03 8.73,-9.69 1.21,-0.39 3.86,-1.05 4.26,-1.39 1.77,-1.51 3.14,-8.02 12.4,-5.59 4.97,1.31 3.83,0.81 4.56,7.76l-7.63 -5.48c-2.18,9.06 0.66,3.47 -4.24,6.84 -7.71,5.3 -6.23,5.88 -11.99,10.47l-7.3 6.06c3.6,1.21 2.5,2.2 5.73,4.72 3.09,2.41 4.53,2.29 7.57,3.98 -2.24,1.97 0.69,1.49 -2.85,1.54 -0.14,0 -3.57,-1.42 -3.62,-1.44 2.35,3.58 1.95,1.64 4.32,7.23 -5.34,-2.02 -3.98,-2.72 -7.66,-4.12 -0.77,-0.29 -6.47,-1.54 -7.37,-1.73l0 25.48c5.76,-2.02 9.21,1.63 11.53,7.31 0.75,1.83 1.45,4.08 2.41,6.18l17.74 -1.45 -4.93 -6.38c-3.88,-4.62 -5.06,-3.55 -10.27,-2.62 -1.51,-4.46 -4.33,-7.97 -6.37,-10.4 -4.19,-4.98 -5.64,-1.99 -9.19,-6.2 9.74,-2.27 14.35,3.64 16.55,12.83 8.95,0.11 14.05,3.8 18.15,12.92 0,0.01 2.15,5.86 2.39,6.46 -6.37,-1.57 -9,-1.71 -14.95,5.32 -4.3,5.08 1.93,1.55 -4.08,4.41l7.36 6.86c2.38,3.87 0.25,-1.26 2.24,4.48l59.1 0c-2.33,-2.05 -13.03,0.9 -10.41,-12.54 1.99,-10.26 8.51,-6.68 10.67,-13.38 -4.52,-2.75 -2.87,3.13 -13.16,-0.01 -1.67,-4.67 -1.82,-8.93 -0.91,-15.66 0.97,-7.13 1.19,-8.62 6.1,-10.8 -1.85,-3.36 -1.82,3.61 -1.78,-6.41l-1.58 2.05c-3.17,5.27 -4.94,11.76 -11.41,14.29 3.27,11.27 2.62,10.09 -1.49,20.05 -4.03,9.76 -2.44,6.84 -9.27,13.17 -0.37,0.35 -0.81,0.75 -1.21,1.13 0.08,-0.7 0.29,-2.33 0.38,-2.07 0.09,0.25 0.26,-1.39 0.37,-1.93l1.67 -11.93c0.17,-6.48 1.1,-6.46 -2.13,-8.56 -1.21,-0.78 -1.33,-0.7 -2.47,-1.16 -12.32,-4.91 -1.49,-4.04 -13.33,0.39 -0.2,0.08 -0.63,0.29 -0.96,0.25l-0.99 -5.72c7.1,-4.83 20.25,-5.75 27.22,-7.03 9.69,-16.74 3.69,-5.25 9.08,-13.08l-4.9 -2.04c-2.48,-1.86 -0.55,0.5 -2.04,-2.2 7.42,-4.13 4.88,-1.62 7.18,-5.94 -0.78,-0.47 -0.99,-0.38 -2.14,-1.33 -6.81,-5.62 -3.25,-7.44 -8.65,-4.42l-9.58 0.86c2.04,7.01 2.67,9.18 1.79,17 -2.24,20.01 -15.73,3.16 -15.75,3.15l-7.57 -3.07c-3.25,-0.16 -3.74,3.29 -8.83,0.24l-3.15 -2.56c-3.57,-3.04 -2.18,1.56 -3.89,-5.22 6.37,-2.41 6.69,-2.38 9.54,4.57 0.65,-1.61 -0.43,4.22 -0.51,-1.3 -0.06,-4.48 -1.78,0.47 0.51,-3.17l5.9 3.21c-0.39,-4.37 0.21,0.17 -1.67,-2.8 -9.33,-14.78 3.41,9.76 -2.93,-4.23 5.83,1.43 3.96,2.97 6.17,1.77 -1.34,-6.23 -6.83,-7.15 -8.27,-6.67 -3.76,1.25 1.01,1.85 -0.47,5.86 -8.77,-6.52 4.75,-6.48 -7.6,-7.87l4.73 -8.37c-0.48,0.18 -0.93,0.14 -1.12,0.88 -0.35,1.43 -1.27,1.37 -1.84,1.99 -2.61,2.82 -0.13,1 -2.34,2.59 -0.15,0.11 -0.67,3.65 -5.11,-0.54 2.29,-3.9 5.15,-5.68 8.72,-6.43l1.41 0.02c2.28,0.1 -2.31,3.92 3.91,-0.24l4.32 -5.48c4.4,1.06 5.03,0.53 7.6,3.82 -0.79,1.27 -2.15,-0.84 -3.58,-3.5 2.21,-3.21 1.33,2.2 4.4,-8.27 0.1,-0.32 0.21,-0.99 0.44,-1.39 2.72,3.15 4.03,5.07 10.58,3.85 4.52,-0.85 4.06,-1.1 8.24,-5.56 0.72,-6.57 -0.57,-1.72 -3.61,-7.36 -1.94,1.47 -2.13,2.65 -4.38,3.18 -9.29,2.19 -2.36,-8.78 -14.39,5.86 -0.27,0.33 -0.63,0.79 -0.99,1.12 0.57,-11.36 3.24,-12.95 11.44,-12.11 6.81,0.7 6.53,-6.96 12.82,0.6 3.07,-13.71 4.93,-4.37 8.53,-14.77 -6.47,-1.31 -6.37,2.98 -13.02,3.52 -4,0.31 -10.16,-3.09 -15.17,-4.12l9.31 -14.47c1.71,-2.24 2.63,-2.97 4.45,-4.39 -3.44,-6.4 -3.64,-6.32 -0.25,-14.28 -1.31,-2.9 -2.78,-7 -4.79,-9.26 0.9,10.15 1.63,17.26 -7.94,16.15 -6.17,-4.54 0.47,0.25 -2.84,-4.44 -5.96,-8.46 -8.15,-0.18 -6.61,-13.4 5.66,-3.17 8.26,-3.9 15.61,-1.93l-6.99 -16.61c-2.23,1.99 -2.51,2.62 -4.61,4.45 -8.6,7.49 -4.36,2.57 -6.16,8.53 -0.36,1.22 -1.47,3.4 -2.15,5.18 -0.31,-0.45 -0.57,-1.05 -0.8,-1.5l-2.08 -4.15c-0.95,-1.97 -0.72,-2.2 -1.94,-4.19 -6.12,1.93 -5.88,3.13 -7.14,11.62l3.36 1.23c0.35,0.16 0.71,0.25 1.05,0.43l3.69 3.68c1.59,3.43 1.48,7.44 1.41,11.57 9.09,-1.29 12.07,1.76 11.92,14.06 -0.13,10.42 -4.77,13.35 -12.15,13.83l-0.88 10.28 -9.68 3.19c-0.25,0.09 -0.82,0.78 -0.99,0.4 -0.17,-0.37 -0.66,0.21 -0.96,0.41 2.88,4.92 0.32,14.91 -1.04,18.69l-7.6 1.92z"/>
   <path class="fil5" d="M198.98 465.29l-5.19 -0.24c4.57,6.06 5.58,6.37 4.23,16.3 16.58,0.66 39.06,15.82 90.83,5.77 45.82,-8.91 43.82,-16.28 74.69,-29.63l-164.56 7.8z"/>
   <path class="fil6" d="M153.87 392.11l0.02 0.9 0.42 -10.63c9.88,-4.64 7.04,2.86 16.81,-8.09 -8.07,4.92 -9.04,5.15 -16.98,1.61l3.48 -23.13c6.67,2.02 13.39,9.13 19.03,7.39 14.12,-4.34 -1.36,2.56 12.41,0.96 7.64,-0.88 -0.15,-3.59 3.61,0.2 -3.21,14.69 -10.46,-3.13 -20.54,6.32l-2.94 3.71c8.7,-4.82 12.95,-6.23 21.74,-0.85 3.09,-1.56 1.71,-3.32 1.71,-10.8 4.75,-5.09 -1.37,-8.86 8.86,-11.34l1.22 13.08c-0.61,6.02 -0.86,9.05 -3.76,11.22 -0.11,-0.12 0,-0.73 0.02,-0.56 0.06,0.53 -2.18,-6.11 1.82,0.22l0.69 1.7c0.03,0.14 0.06,0.7 0.06,0.82 -0.19,8.42 0.61,-0.04 -0.85,1.1 -0.03,0.02 -0.36,0.12 -0.46,-0.03 4.8,-0.63 6,-4.67 8.87,1.62 2.33,-1.35 1.43,-1.17 3.05,-3.63 2.67,-4.06 2.35,-4.22 4.55,-4.47 2.46,7.56 1.82,15.02 -4.31,19.4 -1.75,1.25 -1.51,4.51 -3.29,0.04 6.58,-2.82 6.53,-1.21 10.14,-8.1 4.73,4.35 2.77,-1.03 3.47,6.42l0.15 -11.58 -4.69 3.59c1.63,-6.63 4.45,-8.08 4.92,-12.35 0.5,-4.41 -1.36,-1.88 -1.16,-8.23 0.01,-0.18 0.08,-0.63 0.08,-0.83l0.05 -2.05c-0.04,-1.21 -5.04,-33.31 -5.14,-33.59 -5.73,-17.39 -29.4,-18.02 -37.16,-1.58l-3 6.35c-3.73,6.88 -6.88,-10.19 -20.51,23.57 -4.38,10.85 -6.58,28.18 -2.39,41.62z"/>
   <path class="fil0" d="M153.89 393.01c5.21,-4 1.45,-7.77 10.4,-6.81 1.52,9.4 1.78,17.67 -1.11,22.38 -1.49,-5.93 -1.34,-9.84 0.02,-16.53 -4.08,4.97 -5.54,1.53 -6.96,3.42l4.79 19.49c4.63,1.72 5.74,13.47 13.07,11.59l16.24 -12.82c-3.01,12.19 -5.96,-0.97 -3.75,18.51 -1.8,-1.69 -1.04,-0.89 -2.62,-2.76 -0.12,-0.14 -1.43,-1.96 -1.8,-2.47 3.48,5.49 1.46,7.62 1.32,9.07 -0.86,8.9 4.25,7.63 9.02,6.37l1.22 -6.61c-2.66,-2.22 1.29,-0.7 -1.21,-0.43 -0.1,0.01 -0.28,0.38 -0.7,0.44l1.04 -17.07c1.37,-4.4 -0.05,-1.57 2.52,-4.46l-1.09 16.72c-0.22,0.07 0.11,-0.27 0.15,-0.04 0.03,0.2 0.42,0.02 0.46,0.04 3.03,1.33 -1.89,-4.2 1.02,0.6 0.04,0.06 0.37,3.19 1.17,4.93 2.16,-3.84 6.49,-8.97 3.86,-17.75 -1.79,-5.96 -5.48,-3.78 -7.52,-9.92 -1.48,-4.48 -0.79,-8.72 -2.06,-13.47 -4.12,2.4 -0.12,-1.3 -2.82,4.16l-2.85 5.3c-1.65,-11.41 11.01,-27.31 -5.74,-28.24 -0.08,-0.29 0.08,-1.13 0.08,-0.91 0.01,0.09 1.1,-2.61 -1.63,-4.89l-2.03 -1.24c5.34,-0.69 9.58,0.29 14.55,0.89 -8.79,-5.38 -13.04,-3.97 -21.74,0.85l2.94 -3.71c10.08,-9.45 17.33,8.37 20.54,-6.32 -3.76,-3.79 4.03,-1.08 -3.61,-0.2 -13.77,1.6 1.71,-5.3 -12.41,-0.96 -5.64,1.74 -12.36,-5.37 -19.03,-7.39l-3.48 23.13c7.94,3.54 8.91,3.31 16.98,-1.61 -9.77,10.95 -6.93,3.45 -16.81,8.09l-0.42 10.63z"/>
   <path class="fil3" d="M190.93 370.5c-4.97,-0.6 -9.21,-1.58 -14.55,-0.89l2.03 1.24c2.73,2.28 1.64,4.98 1.63,4.89 0,-0.22 -0.16,0.62 -0.08,0.91 16.75,0.93 4.09,16.83 5.74,28.24l2.85 -5.3c2.7,-5.46 -1.3,-1.76 2.82,-4.16 1.27,4.75 0.58,8.99 2.06,13.47 2.04,6.14 5.73,3.96 7.52,9.92 2.63,8.78 -1.7,13.91 -3.86,17.75 -0.8,-1.74 -1.13,-4.87 -1.17,-4.93 -2.91,-4.8 2.01,0.73 -1.02,-0.6 -0.04,-0.02 -0.43,0.16 -0.46,-0.04 -0.04,-0.23 -0.37,0.11 -0.15,0.04l1.09 -16.72c-2.57,2.89 -1.15,0.06 -2.52,4.46l-1.04 17.07c0.42,-0.06 0.6,-0.43 0.7,-0.44 2.5,-0.27 -1.45,-1.79 1.21,0.43l-1.22 6.61c3.69,0.91 2.33,-1.77 1.68,3.12 3.67,4.45 0.28,7.67 -2.01,10.95 4.68,-1.09 0.97,1.37 3.74,-3.51 2.65,-4.66 4.06,-15.62 6.84,-19.82 -0.16,7.9 -4.1,14.04 -4.43,16.61 -0.84,6.79 -1.52,1.86 1.3,5.92l4.41 -15.71c4.74,7.14 -1.35,4.11 5.31,5.74 1.45,-6.29 0.69,-7.12 -0.54,-13.7 3.32,-2.1 3.16,-1.35 7.87,-1.78 7.12,-0.65 6.14,-0.13 9.43,-2.94 -4.84,-0.63 -14.88,-1.33 -17.75,-4.66 4.31,0.81 12.95,1.61 16.6,2.75 5.83,1.81 6.86,5.75 12.58,10.03 -3.76,-13.33 -7.96,-8.16 -19.34,-19.26l4.99 0.86c-11.68,-14.9 -15.87,-8.47 -0.47,-29.86 -0.7,-7.45 1.26,-2.07 -3.47,-6.42 -3.61,6.89 -3.56,5.28 -10.14,8.1 1.78,4.47 1.54,1.21 3.29,-0.04 6.13,-4.38 6.77,-11.84 4.31,-19.4 -2.2,0.25 -1.88,0.41 -4.55,4.47 -1.62,2.46 -0.72,2.28 -3.05,3.63 -2.87,-6.29 -4.07,-2.25 -8.87,-1.62 0.1,0.15 0.43,0.05 0.46,0.03 1.46,-1.14 0.66,7.32 0.85,-1.1 0,-0.12 -0.03,-0.68 -0.06,-0.82l-0.69 -1.7c-4,-6.33 -1.76,0.31 -1.82,-0.22 -0.02,-0.17 -0.13,0.44 -0.02,0.56 2.9,-2.17 3.15,-5.2 3.76,-11.22l-1.22 -13.08c-10.23,2.48 -4.11,6.25 -8.86,11.34 0,7.48 1.38,9.24 -1.71,10.8z"/>
   <path class="fil1" d="M457.65 512l54.35 0 0 -42.73 -14.32 15.07c-8.55,-2.31 -8.61,-7.32 -16.1,-1.39 -2.5,1.98 -3.31,3.45 -5.23,6.23 -3.33,4.83 -2.97,4.73 -6.27,5.11 -2.29,0.26 -5.67,-1.34 -7.05,-1.64 -6.95,-1.52 -2.32,-0.6 -8.56,1.2 -8.06,2.33 -5.52,-1.24 -13.69,-3.89 2.14,-1.65 3.28,-2.71 5.7,-4.38 0.57,-0.39 3.22,-2.19 3.48,-2.45 3.22,-3.18 1.2,-0.1 3.74,-5.15 -10.42,1.98 -16.36,6.1 -20.65,17.56 0.87,-0.26 5.7,-2.16 5.83,-2.17 2.48,-0.31 0.73,-1.12 5.06,1.93l7.34 6.76c5.64,5.61 3,4.12 6.37,9.94z"/>
   <path class="fil7" d="M119.96 491.24c24.01,-3.44 38.25,-5.64 62.54,-0.14l0.25 -30.78c-23.57,2.24 -38.59,5.76 -63.15,0.08l0.36 30.84z"/>
   <path class="fil0" d="M100.53 379.14c-1.68,1.28 -3.11,-0.21 -3.5,0 1.13,19.09 7.55,18.17 8.74,28.65 -1.88,-0.71 -4.06,-2.73 -4.48,-2.73l3.54 16.56c7.21,-0.34 16.99,-2.73 12.56,-11.09l-2.06 -3.15c6.13,-3.6 10.12,-10.82 12.38,-18.7 0.1,-0.38 0.23,-0.8 0.35,-1.17l3.44 -12.23c2.88,-14.09 -6.47,-7.05 -13.99,-13.43 -17.75,-15.04 -21.82,4.67 -16.98,17.29z"/>
   <path class="fil8" d="M488.03 324.85c-0.1,2.99 -1.15,2.21 0.83,6.73 2.58,5.91 9.97,-0.29 13.79,2.98 2.97,2.56 3.34,9.13 5.38,12.46 3.04,4.94 -0.08,1.93 3.97,2.73l0 -95.38c-2.96,-1.58 -2.52,1.87 -2.53,-1.62 -6.64,1.11 -5.16,13.9 -5.15,14.17 0.06,5.03 -2.11,-0.43 0.32,8.52 -2.37,0.66 0.92,2.53 -1.97,-0.38 -0.08,-0.08 -1.67,-2.71 -1.75,-2.85l2.33 9.66c-2.9,-3.15 -1.99,-7.26 -7.72,0.05 -1.32,-8.28 1.25,-6.48 -6.02,-6.48l6.44 9.11c3.91,3.23 8.04,0.02 6.02,8.31 -0.96,-2.73 -2.05,-2.5 -4.24,-3.44l-0.94 3.06c-2.18,-2.04 -9.9,3.72 -10.87,4.66 -3.73,3.61 -2.18,-0.1 -3.18,5.12l10.24 -0.45c-6.41,8.76 -7.38,1.72 -11.73,7.65 7.29,-3.39 5.69,-1.52 13,-3.22 -0.31,0.5 -0.76,0.45 -1.01,1.41l-5.31 6.67c5.06,-4.32 3.16,-4.73 8.86,-3.22l-8.23 12.56c-0.12,0.28 -0.3,0.84 -0.53,1.19z"/>
   <path class="fil1" d="M61.52 437.12c-3.05,-2.66 -4.02,-3.08 -10.25,-0.83 0.55,-4.79 -1.27,-1.63 4.47,-5.53 0.41,-0.28 0.88,-0.47 1.24,-0.69 0.38,-0.23 0.92,-0.36 1.31,-0.7l-6.24 0.19c-0.22,-0.01 -0.61,-0.04 -0.79,-0.05 -0.29,-0.02 -0.9,-0.11 -1.31,-0.21 2.62,-9.04 3.22,-1.51 4.99,-9.89l0.5 -2.18c1.41,-3.5 1.05,2.38 0.99,-2.81l-0.44 -2.64c-0.06,-0.37 -0.17,-1.08 -0.42,-1.52 -4.18,4.46 -3.72,4.71 -8.24,5.56 -6.55,1.22 -7.86,-0.7 -10.58,-3.85 -0.23,0.4 -0.34,1.07 -0.44,1.39 -3.07,10.47 -2.19,5.06 -4.4,8.27 1.43,2.66 2.79,4.77 3.58,3.5 -2.57,-3.29 -3.2,-2.76 -7.6,-3.82l-4.32 5.48c-6.22,4.16 -1.63,0.34 -3.91,0.24l-1.41 -0.02c-3.57,0.75 -6.43,2.53 -8.72,6.43 4.44,4.19 4.96,0.65 5.11,0.54 2.21,-1.59 -0.27,0.23 2.34,-2.59 0.57,-0.62 1.49,-0.56 1.84,-1.99 0.19,-0.74 0.64,-0.7 1.12,-0.88l-4.73 8.37c12.35,1.39 -1.17,1.35 7.6,7.87 1.48,-4.01 -3.29,-4.61 0.47,-5.86 1.44,-0.48 6.93,0.44 8.27,6.67 -2.21,1.2 -0.34,-0.34 -6.17,-1.77 6.34,13.99 -6.4,-10.55 2.93,4.23 1.88,2.97 1.28,-1.57 1.67,2.8l-5.9 -3.21c-2.29,3.64 -0.57,-1.31 -0.51,3.17 0.08,5.52 1.16,-0.31 0.51,1.3 -2.85,-6.95 -3.17,-6.98 -9.54,-4.57 1.71,6.78 0.32,2.18 3.89,5.22l3.15 2.56c5.09,3.05 5.58,-0.4 8.83,-0.24l7.57 3.07c0.02,0.01 13.51,16.86 15.75,-3.15 0.88,-7.82 0.25,-9.99 -1.79,-17l9.58 -0.86z"/>
   <path class="fil4" d="M512 13.37l0 -13.37 -32.37 0 -2.56 8.6c-4.76,0.88 -4.63,1.66 -9.43,-0.72 -2.31,6.65 -1.7,7.1 -8.38,6.69l3.49 8.38c1.07,-2.06 2.19,-4.83 3.57,-5.67 9.84,-5.93 4.49,-0.2 6.39,2.16 -3.82,1.6 -5.03,2.03 -7.92,4.55 1.29,6.43 2.8,6.02 3.6,11.43 10.94,-1.15 4.5,-2.13 12,-4.08 2.79,-0.73 8.15,1.65 11.38,-13.22 13.82,0.04 10.02,5.99 20.23,-4.75z"/>
   <path class="fil2" d="M79.97 459.61c-4.91,2.18 -5.13,3.67 -6.1,10.8 -0.91,6.73 -0.76,10.99 0.91,15.66 10.29,3.14 8.64,-2.74 13.16,0.01 -2.16,6.7 -8.68,3.12 -10.67,13.38 -2.62,13.44 8.08,10.49 10.41,12.54l4.39 0c1.88,-3.68 2.51,-1.32 7.24,-4.16 2.55,-14.39 -0.02,-15.27 -8.06,-20.14l-0.94 -8.33c3.69,-3.05 6.31,-1.13 8.37,-7.01 1.93,-5.55 -0.46,-8.9 -2.09,-11.96 -3.15,-1.61 -5.58,-2.22 -8.8,-2.71 -8.01,-1.22 -2.89,-2.57 -7.82,1.92z"/>
   <path class="fil7" d="M192.51 442.45c-4.77,1.26 -9.88,2.53 -9.02,-6.37 0.14,-1.45 2.16,-3.58 -1.32,-9.07 0.37,0.51 1.68,2.33 1.8,2.47 1.58,1.87 0.82,1.07 2.62,2.76 -2.21,-19.48 0.74,-6.32 3.75,-18.51l-16.24 12.82c-7.33,1.88 -8.44,-9.87 -13.07,-11.59 0.49,5.06 3.18,13.32 2.38,17.16 -3.74,2.59 -11.34,1.88 -15.83,1.63l12.54 -1.65c-4.72,-4.49 -11.93,-0.7 -6.15,-9.14 -3.76,2.72 -2.29,2 -6.64,3.5 1.78,-5.34 1.95,-3.93 1.15,-6.44 -5.99,7.64 -0.39,-2.19 -4.06,3.54 -3.95,6.15 0.71,-1.21 0.4,4.19 -5.76,25 -0.36,14.35 -16.82,27.3 2.2,1.36 1.03,0.98 5.38,-0.55 -4.22,5.17 -3.01,3.28 -1.58,5.74l6.45 -2.88c0.02,-0.14 0.25,-0.04 0.28,0.35l0.88 3.39c7.65,-1.44 3.44,-3.23 9.96,-0.08 -2.52,-9.15 -8,-13.01 -3.32,-21.81 4.35,-2.68 13.55,-3.49 18.3,-1.74 0.81,10.57 -2.78,5.19 -8.01,7.56 -5.3,2.4 -5.35,7.83 -0.99,12.54l3.99 3.55c0.36,-6.02 1.59,-14.48 6.61,-16.17l5.12 -0.99c-0.31,7.62 -1.43,10 3.82,10.45l1 -15.6c6.99,6.29 -3.15,2.41 6.22,9.22 -1.23,-5.98 -3.63,-13.33 -2.29,-18.39 1.37,9.98 3.22,14.61 5.45,23.27 0.15,-0.47 0.27,-1.72 0.37,-1.43 1.12,3.12 0.73,-2.17 0.95,-2.51l2.17 -2.33c4.16,-3.71 -1.63,2.7 2.33,-1.6 3.21,-3.48 0.36,3.92 1.42,-2.59z"/>
   <path class="fil4" d="M292.27 512l42.91 0c-5.84,-6.24 -0.6,-11.42 -0.23,-13.62 0.05,-0.26 -0.96,-10.24 -0.37,-13.92 11.71,-2.85 18.37,1.3 25.22,10.67l-4.22 -20.19c-2.29,1.82 -1.98,2.62 -4.23,5.07 -4.51,-5.73 -0.39,2.67 -1.59,-5.47l0.02 -1.79c-21.35,12.9 -27.47,4.5 -24.2,26.84 -6.61,-1.46 -7.4,-0.86 -10.44,-8.32 0.98,7.42 1.81,6.29 -0.84,12.97 -2.08,-3.28 -0.37,1.86 -0.88,-4.52 -1.05,-13.04 -1.64,-5.56 -2.24,-9.88 -0.08,-0.6 -0.4,-0.69 -0.6,-1.03 4.14,8.55 -0.21,3 -0.22,3.01 -6.59,1.27 1.06,0.09 -3.8,-1.84 1.19,7.04 2,6.68 0.13,11.26 -8.12,0.77 -4.12,0.1 -6.14,-2.71l-2.26 -5.12c-0.06,-0.53 -0.29,-0.67 -0.42,-0.76l-3.15 1.53c0.72,6.25 0.74,1.36 3.97,3.24 -5.74,5.75 2.35,3.75 -3.4,11.33 -5.49,-18.57 0.83,-12.57 -6.76,-15.22 4.77,12.34 -1.49,6.01 6.1,15.23l-1.89 0.87c-0.15,0.04 -0.6,0.17 -0.74,0.19l-1.17 -1.06c2.7,0.02 0.63,-0.71 1.44,3.24z"/>
   <path class="fil4" d="M131.26 512l46.17 0c0.65,-5.54 -0.38,-4.92 3.61,-7.03 -5.41,-0.61 -6.37,-0.93 -11.22,1.08 -8.73,-24.46 -7.57,-10.52 -12.67,-4.04l-5.08 -9.31 -21.47 1.48c-1.33,7.63 0.2,10.57 0.66,17.82z"/>
   <path class="fil4" d="M206.57 492.22c-0.52,4.57 -0.7,2.84 -1.25,4.13l-15.98 -3.2c0.93,5.68 2.61,7.49 -0.51,11.96 -9.04,-8.37 6.61,-6.49 -13.64,-10.58 -1.48,-0.3 -2.82,-1.35 -6.04,-1.62l1.94 8.05 12.67 -0.11c1.58,11.45 -3.37,1.03 3.8,11.15l35.87 0 -0.55 -6.48c-11.88,-7.94 1,-11.8 -20.37,-16.13 1.14,2.34 -1.78,1.44 4.06,2.83z"/>
   <path class="fil4" d="M512 408.31l0 -10.81c-7.48,-0.09 -12.16,-7.62 -16.48,-14.23 -1.84,0.58 -4.24,1.73 -5.8,2.13 -7.26,1.9 -12.08,-6.62 -15.11,-13.83l-1.94 -2.32c-4.42,0.4 -8.67,2.4 -13.31,0.49 -4.87,-2.01 0.01,-2.59 -3.6,-1.34 -5.12,1.78 -0.82,-1.48 -4.33,3.94l6.98 2.92c0.17,-0.37 0.66,0.4 0.97,0.64 -1.3,0.54 -0.66,0.54 -2.57,0.47l-7.84 -2.14c6.39,6.91 11.88,6 20.59,4.33 0.97,4.61 1.57,6.04 3.83,9.45 9.28,14.07 15.51,3.44 20.63,6.02 2.71,1.37 3.88,14.06 17.98,14.28z"/>
   <path class="fil1" d="M0 472.28l0 17.26c2.3,0.52 3.71,-0.15 4.83,0.07 7.48,1.48 2.26,0.53 3.91,2.96l4.71 9.62c0.12,0.46 0.19,1.11 0.28,1.49 0.08,0.39 0.12,1.02 0.21,1.52 9.38,-4.91 8.45,1.08 11.89,6.8l2.75 0c-1.99,-5.74 0.14,-0.61 -2.24,-4.48l-7.36 -6.86c6.01,-2.86 -0.22,0.67 4.08,-4.41 5.95,-7.03 8.58,-6.89 14.95,-5.32 -0.24,-0.6 -2.39,-6.45 -2.39,-6.46 -4.1,-9.12 -9.2,-12.81 -18.15,-12.92 -2.2,-9.19 -6.81,-15.1 -16.55,-12.83 3.55,4.21 5,1.22 9.19,6.2 2.04,2.43 4.86,5.94 6.37,10.4 5.21,-0.93 6.39,-2 10.27,2.62l4.93 6.38 -17.74 1.45c-0.96,-2.1 -1.66,-4.35 -2.41,-6.18 -2.32,-5.68 -5.77,-9.33 -11.53,-7.31z"/>
   <path class="fil4" d="M9.25 351.63l1.21 6.04c3.83,16.79 5.05,6.69 9.43,16.61 -2.24,4.72 -3.37,2.5 -6.84,8.58 -5.04,8.85 -5.01,3.58 -8.6,6.72 1.32,6.24 6.8,8.87 13.07,5.84 1.17,-4.72 1.2,-5.43 0.23,-11.41 15.85,2.04 14.35,-14.54 10,-19.31 -2.91,-3.19 -5.14,-1.91 -8.96,-1.35l-0.02 -11.11c-5.5,-2.82 -0.98,-1.15 -6.1,-4.61l-3.42 4z"/>
   <path class="fil9" d="M0 280.42c2.07,1.09 8.71,3.59 9.33,5.97l1.44 11.74 9.39 5.79c0.27,0.11 1.42,0.19 2.3,0.58 5.13,2.29 3.38,4.31 6.69,6.33 1.29,-2.18 1.37,-6.8 0.11,-13.56l-8.3 -4.73c-1.16,-0.86 -0.77,2.75 -2.06,-1.62 -0.21,-0.73 -0.75,-0.57 -1.1,-0.89 0.86,-6.11 0.31,-10.79 -3.54,-15.02 -4.49,-4.93 -6.78,-3.71 -12.99,-2.82 1.55,-6.34 -1.49,-3.86 2.54,-6.09 -0.25,0.34 -1.33,1.38 -1.7,1.53 -0.99,0.41 -1.67,0.72 -2.11,0.95m0 0.36c0.62,-0.32 1.23,-0.98 0,-1.68l0 13.16"/>
   <path class="fil10" d="M205.99 321.78l-8.88 -0.39c-0.44,5.71 -1.14,4.07 1,8.56 2.52,-1.12 0.13,0.89 1.85,-1.77l1.54 -2.98c0.12,-0.23 0.31,-0.78 0.53,-1.1 3.37,6.91 1.78,6.84 -1.79,10.72 -14.91,0.91 -7.24,-21.06 5.03,-17.56 13.57,3.87 0.2,33.4 0.2,33.42 5.36,-1.4 1.2,1.29 4.42,-3 1.22,-1.63 2.39,-4.31 2.99,-5.32 -0.67,7.52 -2.92,6.96 -4.62,13.92 11.81,-11.63 11.63,-54.15 -12.62,-41.38 -2.56,1.35 -6.32,6.7 -6.78,11.04 -1.74,16.37 22.92,21.61 17.13,-4.16z"/>
   <path class="fil11" d="M512 359.7l0 -9.95c-4.05,-0.8 -0.93,2.21 -3.97,-2.73 -2.04,-3.33 -2.41,-9.9 -5.38,-12.46 -3.82,-3.27 -11.21,2.93 -13.79,-2.98 -1.98,-4.52 -0.93,-3.74 -0.83,-6.73l-2.61 -1.51c-2.28,5.57 -7.69,9.33 -1.43,16.84 2.38,2.85 1.37,0.66 3.93,5.39l7.48 -2.08c5.16,9.1 7.03,15.92 16.6,16.21z"/>
   <path class="fil4" d="M0 144.07l0 20.3c13.21,6.55 6.83,8.31 12.66,15.22l0.59 -13.48 -10.36 -4.12c2.73,-2.61 7.75,-1.16 9.79,-1.46 1.41,-6.58 1.44,-5.48 0.67,-11.99 -3.03,5.11 -0.07,2.59 -5.74,5.38 2.72,-7.27 2.68,-10.37 5.55,-14.02 0.26,-0.33 1.47,-0.73 1.64,-1.5 0.14,-0.58 0.62,-0.43 0.91,-0.68l-1.12 -3.51c-0.04,-0.3 -0.16,-0.8 -0.16,-1.11l2.4 -5.18c-16.79,2.93 -10.4,10.71 -16.83,16.15z"/>
   <path class="fil12" d="M0 428.38l0 18.42c0.9,0.19 6.6,1.44 7.37,1.73 3.68,1.4 2.32,2.1 7.66,4.12 -2.37,-5.59 -1.97,-3.65 -4.32,-7.23 0.05,0.02 3.48,1.44 3.62,1.44 3.54,-0.05 0.61,0.43 2.85,-1.54 -3.04,-1.69 -4.48,-1.57 -7.57,-3.98 -3.23,-2.52 -2.13,-3.51 -5.73,-4.72l7.3 -6.06c5.76,-4.59 4.28,-5.17 11.99,-10.47 4.9,-3.37 2.06,2.22 4.24,-6.84l7.63 5.48c-0.73,-6.95 0.41,-6.45 -4.56,-7.76 -9.26,-2.43 -10.63,4.08 -12.4,5.59 -0.4,0.34 -3.05,1 -4.26,1.39 -8.18,2.66 -4.52,2.7 -8.73,9.69l-5.09 0.74z"/>
   <path class="fil5" d="M92.07 512l14.06 0 3.7 -3.35c-4.43,-5.52 -7.55,-12.14 -8.44,-19.42l12.65 -1.53c-3.19,-9.15 -5.71,3.03 -11.9,-12.56 -2.26,-5.71 -2.81,1.61 -1.06,-5.83 0.96,-4.1 1.66,-3.23 4.36,-5.67l-8.85 -3.24c1.63,3.06 4.02,6.41 2.09,11.96 -2.06,5.88 -4.68,3.96 -8.37,7.01l0.94 8.33c8.04,4.87 10.61,5.75 8.06,20.14 -4.73,2.84 -5.36,0.48 -7.24,4.16z"/>
   <path class="fil13" d="M0 489.54l0 22.46 25.83 0c-3.44,-5.72 -2.51,-11.71 -11.89,-6.8 -0.09,-0.5 -0.13,-1.13 -0.21,-1.52 -0.09,-0.38 -0.16,-1.03 -0.28,-1.49l-4.71 -9.62c-1.65,-2.43 3.57,-1.48 -3.91,-2.96 -1.12,-0.22 -2.53,0.45 -4.83,-0.07z"/>
   <path class="fil4" d="M512 63.83l0 -16.18 -5.05 11.23c-0.41,-0.09 -0.99,-0.8 -1.16,-0.37 -1.32,3.22 0.54,-5.09 -7.82,-0.08 -0.25,0.15 -0.63,0.33 -0.88,0.5 -1.6,1.08 -2.73,1.1 -4.1,5.43 -1.37,4.3 -1.14,5.93 -1.36,10.33l-8.07 1.47 2.12 5.85c2.86,-3.88 3.92,0.02 8.3,-7.77 3.17,-5.64 -1.37,-0.57 4.07,-6.18 -1.14,6.16 -1.15,7.65 -4.63,12.11 -1.51,1.93 -1.19,1.72 -2.67,2.88l-3.67 2.24c-0.24,0.14 -0.68,0.35 -1.01,0.58 0.71,0.47 -0.38,5.77 7.72,-2.31 7.78,-7.76 2.23,-9.53 11.22,-14.86 4.07,-2.4 3.17,-1.28 6.99,-4.87z"/>
   <path class="fil5" d="M0 192.7l0 11.97c7.67,2.28 5.43,12.52 10.29,16.39 3.27,-1.4 3.21,-0.21 3.06,-8.22 -0.72,-37.02 -0.75,-25.31 -13.35,-20.14z"/>
   <path class="fil4" d="M0 96.56l0 11.6 5.06 -2.28c3.79,5.31 18.28,-5.77 7.61,-21.02 -8.29,6.28 3.31,2.52 -12.67,11.7z"/>
  </g>
 </g>
</svg>
