<?xml version="1.0" encoding="UTF-8"?>
<!DOCTYPE svg PUBLIC "-//W3C//DTD SVG 1.1//EN" "http://www.w3.org/Graphics/SVG/1.1/DTD/svg11.dtd">
<!-- Creator: CorelDRAW 2021 (64-Bit) -->
<svg xmlns="http://www.w3.org/2000/svg" xml:space="preserve" width="512px" height="512px" version="1.1" style="shape-rendering:geometricPrecision; text-rendering:geometricPrecision; image-rendering:optimizeQuality; fill-rule:evenodd; clip-rule:evenodd"
viewBox="0 0 512 512"
 xmlns:xlink="http://www.w3.org/1999/xlink"
 xmlns:xodm="http://www.corel.com/coreldraw/odm/2003">
 <defs>
  <style type="text/css">
   <![CDATA[
    .fil0 {fill:#3F3F3F}
    .fil1 {fill:#D0BDB1}
    .fil2 {fill:#EFEFEF}
   ]]>
  </style>
 </defs>
 <g id="Layer_x0020_1">
  <metadata id="CorelCorpID_0Corel-Layer"/>
  <path class="fil0" d="M134.02 303.83c0,0 0.47,-263.46 0.47,-263.46l226.57 -0.17 1.34 232.44c40.39,-27.26 49.79,-40.74 134.89,-60.76l-1.42 -207.74c-12.75,-3.8 -453.96,-3.5 -495.87,-1.34 0.38,55.47 0.04,111.09 0.01,166.58 -0.05,143.72 78.6,105.27 134.01,134.45z"/>
  <path class="fil1" d="M495.87 4.14l1.42 207.74c-18.54,4.36 -35.14,7.94 -53.82,14.72l-35.84 15.69c-10.73,6.81 -5.86,3.66 -8.82,9.16 17.46,-1.08 54.67,-30.28 98.7,-32.99 -2.89,60.25 13.37,49.83 -44.62,72.13 -20.7,7.96 -69.91,25.81 -91.52,24.64l0.75 147.59c-16.96,-1.57 -96.69,-3 -109.26,0.77 -5.02,11.87 -5.25,28.06 -12.91,34.75 0.46,-16.53 8.25,-28.09 4.77,-35.96 -11.89,1.12 -5.86,-4.61 -9.86,9.52 -0.73,2.58 -1.7,12.29 -1.78,14.57l-4.66 12.97 -193.55 0.11c-0.37,-21.76 2.23,-50.88 5.05,-72.13 2.61,-19.66 9.2,-47.17 9.25,-65.24 -20.7,4.65 1.16,-4.94 -6.89,4.78 -10.35,12.5 -14.79,119.29 -14.82,132.46l-23.89 1.58c3.34,13.55 31.16,11.04 49.84,10.4 96.04,-3.31 235.12,-0.81 335.24,-0.81 22.63,0 45.26,0 67.89,0 69.78,-0.02 53.92,15.85 53.9,-145.69l-0.07 -309.57c0,-10.28 0.78,-22.93 0.21,-32.83 -1.54,-26.85 -11.52,-4.73 -8.95,-22.5 -0.35,9.75 1.09,0.52 -5.76,4.14z"/>
  <path class="fil2" d="M49.17 362.18c-0.05,18.07 -6.64,45.58 -9.25,65.24 -2.82,21.25 -5.42,50.37 -5.05,72.13l193.55 -0.11 4.66 -12.97c1.12,-9.42 -1.48,-14.7 3.48,-18.39l-16.28 -2.72 -0.02 -18.99 -16.29 -0.02 0 19.01 -19 0c-3.21,-8.39 -2.73,-7.95 -2.73,-18.99l-16.29 -0.02 0 19.01 -19 0 -2.71 -10.45c-2.72,-9.96 -1.86,-4.07 -5.64,-10.63 -0.42,-0.73 -4.19,-6.21 -2.6,-12.6 3.45,-13.86 -0.11,6.76 6.56,-10.11 4.36,-10.99 -0.79,-8.73 -1.1,-9.28 -4.43,-7.89 -3.11,10.88 -5.86,-11.87 -1.24,-10.26 2.03,-9.82 3.03,-11.48 5.81,-9.65 4.5,13.43 5.59,-13.18 -3.1,-2.54 -1.78,2.59 -10.82,-8.11 -4.91,-5.8 -8.11,-4.51 -13.62,-10.91 -14.76,-2.93 -31.81,-12.77 -45.08,-20.88 -9.58,-5.86 -3.75,-5.82 -14.66,-8.99l-6.57 27.09c-1.65,5.44 -3.69,7.56 -4.3,8.22z"/>
  <path class="fil0" d="M381.17 265.03c-23.84,17.61 -18.28,6.11 -19.8,50.2 21.61,1.17 70.82,-16.68 91.52,-24.64 57.99,-22.3 41.73,-11.88 44.62,-72.13 -31.13,1.91 -89.75,26.1 -116.34,46.57z"/>
  <path class="fil1" d="M98.41 144.44c-9.63,4.25 -5.77,9.28 -14.52,16.25 -8.21,6.54 -15.45,5.69 -23.02,3.15 2.86,-8.36 5.08,-11.05 10.71,-14.71l-2.95 10.8c12.43,2.18 11.57,1.43 19.54,-2.81 12.34,-40.6 -44.9,-32.68 -45.21,4.18 -0.26,31.53 56.88,27.23 55.45,-16.86z"/>
 </g>
</svg>
