<?xml version="1.0" encoding="UTF-8"?>
<!DOCTYPE svg PUBLIC "-//W3C//DTD SVG 1.1//EN" "http://www.w3.org/Graphics/SVG/1.1/DTD/svg11.dtd">
<!-- Creator: CorelDRAW 2021 (64-Bit) -->
<svg xmlns="http://www.w3.org/2000/svg" xml:space="preserve" width="512px" height="512px" version="1.1" style="shape-rendering:geometricPrecision; text-rendering:geometricPrecision; image-rendering:optimizeQuality; fill-rule:evenodd; clip-rule:evenodd"
viewBox="0 0 512 512"
 xmlns:xlink="http://www.w3.org/1999/xlink"
 xmlns:xodm="http://www.corel.com/coreldraw/odm/2003">
 <defs>
  <style type="text/css">
   <![CDATA[
    .fil3 {fill:#060101}
    .fil4 {fill:#2D2D2D}
    .fil1 {fill:#5A1314}
    .fil0 {fill:#FEC20E}
    .fil2 {fill:#FEFEFE}
   ]]>
  </style>
 </defs>
 <g id="Layer_x0020_1">
  <metadata id="CorelCorpID_0Corel-Layer"/>
  <g id="_2436527109824">
   <path class="fil0" d="M299.15 347.89c-1.2,7.49 -9.17,0.28 -15.9,4.11 2.01,3.21 9.47,1.7 13.51,1.7l-2.92 6.88c-0.22,0.59 -0.77,1.81 -1.02,2.48 -1.58,4.12 -3.42,13.37 -2.36,17.56 2.15,8.48 9.56,3.26 9.26,26.59 -0.01,1.18 4.39,29.55 2.97,40.66 0.02,-1 -0.36,-1.12 0.27,-2.64 0.94,-2.3 0.79,-1.62 1.79,-2.92 5.36,15.08 29.89,34.9 45.87,41.61 71.29,29.93 148.18,-22.6 143.56,-99.97 -2.88,-48.16 -38.57,-84.07 -80.97,-93.09 -56.74,-12.08 -96.93,22.24 -114.06,57.03z"/>
   <path class="fil1" d="M0 182.99l49.3 -47.93c8.5,-8.32 16.03,-15.78 24.49,-24.15 7.87,-7.78 18.85,-21.68 25.34,-24.4 0,16.1 -1.05,12.86 -21.18,32.4l-52.3 51.38c-8.36,8.22 -17.14,17.87 -25.65,25.11l0 43.96 210.88 -208.96c7.35,-7.35 24.94,-23.2 29.76,-30.4l-17.93 0 -39.04 39.03c-7.01,6.85 -13,12.85 -20,19.69 -13.81,13.47 -87.47,89.97 -97.24,96.15 -0.47,-13.41 -1.8,-9.57 13.83,-24.7 6.4,-6.2 11.71,-12.78 18.11,-18.99 12.87,-12.5 24.68,-24.22 37.41,-36.83 9.86,-9.77 71.52,-68.96 74.53,-74.35l-210.31 0 0 182.99z"/>
   <path class="fil2" d="M379.72 303.86c-44.1,6.59 -82.65,47.46 -74.44,99.88 6.82,43.56 47.14,81.12 99.26,73.72 43.82,-6.23 82.25,-46.95 74.69,-98.92 -6.42,-44.08 -47.26,-82.49 -99.51,-74.68z"/>
   <path class="fil3" d="M359.81 414.46c3.15,3.8 2.14,5.66 2.05,10.52l-0.1 -11.31c4.74,1.91 3.56,2.11 7.07,4.63 7.66,5.48 5.44,-0.85 10.77,9.76 4.58,9.13 20.48,25.73 18.56,31.52 6.68,3.88 15.32,6.17 24.31,6.71 -0.93,-13.74 1.46,-22.73 2.98,-35.73l24.41 -3.21 1.7 -2.61c-1.03,-0.35 -5.29,4.13 -23.98,-3.57 -16.93,-6.98 -32.91,0.56 -21.74,-19.15 7.03,-12.4 4.97,-26.87 6.52,-36.88 1.13,-7.32 6.91,-23.85 0.59,-30.44 -2.64,-2.76 -13.86,-3.13 -17.42,-3.19 3.96,-4.92 -0.4,-1.51 5.01,-3.69 0.49,-0.19 3.28,-0.13 3.94,-0.13 -1.38,4.55 -5.06,-1.99 -5.11,-2.56 1.27,-0.48 0.52,-0.63 3.83,-0.73 6.39,-0.19 10.43,4.31 14.08,8.24 1.03,-0.11 5.06,-0.96 5.24,-0.96l13.62 1.4c-7.71,-13.18 -15.53,-17.92 -35.5,-18.13 -19.6,-0.2 -29.18,7.02 -39.58,15.38 -8.48,6.82 -21.08,14.13 -29.28,25.76 -6.77,9.6 -14.28,26.29 -14.33,41.3 1.16,-1.44 -0.09,0.37 1.82,-2.51 11.18,-16.91 1.55,3.6 15.28,-16.84 2.39,11.07 -4.42,17.79 -4.68,30.82 -0.14,7 1.83,-0.49 -0.08,15.33 -0.71,5.86 -1.19,12.5 1.73,17.84 2.34,-2.85 2.53,-4.68 4.71,-7.25 3.72,-4.38 2.38,0.3 5.29,-4.86l9.38 -15.2c4.57,-0.83 -2.67,8.65 6.22,-6.13l2.69 5.87z"/>
   <path class="fil1" d="M332.3 481.36l-19 17.78c1.95,7.94 -0.12,4.14 -0.26,9.82 -0.02,0.56 0.35,2.41 0.48,3.04l198.48 0 0 -182.99 -19.5 19.15c2.99,13.1 6.9,20.17 7.79,35.83 3.42,60.24 -41.54,110.61 -99.58,114.26 -36.54,2.29 -46.69,-8.34 -68.41,-16.89z"/>
   <path class="fil2" d="M235.94 512c-3.21,-55.24 13.44,-96.48 39.09,-142.14 12.72,-22.65 -2.54,-12.46 10.63,-27.62 3.4,-3.91 1.64,0.42 4.31,-5.89 0.4,-0.94 0.6,-2 1.14,-3.01 1.7,-3.15 0.91,-2.03 3.01,-4l1.42 7.62c0.98,-0.51 2.17,-1.34 3.42,-2.12l4.96 -2.72c-1.22,4.98 -6.28,12.04 -4.77,15.77 17.13,-34.79 57.32,-69.11 114.06,-57.03 42.4,9.02 78.09,44.93 80.97,93.09 4.62,77.37 -72.27,129.9 -143.56,99.97 -15.98,-6.71 -40.51,-26.53 -45.87,-41.61 -1,1.3 -0.85,0.62 -1.79,2.92 -0.63,1.52 -0.25,1.64 -0.27,2.64l-2.14 0.04c1.67,4.37 1.82,26.69 2.63,33.93 1.34,11.94 3.12,18.31 4.34,30.16l6 0c-0.13,-0.63 -0.5,-2.48 -0.48,-3.04 0.14,-5.68 2.21,-1.88 0.26,-9.82l-3.02 -9.34 -1.8 -16.2 0 -12.8 6.4 6.48c4.1,1.69 7.38,5.58 10.2,8.87 2.81,1.23 5.07,2.74 7.22,5.21 21.72,8.55 31.87,19.18 68.41,16.89 58.04,-3.65 103,-54.02 99.58,-114.26 -0.89,-15.66 -4.8,-22.73 -7.79,-35.83l19.5 -19.15 0 -12.41c-7.18,6.11 -16.67,18.92 -24.67,22.79 -2.1,-4.86 -5.03,-9.29 -8.22,-13.38 -3.54,-4.55 -7.52,-7.41 -9.37,-12.41 -4.15,-1.12 -5.51,-3.22 -7.66,-6.36 -3.69,-1.5 -4.99,-2.07 -7.37,-5.16 -11.71,-6.79 -22.24,-13.26 -37.51,-16.56 -15.91,-3.45 -34.34,-3.98 -50.12,-0.36 -19.27,4.41 -31.62,11.73 -44.92,22.92 -12.61,10.63 -9.1,9.93 -14.01,14.15 -2.62,2.25 -5.72,3.91 -8.63,5.45 -1.71,-3.57 -4.13,-11.09 -5.12,-15.36 -5.21,3.81 -4.35,12.78 -8.33,18.41 -4.15,5.86 -0.17,-4.62 -4.78,5.5 -3.82,8.37 0.1,3.23 -7.37,6.81 0,25.15 -0.51,16.36 -12.8,40.96l-16.82 36.94c-12.19,33.87 -11.24,32.8 -14.99,65.65 -1.14,9.95 1.09,15.84 1.09,25.41l5.54 0z"/>
   <path class="fil1" d="M451.56 424.74c5.75,-3.33 -1.94,-2.8 3.56,-16.72 2.48,-6.26 3.59,-7.01 1.33,-11.77 10.57,-2.54 11.14,-3.68 4.63,-20.11 -3.14,-7.92 -3.32,-8.79 -9.06,-12.17 2.53,-10.73 0.34,-10.16 -4.53,-17.81 -4.84,-7.58 -4.67,-8.88 -11.35,-13.08l-13.62 -1.4c-0.18,0 -4.21,0.85 -5.24,0.96 -3.65,-3.93 -7.69,-8.43 -14.08,-8.24 -3.31,0.1 -2.56,0.25 -3.83,0.73 0.05,0.57 3.73,7.11 5.11,2.56 -0.66,0 -3.45,-0.06 -3.94,0.13 -5.41,2.18 -1.05,-1.23 -5.01,3.69 3.56,0.06 14.78,0.43 17.42,3.19 6.32,6.59 0.54,23.12 -0.59,30.44 -1.55,10.01 0.51,24.48 -6.52,36.88 -11.17,19.71 4.81,12.17 21.74,19.15 18.69,7.7 22.95,3.22 23.98,3.57z"/>
   <path class="fil4" d="M235.94 512l3.16 0c-1.06,-9.54 -2.13,-20.94 -0.17,-29.9 1.04,-37.99 18.88,-65.31 28.99,-93.28 0.9,5.9 -1.06,10.86 -3.56,15.66l2.23 0.75c1.57,0.89 1.5,-0.92 1,3.23 -0.39,3.29 -1.4,6.88 -2.04,10.1l-2.78 -0.22c-0.09,-0.29 -0.59,0.09 -0.85,0.22 1.95,9.24 2.33,17.71 -1.08,26.39l-3.21 -9.19c-1.97,10.39 3.38,14.02 1.37,25.8 -2.68,-4.31 -0.38,-1.76 -4.27,-3.87l3.84 15.91c0.21,0.12 0.57,0.27 0.66,0.31l2.6 0.62c-3.33,4.04 -1.22,8.36 -0.92,15.42 1.12,2.8 0.77,9.94 -0.6,11.33 -3.57,3.62 -0.27,-5.24 -4.05,3.33 -0.97,2.21 -0.91,4.99 -1.12,7.39l13.52 0 0.21 -2.34c-0.59,-0.87 -0.7,-0.89 -1.3,-2.55 -1.99,-5.51 -2.38,-13.4 1.34,-18.68l-3.65 -1.83c-5.61,-5.22 4.91,-21.22 5.75,-26.57 -3.72,2.31 -4.32,3.56 -7.48,5.86 0.93,-15.79 0.6,-24.94 8.47,-32.73l1.5 -1.36c0.12,-0.46 0.5,-0.48 0.79,-0.68 -0.47,23 -0.44,46.51 4.58,68.48 0.95,4.17 2.86,9.15 4.18,12.4l0.94 0c-5.93,-26.47 -8.65,-50.34 -7.31,-78.13 0.76,-15.93 6.73,-61.42 12.63,-73.4 -0.75,7.38 -4.11,17.74 -0.46,23.78 3.65,6.05 6.93,5.07 7.55,16.59 -2.84,-1.73 -5.07,-2.89 -6.77,-4.87 1.12,9.25 7.96,8.03 7.95,23.41 -0.02,12.74 -3.56,1.17 -1,10.93 1.39,5.27 3.6,4.59 1.99,11.62 -0.65,-1.57 -7.14,-9.51 -14.76,-10.86 5.35,9.73 17.06,15.09 14.13,32.78l-6.03 -5.96c1.24,12.21 9.88,8.72 8.03,33.98 -0.4,-2.05 -3.58,-3.82 -5.91,-5.6 1.5,10.33 12.1,14.28 8.79,25.73l4.7 0c-1.22,-11.85 -3,-18.22 -4.34,-30.16 -0.81,-7.24 -0.96,-29.56 -2.63,-33.93l2.14 -0.04c1.42,-11.11 -2.98,-39.48 -2.97,-40.66 0.3,-23.33 -7.11,-18.11 -9.26,-26.59 -1.06,-4.19 0.78,-13.44 2.36,-17.56 0.25,-0.67 0.8,-1.89 1.02,-2.48l2.92 -6.88c-4.04,0 -11.5,1.51 -13.51,-1.7 6.73,-3.83 14.7,3.38 15.9,-4.11 -1.51,-3.73 3.55,-10.79 4.77,-15.77l-4.96 2.72c-1.25,0.78 -2.44,1.61 -3.42,2.12l-1.42 -7.62c-2.1,1.97 -1.31,0.85 -3.01,4 -0.54,1.01 -0.74,2.07 -1.14,3.01 -2.67,6.31 -0.91,1.98 -4.31,5.89 -13.17,15.16 2.09,4.97 -10.63,27.62 -25.65,45.66 -42.3,86.9 -39.09,142.14z"/>
   <path class="fil2" d="M283.99 512l18.83 0c3.31,-11.45 -7.29,-15.4 -8.79,-25.73 2.33,1.78 5.51,3.55 5.91,5.6 1.85,-25.26 -6.79,-21.77 -8.03,-33.98l6.03 5.96c2.93,-17.69 -8.78,-23.05 -14.13,-32.78 7.62,1.35 14.11,9.29 14.76,10.86 1.61,-7.03 -0.6,-6.35 -1.99,-11.62 -2.56,-9.76 0.98,1.81 1,-10.93 0.01,-15.38 -6.83,-14.16 -7.95,-23.41 1.7,1.98 3.93,3.14 6.77,4.87 -0.62,-11.52 -3.9,-10.54 -7.55,-16.59 -3.65,-6.04 -0.29,-16.4 0.46,-23.78 -5.9,11.98 -11.87,57.47 -12.63,73.4 -1.34,27.79 1.38,51.66 7.31,78.13z"/>
   <path class="fil0" d="M222.71 0l-12.4 0c-3.01,5.39 -64.67,64.58 -74.53,74.35 -12.73,12.61 -24.54,24.33 -37.41,36.83 -6.4,6.21 -11.71,12.79 -18.11,18.99 -15.63,15.13 -14.3,11.29 -13.83,24.7 9.77,-6.18 83.43,-82.68 97.24,-96.15 7,-6.84 12.99,-12.84 20,-19.69l39.04 -39.03z"/>
   <path class="fil1" d="M0 267.52c10,-6.69 68.63,-70.33 83.58,-82.82l23.62 -22.46c9.03,-9.02 9.28,-4.94 9.28,-21.44 -6.22,1.66 -56.17,54.25 -61.76,59.84l-45.44 45.44c-8.89,8.88 -9.27,5.06 -9.28,20.68l0 0.76z"/>
   <path class="fil1" d="M469.74 313.6c1.85,5 5.83,7.86 9.37,12.41 3.19,4.09 6.12,8.52 8.22,13.38 8,-3.87 17.49,-16.68 24.67,-22.79l0 -43.96 -42.26 40.96z"/>
   <path class="fil2" d="M238.93 482.1c0.48,1.91 1.14,4.4 1.66,5.84 0.37,1 1.36,2.42 2.05,5.48 1.39,6.15 -1.16,7.52 1.84,11.75 2.46,-3.27 0.29,-3.88 2.36,-5.65 2.76,-2.36 -1.49,-0.57 4.09,2.66l-0.76 -9.4c1.21,-0.58 -0.8,-1.19 1.63,0.73l1.55 1.43c0.22,0.19 0.57,0.61 0.89,0.88 -0.94,-5.19 -0.98,-4.86 0.24,-7.07 2.2,6.17 0.03,4.38 5.36,5.45l1.07 -4.25c-0.3,-7.06 -2.41,-11.38 0.92,-15.42l-2.6 -0.62c-0.09,-0.04 -0.45,-0.19 -0.66,-0.31l-3.84 -15.91c3.89,2.11 1.59,-0.44 4.27,3.87 2.01,-11.78 -3.34,-15.41 -1.37,-25.8l3.21 9.19c3.41,-8.68 3.03,-17.15 1.08,-26.39 0.26,-0.13 0.76,-0.51 0.85,-0.22l2.78 0.22c0.64,-3.22 1.65,-6.81 2.04,-10.1 0.5,-4.15 0.57,-2.34 -1,-3.23l-2.23 -0.75c2.5,-4.8 4.46,-9.76 3.56,-15.66 -10.11,27.97 -27.95,55.29 -28.99,93.28z"/>
   <path class="fil2" d="M0 182.99l0 12.41c8.51,-7.24 17.29,-16.89 25.65,-25.11l52.3 -51.38c20.13,-19.54 21.18,-16.3 21.18,-32.4 -6.49,2.72 -17.47,16.62 -25.34,24.4 -8.46,8.37 -15.99,15.83 -24.49,24.15l-49.3 47.93z"/>
   <path class="fil2" d="M352.66 370.62l2.99 -13.75c-4.01,3.14 -13.96,14.85 -16.08,20.42l6.2 -4.01c-2.99,7.2 -12.28,16.41 -10.66,26.33l6.42 -6.12c-1.96,7.25 -4.58,14.42 -1.24,20.7 3.41,-1.73 2.93,-2.47 3.82,-2.91 6.2,-3.08 -2.34,4.83 4.27,-0.25 2.9,-3.7 3.19,-7.01 4.03,-12.67 3.06,4.84 2.38,3.82 4.29,2.16 6.86,-5.93 -0.46,-19.95 2.98,-26.24l2.75 9.29c2.8,-6.83 3.68,-8.46 3.02,-16.21l1.48 -0.42c0.1,-0.06 0.55,-0.22 0.66,-0.3 3.51,-2.56 0.35,-19.22 -0.94,-23.8l-1.59 -3.46c-6.65,11.87 -8.14,24.01 -10.41,28.33 -1.11,2.1 -0.85,1.63 -1.99,2.91z"/>
   <path class="fil1" d="M359.81 414.46c2.1,24.89 -10.44,26.51 -15.28,35.93 22.78,0.47 18.04,-8.11 53.63,9.19 1.92,-5.79 -13.98,-22.39 -18.56,-31.52 -5.33,-10.61 -3.11,-4.28 -10.77,-9.76 -3.51,-2.52 -2.33,-2.72 -7.07,-4.63l0.1 11.31c0.09,-4.86 1.1,-6.72 -2.05,-10.52z"/>
   <path class="fil1" d="M454.71 302.08c2.38,3.09 3.68,3.66 7.37,5.16 3.56,-5.42 33.32,-34.05 41.92,-42.6 7,-6.96 7.91,-5.51 8,-13.18l0 -6.26 0 -0.72c-5.67,3.8 -55.04,53.21 -57.29,57.6z"/>
   <path class="fil2" d="M268.87 509.66c1.19,-3.85 2.34,-7.45 4.05,-10l1.74 5.88c2.8,-3.03 0.63,1.51 1.74,-2.59 0.01,-0.04 0.31,-3.15 0.35,-3.48l2.12 0.13c-5.02,-21.97 -5.05,-45.48 -4.58,-68.48 -0.29,0.2 -0.67,0.22 -0.79,0.68l-1.5 1.36c-7.87,7.79 -7.54,16.94 -8.47,32.73 3.16,-2.3 3.76,-3.55 7.48,-5.86 -0.84,5.35 -11.36,21.35 -5.75,26.57l3.65 1.83c-3.72,5.28 -3.33,13.17 -1.34,18.68 0.6,1.66 0.71,1.68 1.3,2.55z"/>
   <path class="fil2" d="M324.85 376.38c4.45,-3.39 4.72,-6.63 8.47,-11.01 0.26,-0.3 1.05,-1.18 1.33,-1.46 1.85,-1.83 0.23,-0.54 2.5,-2.13l-7.23 11.86c7.99,-0.58 2.84,-0.02 9.13,-3.9 11.51,-7.1 18.33,-22.39 24.85,-31.37 3.13,-4.32 3.02,-1.82 5.16,-7.36 -9.7,1.04 -21.45,10.96 -27.37,17.05 -6.21,6.41 -14.61,15.31 -16.84,28.32z"/>
   <path class="fil0" d="M239.1 512l16.04 0c0.21,-2.4 0.15,-5.18 1.12,-7.39 3.78,-8.57 0.48,0.29 4.05,-3.33 1.37,-1.39 1.72,-8.53 0.6,-11.33l-1.07 4.25c-5.33,-1.07 -3.16,0.72 -5.36,-5.45 -1.22,2.21 -1.18,1.88 -0.24,7.07 -0.32,-0.27 -0.67,-0.69 -0.89,-0.88l-1.55 -1.43c-2.43,-1.92 -0.42,-1.31 -1.63,-0.73l0.76 9.4c-5.58,-3.23 -1.33,-5.02 -4.09,-2.66 -2.07,1.77 0.1,2.38 -2.36,5.65 -3,-4.23 -0.45,-5.6 -1.84,-11.75 -0.69,-3.06 -1.68,-4.48 -2.05,-5.48 -0.52,-1.44 -1.18,-3.93 -1.66,-5.84 -1.96,8.96 -0.89,20.36 0.17,29.9z"/>
   <path class="fil1" d="M308.48 473.6l1.8 16.2c4.24,-2.15 11.11,-9.94 14.8,-13.65 -2.82,-3.29 -6.1,-7.18 -10.2,-8.87l-6.4 6.32z"/>
   <path class="fil0" d="M310.28 489.8l3.02 9.34 19 -17.78c-2.15,-2.47 -4.41,-3.98 -7.22,-5.21 -3.69,3.71 -10.56,11.5 -14.8,13.65z"/>
   <path class="fil2" d="M380.52 425.86l5.43 -2.31c-3.39,3.09 -2.34,1.52 -4.1,5.03l2.01 2.31c11.56,-10.12 12.2,-1.48 14.78,-9.77 -0.97,-0.5 0.17,-2.45 -8.07,-0.3 3.11,-3.36 2.67,-0.68 5.02,-5.06 -5.33,-0.28 -16.04,1.96 -15.07,10.1z"/>
   <path class="fil0" d="M268.87 509.66l-0.21 2.34 14.39 0c-1.32,-3.25 -3.23,-8.23 -4.18,-12.4l-2.12 -0.13c-0.04,0.33 -0.34,3.44 -0.35,3.48 -1.11,4.1 1.06,-0.44 -1.74,2.59l-1.74 -5.88c-1.71,2.55 -2.86,6.15 -4.05,10z"/>
  </g>
 </g>
</svg>
