<?xml version="1.0" encoding="UTF-8"?>
<!DOCTYPE svg PUBLIC "-//W3C//DTD SVG 1.1//EN" "http://www.w3.org/Graphics/SVG/1.1/DTD/svg11.dtd">
<!-- Creator: CorelDRAW 2021 (64-Bit) -->
<svg xmlns="http://www.w3.org/2000/svg" xml:space="preserve" width="512px" height="512px" version="1.1" style="shape-rendering:geometricPrecision; text-rendering:geometricPrecision; image-rendering:optimizeQuality; fill-rule:evenodd; clip-rule:evenodd"
viewBox="0 0 512 512"
 xmlns:xlink="http://www.w3.org/1999/xlink"
 xmlns:xodm="http://www.corel.com/coreldraw/odm/2003">
 <defs>
  <style type="text/css">
   <![CDATA[
    .fil3 {fill:#6E0901}
    .fil0 {fill:#9D1604}
    .fil4 {fill:#DE3A20}
    .fil2 {fill:#E53608}
    .fil1 {fill:#F57D20}
   ]]>
  </style>
 </defs>
 <g id="Layer_x0020_1">
  <metadata id="CorelCorpID_0Corel-Layer"/>
  <g id="_2436527399104">
   <path class="fil0" d="M336.25 460.35c-16.94,15.47 -103,34.64 -131.41,43.47l-38.01 8.18 345.17 0 0 -74.86c-7.1,4.08 -13.24,8.45 -20.23,13.07 -6.7,4.43 -12.97,8.24 -19.51,12.52 -18.36,12.01 -18.83,20.53 -33.86,31.74 -3.19,-5.88 -6.32,-18.59 -6,-26.63 -1.24,-13.9 -13.59,-49.1 -8.83,-59.83 0.62,-2.69 0.85,-1.6 -2.55,-1.6 -0.31,7.64 -3.12,8.03 -8.08,11.4 -19.64,13.34 -54.95,37.72 -76.69,42.54z"/>
   <path class="fil0" d="M0 123.19c4.66,0 3.41,0.96 2.3,-3.97 -0.12,-15.35 30.13,-43.49 36.87,-51.27 2.4,-2.77 1.35,-1.21 2.18,-3.3 -4.79,-4.21 -22.17,-10.46 -28.41,-13.97 -6.04,-1.71 -8.18,-2.73 -11.63,-6.91 2.66,-1.19 3.06,-0.84 6.03,-1.86l5.73 -2.27c0.35,-0.15 0.8,-0.31 1.14,-0.46 5.09,-2.3 1.76,0.43 5.21,-3.65 0.12,-0.15 1.32,-1.91 1.9,-2.7 5.81,-7.91 12.41,-17.01 20.28,-22.07l4.7 18.17 5.09 28.37c9.88,-7.75 36.83,-26 54.03,-29.68 12,-10.14 52.02,-18.92 70.38,-23.07l18.28 -4.55 -194.08 0 0 123.19z"/>
   <path class="fil1" d="M166.83 512l38.01 -8.18c-10.26,-5.58 -28.74,-2 -40.31,-6.22 6.32,-3.86 68.6,-13.35 81.84,-16.18 27.11,-5.81 54.33,-13.94 79.73,-19.08l10.15 -1.99c21.74,-4.82 57.05,-29.2 76.69,-42.54 4.96,-3.37 7.77,-3.76 8.08,-11.4l-2.32 -9.62c2.23,-2.86 -3.92,-4.79 6.57,-1.49 1.7,0.54 5.73,2.75 6.74,3.43 13.3,0.73 36.91,-31.98 44.77,-42 12.11,-15.44 24.37,-33.81 33.31,-54.69 -0.48,0.21 -1.04,0.52 -1.4,0.72l-3.75 2.15c-2.55,1.59 0.38,0 -2.96,2.12 -3.84,4.23 -7.11,6.91 -11.17,11 -4.22,4.25 -4.98,7.11 -9.46,11.28l-40.17 35.11c-2.86,2.53 -1.86,2.05 -5.1,4.44 -4.3,3.19 -7.6,5.84 -11.87,9.02 -4.81,3.59 -7.68,6.1 -11.14,9.68l9.62 -16.36c-25.36,15.18 -48.52,34.17 -83.46,51.24l-32 14.36c-45.94,24.01 -171.53,52.18 -222.66,60.57 -16.33,2.68 -69.88,13.03 -82.97,13.03l0 1.6 2.58 0 2.58 0 2.58 0 2.59 0 2.58 0 2.58 0 2.58 0 2.58 0 2.59 0 2.58 0 2.58 0 2.58 0 2.58 0 2.58 0 2.58 0 2.58 0 2.59 0 2.58 0 2.58 0 2.58 0 2.58 0 2.59 0 2.58 0 2.58 0 2.58 0 2.58 0 2.58 0 2.59 0 2.58 0 2.58 0 2.58 0 2.58 0 2.58 0 2.58 0 2.59 0 2.58 0 2.58 0 2.58 0 2.58 0 2.58 0 2.59 0 2.58 0 2.58 0 2.58 0 2.58 0 2.59 0 2.58 0 2.58 0 2.58 0 2.58 0 2.58 0 2.59 0 2.58 0 2.58 0 2.58 0 2.58 0 2.58 0 2.59 0 2.58 0 2.58 0 2.58 0 2.58 0 2.58 0 2.59 0z"/>
   <path class="fil0" d="M510.09 302.04c-8.94,20.88 -21.2,39.25 -33.31,54.69 -7.86,10.02 -31.47,42.73 -44.77,42l0.61 2.14c10.83,-0.8 50.44,17.02 57.69,22.69l21.69 9.73 0 -132.5c-1.1,2.51 0.51,0.98 -1.91,1.25z"/>
   <path class="fil2" d="M326.1 462.34c-25.4,5.14 -52.62,13.27 -79.73,19.08 -13.24,2.83 -75.52,12.32 -81.84,16.18 11.57,4.22 30.05,0.64 40.31,6.22 28.41,-8.83 114.47,-28 131.41,-43.47l-10.15 1.99z"/>
   <path class="fil1" d="M112.91 38.4l33.69 -11.81c21.42,-7.18 94.86,-24.99 114.2,-24.99l-66.72 -1.6 -18.28 4.55c-18.36,4.15 -58.38,12.93 -70.38,23.07 -17.2,3.68 -44.15,21.93 -54.03,29.68l1.47 8.21c-1.82,0.88 0.51,0.44 -2.61,0.3 -0.39,-0.02 -1.66,-0.23 -2.13,-0.29 -3.8,-0.48 -0.64,-0.96 -6.77,-0.87 -0.83,2.09 0.22,0.53 -2.18,3.3 -6.74,7.78 -36.99,35.92 -36.87,51.27 3.41,-7.81 1.38,-3.31 5.39,-3.85 3.07,-5.57 27.15,-26.91 34.63,-33 2.5,-2.03 4.18,-2.78 6.62,-4.72l5.59 -5.05 3.07 -1.27c2.3,-0.92 0.27,0.14 2.69,-1.57 2.02,-1.42 1.73,-1.4 3.47,-2.75l49.15 -28.61z"/>
   <path class="fil3" d="M12.94 50.68c6.24,3.51 23.62,9.76 28.41,13.97 6.13,-0.09 2.97,0.39 6.77,0.87 0.47,0.06 1.74,0.27 2.13,0.29 3.12,0.14 0.79,0.58 2.61,-0.3l-1.47 -8.21 -5.09 -28.37 -4.7 -18.17c-7.87,5.06 -14.47,14.16 -20.28,22.07 -0.58,0.79 -1.78,2.55 -1.9,2.7 -3.45,4.08 -0.12,1.35 -5.21,3.65 -0.34,0.15 -0.79,0.31 -1.14,0.46l-5.73 2.27c-2.97,1.02 -3.37,0.67 -6.03,1.86 3.45,4.18 5.59,5.2 11.63,6.91zm-5.25 64.69c-4.01,0.54 -1.98,-3.96 -5.39,3.85 1.11,4.93 2.36,3.97 -2.3,3.97l0 0.31 0 5.01c0.11,1.15 0.48,1.79 1.6,4.3 1.61,4.85 1.06,4.6 4.07,8.96 4.64,6.74 2.36,3.76 5.53,3.84 1.29,3.09 -0.9,3.74 9.57,8.03 3.54,1.45 8.12,2.77 12.83,3.16 0,-7.63 -1.1,-6.66 -1.58,-12.82 -0.37,-4.65 -0.02,-10.88 -0.02,-15.7l0 -5.93c1.28,-1.85 4.24,-14.68 4.8,-17.96 2.01,-2.37 1.9,-4.18 3.72,-7.8 1.84,-3.69 3.14,-5.55 5.35,-9.12 3.82,-6.17 8.87,-10.72 11.73,-16.14l-3.07 1.27 -5.59 5.05c-2.44,1.94 -4.12,2.69 -6.62,4.72 -7.48,6.09 -31.56,27.43 -34.63,33z"/>
   <path class="fil4" d="M497.6 260.79c-2.1,-5.15 -0.18,-2.61 -4.28,-7.03 -3.03,-3.25 -2.81,-3.06 -6.89,-4.16 -5.42,-7.29 -20.31,-11.2 -33.63,-11.2 0.63,7.58 3.02,13.77 3.26,22.35 0.24,8.87 -0.06,18.3 -0.06,27.24l-1.6 14.4c-1.71,3.85 -2.05,8.42 -3.16,12.82 -1.41,5.56 -3.15,10.46 -4.84,15.98 -2.19,1.96 -3.49,6.95 -4.78,9.6 -1.76,3.63 -3.21,6.71 -5.34,10.69 -4.15,7.78 -8.84,13.28 -13.59,19.72l-9.62 16.36c3.46,-3.58 6.33,-6.09 11.14,-9.68 4.27,-3.18 7.57,-5.83 11.87,-9.02 3.24,-2.39 2.24,-1.91 5.1,-4.44l40.17 -35.11c4.48,-4.17 5.24,-7.03 9.46,-11.28 4.06,-4.09 7.33,-6.77 11.17,-11 3.34,-2.12 0.41,-0.53 2.96,-2.12l3.75 -2.15c0.36,-0.2 0.92,-0.51 1.4,-0.72 2.42,-0.27 0.81,1.26 1.91,-1.25l0 -0.44 0 -0.44c-0.01,-9.19 -0.29,-20.69 -4.8,-24.72 -1.42,-4.27 -1.44,-5.1 -3.81,-9.19 -0.38,-0.65 -2.34,-3.33 -2.58,-3.55 -2.9,-2.68 0.21,-1.44 -3.21,-1.66zm-74.03 147.22c-4.76,10.73 7.59,45.93 8.83,59.83 -0.32,8.04 2.81,20.75 6,26.63 15.03,-11.21 15.5,-19.73 33.86,-31.74 6.54,-4.28 12.81,-8.09 19.51,-12.52 6.99,-4.62 13.13,-8.99 20.23,-13.07l0 -3.85 -21.69 -9.73c-7.25,-5.67 -46.86,-23.49 -57.69,-22.69l-0.61 -2.14c-1.01,-0.68 -5.04,-2.89 -6.74,-3.43 -10.49,-3.3 -4.34,-1.37 -6.57,1.49l2.32 9.62c3.4,0 3.17,-1.09 2.55,1.6z"/>
  </g>
 </g>
</svg>
