<?xml version="1.0" encoding="UTF-8"?>
<!DOCTYPE svg PUBLIC "-//W3C//DTD SVG 1.1//EN" "http://www.w3.org/Graphics/SVG/1.1/DTD/svg11.dtd">
<!-- Creator: CorelDRAW 2021 (64-Bit) -->
<svg xmlns="http://www.w3.org/2000/svg" xml:space="preserve" width="512px" height="512px" version="1.1" style="shape-rendering:geometricPrecision; text-rendering:geometricPrecision; image-rendering:optimizeQuality; fill-rule:evenodd; clip-rule:evenodd"
viewBox="0 0 512 512"
 xmlns:xlink="http://www.w3.org/1999/xlink"
 xmlns:xodm="http://www.corel.com/coreldraw/odm/2003">
 <defs>
  <style type="text/css">
   <![CDATA[
    .fil0 {fill:#040B51}
    .fil3 {fill:#0CAEBB}
    .fil2 {fill:#28B1D7}
    .fil4 {fill:#F10D5E}
    .fil1 {fill:#FDC925}
   ]]>
  </style>
 </defs>
 <g id="Layer_x0020_1">
  <metadata id="CorelCorpID_0Corel-Layer"/>
  <g id="_2436747542128">
   <path class="fil0" d="M0 0l512 0 0 512 -512 0 0 -512zm127.62 341.39l111.32 9.76c9.43,0.76 18.56,1.82 28.17,2.22 8.77,0.36 18.68,1.91 27.71,2.38 9.68,0.5 18.87,1.75 28.15,2.28 3.07,0.17 27.15,1.86 28.01,2.64 0.31,0.59 0.12,-0.56 0.39,1.16 0.42,2.63 -2.8,16.13 -3.12,20.37 7.57,-3.92 24.66,-21.71 29.11,-27.48 11.04,-14.34 13.71,-18.96 21.58,-35.59 12.83,-27.09 16.08,-65.14 8.57,-97.28 -13.25,-56.59 -58.5,-101.23 -114.32,-114.37 -72.88,-17.16 -133.09,20.14 -160.83,59.43 -15.35,21.73 -28.64,50.73 -29.4,84.81 -0.42,18.78 1.6,33.97 6.46,50.59 3.64,12.43 11.32,29.81 18.2,39.08z"/>
   <path class="fil1" d="M0.31 442.64l-0.31 0 0 69.36 110.03 0 -0.17 -0.3 -1.72 0.06c-0.52,-1.18 -1.05,-2.14 -2.2,-3.18 -0.15,-1.9 -0.15,-0.71 -1.25,-2.25l-6.43 -10.67c-1.55,-2.48 -2.12,-1.55 -3.94,-2.88 -2.13,-1.55 -0.65,-3.18 -1.67,-5.65l-1.87 -2.76c-0.04,-0.1 -0.09,-0.21 -0.14,-0.31 -1.7,-3.66 -1.82,-2.68 -3.28,-5.21 -0.49,-0.85 -0.67,-1.46 -1.21,-2.24 -2.15,-3.1 -0.92,-2.21 -1.92,-3.64l-0.38 -0.42c-0.06,-0.06 -0.15,-0.15 -0.21,-0.21 -1.35,-1.47 -2.35,-2.49 -3.03,-4.2 -0.88,-2.26 -2.77,-4.16 -3.94,-6.34 -0.47,-0.87 -0.75,-1.42 -1.2,-2.25 -0.05,-0.09 -0.11,-0.2 -0.16,-0.29l-10.65 -16.62c-0.5,-0.86 -0.8,-1.37 -1.18,-2.22l-2.54 -3.35c-2.1,-3.86 -4.62,-7.58 -7.06,-11.37l-14.23 -22.47c-1.68,-2.66 -5.39,-9.2 -7.22,-11.12 -2.06,1.64 -30.13,48.21 -32.1,49.84l-0.02 0.69zm188.71 -27.14c-0.38,-2.1 -10.78,-9.49 -12.68,-11.16l-2.46 -2.24c-2.4,-1.99 -2.99,-1.73 -3.42,-3.93 26.21,0.26 52.9,0.78 78.72,0.88 25.99,0.11 51.66,1.12 78.07,1.23l7.07 5.61c1.59,0.98 2.5,1.69 3.76,2.69 1.3,1.02 2.63,1.84 3.68,2.77l1.16 -0.37 2.01 -10.8 2.29 -0.63c-0.32,-1.24 -0.29,-1.23 -1.4,-2.14 -0.05,-0.04 -0.18,-0.11 -0.26,-0.18 0.25,-2.57 1.04,-7.17 1.76,-9.24l0.93 -5.79c0.32,-4.24 3.54,-17.74 3.12,-20.37 -0.27,-1.72 -0.08,-0.57 -0.39,-1.16 -0.86,-0.78 -24.94,-2.47 -28.01,-2.64 -9.28,-0.53 -18.47,-1.78 -28.15,-2.28 -9.03,-0.47 -18.94,-2.02 -27.71,-2.38 -9.61,-0.4 -18.74,-1.46 -28.17,-2.22l-111.32 -9.76c-0.59,0.95 -1.26,0.51 -3.02,0.36 -1.05,-0.1 -2.32,-0.15 -3.24,-0.32l-20.29 -1.58c0.95,2.56 54.23,74.69 55,75.72l32.95 -0.07zm238.62 96.01l-6.07 0.18 -0.01 0.31 90.44 0 0 -101.41 0 -1.08c-1.05,-0.25 -0.55,-0.05 -1.22,-0.82 -1.53,-1.75 -9.96,-16.95 -12.05,-18.29 -3.08,5.85 -20.04,31.66 -25.12,39.71 -1.09,1.73 -2.37,3.99 -3.47,5.4 -0.71,1.32 -3,5.25 -3.98,5.81 -0.13,0.32 -0.49,1.31 -0.62,1.56l-0.34 0.54c-0.05,0.08 -0.13,0.17 -0.18,0.25 -0.05,0.07 -0.14,0.16 -0.19,0.24l-23.08 36.68c-0.97,1.69 -1.5,2.48 -2.66,4.2 -0.05,0.07 -0.12,0.17 -0.17,0.25l-0.31 0.55c-0.06,0.11 -0.21,0.46 -0.27,0.57l-3.36 5.11c-0.52,0.88 -1.01,1.38 -1.45,1.98 -1.41,1.88 0.08,0.98 -2.59,4.68l-4.94 7.46c-0.36,0.48 -0.44,0.53 -0.73,0.98 -1.94,3.02 -2.1,2.74 -2.15,4.96l4.52 0.18zm84.18 -415.74l0.18 -0.08 0 -95.69 -85.56 0 -4.78 0 0.07 0.31 3.52 -0.16c0.63,0.44 0.36,0.26 0.88,0.81 0.75,0.79 0.07,-0.02 0.78,0.93 0.67,0.88 0.72,1.19 1.32,2.12l21.67 34.2c3.06,4.25 5.58,9.28 8.21,12.69l5.48 8.58c1.09,1.67 -0.96,-1.6 0.33,0.52 0.05,0.09 0.11,0.2 0.16,0.28l2.22 3.32c1.06,1.77 0.69,1.9 2.6,4.24l1.25 2.25 28.7 45.41c3.15,-3.65 11.14,-18.15 12.97,-19.73zm-511.82 13.64l0.54 -0.04c1.91,-1.92 4.59,-6.94 6.25,-9.56 2.11,-3.35 4.17,-6.48 6.3,-9.9 4.23,-6.77 8.29,-13.45 12.62,-20.05 0.87,-0.59 1.33,-2 1.93,-2.99l3.46 -5.48c1.36,-2.47 2.12,-2.84 2.71,-4.11 0.45,-0.98 0.47,-1.56 1.01,-2.53l1.61 -2.08c2.02,-2.46 3.14,-5.09 3.98,-6.28l3.67 -5.71c0.06,-0.06 0.14,-0.16 0.19,-0.23 0.08,-0.1 0.3,-0.39 0.37,-0.49l16.49 -26.21c0.05,-0.08 0.13,-0.18 0.18,-0.25l2.51 -3.88c1.24,-2.13 5.01,-7.72 5.48,-9.25l0.28 -0.37 -69.58 0 0 109.41z"/>
   <path class="fil2" d="M189.02 415.5c1.91,0.32 5.21,3.59 6.95,5.06l13.45 11.3c2.6,2.24 4.99,1.4 11.17,1.39l98.98 0c16.48,0 33.27,0.31 49.69,-0.03 -1.15,-1.98 -19.62,-15.41 -22.79,-18.08 -1.34,-1.13 -2.14,-1.92 -3.51,-2.55l-0.04 -1.61 -1.16 0.37c-1.05,-0.93 -2.38,-1.75 -3.68,-2.77 -1.26,-1 -2.17,-1.71 -3.76,-2.69l-7.07 -5.61c-26.41,-0.11 -52.08,-1.12 -78.07,-1.23 -25.82,-0.1 -52.51,-0.62 -78.72,-0.88 0.43,2.2 1.02,1.94 3.42,3.93l2.46 2.24c1.9,1.67 12.3,9.06 12.68,11.16z"/>
   <path class="fil3" d="M0 442.64l0.31 0 0.02 -0.69c0.61,-18.26 0.07,-37.45 0.05,-55.82l0 -126.73c0.02,-4.54 0.49,-3.02 5.64,-8.48 5.21,-5.53 9.48,-9.56 14.03,-13.98l21.76 21.35c3.12,1.05 9.89,-7.59 12.96,-10.67 2.28,-2.27 9.82,-10.42 11.79,-11.51l14.05 13.94c1.27,1.28 3.29,4.12 5.6,2.12 2.49,-2.43 -4.47,-7.78 -8.18,-11.48 -14.22,-14.21 -9.14,-13.48 -23.41,0.39 -2.1,2.05 -10.27,10.75 -11.95,11.49 -5.23,-4.76 -11.19,-11.19 -16.66,-16.6 -7.4,-7.33 -4.86,-6.49 -16.1,4.32 -3.18,3.05 -6.42,6.62 -9.4,9.35l-0.11 -120.57 42.62 13.12c-0.84,-1.57 -24.09,-20.79 -27.47,-23.77l-9.58 -7.92 -2.8 7.89c-0.88,2.83 -1.65,5.53 -2.55,8.28l-0.08 -17.3 -0.54 0.04 0 333.23zm421.93 -428.9l-0.2 -13.43 -0.07 -0.31 -44.35 0c1.44,3.16 2.76,50.78 3.17,58.59l40.04 -35.34c2.22,-1.87 1.55,-6.4 1.41,-9.51zm8.12 341.66c0.09,0.05 0.23,0.02 0.28,0.15 0.05,0.14 0.22,0.14 0.29,0.16l11.16 2.2c8.67,1.58 30.13,5.96 36.4,6.42l-4.16 -18.82 -43.97 9.89zm41.31 -239.27l21.36 -0.02c-0.86,-2.64 -8.86,-18.17 -10.59,-21.29 -1.14,0.8 -0.79,0.72 -1.51,2.22l-3.95 7.99c-1.28,2.63 -4.76,8.65 -5.31,11.1zm-156.5 -91.94l23.41 0.03c-0.16,-0.66 -9.42,-20.94 -11.44,-22.07 -1.46,0.51 -0.41,-0.07 -1.31,0.91 -2.23,2.45 -10.59,19.99 -10.66,21.13zm-136.32 15.24l14.52 -0.03c-0.66,-3.69 -5.45,-10.81 -6.86,-14.78 -1.03,0.7 -0.11,-0.12 -0.79,0.72l-3.23 6.2c-1.11,2.25 -3.19,5.38 -3.64,7.89zm-69.27 445.97l0.59 26.3 0.17 0.3 311.53 0 0.01 -0.31c0.06,-7.23 -0.31,-14.43 0.67,-21.1 0.32,-2.24 -0.11,-4.63 0.13,-6.82 -1.56,-0.53 -3.85,-2.97 -5.6,-4.52 -5.11,-4.53 -35.39,-31.75 -36.28,-31.89l-2.78 64.25 -223.97 0.07 -0.75 -17.17 2.28 -0.86c-1.14,-4.57 -2.66,-3.08 -2.79,-9.81 -0.2,-10.57 -1.42,-23.26 -1.64,-34.85 -1.18,0.43 -18.08,15.78 -20.78,18.17l-20.79 18.24zm-35.35 -463.37c4.4,3.32 40.33,36.39 41.37,36.55 0.54,-8.36 1.59,-55.19 3.19,-58.58l-44.32 0c-0.03,5.39 -1.23,17.36 -0.24,22.03z"/>
   <path class="fil1" d="M464.49 411.25l2.59 -18.69c-1.86,-0.83 -40.76,-6.26 -44.61,-6.34 1.48,1.51 17.64,10.86 20.79,12.76 2.77,1.67 19.5,12.11 21.23,12.27zm-233.7 -370.03c-9.21,3.15 -4.65,17.26 4.94,14.03 8.84,-2.98 4.63,-17.31 -4.94,-14.03zm-32.72 417.78c-10.37,2.42 -6.74,17.12 3.24,14.98 9.35,-1.99 6.71,-17.3 -3.24,-14.98zm-117.74 -134.34c-12.25,4.14 -5.53,21.8 5.95,17.67 11.51,-4.13 5.66,-21.58 -5.95,-17.67zm-41.93 -244.88c-1.74,3.38 -7.78,9.09 -8.73,11.95l17.73 14.05c3.27,2.54 15.31,12.27 17.76,13.65l-16.6 -30.42c-1.89,-1.84 -5.04,-9.8 -7.25,-12.51l-2.91 3.28z"/>
   <path class="fil4" d="M450.71 256.51c-8.45,3.32 -3.95,15.49 4.76,12.53 7.97,-2.71 3.73,-15.85 -4.76,-12.53zm39.55 -231.82c-4.65,2.23 -1.44,8.34 2.95,6.49 4.2,-1.78 1.54,-8.63 -2.95,-6.49zm-368.9 316.74c0.92,0.17 2.19,0.22 3.24,0.32 1.76,0.15 2.43,0.59 3.02,-0.36 -6.88,-9.27 -14.56,-26.65 -18.2,-39.08 -4.86,-16.62 -6.88,-31.81 -6.46,-50.59 0.76,-34.08 14.05,-63.08 29.4,-84.81 27.74,-39.29 87.95,-76.59 160.83,-59.43 55.82,13.14 101.07,57.78 114.32,114.37 7.51,32.14 4.26,70.19 -8.57,97.28 -7.87,16.63 -10.54,21.25 -21.58,35.59 -4.45,5.77 -21.54,23.56 -29.11,27.48l-0.93 5.79c2.87,-0.76 13.21,-9.66 16.53,-12.61 15.13,-13.44 28.42,-31.8 37.44,-50.89 13.73,-29.02 18.51,-63.57 11.39,-99.75 -8.69,-44.18 -37.5,-80.84 -73.24,-102.95 -12.36,-7.65 -26.96,-13.71 -41.34,-17.56 -71.86,-19.21 -135.23,14.92 -167.23,57.36 -17.52,23.24 -29.05,49.92 -31.98,85.45 -2.47,29.94 4.73,58.71 17.72,84.38 1.72,3.39 3.84,6.22 5.36,9.49 -0.37,0.59 0.12,0.16 -0.61,0.52zm-52.06 -341.06c-0.47,1.53 -4.24,7.12 -5.48,9.25l-2.51 3.88c-0.05,0.07 -0.13,0.17 -0.18,0.25l-16.49 26.21c-0.07,0.1 -0.29,0.39 -0.37,0.49 -0.05,0.07 -0.13,0.17 -0.19,0.23l-3.67 5.71c-0.84,1.19 -1.96,3.82 -3.98,6.28l-1.61 2.08c-0.54,0.97 -0.56,1.55 -1.01,2.53 -0.59,1.27 -1.35,1.64 -2.71,4.11l-3.46 5.48c-0.6,0.99 -1.06,2.4 -1.93,2.99l12.69 9.92 2.91 -3.28c2.21,2.71 5.36,10.67 7.25,12.51l1.35 0.12c0.11,0.05 1.22,0.93 1.46,1.12 2.98,2.34 18.12,15.01 19.76,15.49 0.35,-7.06 0.38,-13.75 0.48,-20.85 0.1,-6.63 0.74,-14.24 0.78,-20.89l0.97 -40.53c0.57,-3.05 -0.8,2.28 0.21,-0.75l0.35 -0.69c-0.99,-4.67 0.21,-16.64 0.24,-22.03l-4.58 0 -0.28 0.37zm353.87 422.76c-1.74,-1.73 -6,-6.55 -8.11,-6.88 0.55,3.09 4.01,10.4 5.43,13.63 3.21,7.32 2.98,6.97 2.88,16.41 -0.06,5.84 -0.7,12.2 -0.73,17.91 -0.03,6.42 0.04,13.19 -0.27,19.57 -0.24,2.19 0.19,4.58 -0.13,6.82 -0.98,6.67 -0.61,13.87 -0.67,21.1l6.07 -0.18 -4.52 -0.18c0.05,-2.22 0.21,-1.94 2.15,-4.96 0.29,-0.45 0.37,-0.5 0.73,-0.98l4.94 -7.46c2.67,-3.7 1.18,-2.8 2.59,-4.68 0.44,-0.6 0.93,-1.1 1.45,-1.98l3.36 -5.11c0.06,-0.11 0.21,-0.46 0.27,-0.57l0.31 -0.55c0.05,-0.08 0.12,-0.18 0.17,-0.25 1.16,-1.72 1.69,-2.51 2.66,-4.2l23.08 -36.68c0.05,-0.08 0.14,-0.17 0.19,-0.24 0.05,-0.08 0.13,-0.17 0.18,-0.25l0.34 -0.54c0.13,-0.25 0.49,-1.24 0.62,-1.56 0.98,-0.56 3.27,-4.49 3.98,-5.81 -2.39,-0.73 -9.23,-6.95 -11.31,-8.58l-28.36 -22.86c-1.48,-1.25 -4.03,-3.51 -5.83,-4.23 -0.64,6.22 -0.51,14.44 -0.65,20.9 -0.04,1.73 0.37,2.04 -0.82,2.39zm-359.69 17.29c0.38,0.85 0.68,1.36 1.18,2.22l10.65 16.62c0.05,0.09 0.11,0.2 0.16,0.29 0.45,0.83 0.73,1.38 1.2,2.25 1.17,2.18 3.06,4.08 3.94,6.34 0.68,1.71 1.68,2.73 3.03,4.2 0.06,0.06 0.15,0.15 0.21,0.21l0.38 0.42c1,1.43 -0.23,0.54 1.92,3.64 0.54,0.78 0.72,1.39 1.21,2.24 1.46,2.53 1.58,1.55 3.28,5.21 0.05,0.1 0.1,0.21 0.14,0.31l1.87 2.76c1.02,2.47 -0.46,4.1 1.67,5.65 1.82,1.33 2.39,0.4 3.94,2.88l6.43 10.67c1.1,1.54 1.1,0.35 1.25,2.25 1.15,1.04 1.68,2 2.2,3.18l1.72 -0.06 -0.59 -26.3 -2.29 -83.8c-1.74,0.15 -4.91,3.29 -6.63,4.66 -1.66,1.33 -4.82,3.48 -6.03,5.18l-1.74 -0.35c-0.31,-4.21 -4.25,-6.92 -7.68,-4.05 -3.2,2.68 -1.4,8.1 2.53,7.9 0.29,0.4 0.06,0.46 0.79,1.06 -4.5,3.17 -24.14,20.55 -27.28,21.07l2.54 3.35zm405.42 -372.58c-1.91,-2.34 -1.54,-2.47 -2.6,-4.24l-2.22 -3.32c-0.05,-0.08 -0.11,-0.19 -0.16,-0.28 -1.29,-2.12 0.76,1.15 -0.33,-0.52l-5.48 -8.58c-2.63,-3.41 -5.15,-8.44 -8.21,-12.69l-21.67 -34.2c-0.6,-0.93 -0.65,-1.24 -1.32,-2.12 -0.71,-0.95 -0.03,-0.14 -0.78,-0.93 -0.52,-0.55 -0.25,-0.37 -0.88,-0.81l-3.52 0.16 0.2 13.43 1.87 69.03c0.08,4.07 0.08,20.48 0.8,23.01 1.69,-0.19 4.12,-2.77 5.71,-4.03l28.37 -22.8c1.93,-1.74 3.44,-2.7 5.69,-4.58 1.47,-1.23 4.4,-3.87 5.78,-4.28l-1.25 -2.25zm22.6 416.69c-6.35,2.02 -3.25,10.82 2.91,9.1 5.44,-1.52 3.74,-11.21 -2.91,-9.1zm-105.08 -452.3c-4.16,2.04 -2.36,8.72 2.97,6.89 4.39,-1.5 2.35,-9.49 -2.97,-6.89zm125.58 297.68l0 -6.83c-2.61,-1.05 -11.67,-12.59 -14.93,-14.17 -2.35,-0.54 -9.38,7.75 -12.17,10.45 -1.74,1.69 -10.42,11.16 -11.73,10.97 -0.71,-0.1 -12.65,-12.35 -13.83,-13.56 -5,-5.14 -8.61,-8.88 -13.65,-13.65 -2.99,-2.83 -4.64,-0.14 -8.03,3.55l-17.13 17c-1.7,1.64 -2.33,2.08 -1.17,4.89 2.99,1.09 4.74,-1.74 6.66,-3.66l17.28 -17.23c1.94,1.2 5.38,5.01 7.43,7.05l14.72 14.72c9.55,9.83 6.41,9.43 19.51,-3.62l11.25 -10.95c1.85,0.62 13.54,12.82 15.79,15.04zm-437.91 -275.03c0.15,3.13 1.84,7.73 2.73,10.78l6.06 21.2c0.51,2 0.91,3.46 1.47,5.35l1.84 5.23c1.27,-1.51 3.09,-21.22 3.34,-23.26 0.55,-4.47 2.91,-21.08 2.69,-24.27l-18.13 4.97zm216.83 419.86c-4.56,1.21 -8.61,5.72 -6.98,11.9 1.27,4.77 5.91,8.47 12.02,6.89 12.09,-3.13 7.85,-22.19 -5.04,-18.79zm-163.45 -418.58c-9.69,3.12 -5.1,16.62 3.73,14.36 3.46,-0.89 6.2,-4.26 5.44,-9.1 -0.57,-3.63 -4.98,-6.61 -9.17,-5.26zm-112.2 -38.84c-9.07,2.68 -4.79,17.14 4.82,13.87 8.43,-2.86 5.29,-16.85 -4.82,-13.87zm435.21 152.86c-8.68,3.9 -2.78,15.31 4.79,12.45 8.76,-3.31 3.45,-16.15 -4.79,-12.45z"/>
  </g>
 </g>
</svg>
