<?xml version="1.0" encoding="UTF-8"?>
<!DOCTYPE svg PUBLIC "-//W3C//DTD SVG 1.1//EN" "http://www.w3.org/Graphics/SVG/1.1/DTD/svg11.dtd">
<!-- Creator: CorelDRAW 2021 (64-Bit) -->
<svg xmlns="http://www.w3.org/2000/svg" xml:space="preserve" width="512px" height="512px" version="1.1" style="shape-rendering:geometricPrecision; text-rendering:geometricPrecision; image-rendering:optimizeQuality; fill-rule:evenodd; clip-rule:evenodd"
viewBox="0 0 512 512"
 xmlns:xlink="http://www.w3.org/1999/xlink"
 xmlns:xodm="http://www.corel.com/coreldraw/odm/2003">
 <defs>
  <style type="text/css">
   <![CDATA[
    .fil1 {fill:#3F3F3F}
    .fil2 {fill:#D0BDB1}
    .fil0 {fill:#EBCEB9}
   ]]>
  </style>
 </defs>
 <g id="Layer_x0020_1">
  <metadata id="CorelCorpID_0Corel-Layer"/>
  <g id="_2436916896880">
   <path class="fil0" d="M392.4 48.61c4.78,22.68 -8.64,50.52 -19.2,62.26 3.51,6.15 -0.8,-3.21 -1.7,8.44 -0.69,8.95 1.6,12.12 2,20.7 0.48,10.42 -1.28,10.35 -1.38,18.84 -0.09,7.86 2.02,12.45 1.8,21.58 -0.22,9.05 -1.94,10.1 -1.59,18.42 0.24,5.78 1.96,13.94 1.28,21.89 -1.42,16.89 1.24,25.22 -0.35,40.27l-1.12 120.17c-0.2,7.58 1.62,11.37 1.75,18.8 0.07,4.02 0.08,6.07 -0.94,9.83 -5.03,18.52 -18.78,8.2 -34.42,9.25 -36.77,2.45 -19.65,-4.13 -32.45,-4.5 -13.16,-0.39 -3.68,7.79 -21.45,5.89 -18.15,-1.95 -6.41,-10.63 -21.93,-4.35 -4.26,1.72 -3.79,7.78 -18.37,4.02 -15.3,-3.95 0.88,-6.15 -13.77,-5.73 -16.8,0.47 5.38,4.92 -16.54,6.42 -24.73,1.69 -5.99,-2.26 -15.6,-6.43l-13.65 -4.87c-0.88,-0.41 -1.96,-0.87 -2.77,-1.55l0 -13.54c5.85,-4.4 -3.26,-1.29 10.45,-4.59 0.91,-0.22 7.14,-0.34 8.43,-0.38l0 -11.53 -14.18 -1.29 -0.75 15.16 -17.53 2.62 -0.16 18.96c-2,0 -12.84,-0.31 -14.75,0.12 -7.77,1.76 -7.46,9.81 -20.06,7.27 -11.21,-2.26 -3.81,4.14 -8.12,-6.25 -6.35,5.39 -3.48,4.25 -16.04,5.82 -3.97,0.5 -6.98,0.89 -11.04,0.26 -17.21,-2.68 -1.69,-6.04 -16.14,-5.96 -13.68,0.08 -0.33,-0.41 -7.28,2.67 -0.16,0.07 -3.67,8.54 -21.11,1.02 -25.54,-11.02 -12.26,14.9 -41.63,-1.65l-5.34 -3.51c-2.39,-2.37 -4.9,4.38 -4.14,-18.74l9.07 -6.71c7.48,-8.97 -3.63,-8.36 -7.78,-15.61 -2.63,-4.6 -2.55,-10.15 0.03,-14.76l3.09 -3.38c4.27,-4.53 0.5,1.56 4.83,-3.76 2.92,-3.58 2.7,-5.57 -0.07,-8.95 -7.63,-9.32 -10.23,7.22 -9.08,-22.66l10.5 -4.3 0.27 -11.94c-15.65,-2.16 -10.94,-1.67 -11.09,-18.96 5.2,-4.75 -7.67,-4.7 12.36,-5.42 -0.37,-31.24 -15.57,1.69 -12.54,-27.02 1.87,-17.68 -0.3,-3.39 6.41,-9.83 3.65,-3.51 5.2,4.55 5.24,-6.64 0.05,-11.51 -2.36,-4.24 -5.14,-6.89 -0.06,-0.05 -11.95,-0.59 -6.08,-17.12 2.67,-7.55 0.61,-1.89 4.25,-5.64 8.95,-9.23 3.23,5.7 6.89,-6.52 3.19,-10.65 -3.26,-7.09 -3.38,-7.21 -0.02,-0.02 -17.51,-9.16 -3.35,-24.1 2.04,-2.16 9.97,-3.94 5.77,-11.09 -7.1,-12.1 -10.21,10.61 -10.43,-21.48 5.63,-5.32 -8.23,-4.96 12.36,-5.41l0 -13.55 -12.15 -0.6 -0.27 -15.2c-0.2,37.19 -0.64,81.91 -0.47,107.32l-1.85 284.24c2.36,19.35 16.22,20.83 36.17,20.77 154.74,-0.47 313.04,-2.94 467.31,-0.46 13.76,-20.05 6.72,-88.78 6.72,-119.82 0,-118.08 3.9,-273.63 -0.48,-383.37 -13.21,-8.84 -17.94,-11.15 -34.5,-4.56 12.92,0.8 17.24,-1.35 21.19,6.06 -5.03,3.12 -47.02,-2.13 -59.16,-1.2 -15.37,1.17 -29.51,2.28 -42.75,3.34 12.85,-2.81 27.09,-5.69 35.91,-10.32 -60.36,0.29 -120.79,-1.13 -181.18,-0.4 -21,0.26 -16.66,5.01 -33.28,13.15 -9.7,4.74 -19.25,9.42 -29.72,15.86 0,0 89.24,21.79 89.24,21.79 11.96,-4.6 24.34,-9.42 36.91,-14.15 36.57,2.49 75.09,5.38 80.02,10.69z"/>
   <path class="fil1" d="M107.48 32.69l-5.07 29.74 335.63 0.5 -0.03 372.42 -168.78 0.8 22.62 31.65c5.37,7.62 14.02,26.83 23.31,30.03l182.61 -0.05c4.56,-19.35 1.48,-472.6 0.68,-495.47l-377.52 -0.61c-4.63,6.56 -4.33,6.91 -7.06,15.87 -0.92,3.01 -1.39,5.41 -2.56,8.22l-3.83 6.9z"/>
   <path class="fil2" d="M269.23 436.15c-7.47,-8.15 -13.78,-15.53 -21.69,-24.09 -3.89,-4.21 -6.16,-6.52 -10.62,-11.13 -8.52,-8.81 -5.26,-7.67 -14.57,-10.88 5.78,33.72 -19.66,35.43 -24.21,18.25l-1.67 -11.1c-13.84,4.85 -13.97,17.24 -15.61,14.26 -0.27,-0.5 -1.16,1.15 -1.83,1.6 -1.06,-25.37 8.75,-35.9 36.27,-30.01 -3.61,-8.39 -6.64,-10.98 -16.69,-15.1 -7.15,14.45 -18.67,11.09 -33.26,7.61 -3.43,-15.14 -1.56,-19.98 3.5,-32.86 -5.56,-5.44 -1.42,-1.66 -8.66,-5.17 -5.77,-2.79 -8.07,-4.05 -12.89,-6.95 11.21,20.1 -6.36,39.13 -14.67,26.16 -5.82,-9.09 4.03,-16.94 -6.88,-19.73 -7.84,-2 -6.82,3.73 -15.84,6.94 -0.18,-17.26 9.35,-23.04 27.04,-21.94l-4.58 -2.26c-35.17,-17.73 -88.79,-44.94 -127.89,-43.95l0.06 84.77c36.69,1.9 66.54,22.78 94.84,35.26 2.4,-11.9 0.84,-10.28 10.76,-15.25 11.9,7.7 1.75,1.69 7.06,11.19 8.16,14.58 20.81,8.53 20.77,-2.69 -6.29,-5.25 -1.24,-1.16 -8.23,-2.56l-8.24 -2.67c20.23,-21.42 42.59,5.21 26.6,25.45 -6.14,7.78 -17.31,11.5 -29.55,8.42 -12.81,-3.23 -13.07,-11.32 -20.28,-18.44 -4.66,2.55 -1.44,1.86 -8.25,-1.77 -27.13,-14.45 -51.71,-28.5 -86.07,-32.02 3.26,39.33 -7.52,112.62 6.07,141.39 32.9,5.4 478.26,4.1 490.73,-0.49 7.59,-4.25 7.65,-14.73 7.76,-23.86l-0.19 -422.72c0.01,-36.18 4.72,-40.9 -9.87,-57.5 0.8,22.87 3.88,476.12 -0.68,495.47l-182.61 0.05c-9.29,-3.2 -17.94,-22.41 -23.31,-30.03l-22.62 -31.65z"/>
   <path class="fil1" d="M168.85 342.7c-5.06,12.88 -6.93,17.72 -3.5,32.86 14.59,3.48 26.11,6.84 33.26,-7.61 -6.65,-2.72 -7.2,3.78 -21.76,-1.58 -0.51,-18.48 15.92,-12.21 23.72,-22.19 -7.92,-10.68 -18.86,-6.24 -29.94,-2.13 -0.37,0.14 -1.17,0.46 -1.78,0.65zm-16.54 85.43c17.66,10.24 20.63,8.32 23.51,34.44 -11.9,-3.02 -9.83,-3.29 -17.08,-10.06 0.41,-0.22 1.21,-0.64 1.38,-0.2l10 -2.51c-2.04,-16.93 -5.14,-17.64 -23.04,-16.44 -8.74,12.78 -14.97,20.91 -0.84,34.47 39.98,38.39 59.71,-21.54 28.29,-39.36 -7.38,-4.19 -12.26,-3.82 -15.47,-3.21 -5.99,1.13 -4.25,1.03 -6.75,2.87zm-44.83 -395.44c-0.34,-12.64 4.13,-18.63 7.45,-31.1l-31.78 0.46 -3.96 60.72 17.46 0.12c7.07,-11.76 2.5,-14.64 8.68,-26.9 0.23,-0.46 0.84,-1.31 1.04,-1.67 0.21,-0.36 0.69,-1.13 1.11,-1.63zm-8.1 363.14l-1.11 3.45c7.21,7.12 7.47,15.21 20.28,18.44 12.24,3.08 23.41,-0.64 29.55,-8.42 15.99,-20.24 -6.37,-46.87 -26.6,-25.45l8.24 2.67c6.99,1.4 1.94,-2.69 8.23,2.56 0.04,11.22 -12.61,17.27 -20.77,2.69 -5.31,-9.5 4.84,-3.49 -7.06,-11.19 -9.92,4.97 -8.36,3.35 -10.76,15.25zm71.54 -118.32c7.62,7.53 11.74,6.06 10.17,18.83 -6.03,-1.43 -22.07,-10.1 -24,7.79 -2.58,23.91 47.05,25.07 38.61,-13.3 -2.57,-11.69 -18.73,-21.22 -24.78,-13.32zm51.43 112.54c-3.25,-5.21 -1.1,-3.49 -7.05,-7 -27.52,-5.89 -37.33,4.64 -36.27,30.01 0.67,-0.45 1.56,-2.1 1.83,-1.6 1.64,2.98 1.77,-9.41 15.61,-14.26l1.67 11.1c4.55,17.18 29.99,15.47 24.21,-18.25zm-75.05 -59.47c-5.99,-6.18 -5.22,-4.35 -10.35,-8.57 -17.69,-1.1 -27.22,4.68 -27.04,21.94 9.02,-3.21 8,-8.94 15.84,-6.94 10.91,2.79 1.06,10.64 6.88,19.73 8.31,12.97 25.88,-6.06 14.67,-26.16z"/>
  </g>
 </g>
</svg>
