<?xml version="1.0" encoding="UTF-8"?>
<!DOCTYPE svg PUBLIC "-//W3C//DTD SVG 1.1//EN" "http://www.w3.org/Graphics/SVG/1.1/DTD/svg11.dtd">
<!-- Creator: CorelDRAW 2021 (64-Bit) -->
<svg xmlns="http://www.w3.org/2000/svg" xml:space="preserve" width="512px" height="512px" version="1.1" style="shape-rendering:geometricPrecision; text-rendering:geometricPrecision; image-rendering:optimizeQuality; fill-rule:evenodd; clip-rule:evenodd"
viewBox="0 0 512 512"
 xmlns:xlink="http://www.w3.org/1999/xlink"
 xmlns:xodm="http://www.corel.com/coreldraw/odm/2003">
 <defs>
  <style type="text/css">
   <![CDATA[
    .fil7 {fill:black}
    .fil0 {fill:#14425D}
    .fil10 {fill:#183447}
    .fil12 {fill:#2178BB}
    .fil8 {fill:#22C2C0}
    .fil19 {fill:#22FEC0}
    .fil6 {fill:#23A4C0}
    .fil5 {fill:#2F2E31}
    .fil17 {fill:#335C78}
    .fil4 {fill:#36B2C4}
    .fil15 {fill:#3792C4}
    .fil9 {fill:#503536}
    .fil16 {fill:#5397C9}
    .fil13 {fill:#652218}
    .fil14 {fill:#6F0101}
    .fil11 {fill:#71C9CE}
    .fil23 {fill:#A8BBC8}
    .fil3 {fill:#A9240E}
    .fil24 {fill:#B8B8B8}
    .fil18 {fill:#C6D7DC}
    .fil21 {fill:#C8C8C8}
    .fil1 {fill:#CB0708}
    .fil22 {fill:#D9E4E8}
    .fil2 {fill:#ECE8E2}
    .fil20 {fill:#FEFEFE}
   ]]>
  </style>
 </defs>
 <g id="Layer_x0020_1">
  <metadata id="CorelCorpID_0Corel-Layer"/>
  <g id="_2436810080736">
   <path class="fil0" d="M374.23 56.27c-1.79,0.65 -1.89,0.37 -3.58,0.56 2.36,5.04 -1.5,7.09 -3.71,9.57 -1.95,2.2 -5.41,4.97 -6.65,7.33 1.93,2.52 3.81,3.2 4.5,6.98 3.21,0.98 5.17,3.27 7.56,4.28l7.51 -8.34c0.6,-3.29 12.47,-14.94 15.99,-18.71 3.71,-3.98 20.12,-22.5 23.07,-23.02 4.32,-0.77 4.87,1.87 6.8,4.1 2.33,-4.19 2.65,-3.51 4.52,-5.56l9.79 -9.71c4.73,-5.49 5.16,-4.63 7.36,-6.98 1.31,-1.41 0.72,-1.19 2.28,-2.3 4.29,-3.03 4.43,-4.36 11.16,-8.34 2.87,-1.69 4.13,-1.94 7.43,-1.21 1.28,3.21 0.85,5.22 -1.07,8.08 -1.51,2.25 -2.83,4.06 -4.29,5.99 -3.3,4.35 -17.4,19.54 -19.98,22 -7.84,7.48 -6.62,5.45 -12.02,8.16l0.1 2.45c-0.04,1.3 -0.06,0.85 0.62,1.73 0.76,-0.3 7.22,-6.04 12.47,-0.26 6.59,7.26 -1.65,13.68 -8.49,20.54l-6.25 6.6c-2.06,2.34 -1.24,1.96 -0.92,2.21 3.2,-1.19 7.52,-4.08 10.73,-5.77 15.37,-8.09 9.15,-7.44 24.8,-5.19 4.81,0.7 9.82,1.46 14.59,1.99l0.08 10.61 4.81 2.69 0.03 43.32c-0.12,1.07 -0.11,0.65 -0.31,1.32l-0.38 0.75c-1.6,0.87 -5.11,-1.59 -6.69,-2.52l-19.88 -10.84c-3.66,-1.84 -3.15,-3.16 -6.97,-0.8l-19.74 10.27c0.51,1.73 4.81,7.6 6.21,9.46 2.07,2.77 4.03,6.17 5.68,9.11 3.4,0.03 16.15,-1.49 8.07,4.17 -1.78,1.26 -2.37,1.64 -4.11,2.51l7.69 16.05c1.68,3.81 1.02,3.9 2.85,5.03 1.88,-1.52 -0.03,-3.49 -0.49,-6.14 1.1,-1.2 4.85,-3.4 6.94,-4.14 1.04,0.69 1.46,1.03 2.24,1.89 1.37,1.52 0.18,1.33 2.36,1.73 2.06,-1.22 1.34,-3.09 2.25,-5.42 2.12,-0.69 5.9,-0.47 8.58,-0.26l1.34 5.51c2.97,0.22 3.47,-1.84 4.55,-3.49 2.54,0.04 6.33,2.3 8,4.19 -0.31,3.03 -2.81,5.99 0.37,5.95 1.54,-0.03 1.97,-0.88 4.61,-1.02 1.74,1.71 3.24,4.37 4.17,6.84 -1.49,2.73 -4.22,3.41 -3.59,5.12 1.19,1.41 3.53,1.11 5.55,1.99l0.2 8.4c-2.06,0.71 -4.44,0.56 -5.7,1.9 -0.16,2.86 2.17,1.72 3.54,5.12 -0.51,1.58 -0.9,1.89 -1.76,3.41 -0.89,1.57 -1.05,2.23 -2.41,3.48 -3.11,-0.17 -3.89,-1.79 -6.18,-0.75 -0.33,2.12 1.15,3.26 1.11,6.27 -2.36,1.16 -5.08,3.41 -7.88,3.5 -1.09,-1.59 -1.57,-3.65 -4.39,-3.44 -0.96,1.32 -1.09,3.56 -1.63,5.4l-8.17 0.02 -1.31 -5.21c-1.06,1.3 -0.42,2.81 0.11,5.4 0.42,2.02 0.71,3.36 1,5.47 0.52,3.81 0.96,7.98 1.35,11.85 0.81,7.86 0.63,23.86 0.95,25.8 2.72,-2.75 6.39,-8.42 12.37,-8.89 6.92,-0.54 11.66,2.81 13.12,8.3 2.16,8.05 -2.8,12.14 -5.96,15.29l-21.82 21.19c-2.46,2.32 -3.07,2.27 -4.07,6.77 -1.93,8.7 -4.31,16.49 -7.46,24.73 -1.22,3.17 -5.76,13.04 -5.98,15.28l8.07 7.6c0.29,0.26 1.18,1.02 1.34,1.26 0.38,0.61 0.11,0 0.29,0.92l-0.09 0.67 8.43 0.8 0.03 22.06c-0.21,1.37 0.18,0.35 -0.37,1.31 -4.08,1.58 -19.34,2.91 -21.5,4.97 0.49,-0.21 50.33,0.67 52.59,1.51 0.13,0.05 0.29,0.17 0.39,0.22 0.11,0.04 0.28,0.13 0.38,0.24 -0.44,5.23 -0.02,11.91 0.01,17.32 0.03,4.14 0.62,13.99 -0.13,17.41l-12.99 3.11c1.14,7.42 -2.02,5.06 -5.02,12.45 -2.06,5.09 -2,9.26 -0.19,14.68 1.98,5.91 6.3,10.42 12.27,12.86 4,1.63 8.45,2.07 13.04,0.61 2.59,-0.82 1.78,-1.02 3.65,-1.21l0 -465.41 -132.61 0c1.63,0.86 10.01,9.8 12.17,11.9 3.36,3.28 2.71,3.57 2.7,9.6 -0.01,4.19 -0.06,8.44 0.05,12.63l2.15 -1.72c0.69,-0.7 0.95,-1.06 1.69,-1.88l9.95 -10.56c7.5,-8.95 15.82,-1.28 9.42,5.86l-20.01 20.96c-4.39,4.51 -2.73,2.34 -3.48,9.98l-5.74 -0.14c-1.97,1.83 -4.71,6.02 -7.55,6.63 -5.25,1.11 -6.18,-2.7 -6.51,-6.99z"/>
   <path class="fil0" d="M0 7.93c5.3,-0.15 18.29,0.66 21.39,-0.47l0.09 -6.06c-0.14,0.94 -0.51,0 0.75,1.4 6.13,6.81 5.77,5.02 13.6,5.05l67.03 -0.07 12.32 0c45.98,1.46 25.48,-4.83 46.16,12.64l14.8 14.9c2.47,2.35 5.2,3.89 6.18,8.2 -0.07,0.52 -15.41,16.65 -18.29,18.11 -2.85,1.45 -5.27,2.58 -7.85,3.94 -5.41,2.84 -10.31,5.7 -15.24,8.82 -3.32,2.11 -3.81,3.58 -8.83,3.57 -3.71,0 -7.97,-0.33 -11.56,0.37l-0.08 3.77 -3.64 -1.87c-1.01,-0.7 0.21,-0.02 -0.89,-0.64 -3.16,-1.78 -34.45,-0.94 -35.48,-0.6 -4.61,-0.87 -15.29,-0.3 -20.56,-0.3 -6.65,0 -13.31,-0.01 -19.96,-0.02 -13.18,-0.01 -26.83,0.33 -39.94,-0.08l0 10.51c4.1,-1.31 8.41,-3.18 12.25,-4.66 6.42,-2.47 5.84,-1.15 12.11,1.27 3.37,1.3 22.27,7.97 23.38,10.03 -1.33,2.83 -10.65,4.15 -13.61,6.48 -0.71,15.42 -16.54,21.3 -26.9,14.96 -4.57,-2.81 -5.12,-5.37 -7.23,-8.03l0 59.76c2.06,0.42 5.89,3.82 8.35,5.47 4.88,3.28 6.78,3.85 6.91,7.39l-15.26 -0.02 0 103.64c1.45,-1.72 3.19,-3.33 4.91,-5.02 1.84,-1.83 3.03,-3.94 5.84,-4.87 3.13,1.94 10.28,9.93 13.19,12.88 4.29,4.35 8.15,8.32 12.41,12.67 15.69,16.02 15.35,13.82 9.08,20.35l-4.52 4.71c-1.08,1.2 -0.63,0.36 -1.17,1.71 0.09,0.11 0.23,0.14 0.27,0.33 0.04,0.19 0.19,0.26 0.25,0.33 4.07,5.36 1.81,3.62 3.85,8.65 1.49,3.67 1.97,4.28 1.97,8.98 0.78,-0.32 0.92,-1.21 2,1.32 1.8,4.2 0.99,8.48 5.68,10.46 -0.17,2.41 0.69,1.56 -1.03,2.56 0.7,3.24 -0.27,-0.48 1.4,1.53 1.19,1.41 0.16,1.24 2.19,2.05 -0.31,1.89 -1.54,1 -1.54,4.1 0.92,0.74 1.07,1.37 1.54,2.56l2.56 0c-0.72,5.11 -0.86,-0.49 -1.03,3.58 2.32,1.99 0.02,2.55 4.1,2.56 -0.06,0.16 -0.2,0.2 -0.24,0.46 -0.21,1.56 -1.26,0.46 -0.46,2.17 1.32,2.86 -0.27,-0.49 1.66,0.33 1.96,0.83 -0.54,-0.27 0.83,1.02l0.77 1.44c6.77,-3.79 8.34,-1.61 13.83,0.34l2.06 -1.78 1.26 1.63c-1.61,1.16 -0.89,0.4 -1.58,2.07 1.19,2.68 2.87,5.43 2.04,9.53 -0.88,4.38 -3.46,4.97 -4.49,7.35 0.26,1.37 -0.16,1.04 1.21,1.04 1.24,-1.94 1.46,-0.84 2.2,0.11 0.64,0.84 3.3,-0.58 3.95,-2.16 1.94,0.04 1.64,-0.03 3.07,0.52 -0.09,4.57 -1.74,3.95 -3.01,5.57 -0.04,0.06 -0.13,0.2 -0.17,0.26l-0.4 0.82c0.6,3.19 0.44,1 1.54,3.07l1.45 -0.29c1.37,-1.42 8.38,-8.97 9.43,-9.44l0.08 -2.17 -2.7 -2.42c-2.67,0.38 -4.66,1.52 -6.79,-0.47 -2.59,-2.41 -0.15,-5.03 0.26,-7.22 -0.93,-1.69 -2.18,-3.39 -3.37,-5 -20.45,-27.72 -31.65,-53.25 -38.6,-88.98 -8.18,-42.1 -2.31,-81.08 11.35,-117.21 4.68,-12.38 15.75,-33.54 23.75,-44.32 4.06,-5.49 14.28,-18.98 18.75,-23.22 13.28,-12.6 12.04,-12.14 27,-24.19 8.88,-7.16 11.23,-8.22 20.45,-13.83 2.07,-1.26 3.19,-2.09 5.42,-3.27l22.36 -11.49c8.05,-4.3 15.5,-7.42 22.77,-11.53 1.64,-6.86 0.09,-12.55 9.12,-21.11 9.49,-9.01 23.75,-10.69 35.24,-4.37 1.4,0.78 1.91,1.37 3.5,2.15l25.5 -12.85c-1.57,-2.74 -2.47,-2.9 -2.7,-6.32l3.91 -3.07 -272.2 0 0 7.93z"/>
   <path class="fil1" d="M313.8 430.27l0.13 23.91 0 3.24 0.21 4.02 37.3 0.8c-0.73,0.78 0.06,0.23 -1,0.77l-4.62 1.1c-0.44,3.22 -0.13,9.02 -0.09,12.56 0.03,2.4 -1.05,11.29 1.05,12.21l2.1 0.16 -0.43 -0.72c10.53,-1.52 39.17,-7.99 51.52,-10.48 10.79,-2.17 29.1,-6.92 37.95,-8.35 4.16,-0.67 8.83,-2.11 13.09,-2.48l2.46 -0.14c7.43,-3.75 16.28,-1.2 16.99,-5.02l0.24 -9.75c-0.04,-4.15 -0.04,-8.28 -0.12,-12.43l-34.05 0.25c1.57,-4.49 5.25,-4.43 10.46,-5.69l41.26 -8.21 12.99 -3.11c0.75,-3.42 0.16,-13.27 0.13,-17.41 -0.03,-5.41 -0.45,-12.09 -0.01,-17.32 -4.79,-0.71 -82.62,15.49 -94.15,17.76 -21.35,4.21 -48.6,9.45 -70.04,14.25 -6.9,1.55 -16.5,2.63 -22.8,4.45 -0.07,0.14 -0.11,0.33 -0.14,0.45 -0.02,0.12 -0.09,0.3 -0.12,0.44 -0.03,0.16 -0.06,0.3 -0.09,0.47l-0.22 4.27z"/>
   <path class="fil2" d="M187.99 61.02l-21.11 10.12c-83.74,41.8 -129.3,129.73 -111.96,224.71 4.05,22.24 14.59,49.08 26.17,67.49 2.47,3.94 10.53,15.95 13.12,18.58 1.81,-0.83 14.01,-13.29 14.95,-16.04 -10.5,-15.26 -17.26,-25.22 -24.28,-43.72 -21.28,-56.06 -13.77,-116.96 16.34,-164.64 4.59,-7.28 9.41,-13.27 14.34,-19.43 6.67,-8.32 13.67,-14.28 21.16,-21.34l14.66 -11.44c20.26,-14.49 47.17,-25.62 72.98,-29.96 23.81,-4.01 40.07,-2.74 63.64,-0.02 2.11,-0.05 1.88,-0.49 3.06,-1.87l7.19 -7.66c1.35,-1.33 8.82,-8.6 8.56,-9.9 -23.61,-4.6 -36.58,-7.35 -61.95,-5.93 -28.71,1.6 -32.98,5.15 -56.87,11.05z"/>
   <path class="fil0" d="M0 352.04l0 41.09c4.23,-0.13 8.56,-0.04 12.8,-0.04 6.4,-0.01 6.31,-0.98 9.83,2.59 4.18,4.25 8.05,8.07 12.28,12.29 2.79,2.79 4.17,2.6 4.11,8.28 -0.07,7.24 0.53,33.28 -0.32,36.67 -3.11,0.94 -33.33,0.51 -38.7,0.33l0 32.78c18.79,-5.71 11.83,-8.43 24.29,-3.44 3.78,1.51 21.96,7.82 23.44,9.95 -0.63,1.73 -0.59,1.37 -2.62,2.12l-10.97 4.38c-0.48,8.12 -2.71,8.48 -5.54,12.96l36.94 0 -0.04 -28.3c0.61,-0.46 0.49,-0.4 1.11,-0.9 0.21,-0.17 0.78,-0.56 1.29,-0.85 0.97,-0.55 1.51,-0.76 2.62,-1.37 4.44,-2.46 22.77,-12.81 25.37,-13.6 3.26,-0.99 2.48,-0.86 4.54,-3.03 5.51,-5.81 17.97,-19.93 23.22,-23.84l4.28 -7.6c0.57,-1.01 1.33,-4.82 5.19,-6.75 1.19,0.51 1.25,0.55 1.71,1.76 -0.52,1.1 -3.06,3.97 -4.1,5.27 -1.72,2.14 -2.56,3.33 -3.3,6.51 1.22,1.25 6.21,3.91 1.7,9.38 -1.89,2.3 -1.77,0.74 -1.82,3.93l1.48 2.57c1.28,-1.79 3.74,-6.32 6.61,-4.11 -0.05,3.9 -4.77,5.31 -5.5,6.15 1.9,1.27 6.7,12.8 25.47,8.2 -0.39,-3.21 -1.28,-4.78 -0.31,-8.25 0.98,-3.51 2.6,-3.79 3.25,-6.83 -1.66,-1.3 -3.09,-3.12 -2.24,-6.11 0.52,-1.81 2.05,-2.8 3.13,-4.47 0.46,-0.71 0.19,-0.25 0.55,-0.98l-7.17 -3.98c-5.31,2.58 -10.54,14.83 -16.34,12.05 -7.95,-3.79 5.23,-11.56 8.16,-17.25 -4.43,-2.13 -9.94,-7.06 -13.19,-9.14 -1.63,0.82 -4.27,3.43 -5.4,5.62 -0.9,2.71 -17.12,19.98 -21.65,24.72l-13.46 14.18c-1.89,2.29 -5.71,4.72 -9.18,1.84 -3.62,-3 -0.96,-6.78 0.09,-9.09 -1.3,-1.47 -2.39,-1.74 -3.8,-3.05 -1.22,-1.14 -2.05,-2.45 -3.06,-3.54 -4.3,4.12 -7.5,5.37 -14.4,4.98 -1.19,-2.69 2.64,-3.71 0.73,-6.72 -1.61,-2.54 -3.11,-3.49 -1.87,-7.76 1,-3.46 24.51,-27.25 28.26,-31.31l-1.45 0.29c-1.1,-2.07 -0.94,0.12 -1.54,-3.07l0.4 -0.82c0.04,-0.06 0.13,-0.2 0.17,-0.26 1.27,-1.62 2.92,-1 3.01,-5.57 -1.43,-0.55 -1.13,-0.48 -3.07,-0.52 -0.65,1.58 -3.31,3 -3.95,2.16 -0.74,-0.95 -0.96,-2.05 -2.2,-0.11 -1.37,0 -0.95,0.33 -1.21,-1.04 -3.9,0.95 -6.15,2.69 -10.87,0.84 -4.63,-1.81 -20.41,-18.85 -25.39,-23.76 -14.39,-14.22 10.35,-20.25 9.1,-11.57 -3.16,0.93 -1.96,-1.53 -5.9,-1.33 -2.01,0.1 -3.7,1.45 -4.32,2.88 -1.92,4.36 3.01,7.63 4.79,9.42 4.7,4.7 10.41,10.06 14.47,14.44 0.46,-3.27 0.67,-7.36 5,-10.06l-0.77 -1.44c-1.37,-1.29 1.13,-0.19 -0.83,-1.02 -1.93,-0.82 -0.34,2.53 -1.66,-0.33 -0.8,-1.71 0.25,-0.61 0.46,-2.17 0.04,-0.26 0.18,-0.3 0.24,-0.46 -4.08,-0.01 -1.78,-0.57 -4.1,-2.56 0.17,-4.07 0.31,1.53 1.03,-3.58l-2.56 0c-0.47,-1.19 -0.62,-1.82 -1.54,-2.56 0,-3.1 1.23,-2.21 1.54,-4.1 -2.03,-0.81 -1,-0.64 -2.19,-2.05 -1.67,-2.01 -0.7,1.71 -1.4,-1.53 1.72,-1 0.86,-0.15 1.03,-2.56 -4.69,-1.98 -3.88,-6.26 -5.68,-10.46 -1.08,-2.53 -1.22,-1.64 -2,-1.32 0,-4.7 -0.48,-5.31 -1.97,-8.98 -2.04,-5.03 0.22,-3.29 -3.85,-8.65 -0.06,-0.07 -0.21,-0.14 -0.25,-0.33 -0.04,-0.19 -0.18,-0.22 -0.27,-0.33 -1.88,1.1 -25.51,25.5 -29.27,29.28 -3.2,3.2 -5.35,1.13 -10.47,-5.06z"/>
   <path class="fil3" d="M80.46 78.99c1.03,-0.34 32.32,-1.18 35.48,0.6 1.1,0.62 -0.12,-0.06 0.89,0.64l3.64 1.87 0.08 -3.77c3.59,-0.7 7.85,-0.37 11.56,-0.37 5.02,0.01 5.51,-1.46 8.83,-3.57 4.93,-3.12 9.83,-5.98 15.24,-8.82 2.58,-1.36 5,-2.49 7.85,-3.94 2.88,-1.46 18.22,-17.59 18.29,-18.11 -0.98,-4.31 -3.71,-5.85 -6.18,-8.2l-14.8 -14.9c-20.68,-17.47 -0.18,-11.18 -46.16,-12.64l-12.32 0 -67.03 0.07c-7.83,-0.03 -7.47,1.76 -13.6,-5.05 -1.26,-1.4 -0.89,-0.46 -0.75,-1.4l-0.09 6.06c-3.1,1.13 -16.09,0.32 -21.39,0.47l0 70.66c13.11,0.41 26.76,0.07 39.94,0.08 6.65,0.01 13.31,0.02 19.96,0.02 5.27,0 15.95,-0.57 20.56,0.3z"/>
   <path class="fil4" d="M381.57 82.03c0.73,1.69 1.85,2.04 3.33,3.14l4.28 4.2c0.09,0.08 0.34,0.25 0.43,0.32l3.24 3.49c-0.37,0.75 -0.53,1.08 -1.05,1.68l-5.86 6.37c-3.07,3.02 -8.65,8.59 -9.08,12.37 -0.5,4.52 2.26,6.26 3.88,8.25 2.65,2.75 6.7,6.12 8.35,8.71 -4.44,5.09 -0.92,9.24 2.92,8.5 2.28,-0.43 1.51,-1.29 3.82,-1.87 0.62,-1.64 13.21,-14.92 15.31,-16.42 2.94,1.94 15.25,19.56 16.8,21.62 3.23,4.29 11.46,19.39 14.02,24.87 8.54,18.26 14.69,36.7 18.15,59.69 5.83,38.81 -0.65,79.36 -16.57,114.76 -1.95,4.34 -5.11,9.19 -6.41,13.2 3.52,0.49 8.79,1.11 12.42,0.98 1.9,-0.07 3.58,-0.64 5.72,-0.07 2.59,0.7 3.04,0.82 6.14,1.25l0.09 -0.67c-0.18,-0.92 0.09,-0.31 -0.29,-0.92 -0.16,-0.24 -1.05,-1 -1.34,-1.26l-8.07 -7.6c0.22,-2.24 4.76,-12.11 5.98,-15.28 3.15,-8.24 5.53,-16.03 7.46,-24.73 1,-4.5 1.61,-4.45 4.07,-6.77l21.82 -21.19c3.16,-3.15 8.12,-7.24 5.96,-15.29 -1.46,-5.49 -6.2,-8.84 -13.12,-8.3 -5.98,0.47 -9.65,6.14 -12.37,8.89 -0.32,-1.94 -0.14,-17.94 -0.95,-25.8 -0.39,-3.87 -0.83,-8.04 -1.35,-11.85 -0.29,-2.11 -0.58,-3.45 -1,-5.47 -0.53,-2.59 -1.17,-4.1 -0.11,-5.4 -0.08,-0.18 -0.4,-1.05 -0.41,-1.09 -0.15,-1.5 -0.27,-0.4 0.21,-1.28 -2.08,-1.63 -1.65,-2.2 -2.17,-5.3 11.55,3.32 21.39,0.47 24.94,-11.14 5.16,-16.83 -14.74,-30.82 -29.55,-18.52 -1.97,1.63 -1.03,2.33 -3.11,3.79 -0.64,-2.02 -1.16,-2.57 -1.23,-5.14l-0.98 -2.17c-1.83,-1.13 -1.17,-1.22 -2.85,-5.03l-7.69 -16.05c1.74,-0.87 2.33,-1.25 4.11,-2.51 8.08,-5.66 -4.67,-4.14 -8.07,-4.17 -1.65,-2.94 -3.61,-6.34 -5.68,-9.11 -1.4,-1.86 -5.7,-7.73 -6.21,-9.46l-1.13 -1.67c-1.36,-0.6 -4.12,-3.63 -4.71,-4.98 -0.82,-1.86 -0.16,-15.02 -0.15,-18.19 0,-7.46 2.22,-4.79 -0.23,-7.63 -1.46,0.07 -1.35,-0.14 -2.1,0.81 -0.76,-3.9 -0.79,-6.68 1.35,-8.91 0.79,-0.82 1.72,-2.1 2.68,-2.9 1.34,-1.12 1.99,-0.97 3.22,-2.36 -0.32,-0.25 -1.14,0.13 0.92,-2.21l6.25 -6.6c6.84,-6.86 15.08,-13.28 8.49,-20.54 -5.25,-5.78 -11.71,-0.04 -12.47,0.26 -0.68,-0.88 -0.66,-0.43 -0.62,-1.73 -1.95,-1.09 -2.73,-2.37 -3.9,-3.56 -1.33,-1.35 -1.88,-1.39 -3.57,-2.51 -1.36,0.03 -3.64,3.32 -4.79,4.55l-24.22 25.47c-5.67,6.25 -6.51,8.19 -12.95,6.48z"/>
   <path class="fil5" d="M109.16 365.88c2.22,-0.28 1.29,-1.43 3.74,-2.1 1.89,-0.52 3.48,0.03 4.38,1.2 3.28,4.23 -1.16,6.45 -1.87,8.6 1.15,1.46 2.37,2.56 3.56,4.09 1.92,2.47 2.21,1.74 5.09,3.12 2.51,0.25 4.34,-2.98 5.87,-4.59 0.87,-0.91 1.78,-1.72 2.7,-2.41 1.38,-1.03 2.3,-1.03 3.37,-2.37l-2 0.38c-2.1,-2.82 -5.11,-5.78 -7.53,-8.81 -2.44,-3.05 -4.77,-5.95 -7.17,-9.21 -37.97,-51.77 -40.93,-123.46 -11.07,-177.96 15.26,-27.83 37.58,-50.58 64.9,-66.17 21.9,-12.49 50,-21 76.72,-21.63 7.32,-0.17 24.49,-0.11 30.73,1.81l0.44 3.36c0.05,0.16 0.2,0.58 0.25,0.5 0.04,-0.07 0.17,0.35 0.27,0.5 -0.42,-4.53 -0.79,-8.56 1.47,-11.89 2.91,-4.32 5.73,-5.14 4.99,-6.97 -23.57,-2.72 -39.83,-3.99 -63.64,0.02 -25.81,4.34 -52.72,15.47 -72.98,29.96l-14.66 11.44c-7.49,7.06 -14.49,13.02 -21.16,21.34 -4.93,6.16 -9.75,12.15 -14.34,19.43 -30.11,47.68 -37.62,108.58 -16.34,164.64 7.02,18.5 13.78,28.46 24.28,43.72z"/>
   <path class="fil6" d="M96.9 400.89c1.3,-2.5 4.13,-6.27 6.11,-7.16 -1.59,-2.31 -2.85,-1.75 -3.17,-5.63l15.57 -14.52c0.71,-2.15 5.15,-4.37 1.87,-8.6 -0.9,-1.17 -2.49,-1.72 -4.38,-1.2 -2.45,0.67 -1.52,1.82 -3.74,2.1 -0.94,2.75 -13.14,15.21 -14.95,16.04 -2.59,-2.63 -10.65,-14.64 -13.12,-18.58 -11.58,-18.41 -22.12,-45.25 -26.17,-67.49 -17.34,-94.98 28.22,-182.91 111.96,-224.71l21.11 -10.12 13.77 -7.23c5.11,-2.61 9.16,-4.54 14.04,-6.99 4.74,-2.38 9.53,-4.7 14.05,-6.89l13.86 -6.72c4.28,4.32 1.96,7.86 6.15,8 0.95,-1.21 0.51,0.15 0.63,-1.73 0.13,-2.1 -3.12,-6.99 -3.61,-8.11l1.28 -0.78c1.58,1.32 2.79,3.61 3.69,5.74 1.69,4 -0.01,4.73 4.55,4.75 -1.14,-7.21 -2.61,-7.65 -4.74,-12.11l25.33 -12.37c0.87,0.27 2.99,1.75 4.12,2.42 7.76,4.61 4.97,-2.98 9.19,-1.72 0.09,1.9 0.51,4.05 1.54,5.24 1.99,0.6 6.27,0.61 8.19,0 1.48,-1.47 0.44,-0.24 0.97,-1.93 0.72,-2.3 -0.04,-2.97 2.1,-3.7 1.53,1.85 1.02,2.28 3.15,3.59 2.93,0.34 5.41,-2.17 7.94,-3.29 0.26,-2.72 0.2,-2.02 -0.46,-4.12 -0.62,-2.01 -0.83,-1.34 -0.08,-2.83 2.36,0.07 2.74,1.41 6.15,1.22 0.8,-1.37 2.73,-5.05 3.78,-5.83 -0.32,-3.64 -1.77,-4.09 -3.67,-5.63l-47.71 0 -3.91 3.07c0.23,3.42 1.13,3.58 2.7,6.32l-25.5 12.85c-1.59,-0.78 -2.1,-1.37 -3.5,-2.15 -11.49,-6.32 -25.75,-4.64 -35.24,4.37 -9.03,8.56 -7.48,14.25 -9.12,21.11 -7.27,4.11 -14.72,7.23 -22.77,11.53l-22.36 11.49c-2.23,1.18 -3.35,2.01 -5.42,3.27 -9.22,5.61 -11.57,6.67 -20.45,13.83 -14.96,12.05 -13.72,11.59 -27,24.19 -4.47,4.24 -14.69,17.73 -18.75,23.22 -8,10.78 -19.07,31.94 -23.75,44.32 -13.66,36.13 -19.53,75.11 -11.35,117.21 6.95,35.73 18.15,61.26 38.6,88.98 1.19,1.61 2.44,3.31 3.37,5 -0.41,2.19 -2.85,4.81 -0.26,7.22 2.13,1.99 4.12,0.85 6.79,0.47l2.7 2.42 -0.08 2.17z"/>
   <path class="fil7" d="M281.54 94.19c-0.1,-0.15 -0.23,-0.57 -0.27,-0.5 -0.05,0.08 -0.2,-0.34 -0.25,-0.5l-0.44 -3.36c-6.24,-1.92 -23.41,-1.98 -30.73,-1.81 -26.72,0.63 -54.82,9.14 -76.72,21.63 -27.32,15.59 -49.64,38.34 -64.9,66.17 -29.86,54.5 -26.9,126.19 11.07,177.96 2.4,3.26 4.73,6.16 7.17,9.21 2.42,3.03 5.43,5.99 7.53,8.81l2 -0.38 2.75 -0.59c-2.6,-2.3 -0.33,0.61 -4.25,-4.08 -1.55,-1.85 -4.47,-4.73 -5.29,-7 -0.99,-2.72 0.88,-0.74 -1.53,-2.57 -4.55,-3.46 -0.22,-2.51 -3.58,-5.12 -1.32,-1.03 -0.82,-0.08 -2.05,-2.05 -10.45,-16.79 -19.05,-36.84 -22.28,-56.56 -4.89,-29.79 -2.97,-58.4 8.33,-86.53 6.73,-16.73 13.66,-28.14 24.5,-42.06l7.81 -9.09c4.76,-5.15 11.82,-11.25 17.44,-15.83 1.59,-1.3 2.98,-2.32 4.67,-3.53l15.24 -9.85c3.52,-2.15 7.03,-3.66 10.83,-5.56 28.65,-14.35 65.38,-18.38 98.79,-12.09 1.92,0.36 1.56,0.26 3.2,0.94 2.22,0.92 4.17,0.6 9.13,2.09 2.34,0.7 7.66,1.82 9.34,3.46 0.07,0.08 0.17,0.19 0.24,0.27l1.49 2.04c0.69,-1.23 -1.67,-3.54 -0.07,-6.69l8.52 -8.87c3.22,-2.41 4.29,-0.63 6.91,0.04 2.98,-3.95 6.95,-7.06 10.1,-10.96l-2.5 -0.7c-3.82,6.06 -10.59,2.12 -6.2,-3.08l-2.93 -1.21 -9.94 10.3c-1.1,1.27 -3.95,4.44 -5.24,4.92 -3.67,1.36 -5.15,-0.99 -7.35,-1.83 -4.8,2.14 -6.42,4.21 -12.64,2.08 -4.52,-1.55 -5.41,-4.01 -7.9,-7.52z"/>
   <path class="fil2" d="M395.83 137.19c3.51,5.28 8.92,10.9 14.95,20.34 32.77,51.24 37.46,115.26 13.5,171.52 -1.81,4.26 -3.68,8.17 -5.81,12.1 -1.14,2.11 -1.88,3.59 -3.08,5.64 -1.11,1.9 -2.59,4.08 -3.41,6.12l3.58 0.38 21.57 1.62c1.3,-4.01 4.46,-8.86 6.41,-13.2 15.92,-35.4 22.4,-75.95 16.57,-114.76 -3.46,-22.99 -9.61,-41.43 -18.15,-59.69 -2.56,-5.48 -10.79,-20.58 -14.02,-24.87 -1.55,-2.06 -13.86,-19.68 -16.8,-21.62 -2.1,1.5 -14.69,14.78 -15.31,16.42z"/>
   <path class="fil5" d="M360.34 131.41c1.34,1.11 3.04,1.18 4.74,1 5.57,-0.56 2.41,-2.25 9.16,4.32 10.29,10.02 17.82,19.58 25.81,32.56 9.83,15.98 17.34,34.98 21.31,56.53 4.34,23.51 3.27,48.58 -2.24,70.92 -4.64,18.83 -14.54,41.05 -24.12,53.63l-4.93 -0.16c-4.92,0 -9.53,-0.48 -13.83,-0.95 -4.83,-0.53 -9.52,-0.12 -13.74,-1.1 0.17,2.1 0.2,1.71 1.63,2.56 -0.93,-1.28 -0.34,-0.65 -0.79,-1.76l52.22 4.33 -3.58 -0.38c0.82,-2.04 2.3,-4.22 3.41,-6.12 1.2,-2.05 1.94,-3.53 3.08,-5.64 2.13,-3.93 4,-7.84 5.81,-12.1 23.96,-56.26 19.27,-120.28 -13.5,-171.52 -6.03,-9.44 -11.44,-15.06 -14.95,-20.34 -2.31,0.58 -1.54,1.44 -3.82,1.87 -3.84,0.74 -7.36,-3.41 -2.92,-8.5 -1.65,-2.59 -5.7,-5.96 -8.35,-8.71 -4.97,0.68 -4.52,10.72 -20.4,9.56z"/>
   <path class="fil8" d="M306.81 55.9c0.26,1.3 -7.21,8.57 -8.56,9.9l-7.19 7.66c-1.18,1.38 -0.95,1.82 -3.06,1.87 0.74,1.83 -2.08,2.65 -4.99,6.97 -2.26,3.33 -1.89,7.36 -1.47,11.89 2.49,3.51 3.38,5.97 7.9,7.52 6.22,2.13 7.84,0.06 12.64,-2.08 2.2,0.84 3.68,3.19 7.35,1.83 1.29,-0.48 4.14,-3.65 5.24,-4.92l9.94 -10.3 2.93 1.21c-4.39,5.2 2.38,9.14 6.2,3.08l2.5 0.7c2.16,-0.56 0.47,0.38 2.17,-1.18 0.47,-0.43 1.17,-1.34 1.56,-1.85 5.3,0.9 3.49,3.8 11.39,-4.64 3.61,-3.86 5.19,-5.06 8.39,-9.14 0.08,-0.1 0.21,-0.26 0.27,-0.34 0.06,-0.08 0.17,-0.24 0.27,-0.35 1.24,-2.36 4.7,-5.13 6.65,-7.33 2.21,-2.48 6.07,-4.53 3.71,-9.57 1.69,-0.19 1.79,0.09 3.58,-0.56 0.22,-1.4 0.44,-1.35 0.62,-2.82l-26.32 -0.05c-1.84,-3.62 2.63,-5.7 2.21,-11.96 -0.43,-6.43 -2.75,-2.34 -2.7,-12.26 0.05,-9.58 0.26,-19.63 -0.04,-29.18l-2.87 0 -0.09 31.39c-10.23,-3.48 -13.45,-2.22 -21.95,8.07 -2.22,2.7 -14.73,16.05 -16.28,16.44z"/>
   <path class="fil9" d="M224.26 417.54c-1.69,3.03 -4.45,6.34 -6.68,8.43 -1.6,1.51 -6.38,6.34 -7.17,7.81 23.68,3.62 24.77,6.34 53.22,5.47 22.09,-0.68 31.01,-4.29 50.17,-8.98l0.22 -4.27c0.03,-0.17 0.06,-0.31 0.09,-0.47 0.03,-0.14 0.1,-0.32 0.12,-0.44 0.03,-0.12 0.07,-0.31 0.14,-0.45 6.3,-1.82 15.9,-2.9 22.8,-4.45 21.44,-4.8 48.69,-10.04 70.04,-14.25 11.53,-2.27 89.36,-18.47 94.15,-17.76 -0.1,-0.11 -0.27,-0.2 -0.38,-0.24 -0.1,-0.05 -0.26,-0.17 -0.39,-0.22 -2.26,-0.84 -52.1,-1.72 -52.59,-1.51l-26.05 5.2c-9,1.97 -72.34,15.44 -76.29,15.39 -0.32,-1.32 -0.06,-0.37 -0.14,-1.31 -0.02,-0.17 -0.05,-0.68 -0.07,-0.86l-0.53 -19.61c-0.93,2.18 -0.24,6.43 -0.35,9.24 -0.12,2.96 -0.38,2.65 -4.25,4.94l-6.4 3.84c-8.45,5.13 -26.08,12.43 -36.24,14.96 -23.49,5.87 -50.3,7.74 -73.42,2.35l0 -2.81z"/>
   <path class="fil8" d="M190.46 406.53c-0.88,2.16 0.01,0.72 -1.51,2.14l-3.26 3.8c-5,6.2 -3.58,3.51 -6.12,6.2 -1.75,1.84 -1.15,2.62 -3.47,2.56 -2.95,-0.09 -2.8,-1.96 -1.64,-3.45 1.26,-1.61 1.16,-0.19 3.6,-4.11 0.76,-1.23 0.58,0.29 0.63,-2.02 -3.44,-1.82 1.05,-2.05 -4.1,-2.05 -0.54,1.02 -3.18,4.44 -4.96,5.82 -5.27,4.09 -3.45,-3.69 -9.71,-1.64 -1.53,0.5 -3.95,3.38 -5.18,4.65 -2.23,2.31 -7.61,8.46 -9.33,9.54 -4.18,-1.55 -6.11,-7.14 -3.25,-11.47l8.67 -9.46 -2.18 -2.21c-0.1,-0.06 -0.22,-0.13 -0.31,-0.19l-1.01 -0.57c-0.41,-0.24 -0.64,-0.32 -0.97,-0.55l-2.93 2.5c-0.37,3.02 -3.66,4.15 -6.34,7.04 -1.24,1.34 -1.47,2.25 -3.03,3.7 -1.73,1.6 -2.15,1.35 -2.85,3.7 3.25,2.08 8.76,7.01 13.19,9.14 -2.93,5.69 -16.11,13.46 -8.16,17.25 5.8,2.78 11.03,-9.47 16.34,-12.05l7.17 3.98c-0.36,0.73 -0.09,0.27 -0.55,0.98 -1.08,1.67 -2.61,2.66 -3.13,4.47 -0.85,2.99 0.58,4.81 2.24,6.11 -0.65,3.04 -2.27,3.32 -3.25,6.83 -0.97,3.47 -0.08,5.04 0.31,8.25 -18.77,4.6 -23.57,-6.93 -25.47,-8.2 0.73,-0.84 5.45,-2.25 5.5,-6.15 -2.87,-2.21 -5.33,2.32 -6.61,4.11l-1.48 -2.57 -1.81 1.83c-0.29,3.88 6.4,10.56 11.07,12.72 9.79,4.52 14.35,1.5 20.82,0.61 1.6,3.14 4.94,5.12 9.52,5.27 2.27,0.08 4.46,-0.41 6.34,-1.35 2.23,-1.12 2.56,-2.32 4.64,-3.32 0.3,-1.38 5.38,-6.38 7.07,-7.98 1.56,-1.47 6.15,-7.24 7.92,-7.79 0.64,-1.79 15.61,-17.5 17.53,-18.82 0.79,-1.47 5.57,-6.3 7.17,-7.81 2.23,-2.09 4.99,-5.4 6.68,-8.43 0.75,-1.57 -0.31,-8.75 -0.42,-9.06 -2.15,-5.96 -11.37,-11.7 -20.58,-5.54 -2.23,-1.18 -4.49,-3.18 -7.48,-1.89 -1.83,0.79 -1.83,1.38 -3.16,2.52 -1.78,1.53 -2.7,0.99 -2.16,2.96z"/>
   <path class="fil10" d="M187.99 61.02c23.89,-5.9 28.16,-9.45 56.87,-11.05 25.37,-1.42 38.34,1.33 61.95,5.93 1.55,-0.39 14.06,-13.74 16.28,-16.44 8.5,-10.29 11.72,-11.55 21.95,-8.07l0.09 -31.39 -25.22 0c1.9,1.54 3.35,1.99 3.67,5.63 -1.05,0.78 -2.98,4.46 -3.78,5.83 -3.41,0.19 -3.79,-1.15 -6.15,-1.22 -0.75,1.49 -0.54,0.82 0.08,2.83 0.66,2.1 0.72,1.4 0.46,4.12 -2.53,1.12 -5.01,3.63 -7.94,3.29 -2.13,-1.31 -1.62,-1.74 -3.15,-3.59 -2.14,0.73 -1.38,1.4 -2.1,3.7 -0.53,1.69 0.51,0.46 -0.97,1.93 -1.92,0.61 -6.2,0.6 -8.19,0 -1.03,-1.19 -1.45,-3.34 -1.54,-5.24 -4.22,-1.26 -1.43,6.33 -9.19,1.72 -1.13,-0.67 -3.25,-2.15 -4.12,-2.42l-25.33 12.37c2.13,4.46 3.6,4.9 4.74,12.11 -4.56,-0.02 -2.86,-0.75 -4.55,-4.75 -0.9,-2.13 -2.11,-4.42 -3.69,-5.74l-1.28 0.78c0.49,1.12 3.74,6.01 3.61,8.11 -0.12,1.88 0.32,0.52 -0.63,1.73 -4.19,-0.14 -1.87,-3.68 -6.15,-8l-13.86 6.72c-4.52,2.19 -9.31,4.51 -14.05,6.89 -4.88,2.45 -8.93,4.38 -14.04,6.99l-13.77 7.23z"/>
   <path class="fil10" d="M177.89 468.37l-0.37 1c-0.05,0.13 -0.87,1.65 -0.87,1.67 2.97,0.2 4.25,1.56 6.91,2.09l1.46 0.14c0.83,0.11 1.18,0.1 1.69,1.31 3.02,-0.77 4.92,2.3 8.88,6.18 2.81,2.75 5.25,5.1 8.03,7.85l16.27 15.86c1.82,-1.6 8.71,-4.31 11.53,-5.78 15.67,-8.17 38.6,-18.38 52.31,-25.97 2.08,-1.15 3.66,-3.32 4.84,-3.85 2.31,-1.03 3.75,-0.31 6.82,-1.92 1.89,-0.99 3.6,-1.87 5.78,-2.92 1.88,-0.91 10.1,-4.56 11.15,-5.73 0.75,-1.13 -0.9,-1.19 1.61,-0.88l0 -3.24c-10.03,1.89 -14.9,4.13 -28.75,6.1 -10.69,1.52 -21.73,2.2 -32.76,2.02 -10.89,-0.18 -21.35,-1.26 -31.79,-2.98 -13.07,-2.16 -19.46,-5.07 -27.75,-6.72 -1.77,0.55 -6.36,6.32 -7.92,7.79 -1.69,1.6 -6.77,6.6 -7.07,7.98z"/>
   <path class="fil1" d="M368.64 377.34c-2.13,-0.52 -9.12,1.79 -11.63,2.2l-12.43 2.41c0,1.34 0.14,2.4 0.34,3.07l0.53 19.61c0.02,0.18 0.05,0.69 0.07,0.86 0.08,0.94 -0.18,-0.01 0.14,1.31 3.95,0.05 67.29,-13.42 76.29,-15.39l26.05 -5.2c2.16,-2.06 17.42,-3.39 21.5,-4.97 0.55,-0.96 0.16,0.06 0.37,-1.31l-0.03 -22.06c-3.8,-0.2 -20.38,3.7 -25.41,4.69 -20.42,4.02 -42.68,8.06 -62.75,12.47 -3.09,0.68 -10.18,2.28 -13.04,2.31z"/>
   <path class="fil7" d="M327.88 125.44c2.35,-0.77 0.32,-1.19 2.65,-0.8 0.37,0.06 2.47,1.15 2.78,1.31 0,2.05 0.22,1.62 -0.51,2.98 3.05,-1.85 5.9,-8.82 11.02,-6.92 2.01,0.75 3.62,3.29 2.64,6.29 -0.48,1.45 -3.58,4.57 -4.25,5.33 2.66,-0.69 -0.07,-0.43 2.72,0.57 2.06,0.74 0.5,-0.52 3.03,1.13 5.57,3.64 11.38,9.08 16.43,13.3 4.93,4.12 15.21,16.35 18.59,20.84 5.88,7.83 10.36,15.1 15.01,24.41 9.72,19.43 12.95,32.11 15.86,53.26 0.29,2.06 0.82,7.01 0.89,9.35 0.42,14.13 -0.62,25.44 -2.51,36.96 -5.11,31.15 -21.5,54.06 -22.16,56.76l4.93 0.16c9.58,-12.58 19.48,-34.8 24.12,-53.63 5.51,-22.34 6.58,-47.41 2.24,-70.92 -3.97,-21.55 -11.48,-40.55 -21.31,-56.53 -7.99,-12.98 -15.52,-22.54 -25.81,-32.56 -6.75,-6.57 -3.59,-4.88 -9.16,-4.32 -1.7,0.18 -3.4,0.11 -4.74,-1 -11.09,-1.15 -17.64,-18.61 -5.03,-28.99 -1.15,-0.96 -2.39,-1.68 -4.08,-2.4 -0.25,0.65 -9.8,10.54 -11.48,12.41 -4.26,4.72 -7.96,8.61 -11.87,13.01z"/>
   <path class="fil8" d="M96.9 400.89c-1.05,0.47 -8.06,8.02 -9.43,9.44 -3.75,4.06 -27.26,27.85 -28.26,31.31 -1.24,4.27 0.26,5.22 1.87,7.76 1.91,3.01 -1.92,4.03 -0.73,6.72 6.9,0.39 10.1,-0.86 14.4,-4.98 1.01,1.09 1.84,2.4 3.06,3.54 1.41,1.31 2.5,1.58 3.8,3.05 -1.05,2.31 -3.71,6.09 -0.09,9.09 3.47,2.88 7.29,0.45 9.18,-1.84l13.46 -14.18c4.53,-4.74 20.75,-22.01 21.65,-24.72 0.68,-7.08 -6.23,-8.59 -9.99,-5.09 -1.44,1.34 -2.65,2.66 -4.06,4.09l-4.46 3.75c-0.37,-3.34 -0.83,-2.32 -3.11,-4.2l-2.33 -1.51c-0.08,-0.03 -0.47,-0.29 -0.78,-0.43 0.04,-1.25 -0.06,-0.49 0.31,-1.42 0.83,-2.12 6.71,-8.01 8.56,-9.78l9.39 -10.55c5.87,-6.11 9.27,-7.88 8.61,-15.09 -0.16,-2.78 -2.12,-3.79 -3.89,-5.06 -2.88,-1.38 -3.17,-0.65 -5.09,-3.12 -1.19,-1.53 -2.41,-2.63 -3.56,-4.09l-15.57 14.52c0.32,3.88 1.58,3.32 3.17,5.63 -1.98,0.89 -4.81,4.66 -6.11,7.16z"/>
   <path class="fil2" d="M210.41 433.78c-1.92,1.32 -16.89,17.03 -17.53,18.82 8.29,1.65 14.68,4.56 27.75,6.72 10.44,1.72 20.9,2.8 31.79,2.98 11.03,0.18 22.07,-0.5 32.76,-2.02 13.85,-1.97 18.72,-4.21 28.75,-6.1l-0.13 -23.91c-19.16,4.69 -28.08,8.3 -50.17,8.98 -28.45,0.87 -29.54,-1.85 -53.22,-5.47z"/>
   <path class="fil11" d="M186.71 474.58c-0.9,1.64 -15.79,15.6 -18.49,18.25 -2.96,2.91 -17.55,16.83 -18.5,19.17l10.07 0c-1.46,-1.96 -1.61,-1.33 -3.63,-2.56 0.9,0.4 -0.45,0.5 0.66,-0.05l31.6 -31.73c1.82,2.9 16.4,17.2 20.61,21.41 1.74,1.75 5.27,6.08 7.36,6.79l-4.92 2.62c-0.7,-0.91 -0.88,-1.47 -1.78,-2.4l-18.56 -18.82c-3.32,-3.3 -5.1,-0.25 -9.75,4.39 -1.11,1.11 -4.13,3.62 -4.19,4.99 1.02,3.53 11.61,11.86 14.26,15.36l4.13 0 -14.51 -14.69 7.72 -7.88 20.07 20.51 -3.93 2.06 21.66 0c-0.21,-2.04 -1.63,-0.57 3.5,-3l33.67 -16.68c-0.98,2.74 -3.19,16.91 -2.92,19.49 3.88,0.42 8.46,-0.54 12.27,-0.89 7.26,-0.67 6.91,-0.08 10.15,-3.4 9.79,-10.01 23.64,-23.23 32.7,-33.34 5.64,-6.28 0.67,-8.51 6.26,-11.24 0.82,-0.41 1.85,-0.8 2.64,-0.82l-10.85 -0.47c-0.03,-3.51 0.55,-3.12 -1.69,-3.35 -1.05,1.17 -9.27,4.82 -11.15,5.73 -2.18,1.05 -3.89,1.93 -5.78,2.92 -3.07,1.61 -4.51,0.89 -6.82,1.92 -1.18,0.53 -2.76,2.7 -4.84,3.85 -13.71,7.59 -36.64,17.8 -52.31,25.97 -2.82,1.47 -9.71,4.18 -11.53,5.78l-16.27 -15.86c-2.78,-2.75 -5.22,-5.1 -8.03,-7.85 -3.96,-3.88 -5.86,-6.95 -8.88,-6.18z"/>
   <path class="fil12" d="M138.75 370.83l-2.75 0.59c-1.07,1.34 -1.99,1.34 -3.37,2.37 -0.92,0.69 -1.83,1.5 -2.7,2.41 -1.53,1.61 -3.36,4.84 -5.87,4.59 1.77,1.27 3.73,2.28 3.89,5.06l0.89 2.73c0.04,0.85 -0.21,2.53 -0.24,3.55 2.48,1.72 1.88,1.72 3.81,3.36 3.79,3.22 -0.64,2.13 3.89,4.75 0.1,0.06 0.23,0.13 0.33,0.19 2.56,1.47 2.42,1.74 4.95,4.35 1.73,1.78 -0.01,1.76 1.85,1.24l2.93 -2.5c0.33,0.23 0.56,0.31 0.97,0.55l1.01 0.57c0.09,0.06 0.21,0.13 0.31,0.19l2.18 2.21 -8.67 9.46c-2.86,4.33 -0.93,9.92 3.25,11.47 1.72,-1.08 7.1,-7.23 9.33,-9.54 1.23,-1.27 3.65,-4.15 5.18,-4.65 6.26,-2.05 4.44,5.73 9.71,1.64 1.78,-1.38 4.42,-4.8 4.96,-5.82 5.15,0 0.66,0.23 4.1,2.05 -0.05,2.31 0.13,0.79 -0.63,2.02 -2.44,3.92 -2.34,2.5 -3.6,4.11 -1.16,1.49 -1.31,3.36 1.64,3.45 2.32,0.06 1.72,-0.72 3.47,-2.56 2.54,-2.69 1.12,0 6.12,-6.2l3.26 -3.8c1.52,-1.42 0.63,0.02 1.51,-2.14 -2.73,0.49 -1.14,0.24 -3.07,1.53 -0.54,-0.47 0.17,0.01 -0.88,-0.65 -4.02,-2.52 -6.32,-1.84 -6.97,-5.33 -0.75,-3.99 1.68,2.81 6.47,-1.03 2.36,-1.89 4.03,-4.62 6.11,-6.69 4.91,-4.87 2.94,-5.03 1.93,-8.82l7.55 -8.32c2.03,-2.03 6.66,-6.38 7.51,-8.88 2.54,-7.51 -3.46,-13.3 -10.08,-11.63 -4.48,1.13 -12.76,11.81 -16.63,15.64 -1.6,1.57 -2.34,3.03 -3.86,4.33 -3.88,3.31 -12.76,13.69 -16.24,16.02 -2.04,-1.37 -1.58,-0.55 -2.88,-2.74l-0.58 -0.96c-2.51,-3.79 -0.98,-13.06 -10.56,-17.09 -2.68,-1.13 -6.76,-2.1 -9.53,-1.08z"/>
   <path class="fil0" d="M312.32 458.3c2.24,0.23 1.66,-0.16 1.69,3.35l10.85 0.47c-0.79,0.02 -1.82,0.41 -2.64,0.82 -5.59,2.73 -0.62,4.96 -6.26,11.24 -9.06,10.11 -22.91,23.33 -32.7,33.34 -3.24,3.32 -2.89,2.73 -10.15,3.4 -3.81,0.35 -8.39,1.31 -12.27,0.89 -0.27,-2.58 1.94,-16.75 2.92,-19.49l-33.67 16.68c-5.13,2.43 -3.71,0.96 -3.5,3l116.9 0c-0.59,-2.53 -0.19,-5.62 -0.82,-8.94 -0.96,-5.09 1.17,0.78 1.2,-7.84 -1.74,-0.92 -3.1,-0.74 -3.73,-2.68 0.84,-1.35 1.05,-1.2 3.01,-1.94 0.54,-0.2 1.56,-0.55 1.87,-0.69l0.72 -0.36c1.01,-0.55 0.52,-0.25 1.04,-0.67 -2.1,-0.92 -1.02,-9.81 -1.05,-12.21 -0.04,-3.54 -0.35,-9.34 0.09,-12.56l4.62 -1.1c1.06,-0.54 0.27,0.01 1,-0.77l-37.3 -0.8 -0.21 -4.02c-2.51,-0.31 -0.86,-0.25 -1.61,0.88z"/>
   <path class="fil0" d="M453.47 466.87c3.95,0.73 8.51,1.2 12.65,1.78 2.14,0.3 4.17,0.59 6.31,0.85 2.14,0.26 4.52,0.33 6.14,1.56l-0.02 9.89 4.93 2.73 -0.04 28.32 28.56 0 0 -46.59c-1.87,0.19 -1.06,0.39 -3.65,1.21 -4.59,1.46 -9.04,1.02 -13.04,-0.61 -5.97,-2.44 -10.29,-6.95 -12.27,-12.86 -1.81,-5.42 -1.87,-9.59 0.19,-14.68 3,-7.39 6.16,-5.03 5.02,-12.45l-41.26 8.21c-5.21,1.26 -8.89,1.2 -10.46,5.69l34.05 -0.25c0.08,4.15 0.08,8.28 0.12,12.43l-0.24 9.75c-0.71,3.82 -9.56,1.27 -16.99,5.02z"/>
   <path class="fil0" d="M128.72 512l21 0c0.95,-2.34 15.54,-16.26 18.5,-19.17 2.7,-2.65 17.59,-16.61 18.49,-18.25 -0.51,-1.21 -0.86,-1.2 -1.69,-1.31l-1.46 -0.14c-2.66,-0.53 -3.94,-1.89 -6.91,-2.09 0,-0.02 0.82,-1.54 0.87,-1.67l0.37 -1c-2.08,1 -2.41,2.2 -4.64,3.32 -1.88,0.94 -4.07,1.43 -6.34,1.35 -4.58,-0.15 -7.92,-2.13 -9.52,-5.27 -6.47,0.89 -11.03,3.91 -20.82,-0.61 -4.67,-2.16 -11.36,-8.84 -11.07,-12.72l-1 -0.33c-0.07,0.01 -0.22,0.02 -0.29,0.04l-6.36 6.73c-2.61,2.73 -4.89,5 -7.24,7.42l13.25 1.88 0.04 10.59c2.01,1.23 3.18,1.43 4.87,2.85l-0.05 28.38z"/>
   <path class="fil13" d="M348.88 489.04l3.34 0.19c-0.24,1.12 0.12,0.49 -1.06,1.19 -0.67,0.39 -1.29,0.51 -1.86,0.72 -1.24,0.46 -2.48,0.95 -3.76,1.29l13.04 5.55c2.86,1.11 11.24,5.15 13.8,4.46 10.42,-2.82 18.79,-9.79 28.31,-8.43 2.74,0.48 18.8,2.06 19.93,1.61 2.54,0.04 5.32,0.85 7.98,1.09 2.77,0.25 4.93,0.37 7.62,0.47l13.31 1.49c2.7,-0.24 1.27,0.21 2.26,-0.93 -1.59,-2.27 -1.25,-2.55 -1.22,-5.7 0.07,-5.46 -0.9,-15.21 1.34,-17.56 -1.01,-2.24 -1,1.37 -1.41,-3.72 -5.04,1.97 -3.43,3.58 -10.85,3.04l11.36 -6.79c-4.26,0.37 -8.93,1.81 -13.09,2.48 -8.85,1.43 -27.16,6.18 -37.95,8.35 -12.35,2.49 -40.99,8.96 -51.52,10.48l0.43 0.72z"/>
   <path class="fil2" d="M428.43 82.42c-1.23,1.39 -1.88,1.24 -3.22,2.36 -0.96,0.8 -1.89,2.08 -2.68,2.9 -2.14,2.23 -2.11,5.01 -1.35,8.91 0.75,-0.95 0.64,-0.74 2.1,-0.81l0.15 -7.2 13.47 -7.51c4.17,-2.07 9.56,-5.84 13.78,-7.32l-0.01 40.58 -22.3 12.25 1.13 1.67 19.74 -10.27c3.82,-2.36 3.31,-1.04 6.97,0.8l19.88 10.84c1.58,0.93 5.09,3.39 6.69,2.52l0.38 -0.75c0.2,-0.67 0.19,-0.25 0.31,-1.32l-0.03 -43.32 -4.81 -2.69 -0.08 -10.61c-4.77,-0.53 -9.78,-1.29 -14.59,-1.99 -15.65,-2.25 -9.43,-2.9 -24.8,5.19 -3.21,1.69 -7.53,4.58 -10.73,5.77z"/>
   <path class="fil0" d="M374.85 53.45l1.8 0.06 3.89 -4.1c-5.6,-0.58 -4.13,-0.34 -6.92,2.16 -2.38,2.13 -4.79,1.07 -3.23,-2.27l-14.55 -0.14c0.11,-3.79 -0.86,-2.43 1.53,-3.13l18.44 -0.06c0.96,0.02 2.7,0.01 3.57,0.09l2.87 0.98c0.09,0.05 0.24,0.16 0.37,0.22 0.71,-1.04 3.31,-3.82 4.32,-4.88 1.59,-1.66 3.88,-3 4.16,-5.5 0.36,-3.27 0.24,-16.24 -0.15,-19.47l-15.17 0.01c-1.06,-0.08 0.13,0.08 -1.03,-0.12 -1.51,-0.26 -1.6,-0.37 -1.8,-1.4l-0.21 -7.2c0,-2.9 0,-5.8 0,-8.7l-24.74 0c0.3,9.55 0.09,19.6 0.04,29.18 -0.05,9.92 2.27,5.83 2.7,12.26 0.42,6.26 -4.05,8.34 -2.21,11.96l26.32 0.05z"/>
   <polygon class="fil0" points="0,450.75 36.42,450.67 36.17,413.92 18.25,413.63 18.17,395.72 0,395.64 "/>
   <path class="fil12" d="M336.24 91.23c-3.15,3.9 -7.12,7.01 -10.1,10.96 -2.62,-0.67 -3.69,-2.45 -6.91,-0.04l-8.52 8.87c-1.6,3.15 0.76,5.46 0.07,6.69l-11.48 12.63c-1.18,1.41 -4.31,3.61 -3.77,8.29 0.36,3.15 2.44,5.91 5.19,7.12 3.27,1.43 6.95,0.42 8.93,-1.47 2.17,-2.08 3.98,-4.02 6.13,-6.17 1.14,-1.14 1.94,-1.89 3.04,-3.1l9.06 -9.57c3.91,-4.4 7.61,-8.29 11.87,-13.01 1.68,-1.87 11.23,-11.76 11.48,-12.41 0.46,-1.44 0.48,-1.18 0.92,-1.83 0.22,-0.32 0.66,-0.75 1.01,-1.09 4.01,-3.95 3.79,-4.41 5.27,-5.93l0.56 -0.52c5.39,-4.88 5.1,-5.53 5.8,-9.94 -0.69,-3.78 -2.57,-4.46 -4.5,-6.98 -0.1,0.11 -0.21,0.27 -0.27,0.35 -0.06,0.08 -0.19,0.24 -0.27,0.34 -3.2,4.08 -4.78,5.28 -8.39,9.14 -7.9,8.44 -6.09,5.54 -11.39,4.64 -0.39,0.51 -1.09,1.42 -1.56,1.85 -1.7,1.56 -0.01,0.62 -2.17,1.18z"/>
   <path class="fil14" d="M364.13 350.72c0.96,1.77 7.79,8.26 9.12,10.24l-8.33 8.57c-1.48,1.35 -1.91,1.01 -2.42,3.21 2.43,0 5.14,0.09 7.2,0.56 2.1,0.49 1.6,0.19 0.92,1.28 -0.69,1.11 -1.06,0.51 -1.98,2.76 2.86,-0.03 9.95,-1.63 13.04,-2.31 20.07,-4.41 42.33,-8.45 62.75,-12.47 5.03,-0.99 21.61,-4.89 25.41,-4.69l-8.43 -0.8c-3.1,-0.43 -3.55,-0.55 -6.14,-1.25 -2.14,-0.57 -3.82,0 -5.72,0.07 -3.63,0.13 -8.9,-0.49 -12.42,-0.98l-21.57 -1.62 -52.22 -4.33c0.45,1.11 -0.14,0.48 0.79,1.76z"/>
   <path class="fil15" d="M364.79 80.71c-0.7,4.41 -0.41,5.06 -5.8,9.94l-0.56 0.52c-1.48,1.52 -1.26,1.98 -5.27,5.93 -0.35,0.34 -0.79,0.77 -1.01,1.09 -0.44,0.65 -0.46,0.39 -0.92,1.83 1.69,0.72 2.93,1.44 4.08,2.4 -12.61,10.38 -6.06,27.84 5.03,28.99 15.88,1.16 15.43,-8.88 20.4,-9.56 -1.62,-1.99 -4.38,-3.73 -3.88,-8.25 0.43,-3.78 6.01,-9.35 9.08,-12.37l5.86 -6.37c0.52,-0.6 0.68,-0.93 1.05,-1.68l-3.24 -3.49c-0.09,-0.07 -0.34,-0.24 -0.43,-0.32l-4.28 -4.2c-1.48,-1.1 -2.6,-1.45 -3.33,-3.14 -1.02,-1.62 -1.96,-2.2 -1.71,-5.38l-7.51 8.34c-2.39,-1.01 -4.35,-3.3 -7.56,-4.28z"/>
   <path class="fil16" d="M65.54 512l3.06 0 0 -26.11 22.3 -12.37c-0.65,1.16 -0.04,0.29 -0.96,1.42 -1.06,1.31 -2.27,1.92 -3.36,3.82 -2.47,4.31 0.7,1.99 -4.52,4.59 -4.42,2.19 -10.83,4.75 -10.38,8.01l1.05 0.31c2.86,0.27 9.33,-4.52 14.02,-6.83 1.03,1.58 1.17,1.65 3.86,1.64 3.21,-0.01 2.98,-0.76 4.62,-1.19 0,2.85 0.73,23.45 -0.55,25.96 -0.07,0.13 -0.39,0.6 -0.47,0.75l5.63 0c-0.09,-0.14 -0.42,-0.59 -0.49,-0.72 -1.1,-2.06 -0.54,-11.26 -0.54,-14.64 0,-19.63 -1.63,-14.16 3.68,-19.84 1.56,-1.67 1.22,-0.76 1.96,-2.65l20.99 11.74 0 26.11 3.28 0 0.05 -28.38c-1.69,-1.42 -2.86,-1.62 -4.87,-2.85l-0.04 -10.59 -13.25 -1.88c2.35,-2.42 4.63,-4.69 7.24,-7.42l6.36 -6.73c0.07,-0.02 0.22,-0.03 0.29,-0.04l1 0.33 1.81 -1.83c0.05,-3.19 -0.07,-1.63 1.82,-3.93 4.51,-5.47 -0.48,-8.13 -1.7,-9.38 0.74,-3.18 1.58,-4.37 3.3,-6.51 1.04,-1.3 3.58,-4.17 4.1,-5.27 -0.46,-1.21 -0.52,-1.25 -1.71,-1.76 -3.86,1.93 -4.62,5.74 -5.19,6.75l-4.28 7.6c-5.25,3.91 -17.71,18.03 -23.22,23.84 -2.06,2.17 -1.28,2.04 -4.54,3.03 -2.6,0.79 -20.93,11.14 -25.37,13.6 -1.11,0.61 -1.65,0.82 -2.62,1.37 -0.51,0.29 -1.08,0.68 -1.29,0.85 -0.62,0.5 -0.5,0.44 -1.11,0.9l0.04 28.3z"/>
   <path class="fil0" d="M0 289.32l0 8.39c12.24,-13.66 10.49,-11.57 18.29,-3.68 3.12,3.15 20.38,20.12 20.41,21.36 0.02,0.89 -9.39,11.22 -11.05,11.01 -1.89,-0.25 -23.38,-23.73 -27.65,-26.98l0 31.83 16.04 15.5 31.52 -30.83c-1.11,-2.18 -15.73,-15.68 -18.74,-18.6l-18.48 -18.12c-1.14,1.69 -8.64,9.2 -10.34,10.12z"/>
   <polygon class="fil0" points="453.38,76.29 453.39,113.94 480.64,128.81 480.68,88.57 453.36,73.82 "/>
   <path class="fil0" d="M423.28 95.78c2.45,2.84 0.23,0.17 0.23,7.63 -0.01,3.17 -0.67,16.33 0.15,18.19 0.59,1.35 3.35,4.38 4.71,4.98l22.3 -12.25 0.01 -40.58c-4.22,1.48 -9.61,5.25 -13.78,7.32l-13.47 7.51 -0.15 7.2z"/>
   <path class="fil15" d="M374.85 53.45c-0.18,1.47 -0.4,1.42 -0.62,2.82 0.33,4.29 1.26,8.1 6.51,6.99 2.84,-0.61 5.58,-4.8 7.55,-6.63l5.74 0.14c0.75,-7.64 -0.91,-5.47 3.48,-9.98l20.01 -20.96c6.4,-7.14 -1.92,-14.81 -9.42,-5.86l-9.95 10.56c-0.74,0.82 -1,1.18 -1.69,1.88l-2.15 1.72c-0.11,-4.19 -0.06,-8.44 -0.05,-12.63 0.01,-6.03 0.66,-6.32 -2.7,-9.6 -2.16,-2.1 -10.54,-11.04 -12.17,-11.9l-6.65 0c0,2.9 0,5.8 0,8.7l0.21 7.2c0.2,1.03 0.29,1.14 1.8,1.4 1.16,0.2 -0.03,0.04 1.03,0.12l15.17 -0.01c0.39,3.23 0.51,16.2 0.15,19.47 -0.28,2.5 -2.57,3.84 -4.16,5.5 -1.01,1.06 -3.61,3.84 -4.32,4.88 -0.13,-0.06 -0.28,-0.17 -0.37,-0.22l-2.87 -0.98c-0.87,-0.08 -2.61,-0.07 -3.57,-0.09l-18.44 0.06c-2.39,0.7 -1.42,-0.66 -1.53,3.13l14.55 0.14c-1.56,3.34 0.85,4.4 3.23,2.27 2.79,-2.5 1.32,-2.74 6.92,-2.16l-3.89 4.1 -1.8 -0.06z"/>
   <path class="fil17" d="M454.53 512l26.33 0 -0.05 -26.87c-3.09,-0.63 -24.85,-13.99 -27.44,-14.43l0 32.09c0.01,5.31 -0.79,7 1.16,9.21z"/>
   <path class="fil17" d="M99.84 512l25.6 0 0 -26.11 -20.99 -11.74c-0.74,1.89 -0.4,0.98 -1.96,2.65 -5.31,5.68 -3.68,0.21 -3.68,19.84 0,3.38 -0.56,12.58 0.54,14.64 0.07,0.13 0.4,0.58 0.49,0.72z"/>
   <path class="fil0" d="M68.6 512l25.61 0c0.08,-0.15 0.4,-0.62 0.47,-0.75 1.28,-2.51 0.55,-23.11 0.55,-25.96 -1.64,0.43 -1.41,1.18 -4.62,1.19 -2.69,0.01 -2.83,-0.06 -3.86,-1.64 -4.69,2.31 -11.16,7.1 -14.02,6.83l-1.05 -0.31c-0.45,-3.26 5.96,-5.82 10.38,-8.01 5.22,-2.6 2.05,-0.28 4.52,-4.59 1.09,-1.9 2.3,-2.51 3.36,-3.82 0.92,-1.13 0.31,-0.26 0.96,-1.42l-22.3 12.37 0 26.11z"/>
   <path class="fil18" d="M425.72 39.02c-0.15,0.41 -2.19,6.5 -2.19,6.51 1.69,1.12 2.24,1.16 3.57,2.51 1.17,1.19 1.95,2.47 3.9,3.56l-0.1 -2.45c5.4,-2.71 4.18,-0.68 12.02,-8.16 2.58,-2.46 16.68,-17.65 19.98,-22 1.46,-1.93 2.78,-3.74 4.29,-5.99 1.92,-2.86 2.35,-4.87 1.07,-8.08 -3.3,-0.73 -4.56,-0.48 -7.43,1.21 -6.73,3.98 -6.87,5.31 -11.16,8.34 -1.56,1.11 -0.97,0.89 -2.28,2.3 -2.2,2.35 -2.63,1.49 -7.36,6.98l-9.79 9.71c-1.87,2.05 -2.19,1.37 -4.52,5.56z"/>
   <path class="fil6" d="M125.81 426.08c1.13,-2.19 3.77,-4.8 5.4,-5.62 0.7,-2.35 1.12,-2.1 2.85,-3.7 1.56,-1.45 1.79,-2.36 3.03,-3.7 2.68,-2.89 5.97,-4.02 6.34,-7.04 -1.86,0.52 -0.12,0.54 -1.85,-1.24 -2.53,-2.61 -2.39,-2.88 -4.95,-4.35 -0.1,-0.06 -0.23,-0.13 -0.33,-0.19 -4.53,-2.62 -0.1,-1.53 -3.89,-4.75 -1.93,-1.64 -1.33,-1.64 -3.81,-3.36 0.03,-1.02 0.28,-2.7 0.24,-3.55l-0.89 -2.73c0.66,7.21 -2.74,8.98 -8.61,15.09l-9.39 10.55c-1.85,1.77 -7.73,7.66 -8.56,9.78 -0.37,0.93 -0.27,0.17 -0.31,1.42 0.31,0.14 0.7,0.4 0.78,0.43l2.33 1.51c2.28,1.88 2.74,0.86 3.11,4.2l4.46 -3.75c1.41,-1.43 2.62,-2.75 4.06,-4.09 3.76,-3.5 10.67,-1.99 9.99,5.09z"/>
   <path class="fil2" d="M0 297.71l0 1.71c4.27,3.25 25.76,26.73 27.65,26.98 1.66,0.21 11.07,-10.12 11.05,-11.01 -0.03,-1.24 -17.29,-18.21 -20.41,-21.36 -7.8,-7.89 -6.05,-9.98 -18.29,3.68z"/>
   <path class="fil19" d="M379.86 76.65c-0.25,3.18 0.69,3.76 1.71,5.38 6.44,1.71 7.28,-0.23 12.95,-6.48l24.22 -25.47c1.15,-1.23 3.43,-4.52 4.79,-4.55 0,-0.01 2.04,-6.1 2.19,-6.51 -1.93,-2.23 -2.48,-4.87 -6.8,-4.1 -2.95,0.52 -19.36,19.04 -23.07,23.02 -3.52,3.77 -15.39,15.42 -15.99,18.71z"/>
   <path class="fil10" d="M470.15 177.06c-2.19,0.52 -3.45,1.33 -5.06,2.34 -2.66,1.67 -1.91,0.86 -3.75,3.42 -2.62,3.67 -0.54,6.44 0.75,11.03 0.84,3 2.08,9.45 3.67,10.58 4.86,3.46 13.23,1.99 16.83,-1.44 4.3,-4.1 7.01,-8.92 5.04,-15.44 -1.84,-6.08 -8.91,-12.51 -17.48,-10.49z"/>
   <path class="fil20" d="M0 89.1l0 2.68c13.81,-3.49 12.11,-8.19 21.61,-4.32 4.05,1.64 18.17,6.43 20.73,8.28 -1.83,1.43 -17.54,6.93 -21.19,8.35 -9.48,3.7 -7.33,-0.57 -21.15,-4.26l0 9.32c2.11,2.66 2.66,5.22 7.23,8.03 10.36,6.34 26.19,0.46 26.9,-14.96 2.96,-2.33 12.28,-3.65 13.61,-6.48 -1.11,-2.06 -20.01,-8.73 -23.38,-10.03 -6.27,-2.42 -5.69,-3.74 -12.11,-1.27 -3.84,1.48 -8.15,3.35 -12.25,4.66z"/>
   <path class="fil0" d="M159.79 512l31.66 0c-2.65,-3.5 -13.24,-11.83 -14.26,-15.36 0.06,-1.37 3.08,-3.88 4.19,-4.99 4.65,-4.64 6.43,-7.69 9.75,-4.39l18.56 18.82c0.9,0.93 1.08,1.49 1.78,2.4l4.92 -2.62c-2.09,-0.71 -5.62,-5.04 -7.36,-6.79 -4.21,-4.21 -18.79,-18.51 -20.61,-21.41l-31.6 31.73c-1.11,0.55 0.24,0.45 -0.66,0.05 2.02,1.23 2.17,0.6 3.63,2.56z"/>
   <path class="fil21" d="M0 285.39l0 3.93c1.7,-0.92 9.2,-8.43 10.34,-10.12l18.48 18.12c3.01,2.92 17.63,16.42 18.74,18.6l-31.52 30.83 -16.04 -15.5 0 20.79c5.12,6.19 7.27,8.26 10.47,5.06 3.76,-3.78 27.39,-28.18 29.27,-29.28 0.54,-1.35 0.09,-0.51 1.17,-1.71l4.52 -4.71c6.27,-6.53 6.61,-4.33 -9.08,-20.35 -4.26,-4.35 -8.12,-8.32 -12.41,-12.67 -2.91,-2.95 -10.06,-10.94 -13.19,-12.88 -2.81,0.93 -4,3.04 -5.84,4.87 -1.72,1.69 -3.46,3.3 -4.91,5.02z"/>
   <path class="fil22" d="M77.63 401.39c1.03,-2.38 3.61,-2.97 4.49,-7.35 0.83,-4.1 -0.85,-6.85 -2.04,-9.53 0.69,-1.67 -0.03,-0.91 1.58,-2.07l-1.26 -1.63 -2.06 1.78c-5.49,-1.95 -7.06,-4.13 -13.83,-0.34 -4.33,2.7 -4.54,6.79 -5,10.06 -4.06,-4.38 -9.77,-9.74 -14.47,-14.44 -1.78,-1.79 -6.71,-5.06 -4.79,-9.42 0.62,-1.43 2.31,-2.78 4.32,-2.88 3.94,-0.2 2.74,2.26 5.9,1.33 1.25,-8.68 -23.49,-2.65 -9.1,11.57 4.98,4.91 20.76,21.95 25.39,23.76 4.72,1.85 6.97,0.11 10.87,-0.84z"/>
   <path class="fil0" d="M456.87 176.75c0.07,2.57 0.59,3.12 1.23,5.14 2.08,-1.46 1.14,-2.16 3.11,-3.79 14.81,-12.3 34.71,1.69 29.55,18.52 -3.55,11.61 -13.39,14.46 -24.94,11.14 0.52,3.1 0.09,3.67 2.17,5.3 2.89,0.35 2.09,1.34 2.82,3.69l0.74 1.65 4.24 -0.02 0.87 -4.97c4.39,-1.61 4.91,-1.85 8.27,2.31l3.66 -2.22c-0.64,-2.45 -1.17,-2.65 -1.3,-5.38 5.5,-4.25 0.94,-2.84 8.24,-1.46 0.74,-1.27 1.55,-2.49 2,-3.92 -3.14,-1.97 -4.64,-3.49 -2.18,-8.13l4.96 -0.85 -0.05 -4.41 -4.95 -1.13c-2.34,-4.99 -1.15,-5.75 2.4,-8.01l-2.21 -3.82 -5.25 1.32 -2.98 -2.79c0.12,-2.84 0.79,-2.87 1.29,-5.55l-3.7 -1.88c-0.63,0.86 -2.58,2.88 -3.18,3.56l-4.72 -1.28c-0.97,-1.71 -0.94,-2.91 -1.23,-5.02l-4.18 0.1c-1.69,3.01 0.3,4.52 -4.12,5.68 -3.63,0.95 -3,-1.45 -5.66,-3.28l-3.64 1.92c1.11,5.98 2.84,3.66 -1.26,7.58z"/>
   <path class="fil0" d="M383.59 512l36.76 0 0.27 -16.38c-1.13,0.45 -17.19,-1.13 -19.93,-1.61 -0.68,1.23 -9.29,3.98 -11.51,4.77 -0.55,7.11 -2.38,9.43 -5.59,13.22z"/>
   <path class="fil20" d="M0 395.64l18.17 0.08 0.08 17.91 17.92 0.29 0.25 36.75 -36.42 0.08 0 2.5c5.37,0.18 35.59,0.61 38.7,-0.33 0.85,-3.39 0.25,-29.43 0.32,-36.67 0.06,-5.68 -1.32,-5.49 -4.11,-8.28 -4.23,-4.22 -8.1,-8.04 -12.28,-12.29 -3.52,-3.57 -3.43,-2.6 -9.83,-2.59 -4.24,0 -8.57,-0.09 -12.8,0.04l0 2.51z"/>
   <path class="fil0" d="M0 91.78l0 8.05c13.82,3.69 11.67,7.96 21.15,4.26 3.65,-1.42 19.36,-6.92 21.19,-8.35 -2.56,-1.85 -16.68,-6.64 -20.73,-8.28 -9.5,-3.87 -7.8,0.83 -21.61,4.32z"/>
   <path class="fil0" d="M0 488.73l0 8.01c13.8,3.81 11.8,8.03 21.23,4.22 3.34,-1.35 19.67,-7.08 21.08,-8.42l-21.14 -8.38c-9.2,-3.42 -8.21,1.44 -21.17,4.57z"/>
   <path class="fil17" d="M276.04 496.99c-0.03,-4.67 15.62,-13.92 17.55,-19.61 -5.62,1.11 -9.46,6.25 -13.55,10.54 -1.54,1.63 -2.13,3.19 -3.99,1.04 0.48,-2.13 1.39,-1.86 2.99,-4.09 -5.94,0.98 -7.9,4.46 -10.07,5.81 0.91,1.81 1.64,1.68 2.55,3.28 0.07,0.14 0.25,0.59 0.33,0.72 1.12,2.08 -0.15,0.68 2.46,1.99 1.22,0.61 0.78,0.23 1.57,1.11 1.38,1.52 0.72,1.24 1.31,3.23 3,0.7 2.37,0.21 4.82,3.16l31.64 -30.66c-0.73,-2.44 0.24,-0.61 -1.33,-2.49 -0.52,-0.62 -1.32,-1.25 -2.05,-1.82l-5.59 2.31c-2.63,1.42 -2.81,0.78 -4.64,3.1 -1.55,1.97 -20.13,22.42 -22.01,22.67 -0.13,0.01 0.6,0.76 -1.99,-0.29z"/>
   <path class="fil17" d="M420.35 512l29.16 0c2.34,-2.63 1.28,-8.54 1.28,-12.29 0.84,-3.11 -1.3,2.55 0.72,-1.12 0.47,-0.86 0.78,0.55 0.28,-0.85 -0.99,1.14 0.44,0.69 -2.26,0.93l-13.31 -1.49c-2.69,-0.1 -4.85,-0.22 -7.62,-0.47 -2.66,-0.24 -5.44,-1.05 -7.98,-1.09l-0.27 16.38z"/>
   <path class="fil22" d="M451.79 497.74c0.5,1.4 0.19,-0.01 -0.28,0.85 -2.02,3.67 0.12,-1.99 -0.72,1.12 0,3.75 1.06,9.66 -1.28,12.29l5.02 0c-1.95,-2.21 -1.15,-3.9 -1.16,-9.21l0 -32.09c2.59,0.44 24.35,13.8 27.44,14.43l0.05 26.87 2.58 0 0.04 -28.32 -4.93 -2.73 0.02 -9.89c-1.62,-1.23 -4,-1.3 -6.14,-1.56 -2.14,-0.26 -4.17,-0.55 -6.31,-0.85 -4.14,-0.58 -8.7,-1.05 -12.65,-1.78l-2.46 0.14 -11.36 6.79c7.42,0.54 5.81,-1.07 10.85,-3.04 0.41,5.09 0.4,1.48 1.41,3.72 -2.24,2.35 -1.27,12.1 -1.34,17.56 -0.03,3.15 -0.37,3.43 1.22,5.7z"/>
   <path class="fil2" d="M455.89 174.58l0.98 2.17c4.1,-3.92 2.37,-1.6 1.26,-7.58l3.64 -1.92c2.66,1.83 2.03,4.23 5.66,3.28 4.42,-1.16 2.43,-2.67 4.12,-5.68l4.18 -0.1c0.29,2.11 0.26,3.31 1.23,5.02l4.72 1.28c0.6,-0.68 2.55,-2.7 3.18,-3.56l3.7 1.88c-0.5,2.68 -1.17,2.71 -1.29,5.55l2.98 2.79 5.25 -1.32 2.21 3.82c-3.55,2.26 -4.74,3.02 -2.4,8.01l4.95 1.13 0.05 4.41 -4.96 0.85c-2.46,4.64 -0.96,6.16 2.18,8.13 -0.45,1.43 -1.26,2.65 -2,3.92 -7.3,-1.38 -2.74,-2.79 -8.24,1.46 0.13,2.73 0.66,2.93 1.3,5.38l-3.66 2.22c-3.36,-4.16 -3.88,-3.92 -8.27,-2.31l-0.87 4.97 -4.24 0.02 -0.74 -1.65c-0.73,-2.35 0.07,-3.34 -2.82,-3.69 -0.48,0.88 -0.36,-0.22 -0.21,1.28 0.01,0.04 0.33,0.91 0.41,1.09l1.31 5.21 8.17 -0.02c0.54,-1.84 0.67,-4.08 1.63,-5.4 2.82,-0.21 3.3,1.85 4.39,3.44 2.8,-0.09 5.52,-2.34 7.88,-3.5 0.04,-3.01 -1.44,-4.15 -1.11,-6.27 2.29,-1.04 3.07,0.58 6.18,0.75 1.36,-1.25 1.52,-1.91 2.41,-3.48 0.86,-1.52 1.25,-1.83 1.76,-3.41 -1.37,-3.4 -3.7,-2.26 -3.54,-5.12 1.26,-1.34 3.64,-1.19 5.7,-1.9l-0.2 -8.4c-2.02,-0.88 -4.36,-0.58 -5.55,-1.99 -0.63,-1.71 2.1,-2.39 3.59,-5.12 -0.93,-2.47 -2.43,-5.13 -4.17,-6.84 -2.64,0.14 -3.07,0.99 -4.61,1.02 -3.18,0.04 -0.68,-2.92 -0.37,-5.95 -1.67,-1.89 -5.46,-4.15 -8,-4.19 -1.08,1.65 -1.58,3.71 -4.55,3.49l-1.34 -5.51c-2.68,-0.21 -6.46,-0.43 -8.58,0.26 -0.91,2.33 -0.19,4.2 -2.25,5.42 -2.18,-0.4 -0.99,-0.21 -2.36,-1.73 -0.78,-0.86 -1.2,-1.2 -2.24,-1.89 -2.09,0.74 -5.84,2.94 -6.94,4.14 0.46,2.65 2.37,4.62 0.49,6.14z"/>
   <path class="fil0" d="M3.2 298.35l24.87 24.88 7.57 -7.67c-1.35,-2.08 -23.44,-23.85 -25,-24.6l-7.44 7.39z"/>
   <path class="fil20" d="M0 486.03l0 2.7c12.96,-3.13 11.97,-7.99 21.17,-4.57l21.14 8.38c-1.41,1.34 -17.74,7.07 -21.08,8.42 -9.43,3.81 -7.43,-0.41 -21.23,-4.22l0 15.26 8.39 0c-0.09,-0.1 -0.24,-0.37 -0.29,-0.28 -0.05,0.09 -0.23,-0.22 -0.29,-0.27l-0.6 -0.5c-2.04,-1.63 -1.8,-1.19 -3.4,-3.79 -1.52,-2.45 -2.01,-3.86 -2.43,-7.05 3.01,0.84 12.9,5.39 14.98,5.3 2.84,-0.11 11.3,-4.59 15.2,-5.43 -1.23,7.7 -3.39,7.93 -7.09,12.02l4.13 0c2.83,-4.48 5.06,-4.84 5.54,-12.96l10.97 -4.38c2.03,-0.75 1.99,-0.39 2.62,-2.12 -1.48,-2.13 -19.66,-8.44 -23.44,-9.95 -12.46,-4.99 -5.5,-2.27 -24.29,3.44z"/>
   <path class="fil20" d="M343.49 512l3.23 0c0.58,-2.63 0.03,-5.32 0.57,-8.04 1.25,-6.24 -1.31,-1.27 -0.82,-7.78l7.13 2.71c0.91,6.74 2.22,9.53 5.65,13.11l4.15 0c-2.44,-3.1 -5.99,-3.78 -7.03,-11.85 3.5,0.81 12.53,5.33 14.82,5.27 2.79,-0.08 11.37,-4.56 15.31,-5.37 -1.15,8.25 -4.31,8.44 -7.05,11.95l4.14 0c3.21,-3.79 5.04,-6.11 5.59,-13.22 2.22,-0.79 10.83,-3.54 11.51,-4.77 -9.52,-1.36 -17.89,5.61 -28.31,8.43 -2.56,0.69 -10.94,-3.35 -13.8,-4.46l-13.04 -5.55c1.28,-0.34 2.52,-0.83 3.76,-1.29 0.57,-0.21 1.19,-0.33 1.86,-0.72 1.18,-0.7 0.82,-0.07 1.06,-1.19l-3.34 -0.19 -2.1 -0.16c-0.52,0.42 -0.03,0.12 -1.04,0.67l-0.72 0.36c-0.31,0.14 -1.33,0.49 -1.87,0.69 -1.96,0.74 -2.17,0.59 -3.01,1.94 0.63,1.94 1.99,1.76 3.73,2.68 -0.03,8.62 -2.16,2.75 -1.2,7.84 0.63,3.32 0.23,6.41 0.82,8.94z"/>
   <path class="fil2" d="M34.35 150.53l0.24 40.98c3.39,-0.05 14.52,-9.11 17.91,-11.56 2.86,-2.06 3.16,-1.67 4.25,-5.64l-19.66 13.35 0.01 -37.94 3.66 -0.13 0.31 4.09c3.19,-0.36 2.15,-0.83 2.42,-4.12l3.73 -0.03c0.23,2.7 -0.51,3.69 1.93,4 1.46,-1.93 0.28,-1.85 1.03,-3.92l3.54 -0.11c0.19,3.13 -0.68,3.81 2.21,4.08l0.54 -4 3.83 -0.1 0.38 4.07c2.84,-0.39 2,-1.15 2.19,-4.11l3.69 -0.03 0.66 3.19 3.09 -5.46 -32.42 -0.32c-3.42,-0.01 -3.54,0.38 -3.54,3.71z"/>
   <polygon class="fil0" points="195.58,512 204.93,512 208.86,509.94 188.79,489.43 181.07,497.31 "/>
   <path class="fil22" d="M44.09 174.11c1.4,0.57 1.75,-0.12 3.01,-1.04l14.85 -10.77c0.83,-0.9 2.94,-4.94 3.29,-6.28 -4.53,-0.05 -16.45,-0.74 -20.14,-0.17 -2.79,0.43 -1.83,2.49 -1.81,8.5l0.03 7.7c0.22,1.61 -0.26,-0.58 0.19,0.91 0.33,1.11 0.03,0.48 0.58,1.15z"/>
   <path class="fil10" d="M67.91 383.2c-11.11,4.58 -4.31,20.6 6.41,16.74 3.92,-1.42 7.17,-6.28 5.32,-11.52 -1.35,-3.83 -6.16,-7.52 -11.73,-5.22z"/>
   <path class="fil10" d="M471.03 272.16c4.03,-3.75 3.88,-5.63 7.1,-4.82 0.78,4.73 -10.02,7.29 -7.6,12.68 1.81,-1.57 7.18,-8.26 7.38,-5.3l0.19 1.59 -7.3 7.1c-1.71,1.55 -1.54,1.5 -1.48,4.29 2.59,-1.5 5.31,-5.14 7.54,-7.45 2.85,-2.97 6.09,-7.67 7.96,-5.81 0.06,0.06 1.8,0.62 -0.38,3.11l-13.14 12.5c-2.61,2.49 -3.32,2 -3.57,6.96 2.52,-1.18 14.13,-14.02 17.05,-17.03 1.88,-1.92 4.24,-4 5.72,-6.02 -0.86,0.32 0.47,0.5 -0.65,-0.09 -1.58,-0.85 -9.85,-10.82 -12.27,-12.3 -2.52,3.58 -7.03,4.36 -6.55,10.59z"/>
   <path class="fil0" d="M1.36 103.19c2.98,19.83 29.15,17.09 30.12,-0.03 -3.98,0.58 -11.22,4.89 -14.71,5.32 -2.43,0.29 -12.18,-4.39 -15.41,-5.29z"/>
   <path class="fil0" d="M8.39 512l16.08 0c3.7,-4.09 5.86,-4.32 7.09,-12.02 -3.9,0.84 -12.36,5.32 -15.2,5.43 -2.08,0.09 -11.97,-4.46 -14.98,-5.3 0.42,3.19 0.91,4.6 2.43,7.05 1.6,2.6 1.36,2.16 3.4,3.79l0.6 0.5c0.06,0.05 0.24,0.36 0.29,0.27 0.05,-0.09 0.2,0.18 0.29,0.28z"/>
   <path class="fil0" d="M363.4 512l16.05 0c2.74,-3.51 5.9,-3.7 7.05,-11.95 -3.94,0.81 -12.52,5.29 -15.31,5.37 -2.29,0.06 -11.32,-4.46 -14.82,-5.27 1.04,8.07 4.59,8.75 7.03,11.85z"/>
   <path class="fil12" d="M332.8 128.93c-7.47,5.9 0.06,13.33 5.27,8.95l3.18 -2.98c0.36,-0.44 0.6,-0.79 0.96,-1.27 0.67,-0.76 3.77,-3.88 4.25,-5.33 0.98,-3 -0.63,-5.54 -2.64,-6.29 -5.12,-1.9 -7.97,5.07 -11.02,6.92z"/>
   <path class="fil12" d="M162.3 381.44c5.25,0 7.57,-5.37 10.89,-8.57 6.03,-5.82 -0.77,-9.35 -2.69,-9.35 -3.16,0 -7.02,5.8 -9.09,7.81 -2.07,1.99 -4.73,5.17 -1.82,8.21 0.32,0.32 2.57,1.9 2.71,1.9z"/>
   <path class="fil10" d="M341.91 68.1c2.91,1.71 1.75,0.91 4.33,0.8 1.62,-0.06 1.71,0.1 3.05,1.15l0.92 0.73 13.36 -13.99 -13.75 -0.19c-0.8,4.53 -2.77,5.38 -5.76,8.44l-2.15 3.06z"/>
   <path class="fil23" d="M0 181.75l15.26 0.02c-0.13,-3.54 -2.03,-4.11 -6.91,-7.39 -2.46,-1.65 -6.29,-5.05 -8.35,-5.47l0 12.84z"/>
   <path class="fil0" d="M346.72 512l12.53 0c-3.43,-3.58 -4.74,-6.37 -5.65,-13.11l-7.13 -2.71c-0.49,6.51 2.07,1.54 0.82,7.78 -0.54,2.72 0.01,5.41 -0.57,8.04z"/>
   <path class="fil10" d="M46.06 170.36c1.51,-0.7 16.18,-10.43 16.89,-12.06l-16.63 0.23c-0.77,2.39 -0.53,9.1 -0.26,11.83z"/>
   <path class="fil0" d="M264.19 508.42c0.96,0.42 13.25,-0.95 14.53,-1.54 0.79,-4.52 -2.73,-1.51 -5.13,-2.2 -1.3,-3.03 1.48,-2.7 -0.01,-4.68 -1.23,-1.63 -2.3,0.07 -5.12,0 -0.4,-3.16 2.43,-6.03 -2,-5.59 -0.84,1.58 -2.08,11.52 -2.27,14.01z"/>
   <path class="fil20" d="M499.31 447.39c-7.42,2.84 -2.97,13.28 4.09,10.47 6.49,-2.59 2.99,-13.19 -4.09,-10.47z"/>
   <path class="fil20" d="M498.94 50.73c-1.68,0.71 -2.27,0.45 -3.03,2.82 -1.71,5.26 3.18,9.44 7.76,7.26 6.11,-2.92 2.83,-13.29 -4.73,-10.08z"/>
   <path class="fil24" d="M144.81 447.3c-7.28,1.85 -4.46,12.77 2.97,10.79 6.4,-1.7 4.22,-12.62 -2.97,-10.79z"/>
   <path class="fil0" d="M20.73 411.41l13.5 -0.05c-1.77,-2.25 -11.08,-11.73 -13.54,-13.42l0.04 13.47z"/>
   <path class="fil0" d="M480.48 259.58l11.87 11.44c0.71,1.13 0.55,0.09 0.2,0.85 6.21,-6.92 -4.64,-18.48 -12.07,-12.29z"/>
   <path class="fil0" d="M427.44 41.98c0.61,0.93 2.77,2.97 3.66,3.93 2.97,-0.68 5.76,-3.68 8.2,-5.97 -4.19,-5.35 -1.08,-2.01 -5.64,-5.8 -1.63,1.81 -4.82,4.43 -6.22,7.84z"/>
  </g>
 </g>
</svg>
