<?xml version="1.0" encoding="UTF-8"?>
<!DOCTYPE svg PUBLIC "-//W3C//DTD SVG 1.1//EN" "http://www.w3.org/Graphics/SVG/1.1/DTD/svg11.dtd">
<!-- Creator: CorelDRAW 2021 (64-Bit) -->
<svg xmlns="http://www.w3.org/2000/svg" xml:space="preserve" width="512px" height="512px" version="1.1" style="shape-rendering:geometricPrecision; text-rendering:geometricPrecision; image-rendering:optimizeQuality; fill-rule:evenodd; clip-rule:evenodd"
viewBox="0 0 512 512"
 xmlns:xlink="http://www.w3.org/1999/xlink"
 xmlns:xodm="http://www.corel.com/coreldraw/odm/2003">
 <defs>
  <style type="text/css">
   <![CDATA[
    .fil2 {fill:#F3DB2B}
    .fil0 {fill:#F9D405}
    .fil1 {fill:#FAE901}
   ]]>
  </style>
 </defs>
 <g id="Layer_x0020_1">
  <metadata id="CorelCorpID_0Corel-Layer"/>
  <g id="_2401179387952">
   <path class="fil0" d="M512 253.05l0 -186.58c-3.05,-1.09 -1.55,-0.04 -2.36,-3.09l-0.06 -9.99 -13.07 -0.03 0.09 -13.15 -13.04 -0.16 -0.18 -26.13 -17.46 -0.24c0.97,-5.43 4.22,-2.96 12.54,-13.68l-377.46 0c8.79,25.42 27.83,49.62 45.93,62.73 22.83,16.54 49.09,25.26 86.09,20.9 10,-1.18 25.25,-3.94 35.55,-3.89l11.02 -0.04c2.05,0.08 1.35,0.2 2.57,0.23 1.05,0.03 0.69,-0.11 2.52,-0.1 2.24,0.02 3.29,0.26 5.79,0.46l4.97 0.97c1.91,0.17 0.26,-1.14 4.98,-0.27 7.84,1.46 21.02,0.96 33.5,5.8 2.48,0.96 3.03,-0.06 10.05,2.27 7.23,2.41 13.22,4.55 19.54,7.52 14.03,6.58 8.95,6.35 11.37,7.59 0.7,0.35 3.4,-0.75 12.89,7.47 1.93,1.68 5.15,4.92 7.7,6.33l-1.14 1.85c-1.05,1.6 -1.21,1.53 -0.23,0.23 1.35,2.43 0.15,-0.26 2.8,0.64 4.2,1.44 1.63,3.86 5.95,6.84 2.98,2.06 11.04,15.05 11.81,17.28 1.76,5.13 0.15,0.48 -0.95,3.94 4.83,1.56 3.58,1.16 5.5,6.16 1.3,3.41 2.31,5.83 3.56,9.58 6.42,19.23 6.93,36.65 20.44,58.35 10.63,17.07 24.3,29.83 45.49,32.17 11.5,1.26 13.83,-0.58 23.3,-1.96z"/>
   <path class="fil0" d="M299.04 512l212.96 0 0 -190.82c-30.74,3.26 -62.46,14.73 -88.27,28.89 -2.4,1.31 -4.09,2.47 -6.38,3.55 -1.93,0.91 -1.49,0.46 -3.24,1.62 -2.54,1.69 -9.3,7.39 -11.76,7.61 -2.52,0.22 0.63,0.17 -1.9,-0.62 -0.18,3.25 0.1,3.07 -2.98,3.97 -4.17,1.22 0.1,-0.37 -2.85,2.45 -2.73,2.6 -1.24,-0.16 -4.32,2.94 -0.12,0.12 -0.25,0.33 -0.36,0.45l-16.43 13.92c-5.21,3.97 -1.57,4.06 -6.44,4.35 -0.04,2.55 0.72,1.59 -1.09,3.62l-19.78 22.19c-4.8,5.17 -1.96,2.19 -5.27,6.97 -16.3,23.54 -37.64,61.29 -41.89,88.91z"/>
   <path class="fil0" d="M0 512l217.62 0c1.83,-10.44 4.17,-14.56 -2.7,-23.65 -13.87,-18.37 -45.98,-22.35 -67.06,-26.3 -59.93,-11.24 -87.26,-42.53 -79.79,-105.26 3.93,-33.01 14.45,-60.67 -25.62,-89.64 -8.82,-6.37 -29.23,-17.24 -42.45,-19.57l0 264.42z"/>
   <path class="fil1" d="M512 66.47l0 -66.47 -33.54 0c-8.32,10.72 -11.57,8.25 -12.54,13.68l17.46 0.24 0.18 26.13 13.04 0.16 -0.09 13.15 13.07 0.03 0.06 9.99c0.81,3.05 -0.69,2 2.36,3.09z"/>
   <path class="fil0" d="M87.87 128.23c-6.77,2.49 -13.26,7.34 -10.55,17.62 4.7,17.87 33.28,11.69 27.72,-8.18 -1.62,-5.75 -9.33,-12.31 -17.17,-9.44z"/>
   <path class="fil2" d="M422.67 450.36c-2.3,-0.7 -1.43,-0.76 -4.72,-1.64 0.24,3.87 0.45,6.83 0,10.68 0.24,0.18 0.64,0.01 0.82,0.38 2.09,4.32 -1.38,-0.12 3.07,1l1.37 0.27c-1.03,3.31 -0.27,0.26 -0.53,3.29 -0.13,1.5 -0.13,1.89 -0.12,3.37l0.26 3.12c1,2.27 -1.56,1.23 2.89,1.92 1.83,-10.24 4,0.24 5.6,-6.81 1.33,4 -0.81,2.28 3.14,2.5 2.43,-3.29 6.1,-6.22 9.72,-8.57 0.21,-0.13 0.52,-0.29 0.76,-0.47 -0.9,-4.44 0.29,-7.07 -0.16,-9.85l-18.15 0.48c-1.7,-4.54 1.04,-1.44 -2.13,-4.59l-1.15 2.28c-0.19,0.5 -0.07,1.17 -0.67,2.64z"/>
   <path class="fil2" d="M440.84 385.8c-2.54,-0.87 -6.19,-1.24 -8.52,-0.12l-0.47 30.98 12.02 -0.78c5.47,-0.63 0.15,1.77 6.05,-0.12 -0.95,-5.43 0.12,-7.22 -1.37,-9.5 -1.99,-3.04 1.09,0 -1.16,-1.09 -1.02,1.42 -1.14,1.65 -1.24,4.9 -0.1,3.19 0.69,1.26 -0.01,4.77 -1.51,-1.61 -0.57,-0.14 -1.29,-2.28 -0.77,-2.31 -0.27,-18.17 -0.45,-21.92 -0.01,-0.2 -0.04,-0.42 -0.04,-0.63 -0.01,-0.21 -0.03,-0.43 -0.03,-0.65 0,-0.25 0,-0.45 0,-0.7l-1.03 -8c-2.71,1.49 -0.96,0.34 -1.83,2.35l-0.52 2.08c-0.04,0.17 0,0.5 -0.11,0.71z"/>
   <path class="fil0" d="M183.34 411.74c-13.4,5.91 -5.24,22.8 6.66,19.18 4.9,-1.49 8.28,-6.53 6.39,-13.35 -1.08,-3.88 -5.77,-7.21 -10.62,-6.61 -3.48,0.43 -1.55,0.39 -2.43,0.78z"/>
   <path class="fil2" d="M375.83 171.46c0.33,-6.29 0.49,-10.88 -4.25,-13.1 -5.13,-2.39 -10.92,-0.43 -12.7,4.16 -2.16,5.58 0.49,10.01 4.61,12.15 5.74,2.98 8.83,-0.89 12.34,-3.21z"/>
   <path class="fil2" d="M380.32 449.55l0.12 17.25c1.85,0.11 0.87,0.22 2.42,0.79 1.49,0.54 2,0.77 3.25,0.91l6.66 0.57c0.52,-4.41 0.26,-13.4 -0.44,-17.67 2.31,0.89 4.06,1.86 7.68,0.88 2.23,-0.6 0.73,0.21 2.39,-1.1 -1.39,-1.98 1.56,0.26 -1.09,-0.89l-8.54 -0.51c-0.19,-0.01 -0.42,-0.05 -0.62,-0.07l-11.11 -0.14c-0.17,-0.01 -0.48,-0.08 -0.72,-0.02z"/>
  </g>
 </g>
</svg>
