<?xml version="1.0" encoding="UTF-8"?>
<!DOCTYPE svg PUBLIC "-//W3C//DTD SVG 1.1//EN" "http://www.w3.org/Graphics/SVG/1.1/DTD/svg11.dtd">
<!-- Creator: CorelDRAW 2021 (64-Bit) -->
<svg xmlns="http://www.w3.org/2000/svg" xml:space="preserve" width="512px" height="512px" version="1.1" style="shape-rendering:geometricPrecision; text-rendering:geometricPrecision; image-rendering:optimizeQuality; fill-rule:evenodd; clip-rule:evenodd"
viewBox="0 0 512 512"
 xmlns:xlink="http://www.w3.org/1999/xlink"
 xmlns:xodm="http://www.corel.com/coreldraw/odm/2003">
 <defs>
  <style type="text/css">
   <![CDATA[
    .fil1 {fill:#7D545A}
    .fil4 {fill:#A0ADC0}
    .fil5 {fill:#C1A1A4}
    .fil2 {fill:#D8B677}
    .fil3 {fill:#DAB758}
    .fil6 {fill:#E7DBD8}
    .fil0 {fill:#FAF2EA}
   ]]>
  </style>
 </defs>
 <g id="Layer_x0020_1">
  <metadata id="CorelCorpID_0Corel-Layer"/>
  <g id="_2436810034752">
   <path class="fil0" d="M0 63.5c7.2,1.04 9.34,-3.72 11.06,-5.58 4.06,-4.41 7.16,-8.43 13.51,-9.61 14.67,-2.73 19.25,9.61 25.02,13.97 3.53,2.68 8.59,1.66 11.85,-1.93l4.62 -5.28c3.39,-4.26 10.27,-8.6 18.99,-6.65 6.72,1.5 9.53,6.11 13.17,9.9 1.75,1.82 4.88,6.87 11.28,5.06 4.49,-1.26 5.95,-5.19 8.65,-7.77 1.77,-1.71 3.08,-3.27 5.14,-4.73 2.12,-1.49 6.05,-2.92 8.75,-2.81 1.03,0.04 0.44,-0.08 1.29,0.2l0.04 8.78c-1.51,0.92 -3.9,0.17 -6.96,3.53 -0.37,0.4 -0.44,0.6 -0.8,1.04l-5.33 5.99c-5.7,5.51 -14.04,7.5 -21.97,3.43 -2.04,-1.04 -2.15,-1.29 -3.97,-2.98l-4.82 -5.08c-0.89,-0.97 -2.01,-3.37 -5.09,-4.76 -5.07,-2.3 -8.49,0.49 -10.89,2.9 -0.06,0.05 -0.14,0.12 -0.19,0.17l-1.85 2.16c-1.27,1.38 -1.78,2.06 -3.05,3.56 -3.65,4.27 -11.52,7.93 -19.71,5.34 -3.19,-1.01 -4.11,-1.88 -6.28,-3.63l-3.27 -3.3c-3.18,-4.26 -8.33,-10.35 -14.62,-7.22 -7.19,3.57 -8.24,15.29 -24.57,14.95l0 339.57c1.35,-0.66 3.89,-2.27 5.4,-3.22 1.8,-1.14 3.96,-2.38 5.86,-3.27 3.37,-1.57 9.02,-4.87 12.55,-5.8 0.45,-12.09 10.13,-21.95 20.39,-24.52 6.96,-1.74 13.26,-0.87 19.08,1.86 5.59,2.63 8.55,6.09 11.82,11.03 6.29,-0.64 14.39,0.31 20.86,0.38l2.31 -0.08c-11.44,-10.9 -21.22,-27.99 -26.98,-42.36 -10.67,-26.61 -15.12,-61.15 -12.76,-89.69 2.42,-29.19 9.18,-55.49 23.22,-80.19 4.07,-7.16 8.6,-14.47 14.16,-20.58l24.09 -23.86c20.4,-17.09 54.62,-37.45 79.15,-45.94 9.09,-3.15 17.29,-5.65 27.31,-7.44 4.38,-0.78 28.31,-3.86 31.18,-1.14l-1.63 0.51c-0.22,0.03 -1.2,0.03 -1.48,0.03l-24.18 2.71c-17.05,2.9 -33.14,9.56 -48.51,16.63 -5.26,2.42 -10.74,5.35 -15.84,8.28 -11.41,6.55 -18.37,11.2 -29.02,18.51 -4.49,3.07 -16.07,12.18 -19.98,15.83 -5.14,4.8 -7.49,6.96 -12.07,12.08 -10.13,11.34 -16.85,19.66 -24.34,34.89 -4.56,9.28 -5.61,12.16 -9.08,21.27 -1.79,4.69 -5.33,18.36 -6.26,23.38 -1.62,8.7 -3.62,23.49 -3.85,31.65 -1.13,40.37 7.65,82.2 31.15,112.26 4.55,5.83 11.82,13.86 17.69,18.14l1.25 0.93c0.08,0.07 0.29,0.29 0.37,0.36l4.99 3.8c13.7,8.94 14.9,10.09 30.71,17.17 28.6,12.8 91.48,24.41 121.42,20.67 18.67,-1.31 46.17,-12.89 62.8,-22.58 1.41,-0.82 2.52,-1.63 3.85,-2.38 2.66,-1.5 15.85,-6.91 21.13,-9.58 2.61,-1.31 5.23,-2.83 7.68,-4.37 4.55,-2.86 14.3,-9.62 18,-12.73l3.46 -2.74c0.98,-0.84 2.36,-1.85 3.22,-2.65 0.89,-0.82 0.62,-0.67 1.53,-1.39l8.26 -7.39c1.34,-1.87 3.13,-3.82 4.79,-5.87l6.91 -9.18c3.58,-4.72 7.36,-10.52 10.47,-15.49 1.46,-2.33 2.59,-4.24 3.94,-6.67 13.56,-24.6 23.78,-47.34 26.44,-78.29 1.2,-14.08 0.43,-25.83 -1.66,-39.07 -1,-6.31 -2.37,-11.49 -3.93,-17.3 -4.71,-17.48 -13.69,-34.67 -24.33,-49.25 -1.88,-2.57 -12.75,-15.42 -14.42,-16.3 0.94,0.91 0.34,0.36 1.13,1.4l2.73 3.8c7.47,11.32 2.61,4.96 5.81,10.62l6.08 11.09c0.33,0.66 0.4,1.02 0.63,1.55l4.7 10.28c0.48,1.14 0.77,1.93 1.25,3.14 1.9,4.73 6.54,17.77 7.65,22.27l3.13 14.05c0.58,2.61 0.9,4.01 1.3,7.07 0.61,4.76 1.51,9.63 1.32,15.38l-0.09 -3.83 1.18 4.24c0.69,4.03 -0.58,15.52 -0.65,18.96 -0.08,3.2 -1.34,10.32 -1.9,12.37l-2.1 7.73c-0.73,2.8 -1.26,5.02 -2.24,7.69l-5.78 13.61c-2.13,4.29 -4.38,8.78 -6.87,12.86 -7.92,12.95 -14.31,22.18 -24.15,34.41 -1.53,1.91 -3.05,3.45 -4.47,5.41l-2.67 3.2c-0.05,0.05 -0.13,0.12 -0.18,0.17 -0.05,0.05 -0.13,0.12 -0.18,0.17l-1.4 1.89c-4.79,6.13 -18,19.18 -24.35,24.69 -8.11,7.03 -19.12,14.92 -28.22,20.46l-11.25 6.25c-0.59,0.42 -0.84,0.61 -1.33,0.92l-12.92 6.4 -20.79 6.78c-0.66,0.17 -1.23,0.24 -1.81,0.4 -12.86,3.41 -28.97,5.14 -43.82,4.85 -2.4,-0.05 -9.82,-0.23 -11.81,-0.74l-1.87 -0.58c-8.32,-1.31 -9.67,-0.34 -20.99,-3.3 -10.34,-2.7 -20.16,-5.53 -29.86,-9.26 -25.83,-9.92 -55.77,-21.88 -75.05,-42.39l-4.59 -5.29c-16.8,-19.54 -25.69,-51.46 -30.03,-77.09 -4.02,-23.67 -3.42,-49.24 2.2,-71.23 5.3,-20.73 15.02,-37.78 26.33,-51.89l3.45 -4.24c1.59,-2.22 8.61,-9.34 10.53,-11.43l5.07 -4.44c2.19,-2.27 7.86,-6.6 10.7,-8.69 37.08,-27.4 78.5,-39.64 129.62,-46.25 33.83,-4.38 70.98,-2.97 102.09,11.25 13.08,5.97 13.94,7.26 25.07,13.69 -0.72,-0.77 -0.58,-0.38 -1.17,-1.4 1.08,0.65 1.62,1.33 2.4,2.06l24.99 22.17c5.97,6.66 9.71,10.99 15.04,19 18.22,27.38 26.84,58.61 26.61,92.86 -0.03,3.2 -0.3,5.33 -0.38,8.43 -0.05,2.39 -0.46,1.66 -0.63,3.62 -0.12,1.29 0.05,2.62 -0.18,3.92 -0.33,1.93 -0.95,4.98 -1.23,7.13 -0.57,4.4 -2.16,9.75 -2.59,12.37 -0.17,1.08 -0.13,1.01 -0.38,1.85 -0.66,2.27 -1.09,4.2 -1.7,6.75l-2.19 6.18c-0.38,1.32 -2.05,5.35 -2,5.61 4.52,0.42 14.24,-1.36 19.03,-2.17 5.79,-0.98 12.26,-2.61 17.9,-3.27l0.64 -0.69 0.11 -41.62 10.93 0.03 -0.03 40.15c6.67,-0.84 12.32,-1.6 19.11,-1.43l0 -293.72 -22.27 0c0.47,8.67 -0.2,12.7 5.78,17.97l5.87 4.71c6.17,4.45 7.38,11.47 3.65,17.88 -6.58,11.3 -20.43,9.68 -26.79,16.01 -0.93,0.92 -2.43,3.64 -3.15,5.62 -2.79,7.64 -0.31,3.42 -1.36,6.3 -0.12,0.33 -3.05,4.56 -3.54,5.26 -1.85,2.67 -2.32,4.2 -4.27,4.88 0.38,-2.52 0.62,-1.45 2.63,-4.7 -10.41,4.83 -17.58,-4.32 -19.77,-4.92l0.14 40.95c1.72,-0.17 3.67,-0.67 5.31,-1.05l3.68 -0.71c1.35,0.07 0.4,-0.3 1.3,0.42 -0.29,0.18 -0.33,0.21 -0.87,0.42 -0.35,0.14 -0.16,0.07 -0.59,0.2 -0.31,0.09 -0.87,0.2 -1.2,0.27 -0.82,0.16 -1.63,0.3 -2.45,0.5 -1.69,0.39 -3.3,0.69 -5.13,1.17l-0.03 32.06c-3.52,0.6 -18.42,-1.27 -20.98,-2.48l-10.8 -12.65c-0.8,-0.87 -1.27,-1.07 -2.12,-1.9 -5.72,-5.59 -17.39,-14.52 -23.98,-19.18 -3.08,-2.17 -6.28,-4.18 -9.65,-6.05 -2.06,-1.14 -8.79,-4.12 -9.83,-5.9 -3.16,-5.42 -6.44,-16.55 -7.55,-23.81 -1.56,-10.13 -1.45,-18.89 0.16,-28.89 2.08,-12.98 10.01,-30.96 18.87,-40.37 0.65,-0.69 1.12,-1.2 1.63,-2.01l-384.69 0 0 63.5z"/>
   <path class="fil1" d="M492.89 295.15l0.06 38.07 -25.77 0.05 0.02 -11.13 14.68 -0.07 0 -24.01c-0.09,-1.09 0.32,-0.54 -0.64,-0.78 -5.64,0.66 -12.11,2.29 -17.9,3.27 -4.79,0.81 -14.51,2.59 -19.03,2.17 -1.21,1.91 -3.81,9.23 -5.13,12.15 -1.87,4.11 -3.61,7.69 -5.44,11.38 -2.72,5.44 -9.13,16.14 -12.39,21.25 -2.24,3.51 -11.24,16.35 -14.18,19.83 -1.38,1.64 -2.51,3.13 -3.77,4.65l-11.92 13.3c-2.83,3.06 -5.32,5.35 -8.72,8.44 -21.36,19.37 -45.83,34.94 -75.47,42.25 -39.03,9.62 -82.32,5.55 -120.49,-2.92 -23.76,-5.27 -52.91,-15.51 -71.57,-29.73 -5.7,-4.34 -8.77,-6.55 -13.83,-11.37 -2.74,-2.62 -2.01,-2.55 -5.44,-2.77 -6.47,-0.07 -14.57,-1.02 -20.86,-0.38 2.02,4.59 3.34,6.79 3.67,12.75 0.25,4.47 -1.06,9.58 -2.88,13.37 -0.9,1.86 -2.01,3.61 -3.16,4.87l-3.94 4.1c-8.57,8.07 -27.07,8.23 -35.66,-0.63l-1.09 -1.08c-5.87,-5.22 -8.9,-13.7 -8.23,-21.75 -3.53,0.93 -9.18,4.23 -12.55,5.8 -1.9,0.89 -4.06,2.13 -5.86,3.27 -1.51,0.95 -4.05,2.56 -5.4,3.22l0 99.28 268.33 0 7.88 -10.89c2.45,-3.34 8.69,-12.69 11.77,-16 3.92,-4.21 4.02,-4.75 8.99,-9.68l9.82 -8.81c1.94,-1.54 3.45,-2.71 5.48,-4.03 3.95,-2.56 7.23,-4.61 11.78,-6.87 5.68,-2.82 21.58,-8.88 28.57,-8.71 2.47,-1.75 2.08,-1.29 5,-0.95 5.62,-0.1 11.3,-0.86 17.24,-0.84 5.77,0.01 11.46,0.25 17.24,0.76 2.61,-0.34 3.07,-0.05 5.25,0.46l12.62 1.44 0.9 -0.79c0.45,-0.41 0.21,-0.31 0.79,-0.68 3.53,-2.2 5.44,2.44 5.62,2.55l11.76 1.61c0.34,-0.7 -0.42,-4.99 3.96,-4.85 1.53,0.05 2.58,0.83 3.03,1.84 0.9,2.02 -0.25,2.6 0.41,3.65l12.46 -0.36c-1.3,-5.01 4.44,-6.73 6.32,-2.85l0.65 1.38c0.04,0.09 0.11,0.21 0.18,0.31l12.75 -3.28 2.69 -0.92c9.82,-3.8 18.42,-7.95 26.71,-14.22 1.05,-0.79 1.31,-0.84 2.36,-1.64l9.14 -7.7c0.98,-1.3 1.03,-1.49 2.3,-2.25l0 -125.96c-6.79,-0.17 -12.44,0.59 -19.11,1.43z"/>
   <path class="fil0" d="M471.49 445.49c1.46,0.86 3.11,0.97 3.47,3.01 0.35,1.89 -0.83,3.7 -2.16,4.22 -2.57,1.01 -5.36,-0.96 -4.99,-3.92 0.15,-1.2 0.68,-1.45 0.99,-2.39l-12.75 3.28c-0.07,-0.1 -0.14,-0.22 -0.18,-0.31l-0.65 -1.38c-1.88,-3.88 -7.62,-2.16 -6.32,2.85l-12.46 0.36c-1.65,0.62 -1.53,1.96 -4.03,1.71 -1.24,-0.12 -1.15,-0.2 -2,-0.85 -1.19,-0.91 -0.53,-0.35 -1.37,-1.5l-11.76 -1.61c-0.18,-0.11 -2.09,-4.75 -5.62,-2.55 -0.58,0.37 -0.34,0.27 -0.79,0.68l-0.9 0.79 -12.62 -1.44 -0.86 0.25c2.95,2.08 0.63,6.68 -2.79,6.21 -1.84,-0.26 -2.96,-1.28 -3.13,-3.12 -0.22,-2.39 1.45,-2.85 1.53,-3.8 -5.78,-0.51 -11.47,-0.75 -17.24,-0.76 -5.94,-0.02 -11.62,0.74 -17.24,0.84 1.97,2.55 2.42,6.57 -1.79,6.9 -4.2,0.32 -4.05,-4.16 -3.21,-5.95 -6.99,-0.17 -22.89,5.89 -28.57,8.71 -4.55,2.26 -7.83,4.31 -11.78,6.87 -2.03,1.32 -3.54,2.49 -5.48,4.03l-9.82 8.81c-4.97,4.93 -5.07,5.47 -8.99,9.68 -3.08,3.31 -9.32,12.66 -11.77,16l-7.88 10.89 243.67 0 0 -92.32c-1.27,0.76 -1.32,0.95 -2.3,2.25l-9.14 7.7c-1.05,0.8 -1.31,0.85 -2.36,1.64 -8.29,6.27 -16.89,10.42 -26.71,14.22z"/>
   <path class="fil2" d="M448.78 69.01c-0.99,-1.25 -1.46,-1.33 -2.81,-2.27l-1.68 -1.22c-1.26,-1.2 0.33,-0.58 -1.42,-1.07 -1.38,-0.38 -0.59,0.43 -1.56,-0.68 -3.33,-3.83 -11.19,-2.96 -15.25,-2.56 -2.29,0.22 -8.37,0.05 -10.11,-0.58l-6.96 -4.09c-1.78,-1.34 -2.04,-6.12 -1.35,-8.74 0.58,-2.2 2.64,-4.99 3.75,-6.87 0.38,-0.65 0.06,0.04 0.49,-0.97 2.55,-6.05 1.08,-3.7 2.1,-7.2l-22.18 -0.05c-0.61,-1.82 -0.26,-4.42 -0.26,-6.39l21.63 -0.03c-0.19,-4.31 -0.98,-9.37 -0.47,-14.21 0.18,-1.75 0.73,-4.31 1.24,-6.16 0.76,-2.75 1.41,-1.68 1.63,-5.92l-30.88 0c-0.51,0.81 -0.98,1.32 -1.63,2.01 -8.86,9.41 -16.79,27.39 -18.87,40.37 -1.61,10 -1.72,18.76 -0.16,28.89 1.11,7.26 4.39,18.39 7.55,23.81 1.04,1.78 7.77,4.76 9.83,5.9 3.37,1.87 6.57,3.88 9.65,6.05 6.59,4.66 18.26,13.59 23.98,19.18 0.85,0.83 1.32,1.03 2.12,1.9l10.8 12.65c2.56,1.21 17.46,3.08 20.98,2.48l0.03 -32.06c1.83,-0.48 3.44,-0.78 5.13,-1.17 0.82,-0.2 1.63,-0.34 2.45,-0.5 0.33,-0.07 0.89,-0.18 1.2,-0.27 0.43,-0.13 0.24,-0.06 0.59,-0.2 0.54,-0.21 0.58,-0.24 0.87,-0.42 -0.9,-0.72 0.05,-0.35 -1.3,-0.42l-3.68 0.71c-1.64,0.38 -3.59,0.88 -5.31,1.05l-0.14 -40.95z"/>
   <path class="fil3" d="M95.96 389.18c3.43,0.22 2.7,0.15 5.44,2.77 5.06,4.82 8.13,7.03 13.83,11.37 18.66,14.22 47.81,24.46 71.57,29.73 38.17,8.47 81.46,12.54 120.49,2.92 29.64,-7.31 54.11,-22.88 75.47,-42.25 3.4,-3.09 5.89,-5.38 8.72,-8.44l11.92 -13.3c1.26,-1.52 2.39,-3.01 3.77,-4.65 2.94,-3.48 11.94,-16.32 14.18,-19.83 3.26,-5.11 9.67,-15.81 12.39,-21.25 1.83,-3.69 3.57,-7.27 5.44,-11.38 1.32,-2.92 3.92,-10.24 5.13,-12.15 -0.05,-0.26 1.62,-4.29 2,-5.61l2.19 -6.18c0.61,-2.55 1.04,-4.48 1.7,-6.75 0.25,-0.84 0.21,-0.77 0.38,-1.85 0.43,-2.62 2.02,-7.97 2.59,-12.37 0.28,-2.15 0.9,-5.2 1.23,-7.13 0.23,-1.3 0.06,-2.63 0.18,-3.92 0.17,-1.96 0.58,-1.23 0.63,-3.62 0.08,-3.1 0.35,-5.23 0.38,-8.43 0.23,-34.25 -8.39,-65.48 -26.61,-92.86 -5.33,-8.01 -9.07,-12.34 -15.04,-19l-24.99 -22.17c-0.78,-0.73 -1.32,-1.41 -2.4,-2.06 0.59,1.02 0.45,0.63 1.17,1.4 -11.13,-6.43 -11.99,-7.72 -25.07,-13.69 -31.11,-14.22 -68.26,-15.63 -102.09,-11.25 -51.12,6.61 -92.54,18.85 -129.62,46.25 -2.84,2.09 -8.51,6.42 -10.7,8.69l-5.07 4.44c-1.92,2.09 -8.94,9.21 -10.53,11.43l-3.45 4.24c-11.31,14.11 -21.03,31.16 -26.33,51.89 -5.62,21.99 -6.22,47.56 -2.2,71.23 4.34,25.63 13.23,57.55 30.03,77.09l4.59 5.29c19.28,20.51 49.22,32.47 75.05,42.39 9.7,3.73 19.52,6.56 29.86,9.26 11.32,2.96 12.67,1.99 20.99,3.3l1.87 0.58c1.99,0.51 9.41,0.69 11.81,0.74 14.85,0.29 30.96,-1.44 43.82,-4.85 0.58,-0.16 1.15,-0.23 1.81,-0.4l20.79 -6.78 12.92 -6.4c0.49,-0.31 0.74,-0.5 1.33,-0.92l11.25 -6.25c9.1,-5.54 20.11,-13.43 28.22,-20.46 6.35,-5.51 19.56,-18.56 24.35,-24.69l1.4 -1.89c0.05,-0.05 0.13,-0.12 0.18,-0.17 0.05,-0.05 0.13,-0.12 0.18,-0.17l2.67 -3.2c1.42,-1.96 2.94,-3.5 4.47,-5.41 9.84,-12.23 16.23,-21.46 24.15,-34.41 2.49,-4.08 4.74,-8.57 6.87,-12.86l5.78 -13.61c0.98,-2.67 1.51,-4.89 2.24,-7.69l2.1 -7.73c0.56,-2.05 1.82,-9.17 1.9,-12.37 0.07,-3.44 1.34,-14.93 0.65,-18.96l-1.18 -4.24 0.09 3.83c0.64,12.42 -0.87,24.19 -3.71,35.33 -1.43,5.63 -3,9.68 -4.89,14.93 -0.77,2.14 -2.02,4.9 -2.96,6.89 -4.03,8.51 -12.34,23.11 -18.44,31.32 -1.56,2.1 -14.57,20.4 -17.09,22.79 -1.84,1.76 -2.61,3.55 -4.5,5.37 -0.6,0.58 -0.54,0.41 -1.15,1.03l-2.31 2.82c-5.95,5.95 -9.15,9.84 -16.05,16.12l-3.84 3.48c-0.78,0.64 -0.65,0.64 -1.27,1.27 -0.74,0.73 -0.5,0.44 -1.26,0.94l-9.88 8.04c-7.46,5.57 -14.97,10.93 -23.74,15.75 -30.47,16.72 -59.1,24.41 -96.25,20.83 -21.53,-2.07 -44.17,-10.41 -62.22,-17.08l-10.56 -4.13c-11.1,-4.83 -36.24,-17.63 -45.4,-26.69 -0.69,-0.68 -0.41,-0.56 -1.3,-1.23 -1.92,-1.45 -3.12,-2.79 -5.17,-4.7l-3.45 -3.87c-1.01,-1.25 -1.65,-1.45 -3.56,-4.12 -0.76,-1.07 -1.53,-1.9 -2.23,-2.88 -5.66,-8.03 -9.91,-15.83 -13.89,-25.95 -11.57,-29.44 -18.2,-71.05 -12.7,-102.36 2.21,-12.57 4.52,-20.16 8.88,-31.06 3.6,-9.03 8.65,-17.31 14.16,-25.35 1.31,-1.92 2.74,-3.96 4.16,-5.69l9.1 -10.64c1.96,-2.14 3.57,-3.33 5.15,-5.08l7.6 -7.06c3.41,-2.35 7.24,-6.55 14.15,-11.03 12.96,-8.4 23.76,-14.91 38.63,-20.99 8.74,-3.57 20.23,-7.61 29.43,-10.06l7.81 -2.09c21.92,-5.97 55.46,-10.59 78.84,-10.69 34.49,-0.14 65.73,8.27 92.37,26.8l11.21 8.55c1.03,0.83 1.43,1.15 2.56,2.18 2.56,2.33 5.64,4.69 8.04,7.66 1.67,0.88 12.54,13.73 14.42,16.3 10.64,14.58 19.62,31.77 24.33,49.25 1.56,5.81 2.93,10.99 3.93,17.3 2.09,13.24 2.86,24.99 1.66,39.07 -2.66,30.95 -12.88,53.69 -26.44,78.29 -1.35,2.43 -2.48,4.34 -3.94,6.67 -3.11,4.97 -6.89,10.77 -10.47,15.49l-6.91 9.18c-1.66,2.05 -3.45,4 -4.79,5.87 0.31,0.23 0.81,-0.17 -0.66,1.4 -10.66,11.41 -16.44,18.07 -29.69,28.52 -26.08,20.55 -54.31,32.31 -88.08,35.57 -2.67,0.26 -9.85,1.38 -11.5,0.32 -29.94,3.74 -92.82,-7.87 -121.42,-20.67 -15.81,-7.08 -17.01,-8.23 -30.71,-17.17l-4.99 -3.8c-0.08,-0.07 -0.29,-0.29 -0.37,-0.36l-1.25 -0.93c-5.87,-4.28 -13.14,-12.31 -17.69,-18.14 -23.5,-30.06 -32.28,-71.89 -31.15,-112.26 0.23,-8.16 2.23,-22.95 3.85,-31.65 0.93,-5.02 4.47,-18.69 6.26,-23.38 3.47,-9.11 4.52,-11.99 9.08,-21.27 7.49,-15.23 14.21,-23.55 24.34,-34.89 4.58,-5.12 6.93,-7.28 12.07,-12.08 3.91,-3.65 15.49,-12.76 19.98,-15.83 10.65,-7.31 17.61,-11.96 29.02,-18.51 5.1,-2.93 10.58,-5.86 15.84,-8.28 15.37,-7.07 31.46,-13.73 48.51,-16.63l24.18 -2.71c0.28,0 1.26,0 1.48,-0.03l1.63 -0.51c-2.87,-2.72 -26.8,0.36 -31.18,1.14 -10.02,1.79 -18.22,4.29 -27.31,7.44 -24.53,8.49 -58.75,28.85 -79.15,45.94l-24.09 23.86c-5.56,6.11 -10.09,13.42 -14.16,20.58 -14.04,24.7 -20.8,51 -23.22,80.19 -2.36,28.54 2.09,63.08 12.76,89.69 5.76,14.37 15.54,31.46 26.98,42.36l-2.31 0.08z"/>
   <path class="fil4" d="M413.17 26.29l41.55 0 -0.19 6.42 -40.55 0.05c-1.02,3.5 0.45,1.15 -2.1,7.2 -0.43,1.01 -0.11,0.32 -0.49,0.97 -1.11,1.88 -3.17,4.67 -3.75,6.87 -0.69,2.62 -0.43,7.4 1.35,8.74l6.96 4.09c1.74,0.63 7.82,0.8 10.11,0.58 4.06,-0.4 11.92,-1.27 15.25,2.56 0.97,1.11 0.18,0.3 1.56,0.68 1.75,0.49 0.16,-0.13 1.42,1.07l1.68 1.22c1.35,0.94 1.82,1.02 2.81,2.27 2.19,0.6 9.36,9.75 19.77,4.92 -2.01,3.25 -2.25,2.18 -2.63,4.7 1.95,-0.68 2.42,-2.21 4.27,-4.88 0.49,-0.7 3.42,-4.93 3.54,-5.26 1.05,-2.88 -1.43,1.34 1.36,-6.3 0.72,-1.98 2.22,-4.7 3.15,-5.62 6.36,-6.33 20.21,-4.71 26.79,-16.01 3.73,-6.41 2.52,-13.43 -3.65,-17.88l-5.87 -4.71c-5.98,-5.27 -5.31,-9.3 -5.78,-17.97l-74.16 0c-0.22,4.24 -0.87,3.17 -1.63,5.92 -0.51,1.85 -1.06,4.41 -1.24,6.16 -0.51,4.84 0.28,9.9 0.47,14.21z"/>
   <path class="fil2" d="M23.81 400.43c-0.67,8.05 2.36,16.53 8.23,21.75l1.09 1.08c8.59,8.86 27.09,8.7 35.66,0.63l3.94 -4.1c1.15,-1.26 2.26,-3.01 3.16,-4.87 1.82,-3.79 3.13,-8.9 2.88,-13.37 -0.33,-5.96 -1.65,-8.16 -3.67,-12.75 -3.27,-4.94 -6.23,-8.4 -11.82,-11.03 -5.82,-2.73 -12.12,-3.6 -19.08,-1.86 -10.26,2.57 -19.94,12.43 -20.39,24.52z"/>
   <path class="fil5" d="M0 63.5l0 9.65c16.33,0.34 17.38,-11.38 24.57,-14.95 6.29,-3.13 11.44,2.96 14.62,7.22l3.27 3.3c2.17,1.75 3.09,2.62 6.28,3.63 8.19,2.59 16.06,-1.07 19.71,-5.34 1.27,-1.5 1.78,-2.18 3.05,-3.56l1.85 -2.16c0.05,-0.05 0.13,-0.12 0.19,-0.17 2.4,-2.41 5.82,-5.2 10.89,-2.9 3.08,1.39 4.2,3.79 5.09,4.76l4.82 5.08c1.82,1.69 1.93,1.94 3.97,2.98 7.93,4.07 16.27,2.08 21.97,-3.43l5.33 -5.99c0.36,-0.44 0.43,-0.64 0.8,-1.04 3.06,-3.36 5.45,-2.61 6.96,-3.53l-0.04 -8.78c-0.85,-0.28 -0.26,-0.16 -1.29,-0.2 -2.7,-0.11 -6.63,1.32 -8.75,2.81 -2.06,1.46 -3.37,3.02 -5.14,4.73 -2.7,2.58 -4.16,6.51 -8.65,7.77 -6.4,1.81 -9.53,-3.24 -11.28,-5.06 -3.64,-3.79 -6.45,-8.4 -13.17,-9.9 -8.72,-1.95 -15.6,2.39 -18.99,6.65l-4.62 5.28c-3.26,3.59 -8.32,4.61 -11.85,1.93 -5.77,-4.36 -10.35,-16.7 -25.02,-13.97 -6.35,1.18 -9.45,5.2 -13.51,9.61 -1.72,1.86 -3.86,6.62 -11.06,5.58z"/>
   <path class="fil5" d="M481.24 297.28c0.96,0.24 0.55,-0.31 0.64,0.78l0 24.01 -14.68 0.07 -0.02 11.13 25.77 -0.05 -0.06 -38.07 0.03 -40.15 -10.93 -0.03 -0.11 41.62 -0.64 0.69z"/>
   <path class="fil4" d="M22.74 282.24l8.33 -0.01 0.11 -88.41 -8.53 0.08c-0.49,3.96 -0.1,57.21 -0.1,66.12 0,4.91 -0.62,18.3 0.19,22.22z"/>
   <path class="fil1" d="M268.98 437c1.65,1.06 8.83,-0.06 11.5,-0.32 33.77,-3.26 62,-15.02 88.08,-35.57 13.25,-10.45 19.03,-17.11 29.69,-28.52 1.47,-1.57 0.97,-1.17 0.66,-1.4l-8.26 7.39c-0.91,0.72 -0.64,0.57 -1.53,1.39 -0.86,0.8 -2.24,1.81 -3.22,2.65l-3.46 2.74c-3.7,3.11 -13.45,9.87 -18,12.73 -2.45,1.54 -5.07,3.06 -7.68,4.37 -5.28,2.67 -18.47,8.08 -21.13,9.58 -1.33,0.75 -2.44,1.56 -3.85,2.38 -16.63,9.69 -44.13,21.27 -62.8,22.58z"/>
   <path class="fil5" d="M83.35 481.47c13.9,-0.03 24.8,10.81 25.02,24.85l11.85 0.04c-0.05,-9.36 -2.94,-16.57 -8.5,-23.44 -3.75,-4.63 -2.7,-3.18 -7.23,-6.68 -5.71,-4.39 -13.8,-6.61 -21.17,-6.74l0.03 11.97z"/>
   <path class="fil1" d="M413.98 32.76l40.55 -0.05 0.19 -6.42 -41.55 0 -21.63 0.03c0,1.97 -0.35,4.57 0.26,6.39l22.18 0.05z"/>
   <path class="fil4" d="M331.32 35.7c-1.24,3.01 -8.81,7.67 -9.74,11.11 1.75,5.65 5.54,0.78 6.96,-0.61l6.45 -6.4c4.03,1.84 9.42,12.49 12.77,8.79 3.31,-3.66 -6.9,-8.75 -8.96,-13.04 1.1,-0.46 4.86,-4.39 5.84,-5.4 1.07,-1.09 5.39,-4.15 3.16,-6.75 -3.16,-3.68 -8.36,6.12 -12.81,8.79 -1.89,-1.91 -3.64,-3.78 -5.65,-5.69 -1.05,-1.01 -4.43,-5.71 -6.91,-3.23 -2.49,2.49 2.06,5.7 3.26,6.88 1.53,1.48 4.09,4.48 5.63,5.55z"/>
   <path class="fil5" d="M20.11 503.95c0,-2.43 0.36,-5.58 -1.23,-6.86 -4.14,-3.33 -9.29,3.02 -4.99,6.16 1.77,1.29 3.43,0.51 4.2,0.45 1.27,-0.08 -1.37,-0.21 0.79,0.04 0.12,0.02 0.59,0.16 1.23,0.21z"/>
   <path class="fil4" d="M411.83 482.6c-0.82,0.4 -0.34,0.04 -0.97,0.65 -0.45,0.43 -0.59,0.71 -0.75,1.15 -0.48,1.27 -0.39,2.08 0.11,3.2 1.81,4.01 8.87,1.11 6.5,-3.52 -0.64,-1.26 -2.64,-2.6 -4.89,-1.48z"/>
   <path class="fil4" d="M411.96 464.18c-3.99,1.71 -2,8.66 2.97,6.75 1.55,-0.6 2.68,-2.71 1.88,-4.84 -0.86,-2.26 -3.39,-2.53 -4.85,-1.91z"/>
   <path class="fil4" d="M429.04 450.57c0.84,1.15 0.18,0.59 1.37,1.5 0.85,0.65 0.76,0.73 2,0.85 2.5,0.25 2.38,-1.09 4.03,-1.71 -0.66,-1.05 0.49,-1.63 -0.41,-3.65 -0.45,-1.01 -1.5,-1.79 -3.03,-1.84 -4.38,-0.14 -3.62,4.15 -3.96,4.85z"/>
   <path class="fil4" d="M432.63 482.18c-4.67,0.38 -4.81,7.5 0.37,7.26 2.14,-0.09 3.64,-1.72 3.38,-4.12 -0.19,-1.82 -1.72,-3.3 -3.75,-3.14z"/>
   <path class="fil4" d="M373.17 482.48c-4.04,1.94 -1.26,8.66 3.24,6.63 4.19,-1.89 1.39,-8.85 -3.24,-6.63z"/>
   <path class="fil4" d="M469.71 482.47c-4.01,2 -1.14,8.77 3.24,6.65 4.26,-2.07 1.21,-8.86 -3.24,-6.65z"/>
   <path class="fil4" d="M489.16 464.23c-1.59,0.67 -2.67,2.58 -1.9,4.78 0.55,1.56 2.88,2.89 5.06,1.79 4.22,-2.14 1.2,-8.4 -3.16,-6.57z"/>
   <path class="fil4" d="M354 464.28c-4.39,2.53 -1.14,8.33 3.12,6.62 4.17,-1.66 1.3,-9.16 -3.12,-6.62z"/>
   <path class="fil4" d="M469.86 464.25c-4.38,2.07 -1.3,8.68 3.11,6.59 4.24,-2.01 1.29,-8.67 -3.11,-6.59z"/>
   <path class="fil4" d="M489.17 445.99c-4.23,2.19 -1.44,8.6 2.95,6.67 4.72,-2.08 1.09,-8.76 -2.95,-6.67z"/>
   <path class="fil4" d="M450.54 464.26c-3.92,2.22 -1.69,8.54 3.12,6.63 4.17,-1.66 1.25,-9.11 -3.12,-6.63z"/>
   <path class="fil4" d="M373.3 464.23c-4.31,2.2 -1.19,8.7 3.14,6.63 4.14,-1.99 1.18,-8.83 -3.14,-6.63z"/>
   <path class="fil4" d="M490.18 482.25c-2.14,0.45 -3.55,1.69 -3.01,4.44 0.36,1.87 2.24,3.21 4.61,2.61 3.92,-1 2.91,-8.01 -1.6,-7.05z"/>
   <path class="fil4" d="M431.24 464.36c-0.69,0.35 -1.45,0.93 -1.8,1.73 -1.51,3.45 2.36,6.15 5.13,4.73 3.87,-1.98 1.13,-8.69 -3.33,-6.46z"/>
   <path class="fil4" d="M393.63 482.24c-5.43,1.21 -3.19,8.26 1.6,7.07 1.71,-0.43 2.95,-2.36 2.4,-4.47 -0.38,-1.47 -2,-3.04 -4,-2.6z"/>
   <path class="fil4" d="M468.8 446.41c-0.31,0.94 -0.84,1.19 -0.99,2.39 -0.37,2.96 2.42,4.93 4.99,3.92 1.33,-0.52 2.51,-2.33 2.16,-4.22 -0.36,-2.04 -2.01,-2.15 -3.47,-3.01l-2.69 0.92z"/>
   <path class="fil4" d="M431.45 427.69c-4.37,1.65 -2.05,8.36 2.64,6.72 4.45,-1.56 1.94,-8.44 -2.64,-6.72z"/>
   <path class="fil4" d="M470 427.78c-4.04,1.6 -2.28,8.46 2.78,6.6 4.39,-1.62 1.85,-8.45 -2.78,-6.6z"/>
   <path class="fil4" d="M373.46 446.12c-4.75,2.42 -1.23,8.43 3.03,6.49 4.12,-1.88 1.28,-8.68 -3.03,-6.49z"/>
   <path class="fil4" d="M397.35 446.44c-2.18,-0.51 -2.64,-0.8 -5.25,-0.46 -0.08,0.95 -1.75,1.41 -1.53,3.8 0.17,1.84 1.29,2.86 3.13,3.12 3.42,0.47 5.74,-4.13 2.79,-6.21l0.86 -0.25z"/>
   <path class="fil4" d="M451.43 482.28c-1.91,0.4 -3.29,2.09 -2.88,4.32 0.33,1.81 2.24,3.23 4.47,2.72 4.27,-0.98 3.19,-8.03 -1.59,-7.04z"/>
   <path class="fil4" d="M412.1 427.75c-4.68,1.85 -1.46,8.55 2.85,6.66 3.93,-1.72 1.86,-8.53 -2.85,-6.66z"/>
   <path class="fil4" d="M354.86 482.26c-4.37,0.94 -3.54,8.2 1.62,7.07 4.3,-0.94 3.17,-8.09 -1.62,-7.07z"/>
   <path class="fil4" d="M489.27 427.76c-4.16,1.83 -1.8,8.62 2.89,6.63 3.88,-1.64 1.89,-8.74 -2.89,-6.63z"/>
   <path class="fil4" d="M392.76 427.8c-1.61,0.66 -2.97,2.51 -1.84,4.88 0.71,1.49 2.76,2.47 4.67,1.67 4.28,-1.81 1.79,-8.46 -2.83,-6.55z"/>
   <path class="fil4" d="M354.14 427.87c-1.98,0.92 -2.76,2.7 -1.9,4.68 0.64,1.46 2.5,2.63 4.65,1.88 4.41,-1.53 1.87,-8.72 -2.75,-6.56z"/>
   <path class="fil4" d="M373.47 427.82c-4.47,2.36 -1.66,8.19 2.77,6.57 4.62,-1.69 1.25,-8.69 -2.77,-6.57z"/>
   <path class="fil4" d="M450.76 427.9c-0.88,0.4 -0.55,0.06 -1.3,0.72 -0.48,0.43 -0.56,0.62 -0.74,1.07 -0.98,2.48 1.12,6.01 4.71,4.74 4.34,-1.55 1.93,-8.61 -2.67,-6.53z"/>
   <path class="fil4" d="M352.62 447.01c-0.84,1.79 -0.99,6.27 3.21,5.95 4.21,-0.33 3.76,-4.35 1.79,-6.9 -2.92,-0.34 -2.53,-0.8 -5,0.95z"/>
   <path class="fil4" d="M392.58 464.45c-1.75,0.86 -2.75,2.14 -1.65,4.79 0.71,1.69 3.01,2.72 5.1,1.42 3.25,-2.02 1.17,-8.49 -3.45,-6.21z"/>
   <path class="fil6" d="M53.7 501.48c-2.21,-0.78 -0.51,0.29 -2.64,0.9 -1.61,0.45 -2.45,-0.37 -2.9,-1.72l5.89 -0.29c-0.02,-4.68 -6.66,-5.09 -7.24,-0.76 -0.67,5.02 6.33,5.51 6.89,1.87z"/>
  </g>
 </g>
</svg>
