<?xml version="1.0" encoding="UTF-8"?>
<!DOCTYPE svg PUBLIC "-//W3C//DTD SVG 1.1//EN" "http://www.w3.org/Graphics/SVG/1.1/DTD/svg11.dtd">
<!-- Creator: CorelDRAW 2021 (64-Bit) -->
<svg xmlns="http://www.w3.org/2000/svg" xml:space="preserve" width="512px" height="512px" version="1.1" style="shape-rendering:geometricPrecision; text-rendering:geometricPrecision; image-rendering:optimizeQuality; fill-rule:evenodd; clip-rule:evenodd"
viewBox="0 0 512 512"
 xmlns:xlink="http://www.w3.org/1999/xlink"
 xmlns:xodm="http://www.corel.com/coreldraw/odm/2003">
 <defs>
  <style type="text/css">
   <![CDATA[
    .fil1 {fill:#0C8AA3}
    .fil2 {fill:#46A3B8}
    .fil3 {fill:#B3B3B3}
    .fil4 {fill:#DCEEF1}
    .fil0 {fill:#FEFEFE}
   ]]>
  </style>
 </defs>
 <g id="Layer_x0020_1">
  <metadata id="CorelCorpID_0Corel-Layer"/>
  <g id="_2436745671616">
   <path class="fil0" d="M0 493.26c2.19,-5.25 3.06,-23.16 4.53,-30.85 8.45,-44.37 27.35,-85.57 55.05,-119.84 5.37,-6.64 10.98,-13.12 16.28,-18.72 6.23,-6.58 11.39,-10.09 18.11,-16.76 1.3,-2.8 -3.97,-20.8 -5.16,-30.87 -6.84,-58.11 16.52,-89.69 15.93,-96.77 -7.97,-9.71 -16.49,-15.31 -17.61,-37.43 -0.9,-17.89 8.55,-35.83 22.54,-45.4 9.18,-6.27 20.6,-10.07 32.35,-9.48 7.09,0.35 16.5,2.78 22.13,5.64 9.56,4.84 9.83,7.44 15.3,11.96 3.52,0.3 16.03,-6.01 20.63,-7.66 82.42,-29.54 176.8,12.13 210.01,90.82 9.91,23.49 14.97,46.75 14.19,73.1 -0.21,7.28 -3.55,22.19 -1.82,27.85l26.64 21.03c39.29,32.42 56.74,73.66 62.9,80.92l0 -315.45c-54.63,14.55 -100.49,-23.91 -101.42,-75.35l-410.58 0 0 493.26z"/>
   <path class="fil1" d="M93.97 307.09c-6.72,6.67 -11.88,10.18 -18.11,16.76 -5.3,5.6 -10.91,12.08 -16.28,18.72 -27.7,34.27 -46.6,75.47 -55.05,119.84 -1.47,7.69 -2.34,25.6 -4.53,30.85l0 18.74 512 0 0 -121.2c-6.16,-7.26 -23.61,-48.5 -62.9,-80.92l-26.64 -21.03c-2.38,2.48 -6.1,19.25 -9.22,27.39 -6.28,16.43 -15.43,32.46 -26.33,45.68l-17.82 19.14c-61.74,52.28 -147.16,59.52 -213.93,9.79 -13.85,-10.31 -25.82,-22.63 -35.71,-36.31 -4.96,-6.86 -9.65,-14.19 -13.6,-22.42 -2.11,-4.38 -3.95,-7.93 -5.71,-12.26 -2.59,-6.35 -3.12,-11.46 -6.17,-12.77z"/>
   <path class="fil2" d="M104.74 179.45c1.38,2.62 4.75,4.28 7.17,5.81l2.81 1.35c11.19,8.48 36.29,8.29 50.92,0.13 5.56,-3.1 13.32,-9.94 16.79,-14.37 1.64,-2.11 2.47,-3.56 3.94,-6.1 2.33,-4.03 4.46,-9.75 5.62,-15.53 2.18,-10.92 0.56,-28.25 -5.38,-36.02l-1.35 -2.81c-1.53,-2.41 -3.2,-5.8 -5.81,-7.17 -5.47,-4.52 -5.74,-7.12 -15.3,-11.96 -5.63,-2.86 -15.04,-5.29 -22.13,-5.64 -11.75,-0.59 -23.17,3.21 -32.35,9.48 -13.99,9.57 -23.44,27.51 -22.54,45.4 1.12,22.12 9.64,27.72 17.61,37.43z"/>
   <path class="fil3" d="M179.45 104.74c2.61,1.37 4.28,4.76 5.81,7.17 9.87,-7.49 40.75,-14.62 55.67,-15.98 61.14,-5.58 112.51,21.78 145.77,66.37 20.01,26.84 33.84,68.82 29.04,111.59 -2.22,19.81 -8.19,39.04 -16.17,54.7 -24.39,47.85 -71.42,81.4 -126.61,87.25 -100.26,10.64 -186.76,-72.63 -176.96,-175.8 1.38,-14.52 8.63,-45.22 15.91,-54.78 -2.42,-1.53 -5.79,-3.19 -7.17,-5.81 0.59,7.08 -22.77,38.66 -15.93,96.77 1.19,10.07 6.46,28.07 5.16,30.87 3.05,1.31 3.58,6.42 6.17,12.77 1.76,4.33 3.6,7.88 5.71,12.26 3.95,8.23 8.64,15.56 13.6,22.42 9.89,13.68 21.86,26 35.71,36.31 66.77,49.73 152.19,42.49 213.93,-9.79l17.82 -19.14c10.9,-13.22 20.05,-29.25 26.33,-45.68 3.12,-8.14 6.84,-24.91 9.22,-27.39 -1.73,-5.66 1.61,-20.57 1.82,-27.85 0.78,-26.35 -4.28,-49.61 -14.19,-73.1 -33.21,-78.69 -127.59,-120.36 -210.01,-90.82 -4.6,1.65 -17.11,7.96 -20.63,7.66z"/>
   <path class="fil1" d="M132.99 95c-5.08,1.19 -3.92,-0.31 -9.44,1.96 -18.83,7.76 -33.8,28.72 -29,51.11 8.52,39.75 56.8,51.82 82.05,19.69 15.82,-20.12 11.64,-48.27 -8.84,-64.37 -9.85,-7.74 -22.51,-11.27 -34.77,-8.39z"/>
   <path class="fil1" d="M512 75.35l0 -75.35 -101.42 0c0.93,51.44 46.79,89.9 101.42,75.35z"/>
   <path class="fil0" d="M185.26 111.91l1.35 2.81c5.45,-0.46 23.67,-11.8 54.39,-14.67 21.23,-1.99 41.58,0.22 60.84,6.14 117.81,36.23 144.37,181.13 64.92,260.57 -79.91,79.91 -224.99,52.59 -260.8,-65.68 -19.16,-63.27 8.13,-106.96 8.76,-114.47l-2.81 -1.35c-7.28,9.56 -14.53,40.26 -15.91,54.78 -9.8,103.17 76.7,186.44 176.96,175.8 55.19,-5.85 102.22,-39.4 126.61,-87.25 7.98,-15.66 13.95,-34.89 16.17,-54.7 4.8,-42.77 -9.03,-84.75 -29.04,-111.59 -33.26,-44.59 -84.63,-71.95 -145.77,-66.37 -14.92,1.36 -45.8,8.49 -55.67,15.98z"/>
   <path class="fil0" d="M393.88 396.52c-8.29,1.72 -14.83,10.29 -10.37,19.96 4.5,9.78 15.35,7.93 26.49,7.92 10.28,0 62.37,0.69 67.95,-0.33 7.99,-1.46 14.53,-11.45 9.55,-20.55 -4.77,-8.73 -14.87,-7.29 -26.5,-7.29 -13.74,0 -56.93,-1.83 -67.12,0.29z"/>
   <path class="fil4" d="M478.38 461.16c8.03,1.22 12.32,-1.73 10.33,-9.72 -2.46,-3.34 -7.7,-6.44 -11.88,-1.56 -3.59,4.2 -0.57,7.78 1.55,11.28z"/>
   <path class="fil4" d="M167.46 137.29c1.92,-4.87 2.79,-7.61 -3.46,-9.72 -7.33,2.36 -7.72,11.77 3.46,9.72zm270.41 -118.78c-10.68,4.55 -4.11,19.75 6.35,15.84 9.68,-3.61 4.88,-20.63 -6.35,-15.84zm36.98 465.49c1.34,0.54 0.52,1.55 2.27,-0.64l0.46 4.57c-0.01,0.1 -0.06,0.43 -0.03,0.64 6.42,4.13 6.68,0.89 11.68,-2.01 1.31,-14.36 -13.58,-15.82 -14.38,-2.56zm-319.64 -356.9c2,-4.66 2.83,-6.26 -2.21,-9.48 -4.02,0.31 -6.66,1.56 -5.97,6.23 0.71,4.87 3.98,4.18 8.18,3.25z"/>
  </g>
 </g>
</svg>
