<?xml version="1.0" encoding="UTF-8"?>
<!DOCTYPE svg PUBLIC "-//W3C//DTD SVG 1.1//EN" "http://www.w3.org/Graphics/SVG/1.1/DTD/svg11.dtd">
<!-- Creator: CorelDRAW 2021 (64-Bit) -->
<svg xmlns="http://www.w3.org/2000/svg" xml:space="preserve" width="512px" height="512px" version="1.1" style="shape-rendering:geometricPrecision; text-rendering:geometricPrecision; image-rendering:optimizeQuality; fill-rule:evenodd; clip-rule:evenodd"
viewBox="0 0 512 512"
 xmlns:xlink="http://www.w3.org/1999/xlink"
 xmlns:xodm="http://www.corel.com/coreldraw/odm/2003">
 <defs>
  <style type="text/css">
   <![CDATA[
    .fil0 {fill:#041B3B}
    .fil4 {fill:#0D4E84}
    .fil5 {fill:#150837}
    .fil2 {fill:#155BA3}
    .fil1 {fill:#C98B65}
    .fil3 {fill:#EDC39B}
   ]]>
  </style>
 </defs>
 <g id="Layer_x0020_1">
  <metadata id="CorelCorpID_0Corel-Layer"/>
  <g id="_2436527103104">
   <path class="fil0" d="M0 407.44l138.92 -15.86c-3.84,-6.58 -10.42,-14.83 -18.47,-19.39 -6.84,9.25 -24.58,21 -36.63,21.83 -14.98,1.03 -22.24,-11.15 -7.24,-18.98 -7.65,-2.2 -24.22,-8.11 -11.42,-17.72 -26.78,-1.39 -24.03,-21.09 1.66,-20.3 9.69,0.3 17.37,2.49 28.12,2.43l-8.87 -11.83c-0.15,-0.16 -0.48,-0.52 -0.74,-0.77 -11.24,6.26 -39.16,13.53 -36.61,-6.85 9.89,-9.13 22.05,0.39 32.97,1.27 -1.05,-4.56 -3.53,-6.49 -6.31,-11.23 -11.44,2.59 -35.4,-1.39 -28.74,-18.48 10.01,-7.01 17.79,3.21 20.83,9.2 3.59,-4.42 1.68,-1.55 -0.99,-12.22 -4.66,1.47 -2.72,2.28 -8.43,-0.9 -9.4,-5.22 -15.18,-11.51 -9.57,-22.84 5.27,-1.63 6.66,-0.36 10.22,1.62 -1.98,-11.33 -0.4,-21.1 12.07,-18.33 6.86,8.17 -1.44,16.31 -2.16,25.32 8.59,-12.25 11.31,6.24 7.77,14.95 -1.29,3.15 -9.17,6.66 4.69,23.46 0.9,-2.1 3.52,-6.5 4.09,-8.52l-1.57 -6.03c-3.89,-2.06 3.34,-2.11 -0.93,0.6 -3.75,2.39 2.39,3.16 -1.36,0.8 -4.11,-25.36 -3.42,-60.14 2.59,-85.38 5.73,-24.08 18.03,-47.44 30.22,-63.66 58.38,-77.71 171.52,-93.49 245.8,-37.33 23.6,17.85 40.44,37.04 54.19,63.86 8.8,17.17 21.74,53.22 18.84,75.87 7.15,1.35 16.17,0.49 12.68,19.58 9.23,-8.05 15.66,1.54 11.83,10.66 -1.25,2.99 -4.95,6.13 -7.75,8.15 -0.05,0.04 -4.47,2.9 -4.53,2.92 -9.14,3.38 -4.14,0.7 -5.89,-1.14 7.43,-3.57 19.46,-8.29 15.03,-19.7 -9.05,-3.01 -11.55,10.8 -14.93,18.86 -0.93,2.22 -4.22,10.61 -4.4,12.27 -0.41,3.61 1.48,1.04 -0.09,3.82 -0.96,1.7 -2.11,0.6 -4.44,5.19 5.88,-0.27 13.75,-0.54 18.91,-2.71 5.91,-2.5 6.95,-5.44 6.19,-12.93 -9.38,-0.89 -11.35,2.79 -17.05,6.92 3.92,-6.3 8.12,-11.63 17.93,-9.21 9.43,16.95 -11.97,23.65 -28.45,20.18 -1.74,6.57 -3.37,5.08 -5.28,10.9 13.07,-0.26 19.69,-8.37 32.86,-2.05 4.55,24.43 -26.4,12.32 -37.34,7.92 -3.22,4.98 -5.82,5.9 -7.95,12.96 13.4,-0.7 26.95,-4.29 37.55,-1.88 1.73,0.4 3.67,0.87 5.38,1.92 11.22,6.9 2.4,17.68 -13.2,17.29l2 3.65c1.46,3.44 0.68,-0.33 1.06,3.12 0.29,2.53 -0.39,3.39 -1.97,5.36 -2.89,3.61 -7.34,4.79 -12.81,5.86 3.13,2.47 11.48,5.9 6.98,13.93 -2.66,4.75 -11.78,6.13 -18.57,4.4 -10.79,-2.74 -26.31,-13.84 -32.69,-19.18l-6.05 5.43c-3.64,2.58 -2.76,3.09 -5.95,5.86 -3.92,3.42 -4.31,1.55 -6.79,6.14l146.79 24.93 0 -421.45 -512 0 0 407.44z"/>
   <path class="fil1" d="M140.91 391.58l-1.99 0 -138.92 15.86 0 104.56 512 0 0 -90.55 -146.79 -24.93c-8.87,0.48 -43.74,-6.21 -54.89,-8.51 -10.89,-2.25 -46.2,-9.07 -55.75,-8.88 -17.93,0.34 -108.21,14.18 -113.66,12.45z"/>
   <path class="fil2" d="M354.88 79.63c7.76,-5.46 3.95,-3.94 6.79,-10.75 1.72,-4.12 4.8,-6.76 6.15,-11.88l3.79 -9.94c-9.81,-5.77 -39.54,-14.79 -52.91,-17.6 -41.47,-8.72 -83.84,-8.98 -125.4,0.09 -14.51,3.17 -41.67,11.11 -52.63,17.38l3.14 9.79c-15.27,5.56 -17.06,12.73 -50.77,22.17 7.55,4.82 17.91,7.73 28.75,8.68 0.21,9.14 -2.15,13.06 0.12,25.2 1.1,-3.51 16.08,-14.09 20.03,-16.3 13.02,-7.31 13.97,-5.7 28.34,-9.72l-13.51 -5.14c37.27,-21.67 106.05,-25.61 152.63,-15.47l45.48 13.49z"/>
   <path class="fil3" d="M140.91 391.58c5.45,1.73 95.73,-12.11 113.66,-12.45 9.55,-0.19 44.86,6.63 55.75,8.88 11.15,2.3 46.02,8.99 54.89,8.51 2.48,-4.59 2.87,-2.72 6.79,-6.14 3.19,-2.77 2.31,-3.28 5.95,-5.86l6.05 -5.43c6.38,5.34 21.9,16.44 32.69,19.18 6.79,1.73 15.91,0.35 18.57,-4.4 4.5,-8.03 -3.85,-11.46 -6.98,-13.93 5.47,-1.07 9.92,-2.25 12.81,-5.86 1.58,-1.97 2.26,-2.83 1.97,-5.36 -0.38,-3.45 0.4,0.32 -1.06,-3.12l-2 -3.65c15.6,0.39 24.42,-10.39 13.2,-17.29 -1.71,-1.05 -3.65,-1.52 -5.38,-1.92 -10.6,-2.41 -24.15,1.18 -37.55,1.88 2.13,-7.06 4.73,-7.98 7.95,-12.96 10.94,4.4 41.89,16.51 37.34,-7.92 -13.17,-6.32 -19.79,1.79 -32.86,2.05 1.91,-5.82 3.54,-4.33 5.28,-10.9 16.48,3.47 37.88,-3.23 28.45,-20.18 -9.81,-2.42 -14.01,2.91 -17.93,9.21 5.7,-4.13 7.67,-7.81 17.05,-6.92 0.76,7.49 -0.28,10.43 -6.19,12.93 -5.16,2.17 -13.03,2.44 -18.91,2.71 2.33,-4.59 3.48,-3.49 4.44,-5.19 1.57,-2.78 -0.32,-0.21 0.09,-3.82 0.18,-1.66 3.47,-10.05 4.4,-12.27 3.38,-8.06 5.88,-21.87 14.93,-18.86 4.43,11.41 -7.6,16.13 -15.03,19.7 1.75,1.84 -3.25,4.52 5.89,1.14 0.06,-0.02 4.48,-2.88 4.53,-2.92 2.8,-2.02 6.5,-5.16 7.75,-8.15 3.83,-9.12 -2.6,-18.71 -11.83,-10.66 3.49,-19.09 -5.53,-18.23 -12.68,-19.58 -3.88,11.43 0.56,12.12 -1.79,19.2 -2,6.03 -6.14,0.41 -5.94,13.16 0.3,18.84 5.46,-0.28 -2.92,28.51 -0.46,-8.62 3.74,-10.85 3.36,-21.05 -0.5,-13.35 -0.37,-15.09 -13.2,-13.09 -2,4.55 -3.56,8.9 -3.78,16.05 -0.68,-5.36 -2.67,-9.69 -10.03,-7.46 -4.97,1.5 -5.91,7.54 -5.7,13.75 -6.08,-10.8 -18.48,-4.46 -13.12,17.66 -15.47,-12.97 -23.8,15.12 3.91,44.12 2.03,2.12 0.22,1.07 2.94,2.86 -2.9,1.63 -2.8,1.73 -5.33,3.75 -6.62,-8.51 -11.22,-32.64 -25.84,-39.92 -0.02,0 -5.76,-5.04 -9.65,2.39 -4.58,8.74 2.95,19.54 8.23,25.06 5.43,5.66 16.39,13.41 24.59,15.7 -1.79,3.49 -3.28,5.81 -5.05,9.29 -11.45,1.92 -93.75,-16.79 -116.19,-17.89 -20.22,-0.99 -105.42,13.05 -123.41,12.53 -4.95,-2 -5.65,-3.9 -8.03,-8.6 14.86,-6.69 42.86,-23.75 31.15,-44.4 -11.52,-1.63 -16.38,4.96 -19.18,14.83 9.16,-4.42 3.9,-1.75 8.75,-7.11 1.99,-2.21 3.32,-3.37 7.51,-3.13 5.86,13.88 -17.92,25.08 -25.65,33.21 2.16,-6.63 2.24,-5.13 0.59,-7.77 -1.51,3.88 -2.68,7.59 -6.84,8.99 -0.41,4.67 -0.93,-1.23 -4.39,-2.99 6.93,-5.14 12.11,-12.27 15.98,-19.83 7.18,-14.07 5.6,-14.52 2.34,-29.15l-10.24 0.12 -3.38 6.47c2.82,-6.09 3.95,-9.81 3.26,-17.46 -0.76,-8.55 -7.01,-11.46 -13.53,-5.09l-4.47 -12.62 -9.74 -0.62 -4.06 9.05c1.3,-1.62 3,-20.14 -11.97,-17.09 -0.01,0.52 0.14,0.78 0.25,1.52 0.1,0.68 0.18,1.1 0.34,1.35 4.36,7.2 -0.73,-2.65 6.89,3.48 0.38,9.61 0.05,16.85 -4.44,23.49 -0.57,2.02 -3.19,6.42 -4.09,8.52 -13.86,-16.8 -5.98,-20.31 -4.69,-23.46 3.54,-8.71 0.82,-27.2 -7.77,-14.95 0.72,-9.01 9.02,-17.15 2.16,-25.32 -12.47,-2.77 -14.05,7 -12.07,18.33 -3.56,-1.98 -4.95,-3.25 -10.22,-1.62 -5.61,11.33 0.17,17.62 9.57,22.84 5.71,3.18 3.77,2.37 8.43,0.9 2.67,10.67 4.58,7.8 0.99,12.22 -3.04,-5.99 -10.82,-16.21 -20.83,-9.2 -6.66,17.09 17.3,21.07 28.74,18.48 2.78,4.74 5.26,6.67 6.31,11.23 -10.92,-0.88 -23.08,-10.4 -32.97,-1.27 -2.55,20.38 25.37,13.11 36.61,6.85 0.26,0.25 0.59,0.61 0.74,0.77l8.87 11.83c-10.75,0.06 -18.43,-2.13 -28.12,-2.43 -25.69,-0.79 -28.44,18.91 -1.66,20.3 -12.8,9.61 3.77,15.52 11.42,17.72 -15,7.83 -7.74,20.01 7.24,18.98 12.05,-0.83 29.79,-12.58 36.63,-21.83 8.05,4.56 14.63,12.81 18.47,19.39l1.99 0zm230.63 -71.58c-2.61,7.23 -0.64,14.48 2.5,20.09 6.1,10.92 9.16,11.95 11.37,16.3 -2.85,-7.12 1.17,-6.16 1.31,-6.39 0.74,7.74 0.75,7.42 2.97,10.11 3.29,-2.91 2.12,-3.1 5.47,-6.13 2.25,-2.05 4.47,-3.61 6.67,-6.96 -9.84,-7.02 -12.56,-6.55 -16.86,-19.65 -0.39,6.49 2.15,11.85 0.99,22.39l-2.61 -5.39c-1.76,-5.13 -2.85,-24.65 -11.81,-24.37z"/>
   <path class="fil4" d="M354.88 79.63c-0.85,3.58 1.54,1.84 -5.15,4.09 -4.28,1.44 -4.56,0.45 -8.25,3.16 13.1,2.75 19.02,4.02 28.52,9.59 11.49,6.74 14.1,11.59 20.04,16.4 2.3,-14.04 -0.06,-15.41 -0.36,-25.52 11.41,-0.53 20.93,-3.08 28.41,-7.64 -4.17,-2.88 -18.76,-6.82 -25.38,-10.14 -7.21,-3.62 -18.61,-10.84 -24.89,-12.57 -1.35,5.12 -4.43,7.76 -6.15,11.88 -2.84,6.81 0.97,5.29 -6.79,10.75z"/>
   <path class="fil0" d="M396.24 365.51c8.22,6.08 41.04,19.25 44,2.85 -1.88,-9.87 -32.09,-5.65 -39.51,-5.28 3.97,-2.15 19.97,-3.5 24.58,-3.83l-18.57 -8.54c-6.08,6.32 -4.2,8.17 -10.5,14.8zm12.41 -19.57c2.55,5.16 37.4,19.31 45.05,9.4 11.28,-14.62 -36.91,-10.69 -45.05,-9.4zm-21.01 28.87c-0.04,3.42 -2.39,0.56 7.7,7.79 10.92,7.83 24.45,19.95 38.18,9.01 -1.23,-8.62 -10.05,-11.74 -18.48,-13 -8.08,-1.21 -22.51,-4.85 -27.4,-3.8zm-316.58 12.66c10.69,5.13 17.77,3.69 27.02,-2.08 4.34,-2.71 19.61,-12.85 21.46,-17.14 -3.88,0.33 -33.8,5.56 -41.09,8.86 -5.81,2.64 -6.92,2.7 -7.39,10.36z"/>
   <path class="fil0" d="M97.76 341.35l-26.6 -1.57c-7.58,-0.72 -27.57,0.24 -20.43,10.15 7.69,10.68 39.63,-3.57 47.03,-8.58z"/>
   <path class="fil0" d="M63.97 364.09c4.21,9.09 13.6,8.57 23.88,5.37 4.5,-1.4 20.01,-7.21 23.84,-11.93 -16.16,1.77 -40.66,-5.78 -47.72,6.56z"/>
   <path class="fil0" d="M420.88 328.53c28.98,20.48 45.87,-9.93 18.73,-4.29l-18.73 4.29z"/>
   <path class="fil0" d="M84.13 324.54c-3.87,-3.65 -8.15,-2.44 -17.08,-4.66 -24.2,-6.03 -19.07,14.02 -0.33,10.15 5.12,-1.06 11.57,-4.02 17.41,-5.49z"/>
   <path class="fil0" d="M74.01 307.83c-1.81,-3.42 0.15,-0.74 -1.88,-3.02 -1.2,-1.35 -2,-1.82 -3.14,-2.58 -10.51,-7.01 -14.5,-14.21 -19.38,-9.41 -4.5,4.42 2.12,10.69 5.32,12.13 5.24,2.36 13.06,2.36 19.08,2.88z"/>
   <path class="fil5" d="M79.41 354.14l29.73 3.5c-1.95,-5.91 -6.05,-7.72 -8.67,-14.35 -0.43,0.26 -1.03,0.15 -1.27,0.81 -0.23,0.63 -0.91,0.56 -1.21,0.76l-7.6 4.4c-5.56,2.58 -7.27,2.13 -10.98,4.88z"/>
   <path class="fil0" d="M65.68 287.97c-1.38,-4.8 -8.19,-26.35 -14.84,-20.84 -8.89,7.37 9.5,18.25 14.84,20.84z"/>
   <path class="fil5" d="M62.74 267.95l1.23 -1.95c2.52,-5.72 0.15,-3.11 3.06,-6.58l1.7 5.45c1.82,-4.85 5.46,-16.39 -3,-14.51 -6.96,1.55 -4.14,11.54 -2.99,17.59z"/>
   <path class="fil0" d="M435.47 270.53c0.15,-0.45 0.72,-2.76 0.93,-3.17 1.45,-2.89 0.31,-1.12 2.15,-3.26l1.92 8.6c9.49,-14.54 -12.06,-29.86 -5,-2.17z"/>
  </g>
 </g>
</svg>
