<?xml version="1.0" encoding="UTF-8"?>
<!DOCTYPE svg PUBLIC "-//W3C//DTD SVG 1.1//EN" "http://www.w3.org/Graphics/SVG/1.1/DTD/svg11.dtd">
<!-- Creator: CorelDRAW 2021 (64-Bit) -->
<svg xmlns="http://www.w3.org/2000/svg" xml:space="preserve" width="512px" height="512px" version="1.1" style="shape-rendering:geometricPrecision; text-rendering:geometricPrecision; image-rendering:optimizeQuality; fill-rule:evenodd; clip-rule:evenodd"
viewBox="0 0 512 512"
 xmlns:xlink="http://www.w3.org/1999/xlink"
 xmlns:xodm="http://www.corel.com/coreldraw/odm/2003">
 <defs>
  <style type="text/css">
   <![CDATA[
    .fil1 {fill:#D3B3A3}
    .fil0 {fill:#F0F8FA}
    .fil2 {fill:#FAE6E1}
   ]]>
  </style>
 </defs>
 <g id="Layer_x0020_1">
  <metadata id="CorelCorpID_0Corel-Layer"/>
  <g id="_2437068341664">
   <g>
    <path class="fil0" d="M512 0l-512 0 0 512 512 0 0 -512zm-384.74 197.86c0.49,9.31 6.56,23.98 -6.05,29.98 -7.4,3.52 -10.95,-0.18 -17.8,-0.47 -6.48,14.87 -7,10.01 -13.96,31.38 -2.95,9.05 -7.48,28.66 -6.67,39.14 0.26,3.41 1.49,6.54 2.19,9.16 1.84,6.91 1.73,9.51 4.63,18.05 0.99,2.92 1.13,6.32 1.94,9.48l4.73 17.75c3.8,11.44 19.22,31.55 28.2,40.54 20.08,20.08 47.24,34.14 75.8,39.07 5.42,0.94 14.57,2.7 20.4,2.69 10.24,-0.01 39.26,-6.36 47.12,-10.63 0.7,-7.15 1.7,-8.59 7.49,-11.41 10.77,-5.24 8.15,-0.22 11.37,-7.34 1.71,-3.79 4.36,-9.58 7.79,-10.8 6.31,-2.26 10.08,2.82 12.89,5.39 7.61,-2.46 31.86,-33.35 34.76,-44.1 -11.03,-8.7 -7.01,-25.19 1.86,-28.99 0.18,-6.36 2.39,-9.93 4.4,-15.11 2.02,-5.21 3.08,-9.68 5.17,-14.81 3.25,-8.02 4.58,-4.36 3.11,-14.69 -3.83,-26.96 -14.87,-49.47 -29.68,-69.11 -9.89,-13.12 -26.7,-27.45 -42.67,-36.01 -40.05,-21.5 -77.4,-23.8 -118.74,-4.8 -17.63,8.11 -24.4,14.67 -38.28,25.64z"/>
    <path class="fil1" d="M413.18 33.57c-2.06,2.56 -12.74,9.74 -15.65,11.9 -5.77,4.28 -12.84,6.27 -14.86,11.55 -8.63,-0.13 -19.44,-1.95 -27.99,-3.04 -10.15,-1.29 -17.8,0.87 -18.62,10.8 -22.45,-0.73 -23.1,19.68 -13.7,29.22 -6,9.28 -8.92,18.26 -9.76,29.99 -0.68,9.45 2.3,11.09 -1.92,12.53 -12.47,4.28 -12.77,2.66 -26,-3.29 -6.12,-2.76 -15.05,-4.86 -21.72,-6.42 -0.62,-0.14 -3.1,-0.65 -3.73,-0.87 -4.95,-1.75 0.55,1.33 -2.91,-1.94 0.54,-4.22 5.87,-31.51 7.23,-33.72 2.92,-2.91 8.34,-1.01 11.31,-8.8 2.31,-6.06 -0.19,-11.78 -3.98,-14.33 -7.22,-4.87 -20.89,-5.01 -20,13.83 -4.85,1.59 -11.84,7.82 -16.4,8.64 -1,-4.48 -6.98,-17.3 -6.91,-19.71 0.04,-1.55 9.98,-11.12 2.28,-19.12 -5.35,-5.56 -13.53,-6.75 -19.2,-0.79 -8.42,8.86 1.97,18.64 1.98,18.67 -0.25,4.21 -5.74,15.94 -7.2,20.78 -2.55,-0.47 -13.84,-7.01 -16.07,-8.78 0.04,-6.98 -0.43,-11.44 -5.73,-14.36 -12,-6.6 -22.67,4.7 -18.13,15.5 3.29,7.82 7.83,5.7 11,8.42 1.4,2.22 2.73,11.65 3.46,15.1 2.08,9.79 3.73,11.6 0.86,14.61 1.21,-0.32 3.84,-3.8 3.13,5.39 -13.94,4.81 -17.2,2.08 -40.16,13.15 -3.26,1.58 -6.35,2.6 -8.94,4.28l-24.18 15.47c-29.04,-41.53 -37.2,0.33 -40.54,3.93 -0.9,0.97 -11.82,4.48 -14.29,5.7 -13.78,6.77 -14.63,17.28 -6.92,24.61 3.94,3.74 6.02,7.17 10.19,9.53l-0.32 8c-3.72,0.38 -8.73,0.99 -12.82,1.38 -2.24,0.22 -4.37,0.55 -6.63,0.85 -0.25,0.03 -3.04,0.41 -3.45,0.57 -2.26,0.85 -0.1,-0.1 -1.59,0.91l-0.96 0.96c2.76,1.88 7.4,-0.1 12.82,-0.61 2.11,-0.2 10.88,-1.32 12.74,-0.73 -0.81,1.58 1.33,0.89 -2.83,1.34 -1.02,0.11 -2.15,-0.01 -3.32,0.08l-12.99 1.64c-1.41,0.22 -2.27,0.25 -3.46,0.56 0,0 -1.47,0.51 -1.56,0.55l-0.55 3.93c4.71,-0.98 19.52,-3.81 24.48,-2.98 2.91,8.64 -2.12,11.07 -4,20.4 -5.18,0.8 -15.52,1.93 -19.66,3.76 -1.24,1.04 -1.42,-1.33 -1.26,3.39l9.45 -1.45c1.88,-0.48 8.14,-1.99 9.82,-0.55 -0.58,0.87 -7.16,1.51 -9.82,2.13 -1.55,0.36 -3.73,0.79 -5.44,1.23 -1.6,0.41 -3.66,1.16 -4.42,2.64 4.2,2.86 16.71,-4.84 18.66,-2 1.1,-1.43 -0.55,-0.73 -1.96,7 -0.39,2.18 -1.07,6.78 -1.65,8.94 -1.41,5.26 -8.71,3.66 -5.74,14.73 6.64,24.76 3.12,14.89 4.1,39.74 4.26,8.75 -2.12,37.11 20.53,70.13 0.32,0.47 0.61,0.96 0.79,1.24l3.65 5.07c0.07,0.12 0.18,0.28 0.25,0.4 2.9,4.75 4.24,14.12 5.69,19.57l3.21 10.94c0.93,2.52 0.83,0.91 1.28,3.14l12.25 17.3c1.73,2.61 6.57,9.95 9.06,10.4 9.95,1.8 5.02,-13.06 8.54,-19.52 2.86,0.78 8.13,5.22 11.11,6.71 2.8,1.4 2.61,1.8 5.2,3.32l11.36 6.08c2.04,1.07 3.61,2.06 5.85,2.88 2.76,1.01 1.33,0.22 2.99,1.44 2.96,2.17 4.17,1.53 8.78,3.3 4,1.54 1.18,1.59 5.98,2.45 3,0.54 4.01,1.12 7.36,1.72 4.75,0.84 8.87,2.23 14.22,3.05 10.75,1.66 20.61,2.42 31.82,2.45 23.67,0.06 40.61,-1.38 61.3,-7.89 4.43,-1.39 8.5,-2.8 12.73,-4.5 7.66,-3.08 9.62,-4.95 11.49,-5.74 4.45,-1.88 7.68,2.14 14.51,1.31 4.81,-0.59 7.02,-3.85 8.42,-8.2 4.38,18.24 10.47,12.23 29.28,7.15l12.05 -3.72 78.16 -23.64c4.11,-1.26 23.32,-7.31 26.67,-7.39 1.33,-1.82 2.8,-0.72 4.72,-1.72 1.26,-0.65 1.57,0.34 1.61,-2.14 0.09,-4.78 -0.28,-1.83 -1.61,-2.77 -1.21,0.85 -16.24,5.07 -19.85,6.11 -6.83,1.96 -13.48,3.96 -20.02,5.98 -22.82,7.02 -56.95,17.65 -80.02,23.97 -20.57,5.63 -22.6,10.13 -25.96,-1.29 -0.77,-2.6 -2.56,-7.01 -2.34,-10 1.2,-0.54 4.67,-3.03 5.25,-3.71 3.44,9.54 0.19,8.77 25.08,1.36 7.22,-2.14 15.14,-4.08 21.95,-6.86 0.04,-4.59 -6.08,-23.26 -7.68,-28.4 -4.16,-13.37 -1.94,-6.87 6.06,-24.48 9.33,1.36 16.44,1.7 21.58,-5.25 3.43,-4.64 1.55,-3.76 8.2,-5.56l7.73 -2.32c5.93,-2.59 -0.01,-8.8 -1.14,-16.78 3.59,-2.8 2.55,-0.31 6.7,-5.79 0.67,2.76 2.04,6.78 2.84,9.29 0.57,1.76 0.96,2.91 1.43,4.58 0.21,0.74 0.52,1.97 0.78,2.61 0.61,1.5 -0.07,0.49 1.02,1.83 2.56,1.76 43.71,-11.85 44.12,-12.64 0.97,-1.86 -8.17,-29.82 -9.95,-35.58 -0.77,-2.51 -0.41,-2.65 -2.45,-4.03 -1.71,-0.39 -32.82,8.81 -35.33,10.03 -1.49,-1.01 -4.36,-4.76 -6.44,-6.71 7.2,-2.89 35.86,-9.91 38.87,-12.44 1.25,-2.01 -6.64,-25.05 -8.05,-30.13 -3.58,-12.88 -1.06,-11.08 -25.58,-3.66 -4.81,1.45 -17.79,4.69 -21.45,6.66 -0.69,4.02 8.89,34.65 9.5,35.49 -3.02,-1.25 -5.71,-3.07 -10.02,-3.45 -1.49,-7.32 -4.47,-14.85 -6.47,-22.28 -1.39,-5.15 -2.34,-16.34 -4.27,-24.27 -2.85,-11.76 -5.92,-21.89 -11.09,-32.52 -1.46,-3 -3.55,-5.92 -4.34,-9.66 1.99,-1.2 19.64,-6.36 23.21,-6.97 0.79,1.9 2.04,3.55 2.98,4.97l7.32 0.61c-0.34,-0.21 1.59,-0.99 -2.52,0.14l-20.04 6.31c-0.07,5.54 3.74,15.89 5.37,21.18 1.04,3.37 1.97,6.36 2.93,9.71 0.58,2 1.79,8.33 3.6,9.2 1.46,0.7 42.17,-11.06 43.35,-13 1.49,-2.46 -7.72,-29.65 -9.18,-34.54l8.67 -0.02c2.65,5.87 7.19,29.2 10.72,32.14 4.18,1.86 19.1,-5.81 25.17,-6 0.78,-0.89 0.83,-0.52 0.88,-1.75 0.07,-2.01 1.45,-0.28 -0.7,-1.49 -5.64,1.23 -19.81,6.41 -24.17,6.52l-8.65 -29.56c18.06,-2.9 14.08,4.35 19.47,-5.74 1.01,-1.88 2.2,-3.26 3.15,-4.87 2.19,-3.7 5.66,-4.95 10.47,-5.33 0.88,-1.14 0.51,-0.47 0.94,-2.17 -0.17,-0.11 -0.41,-0.21 -0.55,-0.25 -0.13,-0.04 -0.37,-0.17 -0.54,-0.21 -2.37,-0.55 -3.24,0.6 -5.68,0.99 1.87,-3.17 8.82,-14.31 10.9,-15.51 0.37,-3.2 3.54,-6.35 5.36,-9.24 1.89,-3.02 4.09,-6.03 5.88,-8.81 6.73,-10.49 5.42,-5.18 2.59,-21.81 -2.83,-16.65 -6.21,-33.46 -9.27,-50.07 -1.44,-7.83 -2.61,-17.64 -4.58,-24.8 -1.13,-4.09 -12.92,-11.37 -16.31,-13.75 -4.09,-2.88 -32.59,-24.74 -34.76,-24.66 -2.32,0.08 -13.37,10.13 -17.49,11.02zm-285.92 164.29c0.49,9.31 6.56,23.98 -6.05,29.98 -7.4,3.52 -10.95,-0.18 -17.8,-0.47 -6.48,14.87 -7,10.01 -13.96,31.38 -2.95,9.05 -7.48,28.66 -6.67,39.14 0.26,3.41 1.49,6.54 2.19,9.16 1.84,6.91 1.73,9.51 4.63,18.05 0.99,2.92 1.13,6.32 1.94,9.48l4.73 17.75c3.8,11.44 19.22,31.55 28.2,40.54 20.08,20.08 47.24,34.14 75.8,39.07 5.42,0.94 14.57,2.7 20.4,2.69 10.24,-0.01 39.26,-6.36 47.12,-10.63 0.7,-7.15 1.7,-8.59 7.49,-11.41 10.77,-5.24 8.15,-0.22 11.37,-7.34 1.71,-3.79 4.36,-9.58 7.79,-10.8 6.31,-2.26 10.08,2.82 12.89,5.39 7.61,-2.46 31.86,-33.35 34.76,-44.1 -11.03,-8.7 -7.01,-25.19 1.86,-28.99 0.18,-6.36 2.39,-9.93 4.4,-15.11 2.02,-5.21 3.08,-9.68 5.17,-14.81 3.25,-8.02 4.58,-4.36 3.11,-14.69 -3.83,-26.96 -14.87,-49.47 -29.68,-69.11 -9.89,-13.12 -26.7,-27.45 -42.67,-36.01 -40.05,-21.5 -77.4,-23.8 -118.74,-4.8 -17.63,8.11 -24.4,14.67 -38.28,25.64z"/>
   </g>
   <path class="fil2" d="M481.76 175.69c-2.08,1.2 -9.03,12.34 -10.9,15.51 2.44,-0.39 3.31,-1.54 5.68,-0.99 0.17,0.04 0.41,0.17 0.54,0.21 0.14,0.04 0.38,0.14 0.55,0.25 -0.43,1.7 -0.06,1.03 -0.94,2.17l0.46 20.71 -18.44 5.08c-0.1,2.65 -0.5,3.26 0.39,5.76 6.43,2.32 10.5,-2.3 15.31,-2.72 0.16,-0.02 0.35,-0.04 0.5,-0.04l1.8 0.34c0.79,2.51 0.75,7.45 -0.29,9.85 2.15,1.21 0.77,-0.52 0.7,1.49 -0.05,1.23 -0.1,0.86 -0.88,1.75 1.18,3.65 0.57,5.72 0.94,10.06 -3.73,0.6 -7.63,2.35 -10.99,3.4 -4.49,1.4 -11.58,2.31 -11.71,4.83l-0.28 1.99c0.08,3.04 10.31,33.8 11.14,37.99 6.14,0 8.41,-2.2 11.33,-1.13l0.26 5.8c-2.82,1.32 -5.14,2.23 -7.59,3.34 0,4.77 1.63,9.1 2.98,13.34 0.72,2.3 1.23,3.71 1.81,6.11 0.28,1.16 0.35,1.66 0.86,3.23 0.46,1.43 0.66,1.72 1.02,2.95 1.4,4.71 0.75,16.31 0.92,22.44 0.11,3.85 1.05,3.52 -1.07,5.25 -6.81,0.05 -15.56,3.85 -21.86,5.63l-19.49 5.84c-0.18,0.07 -0.36,0.11 -0.53,0.18 -0.18,0.07 -0.35,0.14 -0.52,0.21 -2.32,1.02 -2.06,2.85 -2.11,3.5 -0.1,1.35 0.35,3.2 0.36,3.21 0.47,1.85 1.14,3.17 1.71,5l2.89 9.77c0.37,1.32 5.21,18.29 6.45,19.33 3.06,2.59 9.36,-1.05 17.53,-3.33 2.76,-0.77 5.67,-1.61 8.3,-2.37 4.56,-1.34 4.64,-2.23 8.27,-1.21 0.52,2.88 0.03,8.81 -0.86,10.81 1.33,0.94 1.7,-2.01 1.61,2.77 -0.04,2.48 -0.35,1.49 -1.61,2.14 -1.92,1 -3.39,-0.1 -4.72,1.72l2.33 -0.13c1.3,3.33 1.04,12.9 0.39,16.94 -8.97,2.31 -9.25,-2.82 -28.43,9.56 -7.25,4.68 -13.27,14.95 -15.62,23.25 -0.69,2.42 -0.24,6.61 -1.87,7.97 -1.63,1.82 -43.51,1.4 -48.75,0.58l-10.97 -20.37c-2.11,-3.45 -2.35,-3.6 -1.91,-6.77l-12.05 3.72c-18.81,5.08 -24.9,11.09 -29.28,-7.15 -1.4,4.35 -3.61,7.61 -8.42,8.2 -6.83,0.83 -10.06,-3.19 -14.51,-1.31 -1.87,0.79 -3.83,2.66 -11.49,5.74 -4.23,1.7 -8.3,3.11 -12.73,4.5 -20.69,6.51 -37.63,7.95 -61.3,7.89 -11.21,-0.03 -21.07,-0.79 -31.82,-2.45 -5.35,-0.82 -9.47,-2.21 -14.22,-3.05 -3.35,-0.6 -4.36,-1.18 -7.36,-1.72 -4.8,-0.86 -1.98,-0.91 -5.98,-2.45 -4.61,-1.77 -5.82,-1.13 -8.78,-3.3 -1.66,-1.22 -0.23,-0.43 -2.99,-1.44 -2.24,-0.82 -3.81,-1.81 -5.85,-2.88l-11.36 -6.08c-2.59,-1.52 -2.4,-1.92 -5.2,-3.32 -2.98,-1.49 -8.25,-5.93 -11.11,-6.71 -3.52,6.46 1.41,21.32 -8.54,19.52 -2.49,-0.45 -7.33,-7.79 -9.06,-10.4l-12.25 -17.3c-0.04,3.25 -2.97,5.34 -6.22,8.35 -3.94,3.67 -4.13,6.61 -7.93,7.9 -6.04,-3.35 -11.67,-8.75 -21.97,-10.05 -12.4,-1.55 -11.46,4.77 -11.46,-13.1l0 -42.67c0,-18.01 -1.12,-39.81 0.02,-57.33 1.8,-1.51 2.37,-1.45 5.42,-1.82 7.39,-0.91 1.37,-2.4 6.74,-1.77 -0.98,-24.85 2.54,-14.98 -4.1,-39.74 -2.97,-11.07 4.33,-9.47 5.74,-14.73 0.58,-2.16 1.26,-6.76 1.65,-8.94 1.41,-7.73 3.06,-8.43 1.96,-7 -1.95,-2.84 -14.46,4.86 -18.66,2 0.76,-1.48 2.82,-2.23 4.42,-2.64 1.71,-0.44 3.89,-0.87 5.44,-1.23 2.66,-0.62 9.24,-1.26 9.82,-2.13 -1.68,-1.44 -7.94,0.07 -9.82,0.55l-9.45 1.45c-0.16,-4.72 0.02,-2.35 1.26,-3.39 -1.86,-5.74 0.86,-16.11 -0.82,-21.18l0.55 -3.93c0.09,-0.04 1.56,-0.55 1.56,-0.55 1.19,-0.31 2.05,-0.34 3.46,-0.56l12.99 -1.64c1.17,-0.09 2.3,0.03 3.32,-0.08 4.16,-0.45 2.02,0.24 2.83,-1.34 -1.86,-0.59 -10.63,0.53 -12.74,0.73 -5.42,0.51 -10.06,2.49 -12.82,0.61l0.96 -0.96c1.49,-1.01 -0.67,-0.06 1.59,-0.91 0.41,-0.16 3.2,-0.54 3.45,-0.57 2.26,-0.3 4.39,-0.63 6.63,-0.85 4.09,-0.39 9.1,-1 12.82,-1.38l0.32 -8c-4.17,-2.36 -6.25,-5.79 -10.19,-9.53 -7.71,-7.33 -6.86,-17.84 6.92,-24.61 2.47,-1.22 13.39,-4.73 14.29,-5.7 3.34,-3.6 11.5,-45.46 40.54,-3.93l24.18 -15.47c2.59,-1.68 5.68,-2.7 8.94,-4.28 22.96,-11.07 26.22,-8.34 40.16,-13.15 0.71,-9.19 -1.92,-5.71 -3.13,-5.39 2.87,-3.01 1.22,-4.82 -0.86,-14.61 -0.73,-3.45 -2.06,-12.88 -3.46,-15.1 -3.17,-2.72 -7.71,-0.6 -11,-8.42 -4.54,-10.8 6.13,-22.1 18.13,-15.5 5.3,2.92 5.77,7.38 5.73,14.36 2.23,1.77 13.52,8.31 16.07,8.78 1.46,-4.84 6.95,-16.57 7.2,-20.78 -0.01,-0.03 -10.4,-9.81 -1.98,-18.67 5.67,-5.96 13.85,-4.77 19.2,0.79 7.7,8 -2.24,17.57 -2.28,19.12 -0.07,2.41 5.91,15.23 6.91,19.71 4.56,-0.82 11.55,-7.05 16.4,-8.64 -0.89,-18.84 12.78,-18.7 20,-13.83 3.79,2.55 6.29,8.27 3.98,14.33 -2.97,7.79 -8.39,5.89 -11.31,8.8 -1.36,2.21 -6.69,29.5 -7.23,33.72 3.46,3.27 -2.04,0.19 2.91,1.94 0.63,0.22 3.11,0.73 3.73,0.87 6.67,1.56 15.6,3.66 21.72,6.42 13.23,5.95 13.53,7.57 26,3.29 4.22,-1.44 1.24,-3.08 1.92,-12.53 0.84,-11.73 3.76,-20.71 9.76,-29.99 -9.4,-9.54 -8.75,-29.95 13.7,-29.22 0.82,-9.93 8.47,-12.09 18.62,-10.8 8.55,1.09 19.36,2.91 27.99,3.04 2.02,-5.28 9.09,-7.27 14.86,-11.55 2.91,-2.16 13.59,-9.34 15.65,-11.9 -0.79,-0.78 -0.86,-0.53 -2.74,-0.21 -0.05,0.01 -0.22,0.05 -0.28,0.06 -0.06,0.01 -0.24,0.03 -0.3,0.04 -2.48,0.39 -1.82,1.63 -1.91,-0.68l-329.28 0.08c-2.9,9.34 -2.71,19.44 -15.44,29.69 -14.45,11.64 -25.42,8.06 -35.32,8.78l-0.05 369.34c8.44,0.61 11.75,-1.48 20.95,1.17 5.9,1.71 11.38,4.96 15.19,8.28 11.27,9.82 12.81,18.92 14.11,32.69l355.78 0.17c1.17,-9.08 0.56,-11.36 3.92,-19.34 2.58,-6.14 7.13,-11.41 12.49,-15.28 4.48,-3.23 4.56,-3.67 11.23,-6.03 6.33,-2.23 12.56,-1.95 19.58,-1.95 1.2,-8.44 0.37,-181.03 0.37,-198.38 0,-20.76 -1.26,-46.41 0.28,-66.31z"/>
   <path class="fil0" d="M378.41 183.51c3.65,-1.73 9.17,-2.05 13.59,-2.84l11.97 23.89c18.25,-0.48 34.66,-0.55 52.69,-1.61 1.22,-1.53 1.86,-3.24 2.79,-4.81l30.66 -45.96c3.47,-4.82 1.76,-7.19 0.79,-13.22 -1.59,-9.97 -3.76,-18.9 -5.35,-28.65l-7.82 -42.77c-1.2,-7.02 -3.31,-6.93 -7.3,-9.97l-39.76 -28.75 -8.93 6.27c-8.44,5.54 -17.27,12.55 -27.17,18.83 -8.14,5.17 -5.69,0.28 -10.79,19.83 -3.68,14.1 -10.1,35.06 -13.15,48.17 -3.35,14.43 -4.87,8.2 2.21,21.98 3.6,7.01 6.51,13.38 10.38,20.27 6.55,11.65 1.08,12.07 -1.33,15.73 -1.06,1.62 -1.92,3.26 -3.48,3.61z"/>
   <path class="fil0" d="M476 411.23c0.89,-2 1.38,-7.93 0.86,-10.81 -3.63,-1.02 -3.71,-0.13 -8.27,1.21 -2.63,0.76 -5.54,1.6 -8.3,2.37 -8.17,2.28 -14.47,5.92 -17.53,3.33 -1.24,-1.04 -6.08,-18.01 -6.45,-19.33l-2.89 -9.77c-0.57,-1.83 -1.24,-3.15 -1.71,-5 -0.01,-0.01 -0.46,-1.86 -0.36,-3.21 0.05,-0.65 -0.21,-2.48 2.11,-3.5 0.17,-0.07 0.34,-0.14 0.52,-0.21 0.17,-0.07 0.35,-0.11 0.53,-0.18l19.49 -5.84c6.3,-1.78 15.05,-5.58 21.86,-5.63 2.12,-1.73 1.18,-1.4 1.07,-5.25 -0.17,-6.13 0.48,-17.73 -0.92,-22.44 -0.36,-1.23 -0.56,-1.52 -1.02,-2.95 -0.51,-1.57 -0.58,-2.07 -0.86,-3.23 -0.58,-2.4 -1.09,-3.81 -1.81,-6.11 -1.35,-4.24 -2.98,-8.57 -2.98,-13.34 2.45,-1.11 4.77,-2.02 7.59,-3.34l-0.26 -5.8c-2.92,-1.07 -5.19,1.13 -11.33,1.13 -0.83,-4.19 -11.06,-34.95 -11.14,-37.99l0.28 -1.99c0.13,-2.52 7.22,-3.43 11.71,-4.83 3.36,-1.05 7.26,-2.8 10.99,-3.4 -0.37,-4.34 0.24,-6.41 -0.94,-10.06 -6.07,0.19 -20.99,7.86 -25.17,6 -3.53,-2.94 -8.07,-26.27 -10.72,-32.14l-8.67 0.02c1.46,4.89 10.67,32.08 9.18,34.54 -1.18,1.94 -41.89,13.7 -43.35,13 -1.81,-0.87 -3.02,-7.2 -3.6,-9.2 -0.96,-3.35 -1.89,-6.34 -2.93,-9.71 -1.63,-5.29 -5.44,-15.64 -5.37,-21.18l20.04 -6.31c4.11,-1.13 2.18,-0.35 2.52,-0.14l-7.32 -0.61c-0.94,-1.42 -2.19,-3.07 -2.98,-4.97 -3.57,0.61 -21.22,5.77 -23.21,6.97 0.79,3.74 2.88,6.66 4.34,9.66 5.17,10.63 8.24,20.76 11.09,32.52 1.93,7.93 2.88,19.12 4.27,24.27 2,7.43 4.98,14.96 6.47,22.28 4.31,0.38 7,2.2 10.02,3.45 -0.61,-0.84 -10.19,-31.47 -9.5,-35.49 3.66,-1.97 16.64,-5.21 21.45,-6.66 24.52,-7.42 22,-9.22 25.58,3.66 1.41,5.08 9.3,28.12 8.05,30.13 -3.01,2.53 -31.67,9.55 -38.87,12.44 2.08,1.95 4.95,5.7 6.44,6.71 2.51,-1.22 33.62,-10.42 35.33,-10.03 2.04,1.38 1.68,1.52 2.45,4.03 1.78,5.76 10.92,33.72 9.95,35.58 -0.41,0.79 -41.56,14.4 -44.12,12.64 -1.09,-1.34 -0.41,-0.33 -1.02,-1.83 -0.26,-0.64 -0.57,-1.87 -0.78,-2.61 -0.47,-1.67 -0.86,-2.82 -1.43,-4.58 -0.8,-2.51 -2.17,-6.53 -2.84,-9.29 -4.15,5.48 -3.11,2.99 -6.7,5.79 1.13,7.98 7.07,14.19 1.14,16.78l-7.73 2.32c-6.65,1.8 -4.77,0.92 -8.2,5.56 -5.14,6.95 -12.25,6.61 -21.58,5.25 -8,17.61 -10.22,11.11 -6.06,24.48 1.6,5.14 7.72,23.81 7.68,28.4 -6.81,2.78 -14.73,4.72 -21.95,6.86 -24.89,7.41 -21.64,8.18 -25.08,-1.36 -0.58,0.68 -4.05,3.17 -5.25,3.71 -0.22,2.99 1.57,7.4 2.34,10 3.36,11.42 5.39,6.92 25.96,1.29 23.07,-6.32 57.2,-16.95 80.02,-23.97 6.54,-2.02 13.19,-4.02 20.02,-5.98 3.61,-1.04 18.64,-5.26 19.85,-6.11z"/>
   <path class="fil0" d="M122.43 160.67c3.44,2.25 6.98,2.77 10.65,5.58 4.88,3.76 4.03,5.1 4.46,12.27 0.84,-0.3 17.61,-11.17 31.21,-16.44 8.09,-3.13 19.46,-6 28.36,-7.79 25.91,-5.22 48.81,-1.26 72.75,7.14 6.56,2.3 11.31,4.94 16.98,7.64 35.09,16.68 66.4,58.03 74.15,95.34l3.6 18.87c0.05,0.18 0.12,0.37 0.17,0.53 0.04,0.16 0.14,0.4 0.19,0.53 0.39,1.17 5.38,0.48 12.75,3.91 4.16,1.94 5.29,5.3 9.23,7.34 1.43,-30.73 -10.15,-64.29 -25.75,-89.53 -12.32,-19.93 -31.03,-37.81 -50.16,-50.36 -3.4,-2.23 -6.03,-3.38 -9.31,-5.4 -6.25,-3.84 -13.25,-6.44 -19.5,-9.12 -23.53,-10.08 -48.66,-11.63 -75.57,-11.03 -2.58,0.05 -3.76,0.52 -5.99,0.68 -7.94,0.6 -11.14,1.3 -18.75,3.02 -14.64,3.3 -38.9,12 -50.87,21.21 -2.32,1.78 -5.59,3.73 -8.6,5.61z"/>
   <path class="fil0" d="M65.05 199.59c-1,8.14 -3.17,14.08 0.09,22.67 3.19,8.4 9.83,6.72 16.43,3.29 6.55,-3.41 9.38,-8.95 17.8,-5.53 3.45,1.4 6.09,2.38 9.18,3.31 4.09,1.23 6.98,1.79 10.68,-0.2 6.82,-3.66 5.51,-10.9 4.07,-18.62 -2.53,-13.5 -1.99,-8.86 4.57,-18.56 4.25,-6.28 8.28,-11.34 0.25,-16.78 -5.79,-3.92 -12.56,-4.83 -20.42,-5.6 -2.16,-3.17 -12.11,-17.86 -18.4,-18.35 -8.75,-0.68 -13.61,19.98 -15.24,21.57 -1.51,1.48 -20.92,4.91 -24.07,12.47 -2.35,5.62 2.49,9.11 4.99,11.77 2.06,2.2 2.47,3.09 4.62,4.64 1.58,1.14 3.73,3.21 5.45,3.92z"/>
   <path class="fil0" d="M346.58 328.63c-2.55,0.7 -4.5,2.27 -6.02,4.54 -3.63,5.42 -4.1,16.99 5.37,21.51 10.23,4.88 16.75,1.24 20.3,-7.73 2.11,-5.34 1.12,-3.26 1,-8.68 3.47,-1.99 4.48,-7.28 7.16,-11.11 2.42,0.45 4.4,2.16 5.58,4.17 -0.77,2.99 -3.46,4.41 -4.09,8.45 -1.08,7 2.27,2.97 -3.29,8.83 -1.45,1.52 -3.68,5.56 -3.73,8.69 -0.06,3.28 2.56,7.63 3.93,9.24 3.96,4.63 18.8,10.67 26.33,-2.06 2.34,-3.95 2.11,-6.03 2.15,-11.42 4.35,-2.79 3.34,-3.18 6.14,-7.61 2.75,-4.35 4.36,-2.9 8.46,-5.59 5.64,-3.7 11.9,-17.36 1.34,-28.41 -2.98,-3.12 -4.07,-3.28 -8.38,-5.47 -12.2,-6.21 -15.95,-2.98 -22.91,-2.73 -0.35,-1.43 -0.88,-2.22 -1.52,-3.71 -0.76,-1.76 -1.04,-2.36 -2.21,-3.74 -6.74,-7.9 -19.59,-12.72 -25.54,0.87l-4.85 13.18c-1.51,6.41 -5.94,11.67 -5.22,18.78z"/>
   <path class="fil0" d="M278.95 453.56c-0.23,-5.44 -1.4,-2.95 -1.38,-18.23 -5.81,-4.23 -2.54,-5.25 -16.06,-0.46 -4.14,1.46 -7.16,1.86 -11.58,2.98 -25.19,6.39 -53.78,3.71 -76.37,-4.72 -15.53,-5.81 -35.26,-15.84 -46.52,-26.82 -3.29,-3.21 -3.83,-2.89 -7.76,-6.92l-13.92 -15.28c0.04,2.36 0.16,1.45 0.59,3.46l5.38 23.37c0.47,2.26 1.46,4.19 1.48,6.39 0.07,8.46 -3.47,5.87 9.66,15.52 1.78,1.3 2.58,2.13 4.62,3.33 8.94,5.28 16.68,9.78 26.96,14.38 4.49,2.01 9.01,3.03 12.45,4.41 15.57,6.25 37.05,8.54 56.84,8.59 15.17,0.04 42.88,-3.93 55.61,-10z"/>
   <path class="fil1" d="M348.9 329.42c-0.65,0.46 -0.03,0.12 -1.33,0.77l-5.8 5.41c-6.95,17.36 12.64,22.33 18.99,16.49 3.31,-3.05 4.49,-8.73 3.85,-14.76 6.73,-4.56 6.7,-14.63 11.39,-15.64 0.6,2.76 1.7,3.79 3.15,5.16 4.62,4.37 3.85,0.83 4.91,4.48 -0.97,1.49 -1.07,1.04 -2.33,2.37 -3.69,3.88 -3.55,7.19 -3.01,12.3 -3.08,3.32 -7,4.76 -7.3,11.41 -0.48,10.74 20.7,19.55 26.9,3.49 1.48,-3.83 0.11,-5.55 -0.52,-9.09 4.08,-1.21 5,-2.89 6.92,-6.42 4.44,-8.12 9.85,-4.19 14.03,-12.58 1.45,-2.92 2.21,-8.38 1.22,-12.69 -1.55,-6.81 -8.43,-10.26 -14.26,-13.13 -7.52,-3.71 -15.38,-2.42 -22.22,0.12 -1.19,-5.63 -0.04,-9.11 -8.07,-13.82 -6.67,-3.9 -11.47,-3.85 -15.42,1.97 -2.84,4.18 -7.15,18.41 -9.48,24.55 -1.75,4.59 -0.97,4.91 -1.62,9.61z"/>
   <path class="fil0" d="M82.15 428.9c-0.45,-2.23 -0.35,-0.62 -1.28,-3.14l-3.21 -10.94c-1.45,-5.45 -2.79,-14.82 -5.69,-19.57 -0.07,-0.12 -0.18,-0.28 -0.25,-0.4l-3.65 -5.07c-0.18,-0.28 -0.47,-0.77 -0.79,-1.24 -22.65,-33.02 -16.27,-61.38 -20.53,-70.13 -5.37,-0.63 0.65,0.86 -6.74,1.77 -3.05,0.37 -3.62,0.31 -5.42,1.82 -1.14,17.52 -0.02,39.32 -0.02,57.33l0 42.67c0,17.87 -0.94,11.55 11.46,13.1 10.3,1.3 15.93,6.7 21.97,10.05 3.8,-1.29 3.99,-4.23 7.93,-7.9 3.25,-3.01 6.18,-5.1 6.22,-8.35z"/>
   <path class="fil0" d="M366.45 448.89c-0.44,3.17 -0.2,3.32 1.91,6.77l10.97 20.37c5.24,0.82 47.12,1.24 48.75,-0.58 1.63,-1.36 1.18,-5.55 1.87,-7.97 2.35,-8.3 8.37,-18.57 15.62,-23.25 19.18,-12.38 19.46,-7.25 28.43,-9.56 0.65,-4.04 0.91,-13.61 -0.39,-16.94l-2.33 0.13c-3.35,0.08 -22.56,6.13 -26.67,7.39l-78.16 23.64z"/>
   <path class="fil0" d="M54.25 298.9l15.17 59.93c2.51,9.34 5.61,19.7 7.87,29.38l7.38 29.96c1.46,-0.56 2.48,-3.98 3.03,-5.15 5.12,0.57 4.15,3.04 8.3,3.26 2.21,-1.8 2.55,-4.59 4,-6.52 2.49,0.15 3.5,1.74 5.7,2.72 -0.37,-5.36 -7.39,-29.95 -9.36,-36.9 -0.78,-2.74 -0.65,-5.15 -1.54,-7.85l-15.36 -58.99c-0.9,-5.35 -2.88,-10.12 -4.25,-15.24l-20.94 5.4z"/>
   <path class="fil2" d="M182.3 88.67c0.67,4.98 6.36,33.11 7.77,35.86 11.39,-2.95 47.48,-1.47 60.27,-0.13 1.26,-5.27 7.26,-32.84 7.25,-36.4 -4.48,-2.79 -2.35,-3.83 -12.19,2.11 -16.17,9.75 -12.92,8.64 -19.15,-7.88 -1.02,-2.71 -1.69,-4.11 -2.7,-7.37 -0.96,-3.12 -1.3,-4.17 -5.24,-3.84l-7.87 19.76c-0.92,2.81 -0.57,5.88 -4.42,5.57 -2.45,-0.2 -14.71,-8.6 -18.15,-10.11 -2.41,-1.07 -4.41,1.16 -5.57,2.43z"/>
   <path class="fil2" d="M378 382.67c0,9.85 7.26,25.57 9.48,36.07 0.5,2.38 1,4.72 3.87,4.88 0.49,0.02 1.6,0.02 1.84,-0.01l35.44 -10.6c3.07,-0.88 3.48,-0.07 5.37,-2.35 1.13,-1.89 -0.29,-6.14 -1,-8.64l-8.43 -28.22c-2.35,-8.18 -9.53,-1.37 -20.07,0.92 -1.99,0.43 -1.18,0.17 -2.77,0.71 -2.16,0.73 0.1,0.07 -2.37,0.93 -5.31,1.87 -14.09,3.51 -21.36,6.31z"/>
   <path class="fil0" d="M333.88 118.75c3.18,1.11 6.88,-0.09 7.42,3.34 0.74,4.74 -4.94,3.23 -8.08,3.15 -0.81,18.21 12.93,32.57 28.11,35.57 0.9,-2.58 0.12,-7.1 3.45,-7.44 4.35,-0.44 2.74,5.46 2.94,8.28 3.77,-0.01 4.87,0.23 7.45,-0.98 -2.57,-5.3 -5.09,-9.89 -7.9,-15.35 -6.81,-13.2 -6.09,-8.5 -1.5,-26.09 0.8,-3.07 1.03,-7.15 1.96,-9.9 0.91,-2.68 3,-5.59 3.15,-8.97 0.17,-3.52 -0.52,0.03 -1.47,-3.86 -0.43,-1.74 0.03,-3.87 -0.04,-5.76 -17.43,-0.48 -32.85,12.75 -35.49,28.01z"/>
   <path class="fil0" d="M403.53 270c0.43,3.18 9.37,33.57 11.14,35.7l39.65 -11.86c-2.76,-11.55 -7.07,-23.84 -10.56,-35.85 -2.69,0.26 -38.39,10.85 -40.23,12.01z"/>
   <path class="fil0" d="M388.15 218.24l10.42 35.79c6.39,-0.87 13.96,-3.95 20.36,-5.85 2.36,-0.7 17.75,-4.89 19.61,-6.18 -0.33,-3.4 -8.63,-31.23 -9.87,-33.17 -10.74,-0.4 -12.08,0.92 -21.09,3.49 -6.39,1.82 -13.86,3.91 -19.43,5.92z"/>
   <path class="fil0" d="M350 359.44c-4.59,6.27 -8.78,19.91 -24.86,35.71 -1.76,1.73 -9.12,8.57 -10.02,11.07 7.72,3.32 15.38,2.57 14.78,12.47 -0.29,4.67 -1.6,4.48 -2.07,6.83l3.86 -3.75c0.12,-0.1 0.28,-0.21 0.39,-0.3l13.98 -13.99c3.6,-4.62 5.8,-6.57 10.3,-13.08 3.94,-5.69 7.96,-11.35 11.57,-18.4 3.11,-6.07 4.01,-5.24 0.57,-10.54 -2.14,-3.28 -2.84,-7.77 -1.74,-12.08 -4.79,3.2 -1.96,5.8 -16.76,6.06z"/>
   <path class="fil0" d="M434.66 370c0.61,0.9 0.07,-0.1 0.67,1.73l10 32.94 28.65 -8.49c2.34,-0.71 2.08,-1.53 3.36,-0.18 -0.94,-5.84 -1,-14.11 -0.4,-20.67 0.92,-9.92 -2.52,-11.31 -2.94,-17.33l-9.43 2.91c-3.11,1.03 -6.78,2.14 -10.17,3.17l-19.74 5.92z"/>
   <path class="fil0" d="M381.43 172.78c-0.95,-2.39 -2.22,-4.03 -2.81,-6.11 -16.46,1.75 -24.94,0.46 -35.84,-8.1 -7.87,-6.18 -14.51,-16.34 -15.55,-29.96 -1.06,-13.95 5.65,-25.53 12.79,-32.6 9.19,-9.09 19.57,-11.36 35.05,-10.98l1.99 -7.4c-32.82,-5.07 -58.78,19.76 -57.75,51.06 1.16,35.29 42.16,54.96 62.12,44.09z"/>
   <path class="fil0" d="M396.33 325.06c-1.84,5.84 -8.26,7.35 -12.27,11.64 -6.48,6.93 1.05,10.26 7.77,11.43 9.61,1.67 8.23,-4.51 13.18,-9.11 4.94,-4.6 10.5,-3.04 11.52,-12.37 0.89,-8.02 -3.51,-11.91 -8.65,-14.52 -17.68,-8.98 -31.39,0.45 -28.08,9.47 0.75,2.04 4.05,4.9 6.42,5.5 4.97,1.25 6.08,-1.48 10.11,-2.04z"/>
   <path class="fil0" d="M448.23 349.2c-1.68,-4.43 -1.89,-0.15 -5.79,-3.05 -2.73,-2.04 -1.01,-4.73 -0.82,-8.82 -0.17,-0.1 -0.45,-0.41 -0.55,-0.24l-4.6 -1.07c-2.42,-0.49 -3.04,-1 -4.27,-2.22 -2.08,-2.09 -3.39,-6.12 -2.36,-10.04 1.31,-4.92 2.37,-5.3 7.52,-8.41 2.85,-1.72 3.8,-0.95 7.07,-0.93 15.15,0.14 11.5,19.5 6.42,28.55l-1.72 2.94c-0.59,1.3 -0.01,-0.52 -0.62,1.64 2.65,-0.38 1.88,-0.19 4.75,-0.37 3.1,-0.19 12.82,-3.46 15.99,-4.43 -0.27,-4.36 -3.64,-13.1 -4.95,-17.76 -0.92,-3.28 -1.65,-5.41 -2.66,-8.71 -0.94,-3.04 -1.72,-6.6 -2.8,-9.1 -2.34,-0.52 -29.68,8.24 -34.27,9.53 2.66,11.96 -1.63,15.57 -0.78,20.2 0.36,1.95 4.68,15.94 5.54,17.48l18.9 -5.19z"/>
   <path class="fil0" d="M476.42 231.82c1.04,-2.4 1.08,-7.34 0.29,-9.85l-1.8 -0.34c-0.15,0 -0.34,0.02 -0.5,0.04 -4.81,0.42 -8.88,5.04 -15.31,2.72 -0.89,-2.5 -0.49,-3.11 -0.39,-5.76l18.44 -5.08 -0.46 -20.71c-4.81,0.38 -8.28,1.63 -10.47,5.33 -0.95,1.61 -2.14,2.99 -3.15,4.87 -5.39,10.09 -1.41,2.84 -19.47,5.74l8.65 29.56c4.36,-0.11 18.53,-5.29 24.17,-6.52z"/>
   <path class="fil0" d="M65.64 232.41l-2.33 7.02c-0.46,1.18 -0.78,1.26 -1.47,3.01 -1.68,4.27 -4.56,15.71 -4.81,19.69 5.23,-1.22 10.66,-0.56 14.71,1.36 6.64,3.15 1.41,9.24 5.64,11.28 0.69,-1.73 0.97,-4.63 1.4,-6.69l5.93 -19.95c1.65,-4.32 2.86,-7.72 5,-12.37 1.16,-2.52 5.29,-9.37 5.74,-11.65 -3.24,0.42 -6.34,3.53 -12.28,6.37 -7.6,3.64 -8.47,2.8 -17.53,1.93z"/>
   <path class="fil0" d="M335.65 429.48c-0.14,2.74 0.98,5.24 1.82,7.72 1.71,-0.41 3.09,-0.98 4.97,-1.49 5.22,-1.41 32.79,-9.05 35.07,-11.04 -2.05,-6.48 -6.26,-22.85 -8.61,-28.97 -0.08,-0.2 -0.34,-0.82 -0.42,-0.99l-0.48 -0.98c-3.31,1.9 -5.02,6.44 -7.26,9.69 -4,5.81 -19.23,21.67 -25.09,26.06z"/>
   <path class="fil0" d="M366.26 294.85c-6.11,3.48 -7.53,14.01 -10.81,22.53 -1.31,3.4 -4.64,9.12 -1.78,12.94 2.05,2.72 8.9,4.94 11.26,1.97l12.08 -21.22c7.74,-11.94 -7.13,-18.29 -10.75,-16.22z"/>
   <path class="fil2" d="M448.23 349.2c2.3,-0.82 3.52,-0.82 5.03,-2.02 -2.87,0.18 -2.1,-0.01 -4.75,0.37 0.61,-2.16 0.03,-0.34 0.62,-1.64l1.72 -2.94c5.08,-9.05 8.73,-28.41 -6.42,-28.55 -3.27,-0.02 -4.22,-0.79 -7.07,0.93 -5.15,3.11 -6.21,3.49 -7.52,8.41 -1.03,3.92 0.28,7.95 2.36,10.04 1.23,1.22 1.85,1.73 4.27,2.22l4.6 1.07c0.1,-0.17 0.38,0.14 0.55,0.24 -0.19,4.09 -1.91,6.78 0.82,8.82 3.9,2.9 4.11,-1.38 5.79,3.05z"/>
   <path class="fil2" d="M422 265.65c-0.09,0.21 0.43,0.74 -0.48,2.37 -0.79,1.42 -1.69,2.76 -2.36,4.37 -2.5,6.09 -4.77,15.2 -1.08,20.2 4.47,6.06 11.67,6.76 18.1,3.49 0.85,-0.43 0.48,-0.25 1.43,-1.09 0.11,-0.1 1.68,-1.61 1.71,-1.64 4.22,-5.2 2.84,-14.97 -3.29,-17.34 -1.49,-0.58 -4.23,-0.42 -6.32,-0.45 0.26,-3.48 0.91,-4.45 0.87,-8.85 -6.41,-3.46 -1.44,-2.43 -8.58,-1.06z"/>
   <path class="fil2" d="M400.29 226.42c2.68,0.61 4.53,1.66 6.52,-0.25 0.35,-0.33 1.14,-3.31 4.4,-3.11 0.09,0 0.33,0.09 0.41,0.1 2.47,0.35 0.79,2.24 -0.61,3.03 -1.29,0.72 -1.9,0.42 -3.64,1.81 0.66,7.65 4.71,5.51 7.23,6.01 1.69,0.34 0.58,-0.17 1.82,0.66 -0.19,3.05 -0.12,3.61 -4.29,2.8 -3.08,-0.59 -1.18,-1.07 -6.13,-1.33 -8.67,9.89 6.45,12.82 14.07,9.18 2.56,-1.22 6.32,-5.99 6.93,-8.95 1.28,-6.28 -2.86,-7.75 -5.87,-10.37 0.06,-7.26 -1.81,-13.93 -10.89,-12.42 -3.92,0.65 -8.73,3.25 -10.38,7.68 -0.9,2.4 -0.09,2.45 0.43,5.16z"/>
   <path class="fil0" d="M372.37 208.35l23.57 -7.02c-0.58,-2.86 -5.94,-12.79 -7.4,-15.04 -5.77,0.67 -19.7,7.06 -24.34,6.34 0.7,-2.29 6.89,-8.83 7.99,-10.05l-18.98 -2c0.79,1.91 0.72,1.79 2.21,3.34 1.64,1.7 1.3,1.35 2.79,3.31 1.55,2.05 3.15,4.35 5.05,6.84 1.5,1.96 8.32,11.71 9.11,14.28z"/>
   <path class="fil0" d="M34.19 221.43c1.68,5.07 -1.04,15.44 0.82,21.18 4.14,-1.83 14.48,-2.96 19.66,-3.76 1.88,-9.33 6.91,-11.76 4,-20.4 -4.96,-0.83 -19.77,2 -24.48,2.98z"/>
   <path class="fil2" d="M52 289.15l20.85 -4.95c-0.03,-2.57 -0.75,-4.15 -1.45,-6.54 -2.66,-9.03 -0.54,-9.91 -6.67,-10.06 -10.47,-0.26 -8.01,0.23 -13.79,3.49 -4.99,2.83 -3.01,6.64 1.06,18.06z"/>
   <path class="fil0" d="M347.33 74.42c2.7,0.27 7.91,-1.86 11.48,-2.52 4.95,-0.9 8.89,-0.47 13.4,-1.06l0.89 -7.79c-6.72,-1.14 -16.55,-2.34 -23.23,-2.79 -4.59,-0.32 -6.93,1.42 -7.33,5.79 -0.32,3.4 0.11,3 1.92,4.86 1.31,1.35 1.45,1.83 2.87,3.51z"/>
   <path class="fil0" d="M380.62 349.82c-12.19,5.57 -1.84,19.76 9.23,15.33 3.42,-1.37 7.02,-6.45 4.25,-11.27 -1.52,-2.65 -8.82,-6.18 -13.48,-4.06z"/>
   <path class="fil2" d="M89.6 418.91c-2,5.63 -3.38,2.12 2.03,10.12 2.61,3.85 4.75,7.24 7.04,10.07 7.09,-1.14 5.17,2.46 7.4,-20.43 -1.01,-1.09 -2.66,-2.3 -4.07,-2.86 -1.56,1.33 -2.1,4.56 -4.27,5.46 -2.5,1.06 -3.3,-0.01 -6.38,-1.55l-1.75 -0.81z"/>
   <path class="fil0" d="M349.59 333.97c-10.9,4.07 -3.91,20.26 7.27,16.11 1.8,-0.67 9.47,-8.76 -0.35,-15.16 -2.14,-1.39 -3.78,-2.12 -6.92,-0.95z"/>
   <path class="fil2" d="M327.33 88.87c1.19,-0.51 5.78,-4.9 6.99,-5.89 2.08,-1.71 5.81,-3.39 7.71,-5.65 -2.26,-4.62 -9.6,-9.26 -15.26,-3.91 -1.79,1.69 -3.57,4.32 -3.37,7.88 0.24,4.09 2.07,5.07 3.93,7.57z"/>
   <path class="fil0" d="M216.8 52c-8.7,5.21 -1.32,16.86 6.32,13 8.95,-4.53 1.29,-17.56 -6.32,-13z"/>
   <path class="fil0" d="M175.03 70.2c-10,4.21 -3.95,15.79 3.65,13.66 9.75,-2.72 4.68,-17.17 -3.65,-13.66z"/>
   <path class="fil0" d="M261.04 70.27c-9.7,3.26 -4.29,16.38 4.59,13.25 7.64,-2.7 4.63,-16.35 -4.59,-13.25z"/>
   <path class="fil0" d="M281.11 434c0,0 0,0 0,0z"/>
  </g>
 </g>
</svg>
