<?xml version="1.0" encoding="UTF-8"?>
<!DOCTYPE svg PUBLIC "-//W3C//DTD SVG 1.1//EN" "http://www.w3.org/Graphics/SVG/1.1/DTD/svg11.dtd">
<!-- Creator: CorelDRAW 2021 (64-Bit) -->
<svg xmlns="http://www.w3.org/2000/svg" xml:space="preserve" width="512px" height="512px" version="1.1" style="shape-rendering:geometricPrecision; text-rendering:geometricPrecision; image-rendering:optimizeQuality; fill-rule:evenodd; clip-rule:evenodd"
viewBox="0 0 512 512"
 xmlns:xlink="http://www.w3.org/1999/xlink"
 xmlns:xodm="http://www.corel.com/coreldraw/odm/2003">
 <defs>
  <style type="text/css">
   <![CDATA[
    .fil0 {fill:#3F3F3F}
    .fil1 {fill:#B6AEA5}
    .fil2 {fill:#D0BDB1}
    .fil3 {fill:#EFEFEF}
   ]]>
  </style>
 </defs>
 <g id="Layer_x0020_1">
  <metadata id="CorelCorpID_0Corel-Layer"/>
  <g id="_2437370627248">
   <path class="fil0" d="M437.03 317.18l18.88 -0.57 0.35 68.59 -19.1 -1.42 -0.55 56.4 -368.96 -0.5c-5.38,-3.53 -5.66,3.87 -5.2,-26.64 0.15,-9.74 0.72,-17.68 -0.34,-27.33 -12.01,-2.01 -9.78,1.49 -18.54,-5.46 0.25,-89.32 -4.09,-56.27 19.09,-65.49l-0.12 -54.54c-7.71,3.52 -21.35,14.9 -28.78,20.34 -10.05,7.35 -16.36,15.36 -27.72,19.6 -6.79,18.43 -5.85,172.04 -2.88,200.17l6.87 1.4 487.92 -0.08 -0.76 -336.06c-20.04,-2.45 -41.64,-10.22 -61.69,-5.98l1.53 157.57z"/>
   <path class="fil1" d="M6.04 300.16c11.36,-4.24 17.67,-12.25 27.72,-19.6 7.43,-5.44 21.07,-16.82 28.78,-20.34l0.12 54.54c-23.18,9.22 -18.84,-23.83 -19.09,65.49 8.76,6.95 6.53,3.45 18.54,5.46 1.06,9.65 0.49,17.59 0.34,27.33 -0.46,30.51 -0.18,23.11 5.2,26.64 -6.08,-21.62 -0.61,-36.56 -2.33,-57.07l371.84 1.17 19.1 1.42 -0.35 -68.59 -18.88 0.57 -371.53 0.89 -0.71 -120.64c0,0 -64.79,43.66 -64.79,43.66l0 62.74c14.18,-4.76 6.06,1.85 6.04,-3.67z"/>
   <path class="fil2" d="M435.65 99.51c16.71,-4.41 46.26,1.17 60.6,7.06 4.81,13.35 1.52,38.15 1.87,54.96l-62.1 -8.63 -0.52 6.71c20.05,-4.24 41.65,3.53 61.69,5.98l0.76 336.06 -487.92 0.08c-0.43,7.89 -7.15,9.81 25.11,9.23 80.33,-1.44 456.92,4.92 468.36,-3.11 12.27,-8.6 7.64,-32.07 7.64,-59.37l-0.69 -441.23c-17.5,-10.49 -153.41,-7.64 -181.81,-5.64 6,19.79 18.86,47.76 22.58,63.03 12.57,-0.66 79.16,-0.18 83.99,0.09 0.94,12.37 3.19,22.96 0.44,34.78z"/>
   <path class="fil3" d="M67.65 439.68l368.96 0.5 0.55 -56.4 -371.84 -1.17c1.72,20.51 -3.75,35.45 2.33,57.07z"/>
   <path class="fil0" d="M436.02 152.9l62.1 8.63c-0.35,-16.81 2.94,-41.61 -1.87,-54.96 -14.34,-5.89 -43.89,-11.47 -60.6,-7.06l0.37 53.39z"/>
  </g>
 </g>
</svg>
