<?xml version="1.0" encoding="UTF-8"?>
<!DOCTYPE svg PUBLIC "-//W3C//DTD SVG 1.1//EN" "http://www.w3.org/Graphics/SVG/1.1/DTD/svg11.dtd">
<!-- Creator: CorelDRAW 2021 (64-Bit) -->
<svg xmlns="http://www.w3.org/2000/svg" xml:space="preserve" width="512px" height="512px" version="1.1" style="shape-rendering:geometricPrecision; text-rendering:geometricPrecision; image-rendering:optimizeQuality; fill-rule:evenodd; clip-rule:evenodd"
viewBox="0 0 512 512"
 xmlns:xlink="http://www.w3.org/1999/xlink"
 xmlns:xodm="http://www.corel.com/coreldraw/odm/2003">
 <defs>
  <style type="text/css">
   <![CDATA[
    .fil0 {fill:#214E46}
    .fil2 {fill:#EDBA05}
    .fil1 {fill:#F3F4F3}
   ]]>
  </style>
 </defs>
 <g id="Layer_x0020_1">
  <metadata id="CorelCorpID_0Corel-Layer"/>
  <g id="_2436742781376">
   <path class="fil0" d="M235.2 77.48c31.01,-3.5 60.72,0.79 87.73,11.6 11.82,4.72 24.61,11.57 33.52,17.66l21.43 16.97c2.13,1.83 4.42,5.31 7.47,6.38 1.31,3.15 22.31,24.51 27.48,38.71 2.14,1.15 9.29,17.97 10.73,22.02 2.88,8.12 5.91,16.32 7.81,25.03 8.41,38.73 4.63,77.15 -11.04,113.31 -3.84,8.86 -17.97,33.51 -25.31,40.54 -7.84,14 -0.43,40.69 -21.23,56.88 -2.46,1.91 -4.76,2.61 -6.71,4.86 -4.37,0.5 -8.4,3.32 -15.05,3.74 -4.67,0.29 -14.91,-0.3 -18.51,0.75l-20.88 7.91c-6.5,1.98 -6,1.65 -7.97,0.16 0.94,-5.83 8.11,-2.4 16.76,-8.21l-213.52 3.4c-0.3,-3.05 -0.44,-9.53 -0.48,-17.25 0.25,-5.48 0.16,-13.57 0.03,-20.87 0.06,-8.85 0.16,-17.03 0.21,-21.87 0.15,-13.03 3.05,-12.5 2.84,-17.4 -1.42,-2.4 -2.72,-3.96 -4.28,-6.41 -1.28,-2 -2.66,-4.14 -4.05,-6.35 -2.82,-4.49 -4.79,-8.39 -7.21,-13.21 -28.58,-54.56 -23.12,-123.57 7.26,-172.86 10.61,-17.23 15.34,-22.13 27.05,-34.49 5.64,-5.96 5.22,-4.66 10.43,-9.53 21.74,-20.36 62.08,-38.34 95.49,-41.47zm-198.4 396.8l0 0.12c1.92,0 3.69,0.04 5.35,-0.18l1.05 0c2.74,0 6.25,0 10.4,-0.02l0 0.2c6.85,0 8.19,0.21 8.71,-0.24 94.08,-0.5 409.36,-3.53 420.91,1.02 4.93,1.94 4.3,4.35 7.18,7.77l21.6 0.03 0 -366.18 0 -40 0 -76.8 -207.2 0 -303.22 0c2.35,2.61 24.42,14.57 29.64,17.58 9.81,5.67 19.45,11.63 29.34,17.01 -1.22,1.34 -56.83,33.71 -60.56,35.07l0 4.08c3.82,1.54 30.69,16.85 32.87,19.24 -4.39,1.64 -24.95,14.48 -32.87,18.49l0 338.13 0 33.32 21.6 0.04c5.67,-6.12 1.55,-8.32 15.2,-8.68zm-36.8 37.72l512 0 0 -14.94 -21.6 0.06c-3.05,3.17 -2.24,5.64 -7.24,7.59 -4.56,1.77 -38.46,0.95 -44.76,0.94l-395.2 0.01c-21.24,0.04 -14.9,-1.45 -21.6,-8.64l-21.6 -0.02 0 15zm446.4 -443.38l-7.97 -4.18c4.31,-2.2 8.55,-5.18 12.31,-7.25 4.16,-2.28 8.44,-5.44 12.53,-6.95l-0.07 28.09 -16.8 -9.71zm29.22 6.41l-4.16 -2.55 14.97 -8.94 0.12 17.54c-2.85,-0.98 -2.19,-1.51 -4.69,-1.69l-6.24 -4.36zm11.14 -16.56l-36.24 -20.93c1.44,-1.75 56.68,-34.13 60.78,-35.29l0.01 69.87 -2.51 -1.55c-7.46,-2.8 -14.96,-9.36 -22.04,-12.1zm11.18 24.87c3.56,-2.12 9.71,-6.23 13.44,-6.98l0.01 37.57c-7.57,-2.7 -27.16,-16.61 -33.26,-18.48 0.63,-0.62 0.6,-0.62 1.49,-1.32l18.32 -10.79z"/>
   <path class="fil1" d="M0 111.47c7.92,-4.01 28.48,-16.85 32.87,-18.49 -2.18,-2.39 -29.05,-17.7 -32.87,-19.24l0 37.73zm497.94 -28.13l-18.32 10.79c-0.89,0.7 -0.86,0.7 -1.49,1.32 6.1,1.87 25.69,15.78 33.26,18.48l-0.01 -37.57c-3.73,0.75 -9.88,4.86 -13.44,6.98zm-51.54 -14.72l16.8 9.71 0.07 -28.09c-4.09,1.51 -8.37,4.67 -12.53,6.95 -3.76,2.07 -8,5.05 -12.31,7.25l7.97 4.18zm-398.7 7.54c4.38,-1.85 20.91,-11.23 24.77,-14.09l-24.7 -14.12 -0.07 28.21z"/>
   <path class="fil2" d="M24.36 78.78c2.36,-0.81 12.62,-6.41 14.83,-8.35l-10.68 -6.99c-1.88,-1.05 -2.34,-1.49 -4.19,-1.68l0.04 17.02zm326.7 7.53c-0.17,5.13 1.8,3.31 10.11,9.29 12.06,8.67 11.96,8.04 22.78,17.25 2.19,1.86 8.54,10.88 10.72,6.74 2.18,-4.11 -39.24,-35.94 -43.61,-33.28zm72.34 264.77l-8.31 12c-2.64,3.97 -5.46,8.13 -8.33,11.67l-13.99 15.72c-0.95,1.16 -5.77,16.57 20.41,-17.28l11.87 -17.81c0.74,-1.36 1.4,-6.3 -1.65,-4.3zm-336.2 -190.14c3.21,-0.37 1.28,0.41 3.15,-1.8l5.59 -8.79c2.94,-4.2 5.03,-7.92 8.24,-11.76l13.37 -15.44c1.52,-1.38 5.12,-4.26 2.07,-5.87 -2.43,-1.28 -7.96,6.19 -10.01,8.33 -3.68,3.83 -5.92,6.95 -9.05,10.96 -2.82,3.63 -5.28,7.11 -7.98,11.19 -2.07,3.14 -7.9,9.79 -5.38,13.18zm-87.2 -91.28c3.73,-1.36 59.34,-33.73 60.56,-35.07 -9.89,-5.38 -19.53,-11.34 -29.34,-17.01 -5.22,-3.01 -27.29,-14.97 -29.64,-17.58l-1.58 0 0 69.66zm475.62 5.37l6.24 4.36c2.5,0.18 1.84,0.71 4.69,1.69l-0.12 -17.54 -14.97 8.94 4.16 2.55zm-72.49 -35.83c1.73,1.42 24.4,15.05 27.16,15.48l0.01 -30.87c-3.45,0.71 -17.95,10.01 -23.72,13.15l-2.97 1.88c-0.1,0.08 -0.32,0.23 -0.48,0.36zm42.39 -21.78l14.02 8.25 0 -15.65c-3.11,0.86 -11.26,5.88 -14.02,7.4zm-445.52 465.5l0 14.08 21.6 0.02c6.7,7.19 0.36,8.68 21.6,8.64l395.2 -0.01c6.3,0.01 40.2,0.83 44.76,-0.94 5,-1.95 4.19,-4.42 7.24,-7.59l21.6 -0.06 0 -14.08 -21.6 -0.03c-2.88,-3.42 -2.25,-5.83 -7.18,-7.77 -5.54,-2.18 -97.74,-0.99 -105.62,-0.95 -40.52,0.24 -81.08,-0.24 -121.6,0.03l-212.8 -0.04c-21.31,-0.09 -15.19,1.81 -21.6,8.74l-21.6 -0.04zm110.51 -121.12c0.21,4.9 -2.69,4.37 -2.84,17.4 -0.15,13.17 -0.63,51.1 0.24,59.99l213.52 -3.4c-8.65,5.81 -15.82,2.38 -16.76,8.21 1.97,1.49 1.47,1.82 7.97,-0.16l20.88 -7.91c3.6,-1.05 13.84,-0.46 18.51,-0.75 6.65,-0.42 10.68,-3.24 15.05,-3.74 1.95,-2.25 4.25,-2.95 6.71,-4.86 20.8,-16.19 13.39,-42.88 21.23,-56.88l1.72 -14.52c1.44,-9.15 7.28,-38.2 7.11,-42.92 -9.6,-0.26 -28.42,3.17 -38.61,4.36l-211.33 24.57c-5.26,0.54 -14.55,1.07 -19.24,2.29 -6.74,1.75 -10.05,3.75 -14.4,7.2 -2.14,1.69 -3.66,3.08 -5.19,5.21 -3.17,4.39 -1.94,4.52 -4.57,5.91zm376.25 -303.33c7.08,2.74 14.58,9.3 22.04,12.1l2.51 1.55 -0.01 -69.87c-4.1,1.16 -59.34,33.54 -60.78,35.29l36.24 20.93zm-406.01 -5.96c4.79,-3.17 24.59,-12.76 26.96,-15.71 -2.47,-2.09 -23.94,-14.65 -27.04,-15.46l0.08 31.17zm-29.39 -28.91c3.26,-1.32 12.24,-6.45 13.83,-8.4l-13.43 -7.79 -0.4 16.19z"/>
  </g>
 </g>
</svg>
