<?xml version="1.0" encoding="UTF-8"?>
<!DOCTYPE svg PUBLIC "-//W3C//DTD SVG 1.1//EN" "http://www.w3.org/Graphics/SVG/1.1/DTD/svg11.dtd">
<!-- Creator: CorelDRAW 2021 (64-Bit) -->
<svg xmlns="http://www.w3.org/2000/svg" xml:space="preserve" width="512px" height="512px" version="1.1" style="shape-rendering:geometricPrecision; text-rendering:geometricPrecision; image-rendering:optimizeQuality; fill-rule:evenodd; clip-rule:evenodd"
viewBox="0 0 512 512"
 xmlns:xlink="http://www.w3.org/1999/xlink"
 xmlns:xodm="http://www.corel.com/coreldraw/odm/2003">
 <defs>
  <style type="text/css">
   <![CDATA[
    .fil0 {fill:#2A0E21}
    .fil1 {fill:#7C6357}
    .fil2 {fill:#E3CBA3}
   ]]>
  </style>
 </defs>
 <g id="Layer_x0020_1">
  <metadata id="CorelCorpID_0Corel-Layer"/>
  <g id="_2401183005392">
   <path class="fil0" d="M0 348.52l0 11.91c3.53,3.25 1.82,-3.8 2.84,3.53 1.81,-4.88 2.77,-6.91 7.87,-6.55l7.67 1c-0.58,2.68 -4.81,7.68 0.11,7.1 0.07,-4.96 2.25,0.31 1.78,-12.79l2 2.23c0.23,0.23 0.58,0.64 0.81,0.84 4.92,4.07 -2.55,1.48 5.7,-1.25l-3.31 -1.88 3.26 -2.07c-3.09,-6.73 -1.02,-7.56 1.14,-10.2 7.28,2.01 5.48,2.87 4.61,8.94l9.6 0.64c1.73,7.99 -2.9,7.83 5.68,10.96 6.81,2.48 9.4,3.2 11.14,-3.04 -3.5,-1.71 -3.6,-2.6 -7.01,0.51 3.06,2.64 1.53,-2.45 4.24,3.65 -8.89,-0.01 -7.43,-2.6 -7.43,-2.6l-0.9 -2.04c-1.14,-1.49 -3.25,-0.62 -0.56,-2.37 3.25,-2.11 2.4,-1.28 6.23,-1.64 1.55,-2.47 0.04,4.01 -0.29,-0.41 -0.06,-0.82 -0.36,-0.09 0.29,-1.63 8.61,1.89 5.24,-0.82 8.52,5.78l0.76 -2.22c0.1,-0.07 0.85,0.19 0.93,-0.18 0.11,-0.44 0.77,-0.1 1.16,-0.08 -0.73,4.89 -0.38,3.66 -2.57,6.38 14.22,1.71 0.68,-3.52 10.24,-1.51 7.84,1.65 -1.56,1.46 5.14,2.11 4.49,0.43 -2.02,-0.54 5.68,-0.8 4.76,7.26 -1.56,3.67 8.67,4.57 0.81,6.83 -3.15,5.36 5.5,5.8l-2.24 5.87c-0.05,-0.1 -0.16,0.42 -0.23,0.64 0.44,0.28 5.07,3.49 6.46,3.56 1.57,0.07 0.83,3.9 2.05,-3.21 11.43,3.97 0.19,3.25 12.05,1.27 2.59,9.32 -0.88,3.72 7.52,4.89 2.11,9.03 -1.83,3.13 6.5,9.73 -0.89,3.17 1.07,3.04 -2.27,3.63 0.28,0.28 0.68,0.62 0.85,0.81 0.17,0.2 0.61,0.65 0.79,0.87l1.93 2.97c2.26,-3.79 0.5,-3.17 5.05,-4.7 2.72,6.2 -7.36,1.25 8.12,5.47l1.24 12.27c-4.38,-3.92 -3.33,-2.44 -7.87,-0.74 14.07,7.16 12.3,-6.81 19.13,7.3 0.13,-1.28 -1.48,-3.98 5.06,-3.59 7.05,0.41 3.35,-0.15 5.3,4.15 -2.6,5.53 1.08,3.66 -8.43,4.04 1.86,3.23 2.57,2.03 1.41,6.85 -2.76,11.57 -9.31,-4.44 -6.91,17.02 -2.68,-7.56 0.58,-5.3 1.25,-6.32l4.56 -4.15 2.31 8.16c-2.84,2.55 0.41,-0.88 0.41,-0.88 3.12,-2.24 -1.95,-1.23 1.58,-0.54 0.63,5.66 -1.05,7.42 -1.05,7.48 -0.72,4.29 -1.74,-2.94 0,2.25l2.32 3.06c-8.72,-0.76 -7.74,-3.54 -7.4,2.55 0.33,5.77 -0.32,1.29 4.93,3.15 0.16,8.6 -3.42,2.37 0.73,8.87 3.16,4.94 -0.99,-5.41 1.85,2.51 -5.71,10.65 -4.42,0.52 -1.86,10.57l-2.46 1.11c-6.51,4.19 1.28,4.25 -4.93,5.51 -2.04,0.42 1.23,-0.92 -2.42,-0.1l-2.28 8.04c3.35,3.07 0.91,0.26 5.02,1.89 -0.78,4.55 -1.34,3.5 -2.12,6.2 7.59,-1.05 1.06,-0.74 3.83,2.33l352.72 0 0 -357.42c-4.24,-2.22 -2.67,-2.06 -2.84,-5.51 -10.82,2.95 -9.36,-0.55 -7.3,8.56 -11.65,0.19 -2.98,-1.94 -8.35,4.43 -11.33,-2.61 -0.99,-1.03 -9.95,2.43 -4.97,-3.16 -0.66,-2.78 -4.91,-2.46 -3.03,0.23 1.29,1.16 -7.39,1.69l-0.5 -4.66c-3.63,0.09 -3.33,-0.29 -5.36,0.87 -4.97,2.85 -3.63,5.33 -11.71,5.74 -0.11,-0.29 -0.13,-0.8 -0.14,-0.92l-0.1 -1.28c0,-0.03 3.93,-2.9 0.21,-0.13l-6.18 -3.98c0.17,-0.13 0.54,-0.44 0.72,-0.58l2.76 -2.34c1.49,-1 -0.7,-3.06 5.3,-1.5 -11.69,-0.89 -9.98,1.02 -11.97,3.53 -0.64,0.82 0.9,2.96 -4.93,4.15 -3.93,0.79 -3.41,0.25 -6.51,-1.04 -0.23,7.55 -0.76,7.85 -7.54,7.66 -1.52,-3.72 -0.31,-6.73 1.7,-9.94 -9.71,1.16 -1.8,-11.38 -8,-18.01l-1.42 -1.38c-3.38,-2.88 -2.91,-3.21 -7.54,-1.95 0.87,4.45 5.39,5.49 8.08,8.52l-8.83 1.66c-1.35,-2.36 -2.6,-4.64 -3.1,-8.76 -1.77,3.6 -2.71,0.53 -3.24,0 2,-2.92 -0.28,-3.43 3.9,-3.41 -1.63,-2.09 -2.02,-2.25 -3.21,-4.95 -4.64,2.63 0.13,1.37 -6.13,2.78 -2.23,-3.82 1.8,3 -1.1,-2.98 -2.78,-5.73 -1.74,-0.63 -6.06,-3.65 -6.03,-4.2 3.15,-5.65 -6.68,-7.15 0.75,-10.28 5.82,-1.14 -1.29,-9.09l3.5 -3.5c0.11,-0.42 0.6,-0.26 0.88,-0.44 -3.11,-1.83 -4.19,-3.85 -5.69,-7.43 -0.1,0.03 -0.21,0.19 -0.25,0.21 -0.04,0.03 -0.3,0.26 -0.36,0.3l-3.58 1.95c-0.24,-0.38 -0.45,-0.92 -0.62,-1.17l-3.36 -3.28c-3.8,-1.89 -3.89,-4.45 -5.41,-6.06 -9.87,-10.4 1.45,5.65 -4.06,-3.33 1.88,-3.37 4.72,-3.72 5.88,-4.27l-2.43 -0.23c-2.24,-0.93 -4.71,-2.62 -4.73,-5.4 -0.04,-7.45 8.53,3.4 0.69,-8.69 -0.2,3.39 -1.95,2.08 -7.27,2.29 0.3,-0.37 1.6,-1.66 1.79,-1.94 0.12,-0.2 0.48,-0.61 0.57,-0.82 1.05,-2.37 -1.58,-1.87 -3.57,-5.29 -2.37,-4.07 0.57,-6 0.84,-11.11 3.4,3 4.16,2.32 8.97,2.84l-1.58 6.89c-3.6,-0.93 -1.15,-0.54 -2.77,-2.77l-0.56 -0.84c-1.12,5.67 -1.58,2.94 1.97,7.18 4.96,-4.91 1.65,-12.28 -1.99,-15.19 -4.06,-3.25 -2.25,2.16 -7.74,-2.66 -2.74,-2.41 -2.82,-7.08 -3.06,-7.6 -8.05,2.01 -8.83,0.99 -8.53,-5.85 7.34,-4.16 5.04,-1.58 5.63,-1.61l3.52 1.22 2.23 -8.72c0.72,-0.02 7.07,0.09 7.18,0.07 5.67,-0.9 10.11,-9.2 7.32,-14.88l-3.93 2c-0.19,3.99 1.88,5.57 3.63,8.53 -2.32,-0.35 -3.65,-0.21 -4.46,0.01 -0.89,0.24 -2.26,1.92 -2.53,1.58 -0.31,-0.4 -0.75,0.81 -1.17,1.17 0.55,-10.22 -4.39,-13.12 5.68,-16.59l-2.43 -2.33c2.98,-0.93 3.22,0.01 4.17,0.13 3.53,0.45 4.51,-2.09 7.86,-3.87 -2.06,5.56 -4.27,7.01 -2.17,11.54 1.05,-3.42 4.68,-7.17 6.32,-12.97l-59.01 0c2.17,20.79 9.65,46.29 17.62,64.21 9.98,22.44 19.17,35.68 31.48,51.07 2.15,2.69 3.2,3.17 5.44,5.9l14.14 15.73c16.04,19.38 67.68,63.74 73.49,71.61 10.17,13.78 15.18,19.55 22.24,38.85 16.52,45.22 13.86,92.41 -6.82,135.53 -4.42,9.21 -10.27,17.94 -15.61,25.63 -3.23,4.67 -6.32,7.71 -9.47,11.84 -4.39,5.76 -4.1,4.99 -9.5,10.45 -13.35,13.49 -30.49,25.86 -47.83,34.65 -16.31,8.27 -43.8,16.02 -64.62,17.73 -46.77,3.84 -99.46,-11 -132.79,-42.98l-34.78 -36.34c-2.01,-2.42 -2.75,-4.25 -4.83,-6.56l-9.28 -10.64c-2.08,-2.3 -3.04,-2.65 -5.19,-4.72 -20.13,-19.33 -37.02,-40.46 -76.23,-47.61 -31.62,-5.77 -44.04,3.22 -65.22,14.17z"/>
   <path class="fil0" d="M0 334.89l0 8.4c22.11,-10.86 36.21,-18.59 66.51,-12.98 29.85,5.52 47.69,20.17 66.92,36.9 7.47,6.5 10.41,11.55 15.3,15.99l14.03 15.78c9.74,11.15 7.47,10.05 19.49,21.76 3.73,3.63 5.63,6.57 9.68,10.28 3.79,3.49 6.01,6.68 10.1,9.78 56.56,42.79 124.42,52.01 189.34,20.29 10.35,-5.06 17.32,-9.37 25.83,-15.42 24.28,-17.23 41.51,-40.41 55.26,-67.13 28.92,-56.18 19.4,-139.07 -29.38,-181.63l-63.11 -60.6c-20.27,-25.34 -31.56,-31.44 -49.51,-72.77 -6.92,-15.95 -15.25,-44.59 -16.9,-63.54l-7.1 0c6.42,60 38.79,121.81 78.59,159.69 3.62,3.44 7.05,5.96 10.46,9.49 12.35,12.81 20.47,18.69 31.81,29.3 50.09,46.87 68.48,107.88 36.39,172.84 -7.59,15.36 -22.67,36.05 -34.05,46.96 -4,3.83 -6.86,5.5 -10.96,8.98 -3.9,3.32 -6.52,5.88 -10.87,8.98 -7.73,5.51 -15.2,10.21 -24.56,15.23 -48.89,26.26 -111.43,26.95 -157.56,-4.49 -16.05,-10.94 -16.83,-15.1 -26.99,-24.21 -2.17,-1.94 -3.24,-2.32 -5.27,-4.59 -1.99,-2.22 -2.39,-3.51 -4.24,-5.82l-22.74 -26.98c-16.05,-17.19 -18.57,-23.5 -41.11,-39.99 -33.47,-24.49 -84.33,-28.57 -125.36,-10.5z"/>
   <path class="fil1" d="M512 98.06l0 -98.06 -103.81 0 -6.05 0 -4.88 0 -5.29 0 -15.2 0c-1.64,5.8 -5.27,9.55 -6.32,12.97 -2.1,-4.53 0.11,-5.98 2.17,-11.54 -3.35,1.78 -4.33,4.32 -7.86,3.87 -0.95,-0.12 -1.19,-1.06 -4.17,-0.13l2.43 2.33c-10.07,3.47 -5.13,6.37 -5.68,16.59 0.42,-0.36 0.86,-1.57 1.17,-1.17 0.27,0.34 1.64,-1.34 2.53,-1.58 0.81,-0.22 2.14,-0.36 4.46,-0.01 -1.75,-2.96 -3.82,-4.54 -3.63,-8.53l3.93 -2c2.79,5.68 -1.65,13.98 -7.32,14.88 -0.11,0.02 -6.46,-0.09 -7.18,-0.07l-2.23 8.72 -3.52 -1.22c-0.59,0.03 1.71,-2.55 -5.63,1.61 -0.3,6.84 0.48,7.86 8.53,5.85 0.24,0.52 0.32,5.19 3.06,7.6 5.49,4.82 3.68,-0.59 7.74,2.66 3.64,2.91 6.95,10.28 1.99,15.19 -3.55,-4.24 -3.09,-1.51 -1.97,-7.18l0.56 0.84c1.62,2.23 -0.83,1.84 2.77,2.77l1.58 -6.89c-4.81,-0.52 -5.57,0.16 -8.97,-2.84 -0.27,5.11 -3.21,7.04 -0.84,11.11 1.99,3.42 4.62,2.92 3.57,5.29 -0.09,0.21 -0.45,0.62 -0.57,0.82 -0.19,0.28 -1.49,1.57 -1.79,1.94 5.32,-0.21 7.07,1.1 7.27,-2.29 7.84,12.09 -0.73,1.24 -0.69,8.69 0.02,2.78 2.49,4.47 4.73,5.4l2.43 0.23c-1.16,0.55 -4,0.9 -5.88,4.27 5.51,8.98 -5.81,-7.07 4.06,3.33 1.52,1.61 1.61,4.17 5.41,6.06l3.36 3.28c0.17,0.25 0.38,0.79 0.62,1.17l3.58 -1.95c0.06,-0.04 0.32,-0.27 0.36,-0.3 0.04,-0.02 0.15,-0.18 0.25,-0.21 1.5,3.58 2.58,5.6 5.69,7.43 -0.28,0.18 -0.77,0.02 -0.88,0.44l-3.5 3.5c7.11,7.95 2.04,-1.19 1.29,9.09 9.83,1.5 0.65,2.95 6.68,7.15 4.32,3.02 3.28,-2.08 6.06,3.65 2.9,5.98 -1.13,-0.84 1.1,2.98 6.26,-1.41 1.49,-0.15 6.13,-2.78 1.19,2.7 1.58,2.86 3.21,4.95 -4.18,-0.02 -1.9,0.49 -3.9,3.41 0.53,0.53 1.47,3.6 3.24,0 0.5,4.12 1.75,6.4 3.1,8.76l8.83 -1.66c-2.69,-3.03 -7.21,-4.07 -8.08,-8.52 4.63,-1.26 4.16,-0.93 7.54,1.95l1.42 1.38c6.2,6.63 -1.71,19.17 8,18.01 -2.01,3.21 -3.22,6.22 -1.7,9.94 6.78,0.19 7.31,-0.11 7.54,-7.66 3.1,1.29 2.58,1.83 6.51,1.04 5.83,-1.19 4.29,-3.33 4.93,-4.15 1.99,-2.51 0.28,-4.42 11.97,-3.53 -6,-1.56 -3.81,0.5 -5.3,1.5l-2.76 2.34c-0.18,0.14 -0.55,0.45 -0.72,0.58l6.18 3.98c3.72,-2.77 -0.21,0.1 -0.21,0.13l0.1 1.28c0.01,0.12 0.03,0.63 0.14,0.92 8.08,-0.41 6.74,-2.89 11.71,-5.74 2.03,-1.16 1.73,-0.78 5.36,-0.87l0.5 4.66c8.68,-0.53 4.36,-1.46 7.39,-1.69 4.25,-0.32 -0.06,-0.7 4.91,2.46 8.96,-3.46 -1.38,-5.04 9.95,-2.43 5.37,-6.37 -3.3,-4.24 8.35,-4.43 -2.06,-9.11 -3.52,-5.61 7.3,-8.56 0.17,3.45 -1.4,3.29 2.84,5.51l0 -12.72 0 -43.8z"/>
   <path class="fil1" d="M0 422.68l0 89.32 92.21 0 41.49 0 25.58 0c-2.77,-3.07 3.76,-3.38 -3.83,-2.33 0.78,-2.7 1.34,-1.65 2.12,-6.2 -4.11,-1.63 -1.67,1.18 -5.02,-1.89l2.28 -8.04c3.65,-0.82 0.38,0.52 2.42,0.1 6.21,-1.26 -1.58,-1.32 4.93,-5.51l2.46 -1.11c-2.56,-10.05 -3.85,0.08 1.86,-10.57 -2.84,-7.92 1.31,2.43 -1.85,-2.51 -4.15,-6.5 -0.57,-0.27 -0.73,-8.87 -5.25,-1.86 -4.6,2.62 -4.93,-3.15 -0.34,-6.09 -1.32,-3.31 7.4,-2.55l-2.32 -3.06c-1.74,-5.19 -0.72,2.04 0,-2.25 0,-0.06 1.68,-1.82 1.05,-7.48 -3.53,-0.69 1.54,-1.7 -1.58,0.54 0,0 -3.25,3.43 -0.41,0.88l-2.31 -8.16 -4.56 4.15c-0.67,1.02 -3.93,-1.24 -1.25,6.32 -2.4,-21.46 4.15,-5.45 6.91,-17.02 1.16,-4.82 0.45,-3.62 -1.41,-6.85 9.51,-0.38 5.83,1.49 8.43,-4.04 -1.95,-4.3 1.75,-3.74 -5.3,-4.15 -6.54,-0.39 -4.93,2.31 -5.06,3.59 -6.83,-14.11 -5.06,-0.14 -19.13,-7.3 4.54,-1.7 3.49,-3.18 7.87,0.74l-1.24 -12.27c-15.48,-4.22 -5.4,0.73 -8.12,-5.47 -4.55,1.53 -2.79,0.91 -5.05,4.7l-1.93 -2.97c-0.18,-0.22 -0.62,-0.67 -0.79,-0.87 -0.17,-0.19 -0.57,-0.53 -0.85,-0.81 3.34,-0.59 1.38,-0.46 2.27,-3.63 -8.33,-6.6 -4.39,-0.7 -6.5,-9.73 -8.4,-1.17 -4.93,4.43 -7.52,-4.89 -11.86,1.98 -0.62,2.7 -12.05,-1.27 -1.22,7.11 -0.48,3.28 -2.05,3.21 -1.39,-0.07 -6.02,-3.28 -6.46,-3.56 0.07,-0.22 0.18,-0.74 0.23,-0.64l2.24 -5.87c-8.65,-0.44 -4.69,1.03 -5.5,-5.8 -10.23,-0.9 -3.91,2.69 -8.67,-4.57 -7.7,0.26 -1.19,1.23 -5.68,0.8 -6.7,-0.65 2.7,-0.46 -5.14,-2.11 -9.56,-2.01 3.98,3.22 -10.24,1.51 2.19,-2.72 1.84,-1.49 2.57,-6.38 -0.39,-0.02 -1.05,-0.36 -1.16,0.08 -0.08,0.37 -0.83,0.11 -0.93,0.18l-0.76 2.22c-3.28,-6.6 0.09,-3.89 -8.52,-5.78 -0.65,1.54 -0.35,0.81 -0.29,1.63 0.33,4.42 1.84,-2.06 0.29,0.41 -3.83,0.36 -2.98,-0.47 -6.23,1.64 -2.69,1.75 -0.58,0.88 0.56,2.37l0.9 2.04c0,0 -1.46,2.59 7.43,2.6 -2.71,-6.1 -1.18,-1.01 -4.24,-3.65 3.41,-3.11 3.51,-2.22 7.01,-0.51 -1.74,6.24 -4.33,5.52 -11.14,3.04 -8.58,-3.13 -3.95,-2.97 -5.68,-10.96l-9.6 -0.64c0.87,-6.07 2.67,-6.93 -4.61,-8.94 -2.16,2.64 -4.23,3.47 -1.14,10.2l-3.26 2.07 3.31 1.88c-8.25,2.73 -0.78,5.32 -5.7,1.25 -0.23,-0.2 -0.58,-0.61 -0.81,-0.84l-2 -2.23c0.47,13.1 -1.71,7.83 -1.78,12.79 -4.92,0.58 -0.69,-4.42 -0.11,-7.1l-7.67 -1c-5.1,-0.36 -6.06,1.67 -7.87,6.55 -1.02,-7.33 0.69,-0.28 -2.84,-3.53l0 32.04 0 2.58 0 11.76 0 15.87z"/>
   <path class="fil2" d="M0 343.29l0 5.23c21.18,-10.95 33.6,-19.94 65.22,-14.17 39.21,7.15 56.1,28.28 76.23,47.61 2.15,2.07 3.11,2.42 5.19,4.72l9.28 10.64c2.08,2.31 2.82,4.14 4.83,6.56l34.78 36.34c33.33,31.98 86.02,46.82 132.79,42.98 20.82,-1.71 48.31,-9.46 64.62,-17.73 17.34,-8.79 34.48,-21.16 47.83,-34.65 5.4,-5.46 5.11,-4.69 9.5,-10.45 3.15,-4.13 6.24,-7.17 9.47,-11.84 5.34,-7.69 11.19,-16.42 15.61,-25.63 20.68,-43.12 23.34,-90.31 6.82,-135.53 -7.06,-19.3 -12.07,-25.07 -22.24,-38.85 -5.81,-7.87 -57.45,-52.23 -73.49,-71.61l-14.14 -15.73c-2.24,-2.73 -3.29,-3.21 -5.44,-5.9 -12.31,-15.39 -21.5,-28.63 -31.48,-51.07 -7.97,-17.92 -15.45,-43.42 -17.62,-64.21l-4.2 0c1.65,18.95 9.98,47.59 16.9,63.54 17.95,41.33 29.24,47.43 49.51,72.77l63.11 60.6c48.78,42.56 58.3,125.45 29.38,181.63 -13.75,26.72 -30.98,49.9 -55.26,67.13 -8.51,6.05 -15.48,10.36 -25.83,15.42 -64.92,31.72 -132.78,22.5 -189.34,-20.29 -4.09,-3.1 -6.31,-6.29 -10.1,-9.78 -4.05,-3.71 -5.95,-6.65 -9.68,-10.28 -12.02,-11.71 -9.75,-10.61 -19.49,-21.76l-14.03 -15.78c-4.89,-4.44 -7.83,-9.49 -15.3,-15.99 -19.23,-16.73 -37.07,-31.38 -66.92,-36.9 -30.3,-5.61 -44.4,2.12 -66.51,12.98z"/>
  </g>
 </g>
</svg>
