<?xml version="1.0" encoding="UTF-8"?>
<!DOCTYPE svg PUBLIC "-//W3C//DTD SVG 1.1//EN" "http://www.w3.org/Graphics/SVG/1.1/DTD/svg11.dtd">
<!-- Creator: CorelDRAW 2021 (64-Bit) -->
<svg xmlns="http://www.w3.org/2000/svg" xml:space="preserve" width="512px" height="512px" version="1.1" style="shape-rendering:geometricPrecision; text-rendering:geometricPrecision; image-rendering:optimizeQuality; fill-rule:evenodd; clip-rule:evenodd"
viewBox="0 0 512 512"
 xmlns:xlink="http://www.w3.org/1999/xlink"
 xmlns:xodm="http://www.corel.com/coreldraw/odm/2003">
 <defs>
  <style type="text/css">
   <![CDATA[
    .fil2 {fill:#013D59}
    .fil1 {fill:#FC5413}
    .fil0 {fill:#FCC605}
   ]]>
  </style>
 </defs>
 <g id="Layer_x0020_1">
  <metadata id="CorelCorpID_0Corel-Layer"/>
  <g id="_2401172198016">
   <path class="fil0" d="M221.08 335.02c-0.79,3.95 -1.38,3.51 -4.06,6.17l-77.42 77.14c-14.54,13.76 -27.22,27.56 -41.51,41.78 -7.05,7.02 -13.52,13 -20.55,20.36 -26.72,27.97 -16.36,25.26 -49.84,-6.77 -7.26,-6.94 -21.46,-23.55 -27.7,-25.82l0 64.12 512 0 0 -415.69c-5.13,2.4 -3.91,2.65 -9.24,8.05l-115.56 116.21c-3.87,4.26 -4.84,3.61 -7.93,7.18l-16.37 16.99c-5.68,4.66 -0.91,3.07 -8,8.7 -6.22,4.94 -3.29,4.92 -8.02,8.72 -15.06,12.11 -26.87,26.78 -41.56,40.09 -13.35,12.08 -50.06,51.88 -58.41,56.67 -4.48,-1.96 -21.85,-19.52 -25.83,-23.9z"/>
   <path class="fil0" d="M0 114.6l41.89 -41.35c10.18,6.89 16.99,18.99 26.21,24.05 8.89,-1.99 67.52,-69.34 80.35,-77.43 6.25,1.78 69.1,66.55 79.09,76.74l59.25 58.95c3.97,3.64 5.43,5.98 9.62,10.01 6.29,6.05 7.37,5.57 8.41,11.76l43.68 -43.86c14.33,-14.28 129,-127.86 131.81,-133.47l-480.31 0 0 114.6z"/>
   <path class="fil1" d="M304.82 177.33c-4.46,3.83 -0.45,0.97 -3.71,1.98 -1.34,1.91 -0.78,1.12 -2.22,2.8 -0.44,0.51 -1.7,1.92 -2.21,2.43 -3.26,3.23 -1.87,2.18 -5.83,4.7 -0.49,3.07 -32.22,34.38 -34.82,34.96 -3.06,4.88 -6.13,8.88 -12.14,12.31 -0.39,2.64 -0.78,2.38 -2.84,3.6 -1.96,2.72 0.23,-0.04 -2.37,2.96l-24.51 24.27c-2.46,3.48 -7.03,6.73 -10.59,10.44 -3.57,3.73 -5.77,8.08 -9.56,8.52 -2.94,5.91 -0.65,2.1 -4.62,6.29 -1.35,1.43 -3.2,3.16 -4.24,4.26 2.92,7.05 29.48,29.87 35.92,38.17 3.98,4.38 21.35,21.94 25.83,23.9 8.35,-4.79 45.06,-44.59 58.41,-56.67 14.69,-13.31 26.5,-27.98 41.56,-40.09 4.73,-3.8 1.8,-3.78 8.02,-8.72 7.09,-5.63 2.32,-4.04 8,-8.7l16.37 -16.99c3.09,-3.57 4.06,-2.92 7.93,-7.18l115.56 -116.21c5.33,-5.4 4.11,-5.65 9.24,-8.05l0 -96.31 -31.69 0c-2.81,5.61 -117.48,119.19 -131.81,133.47l-43.68 43.86z"/>
   <path class="fil2" d="M0 114.6l0 125.02c5.2,-2.62 27.09,-25.47 32.59,-31.31 7.19,-7.63 25.74,-27.75 33.46,-32.28 1.8,-3.88 14.64,-15.91 17.99,-19.28 3.43,-3.46 5.84,-5.43 9.24,-8.95 3.17,-3.28 6.15,-7.4 10.02,-9.06 2.05,-6.06 1.82,-3.75 -2.52,-7.64 -3.59,-3.22 -2.53,-2.15 -5.92,-6.31 -4.41,-5.39 -8.9,-8.11 -12.43,-13.83 -4.6,-2.47 -9.67,-7.58 -14.33,-13.66 -9.22,-5.06 -16.03,-17.16 -26.21,-24.05l-41.89 41.35z"/>
  </g>
 </g>
</svg>
