<?xml version="1.0" encoding="UTF-8"?>
<!DOCTYPE svg PUBLIC "-//W3C//DTD SVG 1.1//EN" "http://www.w3.org/Graphics/SVG/1.1/DTD/svg11.dtd">
<!-- Creator: CorelDRAW 2021 (64-Bit) -->
<svg xmlns="http://www.w3.org/2000/svg" xml:space="preserve" width="512px" height="512px" version="1.1" style="shape-rendering:geometricPrecision; text-rendering:geometricPrecision; image-rendering:optimizeQuality; fill-rule:evenodd; clip-rule:evenodd"
viewBox="0 0 512 512"
 xmlns:xlink="http://www.w3.org/1999/xlink"
 xmlns:xodm="http://www.corel.com/coreldraw/odm/2003">
 <defs>
  <style type="text/css">
   <![CDATA[
    .fil3 {fill:#393C43}
    .fil1 {fill:#DAA462}
    .fil0 {fill:#EBEBEB}
    .fil2 {fill:#FBFBFC}
   ]]>
  </style>
 </defs>
 <g id="Layer_x0020_1">
  <metadata id="CorelCorpID_0Corel-Layer"/>
  <g id="_2436915464576">
   <path class="fil0" d="M0 512l512 0 0 -512 -512 0 0 512zm116.29 -60.18l279.12 0.09 0.31 -391.56 -279.41 -0.19 -0.02 391.66z"/>
   <path class="fil1" d="M255.89 359.29c0.89,-4.27 4.62,-5.12 7.56,-9.47l7.25 -17c0.9,-1.17 1.24,-1.26 1.99,-2.12 0.98,-1.12 0.8,-1.44 1.76,-2.33 -8.51,-1.36 -9.14,4.6 -35.2,0.03 -23.89,-4.18 -45.57,-25.01 -53.68,-48.6 -1.32,-3.84 -2.98,-14.35 -4,-16.29 -11.43,3.83 -2.84,5.86 -7.1,-7.01 -0.05,-0.15 -0.14,-0.41 -0.26,-0.6l-1.14 3.38c-0.04,0.57 0.2,3.23 0.27,3.97 0.29,3.23 0.83,3.9 -0.8,5.87 -3.88,4.68 -13.89,9.73 -20.33,28.69 -9.81,28.92 5.18,48.57 6.02,53.07 -11.41,4.65 -11.6,17.71 -5.84,24.27 5.41,6.16 21.38,5.93 24.9,-5.69 4.11,1.27 7.93,5.18 18.89,7.76 26.25,6.18 43.31,-3.81 59.71,-17.93z"/>
   <path class="fil1" d="M156.88 165.21l5 5.7c6.16,-3.16 16.84,-18.31 24.6,-23.16l12.86 12.03c3.32,3.36 1.87,1.92 0.68,6.88l3.27 -1.69c1.8,-0.36 -0.41,-1.76 2.45,1.31 2.34,2.51 2.19,3.29 5.38,4.7l23.34 -23.5 23.84 23.44 6.06 -5.5c-6.28,-14.47 0.16,2.54 -14.97,-14.03 -2.97,-3.24 -4.91,-5.08 -7.33,-7.41 -3.46,-3.35 -4.03,-4.98 -8.89,-6.32 -3.33,3.45 -20.32,21.09 -23.03,22.5 -3.82,-3.9 -19.58,-20.53 -22.84,-22.4 -7.6,3.04 -20.57,19.96 -23.82,21.56 -1.79,0.88 -4.3,-2.33 -6.6,5.89z"/>
   <path class="fil1" d="M210.06 187.19l-23.58 -23.17c-2.81,1.65 -6,5.58 -8.11,7.8 -4.3,4.53 -2.93,5.45 -10.2,4.4 1.31,2.46 2.19,2.59 2.38,3.08 -1.72,2.57 -5.01,5.65 -7.79,7.61 -3.59,-1.61 -8.21,-7.25 -11.06,-9.89 -2.5,8.06 -3.24,7.67 1.6,12.36 2.08,2.02 6.15,6.87 9.46,8.59 3.92,-3.38 6.98,-6.87 10.78,-10.52 2.01,-1.93 3.29,-3.35 5.23,-5.4 3.73,-3.95 1.86,-2.42 7.51,-3.94 -0.12,-1.72 -0.31,-1.34 -0.45,-1.73l-0.31 -0.63c2.5,-1.31 3.85,1.47 6.19,3.86 2.16,2.2 3.95,3.99 6.11,6.15 2.61,2.63 9.46,10.24 12.38,11.54 4.93,-3.16 20.01,-17.88 23.45,-22.5 4.21,1.61 6.06,5.13 9.26,7.8l8.97 -0.9c-1.52,-3.26 -13.37,-14.32 -17.1,-17.95 -5.31,3.4 -20.34,21.25 -24.72,23.44z"/>
   <path class="fil2" d="M263.45 349.82c-2.94,4.35 -6.67,5.2 -7.56,9.47l4.76 4.16c3.65,-2.84 7.82,-7.51 11.05,-10.75 10.15,-10.15 73.31,-72.39 75.77,-76.31 -1.55,-1.66 -3.14,-3.24 -4.72,-4.86 -4.63,2.03 -21.87,20.9 -24.37,24.76 -7.93,12.21 -13.84,16.36 -25.13,23.96l-29.8 29.57z"/>
   <path class="fil2" d="M267.28 367.94c2.02,2.37 3.25,2.62 5.9,4.09 3.21,-1.56 34.47,-33.77 41.54,-40.95l30.68 -30.66c2.86,-3.05 7.08,-6.13 10.71,-10.89l-3.57 -6.38 -85.26 84.79z"/>
   <path class="fil2" d="M281.86 375.88c9.33,2.44 6.39,4.61 22.27,-12.04l38.44 -38.45c5.4,-5.48 15,-13.82 19.1,-19.5 0.18,-0.64 -0.5,-5.99 -2.79,-8.31 -6.3,7.32 -29.64,29.79 -38.31,38.52 -3.04,3.06 -36.82,35.55 -38.71,39.78z"/>
   <path class="fil2" d="M300.31 378.64c4.92,0.61 9.93,0.54 12.94,-2.39l47.03 -47.05c2.72,-2.87 3.23,-7.91 2.41,-13.08 -9.69,10.29 -56.82,55.77 -62.38,62.52z"/>
   <path class="fil1" d="M161.85 214.3l-12.02 -12.09c0.28,12.16 3.38,14.24 10.06,20.66l2.87 2.19 23.52 -23.19c3.95,2.8 6.21,6.36 10.01,9.09 1.63,-1.22 2.77,-2.96 4.83,-4.65 -0.96,-2.7 -12.39,-13.92 -14.64,-15.13 -5.5,3.05 -19.56,20.99 -24.63,23.12z"/>
   <path class="fil3" d="M175.3 368.05c-3.92,-4.2 -9.2,-6.57 -15.05,-15.3 -10.5,2.81 -11.64,13.5 -6.18,19.91 6.63,7.77 18.36,4.19 21.23,-4.61z"/>
   <path class="fil3" d="M241.85 245.04c-8.17,3.62 -6.12,26 4.61,21.94 8.26,-3.13 6.01,-26.65 -4.61,-21.94z"/>
   <path class="fil1" d="M167.07 237.17c0.97,2.45 2.68,4.02 5.5,5.14 5.46,-3.86 16.32,-14.32 17.24,-21.6l-3.19 -2.59 -19.55 19.05z"/>
   <path class="fil3" d="M296.97 266.65c6.77,3.92 12.1,-0.99 8.72,-5.48 -2.37,-3.16 -11.28,-3.13 -8.72,5.48z"/>
   <path class="fil3" d="M300.34 243.54c-7.26,1.83 -3.49,9.91 2.78,8.12 5.22,-1.49 4.05,-9.85 -2.78,-8.12z"/>
  </g>
 </g>
</svg>
