<?xml version="1.0" encoding="UTF-8"?>
<!DOCTYPE svg PUBLIC "-//W3C//DTD SVG 1.1//EN" "http://www.w3.org/Graphics/SVG/1.1/DTD/svg11.dtd">
<!-- Creator: CorelDRAW 2021 (64-Bit) -->
<svg xmlns="http://www.w3.org/2000/svg" xml:space="preserve" width="512px" height="512px" version="1.1" style="shape-rendering:geometricPrecision; text-rendering:geometricPrecision; image-rendering:optimizeQuality; fill-rule:evenodd; clip-rule:evenodd"
viewBox="0 0 512 512"
 xmlns:xlink="http://www.w3.org/1999/xlink"
 xmlns:xodm="http://www.corel.com/coreldraw/odm/2003">
 <defs>
  <style type="text/css">
   <![CDATA[
    .fil0 {fill:#C82356}
    .fil2 {fill:#E65340}
    .fil1 {fill:#FFA20E}
   ]]>
  </style>
 </defs>
 <g id="Layer_x0020_1">
  <metadata id="CorelCorpID_0Corel-Layer"/>
  <g id="_2436747810224">
   <g>
    <path class="fil0" d="M449.12 124.24c-0.15,-1.36 -0.52,-1.72 -0.41,-2.9l0.63 -2.74c1.7,-4.18 1.18,-1.29 1.86,-3.79 0.84,-0.86 0.39,-0.56 1.75,-0.85 0.5,0.64 -0.47,-0.38 2,-1.1 2.23,-0.66 3.96,-0.73 5.72,-0.16 0.54,0.17 0.54,0.09 1.09,0.29 1.85,0.66 0.63,1.32 2.91,1.72 0.02,1.87 -0.64,-0.27 1.75,2.18 1.72,1.77 0.76,0.15 0.99,4.05 0.09,1.49 0,0.29 -0.18,1.17 -0.24,1.14 -0.07,0.42 -0.19,1.46l-0.57 1.92c-0.04,0.08 -0.08,0.16 -0.11,0.24 -0.03,0.08 -0.07,0.17 -0.1,0.24 -0.73,1.92 -1.94,2.95 -3.38,4.1 -0.32,0.24 -0.16,0.09 -0.59,0.46 -1.32,1.16 0.33,0.45 -1.15,0.93 -2.62,-0.62 -4.2,1.4 -8.47,-2.15 -2.85,-2.38 -2.41,-2.76 -3.5,-4.97l-0.05 -0.1zm-324.88 -61.36c-1.36,0.15 -1.72,0.52 -2.9,0.41l-2.74 -0.63c-4.18,-1.7 -1.29,-1.18 -3.79,-1.86 -0.86,-0.84 -0.56,-0.39 -0.85,-1.75 0.64,-0.5 -0.38,0.47 -1.1,-2 -0.66,-2.23 -0.73,-3.96 -0.16,-5.72 0.17,-0.54 0.09,-0.54 0.29,-1.09 0.66,-1.85 1.32,-0.63 1.72,-2.91 1.87,-0.02 -0.27,0.64 2.18,-1.75 1.77,-1.72 0.15,-0.76 4.05,-0.99 1.49,-0.09 0.29,0 1.17,0.18 1.14,0.24 0.42,0.07 1.46,0.19l1.92 0.57c0.08,0.04 0.16,0.08 0.24,0.11 0.08,0.03 0.17,0.07 0.24,0.1 1.92,0.73 2.95,1.94 4.1,3.38 0.24,0.32 0.09,0.16 0.46,0.59 1.16,1.32 0.45,-0.33 0.93,1.15 -0.62,2.62 1.4,4.2 -2.15,8.47 -2.38,2.85 -2.76,2.41 -4.97,3.5l-0.1 0.05zm0.06 -0.03l-0.06 0.03 0.06 -0.03zm324.85 61.45l-0.03 -0.06 0.03 0.06zm-449.15 213.36c10.85,-2.38 19.45,-9.8 25.63,-18.14 0.89,-1.19 1.61,-2.79 2.7,-3.91 -0.61,-2.17 -6.34,-27.51 -5.8,-29.57l3.07 -4.1c0,4.86 -0.38,3.38 1.25,6.6 0.54,1.06 0.67,1.81 1.23,2.86 0.94,1.74 1.09,0.96 1.96,2.15l1.36 0c-0.16,0.98 1.87,0.24 2.84,-0.24 1.1,-0.55 1.26,-1.06 2.74,-1.31 2.27,-0.39 2.93,0.7 5.21,-2.69 1.2,-1.8 3.21,-2.48 2.26,-5.38 -0.64,-1.98 -2.46,-3.52 -3.49,-5.06 3.23,0.75 5.26,1.1 7.71,-1.17 1,-0.93 1.52,-1.8 1.55,-3.61 0.03,-2.61 -0.59,-2.41 -1.3,-4.23 -1.09,-2.8 2.36,-4.83 0.19,-8.01 -2.13,-3.11 -6.65,-0.83 -7.81,-0.73 0.9,-1.35 3.5,-2.75 3.28,-4.69 -0.26,-2.3 -3.25,-2.2 -5.2,-2.95 -3.11,-1.18 -1.76,-4.11 -10.41,-4 -2.21,0.03 -1.59,0.15 -1.67,0.38 -1.28,0.56 -0.75,0 -1.51,1.57 -0.38,0.79 -0.62,1.52 -0.82,2.24 -0.52,1.86 -0.39,3.14 -0.39,5.4l-1.56 -2.19c-0.89,-1.33 -0.89,-1.21 -2.2,-1.9 0,-3.16 -0.28,-7.92 0.05,-10.88 0.35,-3.1 0.31,-6.85 0.78,-10.14l2.63 -19.21c3.47,-20.91 11.72,-45.42 22.51,-66.74 0.47,-0.74 0.77,-1.5 1.27,-2.33l1.77 -3 0.35 -0.69 0.34 -0.34c0.09,-0.41 0.27,-0.97 0.52,-1.63 3.73,-6.67 7.69,-12.9 11.82,-18.45l14.23 -18.54 13.1 -14.2 2.36 -2.14c0.74,-0.54 1.36,-1.14 1.97,-1.78l4.98 -4.5c0.1,-0.04 0.26,-0.1 0.51,-0.2 1.44,2.73 4.23,1.42 6.4,1.78 2.7,0.45 3.65,1.86 7.6,1.65 5.01,-0.27 8.41,-4.73 8.53,-9.91 0.58,0.92 0.79,2.77 1.02,3.75 0.31,1.29 0.54,2.5 0.88,3.9 0.8,3.22 1.67,4.69 4.58,5.66 3.38,0 2.81,-0.14 4.98,-1.51 1.79,-1.13 3.44,-0.88 4.86,-2.31 1.8,-1.81 0.48,-3 5.96,-8.38 5.08,-4.99 -0.24,-12.19 -5.01,-15.32 -0.47,-0.3 -0.58,-0.37 -1.04,-0.66 -0.35,-0.23 -0.31,-0.19 -0.62,-0.4 -0.72,-0.49 -0.2,-0.09 -0.59,-0.43 2.93,0 4.69,0.41 7.02,-0.14l5.66 -2.54c3.97,-1.55 6.97,-5.18 4.38,-10.29 -0.43,-0.82 -0.38,-0.29 -0.63,-1.2l1.02 -0.49c0.95,-0.35 1.91,-0.83 2.78,-1.27l1.09 -0.46 -0.02 -0.06 15.09 -6.21c21.32,-7.39 35.23,-10.98 57.53,-13.46l9.85 -0.74c1.77,-0.01 1.88,-0.27 3.4,-0.35 29.39,-1.59 65.05,3.73 92.31,14.19 1.91,0.73 3.46,1.19 5.32,2 1.17,-0.54 2.09,-3.84 2.61,-5.05 0.81,-1.87 1.56,-3.51 2.57,-5.29 2.84,-5.05 5.81,-9.77 9.36,-14.17l7.33 -8.37c1.26,-1.33 2.87,-2.71 3.79,-4.13l-219.54 0 -48.3 0 -100.18 0 0 35.52 0 25.2 0 12.07 0 5.08 0 259.79zm337.66 174.34c-2.38,-10.85 -9.8,-19.45 -18.14,-25.63 -1.19,-0.89 -2.79,-1.61 -3.91,-2.7 -2.17,0.61 -27.51,6.34 -29.57,5.8l-4.1 -3.07c4.86,0 3.38,0.38 6.6,-1.25 1.06,-0.54 1.81,-0.67 2.86,-1.23 1.74,-0.94 0.96,-1.09 2.15,-1.96l0 -1.36c0.98,0.16 0.24,-1.87 -0.24,-2.84 -0.55,-1.1 -1.06,-1.26 -1.31,-2.74 -0.39,-2.27 0.7,-2.93 -2.69,-5.21 -1.8,-1.2 -2.48,-3.21 -5.38,-2.26 -1.98,0.64 -3.52,2.46 -5.06,3.49 0.75,-3.23 1.1,-5.26 -1.17,-7.71 -0.93,-1 -1.8,-1.52 -3.61,-1.55 -2.61,-0.03 -2.41,0.59 -4.23,1.3 -2.8,1.09 -4.83,-2.36 -8.01,-0.19 -3.11,2.13 -0.83,6.65 -0.73,7.81 -1.35,-0.9 -2.75,-3.5 -4.69,-3.28 -2.3,0.26 -2.2,3.25 -2.95,5.2 -1.18,3.11 -4.11,1.76 -4,10.41 0.03,2.21 0.15,1.59 0.38,1.67 0.56,1.28 0,0.75 1.57,1.51 0.79,0.38 1.52,0.62 2.24,0.82 1.86,0.52 3.14,0.39 5.4,0.39l-2.19 1.56c-1.33,0.89 -1.21,0.89 -1.9,2.2 -0.98,0 -2.11,0.03 -3.29,0.05 -3.91,-0.03 -7.27,-0.14 -9.05,-0.34l-6.44 -0.39c-0.61,-0.02 -1.28,-0.06 -1.99,-0.11l-0.25 -0.04 -19.08 -2.61 -0.7 -0.12c-3.59,-0.61 -7.29,-1.36 -11.05,-2.23l-0.58 -0.15 -5.16 -1.27c-21.94,-5.76 -45.61,-15.54 -64.57,-27.23 -0.48,-0.58 -1.28,-1.01 -2.02,-1.47 -1.03,-0.63 -1.74,-1.04 -2.73,-1.71 -1.72,-1.15 -3.56,-2.2 -5.19,-3.49l-0.01 0.03 -1.3 -0.96 -18.54 -14.23 -14.2 -13.1 -13.13 -14.52c-7.72,-8.86 -21.23,-28.26 -26.66,-39.22 -0.69,-1.39 -1.28,-2.2 -1.94,-3.52 -0.61,-1.24 -1.15,-2.31 -1.82,-3.65 -1.31,-2.62 -2.53,-5.1 -3.64,-7.78 -2.64,0.57 -6.38,3 -8.89,4.23 -2.86,1.4 -6.08,2.65 -9.38,3.61 -8.22,2.4 -14.35,2.65 -23.37,2.56l0 148.48 8.68 0 111.49 0 56.43 0 110.66 0 50.4 0zm11.69 -472.06c2.55,1.03 4.6,2.14 7.2,3.21 2.15,0.89 4.95,2.78 6.91,3.27l0.01 0c0.9,0.7 1.83,1.02 2.85,1.64l3 1.77 0.69 0.35 0.34 0.34c2.05,0.42 8.03,3.4 10.57,4.43 0.44,-0.3 0.93,-0.54 1.44,-0.76 0.24,1.24 0.63,2.52 1.19,3.84l8.09 5.66c1.47,0.98 1.85,1.56 2.94,1.83 7.88,0.14 12.78,-3.23 15.03,-8.85 3.03,-7.57 -0.68,-14.05 -5,-17.2 -4.38,-3.19 -9.5,-3.44 -13.75,-1.65 -0.84,-3.77 -3.19,-7.23 -6.94,-9.4 -9.22,-5.34 -23,1.35 -21.15,14.82 -2.51,-5.98 -10.7,-6.32 -13.07,-4.13 -0.71,0.65 -0.6,-0.21 -0.35,0.83zm129.88 290.8c-0.53,1.14 -0.92,2.6 -1.38,3.99 -0.25,0.69 -0.51,1.38 -0.77,2.06l-0.02 0.07c-0.17,0.43 -0.34,0.85 -0.48,1.29l0 0 -0.01 0.02c-0.51,1.42 -0.93,2.71 -1.58,4.19 0.3,0.65 1.45,1.22 2.62,1.69 2.16,3.66 6.36,5.36 10.36,5.01 4.07,2.39 7.91,4.92 11.53,7.84l8.37 7.33c1.33,1.26 2.71,2.87 4.13,3.79l0 -32.62 0 -110.66 0 -124.56c-10.59,0 -20.27,0.59 -30.45,1.79 0.15,-1.56 0.47,-2.44 -0.73,-3.09 -1.47,-2.72 -6.22,-1.38 -9.11,-4.32 -3.11,-3.17 -2.27,-3.46 -8.87,-4.06 -5.77,-0.52 -7.02,-1.62 -9.09,3.47 -1.56,3.82 -1.4,7.23 -0.9,11.47 -2.31,-2.5 -2.63,-5.37 -5.86,-6.99 -1.88,-0.94 -7.77,-1.18 -9.73,-0.79 -1.64,0.32 0.76,-0.22 -0.58,0.16l-0.52 0.23c-0.95,-0.56 1.06,-2.2 2.94,-4.38 9.98,-11.57 18.68,-21.46 24.48,-36.62 6.1,-15.96 10.46,-38.92 12.9,-57.05l-25.2 0c-2.7,16.17 -11.63,41.15 -20.32,55.83 -1.15,1.94 -3.26,4.84 -4.05,6.71 3.74,1.98 5.09,1.11 11.11,5.29 2.34,1.63 1.76,2.81 0.48,5.44 -1.35,2.81 -1.53,2.47 -4.26,3.53 -2.46,6.78 -4.39,12.01 -8.97,15.31l0 0.39c0.98,1.35 2.15,2.3 3.36,3.5 0.78,0.77 0.9,0.93 1.6,1.81 0.37,0.47 0.51,0.55 0.79,0.91 0.73,0.95 0.28,0.1 0.77,1.29 -2.73,1.44 -1.42,4.23 -1.78,6.4 -0.45,2.7 -1.86,3.65 -1.65,7.6 0.27,5.01 4.73,8.41 9.91,8.53 -0.92,0.58 -2.77,0.79 -3.75,1.02 -1.29,0.31 -2.5,0.54 -3.9,0.88 -3.22,0.8 -4.69,1.67 -5.66,4.58 0,3.38 0.14,2.81 1.51,4.98 1.13,1.79 0.88,3.44 2.31,4.86 1.81,1.8 3,0.48 8.38,5.96 4.99,5.08 12.19,-0.24 15.32,-5.01 0.3,-0.47 0.37,-0.58 0.66,-1.04 0.23,-0.35 0.19,-0.31 0.4,-0.62 0.49,-0.72 0.09,-0.2 0.43,-0.59 0,2.93 -0.41,4.69 0.14,7.02l2.54 5.66c1.55,3.97 5.18,6.97 10.29,4.38 0.87,-0.45 0.23,-0.37 1.37,-0.68 0.37,1.61 1.38,3.41 2.05,4.77l6.27 15.24c6.89,19.85 10.47,33.29 12.94,53.06l0.9 9.56 0.36 4.76c0,0.85 0.07,1.32 0.14,1.74 0.37,8.22 0.4,21.95 -0.08,26.29l-0.39 6.44 -0.02 0.44c-1.01,11.15 -2.79,22.46 -5.26,33.3l-2.09 8.43c-1.17,4.37 -2.45,8.62 -3.85,12.73l-0.05 0.04zm-201.69 153.27c-0.46,1.99 -0.85,2.62 -2.64,4.25 -1.2,1.1 -2.97,1.63 -4.55,1.54 -3.56,-0.2 -5.31,-2.64 -5.81,-6.03 0.08,-0.12 -0.02,-1.48 0.35,-2.48 0.39,-1.08 1.68,-2.46 2.52,-3.27 1.7,-1.63 6.13,-0.65 7.62,0.61 2.94,2.5 2.34,2.79 2.51,5.38zm171.23 -35.24c1.43,8.02 8.89,14.57 18.65,12.82 7.84,-1.4 14.31,-9.14 12.61,-18.67 -1.4,-7.84 -9.15,-14.31 -18.68,-12.61 -7.81,1.4 -14.25,9.13 -12.58,18.46zm32.35 -33.84c0.6,0.75 3.33,2.49 4.24,3.22 10.2,8.21 16.1,19.59 19.67,32.56 2.3,8.38 3.66,16.61 4.46,25.58 0.43,4.94 0.8,24.19 2.51,27.03l0 -111.49c-3.77,-1.66 -6.65,-3.67 -11.46,-5.24 -4.37,-1.44 -8.86,-2.54 -13.43,-3.63 -10.36,-2.48 -18.96,-3.55 -30.06,-4 -0.75,0.43 -1.24,1.38 -1.78,2.24 -0.63,1.03 -1.04,1.74 -1.71,2.73 -0.56,0.85 -1.11,1.72 -1.67,2.59l-1.8 2.58 -0.02 0.02 0 0 -1.76 2.52c-0.98,1.47 -1.56,1.85 -1.83,2.94 -0.14,7.88 3.23,12.78 8.85,15.03 7.57,3.03 14.05,-0.68 17.2,-5 5.46,-7.5 2.3,-17.16 -4.92,-20.94 7.36,-1.63 14.88,-1.88 19.93,1.59 6.31,4.33 12.55,23.68 -6.42,29.67zm-41.91 -414.93l-5.08 0c-0.66,2.76 -1.8,4.88 -0.98,7.9 3.78,1.95 5.36,-4.49 6.06,-7.9zm32.85 349.35c-1.03,2.55 -2.14,4.6 -3.21,7.2 -0.89,2.16 -2.79,4.97 -3.27,6.93 9,-0.54 9.83,-11.05 7.31,-13.78 -0.65,-0.71 0.21,-0.6 -0.83,-0.35zm-444.07 -71.81c-1.99,-0.46 -2.62,-0.85 -4.25,-2.64 -1.1,-1.2 -1.63,-2.97 -1.54,-4.55 0.2,-3.56 2.64,-5.31 6.03,-5.81 0.12,0.08 1.48,-0.02 2.48,0.35 1.08,0.39 2.46,1.68 3.27,2.52 1.63,1.7 0.65,6.13 -0.61,7.62 -2.5,2.94 -2.79,2.34 -5.38,2.51zm347.48 188.17c-0.68,0.87 -0.66,1.11 -1.59,1.7 -1.62,1.03 -0.92,-0.3 -1.83,1.57 -1.99,4.08 -3.64,8.36 -9.86,9.91 -0.65,5.89 -1.55,8.77 1.04,14.27 6.56,13.94 23.67,14.68 32.43,5.92 12.53,-12.52 3.87,-38.4 -20.19,-33.37z"/>
   </g>
   <path class="fil1" d="M120.17 512l56.43 0c3.41,-3.88 6.5,-7.09 9.61,-12.77 2.47,-4.5 4.81,-10.74 5.86,-16.58 -1.65,-0.73 -3.82,-1.18 -5.4,-1.67 -1.84,-0.56 -3.56,-1.31 -5.41,-1.75 5.97,7.28 2.5,15.61 -4.02,17.85 -2.51,0.86 -5.51,0.75 -7.85,-0.19 -9.71,-3.88 -8.38,-19.52 2.98,-20.69 -0.33,-0.26 -0.13,-0.14 -0.66,-0.39l-2.95 -1.16c-1.36,-0.55 -2.45,-1.04 -3.6,-1.51l-7.12 -2.96c-2.56,1.78 -5.85,7.57 -15.77,2.64 -8.27,-4.11 -6.77,-9.37 -6.71,-14.75 -1.41,-0.35 -0.85,-0.67 -2.52,-1.02 -0.45,11.1 -1.52,19.7 -4,30.06 -1.09,4.57 -2.19,9.06 -3.63,13.43 -1.57,4.81 -3.58,7.69 -5.24,11.46zm315.99 -413.95l0.52 -0.23c1.34,-0.38 -1.06,0.16 0.58,-0.16 1.96,-0.39 7.85,-0.15 9.73,0.79 3.23,1.62 3.55,4.49 5.86,6.99 -0.5,-4.24 -0.66,-7.65 0.9,-11.47 2.07,-5.09 3.32,-3.99 9.09,-3.47 6.6,0.6 5.76,0.89 8.87,4.06 2.89,2.94 7.64,1.6 9.11,4.32 1.2,0.65 0.88,1.53 0.73,3.09 10.18,-1.2 19.86,-1.79 30.45,-1.79l0 -100.18 -35.52 0c-2.44,18.13 -6.8,41.09 -12.9,57.05 -5.8,15.16 -14.5,25.05 -24.48,36.62 -1.88,2.18 -3.89,3.82 -2.94,4.38zm35.9 251.3c1.04,-0.25 0.18,-0.36 0.83,0.35 2.52,2.73 1.69,13.24 -7.31,13.78l-11.61 20.07c15.38,-6.54 26.81,9.74 18.56,21.06 -3.15,4.32 -9.63,8.03 -17.2,5 -5.62,-2.25 -8.99,-7.15 -8.85,-15.03l-11.57 14.39c-1.27,1.58 -2.86,3.1 -4.23,4.64 -0.79,0.9 -0.96,1.31 -1.87,2.22l-11.1 11.09c-0.82,0.82 -1.38,1.43 -2.21,2.23l-6.92 6.05c-6.6,5.09 -12.28,10.11 -19.73,15.09 -3.89,2.61 -12.62,8.43 -16.57,10.17l1.36 1.15c2.85,1.8 2.41,1.86 1.83,4.1 24.06,-5.03 32.72,20.85 20.19,33.37 -8.76,8.76 -25.87,8.02 -32.43,-5.92 -2.59,-5.5 -1.69,-8.38 -1.04,-14.27 -3.1,0.88 -6.85,0.23 -9.48,-0.81 -1.38,-0.54 -2.48,-1.25 -3.46,-1.99 -1.3,-1.01 -1.65,-1.76 -2.8,-2.58l-6.92 2.55c-14.4,5.64 -29.86,9.58 -45.2,12.14 -2.28,0.38 -5.89,1.08 -8.34,1.27l1.27 22.53 224.74 0 0 -143.98c-1.42,-0.92 -2.8,-2.53 -4.13,-3.79l-8.37 -7.33c-4.4,-3.55 -9.12,-6.52 -14.17,-9.36 -1.78,-1.01 -3.42,-1.76 -5.29,-2.57 -1.21,-0.52 -4.51,-1.44 -5.05,-2.61 -0.5,1.2 -0.88,2.26 -1.44,3.53 -0.47,1.04 -1.21,2.56 -1.49,3.46zm-313.18 -307.71c1.15,-0.84 8.91,-3.9 10.86,-4.68 11.3,-4.52 23.93,-8.47 36.11,-10.99 20.3,-4.21 40.01,-5.8 61.42,-5.16 5.12,0.15 19.94,1.77 25.06,2.59 9.25,1.49 17.69,3.32 25.86,5.54 8.84,2.41 20.98,6.43 29.17,10.09 1.91,0.85 3.63,1.46 5.47,2.38l10.64 5.01c-4.67,-15.57 10.53,-23.75 20.45,-18 9.23,5.34 9.97,18.54 0.63,24.69 -1.16,0.76 -2.57,1.1 -3.63,1.84 7.45,3.09 15.14,2.02 23.6,2.97 3.97,0.44 7.71,1.05 11.54,1.83 3.6,0.74 7.56,2.2 10.85,2.79 0.79,-1.87 2.9,-4.77 4.05,-6.71 8.69,-14.68 17.62,-39.66 20.32,-55.83l-12.07 0c-0.7,3.41 -2.28,9.85 -6.06,7.9 -0.82,-3.02 0.32,-5.14 0.98,-7.9l-285.65 0c-0.09,9.02 0.16,15.15 2.56,23.37 0.96,3.3 2.21,6.52 3.61,9.38 1.23,2.51 3.66,6.25 4.23,8.89zm-158.88 296.02l0 174.34 8.68 0c2.84,-1.71 22.09,-2.08 27.03,-2.51 8.97,-0.8 17.2,-2.16 25.58,-4.46 12.97,-3.57 24.35,-9.47 32.56,-19.67 0.73,-0.91 2.47,-3.64 3.22,-4.24l-1.14 -5.99c-0.6,1.51 -0.98,2.96 -2.13,3.48 -2.22,0.98 -3.32,-0.32 -3.3,-2.44 0.02,-4.1 3.8,-10.72 4.1,-17.74 0.14,-3.46 0.53,-6.52 0.98,-9.71 -6.5,-0.52 -13.23,-1.47 -18.73,-4.01 -4.4,-2.05 -5.19,-2.38 -6.03,-5.58 -0.8,-3.09 -1.75,-6.17 -2.38,-9.39 -1.34,-4.13 -2.5,-10.97 -3.37,-15.64 -0.99,-5.31 -1.99,-10.88 -2.7,-16.5 -0.81,-0.63 -1.74,-0.91 -2.74,-1.55 -5.84,-3.73 -10.33,-11.61 -10.83,-18.26 -2.03,-0.36 -3.06,-1.27 -3.85,-2.9 -3.09,-6.34 0.17,-5.44 3.07,-7.96 -0.11,-1.41 -1.98,-4.52 -2.74,-6.03 -1.04,-2.08 -2.08,-3.92 -2.91,-5.96 -0.85,-2.11 -1.88,-4.1 -2.73,-6.15 -3.56,-8.63 -8.14,-20.36 -10.42,-29.5 -0.35,-1.39 -0.79,-2.35 -0.89,-3.68 -1.09,1.12 -1.81,2.72 -2.7,3.91 -6.18,8.34 -14.78,15.76 -25.63,18.14z"/>
   <path class="fil1" d="M452.95 113.96c-1.36,0.29 -0.91,-0.01 -1.75,0.85 -0.68,2.5 -0.16,-0.39 -1.86,3.79l-0.63 2.74c-0.11,1.18 0.26,1.54 0.41,2.9 1.16,2.3 0.66,2.66 3.55,5.07 4.27,3.55 5.85,1.53 8.47,2.15 1.48,-0.48 -0.17,0.23 1.15,-0.93 0.43,-0.37 0.27,-0.22 0.59,-0.46 1.44,-1.15 2.65,-2.18 3.38,-4.1 0.03,-0.07 0.07,-0.16 0.1,-0.24 0.03,-0.08 0.07,-0.16 0.11,-0.24l0.57 -1.92c0.12,-1.04 -0.05,-0.32 0.19,-1.46 0.18,-0.88 0.27,0.32 0.18,-1.17 -0.23,-3.9 0.73,-2.28 -0.99,-4.05 -2.39,-2.45 -1.73,-0.31 -1.75,-2.18 -2.28,-0.4 -1.06,-1.06 -2.91,-1.72 -0.55,-0.2 -0.55,-0.12 -1.09,-0.29 -1.76,-0.57 -3.49,-0.5 -5.72,0.16 -2.47,0.72 -1.5,1.74 -2,1.1zm-338.99 -54.91c0.29,1.36 -0.01,0.91 0.85,1.75 2.5,0.68 -0.39,0.16 3.79,1.86l2.74 0.63c1.18,0.11 1.54,-0.26 2.9,-0.41 2.3,-1.16 2.66,-0.66 5.07,-3.55 3.55,-4.27 1.53,-5.85 2.15,-8.47 -0.48,-1.48 0.23,0.17 -0.93,-1.15 -0.37,-0.43 -0.22,-0.27 -0.46,-0.59 -1.15,-1.44 -2.18,-2.65 -4.1,-3.38 -0.07,-0.03 -0.16,-0.07 -0.24,-0.1 -0.08,-0.03 -0.16,-0.07 -0.24,-0.11l-1.92 -0.57c-1.04,-0.12 -0.32,0.05 -1.46,-0.19 -0.88,-0.18 0.32,-0.27 -1.17,-0.18 -3.9,0.23 -2.28,-0.73 -4.05,0.99 -2.45,2.39 -0.31,1.73 -2.18,1.75 -0.4,2.28 -1.06,1.06 -1.72,2.91 -0.2,0.55 -0.12,0.55 -0.29,1.09 -0.57,1.76 -0.5,3.49 0.16,5.72 0.72,2.47 1.74,1.5 1.1,2zm163.58 424.96c-0.17,-2.59 0.43,-2.88 -2.51,-5.38 -1.49,-1.26 -5.92,-2.24 -7.62,-0.61 -0.84,0.81 -2.13,2.19 -2.52,3.27 -0.37,1 -0.27,2.36 -0.35,2.48 0.5,3.39 2.25,5.83 5.81,6.03 1.58,0.09 3.35,-0.44 4.55,-1.54 1.79,-1.63 2.18,-2.26 2.64,-4.25zm-249.55 -206.47c2.59,-0.17 2.88,0.43 5.38,-2.51 1.26,-1.49 2.24,-5.92 0.61,-7.62 -0.81,-0.84 -2.19,-2.13 -3.27,-2.52 -1,-0.37 -2.36,-0.27 -2.48,-0.35 -3.39,0.5 -5.83,2.25 -6.03,5.81 -0.09,1.58 0.44,3.35 1.54,4.55 1.63,1.79 2.26,2.18 4.25,2.64z"/>
   <path class="fil2" d="M27.99 274.61c-1.1,-0.12 -1.58,-0.15 -2.56,-1.36 -0.84,-1.03 -1.11,-2.12 -0.88,-3.43 0.04,-0.19 0.27,-1.03 0.27,-1.05 0.07,-1.32 0.2,-0.65 -0.41,-1.46 -0.38,1.76 -1.17,2.92 -0.59,5.05 0.46,1.65 1.35,2.59 2.91,3.12 5.87,2.01 8.7,-6.18 4.43,-8.39 -6.98,-3.61 -8.36,7.3 -3.17,7.52zm246.62 209.4c-0.12,1.1 -0.15,1.58 -1.36,2.56 -1.03,0.84 -2.12,1.11 -3.43,0.88 -0.19,-0.04 -1.03,-0.27 -1.05,-0.27 -1.32,-0.07 -0.65,-0.2 -1.46,0.41 1.76,0.38 2.92,1.17 5.05,0.59 1.65,-0.46 2.59,-1.35 3.12,-2.91 2.01,-5.87 -6.18,-8.7 -8.39,-4.43 -3.61,6.98 7.3,8.36 7.52,3.17z"/>
  </g>
 </g>
</svg>
