<?xml version="1.0" encoding="UTF-8"?>
<!DOCTYPE svg PUBLIC "-//W3C//DTD SVG 1.1//EN" "http://www.w3.org/Graphics/SVG/1.1/DTD/svg11.dtd">
<!-- Creator: CorelDRAW 2021 (64-Bit) -->
<svg xmlns="http://www.w3.org/2000/svg" xml:space="preserve" width="512px" height="512px" version="1.1" style="shape-rendering:geometricPrecision; text-rendering:geometricPrecision; image-rendering:optimizeQuality; fill-rule:evenodd; clip-rule:evenodd"
viewBox="0 0 512 512"
 xmlns:xlink="http://www.w3.org/1999/xlink"
 xmlns:xodm="http://www.corel.com/coreldraw/odm/2003">
 <defs>
  <style type="text/css">
   <![CDATA[
    .fil5 {fill:#002A50}
    .fil1 {fill:#01406B}
    .fil0 {fill:#025587}
    .fil3 {fill:#6EB1C1}
    .fil4 {fill:#E4AB1B}
    .fil2 {fill:#E6ECE3}
   ]]>
  </style>
 </defs>
 <g id="Layer_x0020_1">
  <metadata id="CorelCorpID_0Corel-Layer"/>
  <g id="_2436906227040">
   <path class="fil0" d="M0 164.6c18.78,-0.37 48.24,-6.93 62.08,-14.82 5.79,-3.3 8.79,-5.14 13.7,-9.22 15.02,-12.5 38.61,-43.9 49.81,-60.24 7.5,-10.96 8.52,-14.99 21.56,-23.15 5.63,-3.52 8.4,-4.72 14.27,-8.85 6.42,-4.53 10.79,-7.83 16.18,-12.72 0.96,-0.88 0.87,-0.71 1.7,-1.33 1.5,-1.12 -0.03,0.51 0.96,-0.95 4.74,-6.99 19.21,-15.97 19.09,-33.32l-199.35 0 0 164.6z"/>
   <path class="fil0" d="M434.56 422.91c1.62,0.82 3.53,0.35 4.01,2.92 0.43,2.31 -0.97,3.17 -2.93,4.17 -0.38,2.1 -0.63,0.53 -1.28,2.4 -0.58,1.67 0.22,3.45 -1.51,8.05l-2.77 0.57 2.62 -0.11c-1.96,5.39 -4.53,7.57 -8.23,11.46 -5.84,6.12 -18.51,13.06 -27.98,22.74 -0.83,0.85 -1.79,1.81 -2.65,2.5 -1.68,1.34 -1.94,0.77 -2.7,2.44 5.75,0.21 8.71,1.13 12.07,2.94 -5.57,2.97 -12.26,2.68 -17.01,-0.38 -5.37,1.54 -9.66,4.49 -13.25,6.78 0.15,0.07 0.4,0.02 0.48,0.17 0.08,0.14 0.36,0.13 0.48,0.16 5.69,1.65 1.67,0.12 7.86,2.84 -2.69,0.83 -4.83,2.09 -9.46,1.14 -0.58,-0.12 -0.87,-0.23 -1.33,-0.36l-1.7 -0.56c-5.46,4.32 -8.5,12.54 -8.7,19.22l79.6 0c-1.07,-2.83 -1.77,-6.96 4.01,-7.37 6.92,-0.48 6.83,3.41 6.95,7.37l60.86 0 0 -59.75c-2.07,0.82 -3.69,2.27 -7.57,2.03 -2.86,-0.17 -5.1,-1.3 -5.13,-3.27 -0.09,-5.17 7,-5.51 12.7,-4.84l0 -108.11c-4.47,2.47 -16.55,15.79 -20.65,20.67 -6.03,7.16 -12.42,13.64 -20.14,20.69 -2.96,2.69 -8.74,6.5 -12.5,8.73 -13.68,8.09 -29.18,20.17 -24.15,34.76z"/>
   <path class="fil1" d="M80.53 512l131.43 0c1.99,-0.94 10.18,-2.94 13.23,-3.92 4.41,-1.42 8.38,-2.93 12.5,-4.45 15.79,-5.82 11.42,-4.75 17.77,-13.28 2.59,-3.48 12.82,-12.81 16.42,-14.71 5.35,-2.82 4.31,-3.1 9.56,-6.4l9.75 -5.96c1.15,-1.05 0.76,0.56 0.37,-1.09 -0.23,-0.96 -2.9,-1.08 -4.26,-1.32 -2.62,-0.47 -5.3,-1.04 -7.48,-1.48 -16.79,-3.36 -33.97,-3.99 -52,-3.56 -26.81,0.65 -69.16,7.94 -92,16.14 -22.41,8.05 -52.97,21.31 -55.29,40.03z"/>
   <path class="fil0" d="M0 425c7.35,1.14 8.64,15.62 8.94,20 0.41,6 1.43,20.11 -3.89,23.44 -1.61,-1.54 -3.1,-4.07 -5.05,-5.58l0 9.25c2.78,-1.1 4.95,-2.54 7.82,-3.97 2.94,-1.47 5.7,-2.81 8.39,-4.22 4.87,-2.54 11.74,-6.23 15,-9.12 5.83,-3.22 20.57,-15.49 24.23,-21.22 -3.82,-2.53 -9.39,-6.88 -12.26,-10.96 -2.86,-4.06 -5.97,-11.87 -1.45,-15.88 9.36,0.01 15.68,22.6 16.44,23.65 2.03,-1.57 9.16,-11.33 10.17,-13.96 -2.28,-2.47 -7.62,-4.65 -12.38,-10.86 -3.05,-3.97 -6.24,-11.48 -1.41,-15.46 7.77,1.42 13.78,17.12 14.97,24.4 3.51,-4.37 8.26,-14.11 10.25,-19.42 -3.58,-2.52 -7.9,-3.77 -12.35,-8.26 -1.74,-1.75 -8.27,-10.41 -2.74,-11.69 2.37,-9.84 0.92,-18.09 -7.68,-26.15 -11.19,-10.48 -34.44,-15.41 -57,-15.6l0 91.61z"/>
   <path class="fil2" d="M472.83 78.16c-0.98,-4.21 -3.94,-14.92 -0.51,-18.71 4.04,2.21 13.23,15.16 15.87,20 1.27,2.34 2.09,6.06 3.83,7.9 9.04,2.29 13.65,4.61 19.98,7.32l0 -94.67 -102.08 0c4.63,9.45 10.66,11.94 17.06,18.28 13.41,13.27 2.73,25.61 24.44,43.86l5.01 3.94c2,1.67 3.76,2.28 5.58,3.93l10.82 8.15z"/>
   <path class="fil2" d="M419.31 442.38c0.12,0.07 0.32,0.13 0.4,0.16 0.09,0.03 0.3,0.11 0.41,0.15 0.11,0.04 0.3,0.1 0.42,0.14l2.7 1.2c0.64,0.54 1.54,2.33 1.86,3.08 3.51,8.34 -9.79,4.76 -11.95,1.91 -2.45,-3.23 1.23,-4.61 1.2,-5.69l-20.58 3.9c-9.3,2.93 -39.25,7.43 -50.08,8.13 -16.07,1.04 -34.7,-2.16 -50.62,7.32 10.21,1.15 29.31,11.17 36.14,17.59 4.16,3.91 7.67,8.42 9.44,14.05 2.47,7.87 -0.3,11.24 -3.24,17.68l25.17 0c0.2,-6.68 3.24,-14.9 8.7,-19.22l1.7 0.56c0.46,0.13 0.75,0.24 1.33,0.36 4.63,0.95 6.77,-0.31 9.46,-1.14 -6.19,-2.72 -2.17,-1.19 -7.86,-2.84 -0.12,-0.03 -0.4,-0.02 -0.48,-0.16 -0.08,-0.15 -0.33,-0.1 -0.48,-0.17 3.59,-2.29 7.88,-5.24 13.25,-6.78 4.75,3.06 11.44,3.35 17.01,0.38 -3.36,-1.81 -6.32,-2.73 -12.07,-2.94 0.76,-1.67 1.02,-1.1 2.7,-2.44 0.86,-0.69 1.82,-1.65 2.65,-2.5 9.47,-9.68 22.14,-16.62 27.98,-22.74 3.7,-3.89 6.27,-6.07 8.23,-11.46l-2.62 0.11 -10.77 1.36z"/>
   <path class="fil3" d="M291.19 463.28l-9.75 5.96c-5.25,3.3 -4.21,3.58 -9.56,6.4 -3.6,1.9 -13.83,11.23 -16.42,14.71 -6.35,8.53 -1.98,7.46 -17.77,13.28 -4.12,1.52 -8.09,3.03 -12.5,4.45 -3.05,0.98 -11.24,2.98 -13.23,3.92l123.45 0c2.94,-6.44 5.71,-9.81 3.24,-17.68 -1.77,-5.63 -5.28,-10.14 -9.44,-14.05 -6.83,-6.42 -25.93,-16.44 -36.14,-17.59l-1.88 0.6z"/>
   <path class="fil1" d="M512 103.59l-8.99 -2.42 -1.41 0.38c3.49,12.83 5.02,33.39 -1.93,45.05 -4.22,7.09 -7.75,10.48 -13.5,15.79 -5.52,5.11 -10.53,8.17 -15.77,14.3 -16.44,19.27 -3.32,39.41 19.78,52.03 3.78,2.06 18.86,9.82 21.82,10.21l0 -135.34z"/>
   <path class="fil4" d="M64.68 375.14c-5.53,1.28 1,9.94 2.74,11.69 4.45,4.49 8.77,5.74 12.35,8.26 -1.99,5.31 -6.74,15.05 -10.25,19.42 -1.19,-7.28 -7.2,-22.98 -14.97,-24.4 -4.83,3.98 -1.64,11.49 1.41,15.46 4.76,6.21 10.1,8.39 12.38,10.86 -1.01,2.63 -8.14,12.39 -10.17,13.96 -0.76,-1.05 -7.08,-23.64 -16.44,-23.65 -4.52,4.01 -1.41,11.82 1.45,15.88 2.87,4.08 8.44,8.43 12.26,10.96 -3.66,5.73 -18.4,18 -24.23,21.22 -3.26,2.89 -10.13,6.58 -15,9.12 -2.69,1.41 -5.45,2.75 -8.39,4.22 -2.87,1.43 -5.04,2.87 -7.82,3.97l0 5.4c11.75,2.05 19.12,4.37 33.3,3.82 9.22,-0.36 25.7,-3.92 25.45,-9.01 -8.55,-5.17 -41.45,-1.99 -52.8,0.2 4.06,-2.21 8.47,-4.45 12.89,-6.83 3.15,-1.69 2.73,-1.94 7.79,-1.35 13.09,1.54 41.34,0.93 49.57,-3.85 0.09,-3.09 -3.6,-3.85 -7.73,-4.82 -11.57,-2.74 -25.74,-0.55 -36.35,2.51 1.94,-1.52 4.39,-3.43 6.57,-4.86 1.87,-1.22 4.8,-3.64 5.99,-4.97 10.74,0.31 39.74,-3.61 41.64,-8.88 -2.76,-3.34 -14.17,-2.6 -19.83,-1.33 -7.24,1.63 -10.62,3.49 -15.98,5.44 2.42,-3.05 6.02,-6.13 8.8,-9.38 2.19,-2.57 1.32,-2.95 5.71,-3.87 2.87,-0.59 4.88,-1.26 7.52,-2.22 5.26,-1.92 25.98,-10.53 22.82,-14.23 -5.03,-1.5 -13.06,1.33 -16.32,2.74 -4.54,1.96 -7.63,4.69 -11.09,7.02 0.76,-2.19 4.58,-7.32 6.07,-9.9 7.05,-12.17 9.89,-18.8 14.3,-32.02 7.1,-1.62 15.61,-4.4 21.1,-7.56 1.12,-0.64 3.24,-1.8 3.44,-2.7 0.44,-1.89 0.32,-0.36 -0.42,-0.99 -3.78,-2.54 -14.3,1.92 -18.36,4.56 -1.65,1.07 -2.46,1.86 -4.45,2.89 0.4,-2.86 1.6,-6.11 2.24,-9 0.78,-3.48 0.16,-6.42 3.72,-8.24 3.71,-1.88 13.77,-7.89 14.06,-12.24 -8.94,0.09 -11.6,5.27 -15.44,9.06 0.1,-5.56 5.03,-25.75 -2.69,-28.16 -9.76,4.51 0.13,18.47 0.1,20.94 -0.09,6.53 -2.61,16.82 -4.49,23.12 -1.71,-1.45 -4.19,-6.09 -6.28,-8.32 -1.34,-1.45 -2.4,-2.61 -3.85,-3.83 -0.25,-0.21 -1.87,-1.47 -2.08,-1.59 -1.54,-0.92 -0.85,-0.81 -3.24,-0.83 -2.95,3.12 0.83,8.27 3.31,10.59 3.12,2.93 6.59,4.97 11.51,7.01l-5.22 14.78c-2.96,-2.41 -8.88,-14.77 -16.6,-16.07z"/>
   <path class="fil4" d="M503.01 101.17l8.99 2.42 0 -1.37c-3.91,-1.04 -16.34,-4.7 -19.19,-6.22 -0.08,-1.48 -0.92,-8.29 -0.79,-8.65 -1.74,-1.84 -2.56,-5.56 -3.83,-7.9 -2.64,-4.84 -11.83,-17.79 -15.87,-20 -3.43,3.79 -0.47,14.5 0.51,18.71 3.31,7.77 6.47,10.25 13.52,15.62 -13.24,-3.8 -29.29,-12.02 -39.6,-15.75 -0.55,-8.91 -2.64,-14.1 -7.48,-21.43 -1.39,-2.11 -10.42,-15.33 -13.67,-16.88 -2.74,3.94 -0.94,14.61 0.53,18.83 0.97,2.79 2.36,5.24 4,7.55 1.88,2.67 3.98,4.31 5.69,6.44 -4.38,-1.76 -17.83,-9.01 -22.25,-11.48 -0.8,-10.79 -11.38,-23.84 -20.53,-32.51 -1.54,-1.46 -2.47,-2.88 -4.25,-3.2 -1.3,11.83 1.66,16.79 7.47,25.78 -3.2,-0.99 -5.83,-2.38 -9.36,-3.58 -6.22,-2.1 -25.38,-8.1 -30.83,-8.14 2.53,3.03 10.91,8.91 14.9,11.09 5.48,3 11.2,6.1 19.24,8.11 17.32,4.33 14.59,-0.94 24.4,4.61l17.19 9.24c-15.31,-3.89 -31.06,-8.38 -49.15,-9.4 1.62,2.61 15.61,8.76 21.06,10.85 10.08,3.85 24.07,7.75 36.96,6.1 8.07,-1.03 3.03,-1.72 12.12,2.13 1.85,0.78 3.63,1.53 5.52,2.3 3.75,1.54 7.51,3.14 11.47,4.71 3.24,1.29 9.34,3.22 11.65,4.64 -15.45,-1.94 -20.87,-2.55 -37.01,-1.86 -2.63,0.11 -9.07,0.23 -11.28,1.08 5.82,3.57 18.21,6.37 27.47,7.88 19.31,3.16 25.06,-1.4 32.22,-3.31l10.18 3.59z"/>
   <path class="fil4" d="M31.21 454.8c5.43,-10.4 2.54,-37.48 -4.33,-38.28 -7.62,1.02 -9.16,13.66 -7.49,19.84 1.43,5.25 5.14,12.29 9.23,16.88 0.35,0.38 0.46,0.62 1.06,0.99 1.07,0.66 0.09,0.34 1.53,0.57z"/>
   <path class="fil4" d="M0 503.45c8.86,0.56 13.95,1.29 22.95,-0.06 5.88,-0.88 14.51,-2.96 15.58,-6.32 -0.43,-5.21 -32.31,-6.23 -38.53,-6.33l0 12.71z"/>
   <path class="fil4" d="M0 462.86c1.95,1.51 3.44,4.04 5.05,5.58 5.32,-3.33 4.3,-17.44 3.89,-23.44 -0.3,-4.38 -1.59,-18.86 -8.94,-20l0 37.86z"/>
   <path class="fil5" d="M512 94.67c-6.33,-2.71 -10.94,-5.03 -19.98,-7.32 -0.13,0.36 0.71,7.17 0.79,8.65 2.85,1.52 15.28,5.18 19.19,6.22l0 -7.55z"/>
   <path class="fil4" d="M78.44 406.27c8.16,-0.42 29.86,-11.9 27.98,-15.56 -9.94,-3.1 -23.62,9.05 -27.98,15.56z"/>
   <path class="fil4" d="M483.11 420.13c-11.86,3.45 -4.76,11.56 1.71,10.22 2.62,-0.55 5.89,-3.7 5.99,-5.83 0.13,-2.76 -3.33,-5.67 -7.7,-4.39z"/>
   <path class="fil4" d="M491.52 437.79c-7.42,-0.36 -16.55,6.34 -9.59,10.21 6.78,3.76 13.59,-5.36 9.59,-10.21z"/>
   <path class="fil4" d="M414.35 443.33c0.03,1.08 -3.65,2.46 -1.2,5.69 2.16,2.85 15.46,6.43 11.95,-1.91 -0.32,-0.75 -1.22,-2.54 -1.86,-3.08l-2.7 -1.2c-0.12,-0.04 -0.31,-0.1 -0.42,-0.14 -0.11,-0.04 -0.32,-0.12 -0.41,-0.15 -0.08,-0.03 -0.28,-0.09 -0.4,-0.16l-4.96 0.95z"/>
   <path class="fil4" d="M426.13 499.92c-2.18,0.65 -5.21,3.68 -4.28,5.97 0.47,1.15 4.64,4.69 8.03,3.02 1.43,-0.7 4.97,-4.08 4.84,-5.86 -0.19,-2.66 -4.94,-4.21 -8.59,-3.13z"/>
   <path class="fil4" d="M512 446.17c-5.7,-0.67 -12.79,-0.33 -12.7,4.84 0.03,1.97 2.27,3.1 5.13,3.27 3.88,0.24 5.5,-1.21 7.57,-2.03l0 -6.08z"/>
   <path class="fil4" d="M460.76 419.88c-4.15,0.85 -6.44,0.7 -8.22,2.98 -1.95,2.49 0.15,5.07 3.44,5.76 3.95,0.83 7.83,-0.95 8.59,-2.53 1.18,-2.46 -2.62,-4.71 -3.81,-6.21z"/>
   <path class="fil4" d="M438.8 437.17c-4.95,1.68 -2.47,4.67 0.23,6.56 1.12,0.78 0.66,0.59 1.45,1.18 1.5,1.12 1.83,1.41 4.36,0.62 6.56,-2.05 3.08,-11.46 -6.04,-8.36z"/>
   <path class="fil4" d="M463.4 437.34c-9.91,4.21 -0.38,9.5 3.42,8.72 7.1,-1.47 4.17,-11.93 -3.42,-8.72z"/>
   <path class="fil4" d="M393.67 505.6c2.49,1.78 5.12,2.49 9.39,1.63 3.59,-0.72 8.73,-0.86 7.05,-4 -1.94,-3.66 -15.7,-2.72 -16.44,2.37z"/>
   <path class="fil4" d="M404.59 429.14c-2.35,0.69 -5.92,2.45 -4.77,4.88 0.86,1.81 4.05,3.86 7.83,3.75 9.16,-0.29 2.23,-10.17 -3.06,-8.63z"/>
   <path class="fil4" d="M476.05 463.26c1.25,-1.64 4.3,-3.64 2.13,-5.92 -1.39,-1.46 -5.97,-2.51 -9.02,-1.22 -1.58,0.68 -4.97,3.47 -2.7,5.57 1.43,1.33 6.71,1.62 9.59,1.57z"/>
   <path class="fil4" d="M425.29 472.52c-0.38,-2.86 -9.04,-10.22 -13.8,-7.06 -3.07,2.03 -0.36,4.95 2.26,5.8 3.22,1.05 7.4,1.64 11.54,1.26z"/>
   <path class="fil4" d="M440.18 512l10.96 0c-0.12,-3.96 -0.03,-7.85 -6.95,-7.37 -5.78,0.41 -5.08,4.54 -4.01,7.37z"/>
   <path class="fil4" d="M429.09 464.49c3.04,0.21 7.66,1.39 9.61,-0.08 2.29,-1.73 0.63,-4.45 -1.1,-5.64 -5.78,-3.97 -11.53,-0.64 -8.51,5.72z"/>
   <path class="fil4" d="M451.37 454.03c-5.1,3.13 -0.23,10.63 6.12,7.56 1.86,-0.91 2.62,-4.04 1.66,-6.12 -0.9,-1.94 -5.27,-2.97 -7.78,-1.44z"/>
   <path class="fil4" d="M435.64 430c1.96,-1 3.36,-1.86 2.93,-4.17 -0.48,-2.57 -2.39,-2.1 -4.01,-2.92 -4.83,-0.18 -7.34,0.51 -8.96,2.9 0.28,2.78 5.23,5.09 10.04,4.19z"/>
   <path class="fil4" d="M393.77 447.23l3.01 -0.87c-5.75,-10.33 -19.03,-6.73 -12.28,-1.25 2.07,1.68 4.67,2.29 9.27,2.12z"/>
   <path class="fil4" d="M503.61 460.81c-6.11,-1.18 -11.67,1.62 -13.82,3.56 -1.98,1.77 2.2,7.19 8.47,2.2 1.86,-1.48 5.34,-3.36 5.35,-5.76z"/>
  </g>
 </g>
</svg>
