<?xml version="1.0" encoding="UTF-8"?>
<!DOCTYPE svg PUBLIC "-//W3C//DTD SVG 1.1//EN" "http://www.w3.org/Graphics/SVG/1.1/DTD/svg11.dtd">
<!-- Creator: CorelDRAW 2021 (64-Bit) -->
<svg xmlns="http://www.w3.org/2000/svg" xml:space="preserve" width="512px" height="512px" version="1.1" style="shape-rendering:geometricPrecision; text-rendering:geometricPrecision; image-rendering:optimizeQuality; fill-rule:evenodd; clip-rule:evenodd"
viewBox="0 0 512 512"
 xmlns:xlink="http://www.w3.org/1999/xlink"
 xmlns:xodm="http://www.corel.com/coreldraw/odm/2003">
 <defs>
  <style type="text/css">
   <![CDATA[
    .fil1 {fill:#E4940C}
    .fil0 {fill:#EDE9EA}
    .fil2 {fill:#FAB42A}
   ]]>
  </style>
 </defs>
 <g id="Layer_x0020_1">
  <metadata id="CorelCorpID_0Corel-Layer"/>
  <g id="_2437370669104">
   <path class="fil0" d="M0 512l512 0 0 -512 -512 0 0 512zm71.54 -72.79l368.09 0.01c-1.86,-7.6 0.93,-361.64 -0.42,-367.58l-367.85 -0.26 0.18 367.83z"/>
   <path class="fil0" d="M298.43 425.7l108.06 0.43 0 -35.17 -108.77 0c0.51,8.77 -0.98,28.04 0.71,34.74z"/>
   <path class="fil1" d="M351.52 327.98l0.6 7.43 16.44 -3.18c-0.19,-3.13 -1.4,-6.33 -1.38,-9.16 0.04,-3.83 1.17,-1.14 0.09,-4.25 -0.5,-1.46 -1.12,0.39 -1.68,-3.93 1.94,-1.49 5.04,-3.06 7.75,-3.68 7.87,-1.8 2.38,1.2 7.69,-3.68 -0.95,-5.23 -5.19,-13.5 -7.4,-18.69l-5.89 -13.85c-1.41,-4.63 0.2,-1.77 -0.1,-5.9 -3.59,-1.27 -3.3,-2.08 -4.72,-5.49l-10.1 -24.18c-2.57,3.97 -1.24,16.62 -1.23,22.3 0,7.36 0.01,14.73 -0.01,22.09 -0.03,14.49 0.45,29.83 -0.06,44.17z"/>
   <path class="fil1" d="M235.93 158.24l23.78 0.19 1.47 -0.06c10.85,1.04 48.1,0.01 64.35,0.2 3.33,0.03 7.1,1.01 8.25,-1.65l-2.8 -15.13c-5.95,-0.32 -10.99,2.66 -17.73,2.39 -3.14,-4.41 -3.96,-11.4 -7.36,-15.06 -4.12,0.85 -29.35,11.98 -35.53,14.5l-34.43 14.62z"/>
   <path class="fil1" d="M152.58 265.1l4.44 8.01 -0.15 -97.05 -12.02 2.2c-0.44,0.09 -1.52,0.32 -2,0.49l-2.46 1.19c0.08,5.28 2.7,6.51 0.13,11.45 2.58,2.62 2.72,1.37 2.52,5.72 -4.35,2.49 -7.64,3.37 -13,3.28 -1.34,3.1 -1.03,1.9 -2.44,4.08 1.81,6.24 8.25,19.56 11.3,27.25 2.28,5.76 2.95,3.73 1.76,9.56 5,2.97 2.37,-0.16 6.94,11.14 1.61,3.97 4.44,8.72 4.98,12.68z"/>
   <path class="fil1" d="M174.98 355.7l2.77 13.85 17.69 -2.74c2.75,4.59 4.12,10.77 6.19,14.75 3.94,1.02 30.48,-11 35.88,-13.29 4.45,-1.88 32.37,-12.85 34.5,-15.28l-25.14 0.25 -33.69 -0.12 -37.33 0.04c-1.18,1.42 -1.35,-2.14 -0.87,2.54z"/>
   <polygon class="fil2" points="105.07,424.84 172.99,425.16 173.25,403.52 105.09,403.2 "/>
  </g>
 </g>
</svg>
