<?xml version="1.0" encoding="UTF-8"?>
<!DOCTYPE svg PUBLIC "-//W3C//DTD SVG 1.1//EN" "http://www.w3.org/Graphics/SVG/1.1/DTD/svg11.dtd">
<!-- Creator: CorelDRAW 2021 (64-Bit) -->
<svg xmlns="http://www.w3.org/2000/svg" xml:space="preserve" width="512px" height="512px" version="1.1" style="shape-rendering:geometricPrecision; text-rendering:geometricPrecision; image-rendering:optimizeQuality; fill-rule:evenodd; clip-rule:evenodd"
viewBox="0 0 512 512"
 xmlns:xlink="http://www.w3.org/1999/xlink"
 xmlns:xodm="http://www.corel.com/coreldraw/odm/2003">
 <defs>
  <style type="text/css">
   <![CDATA[
    .fil0 {fill:#00293F}
    .fil1 {fill:#D2D2D2}
    .fil2 {fill:#E41633}
    .fil4 {fill:#FAB706}
    .fil3 {fill:#FC132C}
   ]]>
  </style>
 </defs>
 <g id="Layer_x0020_1">
  <metadata id="CorelCorpID_0Corel-Layer"/>
  <g id="_2436747416064">
   <path class="fil0" d="M0 512l512 0 0 -512 -512 0 0 512zm90.66 -137.75l3.19 -2.36c5.48,-5.22 8.2,-11.41 18.01,-9.55 11.73,2.22 12.02,15.24 7.25,20.91 -3.14,3.73 -9.69,8.32 -11.08,11.8 12.46,14.47 32.6,28.22 48.72,37.91 16.97,10.21 41.73,18.93 64.04,22.8 36.88,6.4 77.13,2.32 111.73,-11.97 5.06,-2.09 10.04,-4.35 14.64,-6.68 4.43,-2.24 10.56,-6.35 14.26,-7.81l-0.11 -1.02c-6.71,-5.37 -13.05,-19.5 -13.98,-31.57 -1.93,-25.05 11.99,-47.96 35.49,-56.44 20.67,-7.45 32.42,-0.6 39.21,-0.29 5.31,0.07 2.07,0.01 2.82,-1.17l1.7 -3.81c1.81,-3.9 -0.22,-2.16 2.81,-3.32l-7.19 -1.24 0.26 -9.2 9.23 -1.19 -0.03 -8.93 -8.94 -0.91 0.07 -8.59 9.59 -0.75 -0.02 -10.27 -9.53 -0.19 0.04 -8.66 9.73 0 -0.13 -10.3 9.23 -1.43 0.04 -7.88 -9.11 -1.57 0.06 -9.47 -11.33 0 -0.03 9.36 -8.73 0.05 0.21 -8.6 9.99 0 0.34 -9.86 9.42 -0.38 0.02 -10.69 -9.8 -0.33 0 -8.6 9.58 -1.23 -0.38 -9.19 -9.24 -0.78c-0.1,-3.21 0.27,-6.99 -1.5,-9.65 -3.56,0.02 -5.01,0.54 -7.03,2.85l-5.02 5.57c-0.12,0.11 -0.3,0.28 -0.42,0.39 -0.12,0.11 -0.3,0.28 -0.42,0.39l-6.21 6.09c-4.8,5.29 -3.6,3.19 -6.91,6.19 -0.12,0.1 -0.29,0.27 -0.41,0.38l-1.09 1.27c-1.23,1.56 -3.63,5.63 -6.08,6.51 -2.5,0.9 -1.91,0.62 -4.84,0.62 0.25,-4.91 -0.44,-2.93 4.15,-7.27l2.62 -2.37c0.12,-0.11 0.3,-0.28 0.42,-0.39l4.08 -4.09c6.53,-6.48 8.61,-7.52 8.26,-14.94l8.82 -0.73c1.74,-3.44 0.86,-5.42 1.87,-9.47 3.16,0 6.14,-0.53 8.68,-1.34l-0.2 -8.93 -9.04 -0.71 -0.44 -9.55c4.57,-0.32 5.46,0.17 8.1,-2.37 -4.44,-2.79 -4.79,-0.56 -7.93,0.77 -3.67,2.66 -5.72,6.41 -13,5.85 -5.04,-0.38 -8.98,-3.93 -10.56,-7.56 -5.21,-12.03 8.2,-18.08 11.21,-23.52 0.19,-4.29 0.53,-2.56 -8.78,-3.31l-0.03 9.84c-3.52,0.27 -4.34,-0.06 -9.23,-0.32l0.17 -8.58 9.86 -0.41 -1.22 -9.54 -9.77 -1.07 -0.36 9.69 -8.88 -0.23 -0.09 -8.38c3.32,-0.07 6.98,0.38 9.88,-0.98l-0.63 -9.14 -9.81 -0.59 -0.18 -6.55c-2.04,2.06 -2.93,3.43 -5,5.15l-3.95 3.32c-0.1,0.13 -0.24,0.33 -0.34,0.46 -2.86,3.7 -6.85,6.57 -9.8,9.89l-11.48 11.42c-0.11,0.12 -0.28,0.3 -0.39,0.42 -0.06,0.07 -1.2,1.58 -1.77,2.28 -0.58,0.72 -1.99,2.16 -2.79,2.43l-3.98 -0.15c-0.32,-3.42 1.02,-3.96 3.14,-6.69l31.55 -30.93c-0.93,-0.86 0.85,0.07 -1.47,-0.7l-3.7 -0.71 -0.98 -8.67 -9.62 -0.64c0.11,2.84 0.34,6.72 -1.1,9.22l-8.12 -0.1 -0.29 -9.65c-11.52,-0.78 -9.61,1.73 -10.46,-9.77l-11.13 -0.16 -0.57 9.73 -9.87 0.03c0.4,10.56 2.2,10.71 -8.65,9.79l-0.07 -8.61c3.16,0.31 6.93,0.25 9.25,-0.4 0.51,-1.24 0,1.43 0.65,-2.36 0.16,-0.92 0.19,-1.54 0.23,-2.45 0.07,-1.75 -0.06,-4.02 -0.06,-5.81l-11.44 0c0,10.41 1.36,9.76 -9.04,9.84l-0.02 -9.84 -11.39 0c0,10.41 1.42,9.81 -9.06,9.81l0.05 -8.35c5.81,-1.19 9.82,2.4 10.38,-5.56 0.09,-1.33 -0.09,-2.84 0.03,-4.65l8.83 0c-0.2,3.73 -0.44,6.59 0.46,9.96l10.42 -0.4c0.84,-2.54 0.63,-1.77 0.62,-4.88 0,-1.62 -0.22,-3.24 -0.25,-5l8.89 -0.33c1.36,-2.6 0.16,-5.85 -0.12,-8.69l-8.46 -0.76 -1.18 9.07 -9.21 -0.07 -1.03 -9.11 -9.79 -0.36 -0.78 9.36 -8.79 0.02 -0.16 -9.25 9.68 -0.37 -0.7 -5.1c-5.39,0.6 -3.1,0.21 -8.95,-0.16 -0.08,1.08 -0.01,1.69 -0.31,2.83 -1.2,4.63 1.45,-3.93 -0.5,1.37l-10.06 1.07 -0.52 -6.9c-2.14,1.08 -0.64,0.41 -4.02,0.22 -1.72,-0.09 -3.28,-0.12 -5,-0.14l-0.65 6.86 -10.21 -0.07c-0.56,-13.36 -3.06,-4.79 -9.03,-8.34l-0.18 0.11 -1.06 8.36 -10.34 0.03 -0.6 -8.39c4.3,-2.23 28.91,-4.54 35.42,-4.95l25.35 1.47c11.77,2.69 21.64,2.58 32.94,6.53 2.64,0.92 7.15,2.73 9.71,3.36 4.8,1.2 14.8,4.34 19.05,7.07l8.8 4.26c4.72,2.38 8.56,5.7 13.34,7.85 3.77,1.7 7.75,4.93 10.94,7.22 3.25,2.33 5.55,5.37 5.83,3.18 3.3,-1.15 1.29,-1.25 3.74,-2.65l-2.13 -2.22c-5.08,-4.26 -16.79,-11.63 -22.52,-15.12 -28.73,-17.49 -68.61,-27.42 -103.41,-26.98 -54.27,0.67 -101.7,23.55 -132.54,51.04 -1.93,1.72 -3.35,3.6 -5.25,5.35 -46.53,42.61 -69.44,109.53 -61.15,173.16 3.63,27.89 10.81,43.7 20.51,66.25 4.02,-2.34 18.07,-17.47 22.53,-21.95l61.76 -61.75c2.03,-2 3.02,-4.35 6.49,-4.65 -0.33,4.05 -27.38,29.14 -32.01,33.9 -13.99,14.37 -46.54,45.2 -56.5,56.71 0.46,4.69 10.83,19.42 13.27,23.37z"/>
   <path class="fil1" d="M430.41 151.97c-3.86,1.86 -6.04,5.98 -9.29,9.05 -3.06,2.88 -6.95,5.59 -8.95,9.05 3.14,-1.33 3.49,-3.56 7.93,-0.77 -2.64,2.54 -3.53,2.05 -8.1,2.37l0.44 9.55 9.04 0.71 0.2 8.93c-2.54,0.81 -5.52,1.34 -8.68,1.34 -1.01,4.05 -0.13,6.03 -1.87,9.47l-8.82 0.73c0.35,7.42 -1.73,8.46 -8.26,14.94l-4.08 4.09c-0.12,0.11 -0.3,0.28 -0.42,0.39l-2.62 2.37c-4.59,4.34 -3.9,2.36 -4.15,7.27 2.93,0 2.34,0.28 4.84,-0.62 2.45,-0.88 4.85,-4.95 6.08,-6.51l1.09 -1.27c0.12,-0.11 0.29,-0.28 0.41,-0.38 3.31,-3 2.11,-0.9 6.91,-6.19l6.21 -6.09c0.12,-0.11 0.3,-0.28 0.42,-0.39 0.12,-0.11 0.3,-0.28 0.42,-0.39l5.02 -5.57c2.02,-2.31 3.47,-2.83 7.03,-2.85 1.77,2.66 1.4,6.44 1.5,9.65l9.24 0.78 0.38 9.19 -9.58 1.23 0 8.6 9.8 0.33 -0.02 10.69 -9.42 0.38 -0.34 9.86 -9.99 0 -0.21 8.6 8.73 -0.05 0.03 -9.36 11.33 0 -0.06 9.47 9.11 1.57 -0.04 7.88 -9.23 1.43 0.13 10.3 -9.73 0 -0.04 8.66 9.53 0.19 0.02 10.27 -9.59 0.75 -0.07 8.59 8.94 0.91 0.03 8.93 -9.23 1.19 -0.26 9.2 7.19 1.24c-3.03,1.16 -1,-0.58 -2.81,3.32l-1.7 3.81c-0.75,1.18 2.49,1.24 -2.82,1.17 1.38,1.37 -0.17,0.23 2.04,1.49 0.85,0.49 2.03,0.93 2.77,1.29 2.59,1.27 3.38,2 5.82,3.24 0.34,1.36 -0.85,0.21 0.99,1.52 1.6,1.14 0.91,0.87 3.07,1.01 11.68,-24.79 21.86,-54.21 22.03,-84.54 0.17,-28.42 -1.56,-43.31 -9.32,-69.7 -1.7,-5.79 -6.33,-15.27 -7.1,-20.11 3.72,-2.47 9.41,-8.94 12.99,-12.49 4.54,-4.5 8.51,-8.56 13.08,-13.09l19.18 -19.25c2.06,-2.03 5.52,-3.65 5.15,-7.1 -3.08,-0.2 -1.46,-0.25 -6.68,4.74 -2.36,2.26 -4.04,3.93 -6.54,6.56 -3.51,3.72 -9.47,9.12 -12.74,12.62l-25.93 25.44c-3.25,-6.21 -6.75,-14.68 -10.43,-19.64z"/>
   <path class="fil1" d="M381.61 97.14c-2.45,1.4 -0.44,1.5 -3.74,2.65 -0.28,2.19 -2.58,-0.85 -5.83,-3.18 -3.19,-2.29 -7.17,-5.52 -10.94,-7.22 -4.78,-2.15 -8.62,-5.47 -13.34,-7.85l-8.8 -4.26c-4.25,-2.73 -14.25,-5.87 -19.05,-7.07 -2.56,-0.63 -7.07,-2.44 -9.71,-3.36 -11.3,-3.95 -21.17,-3.84 -32.94,-6.53l-25.35 -1.47c-6.51,0.41 -31.12,2.72 -35.42,4.95l0.6 8.39 10.34 -0.03 1.06 -8.36 0.18 -0.11c5.97,3.55 8.47,-5.02 9.03,8.34l10.21 0.07 0.65 -6.86c1.72,0.02 3.28,0.05 5,0.14 3.38,0.19 1.88,0.86 4.02,-0.22l0.52 6.9 10.06 -1.07c1.95,-5.3 -0.7,3.26 0.5,-1.37 0.3,-1.14 0.23,-1.75 0.31,-2.83 5.85,0.37 3.56,0.76 8.95,0.16l0.7 5.1 -9.68 0.37 0.16 9.25 8.79 -0.02 0.78 -9.36 9.79 0.36 1.03 9.11 9.21 0.07 1.18 -9.07 8.46 0.76c0.28,2.84 1.48,6.09 0.12,8.69l-8.89 0.33c0.03,1.76 0.25,3.38 0.25,5 0.01,3.11 0.22,2.34 -0.62,4.88l-10.42 0.4c-0.9,-3.37 -0.66,-6.23 -0.46,-9.96l-8.83 0c-0.12,1.81 0.06,3.32 -0.03,4.65 -0.56,7.96 -4.57,4.37 -10.38,5.56l-0.05 8.35c10.48,0 9.06,0.6 9.06,-9.81l11.39 0 0.02 9.84c10.4,-0.08 9.04,0.57 9.04,-9.84l11.44 0c0,1.79 0.13,4.06 0.06,5.81 -0.04,0.91 -0.07,1.53 -0.23,2.45 -0.65,3.79 -0.14,1.12 -0.65,2.36 -2.32,0.65 -6.09,0.71 -9.25,0.4l0.07 8.61c10.85,0.92 9.05,0.77 8.65,-9.79l9.87 -0.03 0.57 -9.73 11.13 0.16c0.85,11.5 -1.06,8.99 10.46,9.77l0.29 9.65 8.12 0.1c1.44,-2.5 1.21,-6.38 1.1,-9.22l9.62 0.64 0.98 8.67 3.7 0.71c2.32,0.77 0.54,-0.16 1.47,0.7l-31.55 30.93c-2.12,2.73 -3.46,3.27 -3.14,6.69l3.98 0.15c0.8,-0.27 2.21,-1.71 2.79,-2.43 0.57,-0.7 1.71,-2.21 1.77,-2.28 0.11,-0.12 0.28,-0.3 0.39,-0.42l11.48 -11.42c2.95,-3.32 6.94,-6.19 9.8,-9.89 0.1,-0.13 0.24,-0.33 0.34,-0.46l3.95 -3.32c2.07,-1.72 2.96,-3.09 5,-5.15l0.18 6.55 9.81 0.59 0.63 9.14c-2.9,1.36 -6.56,0.91 -9.88,0.98l0.09 8.38 8.88 0.23 0.36 -9.69 9.77 1.07 1.22 9.54 -9.86 0.41 -0.17 8.58c4.89,0.26 5.71,0.59 9.23,0.32l0.03 -9.84c9.31,0.75 8.97,-0.98 8.78,3.31l13.63 -12.73c1.19,-1.56 0.95,-0.76 1.44,-3.04l-29.77 -30.43 54.68 -54.71c5.77,-10.98 -27.61,24.06 -28.36,24.81 -4.85,4.77 -25.5,27.17 -29.83,28.4z"/>
   <g>
    <path class="fil2" d="M361.31 428.28l0.11 1.02c8.95,5.59 16.09,17.1 40.17,17.18 17.49,0.05 31.03,-7.93 39.89,-17.27 15.6,-16.44 20.23,-41.65 8.17,-64.22 -5.24,-9.81 -11.3,-13.02 -12.93,-16.46 -2.16,-0.14 -1.47,0.13 -3.07,-1.01 -0.68,-0.48 -0.94,-0.63 -1.03,-0.69l0.01 -0.08c0.06,-0.06 0.17,-0.2 0.03,-0.75 -2.44,-1.24 -3.23,-1.97 -5.82,-3.24 -0.74,-0.36 -1.92,-0.8 -2.77,-1.29 -2.21,-1.26 -0.66,-0.12 -2.04,-1.49 -6.79,-0.31 -18.54,-7.16 -39.21,0.29 -23.5,8.48 -37.42,31.39 -35.49,56.44 0.93,12.07 7.27,26.2 13.98,31.57zm71.32 -81.53l0.03 -0.75 -0.03 0.75z"/>
   </g>
   <path class="fil3" d="M414.89 129.07c-0.49,2.28 -0.25,1.48 -1.44,3.04l-13.63 12.73c-3.01,5.44 -16.42,11.49 -11.21,23.52 1.58,3.63 5.52,7.18 10.56,7.56 7.28,0.56 9.33,-3.19 13,-5.85 2,-3.46 5.89,-6.17 8.95,-9.05 3.25,-3.07 5.43,-7.19 9.29,-9.05 4.19,-6.22 46.49,-44.65 48.96,-50.42 5.77,-13.5 -10.41,-24.57 -20.77,-15.09l-35.89 36.08c-2.79,2.64 -5.45,5.93 -7.82,6.53z"/>
   <path class="fil4" d="M90.66 374.25c-1.08,2.85 -29.41,29.92 -34.15,34.76 -6,6.12 -11.57,11.51 -17.59,17.6 -4.39,4.45 -15.27,12.95 -7.06,23.25 2.46,3.09 6.37,5.61 12.23,4.86 5.06,-0.65 8.15,-4.69 10.75,-7.29 6.54,-6.49 49.85,-50.87 53.19,-52.38 1.39,-3.48 7.94,-8.07 11.08,-11.8 4.77,-5.67 4.48,-18.69 -7.25,-20.91 -9.81,-1.86 -12.53,4.33 -18.01,9.55l-3.19 2.36z"/>
   <path class="fil4" d="M32.65 336.76c-16.32,5.8 -7.79,28.64 7.64,24.16 15.94,-4.62 8.83,-30.01 -7.64,-24.16z"/>
   <path class="fil3" d="M386.01 34.21c-11,5.2 -4.54,20.45 6.99,16.15 10.6,-3.96 3.77,-21.24 -6.99,-16.15z"/>
   <path class="fil2" d="M99.73 439.01c-9.76,3.37 -5.09,17.01 4.69,14 8.43,-2.6 4.21,-17.08 -4.69,-14z"/>
   <path class="fil4" d="M460.72 175.97c-2.08,1.36 -3.77,2.97 -1.83,6.38 0.97,1.71 3.76,3.38 6.77,2 4.98,-2.3 1.87,-12.85 -4.94,-8.38z"/>
  </g>
 </g>
</svg>
