<?xml version="1.0" encoding="UTF-8"?>
<!DOCTYPE svg PUBLIC "-//W3C//DTD SVG 1.1//EN" "http://www.w3.org/Graphics/SVG/1.1/DTD/svg11.dtd">
<!-- Creator: CorelDRAW 2021 (64-Bit) -->
<svg xmlns="http://www.w3.org/2000/svg" xml:space="preserve" width="512px" height="512px" version="1.1" style="shape-rendering:geometricPrecision; text-rendering:geometricPrecision; image-rendering:optimizeQuality; fill-rule:evenodd; clip-rule:evenodd"
viewBox="0 0 512 512"
 xmlns:xlink="http://www.w3.org/1999/xlink"
 xmlns:xodm="http://www.corel.com/coreldraw/odm/2003">
 <defs>
  <style type="text/css">
   <![CDATA[
    .fil0 {fill:#042D6B}
    .fil1 {fill:#797D40}
    .fil5 {fill:#F6C12D}
    .fil3 {fill:#FBC42B}
    .fil2 {fill:#FDC52B}
    .fil6 {fill:#FDFD00}
    .fil4 {fill:#FDFDFD}
   ]]>
  </style>
 </defs>
 <g id="Layer_x0020_1">
  <metadata id="CorelCorpID_0Corel-Layer"/>
  <g id="_2436521985712">
   <path class="fil0" d="M0 0l512 0 0 512 -512 0 0 -512zm433 354.55c0,0 -30.24,24.95 -30.24,24.95l-15.26 7.5 -16.79 5.71c-20.98,5.24 -45.58,6.08 -66.78,-0.14 -17.69,-5.2 -26.48,-9.9 -40.53,-19.47 -3.15,-2.15 -5.57,-4.19 -8.47,-6.52 -1.5,-1.2 -2.36,-2.2 -4.01,-3.5 -4.01,-3.21 -15.05,-16.29 -17.7,-20.3 -13.16,-19.89 -19.6,-36.32 -22.31,-60.19 -2.35,-20.68 0.64,-39.67 7.52,-58.66 1.88,-5.18 7.1,-15.97 10.07,-20.43l6 -9c11.57,-16.49 31.39,-33.07 49.64,-40.86 14.18,-6.05 19.15,-7.77 34.65,-10.35 13.69,-2.28 28.1,-2.08 42.17,0.75l12.15 2.86c22.74,6.37 40.34,17.97 56.77,34.22 1.55,1.53 2.06,2.54 3.49,4.01 3.04,3.13 7.44,9.05 9.83,12.67 1.2,1.82 1.87,2.55 3.02,4.48 9.42,15.79 15.17,30.63 17.81,49.69 0.61,4.37 0.89,9.62 1.4,14.1 1.14,10.2 -2.81,29.63 -5.32,39.54 -0.59,2.34 -1.08,3.49 -1.9,5.6 -4.47,11.54 -5.22,14.11 -12.23,25.77 -1.86,3.09 -3.9,5.91 -6.12,8.88l-6.86 8.69z"/>
   <path class="fil1" d="M214.61 512l9.14 0c3.96,-35.78 -4.85,-62.47 -25.91,-87.34 -6.67,-7.88 -20.39,-19.74 -29.43,-23.48l1.33 1.59c6.59,6.35 11.05,8.56 18.83,18.66 21.06,27.3 29.09,53.14 26.04,90.57z"/>
   <path class="fil2" d="M205.99 292.59l-0.1 -1.59c1.13,-1.25 1.06,-1.94 2.68,-2.53 -0.44,-5.4 0.33,-7.56 -3.57,-9.98 -3.61,-2.24 -7.92,-0.92 -9.95,1.56 -5,6.1 1.08,15.73 9.95,11.51 0.43,0.44 0.11,-0.59 0.99,1.03zm216.12 138.96c-6.5,-0.56 -5.52,5.63 -2.48,6.42 3.84,1 6.26,-3.01 2.48,-6.42zm14.78 -77.63l-3.89 0.63c-7.77,0.35 -18.29,6.85 -22.43,12.02 -2.7,3.37 -6.67,7.87 -7.81,12.93l-1.74 5.85c-0.04,0.15 -0.08,0.34 -0.12,0.44 -0.04,0.1 -0.12,0.32 -0.16,0.42 -0.05,0.11 -0.4,0.64 -0.51,0.76 0.77,0.87 0.38,-0.05 0.59,1.55 0.46,3.44 -1.84,11.2 4.76,22.89 11.73,20.81 39.29,26.24 58.81,9.98 20.53,-17.11 16.53,-54 -11.58,-64.72 -5.65,-2.15 -10.98,-1.75 -11.38,-3.31 -1.56,1.19 -1.98,0.99 -4.54,0.56zm75.11 -132.1l0 -134.3c-23.04,-0.33 -37.99,7.92 -49.74,19.23 -10.56,10.16 -20.31,26.66 -20.22,48.25 0.18,38.22 31.13,67.6 69.96,66.82zm-512 200.83l0 89.35 214.61 0c3.05,-37.43 -4.98,-63.27 -26.04,-90.57 -7.78,-10.1 -12.24,-12.31 -18.83,-18.66l-1.33 -1.59 -18.45 -11.14c-37.64,-19.6 -82.07,-17.16 -118.3,4.62 -19.51,11.73 -28.67,25.74 -31.66,27.99z"/>
   <path class="fil3" d="M465.65 21.82c2.82,0.65 8.87,0.7 10.62,2.45 1.31,1.46 1.83,8.14 2.41,10.57 1.13,-2.89 0.63,-8.55 2.53,-10.67 1.93,-1.56 7.6,-1.76 10.32,-2.23 -2.55,-1.6 -7.99,-0.69 -10.35,-2.61 -1.55,-1.86 -1.82,-7.42 -2.13,-10.08 -0.39,0.48 -0.33,0.27 -0.68,1.11 -1.12,2.68 -0.68,8.1 -2.27,9.23 -0.87,0.62 -8.56,1.47 -10.45,2.23zm-436.87 330.03c1.32,1.33 0.9,0.71 2.65,1.25l0.81 0.38 6.64 1.13 1.51 9.99c0.12,-0.09 0.32,-0.36 0.39,-0.25 0.06,0.1 0.28,-0.19 0.36,-0.24 0.09,-0.06 0.49,-0.32 0.62,-0.42 -0.17,-2.79 0.77,-6.53 1.28,-9.17l9.74 -1.55 0.43 -1.14 -10.15 -1.48 -1.5 -9.79 -1.08 -0.46c-0.08,3 -0.68,7.69 -1.87,10.02 -2.12,1.09 -6.94,1.75 -9.83,1.73zm209.33 90.12l0.16 0.98 10.09 1.69 1.61 10.25 1.08 -0.49 1.51 -9.87 10.13 -1.61 0.2 -0.96 -10.34 -1.59 -1.5 -9.79 -1.08 -0.49 -1.68 10.28 -10.18 1.6z"/>
   <path class="fil4" d="M0 57.72l0 9.24c1.44,-2.11 3.74,-10.64 4.76,-13.7 0.69,-2.06 4.51,-11.58 3.75,-13.41l-2.01 -0.45c-2.53,3.73 -4.09,14.7 -6.5,18.32zm0 213.13l0 8.1 7.5 -19.13 -2.64 -0.82 -4.86 11.85zm0 20.72l0 8.08c1.38,-1.8 15.4,-37.69 15.42,-39.98l-2.47 -0.69 -12.95 32.59zm32.82 -251.51l-2.88 -0.7 -12.19 37.39c-3.41,10.3 -4.56,10.24 -0.51,10.99l15.58 -47.68zm-18.96 -0.13l-13.86 42.11 0 5.48c2.15,0.05 1.52,0.48 2.34,-2.19l2.94 -9.07c1.29,-4.08 2.61,-7.87 3.96,-12.02 2.16,-6.58 6.72,-18.07 7.79,-24.32l-1.58 -0.25c-1.43,-0.02 -0.63,-0.15 -1.59,0.26zm11.14 47.74c1.22,-1.63 16.07,-46.25 15.51,-47.77l-2.01 -0.55c-1.17,1.55 -1.66,3.96 -2.28,5.86l-9.91 30.11c-0.62,1.95 -3.98,10.05 -3.33,11.86l2.02 0.49zm7.5 0.02c1.53,-1.38 7.2,-20.36 8.35,-23.84l7.36 -22.56 -2.21 -1.86c-1.38,2.49 -10.74,31.89 -12.46,37.14 -0.67,2.06 -1.3,3.83 -2,5.98 -1.82,5.62 -1.64,4.52 0.96,5.14zm8.71 0.08c1.28,-6.18 9.24,-28.57 12.15,-37.4 0.72,-2.18 1.4,-4.3 2.13,-6.39 1.11,-3.18 2.27,-4.23 -1.49,-4.49 -2.68,5.12 -6.23,18.43 -8.29,24.7 -1.35,4.15 -2.76,8.27 -4.12,12.44 -3.64,11.18 -4.64,10.33 -0.38,11.14zm-19.28 -47.66c-0.25,2.89 -9.7,30.27 -11.93,36.89 -3.25,9.71 -4.61,10.32 -0.38,10.59l15.47 -47.64 -1.47 -0.34c-1.25,0.1 -0.9,-0.03 -1.69,0.5zm-13.93 259.98c1.57,-2.31 15.52,-38.56 15.5,-40.47l-2 -0.64c-0.63,0.57 -0.07,-0.3 -0.88,1.16 -0.03,0.05 -0.54,1.28 -0.58,1.4 -0.36,0.94 -0.61,1.68 -0.94,2.54 -2.69,6.99 -13.02,32.02 -13.58,35.37l2.48 0.64zm31.5 0.02c1.13,-1.55 15.15,-37.37 15.81,-40.24l-2.31 -0.9c-1.06,1.32 -15.4,37.77 -15.92,40.42l2.42 0.72zm-16 0.05c0.1,-0.08 0.21,-0.21 0.26,-0.28 0.05,-0.07 0.19,-0.21 0.25,-0.29l1.85 -4.24c0.65,-1.8 1.22,-3.15 1.97,-5.04 1.29,-3.25 2.67,-6.67 3.93,-10.05 1.9,-5.08 6.82,-15.77 7.74,-20.44l-2.5 -0.77c-1.93,3.33 -11.66,30.06 -14.54,36.9 -1.37,3.24 -2.07,3.26 1.04,4.21zm-8 -0.02c1.2,-1.32 1.56,-2.99 2.26,-4.88 2.54,-6.9 13.44,-32.66 13.4,-35.74 -3.19,-0.8 -2.51,-0.57 -3.78,2.89l-10.33 26.63c-1.16,2.95 -3.17,7.39 -3.87,10.27l2.32 0.83zm31.48 -39.51l-0.31 -1.34 -2.15 -0.3 -15.52 40.45 2.37 0.82c1.94,-2.77 6.33,-15.72 7.99,-19.89 2.41,-6.03 5.83,-13.74 7.62,-19.74zm453.43 67.87c3.14,-7.52 -7.9,-10.98 -10.52,-4.61 -3.07,7.46 7.82,11.08 10.52,4.61zm-14.29 120c1.73,12.05 20.61,9.84 18.92,-2.99 -1.56,-11.84 -20.81,-10.2 -18.92,2.99zm-0.02 -30c1.51,11.32 19.82,9.54 18.11,-2.8 -1.53,-11.09 -19.78,-9.63 -18.11,2.8zm0.54 -30c2,9.82 19.03,7.79 16.61,-3.77 -2.25,-10.76 -18.94,-7.59 -16.61,3.77zm0.82 -31c1.74,8.54 16.3,6.44 14.05,-3.43 -2,-8.81 -16.04,-6.31 -14.05,3.43z"/>
   <path class="fil5" d="M42.41 183.56c0.18,-0.39 1.3,-2.53 1.06,-0.43 0.7,3.46 0.69,1.18 2.87,2.37l-1.38 1.04 -0.14 1.54 0.91 1.51 -1.2 -0.71c-1.88,-0.96 -1.68,-0.45 -3.47,0.42 0.21,-2.84 0.58,-2.36 -1.38,-3.92l2.6 -0.46 0.13 -1.36zm98.51 79.36l0.87 1.65 -1.3 -0.84c-2.28,-0.99 -4.21,-3.13 -6.49,-4.25 -2.22,1.06 -4.39,3.4 -6.53,4.18l-1.08 1.01 0.67 -1.78 2.03 -6.87c-1.47,-1.54 -6.13,-4.43 -6.93,-5.74l9.01 -0.11 2.63 -8.17 3.11 8.15 8.93 0.12c-0.84,1.36 -5.45,4.2 -6.88,5.73l1.96 6.92zm-90.98 -68l0.86 1.72 -1.15 -0.9c-1.88,-0.71 -4.47,-2.88 -6.15,-4.15 -1.52,0.5 -5.57,3.27 -6.66,4.43 -0.86,0.9 1.28,0.66 -1.42,0.77l0.95 -1.78 1.85 -6.97c-2.25,-2.04 -5.35,-3.38 -6.85,-5.62l8.54 -0.1 3.53 -7.32c0.57,1 0.08,-0.05 0.53,1.02 0.26,0.63 0.52,1.55 0.75,2.27 0.5,1.52 0.86,2.66 1.49,3.99l8.69 0.15c-1.89,2.23 -4.5,3.33 -6.77,5.57l1.81 6.92zm-16.28 3.61c-0.15,1.46 -0.21,0.56 0.43,0.81 2.77,-1.95 6.07,-4.26 8.91,-6.1 2.88,1.19 5.83,4.61 8.67,5.44 1.32,0.95 0.39,0.52 0.84,-0.27l-2.85 -9.91c2.11,-2.22 7.92,-5.36 9.15,-7.35l-11.82 -0.14c-0.74,-2.6 -2.6,-9.34 -4.07,-11.02l-3.92 11.01 -11.5 0.15c0.72,1.46 7.35,5.78 9.18,7.39l-3.02 9.99zm91.83 -153.4c0.73,-1.19 -0.41,-0.55 0.66,-0.22 0.59,0.18 0.2,-0.12 0.37,0.72l2.34 7.42 8.91 0.12c-1.84,1.77 -4.74,4.18 -6.97,5.1l2.45 8.74 -7.19 -4.73c-2.93,1.26 -4.72,3.61 -7.52,4.82l2.45 -8.08c-1.68,-2.34 -5.23,-3.29 -6.9,-5.84l8.86 -0.16 2.54 -7.89zm9.1 24.93c0.91,0.06 0.68,0.29 0.78,-0.57l-3 -10.66c1.58,-0.69 7.85,-5.22 9.16,-6.97l-11.39 -0.13c-1.48,-2.03 -3.1,-6.93 -3.38,-9.89l-1.31 -0.75 -3.7 10.64 -11.5 0.11c0.79,1.31 0.05,0.32 1.09,1.3l3.48 2.55c1.5,1.15 2.9,2.23 4.7,3.35l-3.45 11.43c3.47,-1.7 6.45,-5.01 9.93,-6.49 1.71,0.98 7.38,4.83 8.59,6.08zm40.12 67.88l2.72 8.13 8.93 0.14c-0.83,1.1 -5.55,4.59 -7.03,5.28l2.46 8.72c-2.53,-1.45 -4.52,-3.4 -7.29,-4.84 -2.62,1.49 -4.48,3.51 -7.34,4.58l2.46 -8.56c-1.56,-0.72 -5.81,-3.92 -6.94,-5.23l8.85 -0.11 3.18 -8.11zm-9.65 24.46l0.51 0.56 9.02 -6.12 8.92 6.07 0.47 -0.56 -1.41 -5.26c-0.43,-0.61 -0.03,0.51 -0.64,-1.02 -0.23,-0.58 -0.32,-1.2 -0.45,-1.75l-0.47 -2.38c1.44,-0.72 3.19,-2.19 4.66,-3.26 1.28,-0.94 3.72,-2.51 4.49,-3.82l-11.66 -0.06 -4 -10.9c-2.02,3.01 -2.21,7.9 -4.17,10.84l-11.47 0.15c0.08,0.11 0.2,0.25 0.26,0.32l4.24 3.43c1.48,1.08 3.22,2.53 4.84,3.3l-3.14 10.46zm96.62 -100.66l8.93 -0.16 2.71 -8.12 3.15 8.11 8.88 0.12c-0.85,1.15 -5.54,4.62 -6.92,5.26l2.42 8.5c-2.88,-1.07 -4.69,-3.12 -7.35,-4.57 -2.62,1.5 -4.47,3.5 -7.23,4.62l2.47 -8.55c-1.53,-0.68 -6.14,-4.11 -7.06,-5.21zm2.38 16.18l0.51 0.56 9.01 -6.1 8.88 6.08 0.5 -0.57 -2.96 -10.45 9.15 -7.06 -11.63 -0.07 -4.24 -10.98 -3.94 10.92 -11.5 0.15c0.66,0.96 0.04,0.24 1.04,1.21 0.33,0.31 0.75,0.61 1.14,0.89 0.74,0.55 1.5,1.09 2.31,1.68 1.49,1.08 3.21,2.54 4.85,3.29l-3.12 10.45zm-139.44 188.58l0.58 0.55c2.74,-1.85 6,-4.56 8.8,-5.97 1.8,0.81 6.97,4.63 8.7,6.01l0.67 -0.61 -2.88 -9.98c2.14,-2.53 7.81,-5.2 9.1,-7.53l-11.62 -0.09 -4.2 -10.98 -3.84 10.95 -11.55 0.13c0.76,1.45 7.36,6.12 9.29,7.08l-3.05 10.44zm5.86 -13.41c3.92,-0.27 1.73,0.32 3.52,-2.16 1.28,2.1 0.34,1.88 3.47,2.19 -1.92,1.68 -1.81,1.11 -1.41,3.96 -2.5,-1.31 -1.74,-1 -4.16,-0.01 0.41,-2.76 -0.01,-2.57 -1.42,-3.98zm-0.26 5.47l-0.19 1.3 0.85 -0.58c1.54,-0.51 1.69,-1.02 3.12,-1.65l4.4 2.8 -1.22 -4.92c1.32,-1.68 1.63,-1.33 2.86,-2.48 0.76,-0.72 0.57,-0.6 0.99,-1.17l-4.86 -0.17c-1.03,-1.4 -1.14,-3.18 -2.17,-4.77 -0.99,1.45 -1.12,3.27 -2.2,4.78l-4.88 0.07c1.17,1.75 2.11,2.09 3.85,3.39l-0.55 3.4zm-4.76 -204.49c0.68,-0.66 -0.92,-1.05 0.81,-0.47l0.58 1.46c0.33,1.23 0.6,0.24 2.32,1.53 -2.32,0.95 -1.66,0.7 -1.2,3.43 -1.23,-0.6 -1.81,-1.35 -3.11,-0.46 -0.88,0.81 1.28,0.64 -1.39,0.66l0.62 -1.3c-0.09,-1.75 -0.79,-2.06 -1.59,-2.91l2.52 -0.31 0.44 -1.63zm-3.87 8.44l0.53 0.39 3.76 -2.55c1.77,1 2.87,2.16 4.48,2.99l-1.38 -5.36c0.98,-0.56 3.35,-2.18 4.12,-3.34 -5.72,-0.04 -5.75,0.81 -6.37,-3.8l-1.3 -0.84 -1.37 4.54 -5.53 0.1c1.24,1.45 2.37,1.88 4,3.36l-0.94 4.51zm56.3 86.58c-2.13,1.74 -1.61,1.04 -1.34,3.86 -2.92,-1.39 -1.19,-1.3 -4.1,0.03 0.43,-3.16 0.35,-2.02 -1.34,-3.94l2.38 -0.17 1.01 -1.99c1.22,1.79 0.62,1.75 3.39,2.21zm-7.48 5.63c0.5,1.03 -0.53,1.52 0.9,0.43 1.66,-0.44 1.63,-0.8 3.19,-1.62 1.15,0.55 2.75,1.43 3.5,2.45l0.81 -0.4 -1.13 -4.47c1.45,-1.15 2.87,-2.2 4.15,-3.4l-5.44 -0.23 -2.02 -4.85 -1.87 4.92 -5.34 0.18c1.29,1.25 2.73,2.4 4.22,3.33l-0.97 3.66zm106.5 -90.12c-1.95,1.58 -1.76,0.88 -1.41,3.96l-2.04 -1.16 -2.02 1.09c0.37,-2.79 0.29,-2.49 -1.36,-3.95l2.42 -0.16 1.15 -2.06 0.9 1.99 2.36 0.29zm-7.51 5.61c0.51,1.05 -0.53,1.53 0.91,0.45 1.7,-0.44 1.63,-0.79 3.19,-1.61l4.38 2.8 -1.21 -5.24c1.48,-1.13 2.87,-2.15 4.13,-3.35l-5.3 -0.19 -1.81 -4.78 -2.08 4.71 -5.44 0.21c1.24,1.21 2.71,2.26 4.16,3.37l-0.93 3.63zm-226.97 109.37l-1.14 4.11 -5.44 0.26c1.4,1.75 2.84,2.09 4,3.55l-0.91 3.78c0.12,0.9 -0.16,0.75 0.63,0.71 1.32,-0.61 1.94,-1.3 3.43,-2.19 2.08,0.83 2.64,1.84 4.6,2.68l-1.31 -4.96c1.35,-1.38 2.73,-1.98 4.08,-3.39l-5.34 -0.31 -1.56 -4.68 -1.04 0.44z"/>
   <path class="fil6" d="M460.5 322.16c0.49,-0.45 0.29,-0.19 0.77,-0.88l4.2 -11.73 -2.83 -0.83c-0.91,1.66 -4.64,10.96 -4.5,12.56l2.36 0.88zm-3.97 -110.09l4.57 11.47 2.87 -0.72 -0.38 -2.74 -4.04 -9.95 -2.48 0.54 -0.54 1.4zm-27.53 -38.53c1.46,-0.87 1.54,-0.86 2.2,-2.75 -2.47,-1.66 -7.75,-7.22 -10.29,-8.21l-1.63 2.42c0.86,1.26 0.29,0.48 1.34,1.39l3.55 2.94c1.87,1.5 2.81,3.15 4.83,4.21zm-73.97 -35.77l2.98 0.45c0.09,-0.1 0.27,-0.4 0.32,-0.3l0.83 -0.92 -0.21 -1.85c-3.52,-0.45 -9.94,-1.65 -13.31,-1.1l0.15 3.13 9.24 0.59zm-70.08 253.9l12.72 4.37 0.81 -3.05 -12.51 -4.51 -1.02 3.19zm78.05 7.83l-0.39 -2.71 -13.23 2.21 0.18 2.63 13.44 -2.13zm-157.01 -106.91l0.16 1.93 3.34 -0.58 -0.92 -5.47c-1.62,0.59 -1.55,1.28 -2.68,2.53l0.1 1.59zm122.7 109.16l13.76 0.49 -0.13 -3.28 -17.81 -0.46 0.2 3.25 3.98 0zm-111.19 -186.22c0.92,-0.91 5.67,-10.49 5.97,-11.95l-3.09 -1.25c-1.38,3.92 -4.61,7.84 -5.56,12.23l2.68 0.97zm21.5 -33.67c0.94,-0.68 8.38,-8.6 9.02,-9.45l-2.02 -2.05c-1.8,0.9 -8.54,7.85 -9.44,9.71l2.44 1.79zm229.05 69.75l0.95 11.01 3.3 -0.07 -1.09 -13.31 -3.23 0.54 0.07 1.83zm-102.57 -111.83l12.68 3.28 0.95 -3.19 -13.17 -3.28 -0.46 3.19zm104.46 152.32l-1.08 -2.58c-0.04,-0.16 -0.19,-0.15 -0.29,-0.22 -2.01,0.42 -1.52,0.24 -1.94,2.73l-2.02 10.29 3.07 0.7c0.71,-2.31 2.29,-8.44 2.26,-10.92zm-170.56 -149.61l-0.88 -3.17 -12.44 4.68c0.06,1.59 0.02,1.36 1.01,3.09l12.31 -4.6zm18.3 254.86c-2.91,-0.45 -5.36,-0.87 -8.07,-1.5 -3.81,-0.9 -5.07,-2.3 -5.19,2.38l13.24 2.46 0.02 -3.34zm64.4 -2.17c0.38,-0.92 0.28,-0.34 0.25,-1.64l-0.54 -2.01 -12.7 3.99 0.97 3.04 12.02 -3.38zm-43.22 -258.38l-0.01 -3.33 -13.49 0.65 0.25 3.31 13.25 -0.63zm124.61 94l1.19 3.18c0.11,1.63 0.55,2.84 0.91,4.46 0.43,1.95 0.35,2.77 1.43,4.33l2.55 -0.39c0.3,-4.23 -2.02,-8.05 -2.34,-11.98 -1.61,-1.37 0.07,-0.44 -1.86,-0.89 -2.19,0.39 -1.47,0.15 -1.88,1.29zm-12.47 109.37c0.74,-0.71 0.49,-0.42 1.21,-1.47l5.62 -10.13 -2.83 -1.25c-1.2,1.42 -5.88,9.47 -6.6,11.36l2.6 1.49zm-247.55 -76.26c0.23,3.19 -0.55,7.51 0.55,10.31l2.97 -0.13 0.05 -12.7 -3.01 -0.43 -0.56 2.95zm10.62 49.76c0.51,-1.02 0.33,-0.14 0.32,-1.65l-2.8 -9.93 -1.09 -1.33 -1.86 0.5c-0.85,0.48 -0.69,-1.12 -0.56,1.57l3.45 11.29 2.54 -0.45zm104.1 -175.19c0.51,-1.95 0.43,-0.88 0,-3.1l-2.46 0.1c-2.52,0.16 -8.95,1.07 -10.5,2.53l0.82 2.72 12.14 -2.25zm-57.06 239.47l1.57 -2.45 -1.35 -1.33c-0.53,-0.42 -0.72,-0.51 -1.17,-0.83l-7.85 -6.02 -1.77 2.68c1.87,1.83 8.32,7.1 10.57,7.95zm-34.11 -180.09c1.05,-0.96 7.16,-9.85 7.52,-10.93l-2.52 -1.49c-1.71,1.84 -6.91,8.55 -7.54,11.11l2.54 1.31zm173.23 189.11c0.11,-0.12 0.46,-0.65 0.51,-0.76 0.04,-0.1 0.12,-0.32 0.16,-0.42 0.04,-0.1 0.08,-0.29 0.12,-0.44l-0.91 -1.83c-2.57,0.76 -9.25,4.19 -12,5.51 0.38,1.57 0.37,1.83 1.48,3.14l10.64 -5.2zm-164.29 -32.08c2.38,2.95 6.16,8.52 9.6,10.11 0.78,-1.08 1.15,-1.16 1.78,-2.44 -2.93,-3 -5.97,-6.08 -8.95,-9.35l-2.43 1.68zm148.63 -209.49l12.09 5.21 1.24 -2.61c-1.74,-1.67 -9.38,-5.03 -12.44,-5.52l-0.89 2.92zm62.66 50.36l5.86 9.53 2.86 -1.32c-0.81,-2.35 -5.38,-9.78 -7.02,-11.58l-2.43 1.61c0.02,0.04 0.29,0.97 0.73,1.76zm-237.64 45.17l-3.09 -0.35c-0.99,2.17 -2.18,10.72 -2.02,13.33l3.09 0.05 2.02 -13.03zm232.34 -52.24l2.82 -1.48c-0.48,-1.87 -0.98,-2.21 -2.04,-3.43l-6.24 -7.53 -2.5 2.25c0.77,1.57 6.58,7.36 7.96,10.19zm-173.01 -32.6c1.28,-0.27 10.81,-5.14 11.77,-6.59l-0.81 -2.02c-2.48,-0.28 -10.36,4.42 -12.2,6.05l1.24 2.56zm-41.47 188.47c1.26,1.82 2.5,3.84 4.12,5.23l2.39 -1.69c-0.35,-0.85 -6.56,-10 -7.49,-10.94l-2.54 1.25c0.83,2.57 1.83,3.69 3.52,6.15zm175.14 -190.59c3.55,2.26 7.51,4.74 11.04,6.97l1.75 -2.44c-1.14,-1.62 -8.89,-6.51 -11.31,-7.38l-1.48 2.85zm-135.58 228.03c2.07,1.63 9.05,5.59 11.64,6.41l1.28 -2.97c-2.1,-1.14 -9.71,-5.61 -11.58,-6.17l-1.34 2.73zm-14.04 -214.06c0.77,-0.36 9.41,-6.87 10.48,-7.94 -0.43,-1.17 -0.8,-1.51 -1.27,-2.67 -2.19,0.7 -9.84,6.61 -11.04,8.21l1.83 2.4zm-41.97 66.43c0.89,-1.4 3.95,-11.22 3.85,-12.69l-2.99 -0.85c-1.02,3.87 -3.36,8.5 -3.66,12.88l2.8 0.66zm9 98.07c1.27,-0.08 1.96,-0.57 3.03,-0.95 -0.69,-3.01 -4.24,-8.39 -5.54,-12.15l-3.1 1.11c0.59,2.86 4.01,9.26 5.61,11.99zm251.91 -55.85l0.1 -6.92 -3.06 -0.06 -0.59 13.03 3.15 0.34 0.4 -6.39zm-35.02 77.33c2.56,0.43 2.98,0.63 4.54,-0.56 1.34,-0.96 4.93,-5.73 5.63,-7.48l-2.56 -1.49c-1.63,1.75 -2.49,3.15 -3.81,4.8 -1.43,1.79 -2.61,2.88 -3.8,4.73z"/>
  </g>
 </g>
</svg>
