<?xml version="1.0" encoding="UTF-8"?>
<!DOCTYPE svg PUBLIC "-//W3C//DTD SVG 1.1//EN" "http://www.w3.org/Graphics/SVG/1.1/DTD/svg11.dtd">
<!-- Creator: CorelDRAW 2021 (64-Bit) -->
<svg xmlns="http://www.w3.org/2000/svg" xml:space="preserve" width="512px" height="512px" version="1.1" style="shape-rendering:geometricPrecision; text-rendering:geometricPrecision; image-rendering:optimizeQuality; fill-rule:evenodd; clip-rule:evenodd"
viewBox="0 0 512 512"
 xmlns:xlink="http://www.w3.org/1999/xlink"
 xmlns:xodm="http://www.corel.com/coreldraw/odm/2003">
 <defs>
  <style type="text/css">
   <![CDATA[
    .fil0 {fill:#003249}
    .fil4 {fill:#2A5C72}
    .fil1 {fill:#497D95}
    .fil5 {fill:#CFC3B9}
    .fil3 {fill:#E6DCD6}
    .fil6 {fill:#E8E8E7}
    .fil2 {fill:#ED9376}
   ]]>
  </style>
 </defs>
 <g id="Layer_x0020_1">
  <metadata id="CorelCorpID_0Corel-Layer"/>
  <g id="_2436746724528">
   <path class="fil0" d="M0 349.85c3.11,0 39.75,-0.2 41,0.14l34.42 24.28c4.61,3.33 9.14,6.4 13.8,9.74 2.43,1.74 4.52,3.21 6.92,4.98 3.92,2.89 23.12,15.81 23.64,17.34l0.12 14.5c0.01,6.53 0.01,13.06 0,19.59 -0.01,3.86 1.01,7.9 -2.01,8.43 -1.58,0.27 -47.44,0.03 -54.63,0.07 -3.66,0.02 -3.08,0.29 -5.1,-1.19l-30.76 -21.92c-2.36,-1.71 -4.71,-3.16 -7.02,-4.91 -2.17,-1.64 -4.47,-3.31 -6.78,-4.82 -3.55,-2.32 -11.19,-8.24 -13.6,-9.61l0 105.53 512 0 0 -62.95c-4.2,-0.09 -7.71,-1.07 -9.68,-2.77 -1.86,-1.6 -2.12,-1.22 -3.44,-2.23 -2.52,-1.94 -5.79,-3.12 -9.83,-2 -2.64,0.73 -5.83,3.08 -7.2,4.27 -3.52,3.05 -12.93,4.25 -18.87,-0.13 -2.78,-2.05 -6.93,-5.88 -13.37,-4.1 -4.72,1.3 -7.23,7.15 -16.97,6.92 -9.26,-0.22 -10.66,-6.12 -16.64,-7.12 -8.98,-1.52 -10.01,4.67 -17.13,6.54 -3.51,0.92 -7.91,0.69 -10.91,-0.39 -3.19,-1.15 -5.19,-3.1 -7.25,-4.48 -4.92,-3.3 -8.33,-0.85 -8.35,-3.39 -0.01,-2.86 7.27,-1.01 9.19,-0.08 4.64,2.25 9.24,8.61 17.3,4.94 1.49,-0.68 2.08,-1.47 3.46,-2.25 1.46,-0.82 1.94,-1.53 3.38,-2.28 2.69,-1.4 6.47,-2.22 10.56,-1.72 6.06,0.76 7.66,3.91 11.72,6.02 5.32,2.76 10.02,0.77 13.59,-2.19 3.63,-3 11.64,-6.06 18.79,-2.39 3.47,1.78 9.22,8.74 17.21,4.61 2.78,-1.44 4.09,-3.16 7.03,-4.66 6,-3.05 13.7,-1.59 18.8,2.48 2.06,1.65 3.8,3.2 8.61,3.37l0 -446.02 -70.26 0c-0.55,6.67 -3.87,14.24 -7.76,19.49l-6.78 7.71c-2.12,2 -2.97,2.37 -4.08,3.35 -2.7,2.36 -5.58,4.2 -8.92,6.17 -11.96,7.05 -29.72,11.23 -45.56,11.26 -9.83,0.02 -21.07,-1.72 -29.22,-4.38 -10.29,-3.35 -21.58,-9.03 -28.28,-15.59 -0.37,-0.36 -0.64,-0.58 -0.98,-0.88 -8.18,-7.46 -13.03,-17.33 -14.51,-27.13l-295.65 0 0 349.85zm256 -262.03c92.88,0 168.18,75.3 168.18,168.18 0,92.88 -75.3,168.18 -168.18,168.18 -92.88,0 -168.18,-75.3 -168.18,-168.18 0,-92.88 75.3,-168.18 168.18,-168.18z"/>
   <path class="fil1" d="M0 354.06l36.97 -0.01 0.02 32.56c-1.25,-0.47 -24.86,-17.43 -27.82,-19.6 -1.54,-1.14 -3.02,-2.18 -4.61,-3.25 -1.63,-1.09 -2.93,-2.19 -4.56,-3.22l0 5.95c1.12,0.47 3.2,2.11 4.33,2.92 1.4,0.99 2.55,1.88 3.99,2.9l20.38 14.44c0.76,0.55 1.25,0.86 2.03,1.42l1.8 1.51c0.03,-0.04 0.12,0.15 0.18,0.15l-32.71 0 0 4.2 38.64 0.04c0.89,0.16 19.19,13.36 19.35,13.78 0.57,1.57 -0.45,28.97 0.15,33.74 -1.29,-0.51 -2.59,-1.71 -3.7,-2.44 -1.35,-0.89 -2.37,-1.65 -3.7,-2.57 -2.57,-1.78 -4.89,-3.44 -7.28,-5.27 -8.05,-6.17 -20.44,-14.14 -29,-20.54l-14.46 -10.18 0 5.88c2.41,1.37 10.05,7.29 13.6,9.61 2.31,1.51 4.61,3.18 6.78,4.82 2.31,1.75 4.66,3.2 7.02,4.91l30.76 21.92c2.02,1.48 1.44,1.21 5.1,1.19 7.19,-0.04 53.05,0.2 54.63,-0.07 3.02,-0.53 2,-4.57 2.01,-8.43 0.01,-6.53 0.01,-13.06 0,-19.59l-0.12 -14.5c-0.52,-1.53 -19.72,-14.45 -23.64,-17.34 -2.4,-1.77 -4.49,-3.24 -6.92,-4.98 -4.66,-3.34 -9.19,-6.41 -13.8,-9.74l-34.42 -24.28c-1.25,-0.34 -37.89,-0.14 -41,-0.14l0 4.21z"/>
   <path class="fil0" d="M435.69 0l-9.65 0c-2.42,14.94 -21.23,27.43 -44.23,27.36 -22.81,-0.07 -41.4,-12.53 -43.84,-27.36l-36.19 0c0.98,9.15 6.37,18.44 14.28,25.28 4.43,3.82 4.77,4.36 10.88,7.91 11.29,6.57 26.72,10.43 41.7,10.43 14.28,0.01 30.79,-3.75 41.59,-10.26 2.48,-1.5 2.15,-1.05 4.24,-2.71 2.83,-2.25 4.18,-2.61 7.59,-5.81 2.43,-2.28 4.07,-4.23 6.21,-7.06 4.05,-5.34 6.52,-11.1 7.42,-17.78z"/>
   <path class="fil2" d="M426.04 0l-88.07 0c2.44,14.83 21.03,27.29 43.84,27.36 23,0.07 41.81,-12.42 44.23,-27.36z"/>
   <path class="fil0" d="M109.58 404.71c-0.7,-0.97 -14.28,-10.45 -16.31,-11.83 -2.92,-1.99 -5.64,-3.94 -8.42,-6.01l-16.69 -11.85c-3.23,-2.19 -24.01,-17.4 -25.32,-17.88 0.39,10.82 -0.31,22.12 -0.01,32.63 0.04,1.38 0.39,1.42 1.37,2.11l16.68 11.85c1.04,0.73 0.86,0.94 2.39,1.02l46.31 -0.04z"/>
   <path class="fil0" d="M0 400.59l14.46 10.18c8.56,6.4 20.95,14.37 29,20.54 2.39,1.83 4.71,3.49 7.28,5.27 1.33,0.92 2.35,1.68 3.7,2.57 1.11,0.73 2.41,1.93 3.7,2.44 -0.6,-4.77 0.42,-32.17 -0.15,-33.74 -0.16,-0.42 -18.46,-13.62 -19.35,-13.78l-38.64 -0.04 0 6.56z"/>
   <path class="fil1" d="M441.74 0l-6.05 0c-0.9,6.68 -3.37,12.44 -7.42,17.78 -2.14,2.83 -3.78,4.78 -6.21,7.06 -3.41,3.2 -4.76,3.56 -7.59,5.81 -2.09,1.66 -1.76,1.21 -4.24,2.71 -10.8,6.51 -27.31,10.27 -41.59,10.26 -14.98,0 -30.41,-3.86 -41.7,-10.43 -6.11,-3.55 -6.45,-4.09 -10.88,-7.91 -7.91,-6.84 -13.3,-16.13 -14.28,-25.28l-6.13 0c1.48,9.8 6.33,19.67 14.51,27.13 0.34,0.3 0.61,0.52 0.98,0.88 6.7,6.56 17.99,12.24 28.28,15.59 8.15,2.66 19.39,4.4 29.22,4.38 15.84,-0.03 33.6,-4.21 45.56,-11.26 3.34,-1.97 6.22,-3.81 8.92,-6.17 1.11,-0.98 1.96,-1.35 4.08,-3.35l6.78 -7.71c3.89,-5.25 7.21,-12.82 7.76,-19.49z"/>
   <path class="fil2" d="M114.03 441.51c0.04,-7.54 0.34,-25.12 -0.02,-32.4 -12.18,-0.4 -30.48,-0.15 -42.7,-0.1l-2.34 0.02c0.43,1.31 9.04,7.01 10.89,8.31 2.59,1.83 32.88,23.79 34.17,24.17z"/>
   <path class="fil2" d="M64.17 444.71l45.33 0.06c-0.1,-0.2 -42.41,-30.94 -45.42,-32.51 -0.28,4.05 -0.49,29.63 0.09,32.45z"/>
   <path class="fil0" d="M0 360.54c1.63,1.03 2.93,2.13 4.56,3.22 1.59,1.07 3.07,2.11 4.61,3.25 2.96,2.17 26.57,19.13 27.82,19.6l-0.02 -32.56 -36.97 0.01 0 6.48z"/>
   <path class="fil3" d="M512 446.02c-4.81,-0.17 -6.55,-1.72 -8.61,-3.37 -5.1,-4.07 -12.8,-5.53 -18.8,-2.48 -2.94,1.5 -4.25,3.22 -7.03,4.66 -7.99,4.13 -13.74,-2.83 -17.21,-4.61 -7.15,-3.67 -15.16,-0.61 -18.79,2.39 -3.57,2.96 -8.27,4.95 -13.59,2.19 -4.06,-2.11 -5.66,-5.26 -11.72,-6.02 -4.09,-0.5 -7.87,0.32 -10.56,1.72 -1.44,0.75 -1.92,1.46 -3.38,2.28 -1.38,0.78 -1.97,1.57 -3.46,2.25 -8.06,3.67 -12.66,-2.69 -17.3,-4.94 -1.92,-0.93 -9.2,-2.78 -9.19,0.08 0.02,2.54 3.43,0.09 8.35,3.39 2.06,1.38 4.06,3.33 7.25,4.48 3,1.08 7.4,1.31 10.91,0.39 7.12,-1.87 8.15,-8.06 17.13,-6.54 5.98,1 7.38,6.9 16.64,7.12 9.74,0.23 12.25,-5.62 16.97,-6.92 6.44,-1.78 10.59,2.05 13.37,4.1 5.94,4.38 15.35,3.18 18.87,0.13 1.37,-1.19 4.56,-3.54 7.2,-4.27 4.04,-1.12 7.31,0.06 9.83,2 1.32,1.01 1.58,0.63 3.44,2.23 1.97,1.7 5.48,2.68 9.68,2.77l0 -3.03z"/>
   <path class="fil0" d="M0 389.83l32.71 0c-0.06,0 -0.15,-0.19 -0.18,-0.15l-1.8 -1.51c-0.78,-0.56 -1.27,-0.87 -2.03,-1.42l-20.38 -14.44c-1.44,-1.02 -2.59,-1.91 -3.99,-2.9 -1.13,-0.81 -3.21,-2.45 -4.33,-2.92l0 23.34z"/>
   <path class="fil2" d="M470.49 336.43c-17.74,2.25 -21.84,16.54 -17.34,18.04 4.89,1.61 4.54,-3.62 4.69,-4.18 1.57,-6.19 10.42,-11.15 20.6,-9.43 5.59,0.95 10.03,4.18 11.78,7.76 1.19,2.42 0.05,5.3 3.1,5.91 9.54,1.9 1.57,-21.2 -22.83,-18.1z"/>
   <path class="fil2" d="M110.09 20.77c-11.55,1.07 -21.51,8.89 -19.5,18.52 2.59,12.39 22.1,15.8 25.04,13.26 1,-0.88 0.78,-2.24 -0.06,-2.93 -1.76,-1.44 -6.44,0.3 -12.62,-3.25 -10.96,-6.3 -7.06,-17.55 4.11,-20.58 3.19,-0.86 7.46,-0.46 8.69,-1.88 0.95,-1.1 0.24,-2.42 -0.72,-2.88 -1.16,-0.56 -3.38,-0.4 -4.94,-0.26z"/>
   <path class="fil4" d="M94.72 304.59c-2.33,0.52 -2.94,0.69 -3.9,1.97 -3.55,4.75 1.7,8.45 7.37,7.71 -1.18,-3.2 -2.26,-6.44 -3.25,-9.73l-0.22 0.05z"/>
   <path class="fil4" d="M90.93 288.27c-2.36,2.17 -1.47,5.44 1.53,7.08 -0.56,-2.34 -1.07,-4.7 -1.53,-7.08z"/>
   <path class="fil5" d="M58.32 96.53l3.69 2.45c-1.31,1.09 -2.92,1.87 -3.66,3.03l1.62 0.81 3.59 -2.54c1.58,0.6 2.25,1.65 4.1,2.54l1.78 -1.18 -3.89 -2.94c0.99,-0.42 3.18,-2.01 3.75,-2.57l-1.23 -1.08c-1.74,0.6 -2.58,1.8 -4.08,2.54 -0.89,-0.6 -2.89,-1.89 -3.45,-2.59 -1.21,0.39 -1.56,0.67 -2.22,1.53z"/>
   <path class="fil3" d="M36.06 96.52l3.72 2.47c-1.21,1.05 -2.87,1.63 -3.72,3.01 0.69,0.36 0.8,0.54 1.51,0.87l3.72 -2.55c1.77,0.54 2.48,1.76 3.98,2.52l1.82 -1.18c-1.19,-1.08 -2.84,-1.86 -3.71,-3.01l3.72 -2.48c-0.7,-0.61 -0.78,-0.54 -1.26,-1.14 -1.85,0.53 -2.75,1.78 -4.11,2.59 -0.79,-0.42 -3.07,-2.03 -3.56,-2.62 -1.24,0.42 -1.58,0.65 -2.11,1.52z"/>
   <path class="fil6" d="M13.77 96.5l3.66 2.48c-1.16,1.04 -2.9,1.82 -3.63,3.01 0.68,0.37 0.74,0.53 1.49,0.86l3.66 -2.56c1.81,0.65 2.35,1.86 4.04,2.55l1.74 -1.18c-1.21,-1.17 -2.76,-1.66 -3.66,-3.04l3.67 -2.45c-0.63,-0.59 -0.76,-0.59 -1.23,-1.14 -1.9,0.57 -2.66,1.8 -4.14,2.57 -1.55,-0.74 -2.23,-1.87 -4.01,-2.52 -0.81,0.56 -1.06,0.6 -1.59,1.42z"/>
  </g>
 </g>
</svg>
