<?xml version="1.0" encoding="UTF-8"?>
<!DOCTYPE svg PUBLIC "-//W3C//DTD SVG 1.1//EN" "http://www.w3.org/Graphics/SVG/1.1/DTD/svg11.dtd">
<!-- Creator: CorelDRAW 2021 (64-Bit) -->
<svg xmlns="http://www.w3.org/2000/svg" xml:space="preserve" width="512px" height="512px" version="1.1" style="shape-rendering:geometricPrecision; text-rendering:geometricPrecision; image-rendering:optimizeQuality; fill-rule:evenodd; clip-rule:evenodd"
viewBox="0 0 512 512"
 xmlns:xlink="http://www.w3.org/1999/xlink"
 xmlns:xodm="http://www.corel.com/coreldraw/odm/2003">
 <defs>
  <style type="text/css">
   <![CDATA[
    .fil6 {fill:black}
    .fil2 {fill:#01CECF}
    .fil0 {fill:#25D1F3}
    .fil4 {fill:#3BD9F2}
    .fil5 {fill:#5ACBD5}
    .fil1 {fill:#7DFED5}
    .fil3 {fill:#FEF031}
   ]]>
  </style>
 </defs>
 <g id="Layer_x0020_1">
  <metadata id="CorelCorpID_0Corel-Layer"/>
  <g id="_2436699444288">
   <path class="fil0" d="M0 149.17l0 362.83 67.57 0c-0.3,-0.1 -0.77,-0.19 -1.39,-0.27 62.77,0.24 125.56,0.27 188.33,0.27l146.05 0c-1.07,-0.56 -14.23,-0.3 -15.41,-0.3l-47.3 -0.15c-5.14,0 -10.55,-0.2 -15.66,-0.03 -19.25,0.63 -22.82,-0.09 -39.62,-7.5 2.17,-1.17 4.12,-2.6 5.48,-4.73 1.68,-2.64 1.85,-5.89 -0.26,-8.17 10.45,-0.17 11.12,0.62 22.32,-1.36 6.63,-1.18 13.24,-3.24 18.79,-5.48 10.72,-4.31 17.19,-9 26.19,-15.87 0.99,-0.76 2.55,-2 3.22,-2.82l-188.5 0.06 0.09 -31.35c-2.72,-0.59 -19.74,-11.22 -22.65,-13.34 -0.99,-0.72 -2.03,-1.71 -3.2,-2.02l0 -1.84c-1.72,0.03 -0.93,0.22 -2.15,0.48 -0.75,0.16 -1.37,0.15 -2.15,0.14 -1.53,-0.02 -2.88,-0.14 -4.41,-0.06l-44.12 0.05c0.89,-2.53 -0.19,0.02 0.5,-0.96l2.57 -1.75 -7.68 -0.06c2.7,-4.12 17.02,-19.68 17.51,-21.49l-10.46 -11.96c-0.64,-0.83 -1.09,-1.14 -1.76,-1.94 -0.79,-0.95 -0.99,-1.29 -1.93,-2.23 -0.57,-0.55 -0.91,-1.17 -1.61,-1.9 -0.63,-0.66 -1.31,-1.54 -1.76,-2.26 4.15,0 7.37,-0.32 11.68,-0.31 -6.54,-9.38 -12.89,-19.17 -17.71,-29.57 -8.23,-17.77 -14.52,-35.85 -17.39,-55.71 -0.32,-2.23 -0.82,-5.12 -1.08,-7.51 -4.5,-41.08 1.82,-74.13 17.45,-109.29 2.78,-6.23 8.44,-16.28 12.34,-22.36 3.72,-5.8 13.35,-19.43 18.45,-24.56l4.09 -4.5c1.18,-1.53 10.67,-10.97 12.99,-12.82l9.35 -7.84c5.61,-4.57 14.36,-10.54 20.5,-14.21 4.46,-2.67 12.05,-6.99 16.67,-9.13 16.51,-7.65 33.72,-13.72 52.07,-16.73 9.42,-1.55 20.41,-3.03 31.37,-3.03 4.04,0 13.16,-0.15 17.12,0.39l25.8 3.3c0.25,-1.02 5.88,-10.51 6.89,-12.22 0.45,-0.76 0.71,-1.23 1.11,-1.96 0.74,-1.34 0.82,-1.73 1.6,-1.88l36.16 0.28c0.58,-0.65 0.78,-1.01 1.21,-1.8 0.4,-0.76 0.68,-1.17 1.12,-1.95l4.5 -7.79c0.81,-1.44 1.49,-2.49 2.26,-3.89 1.36,-2.49 8.73,-14.8 9.01,-15.9l37.15 -0.01 6.99 -12.16c-193.53,0 -396.04,0 -408.3,0l0 149.17z"/>
   <path class="fil1" d="M497.15 13.98c-0.09,1.26 0.44,1.6 1.24,2.93l4.4 7.66 -4.92 8.6c2.74,1.76 2.77,1.03 2.77,4.91 -2.03,-0.53 -0.41,0.21 -1.68,-0.85 -1.8,-1.5 -2.88,-2.31 -1.4,-2.53 -0.84,0.15 -1.08,-0.03 -1.68,-0.39l-1.61 -1.21c-2.7,-2.48 -1.84,-1.08 -3.38,-2.46 -0.04,-0.05 -0.1,-0.12 -0.15,-0.16 -1.25,-1.16 -2.78,-1.45 -4.27,-2.45 -1.32,-0.88 -1.8,-0.92 -3.55,-1.57l-2.22 -0.9c-0.06,-0.03 -0.14,-0.08 -0.2,-0.11l-0.4 -0.2c-0.25,-0.1 -1.02,-0.32 -1.38,-0.43 -1.22,-0.34 0.19,-0.2 -1.12,-0.25 -0.07,2.19 -1.23,3.05 -3.72,2.77 -3.33,-0.38 -2.27,-3.34 -2.22,-4 0.02,-0.17 0.07,-0.2 0.11,-0.3 -0.45,0.55 0.8,0.2 -0.47,0.14l-2.3 -0.58c-0.02,0.48 -0.79,1.59 -1.2,2.32 1.3,0.15 0.39,0.08 0.85,0.32l9.01 5.12c0.07,0.05 0.3,0.18 0.38,0.23 1.09,0.68 1.17,0.61 2,1.64 1.43,-0.37 1.78,-2.48 4.47,-1.06 0.7,0.37 1.05,0.31 1.35,1.77l-0.07 1.63c-0.44,1.23 -0.31,0.34 -1.14,1.36 0.49,0.75 0.43,0.44 0.61,0.64 0.04,0.05 0.11,0.11 0.15,0.16 0.04,0.05 0.1,0.11 0.14,0.16 0.54,0.69 0.35,0.87 1.31,1.77l2.09 2.48c0.59,-0.39 0.88,-1.23 3.06,-0.92l0.51 0.13c0.06,0.01 0.19,0.16 0.23,0.09 0.04,-0.07 0.15,0.05 0.22,0.09 1.87,0.99 1.94,4.95 -1.27,4.93l1.16 1.62c0.29,0.52 0.52,1.08 0.8,1.66l1.63 3.9c0.98,1.85 0.64,1.3 1.3,3.61l1.59 6.41c0.61,4.42 1.06,12.67 -0.23,16.36 -0.02,0.07 -0.06,0.14 -0.09,0.22l-0.45 1.7c-0.65,3.94 -1.35,4.21 -1.49,5.8 -0.11,1.24 -0.55,1.18 -1.4,3.59 -1.89,5.4 -1.87,3.47 -3.15,6.06 -1.27,2.57 -0.3,0.69 -1.51,2.17l-2.35 3.18c-0.22,0.29 -0.14,0.26 -0.5,0.73 -0.23,0.31 -0.33,0.38 -0.58,0.65l-1.2 1.26c-0.64,0.61 -0.67,0.48 -1.18,1.27 0.01,1.63 0.04,2.99 -0.89,3.73 -1.07,0.84 -2.01,0.31 -3.41,0.26 -0.68,0.34 -0.71,0.41 -1.34,0.81l-1.3 0.86c-1.4,1.16 -6.08,3.75 -7.8,4.16l0 2.17c-1.03,0.7 -1.57,0.86 -1.84,1.53l-1.55 0.01c-0.39,-0.99 0.2,-0.1 -1.83,-1.55 -1.08,-0.03 -0.41,-0.09 -0.56,0.3 1.04,2.52 2.7,3.83 3.4,6.59l0.24 0.7c0.34,0.56 0.03,0.08 0.49,0.5l0.53 0.43c0.48,0.48 0.41,0.49 0.75,1.11l5.45 9.55c6.15,0 12.81,0.24 18.9,-0.01l17.9 -0.01 -0.01 2.54c-1.4,-1.06 -1.41,-0.95 -3.47,-0.93l-13.56 0.1c-5.19,0.07 -11.98,-0.12 -17.78,-0.12 -1.37,0.01 -1.23,0.59 -1.7,1.46 -0.5,0.94 -3.28,6.18 -3.97,6.5l13.97 -0.02c1.49,-0.01 3.74,-0.45 4.79,0.69l-18.92 -0.03c-2.84,5 -9.56,17.26 -12.73,21.95 1.3,1.29 11.25,19.01 13.43,23 0.69,1.28 1.22,2.25 2.06,3.22l16.16 0c-0.75,0.82 0.69,0.73 -3.87,0.69l-12.1 0 2.27 3.61 31.64 0c3.12,0.03 2.52,-0.01 3.8,-0.92 0.07,20.99 -0.67,42.45 -0.12,63.46 0.54,21.02 -0.55,42.5 0.15,63.58 -0.19,0.86 -0.09,0.17 -3.52,0.18 -1.64,0.01 -3.28,0.01 -4.92,0.01 -1.48,-0.01 -2.93,0.17 -4.07,0.22l-1.75 -0.23c-7.14,-0.3 -14.37,-0.01 -21.52,0.01 -2.83,5.49 -6.64,10.64 -9.33,16.21l23.65 -0.12 -0.01 1.1c-2.55,-0.8 -19.48,-0.29 -23.83,-0.3 -1.29,1.47 -2.25,3.42 -3.19,5.16 -0.51,0.97 -0.99,1.79 -1.55,2.76 -0.53,0.94 -1.16,1.84 -1.72,2.87 -1.94,3.55 -2.26,1.86 3.14,10.81l12.84 22.24 17.54 -0.02c4.29,0.47 9.4,0.02 13.79,0.03 1.19,0 2.65,0.28 3.76,-0.18l0.71 -0.44 -0.01 2.83 -21.96 -0.6c-1.51,-0.04 -3.09,0 -4.61,0 -3.08,0 -6.15,0 -9.22,0 -0.25,0.47 -0.47,1 -0.74,1.48 -0.23,0.4 -0.13,0.29 -0.47,0.74 -0.27,0.36 -0.29,0.37 -0.43,0.46 4.28,0.02 10.29,0.35 14.51,-0.03l1.07 -0.12c0.05,0 0.16,0.02 0.19,0.02 0.04,0 0.13,0 0.19,0.02l0 1.12c-2.39,-0.76 -12.75,-0.33 -16.29,-0.31 -1.09,1.86 -2.74,4.24 -3.37,6.26 -1.26,0.65 -0.36,-0.07 -1.15,1.2l-11.32 19.68 9.23 15.95c0.97,1.71 2.11,3.47 3.06,5.24l19.39 -0.04 -19.09 0.35 4.91 8.91 12.29 -0.1c3.15,-0.37 21.96,0.12 22.87,-0.18l0.48 -0.21c0.09,-0.05 0.39,-0.26 0.48,-0.32l0 3.15c-2,-1.36 -1.1,-0.92 -5.4,-0.92 -4.43,0 -15.76,0.26 -18.74,-0.1l-11.67 -0.09 -3.97 6.77c-1.34,2.32 -2.58,4.43 -3.92,6.83 -1.32,2.38 -2.56,4.44 -3.95,6.8l-3.73 6.62c-0.32,1.2 -0.32,0.85 -0.92,1.89 -0.54,0.95 -0.41,1.14 -1.13,1.8 1.79,2.53 6.85,11.82 8.89,15.23l6.64 11.48c0.84,1.44 1.43,2.59 2.28,3.81 1.52,0 33.58,0.38 34.74,-0.25l0.89 -0.66 0.01 1.41 0.72 0 0 -512 -0.85 0 -0.13 13.5 -12.24 -0.05c-1.71,0.12 -0.76,-0.17 -1.63,0.53z"/>
   <path class="fil2" d="M169.85 413.72l0.05 20.58 -0.09 31.35 188.5 -0.06 7.63 0.09 -2.15 8.71 60.82 -0.02c-0.04,-0.09 -0.12,-0.31 -0.15,-0.25l-2.61 -2 -52.77 0.05c0.65,-1.21 0.07,-0.4 2.54,-1.98l8.62 -5.18c0,-1.53 -0.38,-33.73 0.25,-35.41 0.02,-0.05 0.06,-0.14 0.11,-0.2l-0.06 -12.5 -0.07 -1.96 0.09 -1.22 -40.56 -0.36c-1.85,0.98 -17.56,0.35 -21.19,0.35l-148.96 0.01zm-34.71 -41.46l0.31 35.62 10.52 6.36c0.64,0.6 0.19,-0.03 0.63,0.8l-52.31 -0.04 -2.57 1.75c-0.69,0.98 0.39,-1.57 -0.5,0.96l44.12 -0.05c1.53,-0.08 2.88,0.04 4.41,0.06 0.78,0.01 1.4,0.02 2.15,-0.14 1.22,-0.26 0.43,-0.45 2.15,-0.48 2.16,0.83 5.55,0.3 7.98,0.3 -0.06,-2.94 -1.9,-6.3 -2.15,-9.21 1.13,0 25.62,-0.46 26.72,0.36 1.58,-0.84 37.22,-0.36 42.08,-0.36l127.16 0 0 -51.91 -210.7 0 0 15.98z"/>
   <path class="fil3" d="M421.85 472.12l7.21 -0.07c-0.3,-1.03 -8.03,-9.9 -8.68,-10.63l-8.83 -10.54c0.94,-1.81 3.04,-3.57 4.34,-5.19 0.81,-1 1.43,-1.55 2.15,-2.46 2.02,-2.51 10.29,-11.62 11.02,-12.91l-18.11 -0.3c-2.43,0.01 -3.61,-0.33 -5.83,-0.32 -8.5,0.03 -16.18,-0.2 -24.52,-0.3 -0.05,0.06 -0.09,0.15 -0.11,0.2 -0.63,1.68 -0.25,33.88 -0.25,35.41l-8.62 5.18c-2.47,1.58 -1.89,0.77 -2.54,1.98l52.77 -0.05zm-323.57 -99.27c-4.31,-0.01 -7.53,0.31 -11.68,0.31 0.45,0.72 1.13,1.6 1.76,2.26 0.7,0.73 1.04,1.35 1.61,1.9 0.94,0.94 1.14,1.28 1.93,2.23 0.67,0.8 1.12,1.11 1.76,1.94l10.46 11.96c-0.49,1.81 -14.81,17.37 -17.51,21.49l7.68 0.06 52.31 0.04c-0.44,-0.83 0.01,-0.2 -0.63,-0.8l-10.52 -6.36 -0.31 -35.62c-6.45,-0.03 -11.91,0.3 -18.43,0.3 -6.36,0 -11.94,0.44 -18.43,0.29z"/>
   <g>
    <path class="fil4" d="M420.62 43.36l1.82 -0.01 33.34 -0.04c0.49,-2.35 0.4,-1.63 1.16,-2.54l9.59 -16.51 -5.5 -1.54c-0.65,-0.35 0.52,0.07 -0.63,-0.4 0.88,0.37 6.6,0.24 7.49,0.21 0.99,-3.79 4.93,-8.72 4.96,-9.63 -0.23,-0.85 -0.36,-0.85 -0.78,-1.56 -0.39,-0.67 -0.52,-0.97 -0.88,-1.58 -0.67,-1.12 -1.18,-2 -1.8,-3.12 -1.2,-2.16 -2.39,-4.11 -3.59,-6.2l-4.45 -0.1c-0.71,-0.19 -0.33,-0.02 -0.76,-0.34l-50.5 0c-0.83,1.69 -7.36,12.31 -7.22,13.09l7.64 13.17c0.84,1.51 1.53,2.84 2.47,4.29 0.11,0.17 0.53,0.79 0.61,0.92l1.97 3.46 5.06 8.43zm-20.19 30.96l0.3 -0.35c0.04,-0.05 0.23,-0.29 0.28,-0.37l8.09 -14.02c-0.64,-0.93 -1.43,-1.67 -0.92,-2.77l0.81 1.05c0.37,0.56 0.35,0.64 0.72,1.09 0.27,-1.12 5.59,-10.06 6.28,-11.22 0.33,-0.57 0.49,-0.82 0.79,-1.36 1.79,-3.27 1.61,-1.71 -2.13,-8.3l-1 -1.51 -13.23 -22.96 -35.18 -0.03c-1.42,2.55 -2.83,5.05 -4.36,7.6l-13.15 22.75 17.54 30.63c4.31,-0.01 33.74,0.4 35.16,-0.23zm-19.89 342.58l0.06 12.5c8.34,0.1 16.02,0.33 24.52,0.3 2.22,-0.01 3.4,0.33 5.83,0.32l18.11 0.3c-0.73,1.29 -9,10.4 -11.02,12.91 -0.72,0.91 -1.34,1.46 -2.15,2.46 -1.3,1.62 -3.4,3.38 -4.34,5.19l8.83 10.54c0.65,0.73 8.38,9.6 8.68,10.63l-7.21 0.07 2.61 2c0.03,-0.06 0.11,0.16 0.15,0.25l-60.82 0.02 2.15 -8.71 -7.63 -0.09c-0.67,0.82 -2.23,2.06 -3.22,2.82 -9,6.87 -15.47,11.56 -26.19,15.87 -5.55,2.24 -12.16,4.3 -18.79,5.48 -11.2,1.98 -11.87,1.19 -22.32,1.36 2.11,2.28 1.94,5.53 0.26,8.17 -1.36,2.13 -3.31,3.56 -5.48,4.73 16.8,7.41 20.37,8.13 39.62,7.5 5.11,-0.17 10.52,0.03 15.66,0.03l47.3 0.15c1.18,0 14.34,-0.26 15.41,0.3l73.19 0 -11.17 -19.43c-1.77,-3.26 -5.45,-8.85 -6.65,-11.59l18.13 -31.19 -5.67 -9.5c-1.33,0.01 -2.67,-0.01 -4,0 -1.93,0.01 -2.9,0.33 -3.84,-0.63l7.67 -0.01c-0.79,-0.69 -2.47,-3.91 -3.16,-5.15l-9.03 -15.88c2.47,-3.66 8.27,-14.46 11.18,-19.28 0.55,-0.9 1.24,-1.9 1.49,-2.92 0.26,-0.71 1.02,-1.9 1.47,-2.68l1.41 -2.26 -11.05 -0.01c0.76,-0.81 -0.38,-0.38 1.39,-0.7l9.97 0.03c0.47,-0.83 1.47,-3.11 2.14,-3.3l-17.62 -30.46c-2.85,-0.18 -4.05,-0.46 -4.42,0.96 -0.08,-0.07 -0.15,-0.18 -0.21,-0.24l-0.6 -0.57c-0.8,-0.5 -15.41,-0.2 -16.58,-0.2 -1.11,1.56 -1.95,3.09 -3.01,4.84 -0.57,0.94 -1.03,1.51 -1.58,2.4 -0.26,0.41 -0.43,0.77 -0.7,1.18l-0.66 0.82 13.63 -0.01c2.15,-0.01 3.2,-0.36 4.17,0.69l-17.99 0c-0.46,0.51 -0.78,0.96 -1.23,1.62l-9.12 12.4c-0.99,1.24 -1.77,2.18 -2.76,3.38 -0.6,0.72 -0.84,0.96 -1.4,1.67l-10.24 11.28 -12.88 11.71c-1.18,0.95 -2.19,1.81 -3.38,2.76 -1.77,1.4 -5.08,4.21 -6.91,5.17zm81.3 -298.63c-0.28,-0.78 -0.98,-1.92 -1.47,-2.76 -0.92,-1.61 -4.25,-6.88 -4.58,-8.31 -0.71,0.54 -2.81,4.18 -3.06,5.22l-0.63 0c0.03,-1.38 0.4,-1.57 1.02,-2.68 0.54,-0.96 0.93,-1.62 1.43,-2.53l-29.31 -0.13 -2.31 -0.14 0.51 0.92c0.05,0.07 0.11,0.15 0.17,0.22 1.8,2.21 3.98,3.88 5.99,5.94 1.41,1.45 1.34,0.94 3.2,2.38l0.53 0.42c0.06,0.04 0.13,0.09 0.18,0.13 0.38,0.26 0.21,0.21 0.79,0.43l-2.4 -0.71c-0.07,-0.03 -0.14,-0.08 -0.2,-0.11 -2.42,-1.31 -4.01,-1.51 -5.52,-2.47l-5.4 -3.52c-0.53,-0.32 -1.16,-0.81 -1.73,-1.2l-3.92 7.18c-0.49,1.36 0,0.81 -1.11,1.59l-0.3 0.22c-0.32,0.96 -2.17,3.9 -2.77,4.8l8.64 10.1c3.81,4.76 8.22,11.36 11.57,16.68 4.44,7.05 6.47,11.32 10.2,18.37l1.53 -0.19 4.61 0c0.82,-1.67 0.77,-2.32 2.35,-2.77 -0.13,1.25 -0.09,0.47 -0.25,0.95 -0.6,1.9 -0.3,1.64 -0.98,1.81l6.56 -0.01 12.38 -21.08c-1.45,-0.01 -6.25,-0.31 -7.48,0.29 -0.09,0.04 -0.4,0.26 -0.49,0.32 0,-1.57 -0.35,-1.8 -0.39,-2.42l0.09 -0.74c1.01,-0.07 1.36,1.11 1.73,1.84l6.75 -0.01 4.04 -6.77c1.55,-2.5 0.9,-1.89 -1.88,-6.92l-3.04 -5.24c-0.67,-1.2 -0.25,-1.2 -0.62,-2.01 -0.3,-0.65 -0.49,-0.56 -0.94,-1.02l-3.49 -6.07zm-53.04 -31.06c1.07,-1.24 1.2,-2.05 1.86,-2.76 0.29,1.28 0.24,0.98 -0.38,2.08 -0.48,0.84 -0.66,1.21 -1.16,1.92l5.4 9.04c1.09,1.84 4.21,8.15 5.39,8.42l35.56 0.04 0.31 -0.63c0.71,-1.18 0.13,-0.86 1.28,-0.55 -0.21,-3.75 0.28,-0.03 1.1,-2.86 1.81,-6.25 2.99,-1.83 -0.4,-8.09 -1,-1.86 -0.22,-1.55 -0.12,-1.69l3.08 5.52c1.07,-0.25 0.64,-0.09 1.15,-0.97l12.37 -21.43 -14.14 -24.56c-0.64,0.74 -2.2,3.24 -2.45,4.3 -0.66,-0.72 -0.64,-0.92 0.29,-2.46 0.57,-0.95 0.98,-1.77 1.54,-2.77 -1.05,-1.66 -1.95,-3.61 -3.06,-5.22l-37.17 -0.05c-0.28,0.86 -0.84,1.64 -1.33,2.43l-6.09 10.77c-0.31,0.5 -0.49,0.83 -0.78,1.38 -0.04,0.08 -0.31,0.58 -0.32,0.59l-6.65 11.47c-2.1,3.56 -2.69,3.66 -1.63,5.55 0.8,1.43 5.7,10.04 6.35,10.53zm6.76 -52.28c0.3,1.17 1.61,3.11 2.3,4.24 0.76,1.26 1.68,3.46 2.76,4.19l0.75 -1.01c0.04,-0.04 0.1,-0.11 0.14,-0.16 1.93,-2.27 0.95,-1.76 2.64,-3.17 1.62,-1.36 0.02,-0.87 2.46,-2.76 0.93,-0.73 0.61,-0.66 1.19,-1.29 0.69,-0.75 0.85,-0.5 1.63,-1.12 0.56,-0.46 0.85,-1.01 1.17,-1.3l3.45 -2.38c0.05,-0.04 0.12,-0.1 0.17,-0.14 1.88,-1.49 1.9,-1.06 3.55,-2.27 2.16,-1.57 3.9,-1.73 4.56,-2.16l0.83 -0.94 0.18 -0.21 -0.57 -0.01 -0.14 0 -0.06 0c-1.96,-0.03 -5.97,-0.14 -8.66,-0.03l-0.06 0 -0.05 0 -0.03 0 -0.03 0.01 -0.05 0 -0.06 0 -0.05 0 -0.01 0 -0.04 0.01 -0.05 0 -0.06 0 -0.04 0 -0.01 0 -0.05 0.01 -0.05 0 -0.05 0 -0.02 0 -0.03 0.01 -0.05 0 -0.05 0 -0.05 0 0 0 -0.05 0.01 -0.05 0 -0.04 0.01 -0.03 0 -0.02 0 -0.05 0 -0.04 0.01 -0.05 0 -0.01 0 -0.03 0 -0.05 0.01 -0.04 0 -0.04 0 0 0.01 -0.05 0 -0.04 0 -0.04 0.01 -0.02 0 -0.02 0 -0.04 0.01 -0.04 0 -0.04 0.01 0 0 -0.04 0 -0.03 0.01 -0.04 0 -0.03 0 -0.01 0.01 -0.03 0 -0.04 0.01 -0.03 0 -0.01 0 -0.03 0.01 -0.03 0 -0.03 0.01 -0.03 0 0 0 -0.03 0.01 -0.03 0 -0.03 0.01 -0.02 0 -0.01 0 -0.03 0.01 -0.03 0.01 -0.02 0 -0.01 0 -0.02 0.01 -0.02 0.01 -0.03 0 -0.02 0.01 0 0 -0.03 0.01 -0.02 0 -0.02 0.01 -0.01 0 -0.01 0.01 -0.02 0 -0.02 0.01 -0.02 0.01c-0.67,0.27 -0.7,0.4 -0.81,0.47 -2.72,1.64 -3.18,0.95 -5.54,2.75 -0.92,0.7 -0.54,0.36 -1.59,0.86l-5.48 4.05c-0.79,0.74 -1.84,1.37 -2.42,2.1zm-53.75 46.82c-0.31,0.48 -0.13,0.22 -0.31,0.87 0.94,0.25 2.09,1.09 2.98,1.63 3.26,1.98 1.69,0.21 2.86,1.44l0.31 0c1.43,1.65 7.98,5.67 10.53,7.59l4.25 3.12c0.91,0.76 0.89,1.14 2.41,1.27 0.02,0.03 -0.02,0.06 -0.02,0.1 0,0.04 -0.01,0.09 -0.01,0.1 0.01,0.1 -0.08,0.31 0.68,0.95l13.41 11.52 10.82 10.98c0.3,-1.27 1.42,-2.59 2.01,-3.69 0.21,-1.05 0.6,-1.69 1.22,-2.31l-5.2 -9.18c1.93,0.22 0.38,-0.34 1.39,0.75l1.85 3.06c0.48,0.85 0.73,1.26 1.24,2.15 0.4,0.73 0.79,1.39 1.18,2.01l1.91 -3.13c0.49,-0.81 1.32,-2.64 1.94,-3.05 -1.94,-1.38 -4.27,-4.22 -5.92,-6.05 -1.44,-1.61 -0.83,-1.43 -2.8,-3.65 -0.99,-1.12 -0.42,-1.19 -1.7,-2.91 -0.62,-0.84 -0.31,0.15 -0.83,-1.42 -0.01,-0.05 -0.03,-0.15 -0.05,-0.2 -0.31,-1.18 0.17,-0.32 -0.31,-0.98l-4.33 -11.27c-0.45,-1.61 -0.45,-3.77 -0.91,-5.49l-35.16 -0.04c-0.3,0.54 -0.51,1 -0.85,1.62 -0.05,0.1 -0.37,0.72 -0.38,0.73 -1.03,2.81 -0.04,0.31 -1.77,2.93 -0.28,0.4 -0.18,0.28 -0.44,0.55zm-61.51 -22.47l11.69 2.82c7.43,1.86 20.05,6.06 27.08,9.16 2.65,1.17 3.35,1.84 5.54,1.84l-0.04 0.2c0.06,0.64 -0.56,-0.58 0.06,0.31l16.03 7.47c0.42,-2.15 1.69,-2.32 1.34,-3.39l-1.35 -2.3c-0.28,-1.01 0.01,-1.27 0.02,-1.28 0.6,0.01 0.16,-0.14 0.74,0.33 0.5,0.41 1.54,1.8 1.41,2.43 1.02,-1.71 1.47,-0.97 -0.94,-4.8 -0.05,-0.08 -0.19,-0.3 -0.24,-0.38l-11.08 -19.35c-0.74,-1.39 -1.54,-2.6 -2.34,-4.1 -1.13,-2.11 -2.23,-3.07 -2.16,-4.74l-36.16 -0.28c-0.78,0.15 -0.86,0.54 -1.6,1.88 -0.4,0.73 -0.66,1.2 -1.11,1.96 -1.01,1.71 -6.64,11.2 -6.89,12.22z"/>
   </g>
   <path class="fil1" d="M455.18 204.86l0 0.31c0,1.63 0.57,3.22 0.92,4.61 0.68,2.7 2.77,12.28 2.77,14.74l0.42 -0.31c0.29,-1.54 12.89,-23.42 13.83,-24.14 -0.92,-0.32 -1.49,-2.7 -2.89,-4.23l-9.21 0c-0.33,0.65 -0.92,1.84 -1.72,1.84 -0.48,-1.25 0.7,-1.52 0.1,-2.92 -0.32,-0.75 -0.4,-0.4 -0.86,-1.33 -0.08,-0.16 -0.29,0.09 -0.26,-1.14l0.1 -0.51c0.07,0 0.18,-0.05 0.2,0.03l2.44 3.34 9.01 0 -13.68 -23.76c-0.4,-0.75 -0.63,-1.09 -1.03,-1.69 -1.51,0.01 -7.16,-0.3 -7.91,0.38 -0.72,0.65 0.04,0.12 -0.31,1.3 -0.29,1 0.47,-0.1 -0.37,0.77 -0.12,-0.46 -1.34,-1.69 0.01,-2.46l-3.54 -0.01 -1.22 -0.17 3.59 8.1c4.28,9.98 5.75,15.19 8.72,25.07 0.05,0.17 0.26,0.86 0.38,1.15 0.03,0.07 0.07,0.15 0.09,0.22l0.42 0.81z"/>
   <path class="fil5" d="M376.25 487.74c-1.42,0.4 -1.54,0.23 -3.08,1.16 -1.32,0.8 -1.54,1 -2.28,2.14 -5.13,7.85 1.9,16.12 9.3,14.33 5.44,-1.32 8.01,-6.34 6.93,-10.83 -1.06,-4.36 -4.44,-6.95 -8.39,-7.14 -1.65,-0.07 -1.55,0.07 -2.48,0.34z"/>
   <path class="fil6" d="M421.72 69.41c0,1.18 -0.17,1.97 0.72,2.95 0.61,0.67 1.02,0.68 2.03,0.68 0.75,0 1.57,-0.31 1.97,-0.73 0.93,-0.99 1.7,-4.74 -2.28,-4.72 -1.11,0 -2.44,0.85 -2.44,1.82z"/>
   <polygon class="fil1" points="455.18,205.17 455.18,204.86 "/>
   <polygon class="fil0" points="367.65,85.69 367.34,85.69 "/>
  </g>
 </g>
</svg>
