<?xml version="1.0" encoding="UTF-8"?>
<!DOCTYPE svg PUBLIC "-//W3C//DTD SVG 1.1//EN" "http://www.w3.org/Graphics/SVG/1.1/DTD/svg11.dtd">
<!-- Creator: CorelDRAW 2021 (64-Bit) -->
<svg xmlns="http://www.w3.org/2000/svg" xml:space="preserve" width="512px" height="512px" version="1.1" style="shape-rendering:geometricPrecision; text-rendering:geometricPrecision; image-rendering:optimizeQuality; fill-rule:evenodd; clip-rule:evenodd"
viewBox="0 0 512 512"
 xmlns:xlink="http://www.w3.org/1999/xlink"
 xmlns:xodm="http://www.corel.com/coreldraw/odm/2003">
 <defs>
  <style type="text/css">
   <![CDATA[
    .fil0 {fill:#003F63}
    .fil3 {fill:#2E6075}
    .fil2 {fill:#736D55}
    .fil5 {fill:#94804D}
    .fil1 {fill:#C39946}
    .fil4 {fill:#F2B138}
   ]]>
  </style>
 </defs>
 <g id="Layer_x0020_1">
  <metadata id="CorelCorpID_0Corel-Layer"/>
  <g id="_2402068936432">
   <path class="fil0" d="M0 512l512 0 0 -452.88c-77.11,0 -64.88,9.98 -63.67,-59.12l-278.75 0c15.41,11.79 21.3,19.52 21.61,45.51l-3.27 7.83c-3.87,14.55 -24.11,20.62 -37.39,19.27 -29.68,-3.01 -29.8,-26.15 -33.81,-42.47 -19.9,-0.83 -33.55,-15.42 -38.33,-30.14l-78.39 0 0 512zm446.47 -112.76c-0.02,-6.94 -0.53,-1 2.63,-3.54 5.03,3.51 17.95,11.48 25.16,7.07 -1.85,-6.41 -4.08,-4.26 -12.57,-5.99 -9.02,-1.85 -11.25,-1.12 -15.22,-7.66 3.02,-2.2 0.48,-1.55 5.72,-1.67 9.37,-0.22 18.95,7.36 22.11,-0.6 -8.06,-5.26 -23.78,1.43 -27.75,-7.08l0.05 -45.21c1.6,-5.38 -1.03,-1.24 4.13,-2.47 3.62,3.75 17.95,16.67 23.57,13.79 -4.31,-10.48 -27.16,-7.59 -27.77,-29.82 9.33,4.34 16.65,15.94 27.77,17.43 -1.66,-13.56 -28.24,-9.99 -27.7,-35.56 8.47,5.06 16.78,18 27.7,19.58 -0.62,-12.52 -0.66,-1.9 -16.33,-15.45 -7.19,-6.22 -11.54,-9.35 -11.37,-22.34 8.95,6.3 15.48,19.16 27.61,21.6 -0.4,-12.58 -1.78,-1.49 -16.21,-15.2 -6.71,-6.38 -11.37,-10.64 -11.47,-22.46 6.42,5.02 19.86,25.59 27.77,20.78 -8.13,-9.82 -18.6,-5.18 -25.28,-26.3 9.48,4.42 4.73,3.11 12.94,10.56 3.69,3.35 7.71,7.11 12.29,4.37 -9.06,-6.52 -27.16,-13.57 -27.42,-31.8l19.07 18.87c6.77,4.3 3.32,3.11 7.54,1.55 -6.37,-9.91 -25.84,-13.47 -26.98,-32.17 10.83,5.53 13.7,15.3 26.99,20.49 -2.98,-13.17 -22.75,-11.76 -27.1,-30.31 12.38,3.05 16.37,13.25 27.95,16.04 -1.61,-11.87 -22.84,-9.69 -27.95,-25.14 13.43,2.01 17.05,9.74 27.95,11.56 -2.8,-7.48 -21.1,-11.88 -27.95,-16.51 4.66,-5.24 -1.55,-2.6 6.01,-2.72 7.07,-0.1 15.99,9.76 21.89,6.42 -7.91,-6.1 -20.38,-7.57 -27.9,-12.62 4.35,-4.59 -0.98,-2.43 5.68,-2.53 4.6,-0.07 16.48,7.44 22.27,6.89l-13.7 -5.29c6.29,-3.9 8.1,-0.98 13.7,-1.46l-13.45 -6.56 -14.32 -3.04c6.55,-8.13 14.81,-5.52 27.59,-6.17l-27.77 -0.24 0.03 -18.02 -300.74 0 -0.72 302.48 301.54 -0.03 0.01 -63.52z"/>
   <path class="fil1" d="M446.47 399.24l-0.01 63.52 -301.54 0.03 0.72 -302.48 300.74 0 -301.86 -0.8 -0.45 303.56 52.02 1.24c-6.41,3.5 -4.61,2.28 -12.25,2.92 -15.22,1.28 -9.2,-0.9 -13.12,3.81 6.69,3.22 49.31,-2.8 68.37,0.09l150.03 -0.15c25.48,-1.13 51.67,-0.69 75.97,3.95 -42.62,2.71 -281.58,-2.75 -294.47,2.94 3.59,5.79 3.48,3.78 13.46,3.79 61.08,0.06 263.89,2.08 290.04,-0.71l0.52 -24.09c-10.2,-2.19 -10.83,-0.66 -15.79,-9.32 8.32,5.25 9.94,7.69 16.37,0.75 -4.6,-9.54 -9.21,0.69 -18.04,-17.27 3.32,4.48 8.73,10.26 17.62,5.89 -0.64,-15.86 -12.19,-1.28 -22.6,-25.28 8.35,4.94 8.75,10.74 22.17,10.41 2.02,-14.89 -0.25,-3.48 -23.58,-19.81 -5.22,-3.66 2.18,0.68 -4.32,-2.99z"/>
   <path class="fil2" d="M116.72 30.14c4.01,16.32 4.13,39.46 33.81,42.47 13.28,1.35 33.52,-4.72 37.39,-19.27l3.27 -7.83c-0.31,-25.99 -6.2,-33.72 -21.61,-45.51l-20.67 0c-0.54,3.16 -0.89,4.22 -1.89,7.68 -2.83,9.74 -10.41,18.32 -20.62,20.56 -4.05,0.88 -5.35,1.22 -9.68,1.9z"/>
   <path class="fil3" d="M512 59.12l0 -59.12 -63.67 0c-1.21,69.1 -13.44,59.12 63.67,59.12z"/>
   <path class="fil4" d="M116.72 30.14c4.33,-0.68 5.63,-1.02 9.68,-1.9 10.21,-2.24 17.79,-10.82 20.62,-20.56 1,-3.46 1.35,-4.52 1.89,-7.68l-70.52 0c4.78,14.72 18.43,29.31 38.33,30.14z"/>
   <path class="fil5" d="M446.55 379.77l29.12 -1.23c-1.85,-11.12 2.05,-15.5 -4.63,-20.29l3.29 -4.32c0.32,-0.51 0.92,-1.44 1.25,-2.22 -6.68,-2.09 -9.91,-3.81 -14.8,-7.2l-14.18 -9.95 -0.05 45.21z"/>
   <path class="fil4" d="M65.34 67.12c-4.99,21.2 10.04,23.94 16.96,15.06 10.77,-13.81 -8.8,-21.76 -16.96,-15.06z"/>
  </g>
 </g>
</svg>
