<?xml version="1.0" encoding="UTF-8"?>
<!DOCTYPE svg PUBLIC "-//W3C//DTD SVG 1.1//EN" "http://www.w3.org/Graphics/SVG/1.1/DTD/svg11.dtd">
<!-- Creator: CorelDRAW 2021 (64-Bit) -->
<svg xmlns="http://www.w3.org/2000/svg" xml:space="preserve" width="512px" height="512px" version="1.1" style="shape-rendering:geometricPrecision; text-rendering:geometricPrecision; image-rendering:optimizeQuality; fill-rule:evenodd; clip-rule:evenodd"
viewBox="0 0 512 512"
 xmlns:xlink="http://www.w3.org/1999/xlink"
 xmlns:xodm="http://www.corel.com/coreldraw/odm/2003">
 <defs>
  <style type="text/css">
   <![CDATA[
    .fil0 {fill:#418E26}
    .fil4 {fill:#5BA72B}
    .fil2 {fill:#74D252}
    .fil7 {fill:#89FF3E}
    .fil5 {fill:#98DE2B}
    .fil6 {fill:#B9F4A3}
    .fil3 {fill:#BAF4A4}
    .fil1 {fill:#E2FDB5}
   ]]>
  </style>
 </defs>
 <g id="Layer_x0020_1">
  <metadata id="CorelCorpID_0Corel-Layer"/>
  <g id="_2436747429312">
   <path class="fil0" d="M0 512l512 0 0 -127.77 -6.8 5.68 -1.88 -6.43c-0.42,-4.19 1.43,-4.46 2.15,-9.31 0.96,-6.46 -1.83,-12.12 -4.32,-15.97 -6.04,-11.41 -13.41,-6.71 -19.5,-14.2l-3.17 -1.73 4.38 -5.01c-7.81,-11.1 -2.05,-0.63 -3.24,-10.37l-1.06 -5.87c-0.07,-0.28 -0.24,-0.71 -0.32,-1 -0.14,-0.5 -1.44,-1.59 -1.44,-9.62l-3.42 19.12c0,0.2 0.1,0.67 0.11,0.86 0.01,0.34 0.25,1.29 0.24,1.62 -0.31,5.49 -2.31,-2.06 -1.7,8.33 0.01,0.05 5.35,3.45 -6.08,6.87 -4.69,3.15 -5.21,1.86 -10.07,6.29 -6.95,6.34 -10.35,14.39 -7.67,23.75 2.9,10.11 3.28,0.6 -0.37,9.96 7.37,11.24 4.65,1.9 4.62,38.78l-19.11 9.68c-16.63,6.01 -45.03,17.42 -64.03,17.16 -6.82,3.35 -18.36,2.93 -26.74,3.51 0.17,-12.71 -0.44,-5.94 2.03,-14.76 3.93,-14.04 -3.22,1.64 0.24,-8.76 4.48,-13.49 1.75,-12.29 -2.92,-23.73 -7.68,-10.65 -25.77,-8.69 -20.33,-17.02l-1.56 -11.57c-0.07,-0.4 -0.28,-1.52 -0.3,-1.89 -0.62,-10.93 -0.4,7.98 0.25,-2.51l-3.19 -12.89c0,3.57 -0.22,5.64 -0.5,8.95l-0.76 6.49c-0.04,0.25 -0.19,0.72 -0.23,0.96 -0.57,3.36 -0.26,-0.85 -0.37,2.68 -0.28,9.66 -0.55,1.08 -2.94,9.54l3.7 1.78c-10.3,11.21 -22.15,8.97 -26.2,26.1 -2.04,8.37 0.9,10.92 1.5,13.78 1.67,7.98 -3.01,-1.5 -0.38,6.96 1.34,4.31 3.24,-0.33 3.36,13.56 -28.68,-0.4 -77.91,-20.47 -97.9,-32.53 -13.94,-8.4 -27.71,-17.39 -38.34,-27.18 -5.78,-5.34 -11.37,-8.86 -17.29,-14.74 -11.73,-11.62 -33.6,-40.17 -42.11,-55.43 -17.63,-31.62 -28.2,-60.54 -33.29,-97.78 -1.37,-10.04 -4.99,-53.14 -0.82,-58.96 -0.09,-3.44 -0.16,-2.51 0.27,-5.62 0.05,-0.42 0.43,-0.6 0.49,-1.38 0.04,-0.74 0.41,-0.81 0.61,-1.22 0,-15.09 5.91,-36.35 9.79,-48.57 8.57,-26.98 23.3,-56.17 40.02,-78.38 4.14,-5.49 8.2,-10.78 12.99,-15.81l14 -16.4 -142.4 0 0 512z"/>
   <path class="fil1" d="M512 0l-294.4 0c0,57.2 36.61,104.91 89.56,118.44 31.56,8.06 162.59,4.76 204.84,4.76l0 -123.2z"/>
   <path class="fil2" d="M289.5 419.7c-25.84,0.51 -71.07,-19.94 -90.23,-30.15 -20.76,-11.05 -29.13,-18.89 -45.02,-31.77 -17.65,-14.32 -21.45,-19.2 -35.95,-37.65 -4.6,-5.85 -8.31,-11.5 -12.5,-17.96 -21.56,-33.2 -46.66,-93.55 -41.57,-134.79 -4.17,5.82 -0.55,48.92 0.82,58.96 5.09,37.24 15.66,66.16 33.29,97.78 8.51,15.26 30.38,43.81 42.11,55.43 5.92,5.88 11.51,9.4 17.29,14.74 10.63,9.79 24.4,18.78 38.34,27.18 19.99,12.06 69.22,32.13 97.9,32.53 -0.12,-13.89 -2.02,-9.25 -3.36,-13.56 -2.63,-8.46 2.05,1.02 0.38,-6.96 -0.6,-2.86 -3.54,-5.41 -1.5,-13.78z"/>
   <path class="fil3" d="M64.23 167.38c-5.09,41.24 20.01,101.59 41.57,134.79 4.19,6.46 7.9,12.11 12.5,17.96 14.5,18.45 18.3,23.33 35.95,37.65 15.89,12.88 24.26,20.72 45.02,31.77 19.16,10.21 64.39,30.66 90.23,30.15 4.05,-17.13 15.9,-14.89 26.2,-26.1l-3.7 -1.78c-55.12,2.42 -128.27,-34.46 -166,-72.22 -33.54,-33.56 -54.42,-62.74 -69.83,-109.37 -3.97,-12.01 -10.57,-36.77 -10.57,-51.07 -0.2,0.41 -0.57,0.48 -0.61,1.22 -0.06,0.78 -0.44,0.96 -0.49,1.38 -0.43,3.11 -0.36,2.18 -0.27,5.62z"/>
   <path class="fil4" d="M377.21 355.2l-7.73 8.01c-8.7,11.72 -9.55,21.86 -2.37,33.41 -0.92,2.18 -4.26,1.51 -3.42,7.84 0.99,7.47 4.77,2.75 5.73,8.34l-0.1 40.02c19,0.26 47.4,-11.15 64.03,-17.16 -0.26,-7.55 -1.76,-19.05 1.13,-25.04 1.47,-3.06 4.43,-1.53 3.3,-8.65 -1.22,-7.8 -1.82,-1.94 -3.29,-5.33 11.1,-18.07 0.85,-26.8 -4.75,-36.64 -16.13,-14.75 -18,-5.81 -23.33,-15.57l-1.78 -5.25c-2.52,-9.46 1.63,-11.08 -3.03,-20.78 11.1,0 11.43,-1.18 16,-8 -14.73,-1.23 -19.67,-7.82 -12.8,-20.8 -7.01,1.63 -13.7,6.46 -12.79,15.81 0.58,5.87 2.49,5.72 5.27,9.37 3.59,4.73 1.67,1.35 0.68,10.22 -0.25,2.24 0.03,6.83 -0.22,10.09 -1.4,18.07 -14.86,14.67 -20.53,20.11z"/>
   <path class="fil5" d="M340.8 392.69l1.13 16.39c4.67,11.44 7.4,10.24 2.92,23.73 -3.46,10.4 3.69,-5.28 -0.24,8.76 -2.47,8.82 -1.86,2.05 -2.03,14.76 8.38,-0.58 19.92,-0.16 26.74,-3.51l0.1 -40.02c-0.96,-5.59 -4.74,-0.87 -5.73,-8.34 -0.84,-6.33 2.5,-5.66 3.42,-7.84 -7.18,-11.55 -6.33,-21.69 2.37,-33.41l7.73 -8.01c-2.42,-8.7 -1.39,5.55 -0.17,-4.12l0.83 -3.36c0.06,-0.28 0.23,-0.72 0.29,-1 0.46,-2.25 0.21,-1.08 0.39,-3.11 2.01,-22.41 -1.78,-18.78 -18.55,-30.01l-1.6 -20.8c0,8.01 -1.6,12.36 -1.6,22.4 -11.44,6.05 -20.99,6.03 -18.3,29.23l2.3 48.26z"/>
   <path class="fil5" d="M429.74 360c5.6,9.84 15.85,18.57 4.75,36.64 1.47,3.39 2.07,-2.47 3.29,5.33 1.13,7.12 -1.83,5.59 -3.3,8.65 -2.89,5.99 -1.39,17.49 -1.13,25.04l19.11 -9.68c0.03,-36.88 2.75,-27.54 -4.62,-38.78 3.65,-9.36 3.27,0.15 0.37,-9.96 -2.68,-9.36 0.72,-17.41 7.67,-23.75 4.86,-4.43 5.38,-3.14 10.07,-6.29 -1.59,-18.64 -0.67,-16.34 1.88,-27.71 0.06,-0.29 0.13,-0.75 0.18,-1.03 0.05,-0.28 0.06,-0.76 0.09,-1.05 0,-0.02 -0.01,-1.74 0.19,-3.33 0.04,-0.33 0.8,-3.71 0.9,-4.45 0.65,-4.87 -1.65,-11.13 -5.62,-14.8l-13.97 -8.43 -1.6 -20.8c0,9.18 -1.6,12.15 -1.6,22.4 -8.71,4.61 -23.36,7.14 -18,31.26l2.05 15.09c-0.07,8.48 0.61,17.4 -0.71,25.65z"/>
   <path class="fil3" d="M481.65 344c6.09,7.49 13.46,2.79 19.5,14.2l10.85 -7.44 0 -30.76c-4.83,3.23 -9.22,8.34 -14.61,12.59 -5.64,4.46 -9.23,7.91 -15.74,11.41z"/>
   <path class="fil2" d="M501.15 358.2c2.49,3.85 5.28,9.51 4.32,15.97 -0.72,4.85 -2.57,5.12 -2.15,9.31l1.88 6.43 6.8 -5.68 0 -33.47 -10.85 7.44z"/>
   <path class="fil6" d="M341.93 409.08l-1.13 -16.39c-6.95,0.19 -10.76,2.13 -17.07,0.41l-2.13 -1.04c-5.44,8.33 12.65,6.37 20.33,17.02z"/>
   <polygon class="fil7" points="417.6,310.4 419.2,310.4 417.87,308.53 "/>
  </g>
 </g>
</svg>
