<?xml version="1.0" encoding="UTF-8"?>
<!DOCTYPE svg PUBLIC "-//W3C//DTD SVG 1.1//EN" "http://www.w3.org/Graphics/SVG/1.1/DTD/svg11.dtd">
<!-- Creator: CorelDRAW 2021 (64-Bit) -->
<svg xmlns="http://www.w3.org/2000/svg" xml:space="preserve" width="512px" height="512px" version="1.1" style="shape-rendering:geometricPrecision; text-rendering:geometricPrecision; image-rendering:optimizeQuality; fill-rule:evenodd; clip-rule:evenodd"
viewBox="0 0 512 512"
 xmlns:xlink="http://www.w3.org/1999/xlink"
 xmlns:xodm="http://www.corel.com/coreldraw/odm/2003">
 <defs>
  <style type="text/css">
   <![CDATA[
    .fil1 {fill:#151B2A}
    .fil4 {fill:#3A343E}
    .fil5 {fill:#876658}
    .fil2 {fill:#8A7476}
    .fil3 {fill:#CE9E9A}
    .fil0 {fill:#E9B5B1}
    .fil6 {fill:#F6F7F9}
    .fil7 {fill:#FCE9E7}
   ]]>
  </style>
 </defs>
 <g id="Layer_x0020_1">
  <metadata id="CorelCorpID_0Corel-Layer"/>
  <g id="_2401182984560">
   <path class="fil0" d="M0 378.36l45.27 -45.21c2.44,-2.45 26.24,-25.31 27.18,-27.82l-2.93 -1.08c1.99,-38.14 0.82,-79.9 0.82,-119.41l0 -89.97c0,-3.56 -0.42,-11.77 0.18,-14.8l0.4 -1.42c0.08,-0.24 0.16,-0.43 0.25,-0.64 2.05,-4.69 0.2,0.61 6.53,-6.85 58.89,0 117.78,0 176.66,0l47.26 0.6c2.93,-0.36 -1.23,-1.91 5.69,-1.16 3.68,-1.75 30.57,-29.31 36.09,-34.72 5.4,-5.29 33.61,-32.18 35.54,-35.88l-378.94 0 0 378.36z"/>
   <path class="fil0" d="M460.75 236.45c0.01,0.11 -0.49,3.11 0.52,4.39 -0.11,-0.05 -1.5,-0.52 -1.7,-0.53 -1.15,-0.02 -1.22,0.61 -1.43,1.55l-0.42 2.48c-0.02,0.06 -0.13,0.25 -0.16,0.3 -0.03,0.05 -0.17,0.21 -0.2,0.26l-0.75 1.9c1.39,10.04 0.81,11.06 0.68,19.79 -0.34,22.44 0.98,178.67 -0.24,183.07 -0.72,2.6 -3.63,6.8 -6.76,8.03 -3.7,1.45 -91.84,0.57 -97.78,0.55 -18.8,-0.06 -37.62,0 -56.43,-0.01 -2.25,0 -52.08,0.99 -53.51,-0.6 -0.53,0.65 0.01,0.92 -1.94,2.28 -0.12,0.08 -0.35,0.21 -0.47,0.29 -4.87,3.05 0.69,-0.03 -5.45,1.27l-50.22 50.53 327.51 0 0 -326.49c-4.69,2.38 -20.71,19.99 -26.19,25.48l-19.13 19.32c-2.1,2.1 -4.27,3.82 -5.93,6.14z"/>
   <path class="fil1" d="M307.31 70.6c-1.31,2.44 -1.05,1.82 -3.15,3.74 -2.37,2.18 -2.22,1.56 -3.48,4.57l27.29 -0.45 105.53 -0.01 0.02 89.25c-0.57,3.04 -0.89,11.01 -0.38,13.87 0.92,5.23 1.93,8.25 0.79,13.91 -1.94,9.64 0.07,17.58 -0.67,27.27 -0.36,5.56 0.06,13.44 0.04,19.35 -0.01,3.19 0.2,6.82 0.09,9.81 -0.16,4.03 0.21,6.54 0.12,10.42 1.71,0.18 -0.61,0.98 1.16,-0.41 1.28,-1.01 -0.21,0.15 1.04,-1.13 2.11,-2.15 -0.44,-1.16 3.09,-2.2 1.88,-2.64 5.13,-6.8 8.1,-8.34l13.85 -13.8c1.66,-2.32 3.83,-4.04 5.93,-6.14l19.13 -19.32c5.48,-5.49 21.5,-23.1 26.19,-25.48l0 -185.51 -133.06 0c-1.93,3.7 -30.14,30.59 -35.54,35.88 -5.52,5.41 -32.41,32.97 -36.09,34.72z"/>
   <path class="fil0" d="M80.15 98.77c0.44,1.32 110.68,112.03 113.69,113.82 2.86,-1.72 48.4,-48.93 55.84,-56.15 2.87,-2.8 33.61,-31.58 34.13,-33.9 3.09,-7.05 39.57,-36.5 44.16,-44.08l-27.29 0.45c-6.12,1.43 -147.27,0.42 -166.55,0.42 -17.58,0 -37.67,0.9 -54.95,-0.23 0.22,5.33 -0.46,16.23 0.97,19.67z"/>
   <path class="fil0" d="M410.83 310.59c-1.82,4.07 -9.25,10.31 -12.75,13.88 -3.24,3.3 -10.05,11.01 -13.64,12.82 -0.16,1.98 0.96,1.31 -1.34,1.19 -1.87,3.93 -15.86,16.73 -18.98,19.92 -6.56,6.7 -12.66,12.5 -19.25,19.19 -8.64,8.75 -31.53,29.93 -38.57,37.76 -5.93,6.12 -12.49,11.84 -17.83,18.08l144.98 0.07 -0.25 -144.43c-1.12,2.87 -8.12,9.2 -10.9,11.4 -5.57,4.4 -8.9,8.87 -9.96,9.54 -1.6,1.02 0.34,0.16 -1.51,0.58z"/>
   <path class="fil2" d="M77.97 121.45c3.1,1.93 34.17,33.74 39.55,39.09 12.72,12.63 25.39,25.84 38.92,38.78l24.64 24.43c9,6.34 2.23,4.76 9.82,9.79l43.03 42.97 1.72 -2.81 2.68 -17.44 -26.22 -25.06c-3.32,-3.17 -5.8,-5.35 -8.49,-8.98 -2.8,-0.84 -3.81,-2.28 -5.06,-4.66l83.58 -83.97 -0.77 -2.7c1.3,-1.24 3.93,-3.95 3.67,-6.25 -0.33,-2.86 2.03,-0.01 -1.23,-2.1 -0.52,2.32 -31.26,31.1 -34.13,33.9 -7.44,7.22 -52.98,54.43 -55.84,56.15 -3.01,-1.79 -113.25,-112.5 -113.69,-113.82 -2.6,1 -2.15,-2.29 -2.07,2.24l-0.11 20.44z"/>
   <path class="fil3" d="M446.9 250.25c1.58,4.23 0.02,-0.38 -0.03,1.96 -0.08,3.52 -0.05,-0.34 0.62,2.38l-0.03 39.85c0,47.63 1.11,101.93 -0.09,148.04 -0.08,0.03 -0.24,-0.04 -0.26,-0.04l-0.51 0c-0.58,0.17 0.23,0.5 -2.77,3.02l-5.44 2.83c-0.01,0 -175.95,0.94 -183.49,-0.48l-1.43 -0.03c-0.07,0.02 -0.27,0.14 -0.35,0.17l-2.64 0.96c-2.45,1.04 1.01,2.26 -0.93,0.61l-3.55 0.44 -11.29 11.51c6.14,-1.3 0.58,1.78 5.45,-1.27 0.12,-0.08 0.35,-0.21 0.47,-0.29 1.95,-1.36 1.41,-1.63 1.94,-2.28 1.43,1.59 51.26,0.6 53.51,0.6 18.81,0.01 37.63,-0.05 56.43,0.01 5.94,0.02 94.08,0.9 97.78,-0.55 3.13,-1.23 6.04,-5.43 6.76,-8.03 1.22,-4.4 -0.1,-160.63 0.24,-183.07 0.13,-8.73 0.71,-9.75 -0.68,-19.79l0.75 -1.9c0.03,-0.05 0.17,-0.21 0.2,-0.26 0.03,-0.05 0.14,-0.24 0.16,-0.3l0.42 -2.48c0.21,-0.94 0.28,-1.57 1.43,-1.55 0.2,0.01 1.59,0.48 1.7,0.53 -1.01,-1.28 -0.51,-4.28 -0.52,-4.39l-13.85 13.8z"/>
   <path class="fil2" d="M438.8 258.59c-0.37,2.02 -1.25,7.21 -1.23,8.58 0.23,10.86 -0.7,7.63 -0.72,10.03 -0.01,1.56 0.93,2.84 1.04,5.03 0.24,5.11 -1.62,3.38 -0.91,6.01 0.01,0.05 0.11,0.26 0.12,0.31l0.63 3.34c1.63,4.43 -1.74,138.68 0.72,143.99 -10.22,2.77 -3.27,2.63 -9.03,3.48l-172.58 0.23c-3.44,3.51 -8.08,6.19 -10.84,10.37l3.55 -0.44c1.94,1.65 -1.52,0.43 0.93,-0.61l2.64 -0.96c0.08,-0.03 0.28,-0.15 0.35,-0.17l1.43 0.03c7.54,1.42 183.48,0.48 183.49,0.48l5.44 -2.83c3,-2.52 2.19,-2.85 2.77,-3.02l0.51 0c0.02,0 0.18,0.07 0.26,0.04 1.2,-46.11 0.09,-100.41 0.09,-148.04l0.03 -39.85c-0.67,-2.72 -0.7,1.14 -0.62,-2.38 0.05,-2.34 1.61,2.27 0.03,-1.96 -2.97,1.54 -6.22,5.7 -8.1,8.34z"/>
   <path class="fil4" d="M78.3 144.87c3.61,1.61 22.52,21.43 28.98,27.58l65.79 65.9c1.63,1.88 2.71,3.29 4.18,4.82 1.78,1.87 2.98,2.56 5.11,4.7 11.44,11.51 39.06,37.48 47.46,47.21 2.09,-2.99 5.93,-19.97 5.83,-21.38l-1.72 2.81 -43.03 -42.97c-7.59,-5.03 -0.82,-3.45 -9.82,-9.79l-24.64 -24.43c-13.53,-12.94 -26.2,-26.15 -38.92,-38.78 -5.38,-5.35 -36.45,-37.16 -39.55,-39.09l0.33 23.42z"/>
   <path class="fil4" d="M194.27 433.08l63.11 -61.56c-1.63,3.42 -2.44,20.57 -1.94,22.59 5.43,-1.55 -0.87,1.67 6.32,-5.58 2.21,-2.24 2.92,-3.43 5.91,-4.13 -2.71,-7 -3.22,-0.93 -7.29,-16.58l-2.73 0.23c1.02,-4.2 1.19,-0.58 1.41,-6.13l2.84 -18.42c-2.02,1.17 -1.41,0.61 -2.96,2.62l-64.98 64.58c-8.04,8.13 -14.6,14.53 -22.42,22.28l22.73 0.1z"/>
   <path class="fil5" d="M194.27 433.08l23.24 0.32c1.81,-2.54 27.75,-29 32.03,-31.02 -2.68,4.8 -1.2,20.62 -5.8,30.77l3.14 0.34 0.94 -2.26c2.9,0.28 4.26,0.99 6.93,1.11l4.92 -0.64c0.46,-6.24 3.26,-15.12 4.5,-21.76l4.11 -21.75c1.22,0.6 1.14,0.35 2.42,1.2l-3.03 -4.99c-2.99,0.7 -3.7,1.89 -5.91,4.13 -7.19,7.25 -0.89,4.03 -6.32,5.58 -0.5,-2.02 0.31,-19.17 1.94,-22.59l-63.11 61.56z"/>
   <path class="fil6" d="M282.14 133.59l-83.58 83.97c1.25,2.38 2.26,3.82 5.06,4.66 1.94,-3.05 8.65,-9.28 11.9,-12.4 4.41,-4.23 7.51,-7.91 12.24,-12.34 8.89,-8.31 16.38,-16.48 24.9,-24.98 3.64,-3.63 48.08,-46.97 49.45,-50 -7.94,-0.33 -7.58,-0.9 -11.71,3.51 -2.58,2.77 -4.86,6.09 -8.26,7.58z"/>
   <path class="fil6" d="M351.62 350.43c-2.64,1.18 -15.88,15.29 -18.51,17.86 -3.09,3.02 -5.24,5.7 -9.32,9.45 -2.87,2.63 -4.98,6.03 -9,8.78 -1.36,3.4 -4.53,5.19 -9.16,9.89 -0.12,0.12 -0.29,0.29 -0.41,0.41 -0.16,0.17 -0.62,0.68 -0.79,0.85 -3.76,3.85 -6.01,4.7 -9.96,9.75l-2.77 2.92c-5.03,3.98 -20.73,19.09 -23.3,23.15l10.23 -0.33c1.26,-0.46 18.26,-19.36 22.03,-21.56 0.51,-1.21 -0.11,-0.15 0.85,-1.38l66.63 -67.29c-5.73,0.16 -6.39,-2.21 -10.66,1.46l-5.86 6.04z"/>
   <path class="fil3" d="M217.51 433.4l26.23 -0.25c4.6,-10.15 3.12,-25.97 5.8,-30.77 -4.28,2.02 -30.22,28.48 -32.03,31.02z"/>
   <path class="fil7" d="M366.08 399.36c-12.29,3.71 -9.69,22.44 5.42,17.99 11.55,-3.4 9.09,-22.37 -5.42,-17.99z"/>
   <path class="fil7" d="M383.61 378.46c-4.59,1.9 -6.58,6.25 -5.97,11.63 0.6,5.2 5.48,7.85 11.05,5.18 3.95,-1.89 5.86,-6.31 5.43,-11.55 -0.52,-6.15 -5.21,-7.46 -10.51,-5.26z"/>
  </g>
 </g>
</svg>
