<?xml version="1.0" encoding="UTF-8"?>
<!DOCTYPE svg PUBLIC "-//W3C//DTD SVG 1.1//EN" "http://www.w3.org/Graphics/SVG/1.1/DTD/svg11.dtd">
<!-- Creator: CorelDRAW 2021 (64-Bit) -->
<svg xmlns="http://www.w3.org/2000/svg" xml:space="preserve" width="512px" height="512px" version="1.1" style="shape-rendering:geometricPrecision; text-rendering:geometricPrecision; image-rendering:optimizeQuality; fill-rule:evenodd; clip-rule:evenodd"
viewBox="0 0 512 512"
 xmlns:xlink="http://www.w3.org/1999/xlink"
 xmlns:xodm="http://www.corel.com/coreldraw/odm/2003">
 <defs>
  <style type="text/css">
   <![CDATA[
    .fil2 {fill:#232424}
    .fil1 {fill:#C6C6C6}
    .fil4 {fill:#D9D9D9}
    .fil3 {fill:#FEDC04}
    .fil0 {fill:#FEFEF6}
   ]]>
  </style>
 </defs>
 <g id="Layer_x0020_1">
  <metadata id="CorelCorpID_0Corel-Layer"/>
  <g id="_2436903834368">
   <path class="fil0" d="M512 512l0 -512 -512 0 0 512 512 0zm-139.44 -401.63c-36.41,-0.2 -72.75,-0.05 -109,-0.04l-95.41 -0.02c-3.14,0 -9.82,0.54 -12,-0.37 -5.85,1 -38.32,0.57 -45.96,0.27l-0.19 276.55 23.45 -0.09c40.95,-0.54 82.32,0.67 123.38,0.43l4.51 -0.03 -0.1 7.6 0.33 1.42c26.15,-0.82 85.25,3.4 110.09,-0.16 0.64,-118.6 1.99,-76.42 0.9,-285.56z"/>
   <path class="fil1" d="M114.24 433.64l0.37 4.51 -42.11 0.1 0.63 -30.35c1.22,-7.82 0.54,-154.14 0.53,-161.33l-0.05 -121.27c-0.02,-7.59 0.43,-35.06 -0.33,-40.33 2.29,0.22 14.01,0.8 16.03,-0.48l-15.67 -0.04 0.35 -13.12c-1.74,0.63 -1.12,4.11 -1.27,5.65l-5.22 -0.53c-1.1,2.31 -3.1,0.92 -5.34,2.95l-4.54 4.15c-0.07,0.07 -0.19,0.16 -0.26,0.23l-0.96 1.03c-3.19,4.06 -1.57,4.72 -1.58,10.4l0 149.56c0.01,7.01 -0.54,12.41 -0.54,19.31 0,6.59 0,13.18 0,19.77 0,3.29 -0.01,6.58 0.01,9.88 0.02,2.88 -1.15,12.34 -0.35,14.58 2.23,6.23 -0.48,1.34 0.77,8.42 0.41,2.35 -0.19,2.6 -0.39,4.44l-0.06 25.11c0.08,2.21 0.71,2.36 0.57,4.46l-0.57 24.29c0.08,2.23 0.59,2.49 0.59,4.93 -0.68,2.69 1.38,-2.84 -1.3,1.32 -0.89,1.39 -0.38,5.06 -0.37,6.76 0.02,4.35 0.21,14.7 -0.48,18.6 -0.54,3.09 1.02,2.72 -0.03,5.34 -1.44,3.59 -0.85,15.52 -1.05,17.15 -0.29,2.21 -0.27,4.22 -0.27,6.52l2.22 3.17c1.15,2.02 1.06,0.13 2.87,2.94 5.96,0.11 6.16,1.44 12.79,1.43l45.45 0.06c0.9,1.69 -1.16,0.83 1.1,1.3 4.99,0.51 26.59,-1.13 33.6,0.62 2.41,0.61 11.38,0.31 14.12,0.29 3.86,-0.02 8.11,1.07 14.54,1.33 10.37,0.43 21.42,0 31.2,1.1 5.03,0.57 10.68,0.15 15.95,0.24 4.98,0.1 6.82,0.94 15.1,0.93l15.43 0.28c4.78,-0.54 17.87,-0.23 24.15,-0.23 3.33,0.01 4.65,-0.61 7.45,-0.4 4.9,0.37 10.08,0.38 15.81,0.37 9.52,0 10.73,-1.28 14.13,-1.03 3.6,0.27 5.05,-0.29 7.35,-0.25 3.42,0.07 12.16,0.9 15.09,-1.42 0.82,-0.66 0.08,-0.33 1.26,-0.87l3.03 -0.84c4.42,-0.69 -0.05,0.77 6.68,-1.11 2.08,-0.57 4.64,-0.41 7.53,-0.42 -1.44,-2.43 -8.71,-1.21 -12,-1.64 -4,-0.51 2.17,0.52 -0.97,-0.19 -0.13,-0.03 -0.33,-0.11 -0.43,-0.14 -0.11,-0.02 -0.29,-0.08 -0.42,-0.15 2.21,-0.02 5.48,0.2 6.98,-0.38 -7.07,-2 -208.15,-1.04 -236.44,-2.11 0.15,-1.81 0.83,-3.8 -0.68,-4.89z"/>
   <path class="fil2" d="M261.72 322.62l-0.03 20.24 0.11 11.74c-0.15,3.14 -1.47,4.6 2.86,4.52 3.17,-0.06 5.64,0.1 9.02,0.17l0.36 -0.03 27.32 0.03c3.19,0.28 1.28,0.44 3.8,0.8 -0.37,-0.83 5.25,-0.67 6.69,-0.66 3.06,0 5.62,0.03 8.73,-0.03 16.51,-0.32 34.41,0.4 52.37,0.04 10.43,-0.22 65.19,0.68 69.89,-0.3l0.39 -36.56 -70.71 -0.14 -83.36 -0.11c-2.89,0 -5.31,-0.1 -7.72,-0.3 -3.05,-0.24 -3.58,0.16 -6.25,0.21 -2.92,0.05 -11.55,-0.37 -13.47,0.38z"/>
   <path class="fil3" d="M156.15 109.94c2.18,0.91 8.86,0.37 12,0.37l95.41 0.02c36.25,-0.01 72.59,-0.16 109,0.04 0.41,79.83 0.81,89.94 0.85,168.56 3.69,0.15 12.18,0.74 14.64,-0.98 -0.28,0.67 -0.65,-177.72 -0.65,-177.72 -1.46,-1.25 -24.22,-0.53 -27.84,-0.53 -20.28,0 -197.76,-0.57 -203.45,0.17l0.04 10.07z"/>
   <path class="fil4" d="M482.33 496.24l-24.44 0c-16.44,0 -11.93,9.59 -5.64,10.66 3.12,0.53 37.77,0.38 45.24,0.24 4.92,-0.1 8.06,-1.76 8.12,-5.46 0.12,-7.59 -15.2,-5.44 -23.28,-5.44z"/>
   <path class="fil3" d="M114.24 433.64c-6.89,-0.72 -31.95,0.73 -35.7,-0.57 -1.43,-1.05 -0.7,-18.11 -0.58,-21.7 0.14,-4.28 0.31,-3.58 -4.83,-3.47l-0.63 30.35 42.11 -0.1 -0.37 -4.51z"/>
   <polygon class="fil2" points="89.31,84.49 89.02,71.54 73.99,71.33 73.64,84.45 "/>
  </g>
 </g>
</svg>
