<?xml version="1.0" encoding="UTF-8"?>
<!DOCTYPE svg PUBLIC "-//W3C//DTD SVG 1.1//EN" "http://www.w3.org/Graphics/SVG/1.1/DTD/svg11.dtd">
<!-- Creator: CorelDRAW 2021 (64-Bit) -->
<svg xmlns="http://www.w3.org/2000/svg" xml:space="preserve" width="512px" height="512px" version="1.1" style="shape-rendering:geometricPrecision; text-rendering:geometricPrecision; image-rendering:optimizeQuality; fill-rule:evenodd; clip-rule:evenodd"
viewBox="0 0 512 512"
 xmlns:xlink="http://www.w3.org/1999/xlink"
 xmlns:xodm="http://www.corel.com/coreldraw/odm/2003">
 <defs>
  <style type="text/css">
   <![CDATA[
    .fil3 {fill:#250908}
    .fil1 {fill:#AD0000}
    .fil0 {fill:#D31C23}
    .fil2 {fill:#F4F4F4}
   ]]>
  </style>
 </defs>
 <g id="Layer_x0020_1">
  <metadata id="CorelCorpID_0Corel-Layer"/>
  <g id="_2402067791744">
   <path class="fil0" d="M0 179.86l0 68.52c5.38,3.15 3.01,2.98 7.02,7.69l42.1 47.53c3.61,4 7.6,9.42 11.49,14.08 4.12,4.95 6.86,8.92 11.07,14.52 22.96,30.54 45.1,70.18 42.16,113.02 -2.81,40.93 -22.13,50.91 -35.33,66.78l78.89 0c3.82,-6.41 10.07,-10.5 14.64,-17.14 4.61,-6.72 8.07,-13.19 11.09,-21.7 4.04,-11.39 2.75,-15.43 9.26,-23.42 3.84,-4.71 10.31,-15.09 12.19,-20.61 30.72,2.31 19.12,20.4 49.97,21.15 11.56,0.28 21.11,-3.68 27.29,-9.13 5.91,-5.21 6.66,-10.93 23.75,-11.51 9.65,21.35 16.73,23.51 19.1,29.35 1.43,3.53 2.42,9.11 3.83,13.18 9.03,26 21.12,31.43 26.07,39.83l78.77 0c-11.57,-14.55 -32.26,-24.97 -35.18,-66.78 -2.23,-31.85 8.99,-58.76 21.71,-82.24 9.12,-16.81 20.51,-31.07 31.64,-45.16l60.47 -69.53 0 -68.44c-3.56,3.86 -10.01,15.84 -13.79,21.15 -11.84,16.62 -36.57,43.51 -54.34,52.51 3.31,-5.97 23.36,-23.74 37.51,-48.12 40.58,-69.86 21.32,-137.09 -0.12,-205.39l-5.63 0c1.89,10.73 4.94,20.47 7.17,31.82 2.25,11.49 3.3,22.68 4.12,34.51 0.9,13.05 0.3,61.38 -7.61,67.74 -1.59,23.12 -36.41,70.5 -49.87,77.9 35.63,-55.34 39.06,-93.07 25.68,-160.68 -3.76,-18.94 -10.14,-33.93 -14.53,-51.29l-4.75 0c7.51,27.48 11.76,57.84 10.89,90.22 -0.5,18.63 -11.76,68.12 -24.47,75.88 -16.78,-40.87 -65.86,-81.38 -108.91,-94.08 -78.42,-23.13 -143.33,-2.31 -196.98,54.27l-21.41 29.96c-4.89,9.17 -3.08,7.4 -8.2,9.98 -1.3,-4.22 -5.15,-11.8 -7.84,-17.53 -9.24,-19.68 -12.33,-38.21 -14.03,-60.51 -1.97,-26.01 4.42,-65.42 11.6,-88.19l-5.02 0c-1.82,8.26 -6.27,18.89 -8.63,27.36 -7.82,28.18 -13.76,59.74 -12.89,89.32 1.45,48.98 16.27,67.56 36.96,100.89 -17.44,-10.6 -55.71,-58.94 -54.53,-82.45 -2.2,3.03 -2.65,-4.32 -2.17,4.62 -0.87,-10.67 -4.82,-22.4 -6.42,-34.16 -6.74,-49.54 8.66,-84.85 10.26,-105.58l-5.36 0c-6.42,22.85 -13.38,40.87 -18.31,65.95 -10.06,51.26 -7.14,92.83 17.43,137.98 12.3,22.61 23,29.62 35.86,46.48 -10.58,-5.22 -29.01,-24.02 -36.01,-32.05 -13.46,-15.45 -25.53,-36.23 -27.66,-38.5zm216.13 222.64c0,0 80.02,-1.43 80.02,-1.43 8.37,-4 17.55,-5.7 26.5,-10.13 61.14,-30.2 99.38,-93.15 88.86,-163.71 -11.2,-75.1 -72.73,-134.91 -156.93,-134.97 -81.69,-0.06 -145.13,63.14 -154.27,137.19 -8.85,71.73 30.82,135.01 91.94,162.85 9.74,4.44 22.37,6.97 23.88,10.2z"/>
   <path class="fil1" d="M435.84 0l-359.35 0c-7.18,22.77 -13.57,62.18 -11.6,88.19 1.7,22.3 4.79,40.83 14.03,60.51 2.69,5.73 6.54,13.31 7.84,17.53 5.12,-2.58 3.31,-0.81 8.2,-9.98l21.41 -29.96c53.65,-56.58 118.56,-77.4 196.98,-54.27 43.05,12.7 92.13,53.21 108.91,94.08 12.71,-7.76 23.97,-57.25 24.47,-75.88 0.87,-32.38 -3.38,-62.74 -10.89,-90.22z"/>
   <path class="fil2" d="M0 512l78.51 0c13.2,-15.87 32.52,-25.85 35.33,-66.78 2.94,-42.84 -19.2,-82.48 -42.16,-113.02 -4.21,-5.6 -6.95,-9.57 -11.07,-14.52 -3.89,-4.66 -7.88,-10.08 -11.49,-14.08l-42.1 -47.53c-4.01,-4.71 -1.64,-4.54 -7.02,-7.69l0 263.62z"/>
   <path class="fil2" d="M433.36 512l78.64 0 0 -263.71 -60.47 69.53c-11.13,14.09 -22.52,28.35 -31.64,45.16 -12.72,23.48 -23.94,50.39 -21.71,82.24 2.92,41.81 23.61,52.23 35.18,66.78z"/>
   <path class="fil3" d="M157.4 512l197.19 0c-4.95,-8.4 -17.04,-13.83 -26.07,-39.83 -1.41,-4.07 -2.4,-9.65 -3.83,-13.18 -2.37,-5.84 -9.45,-8 -19.1,-29.35 -17.09,0.58 -17.84,6.3 -23.75,11.51 -6.18,5.45 -15.73,9.41 -27.29,9.13 -30.85,-0.75 -19.25,-18.84 -49.97,-21.15 -1.88,5.52 -8.35,15.9 -12.19,20.61 -6.51,7.99 -5.22,12.03 -9.26,23.42 -3.02,8.51 -6.48,14.98 -11.09,21.7 -4.57,6.64 -10.82,10.73 -14.64,17.14z"/>
   <path class="fil2" d="M216.13 402.5c-1.51,-3.23 -14.14,-5.76 -23.88,-10.2 -61.12,-27.84 -100.79,-91.12 -91.94,-162.85 9.14,-74.05 72.58,-137.25 154.27,-137.19 84.2,0.06 145.73,59.87 156.93,134.97 10.52,70.56 -27.72,133.51 -88.86,163.71 -8.95,4.43 -18.13,6.13 -26.5,10.13l-0.32 5.68c2.07,1.48 -1.96,0.99 3.52,1.18 21.39,-8.56 34.7,-12.09 51.27,-24.62 15.04,-11.38 27.59,-22.37 38.66,-38.13 21.08,-29.99 35.84,-71.86 29.62,-118.38 -10.31,-77.18 -78.33,-143.14 -164.32,-142.17 -125.72,1.42 -213,142.81 -131.3,261.41 14.97,21.74 53.52,55.27 91.48,61.95l1.37 -5.49z"/>
   <path class="fil1" d="M32.38 135.12c3.55,-24.44 8.05,-47.71 13.63,-70.64 2.83,-11.65 6.14,-22.54 9.51,-33.14 3.26,-10.24 9.32,-22.25 11.69,-31.34l-33.16 0c-1.6,20.73 -17,56.04 -10.26,105.58 1.6,11.76 5.55,23.49 6.42,34.16 -0.48,-8.94 -0.03,-1.59 2.17,-4.62z"/>
   <path class="fil1" d="M479.31 134.07c7.91,-6.36 8.51,-54.69 7.61,-67.74 -0.82,-11.83 -1.87,-23.02 -4.12,-34.51 -2.23,-11.35 -5.28,-21.09 -7.17,-31.82l-30.75 0c2.45,9.41 7.97,19.8 11.25,30.28 3.44,10.95 6.65,21.46 9.55,33.07 5.38,21.56 11.47,47.32 13.63,70.72z"/>
   <path class="fil2" d="M512 179.85l0 -106.13c-2.68,-4.51 -9.11,-29.98 -11.71,-37.83 -4,-12.08 -10.23,-24.81 -13.78,-35.89l-5.25 0c21.44,68.3 40.7,135.53 0.12,205.39 -14.15,24.38 -34.2,42.15 -37.51,48.12 17.77,-9 42.5,-35.89 54.34,-52.51 3.78,-5.31 10.23,-17.29 13.79,-21.15z"/>
   <path class="fil2" d="M32.38 135.12c-1.18,23.51 37.09,71.85 54.53,82.45 -20.69,-33.33 -35.51,-51.91 -36.96,-100.89 -0.87,-29.58 5.07,-61.14 12.89,-89.32 2.36,-8.47 6.81,-19.1 8.63,-27.36l-4.26 0c-2.37,9.09 -8.43,21.1 -11.69,31.34 -3.37,10.6 -6.68,21.49 -9.51,33.14 -5.58,22.93 -10.08,46.2 -13.63,70.64z"/>
   <path class="fil2" d="M479.31 134.07c-2.16,-23.4 -8.25,-49.16 -13.63,-70.72 -2.9,-11.61 -6.11,-22.12 -9.55,-33.07 -3.28,-10.48 -8.8,-20.87 -11.25,-30.28l-4.29 0c4.39,17.36 10.77,32.35 14.53,51.29 13.38,67.61 9.95,105.34 -25.68,160.68 13.46,-7.4 48.28,-54.78 49.87,-77.9z"/>
   <path class="fil2" d="M0 65.7l0 114.16c2.13,2.27 14.2,23.05 27.66,38.5 7,8.03 25.43,26.83 36.01,32.05 -12.86,-16.86 -23.56,-23.87 -35.86,-46.48 -24.57,-45.15 -27.49,-86.72 -17.43,-137.98 4.93,-25.08 11.89,-43.1 18.31,-65.95l-5.31 0c-3.21,10.78 -8.71,21.02 -12.45,32.26 -3.01,9.07 -6.58,26.17 -10.93,33.44z"/>
   <path class="fil1" d="M512 73.72l0 -73.72 -25.49 0c3.55,11.08 9.78,23.81 13.78,35.89 2.6,7.85 9.03,33.32 11.71,37.83z"/>
   <path class="fil1" d="M0 65.7c4.35,-7.27 7.92,-24.37 10.93,-33.44 3.74,-11.24 9.24,-21.48 12.45,-32.26l-23.38 0 0 65.7z"/>
  </g>
 </g>
</svg>
