<?xml version="1.0" encoding="UTF-8"?>
<!DOCTYPE svg PUBLIC "-//W3C//DTD SVG 1.1//EN" "http://www.w3.org/Graphics/SVG/1.1/DTD/svg11.dtd">
<!-- Creator: CorelDRAW 2021 (64-Bit) -->
<svg xmlns="http://www.w3.org/2000/svg" xml:space="preserve" width="512px" height="512px" version="1.1" style="shape-rendering:geometricPrecision; text-rendering:geometricPrecision; image-rendering:optimizeQuality; fill-rule:evenodd; clip-rule:evenodd"
viewBox="0 0 512 512"
 xmlns:xlink="http://www.w3.org/1999/xlink"
 xmlns:xodm="http://www.corel.com/coreldraw/odm/2003">
 <defs>
  <style type="text/css">
   <![CDATA[
    .fil0 {fill:#D0BDB1}
   ]]>
  </style>
 </defs>
 <g id="Layer_x0020_1">
  <metadata id="CorelCorpID_0Corel-Layer"/>
  <path class="fil0" d="M500.89 274.93l-27.43 -2.95c-1.64,18.55 -7.53,51.11 -17.56,67.13l-9.63 16.92 54.24 3.34c-7.98,7.27 -12.81,3.1 -30.88,2.8 -34.62,-0.57 -26.66,0.35 -35.81,16.86l-26.9 30.47c0,0 -30.06,29.33 -82.69,50.88 -25.92,10.61 -86.11,15.21 -117.56,7.53 -15.88,-3.87 -20.9,-6.49 -20.9,-6.49 -2.41,1.64 -59.41,-35.46 -59.41,-35.46 0.31,-0.76 3.75,-1.19 2.27,-11.29 -1.28,-8.73 0.36,-5.95 -7.24,-9.07 -3.47,-1.42 -20.1,-1.34 -24.98,-1.37 -2.62,6.54 2.39,28 -0.73,43.62 -0.16,0.82 -0.91,3.6 -0.99,3.8 -1.81,4.85 -34.34,43.41 -41.99,45.27 -9.89,2.4 -33.78,0.58 -46.49,2.47 5.95,16.37 25.33,11.29 52.07,11.29 84.33,0 420.39,4.73 451.49,-3.74 3.78,-47.68 -0.47,-106 0.89,-151.82 2.84,-95.08 0.29,-226.03 0.21,-326.31 -0.02,-17.94 1.91,-15.22 -8.35,-24.05l-1.63 270.17zm-406.84 -186.13l76.81 -48.3c21.29,-8.78 82.57,-20.47 108.61,-11.23l11.44 -28.61 -288.12 -0.66c0.18,78.91 -1.06,157 -2.79,236.57l26.28 -6.06c4.21,-2.54 8.22,-34.1 9.66,-41.4 3.04,-15.52 5.4,-17.93 12.02,-31.76l2.15 -4.34c11.71,2.12 38.59,1.03 54.47,1.03l43.73 0.43c19.95,-2.36 9.26,-0.68 14.7,-7.49l-109.01 -1.14c5.91,-16.42 11.76,-10.83 47.86,-10.84l46.44 0.49c23,-2.91 8.69,0.14 15,-8.2l-97.52 -2.61 3.17 -6.3c32.19,-6.41 65.71,1.2 93.81,-2.41 -8.47,-12.13 -18.43,-8.17 -41.83,-8.13 -14.83,0.02 -29.67,0 -44.5,0 11.13,-16.63 53.13,-9.57 85.51,-11.07 -4.27,-7.12 8.52,-8.7 -30.1,-8.01 -12.54,0.23 -25.24,0.04 -37.79,0.04z"/>
 </g>
</svg>
