<?xml version="1.0" encoding="UTF-8"?>
<!DOCTYPE svg PUBLIC "-//W3C//DTD SVG 1.1//EN" "http://www.w3.org/Graphics/SVG/1.1/DTD/svg11.dtd">
<!-- Creator: CorelDRAW 2021 (64-Bit) -->
<svg xmlns="http://www.w3.org/2000/svg" xml:space="preserve" width="512px" height="512px" version="1.1" style="shape-rendering:geometricPrecision; text-rendering:geometricPrecision; image-rendering:optimizeQuality; fill-rule:evenodd; clip-rule:evenodd"
viewBox="0 0 512 512"
 xmlns:xlink="http://www.w3.org/1999/xlink"
 xmlns:xodm="http://www.corel.com/coreldraw/odm/2003">
 <defs>
  <style type="text/css">
   <![CDATA[
    .fil1 {fill:#9B8879}
    .fil2 {fill:#F39E77}
    .fil0 {fill:#FDFDFD}
   ]]>
  </style>
 </defs>
 <g id="Layer_x0020_1">
  <metadata id="CorelCorpID_0Corel-Layer"/>
  <g id="_2436747384288">
   <g>
    <path class="fil0" d="M0 512l512 0 0 -512 -512 0 0 512zm480.46 -464.58l-5.52 0.45c-8.01,1.13 -11.93,3.82 -19.88,2.23 -0.21,0.33 -0.25,0.92 -0.31,1.14l-3.43 10.18 -36.31 -0.04 -1.62 13.14 -295.93 -0.01 -0.11 -13.13 -38.9 -0.09 -10.16 1.54c-1.48,-2.07 -1.32,-1.6 -1.83,-5.88 -0.29,-2.44 -0.1,-6.31 -0.1,-8.81l-14.01 -0.9c1.46,-11.48 -2.91,-7.52 -4.94,-8.23 -7.32,4.56 -6.24,8.27 -6.11,21.64 0.64,67.03 -2.12,407.32 1.38,412.21 1.38,1.19 0.93,1.53 3.72,2.91 3.7,1.84 -2.18,0.87 6.45,1.91l385.19 -0.25c7.05,0 22.59,1.69 28.06,-1.24 11.17,-5.99 -5.21,-4.19 13.59,-13.26l0.26 -0.69c-28.25,3.78 -389.19,1.19 -427.77,1.23l-0.21 -157.52c5.78,-0.13 13.16,-1.03 18.19,-0.97 9.01,0.12 9.19,2.05 18.97,1.05 11.75,-1.2 8.42,-0.39 18.96,0.28 6.71,0.42 13.14,-1.33 20.5,-1.89 -0.22,-7.33 0.99,-11.7 3.46,-16.49l268.36 0.41 2.04 16.35c6.34,0.13 9.23,0.92 14.71,1.43 9.16,0.84 9.31,-1.03 17.09,-1.05 7.26,-0.02 7.25,1.66 15.1,1.27 7.68,-0.4 9.61,-1.69 19.03,-1.23l2.58 -8.36 9.58 -2.82 -0.01 -11.41c-10.63,-2.73 -13.51,3.5 -13.49,-7.2 0.02,-10.19 4.52,-0.77 14.02,-7.94l-0.25 -11.91 -14.32 -0.64 -0.83 13.12 -11.25 -0.36 -0.28 -9.69 13.72 -0.29 0.35 -13.14c7.38,0.31 8.88,0.15 13.21,-3.64l-0.54 -9.5c-0.83,-0.23 -1.64,-0.91 -1.93,-0.44l-11.56 -3.33 -0.12 -7.59 6.74 -1.9c5.48,-1.5 0.61,1.16 6.57,-1.89l0.52 -9.48c-1.77,-1.53 -1.65,-4.4 -13.14,-3.36l0.35 -10.92c14.55,0.39 1.69,1.78 10.96,-1.92 0.49,-0.2 1.2,-0.5 1.73,-0.87l0.04 -9.48c-0.66,-0.36 -1.5,-1.35 -1.85,-0.84l-10.8 -2.33c-1.01,-13.45 -0.59,-7.73 11.57,-12l1.18 -11.35c-10.65,-4.65 -14.23,3.34 -14.17,-7.57 0.06,-11.54 2.09,-1.51 13.7,-7.63l0.1 -11.41c-13.89,-3.9 -13.09,5.62 -13.66,-9.45 2.54,-2.69 1.02,-0.78 5.26,-2.33l3.36 -1.08c0.65,-0.24 1.15,-0.44 1.74,-0.67 0.6,-0.24 1.24,-0.57 1.74,-0.78 0.5,-0.21 1.22,-0.45 1.74,-0.83l0.2 -9.48c-0.63,-0.34 -1.52,-1.21 -1.89,-0.68 -0.37,0.52 -1.3,-0.47 -1.81,-0.63 -0.49,-0.15 -1.2,-0.35 -1.79,-0.54 -9.83,-3.08 -8.39,-0.31 -8.26,-9.53 0.48,-0.38 1.3,-1.34 1.63,-0.86l4.91 -1.95c3.21,-0.88 1.91,0.21 6.26,-0.98l0.92 -11.36c-10.54,-4.67 -14.15,3.14 -14.14,-7.61 0.02,-10.71 3.64,-3 13.6,-7.58l-0.11 -13.26zm0 0c-2.06,0.05 -3.88,0.22 -5.52,0.45l5.52 -0.45z"/>
   </g>
   <path class="fil1" d="M479.95 462.24l-0.26 -156.64 -11.31 -0.49c-9.42,-0.46 -11.35,0.83 -19.03,1.23 -7.85,0.39 -7.84,-1.29 -15.1,-1.27 -7.78,0.02 -7.93,1.89 -17.09,1.05 -5.48,-0.51 -8.37,-1.3 -14.71,-1.43l-0.75 19.43c-18.81,2.61 -48.04,0.91 -67.95,0.91 -39.51,0 -185.63,2.77 -204.11,-1.19l-1.05 -19.42c-7.36,0.56 -13.79,2.31 -20.5,1.89 -10.54,-0.67 -7.21,-1.48 -18.96,-0.28 -9.78,1 -9.96,-0.93 -18.97,-1.05 -5.03,-0.06 -12.41,0.84 -18.19,0.97l0.21 157.52c38.58,-0.04 399.52,2.55 427.77,-1.23z"/>
   <path class="fil2" d="M128.59 304.42l1.05 19.42c18.48,3.96 164.6,1.19 204.11,1.19 19.91,0 49.14,1.7 67.95,-0.91l0.75 -19.43 -2.04 -16.35 -268.36 -0.41c-2.47,4.79 -3.68,9.16 -3.46,16.49z"/>
   <path class="fil2" d="M78.45 61.29l38.9 0.09 297.66 0 36.31 0.04 3.43 -10.18c0.06,-0.22 0.1,-0.81 0.31,-1.14l0.63 -12.16c-9.23,-5.02 -277.23,-2.3 -330.53,-2.3l-34.23 0c-20.38,0.65 -11.96,6.33 -12.48,25.65z"/>
   <polygon class="fil1" points="415.01,61.38 117.35,61.38 117.46,74.51 413.39,74.52 "/>
   <polygon class="fil2" points="207.66,443.97 324.49,444.24 324.89,422.54 208.26,422.14 "/>
  </g>
 </g>
</svg>
