<?xml version="1.0" encoding="UTF-8"?>
<!DOCTYPE svg PUBLIC "-//W3C//DTD SVG 1.1//EN" "http://www.w3.org/Graphics/SVG/1.1/DTD/svg11.dtd">
<!-- Creator: CorelDRAW 2021 (64-Bit) -->
<svg xmlns="http://www.w3.org/2000/svg" xml:space="preserve" width="512px" height="512px" version="1.1" style="shape-rendering:geometricPrecision; text-rendering:geometricPrecision; image-rendering:optimizeQuality; fill-rule:evenodd; clip-rule:evenodd"
viewBox="0 0 512 512"
 xmlns:xlink="http://www.w3.org/1999/xlink"
 xmlns:xodm="http://www.corel.com/coreldraw/odm/2003">
 <defs>
  <style type="text/css">
   <![CDATA[
    .fil1 {fill:#0DA5DD}
    .fil6 {fill:#0EC2B1}
    .fil4 {fill:#11AE96}
    .fil2 {fill:#16465D}
    .fil3 {fill:#31B1E1}
    .fil5 {fill:#76C7B9}
    .fil0 {fill:#E4E4E4}
    .fil7 {fill:#F4F4F4}
   ]]>
  </style>
 </defs>
 <g id="Layer_x0020_1">
  <metadata id="CorelCorpID_0Corel-Layer"/>
  <g id="_2401183009856">
   <path class="fil0" d="M0 512l512 0 0 -383.44 -512 0 0 383.44zm190.99 -273.7l-1.75 1.84c-1.33,3.42 -4.36,7.73 -7.13,10.39 -2.14,-2.7 -0.02,-1.3 -1.34,0.57 -4.13,5.83 1.98,-1.09 -1.15,2.14 -13.75,-2.45 -30.2,-2.22 -44.05,1.54 -7.74,2.1 -9.08,3.22 -11.81,1.08 3.06,22.22 0.58,31.51 -12.08,43.81 -4.98,4.83 -11.22,8.27 -19.7,9.98 -12.61,2.55 -16.21,-1.64 -24.98,-2.23 -3.31,-1.31 -0.58,-0.84 -4.3,-0.42 -4.39,9.72 -8.07,16.2 -11.88,27.73 -3.36,10.17 -5.03,24.99 -4.84,36.47l1.41 0.48c2.37,0.62 5.96,0.33 6.37,5.16 0.3,3.53 -1.17,4.89 -3.64,5.94 -2.14,0.91 -0.41,-0.62 -2.9,1.22 1.54,10.93 2.83,12.28 5.18,20.61 1.84,6.54 5.04,13.91 7.74,18.28 1.87,3.01 3.03,5.28 4.98,8.05 0.77,1.1 1.69,2.6 2.55,3.83l15.53 17.43c1.97,-3.36 0.57,-4.71 6.4,-6.52l2.74 2.01c0.19,0.15 0.85,0.75 1.06,0.91l0.04 4.6c-3.16,1.38 0.3,0.91 -3.84,1.6l1.43 2.21c0.09,0.16 0.2,0.37 0.29,0.53 0.76,1.35 0.19,1.14 1.81,2.88 2.29,2.44 13.87,8.56 17.54,10.53 31.17,16.76 73.27,15.58 104.92,-0.99l11.44 -6.95c5.4,-3.63 15.49,-11.89 20.08,-17.47 3.91,-4.75 3.55,-3.06 8.23,-10.2 0.93,-1.42 0.9,-1.24 1.96,-2.75 0.62,-0.9 1.46,-2.24 1.94,-2.99 6.68,-10.48 4.71,-8.84 9.73,-18.31 6.54,-12.38 -0.08,-14.01 11.4,-14.94 0.51,-0.04 2.38,-0.19 2.62,-0.27 3.22,-1.13 2.82,0.91 0.71,-1.51l5.52 -1.95 1.9 -0.37c8.18,-3.02 13.28,-4.67 20.52,-8.61 5.57,-3.03 12.23,-7.57 16.78,-11.99 11.01,-10.69 17.51,-17.44 24.38,-33.25 13.73,-31.61 9.15,-64.88 -7.95,-91.27 -25.48,-39.3 -78,-54.5 -121.06,-33.72 -5.51,2.66 -18.41,10.65 -21.82,14.16l-10.98 10.73z"/>
   <polygon class="fil1" points="0,128.56 512,128.56 512,0 0,0 "/>
   <path class="fil0" d="M190.99 238.3l10.98 -10.73c3.41,-3.51 16.31,-11.5 21.82,-14.16 43.06,-20.78 95.58,-5.58 121.06,33.72 17.1,26.39 21.68,59.66 7.95,91.27 -6.87,15.81 -13.37,22.56 -24.38,33.25 -4.55,4.42 -11.21,8.96 -16.78,11.99 -7.24,3.94 -12.34,5.59 -20.52,8.61 -0.29,8.82 -8.13,25.31 -7.99,28.73l-0.27 1.35c11.93,-1.79 23.21,-5.05 32.99,-9.68 14.26,-6.75 20.57,-11.14 31.73,-21.06 48.31,-42.9 54.04,-118.43 15.29,-167.26 -1.76,-2.21 -3.87,-3.75 -4.74,-7.02 -3.26,-1 -16.31,-19.48 -43.26,-30.78 -39.3,-16.48 -82.69,-14.12 -118.44,9.84 -11.55,7.74 -21.21,16.42 -29.2,26.91 -2.76,3.61 -6.68,7.03 -7.68,11.91 18.19,-0.57 23.6,2.8 31.44,3.11z"/>
   <path class="fil0" d="M289.22 392.62l-5.52 1.95c2.11,2.42 2.51,0.38 -0.71,1.51 -0.24,0.08 -2.11,0.23 -2.62,0.27 -11.48,0.93 -4.86,2.56 -11.4,14.94 -5.02,9.47 -3.05,7.83 -9.73,18.31 -0.48,0.75 -1.32,2.09 -1.94,2.99 -1.06,1.51 -1.03,1.33 -1.96,2.75 -4.68,7.14 -4.32,5.45 -8.23,10.2 -4.59,5.58 -14.68,13.84 -20.08,17.47l-11.44 6.95c-31.65,16.57 -73.75,17.75 -104.92,0.99 -3.67,-1.97 -15.25,-8.09 -17.54,-10.53 -1.62,-1.74 -1.05,-1.53 -1.81,-2.88 -0.09,-0.16 -0.2,-0.37 -0.29,-0.53l-1.43 -2.21c4.14,-0.69 0.68,-0.22 3.84,-1.6l-0.04 -4.6c-0.21,-0.16 -0.87,-0.76 -1.06,-0.91l-2.74 -2.01c-5.83,1.81 -4.43,3.16 -6.4,6.52l-15.53 -17.43c-0.86,-1.23 -1.78,-2.73 -2.55,-3.83 -1.95,-2.77 -3.11,-5.04 -4.98,-8.05 -2.7,-4.37 -5.9,-11.74 -7.74,-18.28 -2.35,-8.33 -3.64,-9.68 -5.18,-20.61 2.49,-1.84 0.76,-0.31 2.9,-1.22 2.47,-1.05 3.94,-2.41 3.64,-5.94 -0.41,-4.83 -4,-4.54 -6.37,-5.16l-1.41 -0.48c-0.19,-11.48 1.48,-26.3 4.84,-36.47 3.81,-11.53 7.49,-18.01 11.88,-27.73 3.72,-0.42 0.99,-0.89 4.3,0.42 -1.72,-1.69 -4.61,-2.91 -6.74,-4.48 -2.53,-1.87 -4.24,-3.22 -6.07,-4.81l-2.24 -1c-3.59,10.35 -14.44,20.05 -18.91,52.59 -8.16,59.51 24.38,114.04 78.79,137.64 41.85,18.16 94.09,10.4 127.68,-15.87 25.21,-19.72 44.38,-45.15 49.71,-78.87z"/>
   <path class="fil2" d="M382.01 51.56c-5.17,1.35 -4.48,6.93 -4.43,12.44 0.03,4.03 -0.71,13.88 0.84,16.8 2.15,4.06 9.61,2.69 14.38,2.68 15.3,0 81.73,1.04 86.24,-0.29 5.16,-1.53 4.31,-7.47 4.32,-12.79 0.03,-22.41 4.06,-18.99 -32.96,-18.99 -10.68,0 -62.63,-1.35 -68.39,0.15z"/>
   <path class="fil3" d="M50.75 296c1.41,0.1 1,-0.27 1.2,1.13l2.24 1 2.06 -4.52c1.22,-2.94 17.09,-20.66 20.31,-23.33l32.15 -20.51c0.16,-0.09 0.36,-0.2 0.52,-0.28 0.16,-0.08 0.36,-0.19 0.53,-0.26l2.24 -0.85c6.24,-2.08 5.7,-0.9 6.39,-3.16 9.6,-4.1 22.15,-6.21 33.58,-7.18 6.5,-0.55 13.24,-0.56 19.74,-0.08 5.87,0.43 12.49,2.08 17.53,2.18l1.75 -1.84c-7.84,-0.31 -13.25,-3.68 -31.44,-3.11 1,-4.88 4.92,-8.3 7.68,-11.91 7.99,-10.49 17.65,-19.17 29.2,-26.91 35.75,-23.96 79.14,-26.32 118.44,-9.84 26.95,11.3 40,29.78 43.26,30.78 -0.75,-3.85 -15.37,-15.58 -18.77,-18.21 -22.52,-17.37 -58.76,-28.35 -89.21,-23.91 -23.2,3.38 -38.9,9.71 -55.26,20.54 -12.54,8.3 -27.46,23.04 -35.67,36.2 -3.93,6.28 -6.2,2.52 -23.73,5.99l-19.42 4.83c-13.69,-18.38 -42.96,-20.12 -58.06,-6.34 -4.03,3.67 -6.36,5.22 -9.81,11.02 -7.59,12.76 -7.82,27.84 -0.78,41.2 0.67,1.28 1.19,1.95 2.06,3.47 1.56,2.69 1.26,0.96 1.27,3.9z"/>
   <path class="fil3" d="M54.19 298.13c1.83,1.59 3.54,2.94 6.07,4.81 2.13,1.57 5.02,2.79 6.74,4.48 8.77,0.59 12.37,4.78 24.98,2.23 8.48,-1.71 14.72,-5.15 19.7,-9.98 12.66,-12.3 15.14,-21.59 12.08,-43.81 -0.58,-0.84 -4.64,-8.91 -5.37,-10.64 -0.69,2.26 -0.15,1.08 -6.39,3.16l-2.24 0.85c-0.17,0.07 -0.37,0.18 -0.53,0.26 -0.16,0.08 -0.36,0.19 -0.52,0.28l-32.15 20.51c-3.22,2.67 -19.09,20.39 -20.31,23.33l-2.06 4.52z"/>
   <path class="fil4" d="M281.42 424.33c0.67,-4.1 -0.09,-1.85 1.71,-3.35 -0.14,-3.42 7.7,-19.91 7.99,-28.73l-1.9 0.37c-5.33,33.72 -24.5,59.15 -49.71,78.87 -33.59,26.27 -85.83,34.03 -127.68,15.87 -54.41,-23.6 -86.95,-78.13 -78.79,-137.64 4.47,-32.54 15.32,-42.24 18.91,-52.59 -0.2,-1.4 0.21,-1.03 -1.2,-1.13 -9.92,16.26 -15.76,28.79 -19.15,49.24 -9.48,57.35 18.3,110.43 65.67,137.45 39.35,22.46 94.87,22.13 135.29,-3.75 5.63,-3.61 14.98,-10.47 19.47,-14.92l8.23 -8.54c8.55,-10.4 7.41,-8.47 14.85,-20.35 1.77,-2.83 4.55,-9.02 6.31,-10.8z"/>
   <path class="fil0" d="M118.39 245.22c0.73,1.73 4.79,9.8 5.37,10.64 2.73,2.14 4.07,1.02 11.81,-1.08 13.85,-3.76 30.3,-3.99 44.05,-1.54 3.13,-3.23 -2.98,3.69 1.15,-2.14 1.32,-1.87 -0.8,-3.27 1.34,-0.57 2.77,-2.66 5.8,-6.97 7.13,-10.39 -5.04,-0.1 -11.66,-1.75 -17.53,-2.18 -6.5,-0.48 -13.24,-0.47 -19.74,0.08 -11.43,0.97 -23.98,3.08 -33.58,7.18z"/>
   <path class="fil5" d="M283.13 420.98c-1.8,1.5 -1.04,-0.75 -1.71,3.35 22.04,0.06 49.56,-16.53 61.26,-25.64 36.52,-28.42 55.24,-77.24 45.34,-123.54 -4.33,-20.25 -11.67,-36.02 -23.81,-52.18 -3.06,-4.08 -3.21,-4.75 -6.08,-5.66 0.87,3.27 2.98,4.81 4.74,7.02 38.75,48.83 33.02,124.36 -15.29,167.26 -11.16,9.92 -17.47,14.31 -31.73,21.06 -9.78,4.63 -21.06,7.89 -32.99,9.68l0.27 -1.35z"/>
   <path class="fil0" d="M23.24 10.4c-11.05,6.31 -1.92,24.55 10.22,17.45 9.83,-5.74 2.2,-24.55 -10.22,-17.45z"/>
   <path class="fil2" d="M71 10.09c-11.58,5.1 -5.33,23.1 7.84,18.33 11.43,-4.16 5.16,-24.05 -7.84,-18.33z"/>
   <path class="fil6" d="M49.73 9.62c-5.37,1.61 -8.76,5.02 -7.7,11.61 0.18,1.09 0.68,2.65 1.25,3.49 4.33,6.36 20.55,6.83 17.95,-8.49 -0.42,-2.49 -1.52,-4.19 -3.95,-5.48 -2.57,-1.38 -5.11,-1.86 -7.55,-1.13z"/>
   <path class="fil0" d="M302.74 40.8l0 46.4c0,4.42 -1.39,7.98 2.02,9.33 2.23,-3.42 1.04,-49.11 1.04,-55.73 0,-3.04 0.52,-6.28 -1,-8.6 -3.09,0.7 -2.06,0.15 -2.06,8.6z"/>
   <path class="fil7" d="M179.2 96.45c1.83,-2.47 1.77,-61.16 0.25,-64.41 -3.1,1.24 -2.21,2.29 -2.14,6.32l0.06 42.44c0,2.95 0,5.88 -0.05,8.83 -0.07,4.03 -0.86,5.72 1.88,6.82z"/>
  </g>
 </g>
</svg>
