<?xml version="1.0" encoding="UTF-8"?>
<!DOCTYPE svg PUBLIC "-//W3C//DTD SVG 1.1//EN" "http://www.w3.org/Graphics/SVG/1.1/DTD/svg11.dtd">
<!-- Creator: CorelDRAW 2021 (64-Bit) -->
<svg xmlns="http://www.w3.org/2000/svg" xml:space="preserve" width="512px" height="512px" version="1.1" style="shape-rendering:geometricPrecision; text-rendering:geometricPrecision; image-rendering:optimizeQuality; fill-rule:evenodd; clip-rule:evenodd"
viewBox="0 0 512 512"
 xmlns:xlink="http://www.w3.org/1999/xlink"
 xmlns:xodm="http://www.corel.com/coreldraw/odm/2003">
 <defs>
  <style type="text/css">
   <![CDATA[
    .fil0 {fill:#FFAD16}
   ]]>
  </style>
 </defs>
 <g id="Layer_x0020_1">
  <metadata id="CorelCorpID_0Corel-Layer"/>
  <path class="fil0" d="M442.88 400.96c-3.47,2.63 -3.37,3.81 -5.51,5.47 -0.66,-0.38 -1.77,-0.16 -6.77,1.42 -0.56,0.18 -1.07,0.33 -1.54,0.47 -4.79,-1.6 -0.44,-3.44 -9.84,-0.47 -0.66,0.21 -1.25,0.39 -1.79,0.54l-0.12 -0.01 -0.02 0.05c-5.78,1.64 -4.8,0.18 -11.36,-0.05 -1.18,3.46 -2.66,6 -4.27,7.77 -1.34,-2.23 -1.83,-5.51 -0.84,-9.48l-1.82 1.19c-7.21,4.75 -4.13,3.29 -8.29,8.61l-0.12 0.15c-1.57,-2.22 -2.22,-5.69 -1.15,-9.95l-1.82 1.19c-7.21,4.75 -4.13,3.29 -8.29,8.61 -0.69,0.88 -1.33,1.6 -1.96,2.18l-1.19 -7.33c-2.7,-0.52 -7.29,-0.46 -12.68,-0.19 -6.79,-0.75 -21.2,0.8 -33.15,1.31 -3.07,-0.23 -5.43,-0.71 -6.65,-1.61 -3.46,-0.25 1.33,-0.47 -3.99,0 -2.9,0.25 -2.27,0.18 -4.97,0.76l-0.49 0.11c-0.8,-0.23 -1.45,-0.52 -1.93,-0.87 -3.46,-0.25 1.33,-0.47 -3.99,0 -2.9,0.25 -2.27,0.18 -4.97,0.76 -5.64,1.32 -5.98,2.92 -12.8,1.19l-1.28 0.39c-1.1,0.43 -3.62,0.75 -6.37,0.93l-5.29 0.05 -0.83 0.1c-1.14,-0.02 -2.14,-0.08 -2.87,-0.18l-7.68 0.08 -8.48 1.04c-0.79,0.03 -1.6,0.07 -2.45,0.11 -10.24,-1.35 -60.52,4.54 -74.83,4.54 -4.26,6.37 -6.08,6.36 -4.42,17.18l6.98 66.02 11.29 -0.83 0.09 0.83 313.6 -23.04c0.22,-9.61 4.87,-7.1 3.83,-19.08 -0.57,-6.47 -2.05,-15.21 -2.5,-21.92 -0.97,-14.4 -3.89,-29.01 -3.89,-43.48 -1.97,0.95 -6.48,1.51 -11.36,1.87 -0.01,-0.63 -0.02,-1.25 -0.02,-1.87 -4.07,1.96 -19.05,2.26 -25.59,2.57 -7.39,0.35 -18.45,1.52 -25.61,2.87zm-430.36 -18.53l0.1 34.99c-2.35,10.48 -4.25,20.9 -5.68,31.12l-4.2 53.41c-0.34,5.69 0.96,3.96 1.1,10.05l11.38 0 7.82 0 11.38 0 -1.24 -24.38c-0.08,-4.85 -0.96,-7.48 -0.71,-10.99 2.06,-29.73 1.71,-52.16 10.16,-81.86 3.9,-13.69 6.13,-22.46 11.13,-34.65 -0.01,34.57 0.16,57.05 8.94,93.02l12.97 45.91c2.47,7.43 3.16,12.95 7.53,12.95l11.38 0 44.24 0 11.39 0c4.52,-0.26 8.32,-0.67 10.93,-1.28l-46.09 -3.83c-4.3,0.04 -7.04,0.16 -8.84,0.21l-2.54 -0.21 -0.62 0.01c-0.75,-0.32 -0.94,-1.01 -1.96,-2.43 4.97,0.06 10.68,0.11 15.64,0.05 9.91,0.08 20.98,0.02 23.33,-0.8 7.67,-2.68 -1.07,-1.45 5.93,-3.03 4.62,-1.04 9.76,-0.23 15.15,-1.49l0 -2.56c-12.11,0 -19.46,-1.35 -30.71,-1.29 -2.64,0.02 -5.29,0.02 -7.93,0.03 -1.11,-0.02 -2.26,-0.03 -3.45,-0.03 -2.26,0.01 -4.51,0.02 -6.76,0.03l-0.06 0 -0.46 0 -0.07 0c-4.85,-0.01 -9.71,-0.02 -14.56,-0.02l0 -1.28c7.74,0.01 15.49,0.02 23.23,0.05 0.8,0.01 1.52,0 2.19,-0.02l0 0 9.19 0.02c10.22,0.04 8.46,-2 15.35,-2.57 9.09,-0.76 9.76,2.51 14.04,-3.88 -5.57,-2.67 -20.13,0.72 -19.58,-3.37 0.03,-0.21 1.85,-2.03 2.2,-2.2 4.32,-2 7.82,0.12 17.38,-2.11l0 -2.56c-13.27,0 -21.47,-1.3 -34.56,-1.28l-9.52 0.01 -0.05 0 -1.81 -0.01 -6.72 0.01 -0.38 0 -17.36 -0.01 47.22 -1.42c4.54,-0.68 3.46,-1.64 7.98,-2.26 8.78,-1.22 12.99,2.99 15.2,-5.28 -8.57,0 -13.5,0.35 -20.48,-1.28 2.31,-2.19 2.67,-3.17 3.96,-3.59 1.34,0.08 2.28,0.07 3.01,-0.3 0.86,-0.01 1.91,0 3.24,0.02 7.37,0.09 8.77,1.82 10.27,-3.81 -13.7,0 -22.94,-1.28 -37.12,-1.28l-10.54 0 -0.18 0 -0.44 0 -0.22 0 -4.12 0 -0.22 0 -0.4 0 -0.22 0 -0.4 0 -0.22 0 -0.4 0 -0.22 0 -0.4 0 -0.22 0 -0.4 0 -0.22 0 -0.4 0 -0.22 0 -0.4 0 -0.22 0 -0.4 0 -0.22 0 -0.4 0 -0.22 0 -0.4 0 -0.22 0 -0.4 0 -0.22 0 -0.4 0 -0.22 0 -0.4 0 -0.22 0 -0.4 0 -0.22 0 -0.4 0 -0.22 0 -11.56 0 -0.22 0 -0.4 0 -0.22 0 -0.4 0 -0.22 0 -0.4 0 -0.22 0 -0.4 0 -0.22 0 -0.4 0 0 -1.28c7.48,0 14.96,-0.02 22.44,-0.02l0.18 0c3.18,0 6.35,0.01 9.52,0.02 4.52,0.02 7.85,0.49 10.96,0l0.42 0c6.2,0.03 10.16,0.89 14.37,-0.99 0.26,-0.12 0.55,-0.35 0.8,-0.48 0.25,-0.13 0.52,-0.38 0.77,-0.51 0.93,-0.51 1.82,-0.91 2.66,-1.22 1.15,0.16 2.08,0.05 2.88,-0.78 7.63,-1.26 10.87,4.59 13.08,-3.7 -14.56,0 -24.68,-1.28 -39.68,-1.28l-10.88 0 -0.5 0 -0.14 0 -0.5 0 -0.14 0 -0.5 0 -0.14 0 -0.5 0 -0.14 0 -0.5 0 -0.14 0 -0.5 0 -0.14 0 -0.5 0 -0.14 0 -0.5 0 -0.14 0 -0.5 0 -0.14 0 -0.5 0 -0.14 0 -0.5 0 -0.14 0 -0.5 0 -0.14 0 -0.5 0 -0.14 0 -0.5 0 -0.14 0 -0.5 0 -0.14 0 -0.5 0 -0.14 0 -0.5 0 -0.14 0 -0.5 0 -0.14 0 -0.5 0 -0.14 0 -0.5 0 -0.14 0 -0.5 0 -0.14 0 -0.5 0 -0.14 0 -0.5 0 -0.14 0 -0.5 0 -0.14 0 -0.5 0 -0.14 0 -0.5 0 -0.14 0 -0.5 0 -0.14 0 -0.5 0 -0.14 0 -0.5 0 -0.14 0 -0.5 0 -0.14 0 -0.5 0 -0.14 0 -0.5 0 -0.14 0 -0.5 0 -0.14 0 -0.5 0 -0.14 0 -0.5 0 -0.14 0 -0.5 0 -0.14 0 -0.5 0 -0.14 0 -0.5 0 -0.14 0 -0.5 0 -0.14 0 -0.5 0 -0.14 0 -0.5 0 -0.14 0 -0.5 0 -0.14 0 -0.5 0 -0.14 0 -0.5 0 -0.14 0 -0.5 0 -0.14 0 -0.5 0 -0.14 0 -0.5 0 -0.14 0 0 -1.16c7.35,0.1 16.71,0.2 25.49,0.14 15.53,0.09 32.69,-0.1 37.23,-1.54 5.86,-1.86 12.78,-1.06 19.2,-2.56l0 -2.56c-14.59,0 -25.54,-1.28 -40.96,-1.28l-11.22 0 -0.16 0 -0.5 0 -0.16 0 -0.5 0 -0.16 0 -0.5 0 -0.16 0 -0.5 0 -0.16 0 -0.5 0 -0.16 0 -0.5 0 -0.16 0 -0.5 0 -0.16 0 -0.5 0 -0.16 0 -0.5 0 -0.16 0 -0.5 0 -0.16 0 -0.5 0 -0.16 0 -0.5 0 -0.16 0 -0.5 0 -0.16 0 -0.5 0 -0.16 0 -0.5 0 -0.16 0 -0.5 0 -0.16 0 -0.5 0 -0.16 0 -0.5 0 -0.16 0 -0.5 0 -0.16 0 -0.5 0 -0.16 0 -0.5 0 -0.16 0 -0.5 0 -0.16 0 -0.5 0 -0.16 0 -0.5 0 -0.16 0 -0.5 0 -0.16 0 -0.5 0 -0.16 0 -0.5 0 -0.16 0 -0.5 0 -0.16 0 -0.5 0 -0.16 0 -0.5 0 -0.16 0 -0.5 0 -0.16 0 -0.5 0 -0.16 0 -0.5 0 -0.16 0 -0.5 0 -0.16 0 -0.5 0 -0.16 0 -0.5 0 -0.16 0 -0.5 0 -0.16 0 -0.5 0 -0.16 0 -0.5 0 -0.16 0 -0.5 0 -0.16 0 -0.5 0 -0.16 0 -0.5 0 -0.16 0 -0.5 0 -0.16 0 -0.5 0 -0.16 0 -0.5 0 -0.16 0 -0.5 0 -0.16 0 -0.5 0 0 -1.13c7.93,0.11 18.66,0.22 28.41,0.17 15.99,0.07 33.19,-0.11 35.88,-1.31 4.27,-1.91 2.32,-2.49 4.89,-2.67 0.76,0.02 1.31,0.02 1.75,-0.06 1.32,-0.02 3.21,-0.02 5.97,-0.03 6.69,0 6.24,1.09 7.58,-3.93 -15.18,0 -26.39,-1.28 -42.24,-1.28l-11.2 0 -0.18 0 -0.52 0 -0.18 0 -0.52 0 -0.18 0 -0.52 0 -0.18 0 -0.52 0 -0.18 0 -0.52 0 -0.18 0 -0.52 0 -0.18 0 -0.52 0 -0.18 0 -0.52 0 -0.18 0 -0.52 0 -0.18 0 -0.52 0 -0.18 0 -0.52 0 -0.18 0 -0.52 0 -0.18 0 -0.52 0 -0.18 0 -0.52 0 -0.18 0 -0.52 0 -0.18 0 -0.52 0 -0.18 0 -0.52 0 -0.18 0 -0.52 0 -0.18 0 -0.52 0 -0.18 0 -0.52 0 -0.18 0 -0.52 0 -0.18 0 -0.52 0 -0.18 0 -0.52 0 -0.18 0 -0.52 0 -0.18 0 -0.52 0 -0.18 0 -0.52 0 -0.18 0 -0.52 0 -0.18 0 -0.52 0 -0.18 0 -0.52 0 -0.18 0 -0.52 0 -0.18 0 -0.52 0 -0.18 0 -0.52 0 -0.18 0 -0.52 0 -0.18 0 -0.52 0 -0.18 0 -0.52 0 -0.18 0 -0.52 0 -0.18 0 -0.52 0 -0.18 0 -0.52 0 -0.18 0 -0.52 0 -0.18 0 -0.52 0 -0.18 0 -0.52 0 -0.18 0 -0.52 0 -0.18 0 -0.52 0 -0.18 0 -0.52 0 -0.18 0 -0.52 0 -0.18 0 -0.52 0 -0.18 0 -0.52 0 -0.18 0 -0.52 0 0 -1.08c8.96,0.19 21.13,0.44 32.22,0.33 15.92,0.13 32.55,-0.17 37.99,-2 1.93,-0.65 3.07,-0.95 4.01,-1.08l0.06 -0.01 0.06 -0.01 0.07 -0.01c1.58,-0.18 2.69,0.12 6.31,0.09 6.92,-0.05 5.92,0.52 8.88,-3.91 -3.58,-1.72 -22.19,-2.06 -42,-1.96 -16.92,-0.1 -36.99,0.3 -50.16,0.53l0 -0.98c9.9,0.15 24.06,0.36 36.39,0.28 17,0.09 33.98,-0.14 36.86,-1.42 5.48,-2.46 -0.87,-2.83 9.89,-2.91 6.62,-0.05 6.43,-0.02 11.58,-1.22l0 -2.56c-16.43,0 -29.91,-1.28 -47.36,-1.28l-10.64 0 -0.74 0 -0.02 0 -0.74 0 -0.02 0 -0.74 0 -0.02 0 -0.74 0 -0.02 0 -0.74 0 -0.02 0 -0.74 0 -0.02 0 -0.74 0 -0.02 0 -0.74 0 -0.02 0 -0.74 0 -0.02 0 -0.74 0 -0.02 0 -0.74 0 -0.02 0 -0.74 0 -0.02 0 -0.74 0 -0.02 0 -0.74 0 -0.02 0 -0.74 0 -0.02 0 -0.74 0 -0.02 0 -0.74 0 -0.02 0 -0.74 0 -0.02 0 -0.74 0 -0.02 0 -0.74 0 -0.02 0 -0.74 0 -0.02 0 -0.74 0 -0.02 0 -0.74 0 -0.02 0 -0.74 0 -0.02 0 -0.74 0 -0.02 0 -0.74 0 -0.02 0 -0.74 0 -0.02 0 -0.74 0 -0.02 0 -0.74 0 -0.02 0 -0.74 0 -0.02 0 -0.74 0 -0.02 0 -0.74 0 -0.02 0 -0.74 0 -0.02 0 -0.74 0 -0.02 0 -0.74 0 -0.02 0 -0.74 0 -0.02 0 -0.74 0 -0.02 0 -0.74 0 -0.02 0 -0.74 0 -0.02 0 -0.74 0 -0.02 0 -0.74 0 -0.02 0 -0.74 0 -0.02 0 -0.74 0 -0.02 0 -0.74 0 -0.02 0 -0.74 0 -0.02 0 -0.74 0 -0.02 0 -0.74 0 -0.02 0 -0.74 0 -0.02 0 -0.74 0 -0.02 0 -0.74 0 -0.02 0 71.73 -1.23c6.45,-0.36 4.87,-1.31 9.3,-2.22 4.38,-0.9 7.11,-0.73 11.13,-1.67 -1.37,-5.15 -15.19,-12.99 -19.56,-16.28l-20.3 -15.54c-9.64,-7.15 -10.1,-9.36 -15.19,-20.65 -18.55,-41.14 6.15,-95.39 6.41,-98.57 -6.25,4.18 -11.49,9.9 -16.56,15.48 2.72,-8.72 5.1,-14.5 5.18,-15.48 -8.78,5.88 -15.58,14.77 -22.7,22.1 -17.96,18.49 -32.81,41.34 -44.64,66.15 5.62,-14.51 10.79,-26.68 13.86,-32.79 20.88,-41.4 29.89,-53.83 55.89,-87.47 2.97,-3.84 7.58,-6.31 8.97,-11.51 3.79,1.01 2.08,0.52 5.12,2.56 0,-12.04 8.26,-14.2 16.29,-22.87 0.65,-0.11 1.4,-0.33 2.29,-0.68 1.8,-0.69 2.71,-1.77 3.63,-2.92 1.99,2.52 2.32,5.01 7.76,2.92 0.52,-0.2 0.97,-0.44 1.37,-0.7 1.15,1.07 2.57,1.39 4.5,1.21 4.09,-0.4 2.35,-0.51 4.61,-3.16l0.54 -0.64c1.41,3.12 3.2,4.09 6.23,3.8 4.09,-0.4 2.35,-0.51 4.61,-3.16 12.51,-14.65 4.85,-14.6 -4.47,-0.68 -1.08,-0.79 -2.28,-2.12 -3.48,-3.64 5.62,-7.75 2.89,-8.76 -2.41,-3.3 -1.17,-1.69 -2.24,-3.34 -3.07,-4.58 -3.56,2.38 -4.98,4.64 -6.68,6.87 -1.01,-1.36 -2,-2.8 -2.88,-4.13 4.43,-6.43 13.82,-14.82 21.08,-28.34 2.01,-3.73 3.57,-5.65 5.58,-9.78 1.8,-3.69 3.15,-7.33 4.64,-10.72 20.36,-46.2 8.58,-91.17 -10.22,-126.7l-11.38 0 -149.9 0 -11.38 0 1.28 430.08c0,-9.54 4.82,-27.86 11.24,-47.65zm145.01 -199.14c0.85,-0.91 1.93,-1.78 3.68,-2.43 -0.81,1.04 -1.64,2.19 -2.49,3.46 -0.38,-0.28 -0.78,-0.63 -1.19,-1.03zm-5.82 -0.58c-0.6,0.54 -1.29,1.07 -2.09,1.61 -0.49,-1.03 -0.65,-2.07 -0.54,-3.15 0.57,-0.26 1.21,-0.49 1.96,-0.69 0.22,0.82 0.44,1.56 0.67,2.23zm-85.22 225.55l0.01 0.06 -3.78 0 3.77 -0.06zm0.94 9.05l0.15 1.22c-1.4,0.02 -2.61,0.03 -3.58,0.03l0 -1.28c0.78,0 1.95,0.01 3.43,0.03zm1.23 8.95l0.2 1.26 -2.3 0 0 -1.28c0.58,0 1.29,0.01 2.1,0.02zm1.78 10.23l0.24 1.27 -1.56 0 0 -1.28 1.32 0.01zm1.85 8.96l0.29 1.27 -2.18 0 0 -1.28 1.89 0.01zm2.51 10.23l0.36 1.28 -2.2 0 0 -1.28 1.84 0zm5.78 20.44l0.01 0.04 -1.23 0 1.22 -0.04zm5.18 18.36l0.25 0.88 -0.25 0 0 -0.88zm-33.02 -159.12l-0.36 0.74c0.05,-0.26 0.08,-0.51 0.1,-0.74l0.26 0z"/>
 </g>
</svg>
