<?xml version="1.0" encoding="UTF-8"?>
<!DOCTYPE svg PUBLIC "-//W3C//DTD SVG 1.1//EN" "http://www.w3.org/Graphics/SVG/1.1/DTD/svg11.dtd">
<!-- Creator: CorelDRAW 2021 (64-Bit) -->
<svg xmlns="http://www.w3.org/2000/svg" xml:space="preserve" width="512px" height="512px" version="1.1" style="shape-rendering:geometricPrecision; text-rendering:geometricPrecision; image-rendering:optimizeQuality; fill-rule:evenodd; clip-rule:evenodd"
viewBox="0 0 512 512"
 xmlns:xlink="http://www.w3.org/1999/xlink"
 xmlns:xodm="http://www.corel.com/coreldraw/odm/2003">
 <defs>
  <style type="text/css">
   <![CDATA[
    .fil6 {fill:#03ACF4}
    .fil0 {fill:#8192CE}
    .fil1 {fill:#8DC53C}
    .fil3 {fill:#DC86E7}
    .fil7 {fill:#E321B3}
    .fil5 {fill:#EC1C26}
    .fil4 {fill:#F45A28}
    .fil2 {fill:#FDB23B}
   ]]>
  </style>
 </defs>
 <g id="Layer_x0020_1">
  <metadata id="CorelCorpID_0Corel-Layer"/>
  <g id="_2436527442064">
   <path class="fil0" d="M341.17 57.61c5.61,0.02 13.95,-2.38 13.37,8.06 -0.53,9.45 -9.9,7.59 -14.57,3.27l1.2 -11.33zm-302.49 259.66c-1.48,-23.38 -4.35,-39.66 -1.59,-64.3 1.12,-10.02 2.78,-20.29 5.15,-29.87 2.2,-8.91 3.4,-23.22 13.65,-15.12 0.18,9.42 -7.89,35.47 -9.12,49.93 -1.81,21.44 -0.25,35.18 1.92,55.33l11.29 -1.66c-2.25,-11.75 -4.88,-27.99 -1.49,-38.34l7.47 -0.03c4.08,10.03 0.41,26.03 4.66,37.35l24.46 4.13c-7.91,-49.02 -3.46,-75.64 16.33,-116.97l18.56 -29.32c3.34,0.02 2.31,-0.14 6.63,-6.19 9.32,-13.06 42.16,-35.17 56.38,-41.06 29.69,-12.3 59.69,-18.1 94.57,-13.2 34.65,4.87 56.32,16.99 79.2,32.52l23.14 19.96c7.62,8.17 21.39,28.59 27.26,39.93 28.93,55.83 21.17,128.85 -11.64,174.82 -36.92,51.71 -82.78,71.34 -146.32,75.14 2.09,-1.53 0.65,-0.65 1.6,1.97 54.62,1.43 101.81,-25.31 127.11,-51.59 12.79,-13.29 26.66,-31.71 35.98,-53.65 17.06,-40.19 11.23,-62.76 15.87,-73.65l7.17 -0.06c6.7,18.86 -6.34,59.03 -12.84,75.96 -24.61,64.12 -86.83,105.75 -157.29,113.3 3.77,0.81 12.05,4.91 16.56,7.49 6.66,0.42 13.98,-1.47 20.12,-3.14 8.11,-2.2 16.67,-6.36 14.01,5.66 9.2,-1.67 49.4,-13.9 53.32,-12.09 103.66,-64.27 134.73,-211.84 54.61,-315.2 -11.76,-15.16 -30,-29.82 -25.63,-34.59 2.46,-2.12 0.14,-3.69 6.83,-1.22 2.17,0.8 2.86,2 4.53,3.74 45.7,47.62 72.26,102.14 69.84,173.21 -1.61,47.01 -24.05,108.03 -54.97,139.94l-32.18 31.29c18.74,-2.33 35.8,7.53 49.08,17.28 4.08,3 9.36,8.54 14.29,9.51 9.67,-8.69 10.6,-14.99 6.62,-31.11 -4.35,-31.13 9.19,-47.03 38.18,-46.1l0 -407.27 -195.21 0 -51.58 0 -99.21 0 -116.9 0 -47.97 0 2.12 349.13c5.63,-6.55 4.14,-7.52 9.83,-12.95 9.42,-8.99 9.28,-11.05 25.6,-18.91zm89.64 -148.53c-3.9,2.42 -10.5,12.43 -13.15,16.84 -2.06,3.44 -3.28,6.2 -5.84,10.26 -3.23,5.13 -1.37,4.94 -8.02,5.02 -4.96,-4.86 -2.84,-7.58 0.91,-13.8 15.19,-25.2 27.66,-39.57 50.23,-57.02 7.04,-5.44 17.93,-12.76 26.59,-16.5 11.71,-3.71 73.36,-30.44 88.7,-16.96 0.18,7.69 -0.48,6.03 -18.21,7.19 -38.9,2.56 -74.74,19.87 -103.86,43.52l-6.2 6.64c-3.92,3.42 -8.12,4.24 -11.15,14.81zm47.09 -64.56c-7.07,1.48 -7.15,3.91 -11.8,5.04 -6.25,1.51 -5.6,-0.91 -6.85,-5.22 2.8,-7 5.62,-4.33 11.52,-9.41 10.47,-3.18 21.93,-9.46 34.5,-13.55 12.86,-4.17 26.98,-6.75 41.01,-8.14 42.14,-1.86 54.46,2.26 92.2,11.48 3.89,3.04 58.63,24.58 82.5,57.15 7.71,10.5 18.54,19.42 16.79,29.63 -9.08,2.19 -9.94,-2.33 -23.85,-21.03 -7.78,-10.46 -14.85,-14.83 -23.56,-22.74l-27.39 -18.99c-35.31,-19.07 -71.45,-28.75 -114.15,-24.88 -19.05,1.72 -58.41,10.71 -70.92,20.66z"/>
   <path class="fil1" d="M380.8 460.52c-67.58,39.92 -143.19,48.39 -215.76,11.24 -27.9,-14.28 -55.95,-37.13 -74.09,-61.89 -22.05,-30.09 -33.23,-52.72 -42.26,-96.63 -2.17,-20.15 -3.73,-33.89 -1.92,-55.33 1.23,-14.46 9.3,-40.51 9.12,-49.93 -10.25,-8.1 -11.45,6.21 -13.65,15.12 -2.37,9.58 -4.03,19.85 -5.15,29.87 -2.76,24.64 0.11,40.92 1.59,64.3 4.79,15.01 6.97,28.99 12.75,44 5.6,14.56 12.59,26.44 19.14,38.21 13.2,14.83 8.7,16.73 34.5,41.07 3.23,3.04 4.56,5.24 7.73,8.23 4.79,4.51 10.96,8.12 17.35,13.94 21.72,16.17 82.83,45.99 120.34,42.09 28.88,3.04 61.19,-3.05 87.12,-11.96 13.6,-4.67 22.07,-8.72 34.49,-15.08 11.97,-6.13 21.79,-14.48 31.73,-20.08l32.18 -31.29c30.92,-31.91 53.36,-92.93 54.97,-139.94 2.42,-71.07 -24.14,-125.59 -69.84,-173.21 -1.67,-1.74 -2.36,-2.94 -4.53,-3.74 -6.69,-2.47 -4.37,-0.9 -6.83,1.22 -4.37,4.77 13.87,19.43 25.63,34.59 80.12,103.36 49.05,250.93 -54.61,315.2z"/>
   <path class="fil2" d="M260.79 452.29c-47.44,-0.8 -85.3,-18.12 -116.86,-47.4 -15.89,-14.74 -19.16,-25.69 -28.33,-23.4 -3.93,9.46 17.74,27.92 24.43,33.72 3.38,2.93 4.75,4.71 8.46,7.53 38.6,29.4 74.82,41.13 128.3,39.86 70.46,-7.55 132.68,-49.18 157.29,-113.3 6.5,-16.93 19.54,-57.1 12.84,-75.96l-7.17 0.06c-4.64,10.89 1.19,33.46 -15.87,73.65 -9.32,21.94 -23.19,40.36 -35.98,53.65 -25.3,26.28 -72.49,53.02 -127.11,51.59z"/>
   <path class="fil3" d="M293.35 470.09c-4.51,-2.58 -12.79,-6.68 -16.56,-7.49 -53.48,1.27 -89.7,-10.46 -128.3,-39.86 -3.71,-2.82 -5.08,-4.6 -8.46,-7.53 -6.69,-5.8 -28.36,-24.26 -24.43,-33.72 9.17,-2.29 12.44,8.66 28.33,23.4 31.56,29.28 69.42,46.6 116.86,47.4 -0.95,-2.62 0.49,-3.5 -1.6,-1.97 -23.53,-0.81 -43.52,-4.97 -63.51,-13.99 -15.43,-6.96 -39.38,-20.95 -50.34,-34.45 -1.4,-1.72 -2.92,-3.27 -4.62,-5.02 -11.98,-12.31 -15.31,-15.76 -25.31,-30.71 -8.73,-13.05 -16.78,-35 -20.33,-51.46l-24.46 -4.13c2.52,27.75 25.67,77.66 47.27,98.01 27.02,25.43 43.97,43.17 88.74,56.62 19.06,5.73 69.05,14.35 86.72,4.9z"/>
   <g>
    <path class="fil3" d="M240.42 505.23c6.21,-1.68 1.59,-0.99 10.07,-0.42 28.88,3.04 61.19,-3.05 87.12,-11.96 13.6,-4.67 22.07,-8.72 34.49,-15.08 11.97,-6.13 21.79,-14.48 31.73,-20.08 18.74,-2.33 35.8,7.53 49.08,17.28 4.08,3 9.36,8.54 14.29,9.51 9.67,-8.69 10.6,-14.99 6.62,-31.11 -4.35,-31.13 9.19,-47.03 38.18,-46.1l0 18.11 0 86.62 -22.63 0 -489.37 0 0 -512 1.13 0 2.12 349.13c5.63,-6.55 4.14,-7.52 9.83,-12.95 9.42,-8.99 9.28,-11.05 25.6,-18.91 4.79,15.01 6.97,28.99 12.75,44 5.6,14.56 12.59,26.44 19.14,38.21 13.2,14.83 8.7,16.73 34.5,41.07 3.23,3.04 4.56,5.24 7.73,8.23 4.79,4.51 10.96,8.12 17.35,13.94 19.95,14.86 73.16,41.24 110.77,42.4l-0.5 0.11zm-191.73 -191.99c9.03,43.91 20.21,66.54 42.26,96.63 18.14,24.76 46.19,47.61 74.09,61.89 72.57,37.15 148.18,28.68 215.76,-11.24 -3.92,-1.81 -44.12,10.42 -53.32,12.09 -17.93,12.96 -77.36,12.32 -99.44,8.53 -55.77,-9.6 -106.29,-42.79 -136.19,-88.31 -13.07,-19.91 -28.77,-52.03 -31.87,-81.25l-11.29 1.66z"/>
   </g>
   <path class="fil4" d="M59.98 311.58c3.1,29.22 18.8,61.34 31.87,81.25 29.9,45.52 80.42,78.71 136.19,88.31 22.08,3.79 81.51,4.43 99.44,-8.53 2.66,-12.02 -5.9,-7.86 -14.01,-5.66 -6.14,1.67 -13.46,3.56 -20.12,3.14 -17.67,9.45 -67.66,0.83 -86.72,-4.9 -44.77,-13.45 -61.72,-31.19 -88.74,-56.62 -21.6,-20.35 -44.75,-70.26 -47.27,-98.01 -4.25,-11.32 -0.58,-27.32 -4.66,-37.35l-7.47 0.03c-3.39,10.35 -0.76,26.59 1.49,38.34z"/>
   <path class="fil5" d="M168.28 94.59c-5.9,5.08 -8.72,2.41 -11.52,9.41 1.25,4.31 0.6,6.73 6.85,5.22 4.65,-1.13 4.73,-3.56 11.8,-5.04 12.51,-9.95 51.87,-18.94 70.92,-20.66 42.7,-3.87 78.84,5.81 114.15,24.88l27.39 18.99c8.71,7.91 15.78,12.28 23.56,22.74 13.91,18.7 14.77,23.22 23.85,21.03 1.75,-10.21 -9.08,-19.13 -16.79,-29.63 -23.87,-32.57 -78.61,-54.11 -82.5,-57.15 -37.74,-9.22 -50.06,-13.34 -92.2,-11.48 -14.03,1.39 -28.15,3.97 -41.01,8.14 -12.57,4.09 -24.03,10.37 -34.5,13.55z"/>
   <path class="fil6" d="M179.04 113.54c-8.66,3.74 -19.55,11.06 -26.59,16.5 -22.57,17.45 -35.04,31.82 -50.23,57.02 -3.75,6.22 -5.87,8.94 -0.91,13.8 6.65,-0.08 4.79,0.11 8.02,-5.02 2.56,-4.06 3.78,-6.82 5.84,-10.26 2.65,-4.41 9.25,-14.42 13.15,-16.84 3.03,-10.57 7.23,-11.39 11.15,-14.81l6.2 -6.64c29.12,-23.65 64.96,-40.96 103.86,-43.52 17.73,-1.16 18.39,0.5 18.21,-7.19 -15.34,-13.48 -76.99,13.25 -88.7,16.96z"/>
   <path class="fil7" d="M482.32 146.79c-14.74,-2.26 -16.36,8.46 -9.88,12.94 9.02,6.24 13.06,-3.64 9.88,-12.94zm-286.03 -74.25c0.6,-5.2 0.04,-5.17 -1.83,-9.36 -21.32,-5.99 -14.25,24.32 1.83,9.36zm-102.07 54.2c-0.21,26.12 31.16,5.96 9.78,-4.98l-9.78 4.98zm246.95 -69.13l-1.2 11.33c4.67,4.32 14.04,6.18 14.57,-3.27 0.58,-10.44 -7.76,-8.04 -13.37,-8.06zm84.05 26.49c8.25,4.71 10.08,5.75 15.45,-2.5 -2.31,-13.67 -14.93,-12.92 -15.45,2.5z"/>
  </g>
 </g>
</svg>
