<?xml version="1.0" encoding="UTF-8"?>
<!DOCTYPE svg PUBLIC "-//W3C//DTD SVG 1.1//EN" "http://www.w3.org/Graphics/SVG/1.1/DTD/svg11.dtd">
<!-- Creator: CorelDRAW 2021 (64-Bit) -->
<svg xmlns="http://www.w3.org/2000/svg" xml:space="preserve" width="512px" height="512px" version="1.1" style="shape-rendering:geometricPrecision; text-rendering:geometricPrecision; image-rendering:optimizeQuality; fill-rule:evenodd; clip-rule:evenodd"
viewBox="0 0 512 512"
 xmlns:xlink="http://www.w3.org/1999/xlink"
 xmlns:xodm="http://www.corel.com/coreldraw/odm/2003">
 <defs>
  <style type="text/css">
   <![CDATA[
    .fil0 {fill:#3F3F3F}
    .fil1 {fill:#D0BDB1}
   ]]>
  </style>
 </defs>
 <g id="Layer_x0020_1">
  <metadata id="CorelCorpID_0Corel-Layer"/>
  <g id="_2436915400384">
   <path class="fil0" d="M0 0l512 0 0 512 -512 0 0 -512zm75.5 495.08c-105.61,-2.36 -0.96,-162.01 -64.29,-220.81 -4.42,-7.62 -1.92,-236.23 -2,-264.73 227.43,0.19 -17.37,0.65 184.56,-0.05 19.35,86.98 9.18,25.42 -0.96,101.52 -4.6,34.53 9.5,76.39 22.8,99.8 154.79,-61.3 95.48,116.03 98.5,131.17 1.85,9.26 3.7,6.56 20.36,9.69 9.36,1.75 14.8,1.51 19.07,6.79l-36.47 50.66c-9.24,15.56 -3.52,61.53 -4.59,82.93l-40.08 0.7c-0.58,2.05 -200.5,22.92 -196.9,2.33z"/>
   <path class="fil1" d="M226.34 70.42c56.49,22.65 53.77,4.06 105.55,66.55 34.18,41.25 45.91,87.68 61.41,113.59 11.6,39.17 24.96,72.08 34.89,115.19 8.83,38.31 17.1,92.31 17.63,132.68l-15.07 -75.06c-6,-25.62 -11.73,-47.92 -19.5,-73.2 -16.59,-53.96 -52.97,-118.23 -56.2,-130.67 -5.36,6.43 -15.07,-11.07 7.73,31.04 38.79,71.69 66.27,170.01 75.52,249.26l-23.92 -5.53c-4.93,-5.83 -8.16,-10.36 -20.28,-10.55 -14.68,-0.23 -19.86,6.58 -24.75,16.38l-23.97 -0.22c-2.18,-23.75 -18.57,-35.85 -32.26,-15.71 6.02,5.61 -4.33,0.09 4.59,1.08 7.19,0.79 -2.83,-2.85 5.45,0.23 9.85,3.66 5.04,-2.43 7.09,11.6 -24.55,8.71 -18.65,-6.5 -25.27,-18.06 -12.4,1.83 -11.1,1.63 -15.71,15.55l-289.27 3.91c4.73,3.89 7.15,2.52 12.85,11.73 47,2.38 483.81,3.06 493.08,-2.22 8.1,-6.45 5.94,-15.33 5.41,-26.68 -2.68,-56.24 0.34,-174.02 0,-234.53l-0.07 -185.53c0.02,-10.84 0.32,-22.1 0.14,-32.87 -0.36,-21.42 -3.83,-18.72 -10.07,-27.62l-255.76 -0.76 -5.77 23.34c-8.01,-5.32 -0.44,-1.06 -2.01,-16.29 -0.69,-6.61 0.39,-3 -1.92,-6.98l-2.48 3.38c-3.88,8.4 -2.69,9.16 -3.61,18.11 -1.74,16.99 0.59,14.63 -10.28,20.08 -0.05,-15.49 -2.31,-13.88 -8.17,-18.6 0,5.78 -0.78,16.51 0.96,19.71 2.68,4.92 -0.34,0.47 5.35,3.09l9.24 4.47 -0.55 20.11zm164.38 398.05c-8.61,3.37 -11.78,4.78 -21.22,-0.67 0.77,-21.26 13.86,-9 25.7,-21.83 -15.8,-13.91 -37.19,-4.11 -39.63,13.91 -3.19,23.55 21.75,22.29 29.87,18.58 7.54,-3.45 5.25,-2.42 5.28,-9.99zm-88.45 -25.83c13.3,-5.5 9.02,-7.21 19.14,-6.88 9.46,14.07 -6.71,12.36 9.94,24.7 42.21,-12.53 -19.86,-74.25 -29.08,-17.82zm76.06 -44.01c-35.75,-19.63 -33.9,29.28 -1.75,23.83 15.67,-2.66 32.31,-41.68 -8.35,-47.58 3.71,14.19 8.87,2.81 10.1,23.75z"/>
  </g>
 </g>
</svg>
