<?xml version="1.0" encoding="UTF-8"?>
<!DOCTYPE svg PUBLIC "-//W3C//DTD SVG 1.1//EN" "http://www.w3.org/Graphics/SVG/1.1/DTD/svg11.dtd">
<!-- Creator: CorelDRAW 2021 (64-Bit) -->
<svg xmlns="http://www.w3.org/2000/svg" xml:space="preserve" width="512px" height="512px" version="1.1" style="shape-rendering:geometricPrecision; text-rendering:geometricPrecision; image-rendering:optimizeQuality; fill-rule:evenodd; clip-rule:evenodd"
viewBox="0 0 512 512"
 xmlns:xlink="http://www.w3.org/1999/xlink"
 xmlns:xodm="http://www.corel.com/coreldraw/odm/2003">
 <defs>
  <style type="text/css">
   <![CDATA[
    .fil0 {fill:#546747}
    .fil1 {fill:#BBC8BA}
    .fil2 {fill:#FDB73D}
   ]]>
  </style>
 </defs>
 <g id="Layer_x0020_1">
  <metadata id="CorelCorpID_0Corel-Layer"/>
  <g id="_2436527712672">
   <path class="fil0" d="M430.4 356.85c-1.06,5.87 -2.12,6.48 -5.43,10.58 -6.74,8.34 -14.29,13.89 -22.88,20.25 -26.25,19.44 -100.68,44.32 -128.49,44.32 7.11,-10.61 50.86,-59.55 59.2,-72 -4.91,1.31 -10.88,5.7 -15.34,8.65 -5.04,3.34 -10.35,6.1 -15.13,8.88 -9,5.22 -23.03,12.23 -33.07,16.53 -21.68,9.29 -31.42,13.3 -53.94,19.66 -4.54,1.29 -5.82,1.46 -10.21,2.52 -5.12,1.24 -5.79,0.42 -9.91,4.13 -5.73,4.69 -7.07,30.66 -39.19,52.42 -18.75,12.71 -47.05,19.81 -73.8,12.9 -23.84,-6.16 -40.31,-18.46 -53.71,-37.42 -22.17,-31.38 -15.1,-51.17 -13.63,-75.46 -2.05,-1.05 -11.61,-5.43 -14.87,-6.6l0 145.79 512 0 0 -226.23c-10.84,3.82 -38.42,25.59 -44.68,32.75 -5.77,6.6 -14.06,12.48 -19.2,19.1 -3.22,4.14 -12.85,19.02 -17.72,19.23zm-348.8 -311.71c1.06,-5.87 2.12,-6.48 5.43,-10.57 6.74,-8.34 14.29,-13.9 22.88,-20.26 6.22,-4.6 15.13,-9.5 25.48,-14.31l-135.39 0 0 116.22c10.84,-3.82 38.42,-25.59 44.68,-32.74 5.77,-6.61 14.06,-12.49 19.2,-19.11 3.22,-4.13 12.85,-19.02 17.72,-19.23zm132.18 -45.14c-14.2,16.69 -29.92,35.03 -34.58,41.99 4.91,-1.31 10.88,-5.7 15.34,-8.65 5.04,-3.34 10.35,-6.1 15.13,-8.88 9,-5.22 23.03,-12.23 33.07,-16.53 7.36,-3.15 13.34,-5.7 18.92,-7.93l-47.88 0zm285.58 0c-0.04,9.72 -1.62,19.06 -2.23,29.19 2.05,1.04 11.61,5.42 14.87,6.59l0 -35.78 -12.64 0z"/>
   <path class="fil1" d="M81.6 306.12c-13.23,4.1 -26.35,9.95 -36.64,18.93 -3.09,2.7 -3.87,4.7 -6.91,7.38 -10.5,9.27 -7.72,10.38 -17.16,22.33l-6.02 18.05c-1.47,24.29 -8.54,44.08 13.63,75.46 13.4,18.96 29.87,31.26 53.71,37.42 26.75,6.91 55.05,-0.19 73.8,-12.9 32.12,-21.76 33.46,-47.73 39.19,-52.42 0.14,-8 1.44,-6.7 1.6,-13.97l-0.63 -17.6c3.57,-23.39 -18.03,-52.33 -35.02,-66.75 -21.49,-18.26 -51.59,-22.12 -79.55,-15.93z"/>
   <path class="fil2" d="M430.4 321.43c-8.43,13.44 -44.13,50.5 -57.33,59.63l-59.47 28.54c-5.87,2.93 -15.53,6.19 -19.2,11.2 17.76,-4.14 69.81,-21.9 85.5,-28.1 29.55,-11.69 31.95,-38.24 50.2,-63.1 0.72,-5.03 0.29,-4.19 3.14,-8 -1.23,-1.31 2.7,-4.11 -2.84,-0.17zm-116.8 44.97l3.44 -0.88 -3.44 0.88c-6.75,0.15 -20.28,4.67 -27.2,6.4 -9.45,2.36 -18.42,4.34 -28.48,6.72 -14.59,3.45 -44.41,9.28 -61.75,9.28l0.63 17.6 116.8 -40zm-313.6 -0.19c3.26,1.17 12.82,5.55 14.87,6.6l6.02 -18.05c-7.42,-2.23 -14.52,-7.23 -20.89,-11.32l0 22.77zm437.32 -27.73c2.62,-3.4 3.55,-3.54 7.16,-6.06 5.98,-4.16 3.17,-2.23 8.04,-7.85 4.58,-5.28 5.74,-3.37 16.74,-15.26 2.86,-3.1 4.52,-3.97 8.08,-6.49l24.24 -22.91 -46.03 30.14c-12.55,7.61 -11.44,13.93 -18.23,28.43zm-110.92 50.32c8.31,-1.94 15.73,-5.27 23.76,-8.24 34.14,-12.59 26.72,-10.8 36.73,-27.27 4.26,-7 7.87,-13.33 9.91,-22.09l-17.6 14.4c-7.4,5.78 -49.88,38.85 -52.8,43.2zm104 -93.52c-10.65,10.25 -24.28,23.21 -25.6,39.12 4.18,-2.8 8.71,-6.54 12.8,-9.6 4.55,-3.41 8.32,-5.93 12.8,-10.42 3.21,-3.06 2.63,-1.72 6.14,-4.29l33.02 -26.16c2.78,-2.42 2.54,-1.91 5.5,-4.18 12.37,-9.52 37.98,-30.52 28.04,-46.85 -12.3,18 -0.55,3.33 -15.36,18.07 -3.38,3.35 -4.79,6.31 -8.22,9.31 -8.64,7.57 -38.96,31.89 -49.12,35z"/>
  </g>
 </g>
</svg>
