<?xml version="1.0" encoding="UTF-8"?>
<!DOCTYPE svg PUBLIC "-//W3C//DTD SVG 1.1//EN" "http://www.w3.org/Graphics/SVG/1.1/DTD/svg11.dtd">
<!-- Creator: CorelDRAW 2021 (64-Bit) -->
<svg xmlns="http://www.w3.org/2000/svg" xml:space="preserve" width="512px" height="512px" version="1.1" style="shape-rendering:geometricPrecision; text-rendering:geometricPrecision; image-rendering:optimizeQuality; fill-rule:evenodd; clip-rule:evenodd"
viewBox="0 0 512 512"
 xmlns:xlink="http://www.w3.org/1999/xlink"
 xmlns:xodm="http://www.corel.com/coreldraw/odm/2003">
 <defs>
  <style type="text/css">
   <![CDATA[
    .fil1 {fill:#29730D}
    .fil8 {fill:#2E922E}
    .fil2 {fill:#48A917}
    .fil7 {fill:#50720E}
    .fil4 {fill:#63D9FE}
    .fil5 {fill:#65B917}
    .fil10 {fill:#6F7150}
    .fil0 {fill:#76C529}
    .fil15 {fill:#AC686F}
    .fil3 {fill:#AC91AE}
    .fil16 {fill:#B4538B}
    .fil14 {fill:#B8F7FC}
    .fil9 {fill:#D8FDFE}
    .fil13 {fill:#E7A166}
    .fil11 {fill:#E7FED8}
    .fil17 {fill:#F4D52D}
    .fil12 {fill:#F8F909}
    .fil6 {fill:#FDFEF8}
   ]]>
  </style>
 </defs>
 <g id="Layer_x0020_1">
  <metadata id="CorelCorpID_0Corel-Layer"/>
  <g id="_2401174296848">
   <path class="fil0" d="M114.09 432.49l-0.7 4.89c12.7,1.2 7.37,-0.46 7.51,-0.75l-21.75 0.87c2.02,5.91 5.83,10.33 2.64,14.32 -8.71,6.3 -36.94,6.62 -46.57,0.85 -1.05,-11.09 2.45,-14.46 8.69,-18.91l5.14 -3.81c-8.82,-0.37 -25.97,0.17 -32.2,2.64 3.6,6.39 0.24,6.17 4.88,10.81l-6.46 3.39c-7.35,3.18 -0.3,-0.24 -9.17,-0.25 -1.67,0 -4.28,0.64 -6.92,0.86l3.13 -4.12c3.46,-4.57 4.34,-6.93 5.41,-14 -8.39,2.48 -17.95,3.54 -27.72,3.99l0 44.66c5.96,2.17 0.16,-0.24 2.13,2.23 0.66,0.83 0.15,1.58 2.97,3.39 0.72,-6.33 -2.62,-12.3 -1.99,-15.57 0.52,-2.7 1.25,-3.37 3.64,-4.92 2.72,-1.76 3.75,-2.2 6.75,-1.33 0.29,0.08 2.31,1.12 2.7,1.41l2.26 2.23c5.58,7.81 -2.89,8.52 2.59,16.93 1.77,2.73 1.17,1.28 2.29,3.48 3.31,-11.36 12.63,-10.55 16.47,-2.35 1.74,3.7 0.39,3.11 -0.81,8.65l-2.49 -1.6c-6.39,-4.99 -1.47,-2.77 -5.22,-4.82 -1.61,3.68 0.09,7.42 0.72,10.93 -6.74,-1.38 -5.54,-0.3 -8.41,-6.96 -0.09,-0.22 -0.25,-0.7 -0.41,-1.04l-4.69 2.01c-3.57,2.4 2.72,1.58 -6.7,2.58 4.11,5.38 2.35,10.54 9.53,10.52 0.29,-0.38 1.39,-1.87 1.75,-2.44 0.16,-0.24 0.4,-0.64 0.56,-0.91 0.19,-0.3 0.45,-0.72 0.63,-1.01l1.33 -2.26c6.49,0.89 8.42,4.79 12.86,2.04 4.09,-2.55 0.17,-4.61 5.43,-11.73 1.31,1.99 2.21,-2.61 1.13,5.43 -0.03,0.21 -1.46,3.45 -1.89,4.71 4.74,-2.52 -0.39,-1.24 5.74,-2.64 0.24,-2.19 -0.22,-0.81 0.4,-3.55 2.03,-9.09 5.81,-7.51 10.46,-8.28 -0.76,-6.31 0.48,-5.31 7.12,-4.55l2.52 -6.04c0.06,-0.23 0.13,-0.63 0.16,-0.84l0.16 -5.37c4.03,2.15 3.09,1.5 4.4,7.08 3.99,-0.11 12.8,0.84 13.73,4.22 0.24,-0.26 0.48,-1.13 0.56,-0.9 0.07,0.22 0.43,-0.71 0.53,-0.88 3.82,-6.22 3.28,-3.89 7.15,-6.92 15.71,6.33 3.28,10.99 20.18,11.13 -3.48,-7.24 -0.64,-2.24 0.38,-3.61l10.71 1.99c-1.17,4.38 -1.99,4.31 -1.79,9.14 32.35,6.17 19.13,4.54 24.44,-6.97 0.13,-0.28 1.65,-1.8 2.01,-2.29 2.49,-3.25 4.46,-10.99 12.07,-8.13l6.07 5.54c0.9,1.37 0.83,1.67 1.96,3.4l5.24 -0.38 -0.3 -2.3c3.87,-2.62 9.36,1.54 12.33,1.74 7.37,0.51 4.35,-1.27 6.48,-2.64 5.3,-3.41 -4.89,-1.36 2.25,-1.29 3.82,0.04 1.22,-0.35 3.05,2.26 -2.66,0.17 -4.12,-0.92 -9.08,2.84l0.72 7.99c4.62,2.04 6.29,1.38 11.79,2.66 8.23,1.93 3.61,2.54 10.58,-1.69 8.16,-4.95 14.89,4.4 9.48,-9.94l2.04 -0.04c-3.22,-4.48 -3.56,-7.14 -4.32,-13.97 5.09,-0.74 6.52,-0.16 9.45,2.31 0.26,-0.45 2.03,-3.88 2.08,-3.96 -0.3,-0.2 -0.77,-0.89 -0.9,-0.6l-29.69 -0.74c-5.88,-1.65 -1.34,1.32 -5.59,-3.35 2.75,-1.36 6.65,-2.14 8.63,-3.17 2.82,-1.47 0.76,-0.44 2.92,-2.41 7.75,-7.09 31.71,-12.89 44.97,-8.21 14.81,5.23 26.7,-10.26 53.85,-0.17 10.41,3.88 2.38,-1.8 17.56,-2.68 4.67,-0.28 7.76,-0.66 11.57,-1.09 8.45,-0.98 5.76,-0.09 11.83,1.41 4.85,1.19 7.09,-0.6 12.2,-1.93 1.02,2.66 -0.3,4 7.25,5.78 19.65,4.62 5.41,-6.64 16.94,-0.14 -0.04,0.24 -6.7,4.67 5.69,11.18 4.71,-5.69 1.46,-9.12 5.19,-11.23 4.17,-2.37 -3.84,-1.15 1.92,-0.42 -2,2.54 -1.15,2.24 -1.41,7.38 5,-1.32 4.19,-4.09 7.8,0.28l2.14 2.56c3.54,-5.9 13.5,-1.24 8.45,-12.78l20.63 -1.36c16.12,-1.29 9.02,-6.3 22.69,1.08 -1.96,-12.76 -4.15,-22.99 -11.78,-29.66 -13.62,-11.9 -9.92,-0.74 -19.99,-5.63 -0.34,-0.17 -0.65,-0.44 -0.99,-0.61l-6.52 -2.26c-2.02,4.88 -3.41,3.11 -10.27,3.36 -3.97,0.15 -7.42,-0.1 -11.45,-0.17 -8.17,-0.12 -6.58,3.29 -13.04,1.87 -4.6,-1.02 -2.74,-6.5 -18.23,-1.47 -15.99,5.18 -7.24,-0.33 -18.78,2.31 -18.63,4.26 -8.28,7.64 -23.09,7.96 -41.16,0.9 -81.5,3 -121,8.31 -2.43,-2.78 -1.24,-3.49 -4.17,-5.29l-3.03 -0.88c-1.18,-0.24 -1.21,-0.08 -2.55,0.01 -3.47,8.32 -0.27,7.02 -0.68,13.47 -1.48,0.55 -2.51,0.74 -3.95,0.97 -0.2,0.03 -2.78,0.27 -2.8,0.28 -3.48,0.89 0.8,-1.04 -2.36,1.01 -1.13,0.73 -1.23,1.3 -1.8,2.03 -4.43,-5.57 -10.54,-1.9 -3.21,-9.89 3.57,-3.88 0.64,2.81 3.22,-3.94 -2.88,-5.64 -6.89,-10.06 -8.41,1.15l-5.48 -5.24c-4.05,9.3 0.2,10.92 1.14,13.57 0.83,2.33 3.86,4.86 -7.92,4.48l0.72 -9.3c-0.01,-0.16 -0.07,-0.58 -0.07,-0.73l0.22 -1.97c0.35,-4.69 2.42,-0.83 -2,-3 -4.38,-3.72 -0.3,0.8 -3.17,1.23 -1.47,0.23 -2.93,4.93 -2.58,-2.12 -5.3,8.26 -0.4,1 -4.97,4.36 -2.96,2.17 1,5.84 -9.79,7.72 -3.64,0.63 -3.54,0.42 -8.1,0.29 -1.1,-7.17 0.23,-2.85 1.18,-6.94 0.72,-3.11 0.54,-5 0.51,-8.84 -11.25,-1.99 -6.09,0.22 -10.86,10.03 -6.43,1.94 -6.12,-1.48 -8.38,3.98z"/>
   <path class="fil1" d="M412.09 388.77c2.79,5.23 4.35,10.53 7.15,15.11l6.52 2.26c0.34,0.17 0.65,0.44 0.99,0.61 10.07,4.89 6.37,-6.27 19.99,5.63 7.63,6.67 9.82,16.9 11.78,29.66l0.61 20.58 5.14 2.45c0.35,3.13 1.01,7.03 1.19,10.03 0.44,7.56 -0.22,6.2 -1.34,7.67 2.16,9.8 0.6,1.9 -1.76,4.22 0.51,5.51 1.88,3.81 0.68,8.53 -0.96,3.75 -2.34,4.8 -5.64,6.3l-2.33 0.72c-2.38,0.22 -5.45,-2.21 -8.56,-3.28 -3.37,-3.38 0.23,-0.99 -3.79,-1.09 -4.35,-0.11 2.18,0.14 -3.27,0.45 -3.54,0.21 -2.92,-0.26 -7.5,-0.77 1.28,-10.63 0.41,-8.6 -2.61,-11.43l-1.25 9.13c-1.14,0.63 -4.64,2.63 -5.92,2.89 -4.07,0.81 -3.87,-0.31 -7.49,-0.61l-0.52 -8.46c-5.38,-4.33 -10.3,5.69 -18.13,0.69 -5.25,-3.36 -3.81,-6.69 -0.82,-11l1.26 -4.6 -8.29 1.92c-0.28,0.16 -0.64,0.37 -0.9,0.55 -5.35,3.71 -3.58,3.43 -3.48,9.29 -11.49,0.21 -6.25,3.72 -14.22,4.44 -4.03,0.37 -7.79,-2.05 -14.9,-2.16l-1.74 -2.81c-0.24,-0.34 -0.4,-0.87 -0.53,-1.14l-3.74 -5.71c-0.11,-0.52 -0.52,-0.55 -0.82,-0.78 -0.22,-4.48 0.31,-2.85 -2.38,-3.4 -0.11,-0.02 -2.85,0.7 -5.23,0.97 -1.53,3.71 2.23,-5.3 -0.34,1.57 -1.12,3.02 0.73,0.17 -0.73,1.3l3.13 2.54c1.49,1.05 1.1,0.78 2.85,1.49 -0.88,2.92 0.26,1.86 -0.89,4.21 -4,8.2 -10.37,5.32 -16.66,2.37 -0.12,0.4 -0.34,0.88 -0.46,1.16l-2.75 5.01c-3.6,3.95 0.22,2.33 -5.75,2.7 -4.89,1.35 -7.27,-1.67 -9.64,-4.89 -4.27,-5.79 -2.67,-5.59 -9.14,-7.86 -4.06,0.29 -2.03,-0.08 -4.75,1.79 -3.99,2.74 -1.09,0.76 -2.99,2.83 -2.59,12.32 -5.9,6.81 -10.52,5.22 -0.14,-5.65 -0.62,-10.23 -6.96,-7.91 -3.51,1.28 -2.65,-3.27 -3.16,5.06 -0.26,4.26 0.75,1.9 0.84,2.05l0.99 0.2c-1.09,1.72 -3.03,3.21 -4.46,4.74 0.26,-0.51 5.72,1.24 -0.87,-1.56 -2.32,-0.98 -0.58,-0.3 -2.79,-0.18 -2.9,0.16 -2.76,4.37 -10.42,-3.93 -3.75,-4.06 -1.81,1.65 -3.13,-4.4 -3.58,1.66 -6.99,4.02 -11.9,2.2 -5.52,-2.04 -2.88,-1.29 -4.59,-3.92 -1.39,-2.12 -1.03,-1.34 -0.69,-2.61 -4.22,-1.54 -0.96,-1.72 -3.41,-0.24 -2.53,3.43 1.19,15.53 2.13,17.48 -4.64,2.4 -4.69,3.07 -8.47,3l-7.11 -15.27c-4.92,2.96 -2.36,-1.52 -4.27,5.88 -8.12,-2.08 7.18,4.49 -2.62,-1.96 -0.9,-0.6 1,-0.75 -3.07,-1.72l-1.03 1.9c-2.37,3.29 0.21,2.24 -9.63,3.38 -0.05,0.1 -1.81,9.62 -8.24,7.36 -3.07,-1.07 -2.25,-1.15 -3.6,-5.22l-1.66 -7.13 -4.86 -0.69 -20.75 -3.66c-4.14,-1.8 -4.3,-4.87 -5.88,-9.67 -0.36,0.49 -1.88,2.01 -2.01,2.29 -5.31,11.51 7.91,13.14 -24.44,6.97 -0.2,-4.83 0.62,-4.76 1.79,-9.14l-10.71 -1.99c-1.02,1.37 -3.86,-3.63 -0.38,3.61 3.77,4.7 4.38,-1.42 2.88,6.14 -0.58,2.92 -2.53,3.82 -4.75,4.82 -4.24,1.9 -7.39,0.3 -12.02,-1.75 -3.07,3.65 -2.73,5.15 -5.64,10.26 -5.52,0.59 -9.25,-2.29 -14.29,-1.98 -5.22,0.32 -15.64,7.78 -15.41,-5.49 0.12,-6.81 1.93,-4.66 2.58,-5.8 0.48,-0.85 4.08,0.89 1.49,-5.05 -1.56,-3.58 4.1,-2.17 -4.23,-2.63 -6.64,-0.76 -7.88,-1.76 -7.12,4.55l4.93 5.59c6.41,7.3 -3.44,16.3 -10.52,13.28 -4.86,-2.06 -4.01,-3.27 -5.27,-7.04 -6.13,1.4 -1,0.12 -5.74,2.64 0.43,-1.26 1.86,-4.5 1.89,-4.71 1.08,-8.04 0.18,-3.44 -1.13,-5.43 -5.26,7.12 -1.34,9.18 -5.43,11.73 -4.44,2.75 -6.37,-1.15 -12.86,-2.04l-1.33 2.26c-0.18,0.29 -0.44,0.71 -0.63,1.01 -0.16,0.27 -0.4,0.67 -0.56,0.91 -0.36,0.57 -1.46,2.06 -1.75,2.44 -7.18,0.02 -5.42,-5.14 -9.53,-10.52 -4.68,-4.18 -3.24,-0.71 -7.81,-6.51 0.76,-4.2 -0.52,-2.32 1.11,-3.12 -2.82,-1.81 -2.31,-2.56 -2.97,-3.39 -1.97,-2.47 3.83,-0.06 -2.13,-2.23l0 34.07 512 0 0 -22.25c-6,0.51 -2.75,1.05 -7.59,0.44l-4.5 2.33c-1.65,4.36 -2.83,8.68 -5.73,11.55 -3.54,-0.11 -3.79,-0.82 -7.27,-1.62l0.25 -5.67c-10.59,0.32 -3.62,4.91 -14.7,2.75l-0.63 -10.38c-0.88,-5.26 -1.31,-2 0.03,-6 1.1,-3.3 0.79,3.28 2.27,-5.06 -8.33,1.26 -3.68,3.78 -7.58,-2.27 -2.41,-3.73 -0.55,-5.26 2.14,-13.65 3.75,-11.72 0.61,-13.47 2.32,-23.68 0.92,-5.52 2.37,-8.65 3.02,-14.81l36.55 6.9c-4.3,-4.89 -4.85,-5.67 -11.17,-9.77l-12.09 -8.37c6.85,-6.71 2.49,-3.14 12.94,-4.46 6.05,-0.76 7.63,-2.9 11.74,-4.64l0 -26.46c-5.31,-2.16 -6.01,-2.39 -5.8,-4.26l-6.95 5.74c-0.1,0.07 -2.31,1.27 -2.06,1.42l-3.94 10.6c-1.97,-1.23 -1.94,-4.72 -1.74,0.11 -11.64,0.03 -23.45,0.19 -35.05,0.1 -10.97,-0.09 -15.43,-6.85 -24.33,-1.1 -10.63,6.86 6.96,-1.76 -2.62,1.93 -0.25,-0.28 -0.51,-0.73 -0.67,-0.9l-3.1 -2.62c-3.34,-1.22 -4.94,0.85 -8.01,1.16 -2.95,0.29 -2.42,-1.42 -2.44,-1.44 -0.7,2.39 0.25,0.25 -3.2,1.15z"/>
   <path class="fil2" d="M233.88 462.65c3.01,-2.48 -0.34,-1.85 6.09,-1.48 1.29,9.01 0.78,11.87 -5.13,14.36l-3.02 -0.66c-3.15,3.91 -0.29,1.6 -5.15,3.4l-2.04 0.04c5.41,14.34 -1.32,4.99 -9.48,9.94 -6.97,4.23 -2.35,3.62 -10.58,1.69 -5.5,-1.28 -7.17,-0.62 -11.79,-2.66l-0.72 -7.99c4.96,-3.76 6.42,-2.67 9.08,-2.84 -1.83,-2.61 0.77,-2.22 -3.05,-2.26 -7.14,-0.07 3.05,-2.12 -2.25,1.29 -2.13,1.37 0.89,3.15 -6.48,2.64 -2.97,-0.2 -8.46,-4.36 -12.33,-1.74l0.3 2.3c1.8,3.84 -1.82,-0.92 1.89,1.25 4.95,2.89 5.37,4.33 3.23,7.94l-3.83 3.71 4.86 0.69 1.66 7.13c1.35,4.07 0.53,4.15 3.6,5.22 6.43,2.26 8.19,-7.26 8.24,-7.36 9.84,-1.14 7.26,-0.09 9.63,-3.38l1.03 -1.9c4.07,0.97 2.17,1.12 3.07,1.72 9.8,6.45 -5.5,-0.12 2.62,1.96 1.91,-7.4 -0.65,-2.92 4.27,-5.88l7.11 15.27c3.78,0.07 3.83,-0.6 8.47,-3 -0.94,-1.95 -4.66,-14.05 -2.13,-17.48 2.45,-1.48 -0.81,-1.3 3.41,0.24 6.42,-8.84 6.98,-3.09 11.77,-6.8l3.45 -4.89c0.2,-0.23 0.46,-0.56 0.68,-0.77l4.88 -2.62c0.35,-0.13 0.91,-0.27 1.21,-0.37 0.3,-0.1 0.83,-0.22 1.24,-0.36l6.19 5.16c0.36,0.53 1.46,3.77 1.47,3.85 1.23,12.57 -12.22,10.63 -13.71,11.13 1.32,6.05 -0.62,0.34 3.13,4.4 7.66,8.3 7.52,4.09 10.42,3.93 2.21,-0.12 0.47,-0.8 2.79,0.18 6.59,2.8 1.13,1.05 0.87,1.56 1.43,-1.53 3.37,-3.02 4.46,-4.74l-0.99 -0.2c-0.09,-0.15 -1.1,2.21 -0.84,-2.05 0.51,-8.33 -0.35,-3.78 3.16,-5.06 6.34,-2.32 6.82,2.26 6.96,7.91 4.62,1.59 7.93,7.1 10.52,-5.22l-6.09 -3.68c-2.81,-2.86 -4.25,-6.89 -3.52,-10.29 1.38,-6.42 5.3,-9.58 12.79,-6l5.72 6.57c7.61,0.99 10.42,2.55 14.39,7.39 0.93,1.13 5.5,5.73 5.68,6.1 2.7,5.49 0.11,6.01 -2.45,8.04 5.97,-0.37 2.15,1.25 5.75,-2.7l2.75 -5.01c0.12,-0.28 0.34,-0.76 0.46,-1.16 -3.88,-14.41 7.97,-6.63 11.57,-10.61 1.46,-1.13 -0.39,1.72 0.73,-1.3 2.57,-6.87 -1.19,2.14 0.34,-1.57 -0.82,-7.03 -2.55,-9.63 -0.33,-13.76 8.22,-2.34 0.91,-0.32 7.4,1.17 1.78,0.41 5.28,0.21 9.76,0.79 -0.05,9.94 0,13.78 -9.22,14.23 0.3,0.23 0.71,0.26 0.82,0.78l3.74 5.71c0.13,0.27 0.29,0.8 0.53,1.14 0.28,-5.28 -0.66,-6.14 3.06,-7.6 1.49,-0.58 3.21,-0.19 4.74,0.03l5.01 1.04c8.19,0.99 10.41,-2.27 19.6,-0.8 -3.21,-3.27 -2.38,-1.5 -3.87,-6.65 -0.92,-3.19 -1.14,-5.23 -1.57,-8.04 2.32,-0.85 4.21,-1.79 5.51,-2.59l3.05 5.33c3.55,-5.23 1.76,-5.68 9.51,-5.26 0.17,4.62 -0.41,10.5 -1.51,13.31l-1.26 4.6c9.62,1.11 9.44,-2.04 11.81,-5.31l1.21 -1.61c2.9,-3.33 0.45,-0.9 2.45,-2.02 0.27,-0.15 1.03,-0.47 1.31,-0.57 5.16,-1.83 5.71,0.96 10.97,2.49 2.31,3.45 6.02,5.07 9.43,0.4 3.29,-4.52 0.98,-1.81 -0.03,-3.11 2.26,3.64 -0.07,1.16 4.26,2.75l11.03 -5.78c0.27,0.2 0.82,0.43 1.11,0.7 6.36,5.76 2.07,8.3 0.66,9.45 1.46,4.7 0.99,0.21 3.39,6.67 2.28,-1.4 1.5,-1.17 4.01,-0.21 5.89,2.28 -0.28,0.11 5.54,4.08 2.36,-2.32 3.92,5.58 1.76,-4.22 1.12,-1.47 1.78,-0.11 1.34,-7.67 -0.18,-3 -0.84,-6.9 -1.19,-10.03l-5.14 -2.45 -0.61 -20.58c-13.67,-7.38 -6.57,-2.37 -22.69,-1.08l-20.63 1.36c5.05,11.54 -4.91,6.88 -8.45,12.78l-2.14 -2.56c-3.61,-4.37 -2.8,-1.6 -7.8,-0.28 0.26,-5.14 -0.59,-4.84 1.41,-7.38 -5.76,-0.73 2.25,-1.95 -1.92,0.42 -3.73,2.11 -0.48,5.54 -5.19,11.23 -12.39,-6.51 -5.73,-10.94 -5.69,-11.18 -11.53,-6.5 2.71,4.76 -16.94,0.14 -7.55,-1.78 -6.23,-3.12 -7.25,-5.78 -5.11,1.33 -7.35,3.12 -12.2,1.93 -6.07,-1.5 -3.38,-2.39 -11.83,-1.41 -3.81,0.43 -6.9,0.81 -11.57,1.09 -15.18,0.88 -7.15,6.56 -17.56,2.68 -27.15,-10.09 -39.04,5.4 -53.85,0.17 -13.26,-4.68 -37.22,1.12 -44.97,8.21 -2.16,1.97 -0.1,0.94 -2.92,2.41 -1.98,1.03 -5.88,1.81 -8.63,3.17 4.25,4.67 -0.29,1.7 5.59,3.35l29.69 0.74c0.13,-0.29 0.6,0.4 0.9,0.6z"/>
   <path class="fil3" d="M262.34 37.48c5.29,3.24 9.09,5.99 13.57,9.49 10.28,-3.12 11.59,-9.68 26.98,-11.42 18.46,-2.09 18.8,3.35 30.22,10.54 39.52,-1.19 79.36,15.1 101.39,45.65 1.82,2.53 0.94,1.88 2.95,4.13 6.7,7.53 1.56,-1.59 7.77,11.65 1.65,3.51 2.8,6.35 4.47,10.19l8.08 19.34 2.48 5.56c7.16,10.12 6.49,8.11 6.61,29.56 0.04,8.22 -1.4,6.85 -1.96,12.72 3.34,1.82 1.25,0.3 3.15,2.66 1.46,1.82 0.57,0.27 1.74,2.71 4.78,9.96 3.15,21.33 -0.59,31.24 -2.86,7.56 -0.65,4.22 1.12,9.79 0.96,-11.76 9.79,-24.31 13.24,-36.12 4.43,-15.2 3.43,-30.96 3.66,-47.73 0.14,-8.55 -4.23,-20.4 -6.89,-28.72 -4.78,-14.97 -9.37,-19.9 -10.18,-28.1 -4.17,-0.38 -6.77,-6.73 -8.98,-9.9 -12.01,-17.3 -30.94,-34.51 -49.95,-44.03 -32.26,-16.15 -51.37,-21.24 -91.2,-17.65l-31.38 6.95c-8.51,3.2 -16.26,9.8 -26.3,11.49z"/>
   <path class="fil4" d="M0 137.02l0 233.77c4.68,-3.84 0.51,-1.06 3.93,-1.84 1.15,-2.9 1.72,-4.17 2.56,-6.83 1.89,-5.98 -0.76,-1.88 3.06,-6.96 4,-5.32 5.81,-4.05 11.46,-6.54 -7.37,0.22 -2.32,0.02 -4.25,-1.6 -0.27,-10.24 1.62,-12.89 5.54,-18.84 5.93,-9.04 9.54,-8.15 11.36,-12.45 -2.66,-3.25 -32.03,-21.28 -15.95,-51.96 3.34,-6.37 7.4,-8.56 11.61,-13.46 -2.12,-9.23 -12.62,-23.84 2.42,-43.58 3.04,-3.99 7.24,-6.64 9.82,-10.46 1.69,-6.08 -17.57,-27.03 5.4,-49.75 5.91,-5.85 9.32,-5.16 13.83,-9.87 4.14,-14.16 2.06,-18.49 13.38,-28.36 10.22,-8.91 19.33,-9.14 36.04,-8.21 10.5,-21.21 11.49,-22.06 33.04,-26.68 9.95,-2.13 10.21,-24.11 37.41,-24.81 8.72,-0.22 29.22,1.57 36.67,3.64 4.86,-6.46 6.53,-7.2 12.1,-12.09l2.51 -2.33c5.07,0.02 7.05,-2.17 14.06,-2.56 6.48,-0.36 10.98,1.41 16.34,2.23 10.04,-1.69 17.79,-8.29 26.3,-11.49l31.38 -6.95c39.83,-3.59 58.94,1.5 91.2,17.65 19.01,9.52 37.94,26.73 49.95,44.03 2.21,3.17 4.81,9.52 8.98,9.9 0.81,8.2 5.4,13.13 10.18,28.1 2.66,8.32 7.03,20.17 6.89,28.72 2.75,2.95 3.15,1.5 3.01,14.69 -0.31,28.95 -0.25,15.13 3.52,20.83 2.42,3.66 0.63,3.49 2.31,7.36l4.56 -8.8 11.38 0.02 0 -80.56 0 -100.98 -512 0 0 51.29c28.18,-11.87 26.12,3.13 31.92,6.48l10.63 4.44c-2.32,-4.85 -4.98,-5.75 -4.2,-13.82 0.51,-5.28 3.72,-9.01 7.19,-11.37 9.03,-6.15 18.6,-0.18 22.93,7.08l-0.89 14.49c-4.44,3.25 -1.89,0.77 -2.98,6.16 4.31,-0.6 42.36,-3.88 38.54,8.55 -8.78,3.34 -86.43,1.1 -103.14,1.1l0 62.62zm457.77 0.03l-8.08 -19.34c-1.67,-3.84 -2.82,-6.68 -4.47,-10.19 -6.21,-13.24 -1.07,-4.12 -7.77,-11.65 -2.01,-2.25 -1.13,-1.6 -2.95,-4.13 -22.03,-30.55 -61.87,-46.84 -101.39,-45.65l7.83 12.78c10.64,2.82 15.37,1.91 24.08,8.46 7.59,5.7 8.27,10.28 13.29,19.18 15.59,1.46 21.22,-2.67 33.44,6.65 7.61,5.81 13.47,13.72 14.84,26.4 1.64,15.2 17.59,16.82 26.21,35.01 3.14,6.64 1.66,13.06 4.09,17.71 3.22,-9.78 1.44,-23.12 0.88,-35.23z"/>
   <path class="fil2" d="M412.09 388.77c3.45,-0.9 2.5,1.24 3.2,-1.15 0.02,0.02 -0.51,1.73 2.44,1.44 3.07,-0.31 4.67,-2.38 8.01,-1.16l3.1 2.62c0.16,0.17 0.42,0.62 0.67,0.9 9.58,-3.69 -8.01,4.93 2.62,-1.93 8.9,-5.75 13.36,1.01 24.33,1.1 11.6,0.09 23.41,-0.07 35.05,-0.1 -0.2,-4.83 -0.23,-1.34 1.74,-0.11l3.94 -10.6c-0.25,-0.15 1.96,-1.35 2.06,-1.42l6.95 -5.74c-0.21,1.87 0.49,2.1 5.8,4.26l0 -2.77c-4.44,-3.4 -8.68,-7.11 -10.01,-12.98 -2.31,-10.2 -0.78,-5.82 -7.71,-13.57 -12.34,-13.79 -26.78,-0.19 -33.69,-10.15 -4.24,-0.04 -4.42,0.5 -6.99,0.53 -3.28,0.05 -1.98,-0.27 -5.41,-0.25 -3.24,0.02 -8.32,0.88 -12.28,1.47 -10.92,1.61 -3.96,0.46 -18.89,9.43 -0.78,9.26 1.14,14.65 -1.63,22.73 -1.78,5.2 -5.24,11.73 -3.3,17.45z"/>
   <path class="fil4" d="M470.32 231.29l6.92 7.8c3.23,13.72 8.92,21.16 0.28,36.53 -7.75,13.78 -16.14,12.89 -26.7,20.18 10.28,8.99 16.96,23.98 13.82,36.67 -2.05,8.25 0.02,3.19 -4.05,4.94 6.91,9.96 21.35,-3.64 33.69,10.15 6.93,7.75 5.4,3.37 7.71,13.57 1.33,5.87 5.57,9.58 10.01,12.98l0 -95.67 0 -96.9 -11.38 -0.02 -4.56 8.8c-1.68,-3.87 0.11,-3.7 -2.31,-7.36 -3.77,-5.7 -3.83,8.12 -3.52,-20.83 0.14,-13.19 -0.26,-11.74 -3.01,-14.69 -0.23,16.77 0.77,32.53 -3.66,47.73 -3.45,11.81 -12.28,24.36 -13.24,36.12z"/>
   <path class="fil5" d="M474.13 478.09c4.53,-1.01 7.28,-3.49 12.34,2.59l2.77 4.26c2.14,-6.58 2.51,-1.1 3.31,-8.26 0.6,-5.32 -3.98,-5.47 0.25,-11.06l1.32 -1.39c1.76,-1.66 4.68,-4.36 8.86,-3.04l4.6 4.24c3.28,5.4 1.96,5.01 0.5,9.56 -3.3,10.32 1.99,7.17 -3.67,15.2 4.84,0.61 1.59,0.07 7.59,-0.44l0 -58.81 -1.42 -0.36 -36.55 -6.9c-0.65,6.16 -2.1,9.29 -3.02,14.81 -1.71,10.21 1.43,11.96 -2.32,23.68 -2.69,8.39 -4.55,9.92 -2.14,13.65 3.9,6.05 -0.75,3.53 7.58,2.27z"/>
   <path class="fil2" d="M21.01 348.62c-5.65,2.49 -7.46,1.22 -11.46,6.54 -3.82,5.08 -1.17,0.98 -3.06,6.96 -0.84,2.66 -1.41,3.93 -2.56,6.83 4.94,11.9 8.23,10.66 11.88,11.49 4.09,0.94 17.15,1.12 22.77,0.58 6.75,-0.64 4.78,-1.46 9.32,-2.42 6.29,-1.32 10.82,1.11 11.25,1.32 0.26,0.12 -2.78,-0.13 1.31,0.7 3.65,0.74 4.52,-1.51 4.92,-1.76 3.28,-1.96 -2.58,-2.86 2.74,-0.56 -0.42,-7.83 -1.3,-5.44 -2.68,-11.76 -0.89,-4.08 -0.4,-8.03 -0.27,-12.4 -17.6,-12.95 -21.38,-7.59 -44.16,-5.52z"/>
   <path class="fil6" d="M0 51.29l0 23.11c16.71,0 94.36,2.24 103.14,-1.1 3.82,-12.43 -34.23,-9.15 -38.54,-8.55 1.09,-5.39 -1.46,-2.91 2.98,-6.16 -6.68,1.45 0.97,1.13 -6.41,1.25 -2.39,0.04 -4.74,-0.48 -7.17,-0.48 -7.56,-0.01 -5.13,1.42 -11.45,2.85l-10.63 -4.44c-5.8,-3.35 -3.74,-18.35 -31.92,-6.48z"/>
   <path class="fil7" d="M0 370.79l0 20.25c7.78,3.74 18.51,2.04 23.21,9.56 3.86,6.17 6.14,20.5 4.51,28.68 -1.07,7.07 -1.95,9.43 -5.41,14l-3.13 4.12c2.64,-0.22 5.25,-0.86 6.92,-0.86 8.87,0.01 1.82,3.43 9.17,0.25l6.46 -3.39c-4.64,-4.64 -1.28,-4.42 -4.88,-10.81 -0.33,-12.91 -1.12,-29.92 8.7,-37.19 6.39,-4.73 10.06,0.67 16.31,-3.56 3.38,-2.29 6.33,-9.68 6.26,-13.54 -5.32,-2.3 0.54,-1.4 -2.74,0.56 -0.4,0.25 -1.27,2.5 -4.92,1.76 -4.09,-0.83 -1.05,-0.58 -1.31,-0.7 -0.43,-0.21 -4.96,-2.64 -11.25,-1.32 -4.54,0.96 -2.57,1.78 -9.32,2.42 -5.62,0.54 -18.68,0.36 -22.77,-0.58 -3.65,-0.83 -6.94,0.41 -11.88,-11.49 -3.42,0.78 0.75,-2 -3.93,1.84z"/>
   <path class="fil8" d="M69.05 429.95l-5.14 3.81c-6.24,4.45 -9.74,7.82 -8.69,18.91 9.63,5.77 37.86,5.45 46.57,-0.85 3.19,-3.99 -0.62,-8.41 -2.64,-14.32l21.75 -0.87c-0.14,0.29 5.19,1.95 -7.51,0.75l0.7 -4.89c-4.15,-0.05 -7.09,4.01 -20.32,0.05 -7.29,-2.19 -8.67,-5.67 -13.91,-4.56 -3.83,0.81 -1.87,-0.34 -3.6,2.46 -4.92,-2.37 3.09,2.55 -1.17,-1.89 -5.13,-5.34 -6.03,1.38 -6.04,1.4z"/>
   <path class="fil9" d="M0 433.27c9.77,-0.45 19.33,-1.51 27.72,-3.99 1.63,-8.18 -0.65,-22.51 -4.51,-28.68 -4.7,-7.52 -15.43,-5.82 -23.21,-9.56l0 42.23z"/>
   <path class="fil10" d="M422.96 472.04l-0.98 11.15c-2.57,5.21 -1.57,2.39 -7.82,6.18l0.52 8.46c3.62,0.3 3.42,1.42 7.49,0.61 1.28,-0.26 4.78,-2.26 5.92,-2.89l1.25 -9.13c3.02,2.83 3.89,0.8 2.61,11.43 4.58,0.51 3.96,0.98 7.5,0.77 5.45,-0.31 -1.08,-0.56 3.27,-0.45 4.02,0.1 0.42,-2.29 3.79,1.09 0.73,-9.46 0.27,0.89 -0.64,-5.83 -0.22,-1.61 -0.35,-2.63 0.2,-3.76 1.36,-2.76 -0.9,0.7 1.65,-2.21 0.27,-0.31 1.18,-1.24 1.48,-1.53l3.61 -2.81c-2.4,-6.46 -1.93,-1.97 -3.39,-6.67 1.41,-1.15 5.7,-3.69 -0.66,-9.45 -0.29,-0.27 -0.84,-0.5 -1.11,-0.7l-11.03 5.78c-4.33,-1.59 -2,0.89 -4.26,-2.75 1.01,1.3 3.32,-1.41 0.03,3.11 -3.41,4.67 -7.12,3.05 -9.43,-0.4z"/>
   <path class="fil11" d="M5.1 483.55c-1.63,0.8 -0.35,-1.08 -1.11,3.12 4.57,5.8 3.13,2.33 7.81,6.51 9.42,-1 3.13,-0.18 6.7,-2.58l4.69 -2.01c0.16,0.34 0.32,0.82 0.41,1.04 2.87,6.66 1.67,5.58 8.41,6.96 -0.63,-3.51 -2.33,-7.25 -0.72,-10.93 3.75,2.05 -1.17,-0.17 5.22,4.82l2.49 1.6c1.2,-5.54 2.55,-4.95 0.81,-8.65 -3.84,-8.2 -13.16,-9.01 -16.47,2.35 -1.12,-2.2 -0.52,-0.75 -2.29,-3.48 -5.48,-8.41 2.99,-9.12 -2.59,-16.93l-2.26 -2.23c-0.39,-0.29 -2.41,-1.33 -2.7,-1.41 -3,-0.87 -4.03,-0.43 -6.75,1.33 -2.39,1.55 -3.12,2.22 -3.64,4.92 -0.63,3.27 2.71,9.24 1.99,15.57z"/>
   <path class="fil11" d="M474.13 478.09c-1.48,8.34 -1.17,1.76 -2.27,5.06 -1.34,4 -0.91,0.74 -0.03,6 1.31,1.03 2.38,0.73 3.53,1.81 1.3,-3.05 2.4,-4.23 5.35,-5.35 2.7,6.39 -0.93,-0.63 0.28,4.63 1.63,7.07 0.41,3.17 3.99,4.9l1.71 -2.57c2.76,-5.18 0.09,-3.1 3.98,-5.89 2.2,3.19 -1.72,2.85 9.24,5.84l4.5 -2.33c5.66,-8.03 0.37,-4.88 3.67,-15.2 1.46,-4.55 2.78,-4.16 -0.5,-9.56l-4.6 -4.24c-4.18,-1.32 -7.1,1.38 -8.86,3.04l-1.32 1.39c-4.23,5.59 0.35,5.74 -0.25,11.06 -0.8,7.16 -1.17,1.68 -3.31,8.26l-2.77 -4.26c-5.06,-6.08 -7.81,-3.6 -12.34,-2.59z"/>
   <path class="fil12" d="M42.55 62.21c6.32,-1.43 3.89,-2.86 11.45,-2.85 2.43,0 4.78,0.52 7.17,0.48 7.38,-0.12 -0.27,0.2 6.41,-1.25l0.89 -14.49c-4.33,-7.26 -13.9,-13.23 -22.93,-7.08 -3.47,2.36 -6.68,6.09 -7.19,11.37 -0.78,8.07 1.88,8.97 4.2,13.82z"/>
   <path class="fil10" d="M66.85 478.51c8.33,0.46 2.67,-0.95 4.23,2.63 2.59,5.94 -1.01,4.2 -1.49,5.05 -0.65,1.14 -2.46,-1.01 -2.58,5.8 -0.23,13.27 10.19,5.81 15.41,5.49 5.04,-0.31 8.77,2.57 14.29,1.98 2.91,-5.11 2.57,-6.61 5.64,-10.26 -1.86,-0.95 0.18,-0.27 -2.81,-0.62l-5.45 -0.66c-0.23,-0.1 -0.61,-0.3 -0.82,-0.43 -2.62,-1.63 -1.18,0.35 -3.39,-4.02 -0.08,-0.16 -1.7,-4.92 -2.06,-5.91 -0.93,-3.38 -9.74,-4.33 -13.73,-4.22 -1.31,-5.58 -0.37,-4.93 -4.4,-7.08l-0.16 5.37c-0.03,0.21 -0.1,0.61 -0.16,0.84l-2.52 6.04z"/>
   <path class="fil13" d="M352.94 485.69l1.74 2.81c7.11,0.11 10.87,2.53 14.9,2.16 7.97,-0.72 2.73,-4.23 14.22,-4.44 -0.1,-5.86 -1.87,-5.58 3.48,-9.29 0.26,-0.18 0.62,-0.39 0.9,-0.55l8.29 -1.92c1.1,-2.81 1.68,-8.69 1.51,-13.31 -7.75,-0.42 -5.96,0.03 -9.51,5.26l-3.05 -5.33c-1.3,0.8 -3.19,1.74 -5.51,2.59 0.43,2.81 0.65,4.85 1.57,8.04 1.49,5.15 0.66,3.38 3.87,6.65 -9.19,-1.47 -11.41,1.79 -19.6,0.8l-5.01 -1.04c-1.53,-0.22 -3.25,-0.61 -4.74,-0.03 -3.72,1.46 -2.78,2.32 -3.06,7.6z"/>
   <path class="fil11" d="M395.21 479.06c-2.99,4.31 -4.43,7.64 0.82,11 7.83,5 12.75,-5.02 18.13,-0.69 6.25,-3.79 5.25,-0.97 7.82,-6.18l0.98 -11.15c-5.26,-1.53 -5.81,-4.32 -10.97,-2.49 -0.28,0.1 -1.04,0.42 -1.31,0.57 -2,1.12 0.45,-1.31 -2.45,2.02l-1.21 1.61c-2.37,3.27 -2.19,6.42 -11.81,5.31z"/>
   <path class="fil11" d="M234.46 484.81c-0.34,1.27 -0.7,0.49 0.69,2.61 1.71,2.63 -0.93,1.88 4.59,3.92 4.91,1.82 8.32,-0.54 11.9,-2.2 1.49,-0.5 14.94,1.44 13.71,-11.13 -0.01,-0.08 -1.11,-3.32 -1.47,-3.85l-6.19 -5.16c-0.41,0.14 -0.94,0.26 -1.24,0.36 -0.3,0.1 -0.86,0.24 -1.21,0.37l-4.88 2.62c-0.22,0.21 -0.48,0.54 -0.68,0.77l-3.45 4.89c-4.79,3.71 -5.35,-2.04 -11.77,6.8z"/>
   <path class="fil11" d="M151.99 478.25c1.58,4.8 1.74,7.87 5.88,9.67l20.75 3.66 3.83 -3.71c2.14,-3.61 1.72,-5.05 -3.23,-7.94 -3.71,-2.17 -0.09,2.59 -1.89,-1.25l-5.24 0.38c-1.13,-1.73 -1.06,-2.03 -1.96,-3.4l-6.07 -5.54c-7.61,-2.86 -9.58,4.88 -12.07,8.13z"/>
   <path class="fil11" d="M87.82 477.56c0.36,0.99 1.98,5.75 2.06,5.91 2.21,4.37 0.77,2.39 3.39,4.02 0.21,0.13 0.59,0.33 0.82,0.43l5.45 0.66c2.99,0.35 0.95,-0.33 2.81,0.62 4.63,2.05 7.78,3.65 12.02,1.75 2.22,-1 4.17,-1.9 4.75,-4.82 1.5,-7.56 0.89,-1.44 -2.88,-6.14 -16.9,-0.14 -4.47,-4.8 -20.18,-11.13 -3.87,3.03 -3.33,0.7 -7.15,6.92 -0.1,0.17 -0.46,1.1 -0.53,0.88 -0.08,-0.23 -0.32,0.64 -0.56,0.9z"/>
   <path class="fil14" d="M510.58 430.58l1.42 0.36 0 -27.6c-4.11,1.74 -5.69,3.88 -11.74,4.64 -10.45,1.32 -6.09,-2.25 -12.94,4.46l12.09 8.37c6.32,4.1 6.87,4.88 11.17,9.77z"/>
   <path class="fil11" d="M292.12 489.85c1.9,-2.07 -1,-0.09 2.99,-2.83 2.72,-1.87 0.69,-1.5 4.75,-1.79l-1.35 -4.41c4.27,-2.23 0.86,0.96 2.51,-4.37l-5.72 -6.57c-7.49,-3.58 -11.41,-0.42 -12.79,6 -0.73,3.4 0.71,7.43 3.52,10.29l6.09 3.68z"/>
   <path class="fil11" d="M452.81 483.12l-3.61 2.81c-0.3,0.29 -1.21,1.22 -1.48,1.53 -2.55,2.91 -0.29,-0.55 -1.65,2.21 -0.55,1.13 -0.42,2.15 -0.2,3.76 0.91,6.72 1.37,-3.63 0.64,5.83 3.11,1.07 6.18,3.5 8.56,3.28l2.33 -0.72c3.3,-1.5 4.68,-2.55 5.64,-6.3 1.2,-4.72 -0.17,-3.02 -0.68,-8.53 -5.82,-3.97 0.35,-1.8 -5.54,-4.08 -2.51,-0.96 -1.73,-1.19 -4.01,0.21z"/>
   <path class="fil15" d="M471.83 489.15l0.63 10.38c11.08,2.16 4.11,-2.43 14.7,-2.75l-0.25 5.67c3.48,0.8 3.73,1.51 7.27,1.62 2.9,-2.87 4.08,-7.19 5.73,-11.55 -10.96,-2.99 -7.04,-2.65 -9.24,-5.84 -3.89,2.79 -1.22,0.71 -3.98,5.89l-1.71 2.57c-3.58,-1.73 -2.36,2.17 -3.99,-4.9 -1.21,-5.26 2.42,1.76 -0.28,-4.63 -2.95,1.12 -4.05,2.3 -5.35,5.35 -1.15,-1.08 -2.22,-0.78 -3.53,-1.81z"/>
   <path class="fil16" d="M299.86 485.23c6.47,2.27 4.87,2.07 9.14,7.86 2.37,3.22 4.75,6.24 9.64,4.89 2.56,-2.03 5.15,-2.55 2.45,-8.04 -0.18,-0.37 -4.75,-4.97 -5.68,-6.1 -3.97,-4.84 -6.78,-6.4 -14.39,-7.39 -1.65,5.33 1.76,2.14 -2.51,4.37l1.35 4.41z"/>
   <path class="fil11" d="M48.87 494.89c1.26,3.77 0.41,4.98 5.27,7.04 7.08,3.02 16.93,-5.98 10.52,-13.28l-4.93 -5.59c-4.65,0.77 -8.43,-0.81 -10.46,8.28 -0.62,2.74 -0.16,1.36 -0.4,3.55z"/>
   <path class="fil17" d="M340.24 475.63c2.38,-0.27 5.12,-0.99 5.23,-0.97 2.69,0.55 2.16,-1.08 2.38,3.4 9.22,-0.45 9.17,-4.29 9.22,-14.23 -4.48,-0.58 -7.98,-0.38 -9.76,-0.79 -6.49,-1.49 0.82,-3.51 -7.4,-1.17 -2.22,4.13 -0.49,6.73 0.33,13.76z"/>
   <path class="fil17" d="M233.88 462.65c-0.05,0.08 -1.82,3.51 -2.08,3.96 -2.93,-2.47 -4.36,-3.05 -9.45,-2.31 0.76,6.83 1.1,9.49 4.32,13.97 4.86,-1.8 2,0.51 5.15,-3.4l3.02 0.66c5.91,-2.49 6.42,-5.35 5.13,-14.36 -6.43,-0.37 -3.08,-1 -6.09,1.48z"/>
   <path class="fil11" d="M327.6 489.11c6.29,2.95 12.66,5.83 16.66,-2.37 1.15,-2.35 0.01,-1.29 0.89,-4.21 -1.75,-0.71 -1.36,-0.44 -2.85,-1.49l-3.13 -2.54c-3.6,3.98 -15.45,-3.8 -11.57,10.61z"/>
  </g>
 </g>
</svg>
