<?xml version="1.0" encoding="UTF-8"?>
<!DOCTYPE svg PUBLIC "-//W3C//DTD SVG 1.1//EN" "http://www.w3.org/Graphics/SVG/1.1/DTD/svg11.dtd">
<!-- Creator: CorelDRAW 2021 (64-Bit) -->
<svg xmlns="http://www.w3.org/2000/svg" xml:space="preserve" width="512px" height="512px" version="1.1" style="shape-rendering:geometricPrecision; text-rendering:geometricPrecision; image-rendering:optimizeQuality; fill-rule:evenodd; clip-rule:evenodd"
viewBox="0 0 512 512"
 xmlns:xlink="http://www.w3.org/1999/xlink"
 xmlns:xodm="http://www.corel.com/coreldraw/odm/2003">
 <defs>
  <style type="text/css">
   <![CDATA[
    .fil1 {fill:#24201F}
    .fil2 {fill:#F29121}
    .fil0 {fill:#FBFBFB}
   ]]>
  </style>
 </defs>
 <g id="Layer_x0020_1">
  <metadata id="CorelCorpID_0Corel-Layer"/>
  <g id="_2436747517696">
   <path class="fil0" d="M0 512l154.33 0c6.42,-3.63 38.05,-4.27 81.1,-23.83 44.74,-20.34 86.55,-57.82 111.43,-99.64 10.48,-17.62 27.4,-51.48 30.2,-75.43 -50.93,0.23 -73.92,-3 -110.49,-23.03 -61.5,-33.7 -97.04,-99.86 -93.4,-174.93 2.42,-49.67 26.86,-79.14 29.71,-88.49 1.23,-4.04 0.72,-11.21 6.83,-7.45 8.57,5.25 -1.95,2.45 -10.39,17.02 -4.08,7.04 -7.63,14.25 -11.22,22.46 -23.74,54.35 -16.23,115.65 10.84,162.99 27.52,48.14 95.19,101.21 178.66,89.17l3.32 -16.17c-46.48,5.4 -88.27,-5.21 -122.98,-30.95l-17.01 -15.04c-7.17,-8.13 -1.83,0.42 -15.25,-16.79 -26.53,-34.01 -39.16,-73.38 -34.5,-121.69 3.93,-40.77 21.01,-64.2 38.28,-89.58 -12.11,-4.01 -23.11,-8.72 -36.14,-12.09l-38.94 -8.53 -154.38 0 0 512z"/>
   <path class="fil1" d="M154.33 512l357.67 0 0 -318.13c-4.55,5.52 -7.9,14 -10.89,19.33 -8.05,14.36 -19.94,29.41 -32.26,39.64 -27.55,22.88 -45.03,32.29 -87.93,41.83l-3.32 16.17c-83.47,12.04 -151.14,-41.03 -178.66,-89.17 -27.07,-47.34 -34.58,-108.64 -10.84,-162.99 3.59,-8.21 7.14,-15.42 11.22,-22.46 8.44,-14.57 18.96,-11.77 10.39,-17.02 -6.11,-3.76 -5.6,3.41 -6.83,7.45 -2.85,9.35 -27.29,38.82 -29.71,88.49 -3.64,75.07 31.9,141.23 93.4,174.93 36.57,20.03 59.56,23.26 110.49,23.03 -2.8,23.95 -19.72,57.81 -30.2,75.43 -24.88,41.82 -66.69,79.3 -111.43,99.64 -43.05,19.56 -74.68,20.2 -81.1,23.83z"/>
   <path class="fil2" d="M229.46 20.62c-17.27,25.38 -34.35,48.81 -38.28,89.58 -4.66,48.31 7.97,87.68 34.5,121.69 13.42,17.21 8.08,8.66 15.25,16.79l17.01 15.04c34.71,25.74 76.5,36.35 122.98,30.95 42.9,-9.54 60.38,-18.95 87.93,-41.83 12.32,-10.23 24.21,-25.28 32.26,-39.64 2.99,-5.33 6.34,-13.81 10.89,-19.33l0 -46.83c-2.77,5.52 -7.4,30.29 -11.28,40.12 -13.49,34.13 -38.63,61.15 -71.21,79.06 -47.93,26.36 -113.13,21.75 -156.34,-6.64 -84.8,-55.74 -91.87,-173.3 -29.12,-236.35l26.36 -23.23 -19.86 0c-2.34,4.08 0.48,0.3 -3.27,4.03l-17.82 16.59z"/>
   <path class="fil2" d="M416.49 377.38c-9.85,2.37 -18.94,6.94 -24.66,15.96 -23.02,36.34 10.77,71.2 42.36,63.01 32.73,-8.49 44.54,-48.78 14.16,-72.52 -8.39,-6.55 -20.87,-9.1 -31.86,-6.45z"/>
   <path class="fil2" d="M39.95 429.8c-8.36,4.9 -11.88,16.11 -3.98,23.83 6.47,6.34 22.43,4.01 32.83,4 12.31,-0.02 64.8,2.07 71.98,-1.51 6.9,-3.43 11.61,-15.07 4.13,-23.47 -6.69,-7.53 -22.61,-4.82 -32.91,-4.8 -12.64,0.03 -64.78,-2.32 -72.05,1.95z"/>
   <path class="fil1" d="M512 64.41l0 -64.41 -48.25 0 14.45 14.56c4.46,3.85 3.44,3.21 6.75,7.66 2.25,3.01 3.41,4 5.76,7.03 10.2,13.14 17.07,30.56 21.29,35.16z"/>
   <path class="fil2" d="M512 114.66l0 -50.25c-4.22,-4.6 -11.09,-22.02 -21.29,-35.16 -2.35,-3.03 -3.51,-4.02 -5.76,-7.03 -3.31,-4.45 -2.29,-3.81 -6.75,-7.66l-14.45 -14.56 -20.11 0c7.43,8.83 42.58,27.59 59.43,77.59 3.79,11.27 5.81,28.85 8.93,37.07z"/>
   <path class="fil1" d="M229.46 20.62l17.82 -16.59c3.75,-3.73 0.93,0.05 3.27,-4.03l-96.17 0 38.94 8.53c13.03,3.37 24.03,8.08 36.14,12.09z"/>
  </g>
 </g>
</svg>
