<?xml version="1.0" encoding="UTF-8"?>
<!DOCTYPE svg PUBLIC "-//W3C//DTD SVG 1.1//EN" "http://www.w3.org/Graphics/SVG/1.1/DTD/svg11.dtd">
<!-- Creator: CorelDRAW 2021 (64-Bit) -->
<svg xmlns="http://www.w3.org/2000/svg" xml:space="preserve" width="512px" height="512px" version="1.1" style="shape-rendering:geometricPrecision; text-rendering:geometricPrecision; image-rendering:optimizeQuality; fill-rule:evenodd; clip-rule:evenodd"
viewBox="0 0 512 512"
 xmlns:xlink="http://www.w3.org/1999/xlink"
 xmlns:xodm="http://www.corel.com/coreldraw/odm/2003">
 <defs>
  <style type="text/css">
   <![CDATA[
    .fil5 {fill:#09344C}
    .fil3 {fill:#097679}
    .fil7 {fill:#4CA895}
    .fil0 {fill:#91E1E1}
    .fil1 {fill:#B3F3F6}
    .fil2 {fill:#E74E72}
    .fil8 {fill:#FEB61B}
    .fil6 {fill:#FEC548}
    .fil4 {fill:#FEDA87}
   ]]>
  </style>
 </defs>
 <g id="Layer_x0020_1">
  <metadata id="CorelCorpID_0Corel-Layer"/>
  <g id="_2436527120480">
   <path class="fil0" d="M285.9 35.7c4.04,0.85 9.62,1.6 13.71,2.49 5.28,1.14 8.53,2.27 13.22,3.16 4.91,-8.33 14.63,-13.41 24.97,-9.66 4.58,1.67 8.07,4.28 10.65,8.24 3.21,4.94 3.36,8.57 2.91,15.46 4.35,1.46 24.18,12.23 26.51,15.5 3.32,0.7 15.97,10.88 18.6,13.1l16.4 15.14c0.79,0.8 1.62,1.64 2.37,2.35l2.03 1.89c5.42,5.35 22.9,26.25 23.84,30.75 3.08,2.2 9.79,14.98 11.52,18.24 1.71,3.25 3.52,6.58 4.93,9.88 0.47,1.09 4.17,9.93 4.38,10.18 26.02,-2.54 45.76,-25.99 50.06,-27.84l0 -59.21c-5.35,1.44 -10.77,4.33 -13.65,-3.15 -4.19,-10.86 3.78,-22.56 7.65,-30.66 1.93,-4.04 4.47,-12.02 6,-12.89l0 -8.36 -29.64 41.68c-4.92,6.42 -10.45,13.4 -16.66,18.73 -9.6,8.22 -20.67,9.02 -23.97,2.32 -3.79,-7.73 22.14,-25.34 32.35,-37.19 2.88,-3.35 5.8,-6.77 8.26,-9.93l1.75 -2.14c5.19,-6.39 19.94,-24.91 20.98,-28.34 -2.72,1.05 -3.28,2.27 -5.82,4.95 -18.71,19.72 -61.54,54.91 -83.6,58.73 -18.68,3.23 -51.57,-23.93 -6.8,-24.99 16.48,-0.39 41.66,-14.86 53.42,-21.84 -1.34,-0.76 -2.12,-0.3 -3.13,-0.02 -10.92,3.02 -6.57,2.93 -22.6,5.56 -9.95,1.63 -48.14,2.14 -56.92,-6.25 -4.93,-4.72 -7.04,-14.38 5.49,-18.99 21.19,-7.8 108.71,1.29 117.01,-12.59l-214.74 0c-0.36,5.95 -0.99,10.91 -1.19,17.33 -0.2,6.13 0.34,12.28 -0.29,18.37z"/>
   <path class="fil0" d="M377.87 441.11c-2.94,4.14 -24.91,15.23 -30.37,17.55 -5.68,2.42 -11.07,4.58 -16.94,6.7 -4.93,1.78 -13.07,3.69 -17.09,5.53 0.28,10.17 1.96,13.32 -3.75,21.61 -6.78,9.83 -19.35,13.78 -29.61,9.78 -12.29,-4.78 -15.59,-11.68 -17.58,-24.24l-31.04 -0.45 -0.07 -0.99c-5.06,2.02 -14.54,10.63 -24.84,8.19 -1.58,-0.38 -2.56,-1.18 -3.44,-1.92 -6.61,-5.49 -0.06,0.86 -6.22,4.71 -1.78,-3.04 -0.78,-1.44 0.16,-4.84 0.73,-2.64 1.1,-4.05 1.41,-6.81 -4.82,1.44 -4.74,3.06 -10.89,2.11 -5.87,-0.89 -15.16,-8.26 -18.86,-12.66 -0.81,-0.97 -0.22,-0.2 -1.05,-1.43 0.51,-1.47 0.4,-0.94 0.92,-1.71 0.11,-0.17 1.05,-1.14 1.18,-1.31 -2.06,-0.68 -2.38,-1.14 -4.64,-1.56 -3,-0.09 -2.51,1.88 -3.72,5.28 -6.1,17.12 -13.49,20.41 -12.99,47.35l286.63 0c1.76,-6.07 11.02,-7.22 17.05,-8.64 7.05,-1.65 13.44,-2.85 20.3,-4.87 13.67,-4.02 24.9,-10.06 39.58,-11.83l0 -3.35c-23.33,0.91 -60,19.4 -78.02,17.72 -7.49,-0.7 -18.08,-12.37 10.52,-22.62 5.59,-2 12.04,-4.39 18.15,-5.72 5.31,-1.15 18.78,-1.42 21.29,-2.44 -0.19,-0.11 -0.45,-0.22 -0.59,-0.29 -0.13,-0.06 -0.42,-0.2 -0.58,-0.27 -3.57,-1.52 -8.36,-1.96 -12.12,-2.69 -27.34,-5.33 -32.64,3.64 -41.39,1.26 -10.45,-2.84 0.34,-15.28 6.2,-18.66 8.25,-4.76 14.29,-2.31 23.58,-1.03l-4.43 -6.01c-9.73,-11.7 -32.37,-25.87 -43.59,-27.42l-15.83 13.96c-2.59,2.13 -14.3,11.36 -17.32,12.01z"/>
   <path class="fil1" d="M0 325.95c1.49,1.25 0.55,-0.07 1.2,1.93 0.26,0.8 0.45,2.69 0.59,3.64 2.02,13.35 1.29,21.01 3.79,34 0.53,2.74 0.85,3.26 1.28,5.63 0.69,3.82 -0.4,4.42 2.59,5.34 1.42,-6.12 1.81,-49.35 8.66,-58.34 1.48,10.06 -1.3,29.68 -2.71,39.38 -1.75,12.08 -9.02,29.23 1.4,32.34 2.37,-11.77 4.08,-23.98 7.16,-35.74 1.55,-5.92 7.7,-30.63 11.24,-32.61 -0.36,16.64 -11.76,56.84 -18.14,72.33 1.08,2.42 2.14,3.58 2.72,6.12l2.95 -3.92c2.74,-8.83 4.66,-20 8.74,-32.24l9.36 -25.95c1.84,-4.65 1.58,-5.54 4.64,-8.38 -0.77,9.87 -8.61,34.55 -12.15,45l-9.72 25.82c-1.19,3.39 -1.32,2.04 0.25,5.06 1.3,2.49 3.84,7.26 6.08,8.4 1.93,-1.41 1.67,-3.44 2.9,-8.3 5.11,-20.31 10.18,-35.07 17.53,-54.18 1.11,-2.88 0.29,-2.88 2.42,-4.05 0.65,0.74 1.88,0.62 0.81,5.36 -0.25,1.12 -1.1,4.02 -1.45,5.25 -5.18,18.04 -8.7,29.23 -15.82,47.15 -7.86,19.77 -2.64,9.46 -0.79,18.83 1.72,0.63 1.8,1.78 3.85,3.02 1.95,-4.29 3.42,-11.34 4.8,-16.39 1.48,-5.41 3.6,-11.66 4.99,-16.18 1.66,-5.41 9.35,-29.3 11.76,-31.51l-5.12 -9.73c-1.13,-2.39 -0.37,-1.21 -0.96,-3.55 -0.7,-2.78 -2.39,-4.03 -3.38,-6.33 -3.73,-8.65 -10.06,-27.23 -11.58,-36.13 -1.23,-8.85 -4.77,-18.22 -4.37,-28.4 -2.35,-3.38 -1.61,-17.07 -1.61,-22.62 0,-3.28 -0.95,-21.99 1.61,-22.62 -0.26,-6.81 1.29,-10.11 1.55,-16.41 -1.9,-0.26 -1.64,-4.51 -2.51,-7.27 -2.18,-6.9 -6.56,-14.41 -10.57,-19.45 -5.38,-6.73 -14.11,-14.29 -23.99,-15.74l0 151.44z"/>
   <path class="fil0" d="M0 79.81l0 94.7c9.88,1.45 18.61,9.01 23.99,15.74 4.01,5.04 8.39,12.55 10.57,19.45 0.87,2.76 0.61,7.01 2.51,7.27l2.85 -12.07 4.08 -15.46c-7.98,-3.21 -13.67,-3.7 -20.1,-14.16 -9.64,-15.69 -3.14,-37.65 16.05,-43.99 14.56,-4.82 22.36,2.38 29.04,4.9l1.9 -2.13c0.59,-3.35 4.23,-5.56 4.73,-8.94 3.02,-11.69 8.66,-23.52 13.66,-33.42 4.05,-8 13.24,-22.58 11.72,-34.12 1.91,-0.03 3.83,0.95 5.57,-0.08 -2.19,-3.05 -0.3,-0.95 -2.97,-2.26 -0.19,0.27 0.28,1.78 -3.87,0.18 -1.5,-0.58 -2.98,-1.33 -4.44,-1.96 -9.8,-4.22 -25.67,-9.74 -34.11,-13.81l-12.62 -11.01c-1.37,-1.48 -3.93,-4.7 -5.85,-5.56l2.88 3.77c5.24,5.31 40.23,43.98 40.81,46.95 -3.43,-0.95 -8.19,-6.4 -11.56,-8.55l-25.38 -20.92c-5.45,-4.11 -4.92,-5.39 -10.07,-6.52 0.83,7.01 6.17,16.57 8.41,24.07l2.63 6.35c1.13,2.67 1.64,6.37 2.36,8.26l6.61 18.65c0.07,0.24 0.27,1.15 0.25,1.81 -0.06,1.91 0.07,0.95 -0.57,2.09l-7.37 -10.57c-0.1,-0.15 -0.22,-0.35 -0.32,-0.5l-0.91 -1.5c-0.8,-1.21 -1.74,-2.15 -2.7,-3.6 -3.19,-4.8 -7.2,-10.19 -9.97,-15.6 -1.21,2.04 2.62,14.88 3.26,18.7 0.98,5.84 3.33,14.85 3.43,20.08 -2.29,-1.1 -0.68,-0.05 -2.16,-1.87l-3.3 -6.22c-4.91,-8.31 -23.85,-51.07 -24.96,-52.8 -2.77,-4.32 1.03,-1.69 -3.48,-3.31l0.11 67.38c-1.31,-1.39 -6.56,-18.26 -7.92,-22.42 -0.62,-1.9 -1.04,-6.15 -2.79,-7z"/>
   <path class="fil2" d="M512 30.31l0 -30.31 -9.88 0c-8.3,13.88 -95.82,4.79 -117.01,12.59 -12.53,4.61 -10.42,14.27 -5.49,18.99 8.78,8.39 46.97,7.88 56.92,6.25 16.03,-2.63 11.68,-2.54 22.6,-5.56 1.01,-0.28 1.79,-0.74 3.13,0.02 -11.76,6.98 -36.94,21.45 -53.42,21.84 -44.77,1.06 -11.88,28.22 6.8,24.99 22.06,-3.82 64.89,-39.01 83.6,-58.73 2.54,-2.68 3.1,-3.9 5.82,-4.95 -1.04,3.43 -15.79,21.95 -20.98,28.34l-1.75 2.14c-2.46,3.16 -5.38,6.58 -8.26,9.93 -10.21,11.85 -36.14,29.46 -32.35,37.19 3.3,6.7 14.37,5.9 23.97,-2.32 6.21,-5.33 11.74,-12.31 16.66,-18.73l29.64 -41.68z"/>
   <path class="fil1" d="M103.78 485.77c0.19,-0.16 0.4,-0.38 0.53,-0.52l0.94 -1.06c0.63,-0.82 0.37,-0.53 1,-1.58 1.22,-2.04 0.03,-0.54 1.44,-2.38 0.75,-0.98 1.14,-1.3 1.89,-2.05 0.28,-0.28 1.07,-1.05 1.22,-1.18l3.41 -2.11c3.17,-1.23 6.53,-1.42 9.48,-0.58 16.4,4.72 16.67,24 2.99,30.46 -9.15,4.32 -21.43,-0.59 -22.65,-17.22 -5.57,0.24 -13.05,-1.98 -18.95,-2.44 -11.66,-0.91 -51.81,-1.5 -57.41,-6.32 3.27,-1.41 29.85,0.16 34.49,1.21 11.42,2.57 20.93,3.5 33.59,3.89 -5.04,-12.33 -74.26,-7.72 -90.08,-16.79 8.98,-4.03 63.24,8.18 78.12,7.92 -3.13,-5.88 -12.17,-6.88 -18,-8.14 -15.22,-3.29 -37.13,-4.9 -45.6,-6.8 -6.91,-1.55 -13.57,-3.1 -20.19,-4.42l0 56.34 148.44 0c-0.5,-26.94 6.89,-30.23 12.99,-47.35 1.21,-3.4 0.72,-5.37 3.72,-5.28 -0.67,-0.9 -13.45,-7.12 -15.86,-8.4 -2.72,-1.45 -4.46,-2.52 -7.55,-4.34 -2.03,-1.19 -5.11,-3.5 -7.05,-4.19l-3.73 -2.28c-3.19,-2.35 -17.97,-13.43 -20.27,-14.02 -1.43,5.9 -2,22.86 -2.69,30.03 -0.87,9.09 -4.34,21.23 -4.22,29.6z"/>
   <path class="fil1" d="M461.94 172.42c1.63,5.46 3.97,10.92 5.67,16.13 1.75,5.4 3.28,10.63 4.48,16.35 0.56,4.4 2.11,8.63 2.86,14.09 0.75,5.4 1.64,9.33 1.73,15.74 2.03,1.87 1.33,18.87 1.32,22.85 -0.01,5.47 0.72,19.23 -1.68,22.34 0.38,5.67 -0.73,10.58 -1.58,16.15 -0.32,2.06 -1.03,4.46 -1.59,6.97 -0.98,4.38 -1.67,3.04 -2.89,6.53 0,1.03 0.1,3.31 -0.05,4.32l-1.45 4.33 4.84 3.71c1.32,1.91 -0.07,-2.44 0.62,1.25 0.37,1.98 0.28,1.15 -0.69,1.35 0.34,0.43 1.34,2.22 1.5,2.44 1.78,-0.77 0.87,-0.18 2.38,-2.51 0.34,2.79 1.6,4.6 3.87,5.88l2.15 -6.61c1.64,-11.9 9.12,-40.4 13.6,-49.17 3.1,5.85 -10.39,46.97 -13.95,57.4 -0.89,2.61 -1.73,-0.97 -0.09,3.3 1.46,3.79 0.88,0.93 1.84,3.76l2.15 -3.47c0.42,-1.22 0.53,-2.4 0.83,-3.65 0.59,-2.44 1.47,-5.52 2.22,-8.04 3.61,-12.12 9.72,-33.59 15.67,-43.22 3.22,7.52 -19.11,57.35 -18.22,61.89 0.39,2 3.42,6.5 4.83,7.58 2.27,-1.81 7.67,-23.33 9.03,-27.55 0.94,-2.9 8.06,-24.92 10.66,-26.41l0 -151.57c-4.3,1.85 -24.04,25.3 -50.06,27.84z"/>
   <path class="fil1" d="M442.27 376.83c-4.4,7.26 -16.33,22.88 -22.58,29.45 -0.74,0.77 -1.49,1.46 -2.43,2.31l-1.28 1.12c-0.12,0.1 -0.29,0.26 -0.42,0.36 -1.79,1.6 -3.49,2.89 -4.54,5.07 11.22,1.55 33.86,15.72 43.59,27.42l4.43 6.01c3.31,1.39 9.64,2.65 13.89,4.06l26.04 10.1c3.72,1.68 9.23,4.88 13.03,5.7l0 -2.28 -22.16 -14.67c-13.5,-8.49 -36.36,-14.1 -31.09,-21.86 0.04,-0.06 2.5,-2.25 2.57,-2.29 0.26,-0.18 2.82,-1.41 3.14,-1.49 9.81,-2.47 25.21,11.6 30.45,13.78 3.33,1.63 0.57,0.49 1.49,-0.09 -2.18,-4.28 -10.37,-12.38 -14.04,-16.02 -2.67,-2.65 -13.49,-13.24 -14.2,-15.51 6.24,0.39 13.44,2.5 20.15,2.94 7.75,0.5 15.94,1 23.69,1.02l0 -41.09c-1.67,1 -1.7,3.07 -2.77,4.44 -1.84,-1.66 -34.49,-6.93 -44.1,-9.33 -6.83,-1.7 -11.31,-1.67 -13.48,-5.03 17.82,-0.36 37.22,9.67 53.64,10.73 -1.12,-3.74 -0.83,-1.95 -2.47,-4.12 -3.72,-4.9 -1.6,-2.95 -7.32,-5.27 -1.47,-0.6 -0.99,-0.24 -1.95,-0.99 4.3,0.04 3.11,0.93 4.32,-1.47 -1.9,-0.94 0.02,0.3 -1.33,-0.94l-0.74 -0.78c-2.38,-2.91 -0.74,-3.45 -4.72,-4.84l-31.84 -7.64c-0.35,0.98 -0.47,1.6 -0.84,2.37 -1.24,2.65 -1.29,1.52 -2.43,3.26 -1.54,2.34 -0.68,2.61 -1.73,5.35 -0.97,2.57 -2.3,3.31 -3.25,5.27 -0.08,0.17 -0.15,0.39 -0.23,0.56l-8.49 14.39z"/>
   <path class="fil3" d="M0 79.81c1.75,0.85 2.17,5.1 2.79,7 1.36,4.16 6.61,21.03 7.92,22.42l-0.11 -67.38c4.51,1.62 0.71,-1.01 3.48,3.31 1.11,1.73 20.05,44.49 24.96,52.8l3.3 6.22c1.48,1.82 -0.13,0.77 2.16,1.87 -0.1,-5.23 -2.45,-14.24 -3.43,-20.08 -0.64,-3.82 -4.47,-16.66 -3.26,-18.7 2.77,5.41 6.78,10.8 9.97,15.6 0.96,1.45 1.9,2.39 2.7,3.6l0.91 1.5c0.1,0.15 0.22,0.35 0.32,0.5l7.37 10.57c0.64,-1.14 0.51,-0.18 0.57,-2.09 0.02,-0.66 -0.18,-1.57 -0.25,-1.81l-6.61 -18.65c-0.72,-1.89 -1.23,-5.59 -2.36,-8.26l-2.63 -6.35c-2.24,-7.5 -7.58,-17.06 -8.41,-24.07 5.15,1.13 4.62,2.41 10.07,6.52l25.38 20.92c3.37,2.15 8.13,7.6 11.56,8.55 -0.58,-2.97 -35.57,-41.64 -40.81,-46.95l-2.88 -3.77c1.92,0.86 4.48,4.08 5.85,5.56l12.62 11.01c8.44,4.07 24.31,9.59 34.11,13.81 1.46,0.63 2.94,1.38 4.44,1.96 4.15,1.6 3.68,0.09 3.87,-0.18 -1.72,0.11 -3.14,-2 -6.84,-4.74l-6.89 -4.89c-0.11,-0.1 -0.28,-0.26 -0.39,-0.36l-13.75 -12.77c10.81,0.38 11.57,4.23 30.39,5.08 -1.57,-3.67 -0.19,-1.14 -7.1,-5.83 -3.74,-2.54 -6.73,-3.28 -11.45,-6.65l-40.25 -21.29c-1.4,-1.45 -0.5,0.06 -1.63,-2.57l48.83 -0.05c3.84,-0.03 14.15,0.74 14.63,-1.17l-109.15 0 0 79.81z"/>
   <path class="fil1" d="M103.6 55.24c2.67,1.31 0.78,-0.79 2.97,2.26 -1.74,1.03 -3.66,0.05 -5.57,0.08 1.52,11.54 -7.67,26.12 -11.72,34.12 -5,9.9 -10.64,21.73 -13.66,33.42 3.33,-2.14 12.67,-16.02 19.96,-22.48 8.74,-7.74 8.44,-9.25 21.69,-20.07 3.83,-3.13 11.99,-9.67 16.6,-11.82 1.79,-2 6.01,-3.47 7.19,-5.1 -2.67,-0.48 -0.32,1.51 -1.86,-1.06 1.59,-6.36 1.51,-12 0.84,-18.38 -0.5,-4.74 -1.3,-13.97 -2.38,-18.15l-15.14 10.98c-1.89,1.76 -2.65,3.64 -4.53,2.59 -5.48,-3.31 0.79,-20.82 2.52,-24.37 2.22,-4.53 3.49,-5.68 5.83,-9.06l6.11 -8.2 -23.3 0c-0.48,1.91 -10.79,1.14 -14.63,1.17l-48.83 0.05c1.13,2.63 0.23,1.12 1.63,2.57l40.25 21.29c4.72,3.37 7.71,4.11 11.45,6.65 6.91,4.69 5.53,2.16 7.1,5.83 -18.82,-0.85 -19.58,-4.7 -30.39,-5.08l13.75 12.77c0.11,0.1 0.28,0.26 0.39,0.36l6.89 4.89c3.7,2.74 5.12,4.85 6.84,4.74z"/>
   <path class="fil4" d="M44 189.44c6.83,1.25 15.11,-0.3 20.97,-3.95 0.14,-0.09 0.32,-0.22 0.45,-0.31 0.13,-0.09 0.31,-0.23 0.44,-0.32 0.8,-0.54 1,-0.87 2.36,-1.57 5.4,-5.85 4.56,-3.6 9.27,-11.87 1.98,-7.08 2.98,-13.19 0.79,-20.95 -0.43,-1.52 -1.23,-3.49 -1.88,-4.58l-5.1 -6.87c-0.1,-0.12 -0.26,-0.29 -0.36,-0.41l-1.95 -2.42c-6.68,-2.52 -14.48,-9.72 -29.04,-4.9 -19.19,6.34 -25.69,28.3 -16.05,43.99 6.43,10.46 12.12,10.95 20.1,14.16z"/>
   <path class="fil2" d="M512 483.31l0 -14.88c-3.8,-0.82 -9.31,-4.02 -13.03,-5.7l-26.04 -10.1c-4.25,-1.41 -10.58,-2.67 -13.89,-4.06 -9.29,-1.28 -15.33,-3.73 -23.58,1.03 -5.86,3.38 -16.65,15.82 -6.2,18.66 8.75,2.38 14.05,-6.59 41.39,-1.26 3.76,0.73 8.55,1.17 12.12,2.69 0.16,0.07 0.45,0.21 0.58,0.27 0.14,0.07 0.4,0.18 0.59,0.29 -2.51,1.02 -15.98,1.29 -21.29,2.44 -6.11,1.33 -12.56,3.72 -18.15,5.72 -28.6,10.25 -18.01,21.92 -10.52,22.62 18.02,1.68 54.69,-16.81 78.02,-17.72z"/>
   <path class="fil1" d="M210.14 38.49c7.91,-0.52 14.28,-3.49 23.33,-2.88 3.62,-2.66 41.42,-2.64 45.07,-0.03l7.36 0.12c0.63,-6.09 0.09,-12.24 0.29,-18.37 0.2,-6.42 0.83,-11.38 1.19,-17.33l-67.99 0 -0.07 11.4c-3.14,-0.37 -2.64,-1.55 -4.87,-0.37 0.96,13.55 0.81,15.3 -5.39,17.61l-1.23 0.5c1.39,2.38 2.4,5.9 2.31,9.35z"/>
   <path class="fil4" d="M262.53 478.04c1.99,12.56 5.29,19.46 17.58,24.24 10.26,4 22.83,0.05 29.61,-9.78 5.71,-8.29 4.03,-11.44 3.75,-21.61 -2.69,-13.05 -18.68,-22.78 -33.81,-17.4 -5.52,1.96 -10.1,5.68 -13.33,10.66 -2.3,3.54 -4.08,9.78 -3.8,13.89z"/>
   <path class="fil0" d="M137.66 28.06c1.08,4.18 1.88,13.41 2.38,18.15 0.67,6.38 0.75,12.02 -0.84,18.38 1.54,2.57 -0.81,0.58 1.86,1.06 4.05,-1.9 6.22,-3.61 9.76,-5.47 3.68,-1.93 7.13,-3.87 10.42,-5.3l16.63 -6.88c2.95,-1.03 3.77,-0.94 5.81,-2.87 0.62,-4.24 2.26,-6.49 2.43,-10.75 -1.13,0.94 -0.11,-0.02 -1.42,1.35 -3.04,3.17 -0.89,2.45 -4.09,2.7 -0.4,-3.04 -0.73,-4.63 -0.05,-7.55 1.62,-7 -4.63,-1.05 3.49,-15.91 -0.22,-0.1 -0.52,-0.12 -0.7,-0.16l-2.07 -0.57c-1.37,-0.45 -0.52,1.29 -1.32,-0.54 -0.12,-0.28 -0.45,-0.17 -1.01,-0.35l1.74 -13.35 -6.11 0c-1.46,4.13 -12.08,11.73 -17.3,11.02l-0.42 -9.69c-2.25,0.68 -1.4,0.21 -2.63,2.5 -2.38,4.44 -6.37,15.05 -10.07,17.72 -4.02,-2.72 -3.22,-5.24 -5.52,-9.24 -1.52,3.57 -1.21,11.31 -0.97,15.75z"/>
   <path class="fil5" d="M0 325.95l0 57.51c2.41,0.5 9.58,4.31 11.71,5.74 2.45,1.65 2.35,2.55 3.73,4.97 1.56,2.73 2.75,3.3 2.95,6.7l-18.39 -9.48 0 4.23c5.1,1.24 12.4,4.65 16.96,6.46 4.55,1.82 4,1.42 6.43,5.35 1.73,2.79 3.77,5.12 5.07,7.78 -6.75,-0.05 -20.6,-6.64 -28.46,-8.23l0 4.41c5.87,1.05 13.27,2.7 19.68,3.9 2.14,0.4 7.87,1.6 9.32,2.26 4.34,1.96 2.59,4.64 6.53,6.27 -1.85,-9.37 -7.07,0.94 0.79,-18.83 7.12,-17.92 10.64,-29.11 15.82,-47.15 0.35,-1.23 1.2,-4.13 1.45,-5.25 1.07,-4.74 -0.16,-4.62 -0.81,-5.36 -2.13,1.17 -1.31,1.17 -2.42,4.05 -7.35,19.11 -12.42,33.87 -17.53,54.18 -1.23,4.86 -0.97,6.89 -2.9,8.3 -2.24,-1.14 -4.78,-5.91 -6.08,-8.4 -1.57,-3.02 -1.44,-1.67 -0.25,-5.06l9.72 -25.82c3.54,-10.45 11.38,-35.13 12.15,-45 -3.06,2.84 -2.8,3.73 -4.64,8.38l-9.36 25.95c-4.08,12.24 -6,23.41 -8.74,32.24l-2.95 3.92c-0.58,-2.54 -1.64,-3.7 -2.72,-6.12 6.38,-15.49 17.78,-55.69 18.14,-72.33 -3.54,1.98 -9.69,26.69 -11.24,32.61 -3.08,11.76 -4.79,23.97 -7.16,35.74 -10.42,-3.11 -3.15,-20.26 -1.4,-32.34 1.41,-9.7 4.19,-29.32 2.71,-39.38 -6.85,8.99 -7.24,52.22 -8.66,58.34 -2.99,-0.92 -1.9,-1.52 -2.59,-5.34 -0.43,-2.37 -0.75,-2.89 -1.28,-5.63 -2.5,-12.99 -1.77,-20.65 -3.79,-34 -0.14,-0.95 -0.33,-2.84 -0.59,-3.64 -0.65,-2 0.29,-0.68 -1.2,-1.93z"/>
   <path class="fil5" d="M67 459.22c0.81,3.87 1.85,1.16 4.43,6.02 -20.62,-0.85 -42.94,-10.5 -71.43,-12.05l0 2.47c6.62,1.32 13.28,2.87 20.19,4.42 8.47,1.9 30.38,3.51 45.6,6.8 5.83,1.26 14.87,2.26 18,8.14 -14.88,0.26 -69.14,-11.95 -78.12,-7.92 15.82,9.07 85.04,4.46 90.08,16.79 -12.66,-0.39 -22.17,-1.32 -33.59,-3.89 -4.64,-1.05 -31.22,-2.62 -34.49,-1.21 5.6,4.82 45.75,5.41 57.41,6.32 5.9,0.46 13.38,2.68 18.95,2.44 0.43,-0.9 1.46,1.12 -0.25,-1.78 -0.12,-8.37 3.35,-20.51 4.22,-29.6 0.69,-7.17 1.26,-24.13 2.69,-30.03 -0.56,-3.34 0.99,-1.52 -1.2,-2.29 -1.97,1.05 -0.74,-0.7 -1.52,3.04 -0.21,1.01 -0.35,2.43 -0.58,3.62l-4.16 21.53c-1.63,7.56 -1.65,25.88 -3.88,30.82 -1.33,0.22 -2.81,-1.48 -4.51,-2.61 -9.25,-6.14 -2.74,-5.02 1.71,-34.51 0.89,-5.86 1.43,-10.97 2.38,-16.93 0.57,-3.56 3.31,-12.78 0.32,-15.41 -2.58,1.42 -1.46,0.19 -2.88,6.93 -0.45,2.16 -1.14,5 -1.78,7.6 -3.59,14.67 -4.47,25.99 -6.82,38.89l-1.6 6.31c-0.04,-0.11 -0.17,0.48 -0.31,0.69 -2.73,-1.45 -6.31,-4.74 -8.76,-6.72l7.19 -33.94c1.26,-6.17 1.78,-11.32 2.87,-17.81 0.44,-2.62 0.91,-5.59 1.45,-8.78 0.78,-4.68 1.1,-4.59 -2.23,-5.75 -2.56,10.23 -5.22,20.54 -7.2,31.43 -0.76,4.22 -4.84,29.8 -5.93,31.59 -1.97,-1.58 -3.5,-4.01 -6.25,-4.62z"/>
   <path class="fil5" d="M35.53 423.82c0.01,2.36 -0.23,1.91 -0.87,3 -11.49,-1.94 -23.45,-7.96 -34.66,-8.95l0 4.32c3.19,0.31 36.88,6.33 39.31,8.03l5.37 6.35c1.83,2.63 0.53,-0.84 1.57,3.32 -14.62,-1.12 -34.48,-9.52 -46.25,-10.28l0 4.29c4.92,0.61 46.93,7.79 49.83,9.38l9.81 10.25c-6.52,0.34 -22.99,-3.7 -29.78,-5.37 -8.89,-2.18 -20.19,-5.28 -29.86,-5.93l0 4.09c5.55,0.47 11.25,2.27 16.96,3.02 5.87,0.77 11.62,1.24 17.38,2.26 5.96,1.05 10.88,1.37 16.81,2.9 6.2,1.59 9.73,1.51 13.66,3.67 1.39,0.77 0.22,0.62 2.19,1.05 -0.85,-2.65 0.31,-0.28 -1.85,-2.91 -0.11,-0.13 -0.28,-0.3 -0.39,-0.43l-1.19 -1.38c0.75,-5 3.35,-10.71 4.62,-15.18 2.57,-9.09 14.3,-44.43 10.58,-49.34 -2.48,0.71 -0.81,-1.82 -3.34,6.07 -0.74,2.29 -1.86,5.5 -2.51,7.67 -5.34,17.86 -7.8,31.75 -12.23,47.71 -2.4,-1.26 -4.47,-4.13 -6.53,-6.21 -3.4,-3.43 -2.7,-3.76 -0.75,-8.35l17.39 -48.73c2.08,-6.95 1.89,-3.76 0.19,-10.08l-2.28 0.15c-1.04,5.8 -3.42,9.91 -5.16,15.32 -1.54,4.77 -3.48,10.83 -4.98,15.58 -1.8,5.66 -3.19,10.26 -4.73,15.96 -0.93,3.43 -2.39,11.94 -5,14.39 -1.24,-1.5 -2.18,-2.91 -3.76,-4.83 -1.77,-2.16 -2.74,-2.77 -3.77,-5.34l12.42 -33.14c2.86,-8.17 11.52,-26.29 7.2,-33.39 -2.41,2.21 -10.1,26.1 -11.76,31.51 -1.39,4.52 -3.51,10.77 -4.99,16.18 -1.38,5.05 -2.85,12.1 -4.8,16.39 -2.05,-1.24 -2.13,-2.39 -3.85,-3.02z"/>
   <path class="fil2" d="M183.68 45.13c2.24,0.16 3.24,-0.21 4.83,-0.74 0.77,-0.25 1.68,-0.57 2.43,-0.84l2.89 -1c3.34,-1.13 6.97,-2.12 11.12,-2.64l5.19 -1.42c0.09,-3.45 -0.92,-6.97 -2.31,-9.35l1.23 -0.5c6.2,-2.31 6.35,-4.06 5.39,-17.61 2.23,-1.18 1.73,0 4.87,0.37l0.07 -11.4 -38.71 0 -1.74 13.35c0.56,0.18 0.89,0.07 1.01,0.35 0.8,1.83 -0.05,0.09 1.32,0.54l2.07 0.57c0.18,0.04 0.48,0.06 0.7,0.16 -8.12,14.86 -1.87,8.91 -3.49,15.91 -0.68,2.92 -0.35,4.51 0.05,7.55 3.2,-0.25 1.05,0.47 4.09,-2.7 1.31,-1.37 0.29,-0.41 1.42,-1.35 -0.17,4.26 -1.81,6.51 -2.43,10.75z"/>
   <path class="fil6" d="M312.83 41.35c-5.56,8.07 -2.57,18.68 2.66,24.38 2.76,3.01 6.47,4.96 10.46,6.12 6.57,1.91 8.59,-0.01 14,-1.08l3.8 -2.76c3.82,-3.1 6.92,-7.17 7.61,-12.62 0.45,-6.89 0.3,-10.52 -2.91,-15.46 -2.58,-3.96 -6.07,-6.57 -10.65,-8.24 -10.34,-3.75 -20.06,1.33 -24.97,9.66z"/>
   <path class="fil6" d="M472.14 113.57c-25.87,9.74 -10.73,44.47 11.92,37.04 8.86,-2.9 16.77,-13.06 13,-24.71 -3.05,-9.45 -13.84,-16.49 -24.92,-12.33z"/>
   <path class="fil2" d="M435.07 512l57.57 0c1.21,-2.86 15.1,-12.2 19.36,-13.09l0 -12.25c-14.68,1.77 -25.91,7.81 -39.58,11.83 -6.86,2.02 -13.25,3.22 -20.3,4.87 -6.03,1.42 -15.29,2.57 -17.05,8.64z"/>
   <path class="fil7" d="M169.79 460.93c-0.13,0.17 -1.07,1.14 -1.18,1.31 -0.52,0.77 -0.41,0.24 -0.92,1.71 0.83,1.23 0.24,0.46 1.05,1.43 3.7,4.4 12.99,11.77 18.86,12.66 6.15,0.95 6.07,-0.67 10.89,-2.11 -0.31,2.76 -0.68,4.17 -1.41,6.81 -0.94,3.4 -1.94,1.8 -0.16,4.84 6.16,-3.85 -0.39,-10.2 6.22,-4.71 0.88,0.74 1.86,1.54 3.44,1.92 10.3,2.44 19.78,-6.17 24.84,-8.19 0.66,-2.53 -0.36,-0.41 1.73,-1.5 -0.94,-3.8 -10.45,-7.74 -14.26,-8.71 -9.5,-2.42 -13.42,0.58 -17.24,5.41 -2.74,-3.03 0.24,-8.28 -3.15,-12.36 -2.08,2.37 -0.53,1.76 -1.58,4.43 -7.04,-11.46 -21.8,-3.07 -27.13,-2.94z"/>
   <path class="fil3" d="M137.66 28.06c-0.24,-4.44 -0.55,-12.18 0.97,-15.75 2.3,4 1.5,6.52 5.52,9.24 3.7,-2.67 7.69,-13.28 10.07,-17.72 1.23,-2.29 0.38,-1.82 2.63,-2.5l0.42 9.69c5.22,0.71 15.84,-6.89 17.3,-11.02l-42.12 0 -6.11 8.2c-2.34,3.38 -3.61,4.53 -5.83,9.06 -1.73,3.55 -8,21.06 -2.52,24.37 1.88,1.05 2.64,-0.83 4.53,-2.59l15.14 -10.98z"/>
   <path class="fil5" d="M473.53 324.53c-2.8,-0.64 -2.64,-2.09 -5.39,-2.95 -0.72,4.86 -0.75,2.81 7.32,7.21 3.7,2.01 6,4.99 7.07,9.76 -5.26,-1.12 -14.06,-8.25 -17.28,-8.05 -1.18,4.65 -1.13,2.91 13.52,9.05 6.71,2.82 6.43,1.84 10.99,9.62 1.24,2.11 0.05,-1.01 1.11,2.21 -7.83,-0.4 -20.32,-7.47 -29.76,-8.73 -1.35,1.93 -0.98,0.95 -1.87,2.98l31.84 7.64c3.98,1.39 2.34,1.93 4.72,4.84l0.74 0.78c1.35,1.24 -0.57,0 1.33,0.94 -1.4,-6.93 -5.91,-2.32 -1.33,-12.98 6.8,-15.81 8.73,-24.04 13.65,-38.36 1.25,-3.66 -0.31,-1.73 1.81,-3.16l0 -9.18c-2.6,1.49 -9.72,23.51 -10.66,26.41 -1.36,4.22 -6.76,25.74 -9.03,27.55 -1.41,-1.08 -4.44,-5.58 -4.83,-7.58 -0.89,-4.54 21.44,-54.37 18.22,-61.89 -5.95,9.63 -12.06,31.1 -15.67,43.22 -0.75,2.52 -1.63,5.6 -2.22,8.04 -0.3,1.25 -0.41,2.43 -0.83,3.65l-2.15 3.47c-0.96,-2.83 -0.38,0.03 -1.84,-3.76 -1.64,-4.27 -0.8,-0.69 0.09,-3.3 3.56,-10.43 17.05,-51.55 13.95,-57.4 -4.48,8.77 -11.96,37.27 -13.6,49.17l-2.15 6.61c-2.27,-1.28 -3.53,-3.09 -3.87,-5.88 -1.51,2.33 -0.6,1.74 -2.38,2.51 -0.16,-0.22 -1.16,-2.01 -1.5,-2.44z"/>
   <path class="fil6" d="M103.78 485.77c1.71,2.9 0.68,0.88 0.25,1.78 1.22,16.63 13.5,21.54 22.65,17.22 13.68,-6.46 13.41,-25.74 -2.99,-30.46 -2.95,-0.84 -6.31,-0.65 -9.48,0.58l-3.41 2.11c-0.15,0.13 -0.94,0.9 -1.22,1.18 -0.75,0.75 -1.14,1.07 -1.89,2.05 -1.41,1.84 -0.22,0.34 -1.44,2.38 -0.63,1.05 -0.37,0.76 -1,1.58l-0.94 1.06c-0.13,0.14 -0.34,0.36 -0.53,0.52z"/>
   <path class="fil2" d="M512 466.15l0 -13.62c-2.08,-0.85 -16.32,-11.63 -17.09,-12.91 -5.24,-2.18 -20.64,-16.25 -30.45,-13.78 -0.32,0.08 -2.88,1.31 -3.14,1.49 -0.07,0.04 -2.53,2.23 -2.57,2.29 -5.27,7.76 17.59,13.37 31.09,21.86l22.16 14.67z"/>
   <path class="fil0" d="M494.91 439.62c0.77,1.28 15.01,12.06 17.09,12.91l0 -7.14c-2.68,-1.12 -4.64,-3.68 -6.34,-5.84 -3.37,-4.27 -7.98,-13.33 -2.85,-17.15 3.07,-2.29 5.81,-0.63 9.19,0.12l0 -10.56c-7.75,-0.02 -15.94,-0.52 -23.69,-1.02 -6.71,-0.44 -13.91,-2.55 -20.15,-2.94 0.71,2.27 11.53,12.86 14.2,15.51 3.67,3.64 11.86,11.74 14.04,16.02 -0.92,0.58 1.84,1.72 -1.49,0.09z"/>
   <path class="fil1" d="M0 442.23c9.67,0.65 20.97,3.75 29.86,5.93 6.79,1.67 23.26,5.71 29.78,5.37l-9.81 -10.25c-2.9,-1.59 -44.91,-8.77 -49.83,-9.38l0 8.33z"/>
   <path class="fil1" d="M0 453.19c28.49,1.55 50.81,11.2 71.43,12.05 -2.58,-4.86 -3.62,-2.15 -4.43,-6.02 -1.97,-0.43 -0.8,-0.28 -2.19,-1.05 -3.93,-2.16 -7.46,-2.08 -13.66,-3.67 -5.93,-1.53 -10.85,-1.85 -16.81,-2.9 -5.76,-1.02 -11.51,-1.49 -17.38,-2.26 -5.71,-0.75 -11.41,-2.55 -16.96,-3.02l0 6.87z"/>
   <path class="fil2" d="M512 85.37l0 -46.7c-1.53,0.87 -4.07,8.85 -6,12.89 -3.87,8.1 -11.84,19.8 -7.65,30.66 2.88,7.48 8.3,4.59 13.65,3.15z"/>
   <path class="fil1" d="M0 429.61c11.77,0.76 31.63,9.16 46.25,10.28 -1.04,-4.16 0.26,-0.69 -1.57,-3.32l-5.37 -6.35c-2.43,-1.7 -36.12,-7.72 -39.31,-8.03l0 7.42z"/>
   <path class="fil1" d="M497.87 359.83c1.88,1 1.83,2.01 2.93,0.1 0.54,-0.93 1.12,-3.54 1.53,-5l5.91 -19.34c1.49,-4.37 1.67,-7.56 3.76,-8.9l0 -21.36c-2.12,1.43 -0.56,-0.5 -1.81,3.16 -4.92,14.32 -6.85,22.55 -13.65,38.36 -4.58,10.66 -0.07,6.05 1.33,12.98z"/>
   <path class="fil5" d="M497.87 359.83c-1.21,2.4 -0.02,1.51 -4.32,1.47 0.96,0.75 0.48,0.39 1.95,0.99 5.72,2.32 3.6,0.37 7.32,5.27 1.64,2.17 1.35,0.38 2.47,4.12 -16.42,-1.06 -35.82,-11.09 -53.64,-10.73 2.17,3.36 6.65,3.33 13.48,5.03 9.61,2.4 42.26,7.67 44.1,9.33 1.07,-1.37 1.1,-3.44 2.77,-4.44l0 -7.32c-1.08,0.99 -0.81,-0.03 -2.03,3.99 -0.31,1.02 -0.61,2.13 -1.12,3.55 -3.15,-0.49 -1.86,-0.3 -4.06,-3.17 -4.34,-5.66 -3.35,-4.37 2.2,-17.72 1.58,-3.81 3.34,-10.49 5.01,-11.36l0 -12.15c-2.09,1.34 -2.27,4.53 -3.76,8.9l-5.91 19.34c-0.41,1.46 -0.99,4.07 -1.53,5 -1.1,1.91 -1.05,0.9 -2.93,-0.1z"/>
   <path class="fil1" d="M0 406.98c7.86,1.59 21.71,8.18 28.46,8.23 -1.3,-2.66 -3.34,-4.99 -5.07,-7.78 -2.43,-3.93 -1.88,-3.53 -6.43,-5.35 -4.56,-1.81 -11.86,-5.22 -16.96,-6.46l0 11.36z"/>
   <path class="fil1" d="M0 417.87c11.21,0.99 23.17,7.01 34.66,8.95 0.64,-1.09 0.88,-0.64 0.87,-3 -3.94,-1.63 -2.19,-4.31 -6.53,-6.27 -1.45,-0.66 -7.18,-1.86 -9.32,-2.26 -6.41,-1.2 -13.81,-2.85 -19.68,-3.9l0 6.48z"/>
   <path class="fil8" d="M65.43 167.82c-3.63,0.33 -3.13,-0.08 -7.22,-2.42 -2.25,-1.29 -4.51,-2.7 -6.94,-3.44 0.43,2.22 6.14,19.56 6.78,20.78 1.99,0.18 1.97,0.1 3.94,-1.09 3.67,-2.2 -1.41,1.19 1.78,-1.27l4.9 -4.55c1.38,-1.56 1.83,-2.11 2.22,-4.5 -0.74,-0.23 -2.37,-0.58 -3.27,-1.06 -3.23,-1.74 -2.15,-2.29 -2.19,-2.45z"/>
   <path class="fil8" d="M24.76 166.14c1.46,-0.01 19.19,-5.57 20.88,-6.24 -0.89,-2.35 -3.21,-2.45 -8.7,-5.36 -3.44,-1.82 -7.48,-4.06 -10.16,-5.21l-1.73 3.23c-1.37,4.72 -0.98,8.85 -0.29,13.58z"/>
   <path class="fil2" d="M512 445.39l0 -22.87c-3.38,-0.75 -6.12,-2.41 -9.19,-0.12 -5.13,3.82 -0.52,12.88 2.85,17.15 1.7,2.16 3.66,4.72 6.34,5.84z"/>
   <path class="fil8" d="M39.16 182.74c7.03,2.41 9.08,2.14 16.72,1.43 -0.19,-2.21 -5.76,-20.07 -7.08,-21.48 -2.82,6.71 -8.09,14.78 -9.64,20.05z"/>
   <path class="fil8" d="M59.8 139.34l-0.53 -3.06c-4.67,-1.83 -11.19,-2.25 -16.3,-0.8 0.09,1.18 4.9,17.91 6.65,20.07 1.98,-1.27 5.74,-9.85 6.91,-12.4 2.28,-4.94 2.52,-3.67 3.27,-3.81z"/>
   <path class="fil8" d="M27.52 147.3c3.58,1.96 16.53,8.93 19.38,9.73l-5.31 -18.13c-0.08,-0.22 -0.36,-0.87 -0.46,-1.08 -0.83,-1.69 -0.26,-0.75 -0.96,-1.6 -5.45,1.92 -10.62,6.45 -12.65,11.08z"/>
   <path class="fil8" d="M25.79 168.4c1.83,5.05 6.49,11.85 11.2,12.87l10.06 -19.53 -21.26 6.66z"/>
   <path class="fil8" d="M65.43 167.82c3.33,-0.36 1.33,-0.41 6.71,2.43l2.49 -8.89c0.31,-3.58 -0.16,-5.61 -1.38,-8.73 -3.81,2.84 -15.49,4.94 -20.7,7.27 2.57,1.87 9.57,4.39 11.49,6.06 1.86,1.61 0.79,-0.22 1.39,1.86z"/>
   <path class="fil8" d="M59.8 139.34c0.19,4.63 -6.22,14.24 -8.38,18.35 4.74,-0.5 14.55,-4.95 20.9,-6.32 0.1,-3.18 0.3,-2.59 -1.77,-5.4 -0.1,-0.13 -0.24,-0.32 -0.35,-0.45 -0.1,-0.14 -0.24,-0.32 -0.34,-0.46 -0.1,-0.13 -0.24,-0.32 -0.34,-0.45l-8.09 -5.99c-0.14,0.04 -0.39,0.16 -0.52,0.2 -0.18,0.07 -0.86,0.43 -1.11,0.52z"/>
   <path class="fil1" d="M512 363.55l0 -24.71c-1.67,0.87 -3.43,7.55 -5.01,11.36 -5.55,13.35 -6.54,12.06 -2.2,17.72 2.2,2.87 0.91,2.68 4.06,3.17 0.51,-1.42 0.81,-2.53 1.12,-3.55 1.22,-4.02 0.95,-3 2.03,-3.99z"/>
   <path class="fil8" d="M347.91 54.35c0.95,-8.18 -0.5,-9.46 -4.47,-9.46 0.18,-0.65 0.91,-2.11 0.97,-2.3 1.1,-3.61 0.63,0.83 0.22,-1.25l-4.25 -4.38c-1.62,-1.06 -1.11,-0.72 -3.24,-1.5 -1.21,4.1 -3.67,10.75 -3.21,12.96 0.91,4.29 5.28,3.72 7.08,4.11 2.45,0.52 5.9,2.01 6.9,1.82z"/>
   <path class="fil1" d="M492.64 512l19.36 0 0 -13.09c-4.26,0.89 -18.15,10.23 -19.36,13.09z"/>
   <path class="fil8" d="M268.5 471.15l17.4 5.08c-0.4,-2.38 -7.37,-14.78 -8.74,-16.3 -2.44,0.59 -4.86,3.71 -5.23,4.14 -2.05,2.38 -3,3.83 -3.43,7.08z"/>
   <path class="fil8" d="M269.39 487.26c1.34,-0.67 15.13,-8.01 16.05,-8.97 -3.86,-1.05 -14.33,-5.14 -18.04,-4.66 -1.07,5.27 -0.74,9.46 1.99,13.63z"/>
   <path class="fil8" d="M306.98 468.02c-0.89,-3.18 -2.11,-4.35 -4.93,-6.86l-2.6 -1.98c-2.01,-1.16 -2.39,-1.18 -4.41,-1.06 -0.99,5.77 -3.39,12.03 -4.84,17.28 4.78,-1.34 12.45,-8.14 16.78,-7.38z"/>
   <path class="fil8" d="M298.55 496.38c-2,-0.8 -1.24,-0.23 -2.88,-2.97 -0.72,-1.19 -1.48,-2.76 -2.2,-4.06 -0.51,-0.94 -1.4,-2.75 -2.05,-4.11 -2.48,-5.15 -0.18,-2.7 -3.29,-3.27 -0.99,5.3 -3.97,13.19 -4.14,16.5 -0.01,0.1 -0.03,0.35 0.02,0.51 4.88,1.11 10.99,0.76 14.54,-2.6z"/>
   <path class="fil8" d="M270.48 488.78c1.01,5.64 7.05,6.81 10.33,9.47 2.29,-3.05 4.38,-12.44 5.69,-17.68 -4.24,1.19 -0.49,0.05 -2.42,0.97 -0.73,0.35 -1.72,0.93 -2.32,1.28 -1.27,0.74 -2.75,1.55 -3.9,2.18 -2.97,1.6 -4.41,2.77 -7.38,3.78z"/>
   <path class="fil8" d="M306.98 468.02c-0.48,2.05 -3.62,2.76 -7.31,4.99 -2.64,1.59 -5.93,2.75 -7.87,4.33l17.53 5.61c0.97,-4.25 1.28,-12.14 -2.35,-14.93z"/>
   <path class="fil8" d="M298.55 496.38c3.46,-1.1 10.58,-7.07 9.44,-11.62l-16.49 -4.78c1.26,6.54 7.42,10.4 7.05,16.4z"/>
   <path class="fil1" d="M0 391.39l18.39 9.48c-0.2,-3.4 -1.39,-3.97 -2.95,-6.7 -1.38,-2.42 -1.28,-3.32 -3.73,-4.97 -2.13,-1.43 -9.3,-5.24 -11.71,-5.74l0 7.93z"/>
   <path class="fil8" d="M279.63 458.43l7.7 15.06c0.71,1.03 0.44,0.67 0.96,1.19 1.5,-4.56 4.74,-13.66 4.63,-17.82 -4.9,-0.43 -9.18,-0.88 -13.29,1.57z"/>
  </g>
 </g>
</svg>
