<?xml version="1.0" encoding="UTF-8"?>
<!DOCTYPE svg PUBLIC "-//W3C//DTD SVG 1.1//EN" "http://www.w3.org/Graphics/SVG/1.1/DTD/svg11.dtd">
<!-- Creator: CorelDRAW 2021 (64-Bit) -->
<svg xmlns="http://www.w3.org/2000/svg" xml:space="preserve" width="512px" height="512px" version="1.1" style="shape-rendering:geometricPrecision; text-rendering:geometricPrecision; image-rendering:optimizeQuality; fill-rule:evenodd; clip-rule:evenodd"
viewBox="0 0 512 512"
 xmlns:xlink="http://www.w3.org/1999/xlink"
 xmlns:xodm="http://www.corel.com/coreldraw/odm/2003">
 <defs>
  <style type="text/css">
   <![CDATA[
    .fil0 {fill:#0196C1}
    .fil1 {fill:#09AEF1}
    .fil3 {fill:#1699C7}
    .fil5 {fill:#27A5CA}
    .fil4 {fill:#28B9F7}
    .fil6 {fill:#64D2F3}
    .fil7 {fill:#95E5F7}
    .fil2 {fill:#C7F5F6}
   ]]>
  </style>
 </defs>
 <g id="Layer_x0020_1">
  <metadata id="CorelCorpID_0Corel-Layer"/>
  <g id="_2437073150608">
   <path class="fil0" d="M89.34 172.88c-1.79,5.19 -5.51,9.26 -8.75,14.39 -4.64,7.34 -3.16,7.83 -9.65,13.08 2.02,4.45 -2.33,9.82 -3.8,13.07 -0.76,2.96 -3.28,10.6 -4.8,13.82 -3.02,6.42 -4.89,3.4 -9.88,7.88l8.08 -2.02c-1.09,5.49 -3.1,9.5 -4.61,16.45 -6.18,28.51 -4.76,59.36 0.68,87.92l9.03 30.15 -65.64 0.32 0 144.06 512 0 0 -143.82c-21.48,-0.93 -41.88,-3.53 -64.75,-1.98 18.76,-60.15 15.89,-77.67 4.31,-133.89 -2.45,-11.92 -9.64,-26.03 -14.96,-36.02 -16.9,-31.74 -33.66,-47.5 -59.69,-68.23 -4.35,-3.47 -9.08,-7.32 -14.11,-10.11l-32.94 -17.6c-7.49,0.26 -11.74,-3.44 -18.71,-4.21 -6.07,-2.43 -14.46,-3.58 -19.92,-4.95l-25.44 -2.57c-29.34,-5.02 -79.33,9.12 -106.48,23.53 -45.67,24.23 -64.76,57.92 -69.97,60.73zm156.95 -76.66c-55.05,3.7 -96.45,26.39 -125.29,53.23 -57.03,53.07 -76.7,133.24 -48.83,213.63 3.16,9.12 4.27,5.95 15.02,7.46 13.03,1.82 26.6,3.99 38.68,7.02 24.82,6.23 44.84,13.04 67.39,22.23 26.39,10.76 41.2,17.28 74.14,15.38 38.59,-2.23 65.41,-30.13 133.89,-43.78 37.35,-7.45 38.58,7.79 47.72,-40.42 24.55,-129.47 -79.61,-243 -202.72,-234.75z"/>
   <path class="fil1" d="M0 367.94l65.64 -0.32 -9.03 -30.15c-5.44,-28.56 -6.86,-59.41 -0.68,-87.92 1.51,-6.95 3.52,-10.96 4.61,-16.45l-8.08 2.02c-8.4,2.91 -16.64,7.51 -24.9,11.43 -16.06,7.63 -19.26,-4.83 -8.95,-10.3 12.35,-6.55 36.04,-18.28 48.53,-22.83 1.47,-3.25 5.82,-8.62 3.8,-13.07 -9.54,1.29 -23.26,15.02 -33.07,10.79 -6.73,-5.93 -3.29,-11.1 2.59,-14.24 14.49,-7.74 36.88,-16.4 48.88,-24.02 5.21,-2.81 24.3,-36.5 69.97,-60.73 27.15,-14.41 77.14,-28.55 106.48,-23.53 4.89,-5.55 60.36,-29.61 67.78,-33.77 11.51,-6.44 22.65,-11.12 34.44,-16.81 8.15,-3.94 27.33,-14.68 33.7,-16.32 10.48,-2.71 14.69,5.82 9.33,12.32l-85.11 41.56c-9.96,4.75 -24.63,14.64 -34.7,15.59 5.46,1.37 13.85,2.52 19.92,4.95 3.78,-5.11 31.82,-16.97 38.05,-20.06 6.79,-3.37 32.6,-18.6 39.07,-15.33 10.62,10.39 -14.82,17.94 -23.82,22.09l-25.82 12.63c-1.58,0.76 -3.04,1.28 -4.85,2.25 -3.15,1.68 0.98,-0.71 -1.73,0.99 -2.99,1.87 -1.61,1.1 -2.19,1.64l32.94 17.6c5.03,2.79 9.76,6.64 14.11,10.11 26.03,20.73 42.79,36.49 59.69,68.23 5.32,9.99 12.51,24.1 14.96,36.02 11.58,56.22 14.45,73.74 -4.31,133.89 22.87,-1.55 43.27,1.05 64.75,1.98l0 -368.18 -512 0 0 367.94z"/>
   <path class="fil2" d="M265.79 88.62l25.44 2.57c10.07,-0.95 24.74,-10.84 34.7,-15.59l85.11 -41.56c5.36,-6.5 1.15,-15.03 -9.33,-12.32 -6.37,1.64 -25.55,12.38 -33.7,16.32 -11.79,5.69 -22.93,10.37 -34.44,16.81 -7.42,4.16 -62.89,28.22 -67.78,33.77z"/>
   <path class="fil3" d="M459.39 440.88c24.65,0 17.74,-2.74 26.76,-11.62 2.63,-2.6 3.85,-1.75 6.94,-6.04l4.42 -7.16c9.14,-17.77 -15.82,-36.66 -31.49,-21.14 -2.22,2.2 -3.39,4.65 -5.14,6.3 -0.22,0.2 -0.54,0.47 -0.77,0.66 -5.96,5.04 -14.89,9.15 -11.68,24.82 2.57,12.56 6.81,4.4 10.96,14.18z"/>
   <path class="fil4" d="M462.23 182.05c-4.02,1.66 -6.92,4.46 -7.21,12.74 -0.32,9.08 2.68,10.78 7.43,14.28 6.83,5.03 10.49,18.34 27.01,10.42 9.6,-4.6 11.48,-19.87 2.1,-27.12 -6.66,-5.16 -15.02,-16.24 -29.33,-10.32z"/>
   <path class="fil5" d="M19.92 406.76c5.78,6.66 -1.45,3.15 7.89,3.45 2.69,0.09 1.53,-1.38 6.26,0.13 6.2,1.99 4.23,5.33 9.31,6.38 -4.3,0.37 -8.51,1.54 -12.08,2.84 5.27,5.59 -3.17,3 7.76,3.28 0.78,0.02 4.16,-0.54 6.46,-0.44 -0.24,9.95 -6.14,12.29 -11.39,17.07l-7.12 0c0,-14.56 0.62,-4.61 -4.25,-8.53 0,3.56 -0.78,6.52 -0.87,8.18l0.2 2.55c5.49,18.02 33.66,20.84 38.52,2.15 5.37,-20.68 -10.18,-24.36 -12.29,-26.94 -3.4,-4.17 -1.85,-6.89 -9.15,-9.96 -7.14,-3 -12.99,-1.4 -19.25,-0.16z"/>
   <path class="fil2" d="M311.15 96.14c6.97,0.77 11.22,4.47 18.71,4.21 0.58,-0.54 -0.8,0.23 2.19,-1.64 2.71,-1.7 -1.42,0.69 1.73,-0.99 1.81,-0.97 3.27,-1.49 4.85,-2.25l25.82 -12.63c9,-4.15 34.44,-11.7 23.82,-22.09 -6.47,-3.27 -32.28,11.96 -39.07,15.33 -6.23,3.09 -34.27,14.95 -38.05,20.06z"/>
   <path class="fil2" d="M70.94 200.35c6.49,-5.25 5.01,-5.74 9.65,-13.08 3.24,-5.13 6.96,-9.2 8.75,-14.39 -12,7.62 -34.39,16.28 -48.88,24.02 -5.88,3.14 -9.32,8.31 -2.59,14.24 9.81,4.23 23.53,-9.5 33.07,-10.79z"/>
   <path class="fil2" d="M52.46 235.12c4.99,-4.48 6.86,-1.46 9.88,-7.88 1.52,-3.22 4.04,-10.86 4.8,-13.82 -12.49,4.55 -36.18,16.28 -48.53,22.83 -10.31,5.47 -7.11,17.93 8.95,10.3 8.26,-3.92 16.5,-8.52 24.9,-11.43z"/>
   <path class="fil4" d="M116.63 19.92l2.88 1.95c0.45,0.21 0.88,0.51 1.42,0.74l6.16 1.79c4.48,1.92 2.65,5.39 5.18,2.63 -4.99,0.4 -6.7,0.52 -9.59,3.1 -3.03,2.71 -2.43,3.91 -4.63,9.69 -0.72,-1.45 -1.95,-0.95 -2.93,-0.77l-2.52 0.77c3.27,5.21 4.81,4.34 7.21,6.75 4.12,4.14 0.44,4.44 6.74,6.76 16,5.9 23.06,-10.74 17.21,-20.62 -2.97,-5.02 -3.32,-2.38 -6.78,-6.1 -4.32,-4.65 -7.2,-11.82 -20.35,-6.69z"/>
   <path class="fil6" d="M73.5 91.02c19.38,-3.22 31.59,9 26,27.67 11.85,-6.72 20.28,-20.22 8.57,-33.32 -10.49,-11.76 -29.37,-9 -34.57,5.65z"/>
   <path class="fil6" d="M99.27 118.05c-16.63,5.5 -32.54,-9.34 -25.39,-26.81 -13.88,4.6 -19.01,20.6 -8.94,32.97 9.87,12.11 29.35,8.68 34.33,-6.16z"/>
   <path class="fil7" d="M439.36 122.23c5.57,-23.52 -20.05,-33.62 -27.09,-24.01 -4.2,5.73 -0.05,21.7 15.49,25.81 2.45,0.64 2.79,0.88 5.6,0.52l6 -2.32z"/>
   <path class="fil7" d="M73.5 91.02l0.38 0.22c-7.15,17.47 8.76,32.31 25.39,26.81l0.23 0.64c5.59,-18.67 -6.62,-30.89 -26,-27.67z"/>
   <polygon class="fil6" points="17.47,145.06 26.02,146.69 26.5,154.67 45.59,155.31 45.61,135.88 37.83,135.67 36.15,126.89 17.97,126.99 "/>
   <path class="fil6" d="M474.26 325.69c2.53,1.73 0.47,0.6 3.68,1.73 0.29,0.11 3.57,0.8 4.32,1.01l2.72 8.05 17.39 0.09 0.11 -18.86 -8.53 -0.93 -1.33 -7.35c-0.1,-0.26 -0.31,-0.72 -0.53,-1.04l-17.41 -0.11 -0.42 17.41z"/>
   <path class="fil2" d="M475.86 135.94c-5.07,2.75 -8.28,2.35 -11.88,6.28 4.12,1.79 9.05,-0.44 13.86,-1.58 2.18,7.89 2.04,9.29 6.45,12.43l-1.97 -13.84 8.9 -3.59c1.55,-0.95 1.49,-1.14 2.28,-1.95 -4.76,-1.89 -7.48,0.34 -12.79,0.88l-5.24 -11.79c-2.56,3.65 -0.84,8.61 0.39,13.16z"/>
   <path class="fil2" d="M184.13 70.43c-6.08,2.99 -7.93,1.59 -11.99,6.21l14.33 -1.46c0.46,2.01 0.89,4.36 1.89,6.66 1.77,4.07 1.38,2.96 4.09,4.92l-1.75 -14.09 11.9 -3.97c-4.33,-2.99 7.43,-2.19 -13.44,-0.27l-5.32 -11.78c-1.32,1.43 -2.14,1.22 -1.22,6.65 0.51,3 1.26,4.22 1.51,7.13z"/>
   <path class="fil2" d="M22.72 321.71l-9.32 3.25c-3.18,2.47 -0.01,-0.47 -2.5,2.94 5.49,-0.31 9.53,-1.52 13.28,-1.95l5.3 11.95c2.82,-4.18 0.18,-8.76 -0.65,-13.85l12.16 -4.85c-3.42,-2.68 -8.6,-0.41 -14.36,0.18 -0.51,-2.83 -0.4,-3.29 -1.57,-5.91l-4.29 -5.54 1.95 13.78z"/>
   <polygon class="fil6" points="439.36,122.23 0,0 "/>
  </g>
 </g>
</svg>
