<?xml version="1.0" encoding="UTF-8"?>
<!DOCTYPE svg PUBLIC "-//W3C//DTD SVG 1.1//EN" "http://www.w3.org/Graphics/SVG/1.1/DTD/svg11.dtd">
<!-- Creator: CorelDRAW 2021 (64-Bit) -->
<svg xmlns="http://www.w3.org/2000/svg" xml:space="preserve" width="512px" height="512px" version="1.1" style="shape-rendering:geometricPrecision; text-rendering:geometricPrecision; image-rendering:optimizeQuality; fill-rule:evenodd; clip-rule:evenodd"
viewBox="0 0 512 512"
 xmlns:xlink="http://www.w3.org/1999/xlink"
 xmlns:xodm="http://www.corel.com/coreldraw/odm/2003">
 <defs>
  <style type="text/css">
   <![CDATA[
    .fil3 {fill:#23242B}
    .fil0 {fill:#2D3946}
    .fil1 {fill:#C8C9CB}
    .fil2 {fill:#DEDFE1}
    .fil4 {fill:#FAFBFB}
   ]]>
  </style>
 </defs>
 <g id="Layer_x0020_1">
  <metadata id="CorelCorpID_0Corel-Layer"/>
  <g id="_2437075481984">
   <path class="fil0" d="M51.53 470.15c34.79,-1.25 72.07,-0.02 107.14,-0.02l265.82 0.08c10.71,0.01 43.4,1.21 51.66,-0.69 1.12,-35.92 0.21,-80.9 0.28,-118.64l0.07 -12.3c-0.49,-4.66 0.31,-1.52 -1.04,-2.94l-0.26 24.24c-5.99,0.19 -11.54,0.33 -17.2,0.7l-15.4 0.83c-0.93,4.31 -1.53,2.1 1.17,4.38l1.98 1.38c3,-2.18 7.44,-4.05 11.51,-4.03 -1.92,0.51 -3.85,0.76 -4.81,2.46 0.23,0.14 0.55,0.23 0.77,0.31l9.03 1.97c5.79,-0.75 3.09,-1.64 3.22,-2.4 0.57,-3.44 0.86,0.19 -0.52,-1.36 -2.37,-2.65 -0.73,-0.56 -1.31,-0.16 1.85,-0.49 2.83,-0.81 5.46,-0.86 0,0.01 -1.77,0.77 -0.45,3.31 4.15,-1.05 6.55,-4.7 6.55,0.41 -11.73,1.77 -31.59,2.87 -42.53,2.87 0.15,6.24 1.44,6.31 2.87,11.13 4.2,-0.63 2.22,-0.85 4.5,-1.17 0.21,-0.03 0.79,-0.04 1.01,-0.07 14.43,-2.34 12.35,-0.52 24.34,-0.46 4.48,0.02 4.99,-1.61 9.81,-0.26l0 89.79c3.85,-1.46 -3.5,-3.12 0.74,-3.37 -0.37,-24.23 -0.64,-48.28 -1,-73.36 -2.15,2.11 -1.04,-0.84 -1.99,3.9l-0.01 9.2c1.49,-2.83 0.08,-20.88 -0.13,-25.55l-1.83 3.2c-4.51,-2.59 -3.5,0.62 -8.82,0.8 -3.41,0.12 -7.85,-1.03 -10.92,0.94 1.47,3.23 -0.46,0.84 2.19,1.4 0.12,0.02 0.33,-0.48 1.94,-0.04 -12.74,3.23 -6.42,-2.05 -12.81,-0.81 -7.56,1.47 -4.64,3.56 -4.5,10.61 -0.65,0.36 -1.94,0.86 -2.65,1.32 -1.51,0.96 -0.64,0.38 -1.43,1.06 -1.97,1.71 -2.57,0.96 -2.33,7.17l-4.09 1.21c1.94,2.36 -0.75,-0.51 1.25,1.57l2.71 1.87c1.1,3.33 0.71,5.48 0.69,9.15l-8.9 -0.49 -0.01 -8.22c-3.91,-0.44 -0.93,0.12 -2.94,0.83l-3.22 0.3c-0.05,-0.15 -0.34,0 -0.49,0.06 -0.28,1.36 -0.18,2.4 -0.43,4.09l-0.93 3.14 -8.94 0.07 -0.04 -8.9 8.99 0.31c-1.1,-1.35 1.92,-1 -2.33,-1.39 4.48,-2.31 2.1,1.62 3.61,-2.57 -1.44,-0.42 -0.35,0.04 -1.55,-0.22l-1 -0.27c-5.58,-1.53 -2.32,-1.09 -3.42,-0.21 -1,0.8 0.08,0.8 -0.85,2.51 -3.19,-6.47 -4.28,-1.12 -6.54,1.54 -1.33,-2.79 1.63,-0.6 -1.11,-5.7 -0.95,-1.77 0.1,-0.15 -0.92,-1.4 4.24,-1.23 1.85,2.31 3.17,-2.73 -3.31,-1.82 0.23,-2.14 -5.34,-1.25 0.3,-1.63 0.75,-2.65 -0.4,-4.45 -0.14,-0.22 -0.69,-0.74 -0.89,-0.91 -1.16,-0.96 -3.41,-1.61 -5.22,-1.87 -5.81,-0.83 -6.57,0.47 -7.54,5.49 -0.66,-2.14 0.32,-2.86 1.05,-5.73 -1.62,-2.64 2.22,-0.62 -2.92,-2.45 2.53,-1.98 1.07,0.45 2.19,-2.84l-5.38 0.13c2.38,-0.96 3.09,-2.02 0.1,-3.53 -2.7,-1.36 -2.84,0.43 -3.78,2.15l-0.65 -1.11c-2.65,-2.96 -5.1,0.4 -5.54,1.85l-0.16 1.04c-1.62,8.84 0.42,6.98 0.45,7 -3.67,-0.2 -1.94,0.56 -1.72,-2.62 0.03,-0.45 1.11,-2.35 -0.56,-5.17 -0.01,0 -1.15,-0.56 -2.44,3.49 -0.53,1.65 -0.48,2.35 -0.79,4.51 2.12,0.8 1.87,0.87 3.26,2.41l5.94 6.34c0.12,0.1 0.35,0.26 0.46,0.34 0.08,0.05 1.34,0.59 1.57,0.73 -3.88,2.51 -2.57,-1.81 -3.28,3.27 -1.71,-3.23 0.86,-1.47 -2.81,-2.75 -3.85,-1.35 -3.2,1.1 -8.76,-2.7 -1.42,-0.97 -1.63,-0.89 -2.82,-1.91l1.72 -7.03c0.36,-1.16 0.52,-0.44 0.21,-1.46 -2.62,-0.71 -1.85,1.65 -6.16,2.47l-1.64 -4.12c-9.09,0 -4.93,-0.17 -12.27,-3.18l4.09 -1.4c-1.39,-3.98 -0.08,-0.78 -1.65,-2.31l-4.89 -1.78c1.26,9.32 -2.2,0.79 -0.09,9.32l0.18 1.82c0,0.06 -0.01,0.3 -0.02,0.35 0,0.06 0.2,0.34 -0.07,1.12 -5.16,-0.08 -13.69,0.08 -15.88,-0.78 0.33,-6.65 1.97,-1.61 1.97,-12.64 -4.82,0.73 -6.12,2.65 -10.4,6.8 -2.16,2.09 -1.65,2.29 -4.48,1.69 -5.09,-1.09 3.12,-0.8 -1.4,-0.4 -2.05,0.18 -5.06,6.68 -5.49,8.56l-1.94 -3.23 -7.27 1.47c-5.53,1.93 -13.13,-4.31 -16.73,-8.56 3.2,1.5 4.09,3.21 7.64,3.42 3.58,-4.26 2.7,-12.09 4.27,-14.32 1.11,-3.23 -0.93,-0.28 3.25,-2.6 3.84,-2.14 5.11,-2.22 5.44,-4.73 0.59,-4.41 2.44,3.56 -0.53,-2.03 -0.86,-4.81 -0.24,-0.57 -3.35,-3.25l-2.26 -2.82c-0.11,-0.14 -0.4,-0.21 -0.48,-0.55 -0.08,-0.35 -0.33,-0.37 -0.5,-0.55l-7.92 10.46c-1.86,0.55 0.35,0.99 -1.3,-0.06 -0.91,-0.58 -0.19,-1.16 -0.22,-1.18l-1.79 4.51c-0.55,6.17 0.14,1.47 -1.33,3.16 -0.17,0.18 -0.76,0.56 -0.93,0.71l-3.39 3.93c-0.06,-0.14 -0.27,0.32 -0.41,0.47 -2.49,-1.85 -1.38,-1.63 -4.13,-2.87 0.53,4.18 0.33,3.06 2.73,5.04 1.28,1.05 -0.06,-0.19 1.36,1.12l2.24 2.34c-0.13,0.14 -0.38,0.25 -0.48,0.3 -2.71,1.64 -7.15,4.11 -8.58,6.7 -0.91,1.66 -0.98,1.51 -1.23,3.71 -3.86,-0.34 -1.91,-0.6 -2.99,-0.8l-0.77 -0.08c-0.04,0 -0.52,0 -0.65,-0.03l-3.22 -1.62 5.18 -10.69c0.11,-0.2 0.27,-0.5 0.36,-0.66l0.69 -1.45c-2.56,0.52 -5.39,1.12 -7.5,1.94l-0.61 -7.5c-1.21,1.18 -1.76,1.28 -2.14,4.57 -0.88,7.57 -1.85,8.1 -1.84,12.75 -1.97,-1.15 -3.91,-0.71 -6.89,-0.64l-0.23 -13.86c0.15,-0.08 0.41,-0.12 0.5,-0.14 0.08,-0.02 0.39,-0.1 0.49,-0.13l0.95 -0.2c0.62,-0.13 0.95,-0.08 1.3,-0.24 -0.58,-0.45 -4.19,-1.51 -1.56,-5.42 0.07,-0.11 0.3,-0.38 0.37,-0.47 0.08,-0.11 0.39,-0.22 0.46,-0.54 0.07,-0.34 0.35,-0.37 0.5,-0.57 -2.74,-0.78 -0.51,0.4 -2.19,-1.18 -1.79,-1.69 -0.44,-0.34 -0.4,-1.35 0.17,-5.04 0.32,-2.29 -0.4,-2.11 1.26,-0.28 2.35,0.14 4.14,0.57 0,-0.9 0.26,-2.5 0.32,-2.98 0.36,-3.11 -1.44,-2.75 1.31,-2.67 0,-8.26 3.71,-30.71 2.95,-34.04 -1.04,-4.58 -3.15,-3.37 -5.58,-5.83 1.11,-3.74 1.14,-2.21 -0.01,-5.97l-3.08 -0.34c-0.4,1.1 0.34,2.1 -3.21,4.6 -1.25,0.89 -2.44,0.84 -3.25,4.12 -0.05,0.21 -0.65,2.45 -0.75,2.69l-0.89 2.05c-0.78,2.74 1.08,1.76 -2.52,5.71l-1.24 1.09c2.72,0.07 3.18,0.83 4.5,2.46l-5.57 1.27c-0.16,-0.22 -0.54,0.19 -0.76,0.37 1.99,2.56 3.48,2.29 4.87,4.32l-13.63 0.08c-0.12,-0.27 -0.43,-0.18 -0.61,-0.32 1.08,-2.08 1.65,-1.92 4.46,-3.33l-6.21 -0.44c-0.16,-3.46 1.4,-4.32 0.33,-8.3 -0.9,-3.33 -2,-2.44 -2.32,-6.95l-4.25 -1.42c0.31,-2.93 0.93,-8.2 2.97,-9.9 0.57,-3.19 1.1,-2.81 1.53,-6.15l2.89 -0.65c0.15,-0.32 0.5,-0.24 0.75,-0.36 -1.88,-0.3 -1.01,0.96 -2.75,-0.94l5.35 -17.85c0.84,-2.92 0.4,-5.06 2.83,-3.94 -0.36,-0.39 -0.47,-0.66 -0.42,-1.15 0.02,-0.17 0.47,-0.25 0.5,-0.66 0.05,-0.55 0.58,-0.47 0.87,-0.7 -1.71,-2.63 -0.66,-3.9 0.42,-7.19 6.03,-18.33 29.28,-96.92 31.98,-100.59l-0.15 -13.3 3.66 -0.13 12.94 -41.61 2.03 -5.39 22.9 -0.19c1.09,-1.61 1.89,-2 2.55,-4.66l-23.41 -0.12c-0.83,-2.78 0.39,-4.67 1.53,-7.64l12.47 -39.21c1.77,-5.32 2.47,-3.37 3.5,-3.95 0.97,-0.56 0.81,-0.09 1.53,-1.79l2.04 3.27c0.73,-2.22 -0.21,-1.16 2.25,-1.67l10.48 0.04c0.39,4.08 1.18,3.88 0.45,9.08 -0.4,2.81 -1.22,7.34 0.52,9.72l2.14 -6.26c2.23,-9.19 11.57,-35.79 12.11,-40.11 -35.36,1.31 -285.87,-1.49 -293.77,0.72l0.32 440.17 15.84 0.19z"/>
   <path class="fil1" d="M188.63 495.56c-1.46,-3.27 -2.26,-4.79 -1.4,-8.81 0.76,-3.51 2.23,-3.76 3.34,-6.05l-1.62 -2.28c1.91,3.49 -3.17,3.73 -1.82,-0.09 -0.92,2.21 -0.61,1.27 -1.91,3.03 -0.19,-0.17 -0.41,-0.74 -0.51,-0.56 -0.4,0.69 0.47,-0.65 -2.05,-1.53 -1.58,-0.55 -116.1,0.62 -122.18,-0.39l-8.16 -1.64c-4.17,-0.68 -1.34,-0.13 -3.71,-1.47l-3.11 -1.65c-2.06,-1.42 -1.77,-0.82 -2.8,-3.48l8.83 -0.49 -15.84 -0.19 -0.32 -440.17c7.9,-2.21 258.41,0.59 293.77,-0.72l6.51 -0.06 140.15 0.26 0.44 0.26c8.55,0.71 10.75,1.01 14.55,13.47 3.53,11.6 2.53,12.82 1.88,25.65 -1.58,31.1 0.69,83.81 0.69,117.83l-0.71 98.85c-0.66,4.37 -2.49,-0.72 -2.36,9.09l-0.07 126.79c-0.01,7.07 1.06,27.86 -0.76,33.29 -0.07,0.2 -0.18,0.39 -0.24,0.59 -0.07,0.21 -0.16,0.4 -0.23,0.63 -1.15,4.29 0.92,7.29 -3.18,12.09 -2.72,3.18 -1.85,0.21 -2.17,6.57 -0.39,0.14 -1.37,0.44 -1.87,0.71 -0.13,0.07 -0.36,0.2 -0.5,0.28 -0.14,0.09 -0.35,0.23 -0.5,0.33l-1.94 1.49c-1.86,1.87 -1.56,2.03 -1.72,4.01 -6.71,0.26 -3.49,1.77 -7.63,3.63 -3.1,1.39 -8.16,0.72 -11.73,0.81 0.69,2.11 -2.01,2.45 2.21,2.1 -27.62,2.65 -92.29,0.03 -127.98,0.73 -0.28,0 -3.66,-0.02 -3.68,-0.03 -3.58,-0.88 0.58,1.38 -1.79,-1.21 -0.11,-0.12 -0.28,-0.43 -0.37,-0.53 -0.09,-0.12 -0.22,-0.4 -0.36,-0.58 0.4,2.17 0.7,1.96 -0.1,4.68l-0.82 1.57 -2.48 5.44c1.6,0.4 1.17,-0.12 1.13,1.7l-3.42 1.45c2.8,-0.6 1.62,0.17 5.7,-0.18l13.42 0.64c0.21,0.06 0.4,0.16 0.61,0.23 8.51,2.87 31.18,0.07 43.78,1.06 3.72,0.29 8.43,1.39 12.28,1.6 8.97,0.48 19.47,0 28.61,0l0.56 1.39c0.08,0.18 0.4,1.06 0.52,1.26 1.09,1.83 -3.02,1.46 10.37,1.44 5.29,-0.01 10.58,0 15.87,0l6.54 1.63 0 1.97 53.65 0 0 -512 -420.06 0 0 1.97 -33.05 0 0.29 4.91c-4.83,0 -7.9,1.09 -11.66,0.73 -3.74,-0.37 -6.16,-0.77 -11.2,-0.7 -0.28,2.95 -1.68,4.49 -4.03,5.81 -1.37,0.77 -0.98,0.37 -1.77,0.77l-1.07 0.58c-2.02,1.29 -0.69,1.39 -2.89,1.77 -1.74,0.29 0.02,-4.2 -3.65,3.7 -1.2,2.56 -3.3,7.14 -3.61,0.46l-1.79 0c0,2.13 0.19,3.1 -0.39,5.1l-0.48 1.21c-0.07,0.19 -0.18,0.38 -0.25,0.57 -0.55,1.69 -0.34,0.1 -0.52,2.59 -0.87,11.97 -1.4,4.91 -2.34,9.99 -0.47,2.57 0.24,2.73 -0.8,5.89l-0.71 1.72c-0.9,3.2 -0.53,48.03 0.19,50.41l1.23 5.33c0.06,0.2 0.11,0.43 0.18,0.61l1.99 2.91 -0.01 22.06c-0.9,6.32 -0.9,-3 -1.51,12.31 -0.4,10.06 -2.26,90.14 0.3,94.43l1.03 1.51c1.17,2.89 -0.2,5.71 -0.37,8.75 -0.63,11.37 0.09,24.4 -0.02,36 -0.06,5.73 -0.1,3.52 0.98,6.95 2.15,6.86 -1.66,103.88 0.23,116.89 3.31,22.77 -1.63,37.15 2.6,59.45 0.3,1.56 1.37,3.3 2.27,5.93 2.21,6.49 1.46,7.11 6.64,11.13 5.37,4.15 -0.91,1.83 7.18,5.84 3.55,1.75 0.86,1.05 4.07,3.36 5.16,3.71 6.89,1.41 11.78,2.75 4.39,1.19 11.52,0.73 17.1,0.73 6.84,-0.01 11.1,0.82 17.15,0.8l76.86 0.21c5.22,1.14 -1.58,1.4 12.32,1.41l11.6 -0.24c0.12,-0.01 0.37,0.01 0.49,0l2.33 -1.04z"/>
   <path class="fil2" d="M0 512l458.35 0 0 -1.97 -6.54 -1.63c-5.29,0 -10.58,-0.01 -15.87,0 -13.39,0.02 -9.28,0.39 -10.37,-1.44 -0.12,-0.2 -0.44,-1.08 -0.52,-1.26l-0.56 -1.39c-9.14,0 -19.64,0.48 -28.61,0 -3.85,-0.21 -8.56,-1.31 -12.28,-1.6 -12.6,-0.99 -35.27,1.81 -43.78,-1.06 -0.21,-0.07 -0.4,-0.17 -0.61,-0.23l-13.42 -0.64c-4.08,0.35 -2.9,-0.42 -5.7,0.18l3.42 -1.45c0.04,-1.82 0.47,-1.3 -1.13,-1.7 -5.83,2.15 -4.8,3 -14.03,2.96 -6,-0.02 -12,-0.01 -18,-0.01 -11.99,0 -23.99,-0.01 -35.99,-0.01 -11.72,0 -23.44,0 -35.17,0 -11.25,0 -25.72,2.33 -30.56,-5.19l-2.33 1.04c-0.12,0.01 -0.37,-0.01 -0.49,0l-11.6 0.24c-13.9,-0.01 -7.1,-0.27 -12.32,-1.41l-76.86 -0.21c-6.05,0.02 -10.31,-0.81 -17.15,-0.8 -5.58,0 -12.71,0.46 -17.1,-0.73 -4.89,-1.34 -6.62,0.96 -11.78,-2.75 -3.21,-2.31 -0.52,-1.61 -4.07,-3.36 -8.09,-4.01 -1.81,-1.69 -7.18,-5.84 -5.18,-4.02 -4.43,-4.64 -6.64,-11.13 -0.9,-2.63 -1.97,-4.37 -2.27,-5.93 -4.23,-22.3 0.71,-36.68 -2.6,-59.45 -1.89,-13.01 1.92,-110.03 -0.23,-116.89 -1.08,-3.43 -1.04,-1.22 -0.98,-6.95 0.11,-11.6 -0.61,-24.63 0.02,-36 0.17,-3.04 1.54,-5.86 0.37,-8.75l-1.03 -1.51c-2.56,-4.29 -0.7,-84.37 -0.3,-94.43 0.61,-15.31 0.61,-5.99 1.51,-12.31l0.01 -22.06 -1.99 -2.91c-0.07,-0.18 -0.12,-0.41 -0.18,-0.61l-1.23 -5.33c-0.72,-2.38 -1.09,-47.21 -0.19,-50.41l0.71 -1.72c1.04,-3.16 0.33,-3.32 0.8,-5.89 0.94,-5.08 1.47,1.98 2.34,-9.99 0.18,-2.49 -0.03,-0.9 0.52,-2.59 0.07,-0.19 0.18,-0.38 0.25,-0.57l0.48 -1.21c0.58,-2 0.39,-2.97 0.39,-5.1l1.79 0c0.31,6.68 2.41,2.1 3.61,-0.46 3.67,-7.9 1.91,-3.41 3.65,-3.7 2.2,-0.38 0.87,-0.48 2.89,-1.77l1.07 -0.58c0.79,-0.4 0.4,0 1.77,-0.77 2.35,-1.32 3.75,-2.86 4.03,-5.81 5.04,-0.07 7.46,0.33 11.2,0.7 3.76,0.36 6.83,-0.73 11.66,-0.73l-0.29 -4.91 33.05 0 0 -1.97 -91.94 0 0 512z"/>
   <path class="fil3" d="M393.4 331.54l-1.66 0.28c-0.28,0.03 -0.5,0.06 -0.81,0.09 -3.25,0.29 -3.15,-0.26 -7.1,0.97l-25.22 4.89c-6.88,0.66 -13.68,0.05 -19.12,1.35 -4.37,1.03 -14.11,1.68 -19.35,1.64l-9.55 0.02c-3.8,-2.42 -14.28,1.18 -15.97,-5.62 -1.03,-4.12 0.77,-1.69 -0.21,-6.37 3.14,-0.14 5.35,-0.38 6.48,-3.27 -1.69,-1.07 0.64,-0.44 -2.9,-0.93 -4.98,-0.7 -3.44,2.42 -8.52,2.87 -0.05,-6.48 -0.68,-1.27 1.38,-3.32 2.47,-2.45 16.33,-7.1 17.22,-7.56 1.93,5.36 8.17,2.69 12.54,2.39 -0.65,-1.2 -0.44,-3.12 -4.64,-4.48 -2.29,-0.74 -3.4,-0.42 -5.75,-1.24 1.79,-2.86 4.87,-3.83 5.93,-7.18 -3.36,-0.22 -5.83,1.92 -9.23,3.55 -5.09,2.43 -1.39,3.47 -8.24,5.16l1.14 -3.28c-3.92,1.94 -1.24,1.34 -1.94,2.71 -0.97,1.9 -3.49,5.62 -5.89,4.77 -1.91,-1.63 -2.83,-3.02 -2.45,-6.91 -1.57,3.74 -0.41,2.52 -0.25,6.12 0.21,5.07 -0.92,5.05 -0.93,5.08 -1.11,2.93 0.63,4.18 -0.53,7.98 -1.35,0.59 -1.15,1.22 -2.5,-0.66 -0.17,-6.05 -1.64,-9.68 -1.45,-15.02 -3.91,-1.29 -2.61,-1.56 -4.16,-4.93 -0.09,0.16 -1.29,2.63 -1.36,2.71 -1.37,1.68 0.35,0.8 -2.24,1.69 -0.1,-5.76 0.37,-8.12 -2.08,-12.29 -3.67,-0.93 -2.08,-0.72 -5.78,0.06 -0.7,-4.89 -4.05,-5.74 -8.17,-7.36 -16.63,-1.73 -8.68,7.27 -8.07,8.81 -2.96,2.28 -1.94,2.25 -1.95,2.28 -1.65,-0.62 -1.04,-0.56 -2.67,-1.12 -7.52,-2.57 -4.86,-0.95 -8.04,-1.65 -2.95,-15.82 -3.87,-14.22 -12.16,-23 -0.29,0.23 -0.82,0.15 -0.87,0.7 -0.03,0.41 -0.48,0.49 -0.5,0.66 -0.05,0.49 0.06,0.76 0.42,1.15 13.49,13.66 7.58,9.44 10.55,18.3 -5.88,0.16 -2.6,-1.9 -8.98,0.31 0.93,2.57 1.28,1.86 2.04,4.69 -3.87,-1.88 -4.02,-1.32 -9.04,-0.57 -0.25,0.12 -0.6,0.04 -0.75,0.36l-2.89 0.65c-0.43,3.34 -0.96,2.96 -1.53,6.15 -2.04,1.7 -2.66,6.97 -2.97,9.9l4.25 1.42c0.32,4.51 1.42,3.62 2.32,6.95 1.07,3.98 -0.49,4.84 -0.33,8.3l6.21 0.44c-2.81,1.41 -3.38,1.25 -4.46,3.33 0.18,0.14 0.49,0.05 0.61,0.32l13.63 -0.08c-1.39,-2.03 -2.88,-1.76 -4.87,-4.32 0.22,-0.18 0.6,-0.59 0.76,-0.37l5.57 -1.27c-1.32,-1.63 -1.78,-2.39 -4.5,-2.46l1.24 -1.09c3.6,-3.95 1.74,-2.97 2.52,-5.71l0.89 -2.05c0.1,-0.24 0.7,-2.48 0.75,-2.69 0.81,-3.28 2,-3.23 3.25,-4.12 3.55,-2.5 2.81,-3.5 3.21,-4.6l3.08 0.34c1.15,3.76 1.12,2.23 0.01,5.97 2.43,2.46 4.54,1.25 5.58,5.83 0.76,3.33 -2.95,25.78 -2.95,34.04 -2.75,-0.08 -0.95,-0.44 -1.31,2.67 -0.06,0.48 -0.32,2.08 -0.32,2.98 -1.79,-0.43 -2.88,-0.85 -4.14,-0.57 0.72,-0.18 0.57,-2.93 0.4,2.11 -0.04,1.01 -1.39,-0.34 0.4,1.35 1.68,1.58 -0.55,0.4 2.19,1.18 -0.15,0.2 -0.43,0.23 -0.5,0.57 -0.07,0.32 -0.38,0.43 -0.46,0.54 -0.07,0.09 -0.3,0.36 -0.37,0.47 -2.63,3.91 0.98,4.97 1.56,5.42 -0.35,0.16 -0.68,0.11 -1.3,0.24l-0.95 0.2c-0.1,0.03 -0.41,0.11 -0.49,0.13 -0.09,0.02 -0.35,0.06 -0.5,0.14l0.23 13.86c2.98,-0.07 4.92,-0.51 6.89,0.64 -0.01,-4.65 0.96,-5.18 1.84,-12.75 0.38,-3.29 0.93,-3.39 2.14,-4.57l0.61 7.5c2.11,-0.82 4.94,-1.42 7.5,-1.94l-0.69 1.45c-0.09,0.16 -0.25,0.46 -0.36,0.66l-5.18 10.69 3.22 1.62c0.13,0.03 0.61,0.03 0.65,0.03l0.77 0.08c1.08,0.2 -0.87,0.46 2.99,0.8 0.25,-2.2 0.32,-2.05 1.23,-3.71 1.43,-2.59 5.87,-5.06 8.58,-6.7 0.1,-0.05 0.35,-0.16 0.48,-0.3l-2.24 -2.34c-1.42,-1.31 -0.08,-0.07 -1.36,-1.12 -2.4,-1.98 -2.2,-0.86 -2.73,-5.04 2.75,1.24 1.64,1.02 4.13,2.87 0.14,-0.15 0.35,-0.61 0.41,-0.47l3.39 -3.93c0.17,-0.15 0.76,-0.53 0.93,-0.71 1.47,-1.69 0.78,3.01 1.33,-3.16l1.79 -4.51c0.03,0.02 -0.69,0.6 0.22,1.18 1.65,1.05 -0.56,0.61 1.3,0.06l7.92 -10.46c0.17,0.18 0.42,0.2 0.5,0.55 0.08,0.34 0.37,0.41 0.48,0.55l2.26 2.82c3.11,2.68 2.49,-1.56 3.35,3.25 2.97,5.59 1.12,-2.38 0.53,2.03 -0.33,2.51 -1.6,2.59 -5.44,4.73 -4.18,2.32 -2.14,-0.63 -3.25,2.6 -1.57,2.23 -0.69,10.06 -4.27,14.32 -3.55,-0.21 -4.44,-1.92 -7.64,-3.42 3.6,4.25 11.2,10.49 16.73,8.56l7.27 -1.47 1.94 3.23c0.43,-1.88 3.44,-8.38 5.49,-8.56 4.52,-0.4 -3.69,-0.69 1.4,0.4 2.83,0.6 2.32,0.4 4.48,-1.69 4.28,-4.15 5.58,-6.07 10.4,-6.8 0,11.03 -1.64,5.99 -1.97,12.64 2.19,0.86 10.72,0.7 15.88,0.78 0.27,-0.78 0.07,-1.06 0.07,-1.12 0.01,-0.05 0.02,-0.29 0.02,-0.35l-0.18 -1.82c-2.11,-8.53 1.35,0 0.09,-9.32l4.89 1.78c1.57,1.53 0.26,-1.67 1.65,2.31l-4.09 1.4c7.34,3.01 3.18,3.18 12.27,3.18l1.64 4.12c4.31,-0.82 3.54,-3.18 6.16,-2.47 0.31,1.02 0.15,0.3 -0.21,1.46l-1.72 7.03c1.19,1.02 1.4,0.94 2.82,1.91 5.56,3.8 4.91,1.35 8.76,2.7 3.67,1.28 1.1,-0.48 2.81,2.75 0.71,-5.08 -0.6,-0.76 3.28,-3.27 -0.23,-0.14 -1.49,-0.68 -1.57,-0.73 -0.11,-0.08 -0.34,-0.24 -0.46,-0.34l-5.94 -6.34c-1.39,-1.54 -1.14,-1.61 -3.26,-2.41 0.31,-2.16 0.26,-2.86 0.79,-4.51 1.29,-4.05 2.43,-3.49 2.44,-3.49 1.67,2.82 0.59,4.72 0.56,5.17 -0.22,3.18 -1.95,2.42 1.72,2.62 -0.03,-0.02 -2.07,1.84 -0.45,-7l0.16 -1.04c0.44,-1.45 2.89,-4.81 5.54,-1.85l0.65 1.11c0.94,-1.72 1.08,-3.51 3.78,-2.15 2.99,1.51 2.28,2.57 -0.1,3.53l5.38 -0.13c-1.12,3.29 0.34,0.86 -2.19,2.84 5.14,1.83 1.3,-0.19 2.92,2.45 -0.73,2.87 -1.71,3.59 -1.05,5.73 0.97,-5.02 1.73,-6.32 7.54,-5.49 1.81,0.26 4.06,0.91 5.22,1.87 0.2,0.17 0.75,0.69 0.89,0.91 1.15,1.8 0.7,2.82 0.4,4.45 5.57,-0.89 2.03,-0.57 5.34,1.25 -1.32,5.04 1.07,1.5 -3.17,2.73 1.02,1.25 -0.03,-0.37 0.92,1.4 2.74,5.1 -0.22,2.91 1.11,5.7 2.26,-2.66 3.35,-8.01 6.54,-1.54 0.93,-1.71 -0.15,-1.71 0.85,-2.51 1.1,-0.88 -2.16,-1.32 3.42,0.21l1 0.27c1.2,0.26 0.11,-0.2 1.55,0.22 -1.51,4.19 0.87,0.26 -3.61,2.57 4.25,0.39 1.23,0.04 2.33,1.39l-0.01 8.52 0.93 -3.14c0.25,-1.69 0.15,-2.73 0.43,-4.09 0.15,-0.06 0.44,-0.21 0.49,-0.06l3.22 -0.3c2.01,-0.71 -0.97,-1.27 2.94,-0.83l8.22 -0.44 -2.71 -1.87c-2,-2.08 0.69,0.79 -1.25,-1.57l4.09 -1.21c-0.24,-6.21 0.36,-5.46 2.33,-7.17 0.79,-0.68 -0.08,-0.1 1.43,-1.06 0.71,-0.46 2,-0.96 2.65,-1.32 -0.14,-7.05 -3.06,-9.14 4.5,-10.61 6.39,-1.24 0.07,4.04 12.81,0.81 -1.61,-0.44 -1.82,0.06 -1.94,0.04 -2.65,-0.56 -0.72,1.83 -2.19,-1.4 3.07,-1.97 7.51,-0.82 10.92,-0.94 5.32,-0.18 4.31,-3.39 8.82,-0.8l1.83 -3.2c0.21,4.67 1.62,22.72 0.13,25.55l0.01 -9.2c0.95,-4.74 -0.16,-1.79 1.99,-3.9 0.36,25.08 0.63,49.13 1,73.36 -4.24,0.25 3.11,1.91 -0.74,3.37l0 -89.79c-4.82,-1.35 -5.33,0.28 -9.81,0.26 -11.99,-0.06 -9.91,-1.88 -24.34,0.46 -0.22,0.03 -0.8,0.04 -1.01,0.07 -2.28,0.32 -0.3,0.54 -4.5,1.17 -1.43,-4.82 -2.72,-4.89 -2.87,-11.13 10.94,0 30.8,-1.1 42.53,-2.87 0,-5.11 -2.4,-1.46 -6.55,-0.41 -1.32,-2.54 0.45,-3.3 0.45,-3.31 -2.63,0.05 -3.61,0.37 -5.46,0.86 0.58,-0.4 -1.06,-2.49 1.31,0.16 1.38,1.55 1.09,-2.08 0.52,1.36 -0.13,0.76 2.57,1.65 -3.22,2.4l-9.03 -1.97c-0.22,-0.08 -0.54,-0.17 -0.77,-0.31 0.96,-1.7 2.89,-1.95 4.81,-2.46 -4.07,-0.02 -8.51,1.85 -11.51,4.03l-1.98 -1.38c-2.7,-2.28 -2.1,-0.07 -1.17,-4.38l15.4 -0.83c5.66,-0.37 11.21,-0.51 17.2,-0.7l0.26 -24.24c-0.98,-1 2.21,-0.78 -3.06,-0.85l1.33 -0.75c1.91,-1.24 1.04,0.07 1.98,-1.63 0.8,-1.43 0.47,-2.21 0.48,-4.04 -14.56,0.74 -28.08,-0.38 -42.08,1.31 -10.46,1.27 -32.87,-0.5 -40.71,1.86zm-109.28 13.11l1.2 6.17c-0.3,0.83 -0.7,1.61 -0.96,1.97 -0.07,0.1 -0.13,0.16 -0.17,0.19 -2.94,1.92 1.03,0.07 0.17,-0.19 -0.18,-0.05 -0.57,-0.03 -1.29,0.1l-0.06 0.02c-1,0.19 -0.15,1.34 0.06,-0.02 0.08,-0.5 0.08,-1.36 -0.15,-2.74 -0.39,-2.4 0.49,-0.29 -0.65,-2.01 -6.25,8.82 2.19,9.47 -3.95,14.83 0.78,-2.03 1.9,-4.19 1.61,-6.31 -0.56,-4.14 -0.04,-1.28 -1.09,-2.59 -0.89,2.05 -1.01,3.49 -1.09,6.4 -0.49,-5.04 0.63,-1.71 -2.05,-2.16l-0.92 4.02c-0.14,0.02 -0.28,-0.23 -0.3,-0.14 -0.12,0.48 -0.94,-1.53 -2.24,0.7 -1.04,1.77 -0.94,3.88 -0.88,5.82 -8.39,-0.61 -4.26,-3.31 -11.37,-14.2l-0.64 -0.95c-1.75,-3.14 -0.51,-6 -2.24,-11.3 4.89,-0.59 1.67,-1.35 6.14,-1.82l2.25 -0.08c3.91,-0.42 8.82,0.21 12.99,1.2 2.94,0.7 5.39,1.41 5.63,3.09z"/>
   <path class="fil3" d="M190.57 480.7c-1.11,2.29 -2.58,2.54 -3.34,6.05 -0.86,4.02 -0.06,5.54 1.4,8.81 4.84,7.52 19.31,5.19 30.56,5.19 11.73,0 23.45,0 35.17,0 12,0 24,0.01 35.99,0.01 6,0 12,-0.01 18,0.01 9.23,0.04 8.2,-0.81 14.03,-2.96l2.48 -5.44c0.83,-15.83 -11.34,-13.88 -24.69,-13.88l-74.43 0.01c-11.43,0.01 -25.77,-1.59 -35.17,2.2z"/>
   <path class="fil0" d="M154.77 220.01c3.44,0.68 7.05,0.22 9.93,-0.56 1.44,-3.88 1.55,-3.94 0.03,-7.83 -2.81,-0.89 -6.45,-1.35 -9.98,-0.66l0.02 9.05z"/>
   <path class="fil4" d="M431.52 409.77l-8.22 0.44 0.01 8.22 8.9 0.49c0.02,-3.67 0.41,-5.82 -0.69,-9.15zm-42 8.84l8.87 0.19 0.08 -8.94 -8.89 0.07 -0.06 8.68zm25.77 0.02l0.01 -8.52 -8.99 -0.31 0.04 8.9 8.94 -0.07z"/>
  </g>
 </g>
</svg>
