<?xml version="1.0" encoding="UTF-8"?>
<!DOCTYPE svg PUBLIC "-//W3C//DTD SVG 1.1//EN" "http://www.w3.org/Graphics/SVG/1.1/DTD/svg11.dtd">
<!-- Creator: CorelDRAW 2021 (64-Bit) -->
<svg xmlns="http://www.w3.org/2000/svg" xml:space="preserve" width="512px" height="512px" version="1.1" style="shape-rendering:geometricPrecision; text-rendering:geometricPrecision; image-rendering:optimizeQuality; fill-rule:evenodd; clip-rule:evenodd"
viewBox="0 0 512 512"
 xmlns:xlink="http://www.w3.org/1999/xlink"
 xmlns:xodm="http://www.corel.com/coreldraw/odm/2003">
 <defs>
  <style type="text/css">
   <![CDATA[
    .fil3 {fill:#00FDFE}
    .fil0 {fill:#0746B1}
    .fil5 {fill:#0A55EB}
    .fil1 {fill:#F8FA05}
    .fil6 {fill:#FDFD00}
    .fil2 {fill:#FDFDFE}
    .fil4 {fill:#FEFF00}
   ]]>
  </style>
 </defs>
 <g id="Layer_x0020_1">
  <metadata id="CorelCorpID_0Corel-Layer"/>
  <g id="_2436521983984">
   <path class="fil0" d="M0 0l512 0 0 512 -512 0 0 -512zm365.25 144c27.38,22.4 57.15,70.37 57.15,102.94l1.56 1.06c0.23,23.69 3.06,38.63 -2.27,61.69 -1.71,7.4 -5.05,19.4 -7.81,25.79 -2.96,6.87 -9.67,19.04 -10.34,25.21l2.99 -3.84c47.7,-64.45 41.89,-164.63 -17.1,-219.87 -5.93,-5.56 -2.31,-6.11 -10.39,-9.54 -4.75,4.81 -11,11.11 -13.79,16.56zm-242.77 20.69c9.01,-4.37 14.16,-13.64 21.99,-20.22 8.35,-7.03 15.93,-12.02 25.42,-17.78 14.1,-8.56 44.02,-21.09 65.85,-21.09l1.06 -1.54 36.8 -0.01 1.04 1.55c12.96,0 24.16,3.86 35.11,7.05 5.3,1.55 10.67,3.79 15.03,5.77 4.87,2.2 8.67,5.27 14.42,6.06 5.64,-6.17 11.73,-8.12 14.87,-15.95 -33.61,-22.61 -89.93,-29.52 -135.46,-16.44 -22.06,6.34 -41,16.66 -55.49,27.83 -14.34,11.06 -32.1,29.42 -40.64,44.77zm244.98 -52.97l6.6 3.34c8.36,-5.3 11.93,-11.07 17.51,-17.9l50.03 -52.72 8.93 6.93c-5.05,5.58 -10.52,13.42 -16,18.4l-50.18 53.85 13.43 12.96c2.59,2.54 8.17,10.44 11.19,14.41 50.74,66.91 45.38,160.27 -8.94,223.49l-34.41 30.45c0,0 -170.16,27.07 -170.16,27.07 -10.01,-0.78 -27.27,-11.55 -35.8,-17.26l-10.86 -8.65c0,0 -38.28,-41.41 -38.28,-41.41 0,-0.54 -19.78,-43.69 -22.11,-56.3 -2.04,-11.09 -3.65,-22.4 -3.65,-34.78 -0.01,-14.58 3.15,-22.26 3.28,-35.2l1.56 -0.95c0,-0.89 -0.06,-2.97 0.11,-3.57 0.99,-3.46 0.2,-1.49 1.62,-3.48l-0.08 -3.17 1.61 -2.84c1.22,-20.73 19.95,-58.17 33.71,-75.48 35.84,-45.08 87.39,-70.65 148.69,-68.76 36.28,1.12 56.09,11.28 82.62,24.36 2.11,-1.7 1.2,-0.94 2.97,-2.73 0.34,-0.35 1.31,-1.44 1.64,-1.8 11,-11.83 6.15,-4.5 23.96,-25.56 5.67,-6.71 20.48,-17.61 27.27,-30.27 5.01,2.28 6.73,4.24 9.5,7.3 -5.12,5.32 -8.66,9.77 -13.68,15.73 -4.91,5.83 -9.4,7.98 -14.61,14.13 -4.69,5.53 -8.32,10.01 -13.27,15.59 -6.25,7.04 -9.8,6.02 -14.2,14.82z"/>
   <path class="fil1" d="M36.6 357.73c2.7,-1.73 0.92,0.66 3.34,-2.32 0.38,-13.25 4.71,-7.87 15.91,-12.32 -6.24,-0.82 -10.56,-0.82 -15.08,-3.89l-0.76 -7.92 -3.01 -2.85 -1.57 12.61 -14.72 2.03 13.56 3.62 2.33 11.04zm36.67 -279.6l-0.01 3.74 6.23 0.69c2.31,2.38 1.91,0.27 3.16,4.54 0.26,0.9 0.36,4.8 0.45,5.93 1.79,-1.24 1.34,-0.45 3.73,-2.76l0.41 -7.73 9.14 -0.63 0 -3.82 -9.15 -0.66 -0.39 -7.72c-2.15,-1.99 -2.07,-1.57 -3.72,-2.7 -0.08,0.96 -0.25,5.24 -0.46,5.89 -1.41,4.22 -0.78,2.09 -3.18,4.48l-6.21 0.75zm158.16 -43.61l-14.82 2.9 15.16 2.83 2.49 14.98 3.17 -14.73 14.86 -2.93 -14.18 -3.28 -3.72 -14.78 -2.96 15.01zm-199.31 186.37l3.96 3.37c11.87,-0.64 8.95,2.72 10.99,15.55 3.43,-10.83 -0.13,-15.41 12.06,-15.87l3.7 -3.25 -12.46 -1.8 -3.1 -14.78 -2.65 15.17 -12.5 1.61z"/>
   <path class="fil2" d="M92.86 224.39l-1.61 2.84 0.08 3.17c-0.31,10.01 -1.73,15.46 -1.75,27.21 -0.01,12.15 1.62,17.38 1.62,28.8l1.6 1.59c0.24,11.11 8,31.67 11.86,40.94 4.49,10.76 13.67,26.01 20.54,34.26 3.78,2.23 3.77,2.09 7.24,0 -1.44,-2.74 -3.61,-5.28 -5.82,-8.21 -2.9,-3.84 -3.78,-5.43 -6.34,-9.67 -3.98,-6.62 -7.13,-12.6 -10.35,-20.05 -5.04,-11.66 -12.33,-32.87 -12.33,-48.48l-1.59 -1.59 0 -36.8 1.59 -1.59c0,-11.98 4.77,-27.88 7.79,-37.02 1.73,-5.21 4.37,-11.33 6.57,-15.83 2.61,-5.32 5.68,-9.44 7.73,-14.36l0.98 -2.39 1.81 -2.52c8.54,-15.35 26.3,-33.71 40.64,-44.77 14.49,-11.17 33.43,-21.49 55.49,-27.83 45.53,-13.08 101.85,-6.17 135.46,16.44 2.55,-1.18 1.82,1.05 3.81,-4.02 -26.53,-13.08 -46.34,-23.24 -82.62,-24.36 -61.3,-1.89 -112.85,23.68 -148.69,68.76 -13.76,17.31 -32.49,54.75 -33.71,75.48zm338.69 220c2,-2.03 1.77,0.49 2.28,-3.11 1.11,-7.89 -0.58,-3.7 -1.4,-5.06l-5.57 -0.59 4.69 8.76zm8.58 -22.73c-4.38,11.31 11.63,11.21 6.58,0.31l-6.58 -0.31zm-0.77 -26.75c-0.3,4.43 0.94,5.94 6.11,5.84 2.35,-2.69 2.91,-3.64 1.55,-7.82 -7.75,-2.18 -3.79,-0.89 -7.66,1.98zm14.56 47.23l6.69 0.07c4.08,-11.44 -11.95,-10.92 -6.69,-0.07zm-433.71 -303.99c4.89,1.84 11.36,-1.66 6.55,-6.51 -2.87,-2.91 -9.93,-1.5 -6.55,6.51zm-13.81 -6.92l-1.08 6.55c5.15,2.44 1.84,1.69 7.14,0.92 2.99,-6.81 2,-9.67 -6.06,-7.47zm12.97 50.39c7.22,2.5 7.17,1.57 8.83,-4.02 -2.87,-3.93 -2.12,-4.85 -8.24,-2.45l-0.59 6.47zm434.56 239.65c-5.57,11.99 12.26,11.59 6.01,0.41l-6.01 -0.41zm-28.13 -27.67c-0.85,6.57 -1.89,5.49 4.6,7.46 4.1,-3.02 3.94,-1.24 3.07,-7.46 -4.93,-2.53 -2.77,-2.6 -7.67,0zm-419.96 -226.76c8.39,3.78 9.98,-3.21 6.53,-6.42 -3.01,-2.81 -8.77,-1.41 -6.53,6.42zm434.28 241.16c-4.25,10.2 11.42,10.59 6.62,-0.54 -4.69,-1.98 -1.51,-2.52 -6.62,0.54zm-13.45 -0.63l-1.17 2.4c-0.21,3.09 -0.62,0.07 0.39,4.59 5.85,1.94 10.64,1.4 6.8,-7.06 -5.88,-1.95 -1.33,-1.69 -6.02,0.07zm-406.53 -254.65c6.26,2.62 3.57,2.15 7.86,-1.63 -0.16,-10.31 -11.59,-7.66 -7.86,1.63zm433.82 254.67c-2.55,4.76 -1.93,1.15 -0.78,6.95 5.9,1.98 6.2,2.05 8.5,-3.14 -2.37,-5.5 -2.01,-6.06 -7.72,-3.81zm-440.77 -262.22l-6.82 -0.04c-5.17,11.63 9.53,13.31 6.82,0.04zm427.06 291.63c-1.51,3.46 -1.45,-0.13 -1.03,3.16 1.25,10 13.6,2.25 7.29,-3.49 -4.22,-1.75 -1.33,-2.22 -6.26,0.33zm-435.06 -255.46c7,4.19 9.94,0.51 7.66,-7.11l-7.03 -0.5 -0.63 7.61zm421.48 239.83c-4.19,7 -0.52,9.95 7.1,7.7l0.5 -7.06 -7.6 -0.64zm-234.67 -3.36c0.4,-0.89 0.87,-0.85 0.96,-3.17 0.01,-0.44 -0.33,-2.85 -0.44,-3.44l-8.52 -4.81 -11.67 0.01c5.46,4.98 12.97,7.34 19.67,11.41zm187.04 -290.37c8.08,3.43 4.46,3.98 10.39,9.54 58.99,55.24 64.8,155.42 17.1,219.87l-2.99 3.84 -0.35 1.62 -3 2.34 -1.47 2.19 -1.92 1.32c-3.56,4.96 -13.74,14.92 -18.81,19.43 -5.79,5.15 -19.46,12.13 -22.79,17.79l10.42 -0.45 34.41 -30.45c54.32,-63.22 59.68,-156.58 8.94,-223.49 -3.02,-3.97 -8.6,-11.87 -11.19,-14.41l-13.43 -12.96c-2.39,1.66 -2.6,2.11 -5.31,3.82z"/>
   <path class="fil3" d="M192.52 411.2c0.11,0.59 0.45,3 0.44,3.44 -0.09,2.32 -0.56,2.28 -0.96,3.17 1.9,3.66 1.9,9.18 3.46,14.19l2.45 15.07c35.25,2.63 81.32,0.06 117.29,-0.11 15.83,-0.08 110.32,2.33 116.35,-2.57l-4.69 -8.76 -16.72 -30.45 -44.52 -0.25 -10.42 0.45 -43.2 -0.05 -119.07 1.07 -0.41 4.8zm-101.81 -5.06l-2.1 -13.99c-6,8.49 -41.68,43.87 -43.19,46.03 4.05,6.21 2.6,1.83 7.38,5.84l26.93 -28.3c4.32,-5.03 5.88,-5.12 10.98,-9.58zm267.17 -301.63c-1.99,5.07 -1.26,2.84 -3.81,4.02 -3.14,7.83 -9.23,9.78 -14.87,15.95 3.1,4.8 4.72,4.35 10.22,6.72l15.29 -16.04 2.75 -3.44c4.4,-8.8 7.95,-7.78 14.2,-14.82 4.95,-5.58 8.58,-10.06 13.27,-15.59 5.21,-6.15 9.7,-8.3 14.61,-14.13 5.02,-5.96 8.56,-10.41 13.68,-15.73 -2.77,-3.06 -4.49,-5.02 -9.5,-7.3 -6.79,12.66 -21.6,23.56 -27.27,30.27 -17.81,21.06 -12.96,13.73 -23.96,25.56 -0.33,0.36 -1.3,1.45 -1.64,1.8 -1.77,1.79 -0.86,1.03 -2.97,2.73z"/>
   <path class="fil4" d="M110.52 364.68l-25.36 0.33 3.45 27.14 2.1 13.99 10.34 -0.06c-3.94,6.31 -8.56,11.41 -14.6,16.38 -5.34,4.4 -10.95,10.2 -13.91,16.06 2.92,3.9 3.94,4.06 7.46,7.01 6.43,-4.38 12.68,-13.78 18.03,-19.53 6.88,-7.42 9.77,-6.37 18.49,-19.85l32.28 -0.06 23.53 0.31 11.67 -0.01 8.93 0.01 119.07 -1.07c-1.87,-9.29 -16.8,-33.15 -19.2,-42.13l-160.36 0c-3.47,2.09 -3.46,2.23 -7.24,0l-11.09 0 -3.59 1.48zm263.54 -249.62l-4.59 4.68c-3.64,6.47 -8.91,10.69 -13.21,16.26l8.99 8c2.79,-5.45 9.04,-11.75 13.79,-16.56 2.71,-1.71 2.92,-2.16 5.31,-3.82l50.18 -53.85c5.48,-4.98 10.95,-12.82 16,-18.4l-8.93 -6.93 -50.03 52.72c-5.58,6.83 -9.15,12.6 -17.51,17.9z"/>
   <path class="fil5" d="M482.95 438.04l-1.4 1.84 -3.12 1.59 -1.53 1.86 -3.35 1.33 -1.51 1.87 -42.93 22.31 -2.66 1.37 -12.64 4.7 -2.1 2.18c-19.46,4.33 -54.05,21.17 -74.29,21.75l-3.03 2.48 -50.57 10.68 228.18 0 0 -99.88c-1.77,1.49 -0.9,0.75 -2.63,2.72 -8.06,9.19 -15.67,17.07 -26.42,23.2z"/>
   <path class="fil6" d="M334.07 497.49l0.06 0.02c-0.47,-0.05 -1.45,0.22 -3.44,0.37l-64.73 14.12 17.86 0 50.57 -10.68c0,-2.45 0.3,-3.41 0.01,-3.7l3.02 1.22c20.24,-0.58 54.83,-17.42 74.29,-21.75l2.1 -2.18 12.64 -4.7 2.66 -1.37 42.93 -22.31 1.51 -1.87 3.35 -1.33 1.53 -1.86 3.12 -1.59 1.4 -1.84c10.75,-6.13 18.36,-14.01 26.42,-23.2 1.73,-1.97 0.86,-1.23 2.63,-2.72l0 -12.81c-2.36,2.27 0.08,-0.12 -2.45,2.91l-6.08 6.83c-8.19,9.16 -16,17.23 -26.45,24.77 -35.97,25.95 -98.81,56.93 -142.95,63.67z"/>
  </g>
 </g>
</svg>
