<?xml version="1.0" encoding="UTF-8"?>
<!DOCTYPE svg PUBLIC "-//W3C//DTD SVG 1.1//EN" "http://www.w3.org/Graphics/SVG/1.1/DTD/svg11.dtd">
<!-- Creator: CorelDRAW 2021 (64-Bit) -->
<svg xmlns="http://www.w3.org/2000/svg" xml:space="preserve" width="512px" height="512px" version="1.1" style="shape-rendering:geometricPrecision; text-rendering:geometricPrecision; image-rendering:optimizeQuality; fill-rule:evenodd; clip-rule:evenodd"
viewBox="0 0 512 512"
 xmlns:xlink="http://www.w3.org/1999/xlink"
 xmlns:xodm="http://www.corel.com/coreldraw/odm/2003">
 <defs>
  <style type="text/css">
   <![CDATA[
    .fil1 {fill:#232B54}
    .fil5 {fill:#A77879}
    .fil2 {fill:#ACABAC}
    .fil0 {fill:#D2D2D2}
    .fil6 {fill:#EFB42F}
    .fil4 {fill:#F2F4F2}
    .fil3 {fill:#FDB41B}
   ]]>
  </style>
 </defs>
 <g id="Layer_x0020_1">
  <metadata id="CorelCorpID_0Corel-Layer"/>
  <g id="_2436915476480">
   <path class="fil0" d="M512 512l0 -512 -512 0 0 512 512 0zm-59.42 -229.35l5.12 11.9c2.03,4.35 3.32,7.93 5.84,11.58 0.02,-15.71 13.22,-122.07 -35.05,-96.47 -3.59,-31.99 24.93,-125.02 30.08,-169.12 -250.36,0.73 -153.28,3.28 -410.27,-0.11l0.01 7.29c0.05,90.93 -0.33,168.93 1.83,170.06l61.02 -4.69 0.43 3.74c7.45,-0.91 30.8,-16.56 61.31,3.61 70.68,46.74 26.96,72.11 140.76,67.99l-0.4 2.54c40.53,-15.37 64.62,-80.57 139.32,-8.32z"/>
   <path class="fil1" d="M287.18 303.49c-36.95,10 -62.8,1.78 -93.11,-17.48 -25.87,-16.44 -67.49,-49.36 -104.16,-53.95 -14.99,-1.86 -29.49,-0.95 -41.6,5.33l-0.03 34.15 1.87 1.47c13.24,1.81 14.69,25.49 -1.79,27.87l-0.19 106.29c35.38,58.36 88.43,48.84 148.12,48.84l222.47 -0.01c11.6,0 34.91,1.23 45.17,-0.59l-0.32 -57.1c-3.15,-2.2 -5.93,-1.96 -6.01,-6.53 -0.08,-4.6 3.73,-4.88 6.04,-7.37l-0.1 -78.28c-51.3,-74.12 -106.46,-30.57 -176.36,-2.64z"/>
   <path class="fil2" d="M418.76 456c-123.29,0.01 -245.1,0.7 -367.83,0.01 -7.7,-1.8 -2.61,-378 -2.62,-408.29 -8.15,2.74 -12.23,7.17 -15.23,15.26 7.23,97.89 11.27,290.11 0.6,386.87 -0.65,5.89 2.85,18.83 9.08,20.85 33.21,10.79 337.88,-1.8 399.79,-1.79 3.91,-0.37 4.67,-1.35 7.26,-3.57 17.74,-15.18 16.11,-9.34 -31.05,-9.34z"/>
   <path class="fil3" d="M111.59 216.83c-4.04,3.62 -21.36,10.27 -21.68,15.23 36.67,4.59 78.29,37.51 104.16,53.95 30.31,19.26 56.16,27.48 93.11,17.48 7.71,-2.08 21.88,-7.8 26.08,-12.52l0.4 -2.54c-168.94,6.1 -72.44,-87.46 -202.07,-71.6z"/>
   <path class="fil4" d="M299.81 402.73c-14.09,3.39 -14.86,21.42 -4.19,27.11 6.5,3.48 75.42,1.87 87.97,1.87 9.7,0 37.7,1.23 45.34,-0.42 12.6,-2.74 15.25,-20.78 4.14,-26.84 -6.82,-3.71 -75.05,-2.04 -87.92,-2.03 -8.53,0 -39.57,-1.08 -45.34,0.31z"/>
   <path class="fil4" d="M83.52 402.96c-9.54,2.78 -13.1,11.15 -10.15,19.31 3.3,9.13 10.34,9.42 21.5,9.43 10.52,0.01 53.88,1.33 60.66,-0.52 6.84,-1.87 13.22,-10.15 9.79,-19.04 -3.54,-9.19 -9.92,-9.73 -21.37,-9.71 -9.98,0.01 -54.49,-1.21 -60.43,0.53z"/>
   <path class="fil2" d="M205.29 29.92l99.78 0.06c5.64,-0.01 10.63,0.57 14.31,-3.47 1.21,-1.33 8.26,-14.63 -14.31,-14.63l-86.69 -0.02c-8.65,0 -22.03,-1.67 -25.75,4.06 -2.07,3.18 -1.85,7.9 0.5,11.01 2.27,2.98 6.74,2.99 12.16,2.99z"/>
   <path class="fil3" d="M157 448.57c-21.48,-13.5 -91.79,-13.29 -108.83,-41.4 -0.11,7.67 -3.06,47.48 2.76,48.84 10.13,0.06 93.52,17.43 106.07,-7.44z"/>
   <path class="fil5" d="M50.14 217.78c-3.63,0.88 -0.63,0.24 -2.07,1.41l0.24 18.2c12.11,-6.28 26.61,-7.19 41.6,-5.33 0.32,-4.96 17.64,-11.61 21.68,-15.23l-0.43 -3.74 -61.02 4.69z"/>
   <path class="fil6" d="M48.36 300.88c16.48,-2.38 15.03,-26.06 1.79,-27.87l-3.03 0.65c1.9,7.2 0.32,19.53 1.24,27.22z"/>
  </g>
 </g>
</svg>
