<?xml version="1.0" encoding="UTF-8"?>
<!DOCTYPE svg PUBLIC "-//W3C//DTD SVG 1.1//EN" "http://www.w3.org/Graphics/SVG/1.1/DTD/svg11.dtd">
<!-- Creator: CorelDRAW 2021 (64-Bit) -->
<svg xmlns="http://www.w3.org/2000/svg" xml:space="preserve" width="512px" height="512px" version="1.1" style="shape-rendering:geometricPrecision; text-rendering:geometricPrecision; image-rendering:optimizeQuality; fill-rule:evenodd; clip-rule:evenodd"
viewBox="0 0 512 512"
 xmlns:xlink="http://www.w3.org/1999/xlink"
 xmlns:xodm="http://www.corel.com/coreldraw/odm/2003">
 <defs>
  <style type="text/css">
   <![CDATA[
    .fil1 {fill:#24221C}
    .fil13 {fill:#33322D}
    .fil5 {fill:#5C4B3B}
    .fil11 {fill:#5E6157}
    .fil8 {fill:#87735B}
    .fil7 {fill:#938574}
    .fil14 {fill:#AC946E}
    .fil9 {fill:#ACA9A3}
    .fil6 {fill:#B09B86}
    .fil3 {fill:#C2B5A4}
    .fil12 {fill:#CFCAC4}
    .fil2 {fill:#D3C6AA}
    .fil4 {fill:#E3DBCC}
    .fil0 {fill:#E7E7E3}
    .fil10 {fill:#F7F6F3}
   ]]>
  </style>
 </defs>
 <g id="Layer_x0020_1">
  <metadata id="CorelCorpID_0Corel-Layer"/>
  <g id="_2436742801536">
   <path class="fil0" d="M0 376.61l17.18 -0.14c-0.92,3.44 -0.63,2.04 -1.65,3.61 -3.12,4.78 -0.85,-0.58 -3.1,5.64l-1.85 3.3c-0.97,4.59 -3.58,6.18 -2.75,11.34 -2.99,4.52 -3.18,12.52 -2.4,13.76l10.51 8.14c10.01,7.62 1.13,2.18 13.16,7.11 15.61,6.4 3.08,3.29 22.25,5.48 12.18,1.4 11.74,5.98 28.45,6.61 5.15,0.19 4.68,-1.32 5.11,-1.83 -7.07,-0.16 -10.05,-5.72 -12.64,-8.17l-4.97 -5.25c-4.17,-5.7 -10.21,-11.47 -13.43,-17.78 -2.82,-5.53 -3.08,-9.39 -9.25,-20.75 -2,-3.69 -1.72,-8.58 -1.68,-12.27 0.03,-2.93 0.33,-4.07 6.91,-5.3 0.71,1.82 -1.02,1.12 1.79,1.73 -2.71,1.14 -2.91,1.88 -5.05,3.35 -0.04,3.05 0.2,3.63 1.42,6.15 1.49,3.11 1.96,3.32 4.23,4.15 0.91,-0.41 1.84,0.02 3.4,-3.33 1.62,-3.51 -1.6,-2.39 1.83,-3.5 3.02,-0.26 -0.18,11.1 1.25,15.41 1.29,3.92 0.32,1.54 1.88,3.02 0.2,-0.23 0.41,-0.88 0.47,-0.75l1.27 -5.23c-0.76,4.97 2.23,5.82 3.71,9.11l3.25 10.81c0.75,4.21 -0.9,-0.74 -0.35,4.47 0.08,0.81 1.31,4.66 1.58,5.25 1.59,3.46 3.91,6.24 5.75,9.21 2.44,-2.1 4.34,-3.26 7.03,-4.97 -1.01,-6.04 -3.67,-9.35 -5.04,-17.31 -0.51,-2.99 -0.26,-4.24 -1.99,-6.49 -0.99,0.86 -0.51,0.25 -1.48,1.75l-2.2 4.96 -2.15 -19.65c-1.88,-1.57 -0.12,0.85 -1.9,-2.35l-3.2 -10.72c0.3,0.11 0.69,0.06 0.85,0.41l3.03 1.66c1.46,0.67 -0.56,1.99 4.28,0.47 0.07,-0.02 5.99,-3.32 6.54,-3.82l0.85 -5.99c-2.5,-2.95 -1.07,-17.25 -0.66,-20.62 -5.67,0.31 -7.27,-0.06 -11.36,-0.29 -4.32,-0.24 -7.16,0.38 -11.4,0.52 -16.42,0.53 -14.74,1.81 -21.33,2.47l-0.21 -4.89c13.06,-5.07 27.67,-3.51 43.78,-4.37l0.96 -6.32c-11.77,-0.48 -25.81,-0.69 -37.13,1.47 -3.19,0.61 -6.45,2.03 -9.28,2.38l-0.15 -3.92c9.88,-5.99 31.85,-5.33 46.45,-5.64l0.96 -8.32 7.22 -0.83c-2.17,2.71 -1.92,5.34 -1.07,9.22l22.03 0.12 4.13 -0.43 3.58 -0.53c1.35,-4.08 -0.55,-2.04 2.75,-4.3l2.36 -1.36c2.74,-2.39 0.67,-2.45 3.41,-4.75 2.87,-2.41 -0.17,1.3 2.65,-1.81 2.93,-3.24 -0.12,-3.34 4.11,-5.19 1.51,1.49 2.15,-1.63 1.68,4.03 -0.1,1.28 -1.27,2.49 -1.67,3.08 -1.42,2.18 -2.36,4.09 -2.72,6.88 1.11,1.36 1.91,3.57 2.27,5.13 -0.95,-3.52 1.26,-2.98 1.89,-3.48 1.26,2.34 3.7,1.51 7.89,1.43 14.08,-0.26 12.7,-0.99 20.29,2.52 10.28,4.75 1.13,5.93 7.94,8.56 -1.7,-2.97 -0.4,-3.57 -0.4,-3.57 0.44,-1.3 2.45,-2.02 0.72,-0.47l-1.23 -12.53 3.05 4.18c2.45,-1.46 -0.02,-0.55 1.08,-2.61 1.64,-3.08 -1.01,-1.73 3.1,-3.25 2.35,1.57 0.28,-2.12 2.15,3.25 1.89,5.43 -0.82,7.18 3.08,18.06 0.6,1.66 0.95,0.4 0,1.28 0,-4.46 0.02,-8.92 -0.01,-13.39 -0.04,-5.74 1.05,-8.61 1.05,-13.38 3.03,1.95 2.57,1.28 5.22,6.69 -0.14,-0.04 -0.29,-0.24 -0.29,-0.27l0.16 -0.59c1.6,-0.6 -0.68,-0.74 2.22,0.02l-0.22 10.22c1.18,3.77 -1.71,0.22 2.26,3.16 -0.14,-3.39 -0.87,-5.34 -0.99,-8.41l1.44 -14.92c0.52,-2.69 1.15,-4.57 1.7,-6.78l3.56 3.47c0.15,0.2 0.26,0.38 0.38,0.58 0.09,0.14 0.8,-1.43 1.14,3.46 0.83,12.2 -7.75,18.85 -1.95,21.05 0.12,-0.28 0.9,-3.02 1.51,-4.32l2.72 -4.06c0.13,-0.45 0.41,-0.5 0.65,-0.72l1.52 3.43c1.67,4.52 -0.5,8.06 -4.12,11.41 -0.85,5.03 -1.34,7.66 -3.32,12.27 -0.91,2.12 -1.52,3.99 -2.17,5.82 -0.89,2.48 -1.59,3.83 -2.43,6.17 3.79,4.11 -3.26,-1.12 1.81,0.85l3.28 1.17c-1.03,0.78 -1.49,-1.32 -0.98,1.7 0.36,-1.88 0.39,-1.45 0.31,-2.77l8.25 -22.17c1.15,-1.16 0.85,-0.86 2,-1.68 -0.45,3.81 0.8,3.86 0.49,5.77 1.63,-4.18 1.91,-6.97 4.45,-9.37 4.92,-4.64 2.3,-4.8 7.18,-7.99 -0.08,3.27 -13.75,26.67 -16.42,31.34 4.92,-0.59 31.54,-1.65 37.24,-0.07 0.04,0.01 4.63,1.5 4.86,1.6 3.32,1.39 2.75,0.34 3.18,3.64 -5.97,2.78 -4.47,-2.22 -5.69,2.74 -4.11,-0.28 4.88,-3.16 0.71,8.35l13.07 0.56 -0.09 9.54 -0.63 4.3c4.32,3.66 1.34,2.12 1.13,7.28 0.35,-3.76 2.63,-3.26 5.42,-4.7 4.21,-2.16 1.9,-3.9 17.57,-5.47 6.45,-0.65 3.36,-0.39 7.55,-3.78l2.74 -21.92c3.15,-1.1 12.08,-4.2 14.88,-4.5 19.22,-2.06 8.35,-1.61 17.74,-3.55 3.46,-0.71 5.44,-0.35 9.25,-0.82 4.5,-0.55 5.25,-1.52 8.62,-2.48 6.38,-1.8 10.58,-0.26 17.94,-3.07 1.7,-3.55 3.05,-0.34 5.2,-6.16 3.53,-9.54 3.53,-4.51 6.92,-12.86l11.26 -18.37c3.38,-4.84 3.41,-8.17 11.04,-9.01 6.47,3.74 32.26,1.42 46.76,1.97 3.16,0.12 5.27,0.04 8.37,-0.01 0.85,-0.02 3.45,-0.06 4.17,0.07 5.03,0.91 2.19,-0.35 4.01,1.95 4.33,1.35 5.06,3.08 9.63,4.36 4.35,1.22 8.28,2.32 11.73,3.89 5.86,2.66 10.91,12 8.96,19.27l2.36 -0.17c-2.01,-39.94 -0.71,-102.45 -15.51,-138.66 -4.62,-11.3 -14.79,-27.5 -23.95,-31.46 -5.25,-7.71 -22.04,-12.16 -36.05,-6.87 -8.58,3.24 -21.35,13.68 -24.4,20.59l31.47 1.1c1.76,5.38 6.51,35.84 5.23,39.98 -27.38,1.74 -55.15,0.74 -82.68,0.46 -1.76,-0.51 -0.99,-0.19 -2.18,-0.99l5.41 -38.76 22.8 -1.4 16.89 -0.41c3.12,-2.81 5.15,-6.23 8.11,-9.33 2.95,-3.08 6.47,-5.96 10.09,-8.59 8.13,-5.91 17.39,-8.14 31.17,-6.46 4,1.69 7.43,2.84 11.3,5.02 24.61,13.9 35.12,46.99 38.89,70.21 2.86,17.58 3.82,35.41 5.02,53.29 1.17,17.33 3.55,38.75 3.28,55.44 1.93,1.23 2.28,5.61 2.47,6.16 1.33,4 -2.28,-0.15 0.85,1.31 3.35,-1.1 0.91,0.1 2.85,-6.23 0.04,-0.14 0.12,-0.42 0.26,-0.61l1.08 15.09c0.14,-0.19 0.25,-0.73 0.3,-0.61 0.19,0.43 -0.26,-1.87 4.17,-4.15 0.13,-0.07 0.47,-0.16 0.67,-0.28l0.12 -5.02c3.13,-1.73 4.06,1.34 4.06,-7.59l2.16 0 0 -334.58 -169.39 0 -342.61 0 0 376.61zm112.2 -103.27l190.31 -0.27c1.93,-6.79 0.5,-207.81 -0.28,-209.56 -3.46,-1.2 -181.22,-1.82 -196.64,-0.55l-0.57 210.1 7.18 0.28z"/>
   <path class="fil1" d="M368.26 177.34c3.35,3.23 1.51,14.24 1.46,18.42 -0.27,21.88 5.6,21.06 -21.03,21 -5.18,-0.01 -5.48,0.6 -6.46,1.73 27.53,0.28 55.3,1.28 82.68,-0.46 1.28,-4.14 -3.47,-34.6 -5.23,-39.98l-31.47 -1.1c3.05,-6.91 15.82,-17.35 24.4,-20.59 14.01,-5.29 30.8,-0.84 36.05,6.87 9.16,3.96 19.33,20.16 23.95,31.46 14.8,36.21 13.5,98.72 15.51,138.66l-2.36 0.17c-2.7,3.81 -4.5,5.42 -9.21,6.84 -13.39,4.04 -20.43,8.48 -36.49,11.9 -12.52,2.68 -45.67,10.26 -56.58,9.95 -6.78,-0.01 -7.93,2.38 -15.34,2.81 -0.61,2.15 -0.56,2.43 -1.29,3.9l-8.09 0.18c-6.66,0.64 -7.79,3 -16.88,3.99 2.48,-7.6 1.3,-5.82 4.88,-8.08 1.25,3.07 1.04,2.48 3.32,4.73 2.28,-4.77 -2.8,-5.39 -3.16,-9.28 -0.45,-4.84 4.2,-4.92 9.08,-5.09l1.71 -6.95c-7.36,2.81 -11.56,1.27 -17.94,3.07 -3.37,0.96 -4.12,1.93 -8.62,2.48 -3.81,0.47 -5.79,0.11 -9.25,0.82 -9.39,1.94 1.48,1.49 -17.74,3.55 -2.8,0.3 -11.73,3.4 -14.88,4.5l-2.74 21.92 -0.18 3.36 7.19 0.23c0.27,-4.79 -0.6,-9.75 0.92,-13.92 0.03,-3.37 -0.12,-4.94 1.7,-7.66 8.54,-1.5 6.97,5 6.66,10.44 1.31,3.77 -1.25,1.26 2.99,2.09 0.68,-2.39 -0.15,-2.83 1.61,-5.49 0.16,-0.24 0.43,-0.49 0.58,-0.68 0.14,-0.19 0.38,-0.47 0.63,-0.67 0.93,1.7 1.21,2.13 2.14,4.01l-3.56 2.65c-0.17,0.1 -0.43,0.25 -0.59,0.34 -0.23,0.13 -0.83,0.51 -1.04,0.61 -6.37,3.15 -7.62,-3.88 -10.22,13.72 -1.8,12.14 -5.28,68.09 -8.98,75.66 -4.02,8.25 -0.89,2.55 -2.94,9.94 -0.74,5.03 0.25,9.68 -2.07,13.37l1.23 0.59 6.98 0.68c-0.19,-7.33 3.82,-20.7 5.78,-29.98l1.74 -4.11c-0.78,-2.89 0.26,-6.75 1.73,-8.99 4.13,0.33 3.99,1.34 9.42,1.23 4.79,-0.09 4.82,-1.14 9.31,-0.96 4.14,0.17 3.29,1.11 8.43,1.25 4.04,0.12 5.96,-0.72 9.44,-0.82 7.89,-0.24 9.96,1.75 19.29,0.69 8.39,-0.96 10.72,2 20.83,-0.18 6.35,-0.36 7.52,1.73 15.08,1.04 8.19,-0.73 6.31,-0.62 14.88,0.02 9.85,0.74 12.02,-4.11 21.23,1.58 2.28,1.4 2.34,1.8 5.49,2.52 0.2,0.21 0.34,0.31 0.4,0.71 0.22,1.45 0.92,4.67 3.39,5.31 2.93,0.75 3.01,-0.98 5.32,-3.4 0.17,-0.17 0.39,-0.45 0.64,-0.64l9.46 1.55 6.23 25.41c0.91,4.13 -0.01,4.64 5.73,5.72 3.09,-2.08 2.64,-2.38 2.05,-5.3l-3.65 -24.29c19.11,2.13 31.42,1.07 50.19,0.98l0 -19.41 -12.12 -0.93c-2.07,-6.47 -4.74,-64.8 -5.4,-79.23 -0.34,-7.43 -0.23,-20.66 -1.47,-27.29 0.27,-16.69 -2.11,-38.11 -3.28,-55.44 -1.2,-17.88 -2.16,-35.71 -5.02,-53.29 -3.77,-23.22 -14.28,-56.31 -38.89,-70.21 -3.87,-2.18 -7.3,-3.33 -11.3,-5.02 -13.78,-1.68 -23.04,0.55 -31.17,6.46 -3.62,2.63 -7.14,5.51 -10.09,8.59 -2.96,3.1 -4.99,6.52 -8.11,9.33l-16.89 0.41z"/>
   <path class="fil2" d="M70.45 388.25c-0.59,-4.05 -1.26,-2.19 -1.8,-6.62 5.98,-1.3 8.15,-4.74 15.97,-5.21 2.15,3.03 1.85,0.74 2.23,4.23 -1.24,0.35 -5.34,0.51 -8.85,0.98 -0.14,4.82 -2.73,4.17 -0.95,9.28l3.58 7.43c2.13,-2.56 1.88,-1.77 0.97,-5.1 4.43,0.34 1.15,-0.86 2.95,2.16 0.06,0.1 0.17,0.33 0.23,0.44 0.06,0.11 0.21,0.33 0.28,0.44l2.57 6.99c0.5,2.5 2.01,8.63 1,11.62 -0.63,1.88 -0.15,0.93 -2.22,2.73l9.44 1.03c-1.36,1.92 -0.06,1.02 -4.15,1.19 0.24,0.15 0.56,0.34 0.71,0.43l2.72 1.21 -5.89 1.5c0.26,0.07 0.57,0.17 0.86,0.24l-2.61 0.93c2.67,1.49 3.48,1.74 7.2,2.07l-5.28 1.43 4.7 0.84c-3.08,0.99 -3.33,0.38 -3.28,2.27 0,0.06 0.04,0.29 0.04,0.35 0.23,3.79 -2.85,7.84 -5.96,8.52 -0.43,0.51 0.04,2.02 -5.11,1.83 -16.71,-0.63 -16.27,-5.21 -28.45,-6.61 -19.17,-2.19 -6.64,0.92 -22.25,-5.48 -12.03,-4.93 -3.15,0.51 -13.16,-7.11l-10.51 -8.14c-0.78,-1.24 -0.59,-9.24 2.4,-13.76l-7.83 0.64 0 53.65 53.1 0.83c5.04,-0.04 11.76,-1.4 15.91,0.47 -0.51,2.19 0.13,2.84 -4.8,4.35 -6.32,1.94 2.71,-1.47 -7.79,0.54 -0.19,4.77 -8.58,12.48 -12.52,15.91 -2.99,2.6 -2.51,3.35 -7.36,3.41l0.79 2.38c-0.01,0.17 -0.05,0.51 -0.13,0.76 -1,0.41 -0.71,0.03 -1.31,0.19 -2.19,0.59 0.94,-0.49 -0.92,0.35 -1.89,0.86 0.64,0.7 -2.33,0.64 -12.73,-0.28 -22.06,1.83 -32.64,1.46l0 2.53c5.29,-1.23 11.33,-0.95 17.85,-1.08 8.73,-0.18 10.38,-0.86 13.59,0.78 -0.98,3.89 -16.58,17.48 -19.36,21.4l-0.87 -0.58c-0.04,-0.02 -0.29,-0.21 -0.33,-0.23l-1.53 1.27c-0.89,1.24 -1.32,1.8 -1.48,1.97l-0.08 0c0.15,-0.37 1.32,-2.16 0.08,0l24.81 0 19.12 -22.24c0.97,-1.01 0.37,-0.37 1.27,-1.48l21.4 -24.54c2.87,-2.92 2.25,0 1.9,-4.53 1.42,2.53 -0.46,2.34 6.37,1.76l13.35 -0.36c7.6,0.61 2.02,2.17 9.41,1.56 3.33,-0.27 4.61,-0.24 7.8,-0.05 -1.92,-1.81 1.4,-0.18 -2.89,-1.83 -0.75,-0.28 -2.5,-0.6 -3.31,-0.71 -3.37,-0.42 -2.42,0.12 -6.42,-0.5 -4.65,0.39 -12.68,0.94 -17.09,0.19 2.79,-4.39 0.32,-3.36 8.77,-3.88 -1.24,-1.66 -2.44,-1.67 -3.8,-4.27 -7.05,-13.55 16.31,-18.11 26.1,-18.35 0.25,-0.14 0.65,-0.54 0.81,-0.34 0.16,0.2 0.61,-0.26 0.84,-0.32 1.67,-0.42 0.6,-0.3 2.81,-0.59 0.65,-0.08 3.88,-0.19 4.82,-0.24 3.24,-0.15 6.84,-0.31 10.33,-0.43 6.37,-0.22 15.22,-0.69 21.41,-1.27 -1.92,-6.9 -6.56,-6.12 -7.3,-14.29 1.2,-14.5 1.68,-10.34 2.16,-13.76 0.05,-0.33 0.21,-0.41 0.3,-0.63l-49.75 0.33c0.16,-3.1 0.9,-6.43 0.88,-9.01 -0.03,-5.28 -2.51,-2.21 0.13,-4.73l7.41 -3.89c-4.36,0.97 -1.75,1.17 -6.07,2.62 -1.62,-2.02 -3.58,-2.69 -4.17,-5.37l-1.22 -1.89c3.83,-0.02 8.71,0.12 12.51,0.36 3.98,0.26 3.97,0.74 8.21,0.12 0.21,-0.04 0.69,0.04 0.84,-0.22 0.16,-0.26 0.57,-0.13 0.92,-0.24l-0.09 -2.51c-1.55,-0.77 -0.03,-0.31 -2.5,-0.72 -5.7,-0.94 -23.66,0.8 -37.89,-1.85 -0.55,0.5 -6.47,3.8 -6.54,3.82 -4.84,1.52 -2.82,0.2 -4.28,-0.47l-3.03 -1.66c-0.16,-0.35 -0.55,-0.3 -0.85,-0.41l3.2 10.72c1.78,3.2 0.02,0.78 1.9,2.35z"/>
   <path class="fil0" d="M32.68 512l108.89 0c2.56,-6.52 8.1,-16.54 9.16,-22.59l-2.65 -0.84 -0.86 -1.58c-5.77,0.14 -12.01,-0.9 -17.41,0.15 -9.47,0.98 -6.19,-2.43 -21.74,-1.43 1.29,-3.19 0.44,-3.35 4.7,-3.52 9.21,-0.37 -1.04,2.28 13.68,2.83 4.63,0.18 9.86,0.23 6.43,-3.28l-6.83 -6.54c-4.57,-1.69 -3.79,-2.63 -7.68,-2.75 -5.68,-0.17 -1,-0.26 -1.46,0.39l0.06 -9.36c-4.14,0.4 -5.3,0.93 -8.2,1.3l4.53 -2.66c-3.19,-0.19 -4.47,-0.22 -7.8,0.05 -7.39,0.61 -1.81,-0.95 -9.41,-1.56l-13.35 0.36c-6.83,0.58 -4.95,0.77 -6.37,-1.76 0.35,4.53 0.97,1.61 -1.9,4.53l-21.4 24.54c-0.9,1.11 -0.3,0.47 -1.27,1.48l-19.12 22.24z"/>
   <path class="fil3" d="M316.5 492.62l2.91 1.79c0.14,-0.2 0.56,0.35 0.83,0.54 -8.24,-1.01 -2.39,-0.53 -4.51,1.15 1.67,4.6 5.28,7.99 2.81,12.96l-0.89 2.94 194.35 0 0 -8.76c-14.08,-1.85 -20.64,-7.28 -28.68,-4.24 -6.39,2.42 -19.64,0.35 -25.93,3.19l7.83 4.69c-22.04,-4.2 -12.06,-0.51 -40.25,-0.7l-0.58 2.14c-3.74,-3.57 -3.97,-1.56 -10.58,-1.45 -5.11,0.08 -7.52,-1 -12.89,0.05l-5.36 0.63c-11.64,-1.38 -11.25,-0.55 -18.22,-1.21 2.24,-1.24 3.64,-1.24 6.1,-1.37 1.43,-0.08 4.52,-0.04 6.31,-0.11 3.87,-0.14 7.73,-0.38 11.67,-0.38 -6.78,-0.58 -9.83,-0.03 -16.98,-0.47l4.33 -1.15c-6.54,-0.2 -11.42,0.22 -15.68,-1.74 2.57,-1.01 7.99,-0.9 11.52,-0.84 -7.31,0 -14.81,-0.25 -22.03,-0.21 -11.7,0.08 -16.59,1.79 -20.89,-2.29 7.02,-0.38 -0.3,-0.83 10.79,-0.3 1.58,0.08 6.58,-0.4 9.7,-0.64 6.66,-0.51 14.37,-0.43 21.58,-0.9 14.24,-0.91 30.6,-0.15 45.69,-0.67 0.01,-1.08 0.53,-2.88 0.52,-3.08 -0.11,-1.43 -0.82,1.19 -0.97,-3.78l-3.89 -3.12 -1.93 5.16c-6.45,0.73 -13.27,0.32 -19.85,0.23l-16.77 -0.4c-0.36,-0.07 -0.71,-0.2 -1.01,-0.26l-1.98 -0.68c6.81,-0.15 14.05,-0.35 20.81,-0.4 8.25,-0.05 14.84,1.21 16.56,-1.43l-19.69 0.02c-0.13,0.22 0.52,2.66 -3.77,0.47l-1.6 -1.93c6.18,-1.52 6.6,1.76 10.46,-2.51 -1.34,-1.9 -0.03,-1.02 -2.79,-1.88 -0.95,-0.29 -2.27,-0.17 -3.54,-0.22 -2.52,-0.09 -4.44,-0.35 -6.98,-0.46 -9.1,-0.4 -37.42,-1.84 -42.45,-3.7 2.34,-1.28 4.1,-2.36 6.4,-4.01 4.59,-3.27 5.28,-0.59 7.72,-4l-13.05 0.25 8.46 0.9c-6.24,0.93 -11.67,-0.27 -14.9,0.45 -5.28,1.16 -5.74,5.21 -5.76,5.24 1.83,0.16 2.88,0.1 4.03,0.48 3.58,1.19 2,0.45 4.29,2.92l-31.02 -0.99c2.41,1.84 25.72,0.97 35.38,2.51 -4.95,2.17 -17.83,0.49 -22.99,0.04l-6.88 5.97c7.84,0.16 6.51,0.31 8.98,2.55l-7.77 0.3c0.07,1.37 0.85,3.05 -0.6,5.13l-3.7 -1.49c-1.02,-0.39 -1.44,-0.46 -2.67,-0.93z"/>
   <path class="fil4" d="M148.38 415.29c0.74,8.17 5.38,7.39 7.3,14.29 -6.19,0.58 -15.04,1.05 -21.41,1.27 -3.49,0.12 -7.09,0.28 -10.33,0.43 -0.94,0.05 -4.17,0.16 -4.82,0.24 -2.21,0.29 -1.14,0.17 -2.81,0.59 -0.23,0.06 -0.68,0.52 -0.84,0.32 -0.16,-0.2 -0.56,0.2 -0.81,0.34 5.22,1.35 0.59,2.68 -2.85,8.66l-16.57 1.13c1.36,2.36 0.17,1.88 8.23,2.03 8.61,0.15 1.19,0.21 7.62,2.19 2.26,0.69 2.49,0.35 4.19,0.83 2.46,0.71 1.7,1.49 6.01,1.78l3.67 0.16c-1.91,2.36 -1.24,1.16 0,3.41 -4.38,-0.6 1.5,-0.18 -4.8,-0.93 -3.07,4.22 -3.95,6.51 -10.15,5.41 -7.7,-1.37 1.85,-0.66 -5.89,-1.22l-1.33 -0.27c-1,1.51 -1.36,2.08 -2.11,3.13 4,0.62 3.05,0.08 6.42,0.5 0.81,0.11 2.56,0.43 3.31,0.71 4.29,1.65 0.97,0.02 2.89,1.83l-4.53 2.66c2.9,-0.37 4.06,-0.9 8.2,-1.3l-0.06 9.36c0.46,-0.65 -4.22,-0.56 1.46,-0.39 3.89,0.12 3.11,1.06 7.68,2.75 -0.51,-5.88 -2.36,-2.86 -1.77,-7.31l-1.86 -1.3c-5.8,-2.06 -4.28,-0.14 -5.54,-5.35 3.87,-0.02 13.83,-0.3 17.01,1.65l20.62 -0.08c2.71,0.63 0.76,-0.16 2.5,1.04l0.13 1.3c4.8,1.66 4.12,1.34 6.84,-0.84 -0.88,-2.43 -0.03,-0.42 -1.82,-1.88 -0.01,0 -0.74,0.01 -2.2,-1.46l1.57 -3.58c0.64,-1.65 -0.3,-1.28 2.57,-2.15 1.7,-0.52 8.71,-1.56 10.48,-1.64 7.6,-0.37 5.76,-0.58 10.69,-1.54 13.82,-2.69 10.05,-2.93 19.84,-1.22 8.1,1.42 22.03,-4.21 28.95,-6.6 1.06,-3.98 0.67,-5.8 -1.46,-8.33l-2.44 0.89c-4.69,1.35 -12.23,1.45 -17.07,1.63 -5.05,0.19 -5.66,1.07 -8.36,1.25 -11.32,0.76 -34.75,-2.03 -45.53,-4.11 4.33,-1.29 0.93,-0.04 2.76,-2.2l1.28 -1.53c0.16,-0.12 0.41,-0.27 0.59,-0.38 3.11,-1.91 1.22,0.87 3.52,-1.75 2.88,-3.25 -1.93,2.91 0.53,-1.34 0.06,-0.1 0.12,-0.35 0.19,-0.45 0.08,-0.1 0.21,-0.33 0.3,-0.42 2.1,-2.06 6.47,-1.04 8.09,-1.39 4.8,-1.05 1.24,-1.14 1.49,-1.52 1.28,-1.95 -1.92,-1.19 2.07,-1.68 2.47,-2.95 -1,1.72 3.42,0.19 2.51,-0.87 1.65,-1.69 3.82,-3.96 -0.18,-0.17 -0.45,-0.38 -0.56,-0.48l-2.27 -2.87c0.35,-0.03 0.95,0.03 1.1,-0.04 1.67,-0.74 1.12,-0.66 3.37,-4.53 3.28,-5.62 3.02,0.13 9.33,-7.4 5.76,-6.89 5.9,-4.88 6.09,-9.78 1.16,-0.12 -2.16,1.09 1.1,0.28 1.46,-0.36 0.76,2.04 0.94,-0.97 -1.36,-1.89 -3.93,-4.11 -6.66,-5.03l-1.56 0c-0.51,1.34 0.32,1.83 3.02,4.31 -1.57,1.04 -4.25,1.76 -5.48,3.26 -1.64,1.99 -0.2,1.87 -2.91,3.84l-1.63 1.07c-4.07,3.22 -2.8,2.42 -8.92,2.74 -3.78,9.88 -17.16,3.57 -22.29,6.47 -2.88,1.63 -2.36,2.56 -5.56,3.89l-2.55 0.79c-1.72,0.44 -0.48,0.42 -3.44,0.6z"/>
   <path class="fil5" d="M404.17 315.4c-1.07,9.17 4.33,3 1.31,18.39 -2.03,10.4 -0.44,5.87 0.32,8.08 1.17,3.39 -0.97,2.49 -1.4,7.83 3.51,1.86 2.62,0.6 4.14,2.51 -3.05,3.05 -9.13,2.19 -11.5,4.16l-3.97 2.52c-3.15,1.04 -4.46,0.83 -8.53,0.97l-1.06 2.35c10.91,0.31 44.06,-7.27 56.58,-9.95 16.06,-3.42 23.1,-7.86 36.49,-11.9 4.71,-1.42 6.51,-3.03 9.21,-6.84 1.95,-7.27 -3.1,-16.61 -8.96,-19.27 -3.45,-1.57 -7.38,-2.67 -11.73,-3.89 -4.57,-1.28 -5.3,-3.01 -9.63,-4.36l-22.64 -0.34 -8.42 2.81c1.17,0 22.07,0.14 22.47,-0.69 0.07,-0.16 0.41,0.02 0.59,0.09 -1.37,2.39 0.78,1.61 -5.33,1.92 -7.36,0.37 -18.11,-0.22 -25.05,1.56 -9.53,2.46 -5.79,-0.79 -12.89,4.05z"/>
   <path class="fil6" d="M233.01 435.19l-0.41 0.72c2.13,2.53 2.52,4.35 1.46,8.33 -6.92,2.39 -20.85,8.02 -28.95,6.6 -9.79,-1.71 -6.02,-1.47 -19.84,1.22 -4.93,0.96 -3.09,1.17 -10.69,1.54 -1.77,0.08 -8.78,1.12 -10.48,1.64 -2.87,0.87 -1.93,0.5 -2.57,2.15l-1.57 3.58c1.46,1.47 2.19,1.46 2.2,1.46 1.79,1.46 0.94,-0.55 1.82,1.88 -2.72,2.18 -2.04,2.5 -6.84,0.84l0.65 4.21c4.16,0.76 2.42,-0.25 4.43,-0.4 0.18,-0.01 0.49,-0.06 0.67,-0.06 0.2,0 0.52,-0.01 0.72,0.01 6.88,0.47 3.6,5.17 3.59,7.76 0,2.59 1.06,5.45 1.9,7.72 -4.46,1.37 -5.57,-2.68 -8.6,3.65l2.08 1.61c2.67,1.11 0.11,-3.32 1.88,2.73l2.68 -3.33 0.67 3.47c0.06,0.19 0.16,0.53 0.31,0.77l2.06 -3.93c0.2,0.23 -0.48,1.61 0.53,2.42l1.81 0.79c0.14,0.05 0.53,0.1 0.77,0.19 -1.3,3.74 -2.73,5.94 -4.02,9.36 -1.41,3.71 -1.56,6.05 -3.14,9.88l2.12 0c0.06,-1.18 0.05,-2.18 0.27,-3.21 0.47,-2.22 -0.28,0.06 0.93,-2.58 3.32,-7.28 1.6,-7.36 6.32,-15.13l15.28 0.07c0.05,0.01 0.28,0.09 0.33,0.11l1.96 1.72c0.85,1.36 0.44,-0.12 0.81,1.81 -0.03,-0.05 -2.71,-0.33 -0.06,-1.3 2.18,-0.8 -0.35,-0.62 2.33,0.1l-4.65 18.41 2.34 0c0.05,-0.74 0,-1.75 0.07,-2.49 0.58,-6.08 4.15,-8.85 3.31,-16.65 5.64,2.25 -4.09,0.09 1.49,0.1l18.09 -1.88c-1.98,0.95 -0.7,-0.02 0.9,1.03 0.14,0.09 1.4,-4.24 1.96,2.8 0,-0.02 -2.15,-1.08 1.26,-1.38 0.05,0 0.3,0.08 0.34,0.08 4.93,0.38 4.21,2.36 2.55,0.82 0.65,-0.98 0.83,-1.81 1.89,-3.03 2.03,-2.33 -0.36,0.05 1.34,-0.32 1.42,-2.25 1.11,-1.78 1.96,-3.71 -11.76,3.57 0.08,-0.72 -20.45,1.27l-3.29 0.11c-3.18,0.31 -5.36,1.09 -6.74,3.01l-0.74 -5.14c-8.78,1.54 -15.16,-0.33 -23.31,1.11 3.64,-3.61 -0.92,-0.88 3.91,-2.08l10.67 -0.61c1.21,-0.77 1.11,-1.25 3.24,-1.48 0.33,-5.94 -1.31,-3.26 -1.81,-8.37 1.05,-0.63 0.65,-0.52 2.38,-1.17 0.08,-0.03 1.53,-0.4 1.86,-0.5 -3.64,-1.2 -3.17,-0.48 -4.37,-2.51l2.55 -1.12c2.7,-1.61 0.15,1.23 1.65,-1.22 1.58,-2.58 -1.05,-2.19 -3.08,-2.29 0.01,-0.29 0.18,-1 0.23,-0.85l1.34 -3.84c17.27,-1.81 10.07,-3.44 13.52,2.74l1.36 -2.3c1.48,-2.63 10.82,-2.9 10.84,-2.9 2.03,0.72 0.65,1.08 2.47,3.18 1.77,-7.38 0.94,-3.96 10.47,-3.96 2.74,-2.67 -1.05,-1.02 8.79,-8.78 1.25,-0.98 0.38,-0.48 1.66,-1.19 10.81,2.56 5.46,2.71 17.53,2.9 -5.35,-2.98 3.13,-0.18 -6.97,-4.06 -2.59,-0.99 -0.99,0.67 -2.55,-1.41 5.54,-2.9 8.15,0.8 15.12,-0.03l2.98 -0.05c0.24,0.04 0.56,0.17 0.78,0.23 0.27,0.07 1.31,0.54 1.61,0.68l-1.63 -4.71c-2.1,-1.69 -0.61,-1.54 -2.16,-4.26 -1.08,-1.9 -1.62,-1.79 -3.06,-3.26 3.3,0.33 3,-0.56 4.18,-1.15 0.52,-4.61 1.28,-5.85 1.31,-10.88 3.17,-0.96 1.34,-0.24 3.05,-1.71 0.19,-0.16 1.39,-1.44 1.42,-1.5l0.69 -1.58c1.53,-4.1 2.69,-2.57 10.11,-3.29 -1.14,-0.76 -0.5,-0.54 -2.39,-1.24 -2.43,-0.9 -1.26,-0.39 -1.36,-0.13l9.41 -0.2 1.08 -4.53 -2.13 2.61 -20.5 1.6c-0.25,2.55 -0.17,0.34 -2.65,3.1 -0.11,0.12 -0.32,0.31 -0.42,0.45 -2.12,2.84 -0.89,6.41 -2.4,10.67l-2.25 6.72c-8.78,-0.56 -9.61,-13.6 -9.13,-18.9 1.38,-15.28 4.24,-15.79 -2.8,-18.84 2.39,-0.49 0.99,-0.62 2.03,-1.46 -13.08,0.25 -17.75,-1.68 -17.38,2.53 0.05,0.61 0.26,1.53 0.34,2.2l-1.2 36.46c-0.02,-0.08 -0.03,-0.18 -0.07,-0.25z"/>
   <path class="fil7" d="M463.41 491.98c-0.27,0.13 -0.65,0.3 -0.81,0.39l-1.79 1.06c-0.06,-0.11 -0.25,0.21 -0.38,0.32l-3.32 -3.05c-3.52,-3.49 0.97,-1.35 -4.38,-2.39 -4.07,-0.78 -8.14,-1.11 -11.78,-0.41 -0.86,2.42 -1.42,-2.44 0.69,0.77 1.22,1.84 1.24,-1.21 0.35,0.88 -2.63,-0.07 -6.3,-0.32 -8.65,-0.35 -0.61,0 -1.97,0.1 -2.17,0.07l-2.17 -0.86c0.15,4.97 0.86,2.35 0.97,3.78 0.01,0.2 -0.51,2 -0.52,3.08 -15.09,0.52 -31.45,-0.24 -45.69,0.67 -7.21,0.47 -14.92,0.39 -21.58,0.9 -3.12,0.24 -8.12,0.72 -9.7,0.64 -11.09,-0.53 -3.77,-0.08 -10.79,0.3 4.3,4.08 9.19,2.37 20.89,2.29 7.22,-0.04 14.72,0.21 22.03,0.21 -3.53,-0.06 -8.95,-0.17 -11.52,0.84 4.26,1.96 9.14,1.54 15.68,1.74l-4.33 1.15c7.15,0.44 10.2,-0.11 16.98,0.47 -3.94,0 -7.8,0.24 -11.67,0.38 -1.79,0.07 -4.88,0.03 -6.31,0.11 -2.46,0.13 -3.86,0.13 -6.1,1.37 6.97,0.66 6.58,-0.17 18.22,1.21l5.36 -0.63c5.37,-1.05 7.78,0.03 12.89,-0.05 6.61,-0.11 6.84,-2.12 10.58,1.45l0.58 -2.14c28.19,0.19 18.21,-3.5 40.25,0.7l-7.83 -4.69c6.29,-2.84 19.54,-0.77 25.93,-3.19 8.04,-3.04 14.6,2.39 28.68,4.24l0 -39.87c-18.77,0.09 -31.08,1.15 -50.19,-0.98l3.65 24.29c0.59,2.92 1.04,3.22 -2.05,5.3z"/>
   <path class="fil4" d="M129.99 324.51c-3.29,3.39 -4.42,7.68 1.28,10.49l3.34 0.35c12.26,-1.85 8.31,0.55 12.87,1.74 3.69,0.96 2.38,-0.54 6.28,1.61 9.59,5.31 -1.55,3.14 11.43,13.43l2.13 2.49c0.12,0.15 0.24,0.39 0.38,0.54l5.82 3.69c1.75,1.12 0.91,-0.14 1.92,1.46l-12.25 0.33c-0.05,2.59 0.73,5.57 -0.2,7.47 -1.62,3.27 2.67,-0.71 -2.07,2.5 -2.66,-5.41 -4.51,-4.46 -6.28,-8.59 -3.34,1.34 -0.79,-1.08 -1.64,2.73 2.67,1.31 2.39,2.06 3.5,4.19 -2.35,2.74 -5.58,4.2 -2.91,8.49l25.22 0.81c4.28,0.24 3.9,0.9 6.35,0.57 6.87,-0.91 28.56,-0.08 32.15,1.86 -19.19,0.2 -38.2,0.59 -56.4,0.23 -1.11,2.1 -3.52,4.41 -4.94,5.34 4.71,-0.13 3.49,0.57 3.95,-2.3l4.13 2.7 4.24 -1.25c9.15,-1.75 -4.97,1.91 17.7,1.95 0.61,-0.93 1.88,-0.34 -0.8,-3.94l5.88 0.38c0.32,1.53 4.54,3.18 6.41,3.8 -1.96,-4.56 -0.96,-1.11 1.05,-2.15 1.44,1.14 -1.16,0.9 5.18,0.82l17.72 0.59c3.46,0.1 26.61,1.21 29.02,-1.17l-14.3 0.04 -3.96 -5.48c-0.84,-1.57 -0.81,-0.16 -1.03,-2.53l9.14 0.31c0.44,-2.2 -2.04,0.83 -0.51,-3.94 -2.15,-0.08 -2.2,0.27 -3.93,-0.76l-1.8 -2.7 -20.89 -0.32c0.99,3.13 -2.19,2.92 3.85,3.21 -13.32,0.74 -30.37,0.02 -43.57,-0.03 -8.39,-0.04 -11.92,1.39 -15.41,-1.52l20.06 0.75 -0.33 -7.86c2.44,4.12 0.07,2.5 0.61,7.26 10.42,-0.98 5.71,-11.01 8.76,-19.45 1.74,3.26 0.66,3.29 -0.1,6.92 6.62,-12.28 0.29,-9.49 5.16,-18.46l-0.47 6.72c3.69,-1.61 3.65,-8.11 6.8,-11.56 0.18,0.16 0.53,0.12 0.56,0.48 0.05,0.41 0.37,0.49 0.42,0.69 0.67,2.76 -0.32,-4.11 0.26,2.22 3.62,-3.35 5.79,-6.89 4.12,-11.41l-1.52 -3.43c-0.24,0.22 -0.52,0.27 -0.65,0.72l-2.72 4.06c-0.61,1.3 -1.39,4.04 -1.51,4.32 -5.8,-2.2 2.78,-8.85 1.95,-21.05 -0.34,-4.89 -1.05,-3.32 -1.14,-3.46 -0.12,-0.2 -0.23,-0.38 -0.38,-0.58l-3.56 -3.47c-0.55,2.21 -1.18,4.09 -1.7,6.78l-1.44 14.92c0.12,3.07 0.85,5.02 0.99,8.41 -3.97,-2.94 -1.08,0.61 -2.26,-3.16l0.22 -10.22c-2.9,-0.76 -0.62,-0.62 -2.22,-0.02l-0.16 0.59c0,0.03 0.15,0.23 0.29,0.27 -2.65,-5.41 -2.19,-4.74 -5.22,-6.69 0,4.77 -1.09,7.64 -1.05,13.38 0.03,4.47 0.01,8.93 0.01,13.39 0.95,-0.88 0.6,0.38 0,-1.28 -3.9,-10.88 -1.19,-12.63 -3.08,-18.06 -1.87,-5.37 0.2,-1.68 -2.15,-3.25 -4.11,1.52 -1.46,0.17 -3.1,3.25 -1.1,2.06 1.37,1.15 -1.08,2.61l-3.05 -4.18 1.23 12.53c1.73,-1.55 -0.28,-0.83 -0.72,0.47 0,0 -1.3,0.6 0.4,3.57 -6.81,-2.63 2.34,-3.81 -7.94,-8.56 -7.59,-3.51 -6.21,-2.78 -20.29,-2.52 -4.19,0.08 -6.63,0.91 -7.89,-1.43 -0.63,0.5 -2.84,-0.04 -1.89,3.48 -0.36,-1.56 -1.16,-3.77 -2.27,-5.13z"/>
   <path class="fil6" d="M297.11 459.94l-1.74 4.11c-1.96,9.28 -5.97,22.65 -5.78,29.98l7.14 0.34c2.38,-0.16 0.9,1.68 2.01,-1l3.97 0.23c2.99,-0.45 2,-0.72 5.47,-0.69 6.53,0.05 -1.39,1.24 5.36,0.24 1.8,5.35 1.8,11.53 5,15.91 2.47,-4.97 -1.14,-8.36 -2.81,-12.96 2.12,-1.68 -3.73,-2.16 4.51,-1.15 -0.27,-0.19 -0.69,-0.74 -0.83,-0.54l-2.91 -1.79 -1.42 -4.54c3.82,-1.77 4.94,-4.44 0.55,-6.91 -0.17,-0.09 -0.49,-0.23 -0.65,-0.31l-1.38 -0.65c2.56,-4.64 -3.32,-1.11 2.57,-6.16 2.01,-1.71 4.73,-3.91 8.67,-4.23 4.51,-0.37 20.72,-0.33 26.81,-0.28l13.05 -0.25c-2.44,3.41 -3.13,0.73 -7.72,4 -2.3,1.65 -4.06,2.73 -6.4,4.01 5.03,1.86 33.35,3.3 42.45,3.7 2.54,0.11 4.46,0.37 6.98,0.46 1.27,0.05 2.59,-0.07 3.54,0.22 2.76,0.86 1.45,-0.02 2.79,1.88 -3.86,4.27 -4.28,0.99 -10.46,2.51l1.6 1.93c4.29,2.19 3.64,-0.25 3.77,-0.47 2.36,-1.94 2.33,-0.67 4.96,-3.41 1.15,-1.21 1.48,-2.71 2.7,-3.78 4.08,-3.6 3.52,1.19 7.28,-2.85 -0.23,0.3 3.89,0.19 -3.45,0.87 -0.2,-0.21 -0.45,-0.8 -0.54,-0.65 -1.03,1.61 -0.01,-0.72 -2.6,-3.24 -4.83,0.03 -5.6,-0.93 -11.48,-0.68 -4.53,0.2 -7.03,1.2 -11.41,0.66 -6.14,-0.75 -4.14,-2.37 -14.97,-1.66 -5.69,0.38 -4.83,-0.08 -6.26,-0.95 3.36,-3.41 6.17,-1.46 18,-1.8 0.65,-1.78 -2.54,1.65 -1.05,-1.72 10.39,-3.7 8.69,1.95 14.34,-2.85 0.15,-0.13 0.35,-0.42 0.57,-0.59 3.64,3.8 12.57,2.49 16.76,2.15 6.06,-0.48 11.56,2.21 20.41,2.18 -0.04,-0.02 -1.93,-0.94 -2.36,-1.15 -3.24,-1.61 1.42,0.11 -2.66,-1.32 2.25,-4.7 -2.69,3.24 1.4,-1.31 2.1,-2.33 2.07,-3.71 1.35,-8.11 -3.15,-0.72 -3.21,-1.12 -5.49,-2.52 -9.21,-5.69 -11.38,-0.84 -21.23,-1.58 -8.57,-0.64 -6.69,-0.75 -14.88,-0.02 -7.56,0.69 -8.73,-1.4 -15.08,-1.04l3.01 2.28 -9.38 2.01c-3.34,0.7 -0.05,-0.12 -1.04,0.44 -1.54,0.85 -1.92,1.87 -5.39,2.11 -4.77,0.33 -18.87,0.16 -25.26,0.15 -8.22,-0.02 -12.67,2.55 -19.86,4.28 -5.22,1.25 -3.65,0.73 -6,3.3 -2.71,2.97 1.43,0.95 -3.09,0.7l-0.91 -0.04c-2.42,0.08 1.14,0.4 -0.72,0.27 -2.53,-3.25 -0.46,-3.11 -10.27,-5.04l0.46 -2.68z"/>
   <path class="fil8" d="M302.83 377.21c-2.55,4.3 -2.57,2.15 -8.35,4.46l-0.01 -7.24c-1.52,4.17 -0.65,9.13 -0.92,13.92 -0.18,6.83 -1.78,13.04 -1.98,19.95l-1.08 4.53 -9.41 0.2c0.1,-0.26 -1.07,-0.77 1.36,0.13 1.89,0.7 1.25,0.48 2.39,1.24 -7.42,0.72 -8.58,-0.81 -10.11,3.29l-0.69 1.58c-0.03,0.06 -1.23,1.34 -1.42,1.5 -1.71,1.47 0.12,0.75 -3.05,1.71 -0.03,5.03 -0.79,6.27 -1.31,10.88 -1.18,0.59 -0.88,1.48 -4.18,1.15 1.44,1.47 1.98,1.36 3.06,3.26 1.55,2.72 0.06,2.57 2.16,4.26l-0.47 -5c11.37,-0.77 9.85,-0.81 18.15,-2.61 0.31,4.73 -0.6,7.7 -0.91,12.97 -0.08,1.46 -0.33,3.62 -0.9,5.76 -1.21,4.62 -1.61,1.39 -0.56,6.55l-1.18 5.61c-0.02,0.19 -0.1,0.86 -0.12,0.75 -0.01,-0.12 -0.03,0.52 -0.13,0.76l-36.37 -1.15 -0.2 -5.1c-1.63,2.23 -0.92,5.13 -1.84,3.29 -0.07,-0.14 -0.27,0.45 -0.46,0.64 -0.19,-2.38 -0.78,-3.43 0.08,-4.41l-3.97 0.64c-1.96,0.12 -2.01,-0.01 -3.73,-0.21 -2.9,6.44 -3.39,4.46 -8.17,4.94 -0.09,0.01 -0.39,0.04 -0.49,0.04l-5.44 0.36c0.92,-1.67 2.55,-2.02 3.6,-3.33l-12.39 1.42c-0.14,-3.26 0.22,-0.83 -0.31,-0.72l-2.41 1.28c-3.78,-2.02 -0.54,0.28 -2.88,-2.38l-1.36 2.3c-3.45,-6.18 3.75,-4.55 -13.52,-2.74l-1.34 3.84c-0.05,-0.15 -0.22,0.56 -0.23,0.85 2.03,0.1 4.66,-0.29 3.08,2.29 -1.5,2.45 1.05,-0.39 -1.65,1.22l-2.55 1.12c1.2,2.03 0.73,1.31 4.37,2.51 -0.33,0.1 -1.78,0.47 -1.86,0.5 -1.73,0.65 -1.33,0.54 -2.38,1.17 0.5,5.11 2.14,2.43 1.81,8.37 -2.13,0.23 -2.03,0.71 -3.24,1.48 8.81,-0.29 8.64,-1.61 13.72,-2.81l1.76 -14.05c4.92,0.75 1.27,0.94 5.18,0.88 6.09,-0.08 -0.56,-0.74 3.94,-0.62 1.59,0.04 6.43,1.31 9.92,1.8 4,0.57 10.1,0.27 12.03,0.51l2.09 0.41c0.1,0.03 0.39,0.09 0.49,0.13 0.54,0.19 1.43,-1.77 2.28,3.55 1.77,-4.07 0.16,-2.43 1.69,-2.16 0.91,10.38 -1.77,5.85 -9.32,10.5 -1.04,0.65 -0.85,-0.47 -1.78,1.72l-0.91 -3.06c-3.43,4.33 -2.82,2.34 -6.26,2.37l-20.47 2.33c-6,1.16 -3.18,0.98 -3.06,1.48 -1.28,-3.54 0.41,-0.11 -2.57,-1.4l0.74 5.14c1.38,-1.92 3.56,-2.7 6.74,-3.01l3.29 -0.11c20.53,-1.99 8.69,2.3 20.45,-1.27l0.76 2.26 2.57 -1.81c0.07,0.03 0.29,0.2 0.36,0.25l2.72 -1.94 0.77 5.04c1.75,-3.33 -0.4,-1.5 2.96,-2.89l0.34 6.64c-0.07,-4.45 0.01,-6.2 2.62,-9l0.27 26.08 0.36 0c-0.15,-3.71 -2.04,-21.41 2.26,-23.72 3.33,-1.8 1.13,-0.82 5.5,-0.59 1.37,-1.76 -0.5,-0.34 2.94,-1.05 6.09,-1.23 13.9,-1.83 20.44,-5.21 4.22,-2.18 3.37,-2.48 9.31,-2.04 2.05,-7.39 -1.08,-1.69 2.94,-9.94 3.7,-7.57 7.18,-63.52 8.98,-75.66 2.6,-17.6 3.85,-10.57 10.22,-13.72 0.21,-0.1 0.81,-0.48 1.04,-0.61 0.16,-0.09 0.42,-0.24 0.59,-0.34l3.56 -2.65c-0.93,-1.88 -1.21,-2.31 -2.14,-4.01 -0.25,0.2 -0.49,0.48 -0.63,0.67 -0.15,0.19 -0.42,0.44 -0.58,0.68 -1.76,2.66 -0.93,3.1 -1.61,5.49 -4.24,-0.83 -1.68,1.68 -2.99,-2.09z"/>
   <path class="fil3" d="M105.59 62.96c15.42,-1.27 193.18,-0.65 196.64,0.55 0.78,1.75 2.21,202.77 0.28,209.56l-190.31 0.27c5.6,2.82 86.82,0 102,1.2l22.99 1.06c8.71,0.05 17.42,0.06 26.12,0.11 14.96,0.1 38.58,2.64 48.46,-2.65l-0.86 -50.52c-0.15,-15.69 -0.69,-121.11 0.68,-130.02 1.23,-7.99 -0.15,-18.05 0.49,-26.43 -0.07,-0.17 -2.51,-3.02 -5.64,-3.9 -5.83,-1.63 -0.99,-0.96 -7.51,-0.54l-83.68 0.12c-14.16,-0.11 -104.25,-1.15 -109.66,1.19z"/>
   <path class="fil6" d="M232.6 435.91l0.41 -0.72 -5.77 -1.56 -0.13 -32.4 -14 -0.4c-3.92,-3.47 -1.67,-5.65 -6.75,-7.48 -0.18,3.01 0.52,0.61 -0.94,0.97 -3.26,0.81 0.06,-0.4 -1.1,-0.28 -0.19,4.9 -0.33,2.89 -6.09,9.78 -6.31,7.53 -6.05,1.78 -9.33,7.4 -2.25,3.87 -1.7,3.79 -3.37,4.53 -0.15,0.07 -0.75,0.01 -1.1,0.04l2.27 2.87c0.11,0.1 0.38,0.31 0.56,0.48 -2.17,2.27 -1.31,3.09 -3.82,3.96 -4.42,1.53 -0.95,-3.14 -3.42,-0.19 -3.99,0.49 -0.79,-0.27 -2.07,1.68 -0.25,0.38 3.31,0.47 -1.49,1.52 -1.62,0.35 -5.99,-0.67 -8.09,1.39 -0.09,0.09 -0.22,0.32 -0.3,0.42 -0.07,0.1 -0.13,0.35 -0.19,0.45 -2.46,4.25 2.35,-1.91 -0.53,1.34 -2.3,2.62 -0.41,-0.16 -3.52,1.75 -0.18,0.11 -0.43,0.26 -0.59,0.38l-1.28 1.53c-1.83,2.16 1.57,0.91 -2.76,2.2 10.78,2.08 34.21,4.87 45.53,4.11 2.7,-0.18 3.31,-1.06 8.36,-1.25 4.84,-0.18 12.38,-0.28 17.07,-1.63l2.44 -0.89z"/>
   <path class="fil6" d="M357.71 348.42l-1.71 6.95c-4.88,0.17 -9.53,0.25 -9.08,5.09 0.36,3.89 5.44,4.51 3.16,9.28 -2.28,-2.25 -2.07,-1.66 -3.32,-4.73 -3.58,2.26 -2.4,0.48 -4.88,8.08 9.09,-0.99 10.22,-3.35 16.88,-3.99l3.83 -2.14c2.74,-2.1 8.92,-15.25 14.74,-18.21 -0.7,2.63 -2.32,4.26 -3.91,7.26 0.32,-0.12 0.75,-0.59 0.91,-0.4 0.16,0.18 0.67,-0.29 0.87,-0.41 5.24,-3.14 4.62,-6.73 2.51,-11.36l2.85 -0.7c0.02,-0.01 3.07,-2.51 3.08,-2.52 2,-2.46 1.42,-3.45 4.5,-6.4l8.92 -12.79c4.62,1.91 1.56,-0.07 3.81,3.65l3.3 -9.68c7.1,-4.84 3.36,-1.59 12.89,-4.05 6.94,-1.78 17.69,-1.19 25.05,-1.56 6.11,-0.31 3.96,0.47 5.33,-1.92 -0.18,-0.07 -0.52,-0.25 -0.59,-0.09 -0.4,0.83 -21.3,0.69 -22.47,0.69l8.42 -2.81 22.64 0.34c-1.82,-2.3 1.02,-1.04 -4.01,-1.95 -0.72,-0.13 -3.32,-0.09 -4.17,-0.07 -3.1,0.05 -5.21,0.13 -8.37,0.01 -14.5,-0.55 -40.29,1.77 -46.76,-1.97 -7.63,0.84 -7.66,4.17 -11.04,9.01l-11.26 18.37c-3.39,8.35 -3.39,3.32 -6.92,12.86 -2.15,5.82 -3.5,2.61 -5.2,6.16z"/>
   <path class="fil9" d="M493.01 336.51c1.24,6.63 1.13,19.86 1.47,27.29 0.66,14.43 3.33,72.76 5.4,79.23l12.12 0.93 0 -109.38 -2.16 0c0,8.93 -0.93,5.86 -4.06,7.59l-0.12 5.02c-0.2,0.12 -0.54,0.21 -0.67,0.28 -4.43,2.28 -3.98,4.58 -4.17,4.15 -0.05,-0.12 -0.16,0.42 -0.3,0.61l-1.08 -15.09c-0.14,0.19 -0.22,0.47 -0.26,0.61 -1.94,6.33 0.5,5.13 -2.85,6.23 -3.13,-1.46 0.48,2.69 -0.85,-1.31 -0.19,-0.55 -0.54,-4.93 -2.47,-6.16z"/>
   <path class="fil10" d="M0 485.94c10.58,0.37 19.91,-1.74 32.64,-1.46 2.97,0.06 0.44,0.22 2.33,-0.64 1.86,-0.84 -1.27,0.24 0.92,-0.35 0.6,-0.16 0.31,0.22 1.31,-0.19 0.08,-0.25 0.12,-0.59 0.13,-0.76l-0.79 -2.38c4.85,-0.06 4.37,-0.81 7.36,-3.41 3.94,-3.43 12.33,-11.14 12.52,-15.91 10.5,-2.01 1.47,1.4 7.79,-0.54 4.93,-1.51 4.29,-2.16 4.8,-4.35 -4.15,-1.87 -10.87,-0.51 -15.91,-0.47l-53.1 -0.83 0 31.29z"/>
   <path class="fil11" d="M401.25 487.53l19.69 -0.02c-1.72,2.64 -8.31,1.38 -16.56,1.43 -6.76,0.05 -14,0.25 -20.81,0.4l1.98 0.68c0.3,0.06 0.65,0.19 1.01,0.26l16.77 0.4c6.58,0.09 13.4,0.5 19.85,-0.23l1.93 -5.16 3.89 3.12 2.17 0.86c0.2,0.03 1.56,-0.07 2.17,-0.07 2.35,0.03 6.02,0.28 8.65,0.35 0.89,-2.09 0.87,0.96 -0.35,-0.88 -2.11,-3.21 -1.55,1.65 -0.69,-0.77 3.64,-0.7 7.71,-0.37 11.78,0.41 5.35,1.04 0.86,-1.1 4.38,2.39l3.32 3.05c0.13,-0.11 0.32,-0.43 0.38,-0.32l1.79 -1.06c0.16,-0.09 0.54,-0.26 0.81,-0.39 -5.74,-1.08 -4.82,-1.59 -5.73,-5.72l-6.23 -25.41 -9.46 -1.55c-0.25,0.19 -0.47,0.47 -0.64,0.64 -2.31,2.42 -2.39,4.15 -5.32,3.4 -2.47,-0.64 -3.17,-3.86 -3.39,-5.31 -0.06,-0.4 -0.2,-0.5 -0.4,-0.71 0.72,4.4 0.75,5.78 -1.35,8.11 -4.09,4.55 0.85,-3.39 -1.4,1.31 4.08,1.43 -0.58,-0.29 2.66,1.32 0.43,0.21 2.32,1.13 2.36,1.15 -8.85,0.03 -14.35,-2.66 -20.41,-2.18 -4.19,0.34 -13.12,1.65 -16.76,-2.15 -0.22,0.17 -0.42,0.46 -0.57,0.59 -5.65,4.8 -3.95,-0.85 -14.34,2.85 -1.49,3.37 1.7,-0.06 1.05,1.72 -11.83,0.34 -14.64,-1.61 -18,1.8 1.43,0.87 0.57,1.33 6.26,0.95 10.83,-0.71 8.83,0.91 14.97,1.66 4.38,0.54 6.88,-0.46 11.41,-0.66 5.88,-0.25 6.65,0.71 11.48,0.68 2.59,2.52 1.57,4.85 2.6,3.24 0.09,-0.15 0.34,0.44 0.54,0.65 7.34,-0.68 3.22,-0.57 3.45,-0.87 -3.76,4.04 -3.2,-0.75 -7.28,2.85 -1.22,1.07 -1.55,2.57 -2.7,3.78 -2.63,2.74 -2.6,1.47 -4.96,3.41z"/>
   <path class="fil9" d="M467.1 441.8l26.37 0.67 -4.39 -91.97c-5.23,14.57 -7.57,30.23 -12.21,44.69l-9.26 32.66c-0.73,4.08 -0.31,9.6 -0.51,13.95z"/>
   <path class="fil6" d="M99.27 380.85c0.59,2.68 2.55,3.35 4.17,5.37 4.32,-1.45 1.71,-1.65 6.07,-2.62l-7.41 3.89 46.28 -0.1c2.66,0.09 4.73,0 7.37,-0.05l6.48 0.67c0.17,0.05 0.5,0.17 0.7,0.31 1.79,-1.06 3.49,-1.97 5.36,-2.93l-4.24 1.25 -4.13 -2.7c-0.46,2.87 0.76,2.17 -3.95,2.3 1.42,-0.93 3.83,-3.24 4.94,-5.34 18.2,0.36 37.21,-0.03 56.4,-0.23 -3.59,-1.94 -25.28,-2.77 -32.15,-1.86 -2.45,0.33 -2.07,-0.33 -6.35,-0.57l-25.22 -0.81c-2.67,-4.29 0.56,-5.75 2.91,-8.49 -1.11,-2.13 -0.83,-2.88 -3.5,-4.19l-5.81 -3.92c-1.52,-0.81 -1.11,-0.64 -1.83,-1.22 -9.67,-7.86 -8.55,-6.06 -17.05,-11.33 -2.13,-1.31 -1.23,-1 -3.94,-1.93 0.08,-4.42 0.76,-6.02 1.45,-10.35 -1.99,3.08 -0.17,0.59 -1.48,1.25 -0.18,0.1 -0.95,0.34 -1.11,0.4 -0.1,0.03 -0.56,0.32 -0.64,0.17 -0.08,-0.16 -0.47,0.07 -0.68,0.17 -0.19,1.23 -0.55,2.35 -0.38,3.54 0.65,4.44 3.06,0.98 2.54,5.54 -0.64,5.55 -1.98,-0.92 -3.16,5.11 -0.91,4.64 -0.31,7.1 1.25,11.04 1.02,2.58 -0.22,1.71 1.51,3.86 1.65,2.07 1.6,0.96 2.4,1.21 8.22,2.5 2.14,4.96 1.57,5.7 -1.56,2.01 -1.43,1.03 0.14,5.73 4.91,-0.93 2.74,-1.8 7.98,-0.67 -1.5,3.38 0.4,1.95 -3.96,3.17l-32.53 -1.37z"/>
   <path class="fil3" d="M199.77 339.66c-0.58,-6.33 0.41,0.54 -0.26,-2.22 -0.05,-0.2 -0.37,-0.28 -0.42,-0.69 -0.03,-0.36 -0.38,-0.32 -0.56,-0.48 -3.15,3.45 -3.11,9.95 -6.8,11.56l0.47 -6.72c-4.87,8.97 1.46,6.18 -5.16,18.46 0.76,-3.63 1.84,-3.66 0.1,-6.92 -3.05,8.44 1.66,18.47 -8.76,19.45 -0.54,-4.76 1.83,-3.14 -0.61,-7.26l0.33 7.86 -20.06 -0.75c3.49,2.91 7.02,1.48 15.41,1.52 13.2,0.05 30.25,0.77 43.57,0.03 -6.04,-0.29 -2.86,-0.08 -3.85,-3.21l20.89 0.32 1.8 2.7c1.73,1.03 1.78,0.68 3.93,0.76 -1.53,4.77 0.95,1.74 0.51,3.94l-9.14 -0.31c0.22,2.37 0.19,0.96 1.03,2.53l3.96 5.48 14.3 -0.04c-2.41,2.38 -25.56,1.27 -29.02,1.17l-17.72 -0.59c-6.34,0.08 -3.74,0.32 -5.18,-0.82 -2.01,1.04 -3.01,-2.41 -1.05,2.15l0.66 0.74 1.56 0 27.04 -0.71c8.88,0 20.45,-0.89 28.76,-0.48l0.09 -9.54 -13.07 -0.56c4.17,-11.51 -4.82,-8.63 -0.71,-8.35 1.22,-4.96 -0.28,0.04 5.69,-2.74 -0.43,-3.3 0.14,-2.25 -3.18,-3.64 -0.23,-0.1 -4.82,-1.59 -4.86,-1.6 -5.7,-1.58 -32.32,-0.52 -37.24,0.07 2.67,-4.67 16.34,-28.07 16.42,-31.34 -4.88,3.19 -2.26,3.35 -7.18,7.99 -2.54,2.4 -2.82,5.19 -4.45,9.37 0.31,-1.91 -0.94,-1.96 -0.49,-5.77 -1.15,0.82 -0.85,0.52 -2,1.68l-8.25 22.17c0.08,1.32 0.05,0.89 -0.31,2.77 -0.51,-3.02 -0.05,-0.92 0.98,-1.7l-3.28 -1.17c-5.07,-1.97 1.98,3.26 -1.81,-0.85 0.84,-2.34 1.54,-3.69 2.43,-6.17 0.65,-1.83 1.26,-3.7 2.17,-5.82 1.98,-4.61 2.47,-7.24 3.32,-12.27z"/>
   <path class="fil6" d="M84.91 439.63c3.11,-0.68 6.19,-4.73 5.96,-8.52 0,-0.06 -0.04,-0.29 -0.04,-0.35 -0.05,-1.89 0.2,-1.28 3.28,-2.27l-4.7 -0.84 5.28 -1.43c-3.72,-0.33 -4.53,-0.58 -7.2,-2.07l2.61 -0.93c-0.29,-0.07 -0.6,-0.17 -0.86,-0.24l5.89 -1.5 -2.72 -1.21c-0.15,-0.09 -0.47,-0.28 -0.71,-0.43 4.09,-0.17 2.79,0.73 4.15,-1.19l-9.44 -1.03c2.07,-1.8 1.59,-0.85 2.22,-2.73 1.01,-2.99 -0.5,-9.12 -1,-11.62l-2.57 -6.99c-0.07,-0.11 -0.22,-0.33 -0.28,-0.44 -0.06,-0.11 -0.17,-0.34 -0.23,-0.44 -1.8,-3.02 1.48,-1.82 -2.95,-2.16 0.91,3.33 1.16,2.54 -0.97,5.1l-3.58 -7.43c-1.78,-5.11 0.81,-4.46 0.95,-9.28 3.51,-0.47 7.61,-0.63 8.85,-0.98 -0.38,-3.49 -0.08,-1.2 -2.23,-4.23 -7.82,0.47 -9.99,3.91 -15.97,5.21 0.54,4.43 1.21,2.57 1.8,6.62l2.15 19.65 2.2 -4.96c0.97,-1.5 0.49,-0.89 1.48,-1.75 1.73,2.25 1.48,3.5 1.99,6.49 1.37,7.96 4.03,11.27 5.04,17.31 -2.69,1.71 -4.59,2.87 -7.03,4.97 -1.84,-2.97 -4.16,-5.75 -5.75,-9.21 -0.27,-0.59 -1.5,-4.44 -1.58,-5.25 -0.55,-5.21 1.1,-0.26 0.35,-4.47l-3.25 -10.81c-1.48,-3.29 -4.47,-4.14 -3.71,-9.11l-1.27 5.23c-0.06,-0.13 -0.27,0.52 -0.47,0.75 -1.56,-1.48 -0.59,0.9 -1.88,-3.02 -1.43,-4.31 1.77,-15.67 -1.25,-15.41 -3.43,1.11 -0.21,-0.01 -1.83,3.5 -1.56,3.35 -2.49,2.92 -3.4,3.33 -2.27,-0.83 -2.74,-1.04 -4.23,-4.15 -1.22,-2.52 -1.46,-3.1 -1.42,-6.15 2.14,-1.47 2.34,-2.21 5.05,-3.35 -2.81,-0.61 -1.08,0.09 -1.79,-1.73 -6.58,1.23 -6.88,2.37 -6.91,5.3 -0.04,3.69 -0.32,8.58 1.68,12.27 6.17,11.36 6.43,15.22 9.25,20.75 3.22,6.31 9.26,12.08 13.43,17.78l4.97 5.25c2.59,2.45 5.57,8.01 12.64,8.17z"/>
   <path class="fil12" d="M254.87 391.43c-0.55,2.74 0.25,2.34 -3.55,2.82 -1.04,0.84 0.36,0.97 -2.03,1.46 7.04,3.05 4.18,3.56 2.8,18.84 -0.48,5.3 0.35,18.34 9.13,18.9l2.25 -6.72c1.51,-4.26 0.28,-7.83 2.4,-10.67 0.1,-0.14 0.31,-0.33 0.42,-0.45 2.48,-2.76 2.4,-0.55 2.65,-3.1l20.5 -1.6 2.13 -2.61c0.2,-6.91 1.8,-13.12 1.98,-19.95l-7.19 -0.23 0.18 -3.36c-4.19,3.39 -1.1,3.13 -7.55,3.78 -15.67,1.57 -13.36,3.31 -17.57,5.47 -2.79,1.44 -5.07,0.94 -5.42,4.7 0.21,-5.16 3.19,-3.62 -1.13,-7.28z"/>
   <path class="fil11" d="M80.9 367.91l0.6 -1.29c3,0.1 2.57,0.21 4.24,1.37 0.31,-2.82 -0.28,-2.06 1.41,-3.75 0.11,-5.35 -1.1,-13.27 1.05,-17.48l23.6 0.52c-1.64,-1.22 1.31,-1.37 -3.12,-1.76 2.82,-0.82 0.63,0.7 4.19,-0.62 -4.14,-1.18 -3.11,-0.44 -4.67,-2.94 3.83,0.68 5.65,-0.03 8.69,1.44 2.29,-1.19 2.03,1.88 1.7,-2.18l-31.09 -0.41 0.37 -6.35c11.54,-1.28 9.26,-0.26 16.66,-0.05 4.38,0.13 4.09,-0.05 5.52,-0.87 -2.9,-1.13 -2.53,-0.53 -4.72,-1.03 -3.66,-0.82 -2.85,2.24 -2.79,-1.27 0.07,-3.55 -0.95,-0.34 4.98,-1.73 0.32,-0.07 0.85,0.07 1.09,-0.3 0.24,-0.37 0.78,-0.14 1.1,-0.32l-22.03 -0.12c-0.85,-3.88 -1.1,-6.51 1.07,-9.22l-7.22 0.83 -0.96 8.32c-14.6,0.31 -36.57,-0.35 -46.45,5.64l0.15 3.92c2.83,-0.35 6.09,-1.77 9.28,-2.38 11.32,-2.16 25.36,-1.95 37.13,-1.47l-0.96 6.32c-16.11,0.86 -30.72,-0.7 -43.78,4.37l0.21 4.89c6.59,-0.66 4.91,-1.94 21.33,-2.47 4.24,-0.14 7.08,-0.76 11.4,-0.52 4.09,0.23 5.69,0.6 11.36,0.29 -0.41,3.37 -1.84,17.67 0.66,20.62z"/>
   <path class="fil11" d="M342.23 218.49c0.98,-1.13 1.28,-1.74 6.46,-1.73 26.63,0.06 20.76,0.88 21.03,-21 0.05,-4.18 1.89,-15.19 -1.46,-18.42l-22.8 1.4 -5.41 38.76c1.19,0.8 0.42,0.48 2.18,0.99z"/>
   <path class="fil3" d="M113.84 328.46l4.23 1.18c1.28,-1.81 0.66,-3.31 2.14,-4.35 3.53,-2.46 2.94,2.69 3.65,4.85 1.46,4.47 2.88,0.97 1.96,5.86 -0.69,4.33 -1.37,5.93 -1.45,10.35 2.71,0.93 1.81,0.62 3.94,1.93 8.5,5.27 7.38,3.47 17.05,11.33 0.72,0.58 0.31,0.41 1.83,1.22l5.81 3.92c0.85,-3.81 -1.7,-1.39 1.64,-2.73 1.77,4.13 3.62,3.18 6.28,8.59 4.74,-3.21 0.45,0.77 2.07,-2.5 0.93,-1.9 0.15,-4.88 0.2,-7.47l12.25 -0.33c-1.01,-1.6 -0.17,-0.34 -1.92,-1.46l-5.82 -3.69c-0.14,-0.15 -0.26,-0.39 -0.38,-0.54l-2.13 -2.49c-12.98,-10.29 -1.84,-8.12 -11.43,-13.43 -3.9,-2.15 -2.59,-0.65 -6.28,-1.61 -4.56,-1.19 -0.61,-3.59 -12.87,-1.74l-3.34 -0.35c-5.7,-2.81 -4.57,-7.1 -1.28,-10.49 0.36,-2.79 1.3,-4.7 2.72,-6.88 0.4,-0.59 1.57,-1.8 1.67,-3.08 0.47,-5.66 -0.17,-2.54 -1.68,-4.03 -4.23,1.85 -1.18,1.95 -4.11,5.19 -2.82,3.11 0.22,-0.6 -2.65,1.81 -2.74,2.3 -0.67,2.36 -3.41,4.75l-2.36 1.36c-3.3,2.26 -1.4,0.22 -2.75,4.3l-3.58 0.53z"/>
   <path class="fil2" d="M229.27 487.37c-0.85,1.93 -0.54,1.46 -1.96,3.71 -1.7,0.37 0.69,-2.01 -1.34,0.32 -1.06,1.22 -1.24,2.05 -1.89,3.03 1.66,1.54 2.38,-0.44 -2.55,-0.82 -0.04,0 -0.29,-0.08 -0.34,-0.08 -3.41,0.3 -1.26,1.36 -1.26,1.38 -0.56,-7.04 -1.82,-2.71 -1.96,-2.8 -1.6,-1.05 -2.88,-0.08 -0.9,-1.03l-18.09 1.88c-5.58,-0.01 4.15,2.15 -1.49,-0.1 0.84,7.8 -2.73,10.57 -3.31,16.65 -0.07,0.74 -0.02,1.75 -0.07,2.49l48.53 0 -0.27 -26.08c-2.61,2.8 -2.69,4.55 -2.62,9l-0.34 -6.64c-3.36,1.39 -1.21,-0.44 -2.96,2.89l-0.77 -5.04 -2.72 1.94c-0.07,-0.05 -0.29,-0.22 -0.36,-0.25l-2.57 1.81 -0.76 -2.26z"/>
   <path class="fil10" d="M168.29 385.39c-1.87,0.96 -3.57,1.87 -5.36,2.93 -4.51,2.05 -11.23,7.34 -12.09,12.58 -0.09,0.22 -0.25,0.3 -0.3,0.63 -0.48,3.42 -0.96,-0.74 -2.16,13.76 2.96,-0.18 1.72,-0.16 3.44,-0.6l2.55 -0.79c3.2,-1.33 2.68,-2.26 5.56,-3.89 5.13,-2.9 18.51,3.41 22.29,-6.47 6.12,-0.32 4.85,0.48 8.92,-2.74l1.63 -1.07c2.71,-1.97 1.27,-1.85 2.91,-3.84 1.23,-1.5 3.91,-2.22 5.48,-3.26 -2.7,-2.48 -3.53,-2.97 -3.02,-4.31l-0.66 -0.74c-1.87,-0.62 -6.09,-2.27 -6.41,-3.8l-5.88 -0.38c2.68,3.6 1.41,3.01 0.8,3.94 -22.67,-0.04 -8.55,-3.7 -17.7,-1.95z"/>
   <path class="fil8" d="M358.76 369.1l8.09 -0.18c0.73,-1.47 0.68,-1.75 1.29,-3.9 7.41,-0.43 8.56,-2.82 15.34,-2.81l1.06 -2.35c4.07,-0.14 5.38,0.07 8.53,-0.97l3.97 -2.52c2.37,-1.97 8.45,-1.11 11.5,-4.16 -1.52,-1.91 -0.63,-0.65 -4.14,-2.51 0.43,-5.34 2.57,-4.44 1.4,-7.83 -0.76,-2.21 -2.35,2.32 -0.32,-8.08 3.02,-15.39 -2.38,-9.22 -1.31,-18.39l-3.3 9.68c-2.25,-3.72 0.81,-1.74 -3.81,-3.65l-8.92 12.79c-3.08,2.95 -2.5,3.94 -4.5,6.4 -0.01,0.01 -3.06,2.51 -3.08,2.52l-2.85 0.7c2.11,4.63 2.73,8.22 -2.51,11.36 -0.2,0.12 -0.71,0.59 -0.87,0.41 -0.16,-0.19 -0.59,0.28 -0.91,0.4 1.59,-3 3.21,-4.63 3.91,-7.26 -5.82,2.96 -12,16.11 -14.74,18.21l-3.83 2.14z"/>
   <path class="fil2" d="M208.19 462.13c2.34,2.66 -0.9,0.36 2.88,2.38l2.41 -1.28c0.53,-0.11 0.17,-2.54 0.31,0.72l12.39 -1.42c-1.05,1.31 -2.68,1.66 -3.6,3.33l5.44 -0.36c0.1,0 0.4,-0.03 0.49,-0.04 4.78,-0.48 5.27,1.5 8.17,-4.94 1.72,0.2 1.77,0.33 3.73,0.21l3.97 -0.64c-0.86,0.98 -0.27,2.03 -0.08,4.41 0.19,-0.19 0.39,-0.78 0.46,-0.64 0.92,1.84 0.21,-1.06 1.84,-3.29l0.2 5.1 36.37 1.15c0.1,-0.24 0.12,-0.88 0.13,-0.76 0.02,0.11 0.1,-0.56 0.12,-0.75l1.18 -5.61c-3.42,0.87 -1.67,0.98 -5.41,0.26 -2.05,-3.4 0,-5.05 -0.48,-10.71 -1.83,-0.98 -6.05,-2.7 -7.79,-2.51 -0.3,-0.14 -1.34,-0.61 -1.61,-0.68 -0.22,-0.06 -0.54,-0.19 -0.78,-0.23l-2.98 0.05c-6.97,0.83 -9.58,-2.87 -15.12,0.03 1.56,2.08 -0.04,0.42 2.55,1.41 10.1,3.88 1.62,1.08 6.97,4.06 -12.07,-0.19 -6.72,-0.34 -17.53,-2.9 -1.28,0.71 -0.41,0.21 -1.66,1.19 -9.84,7.76 -6.05,6.11 -8.79,8.78 -9.53,0 -8.7,-3.42 -10.47,3.96 -1.82,-2.1 -0.44,-2.46 -2.47,-3.18 -0.02,0 -9.36,0.27 -10.84,2.9z"/>
   <path class="fil13" d="M150.84 400.9c0.86,-5.24 7.58,-10.53 12.09,-12.58 -0.2,-0.14 -0.53,-0.26 -0.7,-0.31l-6.48 -0.67c-2.64,0.05 -4.71,0.14 -7.37,0.05l-46.28 0.1c-2.64,2.52 -0.16,-0.55 -0.13,4.73 0.02,2.58 -0.72,5.91 -0.88,9.01l49.75 -0.33z"/>
   <path class="fil4" d="M87.15 364.24c-0.53,8.4 1.83,6.35 12.71,5.95 5.91,-0.22 13.89,-0.25 19.42,-1.08 1.24,-8.44 -2.48,-14.64 -1.92,-21.1l-5.56 -0.73 -23.6 -0.52c-2.15,4.21 -0.94,12.13 -1.05,17.48z"/>
   <path class="fil13" d="M206.36 393.35c5.08,1.83 2.83,4.01 6.75,7.48l14 0.4 0.13 32.4 5.77 1.56c0.04,0.07 0.05,0.17 0.07,0.25l1.2 -36.46c-0.08,-0.67 -0.29,-1.59 -0.34,-2.2 -0.37,-4.21 4.3,-2.28 17.38,-2.53 3.8,-0.48 3,-0.08 3.55,-2.82l0.63 -4.3c-8.31,-0.41 -19.88,0.48 -28.76,0.48l-27.04 0.71c2.73,0.92 5.3,3.14 6.66,5.03z"/>
   <path class="fil13" d="M113.84 328.46l-4.13 0.43c-0.32,0.18 -0.86,-0.05 -1.1,0.32 -0.24,0.37 -0.77,0.23 -1.09,0.3 -5.93,1.39 -4.91,-1.82 -4.98,1.73 -0.06,3.51 -0.87,0.45 2.79,1.27 2.19,0.5 1.82,-0.1 4.72,1.03 2.14,1.38 4.43,1.82 7.64,2.25l0.9 5.43c0.33,4.06 0.59,0.99 -1.7,2.18 -3.04,-1.47 -4.86,-0.76 -8.69,-1.44 1.56,2.5 0.53,1.76 4.67,2.94 -3.56,1.32 -1.37,-0.2 -4.19,0.62 4.43,0.39 1.48,0.54 3.12,1.76l5.56 0.73c-0.56,6.46 3.16,12.66 1.92,21.1 -5.53,0.83 -13.51,0.86 -19.42,1.08 -10.88,0.4 -13.24,2.45 -12.71,-5.95 -1.69,1.69 -1.1,0.93 -1.41,3.75 -1.67,-1.16 -1.24,-1.27 -4.24,-1.37l-0.6 1.29 -0.85 5.99c14.23,2.65 32.19,0.91 37.89,1.85 2.47,0.41 0.95,-0.05 2.5,0.72l0.09 2.51c-0.35,0.11 -0.76,-0.02 -0.92,0.24 -0.15,0.26 -0.63,0.18 -0.84,0.22 -4.24,0.62 -4.23,0.14 -8.21,-0.12 -3.8,-0.24 -8.68,-0.38 -12.51,-0.36l1.22 1.89 32.53 1.37c4.36,-1.22 2.46,0.21 3.96,-3.17 -5.24,-1.13 -3.07,-0.26 -7.98,0.67 -1.57,-4.7 -1.7,-3.72 -0.14,-5.73 0.57,-0.74 6.65,-3.2 -1.57,-5.7 -0.8,-0.25 -0.75,0.86 -2.4,-1.21 -1.73,-2.15 -0.49,-1.28 -1.51,-3.86 -1.56,-3.94 -2.16,-6.4 -1.25,-11.04 1.18,-6.03 2.52,0.44 3.16,-5.11 0.52,-4.56 -1.89,-1.1 -2.54,-5.54 -0.17,-1.19 0.19,-2.31 0.38,-3.54 0.21,-0.1 0.6,-0.33 0.68,-0.17 0.08,0.15 0.54,-0.14 0.64,-0.17 0.16,-0.06 0.93,-0.3 1.11,-0.4 1.31,-0.66 -0.51,1.83 1.48,-1.25 0.92,-4.89 -0.5,-1.39 -1.96,-5.86 -0.71,-2.16 -0.12,-7.31 -3.65,-4.85 -1.48,1.04 -0.86,2.54 -2.14,4.35l-4.23 -1.18z"/>
   <path class="fil12" d="M297.11 459.94l-0.46 2.68c9.81,1.93 7.74,1.79 10.27,5.04 1.86,0.13 -1.7,-0.19 0.72,-0.27l0.91 0.04c4.52,0.25 0.38,2.27 3.09,-0.7 2.35,-2.57 0.78,-2.05 6,-3.3 7.19,-1.73 11.64,-4.3 19.86,-4.28 6.39,0.01 20.49,0.18 25.26,-0.15 3.47,-0.24 3.85,-1.26 5.39,-2.11 0.99,-0.56 -2.3,0.26 1.04,-0.44l9.38 -2.01 -3.01 -2.28c-10.11,2.18 -12.44,-0.78 -20.83,0.18 -9.33,1.06 -11.4,-0.93 -19.29,-0.69 -3.48,0.1 -5.4,0.94 -9.44,0.82 -5.14,-0.14 -4.29,-1.08 -8.43,-1.25 -4.49,-0.18 -4.52,0.87 -9.31,0.96 -5.43,0.11 -5.29,-0.9 -9.42,-1.23 -1.47,2.24 -2.51,6.1 -1.73,8.99z"/>
   <path class="fil2" d="M243 512l25.99 0c1.21,-5.49 0.89,-3.42 7.39,-5.49l7.16 -2.89c11.74,-4.9 20.64,-1.56 30.97,0.85 0,-2.03 0.3,-5.98 -1.53,-7.85 -1.89,-1.93 0.09,-0.48 -1.5,-0.73 -2.12,-0.34 0.18,1.29 -9.82,-0.45l1.05 -1.84 -3.97 -0.23c-1.11,2.68 0.37,0.84 -2.01,1l-7.14 -0.34 -6.98 -0.68c-0.37,2.93 0.4,0.24 -1.11,1.61l-2.51 1.93c-1.56,-1.51 -1.64,-0.03 -1.27,-3.19l-1.67 4.27c-0.3,0.01 -1.03,1.21 -1.67,-1.68 -1.02,4.66 0.2,2.21 -3.2,3.27l-5.94 2.49c-0.26,0.11 -1.03,0.41 -1.29,0.49l-5.08 1.81c-4.56,2.18 -2.37,0.67 -3.11,0.79l-5.35 2.07c-1.98,-5.83 -1.62,-13.63 0.35,-19.52 -4.37,-0.23 -2.17,-1.21 -5.5,0.59 -4.3,2.31 -2.41,20.01 -2.26,23.72z"/>
   <path class="fil5" d="M189.32 485.04l-10.67 0.61c-4.83,1.2 -0.27,-1.53 -3.91,2.08 8.15,-1.44 14.53,0.43 23.31,-1.11 2.98,1.29 1.29,-2.14 2.57,1.4 -0.12,-0.5 -2.94,-0.32 3.06,-1.48l20.47 -2.33c3.44,-0.03 2.83,1.96 6.26,-2.37l0.91 3.06c0.93,-2.19 0.74,-1.07 1.78,-1.72 7.55,-4.65 10.23,-0.12 9.32,-10.5 -1.53,-0.27 0.08,-1.91 -1.69,2.16 -0.85,-5.32 -1.74,-3.36 -2.28,-3.55 -0.1,-0.04 -0.39,-0.1 -0.49,-0.13l-2.09 -0.41c-1.93,-0.24 -8.03,0.06 -12.03,-0.51 -3.49,-0.49 -8.33,-1.76 -9.92,-1.8 -4.5,-0.12 2.15,0.54 -3.94,0.62 -3.91,0.06 -0.26,-0.13 -5.18,-0.88l-1.76 14.05c-5.08,1.2 -4.91,2.52 -13.72,2.81z"/>
   <path class="fil10" d="M100.68 459.08c0.75,-1.05 1.11,-1.62 2.11,-3.13l1.33 0.27c7.74,0.56 -1.81,-0.15 5.89,1.22 6.2,1.1 7.08,-1.19 10.15,-5.41 6.3,0.75 0.42,0.33 4.8,0.93 -1.24,-2.25 -1.91,-1.05 0,-3.41l-3.67 -0.16c-4.31,-0.29 -3.55,-1.07 -6.01,-1.78 -1.7,-0.48 -1.93,-0.14 -4.19,-0.83 -6.43,-1.98 0.99,-2.04 -7.62,-2.19 -8.06,-0.15 -6.87,0.33 -8.23,-2.03l16.57 -1.13c3.44,-5.98 8.07,-7.31 2.85,-8.66 -9.79,0.24 -33.15,4.8 -26.1,18.35 1.36,2.6 2.56,2.61 3.8,4.27 -8.45,0.52 -5.98,-0.51 -8.77,3.88 4.41,0.75 12.44,0.2 17.09,-0.19z"/>
   <path class="fil0" d="M250.76 487.69c-1.97,5.89 -2.33,13.69 -0.35,19.52l5.35 -2.07c0.74,-0.12 -1.45,1.39 3.11,-0.79l5.08 -1.81c0.26,-0.08 1.03,-0.38 1.29,-0.49l5.94 -2.49c3.4,-1.06 2.18,1.39 3.2,-3.27 0.64,2.89 1.37,1.69 1.67,1.68l1.67 -4.27c-0.37,3.16 -0.29,1.68 1.27,3.19l2.51 -1.93c1.51,-1.37 0.74,1.32 1.11,-1.61l-1.23 -0.59c2.32,-3.69 1.33,-8.34 2.07,-13.37 -5.94,-0.44 -5.09,-0.14 -9.31,2.04 -6.54,3.38 -14.35,3.98 -20.44,5.21 -3.44,0.71 -1.57,-0.71 -2.94,1.05z"/>
   <path class="fil2" d="M148.08 488.57l2.65 0.84c-1.06,6.05 -6.6,16.07 -9.16,22.59l24.56 0c1.58,-3.83 1.73,-6.17 3.14,-9.88 1.29,-3.42 2.72,-5.62 4.02,-9.36 -0.24,-0.09 -0.63,-0.14 -0.77,-0.19l-1.81 -0.79c-1.01,-0.81 -0.33,-2.19 -0.53,-2.42l-2.06 3.93c-0.15,-0.24 -0.25,-0.58 -0.31,-0.77l-0.67 -3.47 -2.68 3.33c-1.77,-6.05 0.79,-1.62 -1.88,-2.73l-2.08 -1.61 -1.43 0.35c-2.79,-4.83 -1.59,-1.86 -5.64,-2.17 -0.14,-0.01 -0.46,-0.1 -0.6,-0.11 -5.51,-0.36 -3.83,1.02 -4.75,2.46z"/>
   <path class="fil0" d="M0 488.47l0 23.53 7.87 0c1.24,-2.16 0.07,-0.37 -0.08,0l0.08 0c0.16,-0.17 0.59,-0.73 1.48,-1.97l1.53 -1.27c0.04,0.02 0.29,0.21 0.33,0.23l0.87 0.58c2.78,-3.92 18.38,-17.51 19.36,-21.4 -3.21,-1.64 -4.86,-0.96 -13.59,-0.78 -6.52,0.13 -12.56,-0.15 -17.85,1.08z"/>
   <path class="fil2" d="M168.25 512l23.52 0 4.65 -18.41c-2.68,-0.72 -0.15,-0.9 -2.33,-0.1 -2.65,0.97 0.03,1.25 0.06,1.3 -0.37,-1.93 0.04,-0.45 -0.81,-1.81l-1.96 -1.72c-0.05,-0.02 -0.28,-0.1 -0.33,-0.11l-15.28 -0.07c-4.72,7.77 -3,7.85 -6.32,15.13 -1.21,2.64 -0.46,0.36 -0.93,2.58 -0.22,1.03 -0.21,2.03 -0.27,3.21z"/>
   <path class="fil0" d="M302.71 493.6l-1.05 1.84c10,1.74 7.7,0.11 9.82,0.45 1.59,0.25 -0.39,-1.2 1.5,0.73 1.83,1.87 1.53,5.82 1.53,7.85 -10.33,-2.41 -19.23,-5.75 -30.97,-0.85l-7.16 2.89c-6.5,2.07 -6.18,0 -7.39,5.49l48.66 0 0.89 -2.94c-3.2,-4.38 -3.2,-10.56 -5,-15.91 -6.75,1 1.17,-0.19 -5.36,-0.24 -3.47,-0.03 -2.48,0.24 -5.47,0.69z"/>
   <path class="fil4" d="M316.5 492.62c1.23,0.47 1.65,0.54 2.67,0.93l3.7 1.49c1.45,-2.08 0.67,-3.76 0.6,-5.13l7.77 -0.3c-2.47,-2.24 -1.14,-2.39 -8.98,-2.55l6.88 -5.97c5.16,0.45 18.04,2.13 22.99,-0.04 -9.66,-1.54 -32.97,-0.67 -35.38,-2.51l31.02 0.99c-2.29,-2.47 -0.71,-1.73 -4.29,-2.92 -1.15,-0.38 -2.2,-0.32 -4.03,-0.48 0.02,-0.03 0.48,-4.08 5.76,-5.24 3.23,-0.72 8.66,0.48 14.9,-0.45l-8.46 -0.9c-6.09,-0.05 -22.3,-0.09 -26.81,0.28 -3.94,0.32 -6.66,2.52 -8.67,4.23 -5.89,5.05 -0.01,1.52 -2.57,6.16l1.38 0.65c0.16,0.08 0.48,0.22 0.65,0.31 4.39,2.47 3.27,5.14 -0.55,6.91l1.42 4.54z"/>
   <path class="fil5" d="M141.69 485.11c-3.43,0.82 -2.26,0.62 -5.93,1 -1.16,0.12 -1.89,0.12 -2.93,0.28 -3.29,0.5 -1.14,-0.18 -3.02,0.75 5.4,-1.05 11.64,-0.01 17.41,-0.15l0.86 1.58c0.92,-1.44 -0.76,-2.82 4.75,-2.46 0.14,0.01 0.46,0.1 0.6,0.11 4.05,0.31 2.85,-2.66 5.64,2.17l1.43 -0.35c3.03,-6.33 4.14,-2.28 8.6,-3.65 -0.84,-2.27 -1.9,-5.13 -1.9,-7.72 0.01,-2.59 3.29,-7.29 -3.59,-7.76 -0.2,-0.02 -0.52,-0.01 -0.72,-0.01 -0.18,0 -0.49,0.05 -0.67,0.06 -2.01,0.15 -0.27,1.16 -4.43,0.4l-0.65 -4.21 -0.13 -1.3 -7.59 0.25c-2.35,2.14 0.9,0.67 -2.49,4.84 -3.7,4.55 0.78,-2.84 -1.24,1.23 1.3,2.99 -0.6,-1.03 1.49,1.83 1.22,1.67 0.19,-0.55 1.12,1.69 0.68,1.65 0.7,3.96 0.54,5.73 -0.44,4.76 -1.25,4.75 -7.15,5.69z"/>
   <path class="fil2" d="M126.05 475.2l6.83 6.54c3.43,3.51 -1.8,3.46 -6.43,3.28 -14.72,-0.55 -4.47,-3.2 -13.68,-2.83 -4.26,0.17 -3.41,0.33 -4.7,3.52 15.55,-1 12.27,2.41 21.74,1.43 1.88,-0.93 -0.27,-0.25 3.02,-0.75 1.04,-0.16 1.77,-0.16 2.93,-0.28 3.67,-0.38 2.5,-0.18 5.93,-1 -2.96,-2.53 1.54,-1.85 -2.63,-8.37 -6.65,-10.38 1.55,-5.27 -8.39,-13.27l3.22 -0.58c-3.18,-1.95 -13.14,-1.67 -17.01,-1.65 1.26,5.21 -0.26,3.29 5.54,5.35l1.86 1.3c-0.59,4.45 1.26,1.43 1.77,7.31z"/>
   <path class="fil5" d="M347.95 432.31c4.14,-4.74 7,-12.27 10.75,-17.79 2.93,-4.3 1.94,-1.84 -5.58,-12.67 -6.03,2.83 -2.2,0.9 -5.89,7.53 -5.12,9.22 -7.4,10.18 -3.69,15.79 0.52,0.78 1.67,2.39 2.18,3.22 0.93,1.52 1.06,2.52 2.23,3.92z"/>
   <path class="fil5" d="M312.88 435.03c10.8,9.59 22.61,-12.23 19.82,-17.1 -1.22,-2.13 -4.85,-7.61 -5.03,-9.43 -1.4,1.52 -13.78,23.92 -14.79,26.53z"/>
   <path class="fil13" d="M269.29 442.03l1.63 4.71c1.74,-0.19 5.96,1.53 7.79,2.51 0.48,5.66 -1.57,7.31 0.48,10.71 3.74,0.72 1.99,0.61 5.41,-0.26 -1.05,-5.16 -0.65,-1.93 0.56,-6.55 0.57,-2.14 0.82,-4.3 0.9,-5.76 0.31,-5.27 1.22,-8.24 0.91,-12.97 -8.3,1.8 -6.78,1.84 -18.15,2.61l0.47 5z"/>
   <path class="fil6" d="M300.98 419.11c6.32,-0.31 5.44,-0.56 6.32,-5.37l3.86 -19.9c0.88,-4.99 1.73,-6.4 -3.96,-8.26 -9.42,0.01 -6.39,28.74 -6.22,33.53z"/>
   <path class="fil7" d="M329.65 404.92c1.77,3.09 4.98,8.14 7.85,9.61 20.89,-22.13 4.67,-16.76 1.69,-25.85 -3.14,4.77 -6.63,10.6 -9.54,16.24z"/>
   <path class="fil14" d="M141.69 485.11c5.9,-0.94 6.71,-0.93 7.15,-5.69 0.16,-1.77 0.14,-4.08 -0.54,-5.73 -0.93,-2.24 0.1,-0.02 -1.12,-1.69 -2.09,-2.86 -0.19,1.16 -1.49,-1.83 2.02,-4.07 -2.46,3.32 1.24,-1.23 3.39,-4.17 0.14,-2.7 2.49,-4.84l7.59 -0.25c-1.74,-1.2 0.21,-0.41 -2.5,-1.04l-20.62 0.08 -3.22 0.58c9.94,8 1.74,2.89 8.39,13.27 4.17,6.52 -0.33,5.84 2.63,8.37z"/>
   <path class="fil5" d="M353.14 436.01c10.12,3.7 13.72,0.34 16.76,-6.01l1.12 -2.36c0.58,-1.13 3.34,-3.45 -3.75,-8.22 -3.95,-2.65 -5.16,-0.32 -6.68,2.13 -2.46,3.94 -6.84,10.19 -7.45,14.46z"/>
   <path class="fil4" d="M118.59 341.22l-0.9 -5.43c-3.21,-0.43 -5.5,-0.87 -7.64,-2.25 -1.43,0.82 -1.14,1 -5.52,0.87 -7.4,-0.21 -5.12,-1.23 -16.66,0.05l-0.37 6.35 31.09 0.41z"/>
   <path class="fil7" d="M343.86 378.99l-3.4 5.01c3.62,3.12 4.26,4.54 8.08,4.54 -1.2,3.85 -1.1,3.04 1.02,5.94 2.91,-1.78 -0.33,2.79 3.21,-3.33 2.15,-3.71 5.03,-9.16 3.45,-12.87 -4.57,-0.82 -7.54,0.86 -12.36,0.71z"/>
   <path class="fil2" d="M0 387.38c1.4,-0.02 4.08,-0.22 5.29,-0.14 6.97,0.4 3.46,-0.18 5.29,1.78l1.85 -3.3c2.25,-6.22 -0.02,-0.86 3.1,-5.64 1.02,-1.57 0.73,-0.17 1.65,-3.61l-17.18 0.14 0 10.77z"/>
   <path class="fil9" d="M318.92 383.36l2.44 4.9c-1.97,1.59 1.46,-0.11 -1.68,0.71 -3.85,1 -0.58,-0.94 -1.26,0.05 2.81,2.28 5.9,7.9 8.24,11.36l5.76 -9.66c-4.34,-2.26 -3.89,-1.24 0.06,-8.27 -5,-0.97 -8.85,0.42 -13.56,0.91z"/>
   <path class="fil12" d="M308.66 364.75c-0.56,4 0.64,4.81 2.64,7.61 3.68,5.14 1.1,3.03 6.35,4.77 2.68,-2.91 4.78,-8.2 4.93,-12.38l-2.84 -2.24c-3.57,0.03 -8.73,0.97 -11.08,2.24z"/>
   <path class="fil12" d="M328.37 360.5c-1.02,4.4 -0.48,4.36 2.38,7.14 2.23,2.17 2.61,4.36 6.75,4.83 1.48,-2.01 4.9,-8.3 4.17,-10.94 -1.38,-4.98 -9.47,-1.99 -13.3,-1.03z"/>
   <path class="fil5" d="M363.44 377.92c0.82,3.85 1.27,2.52 3.94,5.72 2,2.4 1.1,3.25 4.6,4.5 2.54,-0.98 13.67,-14.81 -1.94,-13.14 -3.39,0.36 -4.79,1.37 -6.6,2.92z"/>
   <path class="fil7" d="M313.14 412.34c4.98,-0.24 2.46,-0.49 6.6,-0.12 5.81,-8.05 5.49,-7.23 0.67,-13.69 -1.11,-1.5 -0.4,-0.76 -1.57,-2.1l-2.68 -2.53 -3.02 18.44z"/>
   <path class="fil5" d="M65.13 355.29l-0.43 14.48 8.41 2.01c-0.26,-5.7 -0.21,-12.67 -2.4,-17.5l-5.58 1.01z"/>
   <path class="fil13" d="M0 401l7.83 -0.64c-0.83,-5.16 1.78,-6.75 2.75,-11.34 -1.83,-1.96 1.68,-1.38 -5.29,-1.78 -1.21,-0.08 -3.89,0.12 -5.29,0.14l0 13.62z"/>
   <path class="fil0" d="M294.47 374.43l0.01 7.24c5.78,-2.31 5.8,-0.16 8.35,-4.46 0.31,-5.44 1.88,-11.94 -6.66,-10.44 -1.82,2.72 -1.67,4.29 -1.7,7.66z"/>
   <path class="fil11" d="M49.85 370.11l6.84 0.93 -0.04 -16.19 -4.4 -0.34c-0.16,0.24 -0.42,0.28 -0.47,0.56 -0.05,0.28 -0.36,0.38 -0.42,0.49 -1.86,3.55 -1.11,10.61 -1.51,14.55z"/>
  </g>
 </g>
</svg>
