<?xml version="1.0" encoding="UTF-8"?>
<!DOCTYPE svg PUBLIC "-//W3C//DTD SVG 1.1//EN" "http://www.w3.org/Graphics/SVG/1.1/DTD/svg11.dtd">
<!-- Creator: CorelDRAW 2021 (64-Bit) -->
<svg xmlns="http://www.w3.org/2000/svg" xml:space="preserve" width="512px" height="512px" version="1.1" style="shape-rendering:geometricPrecision; text-rendering:geometricPrecision; image-rendering:optimizeQuality; fill-rule:evenodd; clip-rule:evenodd"
viewBox="0 0 512 512"
 xmlns:xlink="http://www.w3.org/1999/xlink"
 xmlns:xodm="http://www.corel.com/coreldraw/odm/2003">
 <defs>
  <style type="text/css">
   <![CDATA[
    .fil0 {fill:#242021}
    .fil2 {fill:#F88806}
    .fil1 {fill:#FEA501}
    .fil3 {fill:#FF5E01}
   ]]>
  </style>
 </defs>
 <g id="Layer_x0020_1">
  <metadata id="CorelCorpID_0Corel-Layer"/>
  <g id="_2436748722224">
   <path class="fil0" d="M0 93.47c26.31,1.19 47.3,21.66 47.18,48.93 -0.12,26.77 -21.06,47.39 -47.18,48.61l0 204.77 37.2 -36.96c4.58,-4.73 13.8,-15.11 25.33,-7.69 7.2,4.63 9.17,10.89 6.85,19.07 -1.42,5.01 -0.28,3.02 0.67,7.65 2.15,10.42 -6.86,16.98 -13.35,23.65l-56.7 56.15 0 18.85 70.02 -69.68c4.59,-4.52 8.82,-9.72 17.43,-10.5 12.21,-1.1 22.32,7.58 23.19,18.84 0.41,5.26 -0.06,8.83 -2.71,11.94l2.48 1.82c1.39,1.88 1.25,0.88 0.22,3.34 -2.73,0.91 -2.86,-0.04 -4.23,-1.8 -3.01,3.06 -7.81,8.25 -10.74,9.93 0.13,0.23 0.38,0.26 0.45,0.65 0.3,1.61 2.96,2.53 0.77,4.56 -1.24,1.14 -0.94,0.52 -1.95,0.28l-3.35 -1.58c-1.88,4.38 -6.41,6.09 -8.16,8.77 -3.35,5.1 3.48,-0.27 0.05,5.57 -1.52,2.59 -2.83,-0.25 -4.84,-0.83 -2.17,2.67 -7.42,8.1 -9.63,9.64 0.76,2.73 3,2.9 0.51,5.14 -1.7,1.53 -2.38,-0.54 -4.44,-1.2 -1.36,2.32 -8.15,8.41 -9.93,10.16 -2.94,2.88 -7.25,7.39 -9.9,10.09 -3.59,3.66 -18.54,17.72 -19.68,20.36l54.96 0c-3.5,-13.14 -5.49,-22.12 2.57,-33.71 13.82,-19.87 42.42,-19.68 55.68,-0.26 9.04,13.24 5.68,23.02 2.71,33.97l183.19 0c1.81,-3.29 18.94,-19.22 23.38,-23.95 15.13,-16.13 31.58,-31.01 47.15,-47.24 16.63,-17.34 29.5,-3.71 33.6,-1.55 8.37,-5.62 16.66,-23.89 34.87,-18.99 14.82,4 20.83,22.62 10.08,35.09 -8.12,9.42 -53,51.95 -56.09,56.64l94.34 0 0 -105.3c-43.03,2.5 -73.66,-25.21 -74.11,-64.3 -0.26,-22.22 8.51,-35.26 21.38,-48.7 4.5,-4.7 13.63,-10.16 22.01,-13.24 11.48,-4.21 18.38,-3.57 30.72,-3.29l0 -277.17 -14.82 0c-2.15,3.32 -5.19,5.62 -8.01,8.38 -2.55,2.5 -5.27,5.27 -7.98,8l-103.55 103.65c-1.84,1.61 -6.06,6.04 -7.39,8.03 8,7.34 13.72,13.05 21.07,22.24 6.54,8.18 11.64,16.43 17.18,26.76 10.17,18.96 17.95,44.66 18.88,69.11 1.02,26.92 -2.64,50.65 -12.05,74 -5.82,14.44 -14.73,29.91 -24.01,41.54l-10.59 12.08c0.8,4.27 8.01,8.74 7.04,22.17 -1.85,25.62 -33.98,33.72 -48.41,16.68 -2.6,-3.07 -1.23,-2.77 -4.19,-4.21 -60.75,30.74 -134.37,24.16 -186.23,-18.21l-23.63 -22.74c-0.72,-0.95 -0.89,-1.39 -1.63,-2.32l-6.12 -7.48c-19.51,-26.44 -31.71,-59.89 -32.99,-93.88 -1.19,-31.23 5.06,-60.75 19.47,-87.79 3.01,-5.65 10.46,-18.83 14.3,-22.33 -1.15,-7.69 -6.03,-11.99 1.43,-20.31 1.91,-2.13 4.66,-4.16 8.6,-4.88 5.45,-1 7.38,1.27 11.62,1.23 1.14,-1.09 1.84,-1.99 3.26,-3.29 17.39,-16.07 45.81,-30.62 69.06,-36.5 35.57,-9.01 64.07,-6.81 98.32,3.13 2.97,-1.01 4.39,-3.43 6.49,-5.54 2.19,-2.18 3.86,-3.75 6.07,-5.93 3.21,-3.16 8.99,-9.78 12.16,-11.75 2.4,-3.39 5.6,-6.04 8.62,-9.06 7.88,-7.85 58.42,-57.72 60.14,-60.78l-50.97 0c-4.99,16.72 -19.83,32.7 -29.2,40.73 -40.52,34.75 -108.06,28.07 -140.15,-14.12 -1.54,-2.02 -1.3,-3.14 -4.3,-3.46l-45.19 45.54c-6.16,5.71 -27.17,29.98 -35.09,32.78 -13.71,4.83 -25.41,-7.65 -20.56,-21.25 1.95,-5.47 6.83,-8.83 10.09,-12.28 7.05,-7.46 64.85,-63.75 67.38,-67.94l-156.12 0 0 93.47z"/>
   <path class="fil1" d="M179.49 23.15c3,0.32 2.76,1.44 4.3,3.46 32.09,42.19 99.63,48.87 140.15,14.12 9.37,-8.03 24.21,-24.01 29.2,-40.73l-184.59 0c0.73,3.56 3.51,8.85 5.16,11.93 1.63,3.04 5.52,7.22 5.78,11.22z"/>
   <path class="fil1" d="M512 406.7l0 -129.53c-12.34,-0.28 -19.24,-0.92 -30.72,3.29 -8.38,3.08 -17.51,8.54 -22.01,13.24 -12.87,13.44 -21.64,26.48 -21.38,48.7 0.45,39.09 31.08,66.8 74.11,64.3z"/>
   <path class="fil2" d="M335.35 69.84l2.57 -0.18c1.67,-2.04 -0.54,-0.44 1.93,-3.18 4.9,1.26 -0.63,2.59 4.55,0.41 0,2.82 0.09,1.9 0.53,3.52 0.72,2.65 0.4,-1.42 1.08,3.7l-5 -1.93c0.22,2.64 0.48,1.81 2.56,3.82l-1.97 1.18 7.2 6.26c-0.27,0.02 -0.48,-0.22 -1.11,-0.68 0.94,-0.93 8.66,-7.79 7.19,-2.23 -0.03,0.12 -0.1,0.38 -0.15,0.51l-1 1.35c-0.9,1.02 -2.5,2.36 -3.35,3.17l-24.78 24.91c-0.11,0.12 -0.28,0.29 -0.39,0.42 -0.11,0.12 -0.26,0.3 -0.37,0.43l-3.63 7.71c-2.97,10.47 3.15,16.93 4.01,20.24 3.13,0.78 0.45,-0.27 2.93,1.42 6.83,4.68 13.46,8.23 23.28,3.43 8.68,-4.24 14.93,-14.97 18.82,-16.06 1.33,-1.99 5.55,-6.42 7.39,-8.03l103.55 -103.65c2.71,-2.73 5.43,-5.5 7.98,-8 2.82,-2.76 5.86,-5.06 8.01,-8.38l-6.42 0c-1.1,2.24 -5.76,6.24 -7.94,8.42l-108.83 108.78c-1.88,1.86 -5.55,6.17 -8.32,7l0.98 1.36c-8.46,4.25 -16.19,23.56 -33.19,13.8 -2.57,-1.48 -3.11,-1.82 -3.68,-4.83 -6.6,-3.83 -3.62,-16.08 0.76,-20.84l29.54 -29.61c5.6,-5.45 11.26,-13.58 11.82,-7.43 0.32,3.49 -1.66,0.31 -1.89,4.46l3.22 -2.38c4.41,-3.4 -2.84,0.86 1.17,-0.83 4.31,3.18 3.64,3.38 3.4,4.79 1.07,-1.53 0.05,-2.96 2.2,-4.76 5.7,0.96 0.06,-0.37 3.91,2.5 5.17,-3.74 79.13,-78.22 80.3,-80.43l-60.1 0c-1.72,3.06 -52.26,52.93 -60.14,60.78 -3.02,3.02 -6.22,5.67 -8.62,9.06z"/>
   <path class="fil3" d="M0 476.5l0 35.5 25.56 0c1.14,-2.64 16.09,-16.7 19.68,-20.36 2.65,-2.7 6.96,-7.21 9.9,-10.09 1.78,-1.75 8.57,-7.84 9.93,-10.16 2.06,0.66 2.74,2.73 4.44,1.2 2.49,-2.24 0.25,-2.41 -0.51,-5.14 2.21,-1.54 7.46,-6.97 9.63,-9.64 2.01,0.58 3.32,3.42 4.84,0.83 3.43,-5.84 -3.4,-0.47 -0.05,-5.57 1.75,-2.68 6.28,-4.39 8.16,-8.77l3.35 1.58c1.01,0.24 0.71,0.86 1.95,-0.28 2.19,-2.03 -0.47,-2.95 -0.77,-4.56 -0.07,-0.39 -0.32,-0.42 -0.45,-0.65 2.93,-1.68 7.73,-6.87 10.74,-9.93 1.37,1.76 1.5,2.71 4.23,1.8 1.03,-2.46 1.17,-1.46 -0.22,-3.34l-2.48 -1.82c2.65,-3.11 3.12,-6.68 2.71,-11.94 -0.87,-11.26 -10.98,-19.94 -23.19,-18.84 -8.61,0.78 -12.84,5.98 -17.43,10.5l-70.02 69.68z"/>
   <path class="fil2" d="M324.67 512l60.15 0c2.54,-4.43 37.69,-36.87 44.37,-45.22 8.26,-10.32 3.35,-18.11 2.57,-23.58 9.09,-9.83 20.11,-23.9 33.14,-17.76 5.23,2.47 10.47,8.77 9.85,16.97 -0.6,7.93 -6.96,12.66 -10.52,16.22 -9.15,9.12 -17.57,17.84 -26.75,26.83 -4.63,4.53 -8.58,8.81 -13.17,13.23 -3.11,3 -11.12,10.23 -13,13.31l6.35 0c3.09,-4.69 47.97,-47.22 56.09,-56.64 10.75,-12.47 4.74,-31.09 -10.08,-35.09 -18.21,-4.9 -26.5,13.37 -34.87,18.99 -4.1,-2.16 -16.97,-15.79 -33.6,1.55 -15.57,16.23 -32.02,31.11 -47.15,47.24 -4.44,4.73 -21.57,20.66 -23.38,23.95z"/>
   <path class="fil3" d="M179.49 23.15c-0.26,-4 -4.15,-8.18 -5.78,-11.22 -1.65,-3.08 -4.43,-8.37 -5.16,-11.93l-12.43 0c-2.53,4.19 -60.33,60.48 -67.38,67.94 -3.26,3.45 -8.14,6.81 -10.09,12.28 -4.85,13.6 6.85,26.08 20.56,21.25 7.92,-2.8 28.93,-27.07 35.09,-32.78l45.19 -45.54z"/>
   <path class="fil1" d="M0 191.01c26.12,-1.22 47.06,-21.84 47.18,-48.61 0.12,-27.27 -20.87,-47.74 -47.18,-48.93l0 97.54z"/>
   <path class="fil1" d="M0 395.78l0 45.65c6.19,-4.41 61.65,-62.8 65.31,-64.48 1.34,6.45 -0.02,9.62 -3.37,12.98 -7.83,7.89 -59.05,59.8 -61.94,61.34l0 6.38 56.7 -56.15c6.49,-6.67 15.5,-13.23 13.35,-23.65 -0.95,-4.63 -2.09,-2.64 -0.67,-7.65 2.32,-8.18 0.35,-14.44 -6.85,-19.07 -11.53,-7.42 -20.75,2.96 -25.33,7.69l-37.2 36.96z"/>
   <path class="fil0" d="M383.91 80.43c-4.16,5.61 -10.44,10.77 -16.35,16.7 -3.57,3.58 -4.5,4.48 -8.03,7.96 -2.1,2.06 -6.56,6.37 -7.82,8.58 2.6,1.3 4.98,3.14 7.33,4.91 0.98,0.74 2.22,1.65 3.16,2.41 1.68,1.35 1.88,1.85 3.47,3.21 2.77,-0.83 6.44,-5.14 8.32,-7l108.83 -108.78c2.18,-2.18 6.84,-6.18 7.94,-8.42l-26.55 0c-1.17,2.21 -75.13,76.69 -80.3,80.43z"/>
   <path class="fil3" d="M335.35 69.84c-3.17,1.97 -8.95,8.59 -12.16,11.75 -2.21,2.18 -3.88,3.75 -6.07,5.93 -2.1,2.11 -3.52,4.53 -6.49,5.54 -0.85,3.02 -17.18,18.13 -19.5,20.46 -5.56,5.61 -16.41,13.03 -13.34,27.07 3.55,16.16 23.87,23.04 37.55,9.16 1.47,-1.49 9.05,-9.08 9.88,-10.48 -0.86,-3.31 -6.98,-9.77 -4.01,-20.24l3.63 -7.71c0.11,-0.13 0.26,-0.31 0.37,-0.43 0.11,-0.13 0.28,-0.3 0.39,-0.42l24.78 -24.91c0.85,-0.81 2.45,-2.15 3.35,-3.17l1 -1.35c0.05,-0.13 0.12,-0.39 0.15,-0.51 1.47,-5.56 -6.25,1.3 -7.19,2.23 0.63,0.46 0.84,0.7 1.11,0.68l-7.2 -6.26 1.97 -1.18c-2.08,-2.01 -2.34,-1.18 -2.56,-3.82l5 1.93c-0.68,-5.12 -0.36,-1.05 -1.08,-3.7 -0.44,-1.62 -0.53,-0.7 -0.53,-3.52 -5.18,2.18 0.35,0.85 -4.55,-0.41 -2.47,2.74 -0.26,1.14 -1.93,3.18l-2.57 0.18z"/>
   <path class="fil1" d="M80.52 512l60.96 0c2.97,-10.95 6.33,-20.73 -2.71,-33.97 -13.26,-19.42 -41.86,-19.61 -55.68,0.26 -8.06,11.59 -6.07,20.57 -2.57,33.71z"/>
   <path class="fil0" d="M384.82 512l26.49 0c1.88,-3.08 9.89,-10.31 13,-13.31 4.59,-4.42 8.54,-8.7 13.17,-13.23 9.18,-8.99 17.6,-17.71 26.75,-26.83 3.56,-3.56 9.92,-8.29 10.52,-16.22 0.62,-8.2 -4.62,-14.5 -9.85,-16.97 -13.03,-6.14 -24.05,7.93 -33.14,17.76 0.78,5.47 5.69,13.26 -2.57,23.58 -6.68,8.35 -41.83,40.79 -44.37,45.22z"/>
   <path class="fil1" d="M335.17 408.43c2.96,1.44 1.59,1.14 4.19,4.21 14.43,17.04 46.56,8.94 48.41,-16.68 0.97,-13.43 -6.24,-17.9 -7.04,-22.17 -4.02,-0.63 -2.59,-2.16 -8.49,-5.17 -9.73,-4.96 -21.35,-2.74 -29.29,3.14 -8.04,5.94 -12.25,16.42 -10.46,26.8 0.66,3.86 2.77,7.07 2.68,9.87z"/>
   <path class="fil3" d="M329.78 134.53c2.82,-0.73 18.21,-19.38 21.93,-20.86 1.26,-2.21 5.72,-6.52 7.82,-8.58 3.53,-3.48 4.46,-4.38 8.03,-7.96 5.91,-5.93 12.19,-11.09 16.35,-16.7 -3.85,-2.87 1.79,-1.54 -3.91,-2.5 -2.15,1.8 -1.13,3.23 -2.2,4.76 0.24,-1.41 0.91,-1.61 -3.4,-4.79 -4.01,1.69 3.24,-2.57 -1.17,0.83l-3.22 2.38c0.23,-4.15 2.21,-0.97 1.89,-4.46 -0.56,-6.15 -6.22,1.98 -11.82,7.43l-29.54 29.61c-4.38,4.76 -7.36,17.01 -0.76,20.84z"/>
   <path class="fil1" d="M118.34 153.68c2.02,0.85 13.66,12.77 24.79,0.68 2.92,-3.16 4.62,-8.03 3.77,-13.29 -0.98,-6.16 -4.94,-7.76 -6.91,-11.35 -4.24,0.04 -6.17,-2.23 -11.62,-1.23 -3.94,0.72 -6.69,2.75 -8.6,4.88 -7.46,8.32 -2.58,12.62 -1.43,20.31z"/>
   <path class="fil0" d="M0 441.43l0 9.84c2.89,-1.54 54.11,-53.45 61.94,-61.34 3.35,-3.36 4.71,-6.53 3.37,-12.98 -3.66,1.68 -59.12,60.07 -65.31,64.48z"/>
  </g>
 </g>
</svg>
