<?xml version="1.0" encoding="UTF-8"?>
<!DOCTYPE svg PUBLIC "-//W3C//DTD SVG 1.1//EN" "http://www.w3.org/Graphics/SVG/1.1/DTD/svg11.dtd">
<!-- Creator: CorelDRAW 2021 (64-Bit) -->
<svg xmlns="http://www.w3.org/2000/svg" xml:space="preserve" width="512px" height="512px" version="1.1" style="shape-rendering:geometricPrecision; text-rendering:geometricPrecision; image-rendering:optimizeQuality; fill-rule:evenodd; clip-rule:evenodd"
viewBox="0 0 512 512"
 xmlns:xlink="http://www.w3.org/1999/xlink"
 xmlns:xodm="http://www.corel.com/coreldraw/odm/2003">
 <defs>
  <style type="text/css">
   <![CDATA[
    .fil4 {fill:black}
    .fil5 {fill:#0A3152}
    .fil3 {fill:#264C73}
    .fil1 {fill:#364957}
    .fil6 {fill:#4B76A7}
    .fil7 {fill:#517193}
    .fil2 {fill:#648491}
    .fil0 {fill:#F9F9F9}
   ]]>
  </style>
 </defs>
 <g id="Layer_x0020_1">
  <metadata id="CorelCorpID_0Corel-Layer"/>
  <g id="_2436742754064">
   <path class="fil0" d="M0 355.5l0 156.5 384.35 0 -11.76 -12.74c-5.89,-5.61 -2.87,-4.71 -8.98,-5.13 1.07,-3.19 3.14,-0.9 -0.09,-4.04 -1.2,-1.17 -1.98,-2.06 -3.2,-3.41 -15.33,-16.89 -23.84,-33.17 -7.44,-53.02 2.02,-2.44 5.03,-5 6.15,-6.96l-45.92 -0.15 0.17 -49.86 56.58 0.27 0.28 40.79 18.56 -12.27c6.55,-4.21 12.62,-7.5 19.21,-11.37 20.47,-12.03 47.8,-27.62 66.41,-41.75l16.73 -14.19c5.49,-5.42 8.86,-7.6 14.65,-15.42 1.55,-2.09 4.46,-7.17 6.3,-8.61l0 -314.14 -426.93 0c6.85,7.23 9.22,9.56 10.44,21 0.29,2.68 -0.23,6.17 0.02,7.99 0.49,3.7 2.52,-0.13 2.52,5.66 0,5.49 -1.65,1.84 -3.8,4.57 -0.01,0.02 -11.05,40.17 -19.12,50.88 -4.12,-5.07 -5.61,-7.06 -13.96,-5.85 -6.69,0.97 -7.17,11.07 -7.6,12.21l1.81 1.54c1.7,1.67 1.56,2.37 4.14,3.66 3.55,1.79 5.88,1.34 9.92,0.56l-2.64 6.15c-7.41,-2.02 -8.78,-5.07 -19.49,2.29 -1.71,1.18 -0.1,-1.61 -1.73,1.88 -0.86,1.89 0.01,1.22 0.54,5.52 0.27,2.23 0.44,3.02 1.77,5.08 3.49,5.37 7.13,3.15 8.66,6.1 -1.52,0.69 0.27,0.21 -1.6,0.37 -0.99,0.07 -0.84,-0.02 -1.69,-0.07 -1.62,-0.1 -0.89,-0.31 -2.97,-0.13 -12.06,1.09 -15.79,12.7 -10.18,19.8 3.19,4.04 5.4,2.85 8.18,5.32l-0.08 3.47c-11,-0.01 -13.13,11.88 -6.71,16.6 2.2,1.62 4.81,1.92 8.59,2.02 2.7,4.74 6.81,18.47 8.76,24.6 12.86,40.38 12.21,95.46 -16.78,128.66 -7.89,9.03 -23.43,21.99 -42.07,25.62zm268.2 91.57c0.01,5.3 -0.67,23.98 0.93,27.26 4.52,1.53 23.99,0.8 30,0.8 6.01,0.01 8.97,0.93 9.13,-5.13 0.11,-4.42 0.99,-25.78 -1.17,-29.97 -11.27,-0.85 -21,-0.51 -32.31,-0.5 -7.44,0 -6.58,1.2 -6.58,7.54zm107.82 -82.82c3.82,-10.2 16.16,-8.74 20.16,-4.09 0.59,0.68 0.44,0.74 1.11,1.56l1.62 1.71c0.06,-6.71 -1.4,-5.13 -2.37,-9.78 -1.09,-5.21 1.26,-6.49 1.8,-10.04l-0.17 -192.72c-4.48,0.69 -20.83,0.43 -26.03,0.2 -7.64,-0.35 -13.09,-4.26 -14.83,-9.97 -2.36,-7.7 1.42,-40.74 -1.27,-44.55l-97.95 -0.19c-2.68,3.79 -3,7.58 -9.74,7.71 -4.23,0.08 -6.89,-1.95 -8.62,-4.92 -1.09,-1.86 -0.29,-1.42 -1.82,-2.76 -2.43,0.91 -1.07,0.68 -2.82,2.48 -3.02,3.12 -6.16,5.22 -11.17,5.36 -7.68,0.22 -10.64,-4.13 -14.53,-7.83l-74.37 -0.08 -0.16 232.18c9.91,-0.53 19.52,-1.04 22.47,7.74 1.19,3.51 0.67,23.09 0.51,28.01l218.18 -0.02zm-131.91 62.29l56.36 -0.04 0.19 -49.66 -56.24 0.01 -0.31 49.69zm-69.52 -0.04l56.73 -0.01 0.09 -49.52 -56.5 -0.13 -0.32 49.66z"/>
   <path class="fil1" d="M384.35 512l127.65 0 0 -197.86c-1.84,1.44 -4.75,6.52 -6.3,8.61 -5.79,7.82 -9.16,10 -14.65,15.42l-16.73 14.19c-18.61,14.13 -45.94,29.72 -66.41,41.75 -6.59,3.87 -12.66,7.16 -19.21,11.37l-18.56 12.27c0,0 -11.2,8.95 -11.11,8.95 -1.12,1.96 -4.13,4.52 -6.15,6.96 -16.4,19.85 -7.89,36.13 7.44,53.02 1.22,1.35 2,2.24 3.2,3.41 3.23,3.14 1.16,0.85 0.09,4.04 6.11,0.42 3.09,-0.48 8.98,5.13l11.76 12.74z"/>
   <path class="fil1" d="M0 355.5c18.64,-3.63 34.18,-16.59 42.07,-25.62 28.99,-33.2 29.64,-88.28 16.78,-128.66 -1.95,-6.13 -6.06,-19.86 -8.76,-24.6 -3.78,-0.1 -6.39,-0.4 -8.59,-2.02 -6.42,-4.72 -4.29,-16.61 6.71,-16.6l0.08 -3.47c-2.78,-2.47 -4.99,-1.28 -8.18,-5.32 -5.61,-7.1 -1.88,-18.71 10.18,-19.8 2.08,-0.18 1.35,0.03 2.97,0.13 0.85,0.05 0.7,0.14 1.69,0.07 1.87,-0.16 0.08,0.32 1.6,-0.37 -1.53,-2.95 -5.17,-0.73 -8.66,-6.1 -1.33,-2.06 -1.5,-2.85 -1.77,-5.08 -0.53,-4.3 -1.4,-3.63 -0.54,-5.52 1.63,-3.49 0.02,-0.7 1.73,-1.88 10.71,-7.36 12.08,-4.31 19.49,-2.29l2.64 -6.15c-4.04,0.78 -6.37,1.23 -9.92,-0.56 -2.58,-1.29 -2.44,-1.99 -4.14,-3.66l-1.81 -1.54c0.43,-1.14 0.91,-11.24 7.6,-12.21 8.35,-1.21 9.84,0.78 13.96,5.85 8.07,-10.71 19.11,-50.86 19.12,-50.88 2.15,-2.73 3.8,0.92 3.8,-4.57 0,-5.79 -2.03,-1.96 -2.52,-5.66 -0.25,-1.82 0.27,-5.31 -0.02,-7.99 -1.22,-11.44 -3.59,-13.77 -10.44,-21l-85.07 0 0 355.5z"/>
   <path class="fil2" d="M376.02 364.25l-218.18 0.02c0.16,-4.92 0.68,-24.5 -0.51,-28.01 -2.95,-8.78 -12.56,-8.27 -22.47,-7.74l0.16 -232.18c-1.77,2.46 -0.76,55.01 -0.76,57.63 0,12.77 0.87,169.43 -0.47,174.14 -19.53,-0.64 -40.38,0 -60.05,-0.01 -27.19,0 -22.53,5.39 -22.61,34.88 -0.04,18.13 0,36.27 0.01,54.41 0,9.22 -1.46,17.77 6.9,21.39 5.54,2.39 21.64,1.12 29,1.39 2.27,19.82 29.81,20.71 34.4,2.99 0.87,-3.35 -0.35,-2.05 1.69,-3.06 7.24,-0.02 22.64,1.14 28.11,-1.36 8.2,-3.74 7.02,-11.04 7.02,-20.73 0.01,-16.8 1.03,-36.33 -0.06,-52.78 5.63,-1.26 175.96,-0.41 204.24,-0.41 2.32,0 4.64,-0.01 6.96,0.02 0.91,0.01 2.67,0.09 3.5,0.03l3.12 -0.62z"/>
   <path class="fil3" d="M356.04 96.57c2.69,3.81 -1.09,36.85 1.27,44.55 1.74,5.71 7.19,9.62 14.83,9.97 5.2,0.23 21.55,0.49 26.03,-0.2l0.17 192.72c1.81,-2.22 0.7,-41.56 0.7,-47.42l-0.03 -145.1c7.93,-0.03 49.28,1.14 54.86,-1.16 4.28,-1.77 7.28,-4.44 8.6,-9.07 1.21,-4.25 0.99,-63.36 -0.32,-66.88 -3.74,-10.06 -14.24,-9.4 -27.37,-9.41 -12.75,-0.02 -25.51,0.02 -38.26,-0.01 -10.58,-0.02 -26.94,-1.84 -34.35,3.21 -9.13,6.22 -4.33,17.79 -6.13,28.8z"/>
   <path class="fil4" d="M100.66 428.66c-18.72,5.55 -8.45,27.97 7.98,23.44 16.3,-4.48 10.03,-28.78 -7.98,-23.44z"/>
   <path class="fil5" d="M409.29 340.2c-16.02,2.51 -12.19,24.91 5.05,21.94 6.07,-1.05 10.84,-6.61 9.63,-13.08 -1.01,-5.35 -7.48,-9.99 -14.68,-8.86z"/>
   <path class="fil1" d="M220.07 80.95c-15.46,4.18 -8.5,24.01 6.62,20.38 15.25,-3.67 8.76,-24.53 -6.62,-20.38z"/>
   <path class="fil3" d="M48.93 132.3c-5.64,1.32 -10.01,5.53 -8.3,12.15 1.3,5.01 7.91,8.53 14.13,7 12.87,-3.19 8.42,-22.49 -5.83,-19.15z"/>
   <path class="fil6" d="M54.96 109.22c-11.78,3.99 -5.33,19.9 6.76,16.21 11.22,-3.42 6.05,-20.53 -6.76,-16.21z"/>
   <path class="fil2" d="M383.62 359.96c-3.72,1.8 -7.1,5.03 -4.35,10.26 2,3.81 7,5.57 11.56,3.77 10.46,-4.13 3.41,-19.16 -7.21,-14.03z"/>
   <path class="fil3" d="M47.04 160.38c-10.7,2.06 -7.29,15.42 2.79,13.82 9.75,-1.55 7.28,-15.76 -2.79,-13.82z"/>
   <path class="fil2" d="M61.59 87.3c-2.29,0.92 -2.9,0.36 -4.08,3.43 -2.41,6.31 4.2,11.65 10.87,8.99 8.26,-3.3 3.36,-16.51 -6.79,-12.42z"/>
   <path class="fil3" d="M239.19 73.99c-8.18,3.88 -1.77,13.91 6.2,10.58 7.31,-3.06 2.46,-14.68 -6.2,-10.58z"/>
   <path class="fil6" d="M246.11 89.98c-7.81,1.88 -5.59,13.52 4.16,11.42 7.41,-1.6 5.44,-13.73 -4.16,-11.42z"/>
   <path class="fil7" d="M404.2 365.89c-7.26,2.17 -3.03,11.13 3.84,8.68 6.22,-2.22 2.27,-10.51 -3.84,-8.68z"/>
  </g>
 </g>
</svg>
