<?xml version="1.0" encoding="UTF-8"?>
<!DOCTYPE svg PUBLIC "-//W3C//DTD SVG 1.1//EN" "http://www.w3.org/Graphics/SVG/1.1/DTD/svg11.dtd">
<!-- Creator: CorelDRAW 2021 (64-Bit) -->
<svg xmlns="http://www.w3.org/2000/svg" xml:space="preserve" width="512px" height="512px" version="1.1" style="shape-rendering:geometricPrecision; text-rendering:geometricPrecision; image-rendering:optimizeQuality; fill-rule:evenodd; clip-rule:evenodd"
viewBox="0 0 512 512"
 xmlns:xlink="http://www.w3.org/1999/xlink"
 xmlns:xodm="http://www.corel.com/coreldraw/odm/2003">
 <defs>
  <style type="text/css">
   <![CDATA[
    .fil1 {fill:#B195C5}
    .fil2 {fill:#E2CCFA}
    .fil0 {fill:#F6EAFC}
   ]]>
  </style>
 </defs>
 <g id="Layer_x0020_1">
  <metadata id="CorelCorpID_0Corel-Layer"/>
  <g id="_2436915388672">
   <path class="fil0" d="M0 512l512 0 0 -512 -512 0 0 512zm79.02 -180.04c1.97,-2.13 7.19,-3.05 11.2,-2.02 13.13,3.36 20.47,27.73 51.86,49.96 16.52,11.7 43.28,21.33 55.95,32.07 2.52,2.13 12.22,12.7 11.31,17.97 0.84,0.85 1.02,0.39 1.66,2.93 1.26,5.01 -0.32,9.61 0.64,12.14l17.24 4.23c3.34,0.6 2.9,0.04 5.44,0.03 3.05,-0.01 0,1.54 4.25,0.69 5.77,-1.15 19.54,1.19 33.79,-0.8 4.65,-0.65 8.26,-1.04 12.85,-1.82l24.06 -5.37 0.58 -3.66c0.05,-0.15 0.19,-0.36 0.24,-0.48 0.04,-0.11 0.15,-0.31 0.25,-0.45 -0.54,-5.79 5.21,-14.23 7.71,-17.32 10.02,-12.45 35.61,-21.73 48.73,-29.32 16.06,-9.31 30.05,-21.67 41.78,-35.55 1.78,-2.11 9.32,-13.15 11.38,-13.86l0.09 -2.52c-3.02,-1.54 -2.9,-2.62 -6.75,-2.07 -3.95,0.56 -5.71,0.34 -9.1,-0.87 -8.19,-2.94 -7.23,-6.87 -10.5,-10.2 -1.68,-1.71 -3.3,-2.04 -5.34,-4.72 -1.58,-2.05 -2.72,-4.26 -2.79,-7.59 -0.07,-3.44 -0.04,-5.42 1.32,-8.44 0.63,-1.41 1.1,-2.11 2.12,-3.23 0.31,-0.34 1.21,-1.23 1.33,-1.38 0.93,-1.16 0.53,-0.41 1.04,-1.64 -5.46,-4.31 -9.93,-9.06 -9.8,-17.99 0.1,-7.36 3.88,-14.31 10.86,-17.55 9.21,-4.27 1.2,-8.5 12.45,-16.31 8.76,-6.09 16.6,-3 23.13,-1.5 3.19,-3.29 2.03,-3.51 6.04,-5.96 2.28,-1.39 8.05,-3.06 8.85,-3.76 0.78,-1.03 0.21,-4.1 -0.02,-5.61l-3.42 -17.31c-4.9,-20.3 -12.21,-36.15 -22.57,-54.2 -0.61,-1.07 -0.6,-0.96 -1.33,-1.99 -0.81,-1.11 -0.94,-1.3 -1.7,-2.42 -10.51,-15.47 -18.36,-24.94 -32.24,-37.66l-19.26 -15.47c-11.27,-8.24 -27.93,-16.35 -41.25,-21.48 -31.8,-12.26 -64.6,-14.53 -97.38,-9.88 -8.92,1.27 -37.27,7.48 -43.33,12.74 -0.34,10.29 -0.76,14.88 -9.25,21.51 -6.21,4.85 -4.07,11.74 -14.49,16.88 -7.03,3.48 -8.16,2.74 -16.65,3.94 -1.79,1.96 -2.28,3.88 -3.99,5.38 -8.81,7.74 -4.14,9.72 -14.08,13.94 -5.07,2.16 -12.37,-0.59 -15.69,1.58 -8.92,5.82 -8.39,2.34 -11.77,6.95 -4.72,6.44 -9.6,15.57 -13.52,23.75 -23.29,48.6 -24.82,106.09 -4.57,155.37 1.82,0.75 0,0.3 2.64,0.34z"/>
   <path class="fil1" d="M31.83 99.93c0.61,27.45 -1.28,56.27 0.06,83.43 0.28,5.58 -2.41,11.58 -3.78,16.77 -4.68,17.77 -7.34,37.46 -7.2,55.87 0.21,28.48 2.94,47.24 10.53,72.44 1.55,5.15 0.64,72.96 0.41,83.68 -3.63,0.29 -5.48,1.18 -7.98,3.1 -0.81,0.61 -2.58,1.87 -3.3,2.75 -0.49,0.6 -1.86,2.82 -2.32,3.57 -3.21,5.22 -1.99,13.99 -2.02,21.13 -0.03,11.26 -1.24,34.1 4.04,42.39 6.65,10.43 22.66,8.09 37.06,9.51 13.42,1.33 29.68,4.16 34.17,-11.76 28.6,0.54 57.8,-0.02 86.5,0.01 17.52,0.02 19.72,1.91 37.5,5.54 28.14,5.74 70.36,3.77 97.51,-4.66 7.74,-2.4 11.67,-1.52 20.32,-1.51 10.73,0 82.95,0.83 86.67,-0.51 2.64,4.53 1.47,8.32 10.55,12.44 7.43,3.37 34.26,-0.29 44.07,-0.9 6.75,-0.43 12.86,-1.91 16.64,-7.32 4.35,-6.22 3.93,-10.27 4.04,-19.23 0.1,-8.87 2.22,-38.64 -1.28,-44.69 -2.85,-4.94 -7.46,-9.62 -13.86,-9.86 -0.2,-11.77 -1.2,-90.11 0.51,-94.6 1.73,-1.98 11.25,-0.74 18.03,-13.58 4.13,-7.81 1.65,-3.29 7.25,-8.68 2.63,-2.53 5.02,-6.34 5.46,-10.59 1.08,-10.58 -3.05,-18.45 -10.24,-21.78 -6.66,-3.08 -2.84,-3.75 -6.45,-9.62 -2.88,-4.7 -4.46,-4.9 -8.44,-8.02 -1,-3.59 -1.23,-12.61 -1.8,-16.72 -0.79,-5.56 -1.44,-10.71 -2.76,-16.31 -2.59,-10.95 -1.56,-23.88 -1.58,-36.22 -0.02,-25.23 -0.47,-50.95 0.02,-76.13 6.37,-0.22 10.52,-4.45 13.59,-9.41 3.84,-6.22 1.66,-35.44 1.55,-44.46 -0.18,-13.22 -0.9,-25.98 -20.04,-27.18 -9.08,-0.58 -37.91,-4.02 -44.26,-1.23 -8.83,3.88 -7.82,7.16 -11,12.75 -6.31,-2.43 -111.88,1.35 -125.03,-0.87 -28.74,-4.84 -48.83,-4.76 -77.47,-0.86 -10.99,1.49 -110.71,0.69 -125.5,0.57 -4.3,-5.63 -3.5,-8.85 -11.49,-11.78 -4.44,-1.62 -15.88,-0.73 -21.76,-0.17 -15.03,1.44 -31.66,-0.39 -38.22,9.31 -4.42,6.54 -3.69,10.71 -3.82,19.46 -0.13,8.96 -2.12,37.89 1.18,44.07 2.79,5.24 7.68,9.17 13.94,9.86zm47.19 232.03c1.97,-2.13 7.19,-3.05 11.2,-2.02 13.13,3.36 20.47,27.73 51.86,49.96 16.52,11.7 43.28,21.33 55.95,32.07 2.52,2.13 12.22,12.7 11.31,17.97 0.84,0.85 1.02,0.39 1.66,2.93 1.26,5.01 -0.32,9.61 0.64,12.14l17.24 4.23c3.34,0.6 2.9,0.04 5.44,0.03 3.05,-0.01 0,1.54 4.25,0.69 5.77,-1.15 19.54,1.19 33.79,-0.8 4.65,-0.65 8.26,-1.04 12.85,-1.82l24.06 -5.37 0.58 -3.66c0.05,-0.15 0.19,-0.36 0.24,-0.48 0.04,-0.11 0.15,-0.31 0.25,-0.45 -0.54,-5.79 5.21,-14.23 7.71,-17.32 10.02,-12.45 35.61,-21.73 48.73,-29.32 16.06,-9.31 30.05,-21.67 41.78,-35.55 1.78,-2.11 9.32,-13.15 11.38,-13.86l0.09 -2.52c-3.02,-1.54 -2.9,-2.62 -6.75,-2.07 -3.95,0.56 -5.71,0.34 -9.1,-0.87 -8.19,-2.94 -7.23,-6.87 -10.5,-10.2 -1.68,-1.71 -3.3,-2.04 -5.34,-4.72 -1.58,-2.05 -2.72,-4.26 -2.79,-7.59 -0.07,-3.44 -0.04,-5.42 1.32,-8.44 0.63,-1.41 1.1,-2.11 2.12,-3.23 0.31,-0.34 1.21,-1.23 1.33,-1.38 0.93,-1.16 0.53,-0.41 1.04,-1.64 -5.46,-4.31 -9.93,-9.06 -9.8,-17.99 0.1,-7.36 3.88,-14.31 10.86,-17.55 9.21,-4.27 1.2,-8.5 12.45,-16.31 8.76,-6.09 16.6,-3 23.13,-1.5 3.19,-3.29 2.03,-3.51 6.04,-5.96 2.28,-1.39 8.05,-3.06 8.85,-3.76 0.78,-1.03 0.21,-4.1 -0.02,-5.61l-3.42 -17.31c-4.9,-20.3 -12.21,-36.15 -22.57,-54.2 -0.61,-1.07 -0.6,-0.96 -1.33,-1.99 -0.81,-1.11 -0.94,-1.3 -1.7,-2.42 -10.51,-15.47 -18.36,-24.94 -32.24,-37.66l-19.26 -15.47c-11.27,-8.24 -27.93,-16.35 -41.25,-21.48 -31.8,-12.26 -64.6,-14.53 -97.38,-9.88 -8.92,1.27 -37.27,7.48 -43.33,12.74 -0.34,10.29 -0.76,14.88 -9.25,21.51 -6.21,4.85 -4.07,11.74 -14.49,16.88 -7.03,3.48 -8.16,2.74 -16.65,3.94 -1.79,1.96 -2.28,3.88 -3.99,5.38 -8.81,7.74 -4.14,9.72 -14.08,13.94 -5.07,2.16 -12.37,-0.59 -15.69,1.58 -8.92,5.82 -8.39,2.34 -11.77,6.95 -4.72,6.44 -9.6,15.57 -13.52,23.75 -23.29,48.6 -24.82,106.09 -4.57,155.37 1.82,0.75 0,0.3 2.64,0.34z"/>
   <path class="fil0" d="M159 51.04c1.12,4.4 2.74,2.54 5.28,11.07 1.09,3.66 -0.35,2.09 2.66,3.75 7.45,4.09 7.09,4.08 11.63,10.79l9.25 -2.54c2.59,-1.47 1.54,-1.33 5.49,-2.29 5.66,-1.38 10.35,-3.24 16.64,-4.58 31.27,-6.65 58.21,-6.03 89.36,0.63 31.83,6.8 65.13,24.79 88.58,47.61 3.65,3.56 8.09,8.17 11.31,11.31 1.48,1.45 1.26,1.34 2.43,2.9l7.85 9.43c36.57,47.24 37.71,94.11 39.19,96.21 1.78,1.61 6.39,2.32 9.19,4.17 3.95,2.62 3.96,4.17 6.81,6.68 2.49,-0.48 4.39,-1.93 6.9,-2.43 3.3,-0.65 6.46,0.05 9.61,-0.48 0.27,-6.86 -2.45,-24.26 -4.12,-30.44 -5.55,-20.48 -7.03,-30.85 -17.47,-51.63l-8.97 -17.13c-9.93,-15.75 -20.29,-31.25 -33.57,-44.42 -1.81,-1.8 -2.69,-2.19 -4.44,-4.2l-6.52 -6.18c-1.05,-0.9 -1.25,-1.27 -2.36,-2.31l-14.63 -11.41c-10.07,-7.88 -32.17,-21.14 -43.92,-25.61l-11.99 -4.97c-18.65,-6.54 -35.58,-11.21 -55.93,-13.35 -21.33,-2.24 -44.59,-1.41 -64.69,2.7 -14.26,2.92 -27.42,6.33 -40.79,11.47 -4.48,1.72 -8.69,3.72 -12.78,5.25z"/>
   <path class="fil0" d="M79.02 331.96l-3.72 4.49c-1.23,2.04 -1.35,3.62 -1.37,6.2 -0.11,9.46 2.93,17.04 7.34,24.89 6.95,12.35 21.39,25.81 34.42,31.31 4.9,2.07 9.38,2.49 11.8,3.76l1.14 0.72c-1.38,1.01 -0.27,0.75 -2.61,0.91 -5.36,0.36 -23.35,-8.51 -29.02,-14.52l-12.1 -11.13c-5.06,-2.86 -10.64,-2.77 -15.85,-0.03 -3.42,1.8 -4.77,3.2 -6.48,7.14 -1.15,2.69 -1.13,7.05 -0.51,10.54 2.32,12.9 17.52,23.73 31.09,26.36 5,0.97 8.38,0.27 10.85,2.07 -6,4.56 -21.44,-6.14 -30.32,-0.9 -9.19,5.42 -8.24,16.38 -0.87,23.43 15.2,14.51 39.05,11.54 56.2,4.64 -10.62,-43.45 44.25,-42.04 47.25,-18.45 0.69,5.46 -0.95,10.66 -3.81,13.07 -3.39,2.87 -9.74,4.6 -13.61,0.87 2.58,-1.78 3.31,0.4 7.05,-0.26 13.83,-2.4 11.14,-28.73 -13.88,-27.77 -5.39,0.21 -10.85,2.2 -14.7,5.34 -13.21,10.76 -7.28,30.87 1.89,38.16 13.48,10.71 27.59,14.35 45.43,8.9 4.11,-1.25 8.06,-3.13 10.92,-5.57 5.59,-4.78 3.21,-1.58 8.48,-8.68 5.14,-6.93 7.5,-16.01 5.31,-27.51 0.91,-5.27 -8.79,-15.84 -11.31,-17.97 -12.67,-10.74 -39.43,-20.37 -55.95,-32.07 -31.39,-22.23 -38.73,-46.6 -51.86,-49.96 -4.01,-1.03 -9.23,-0.11 -11.2,2.02z"/>
   <path class="fil0" d="M419.94 341.33c-2.06,0.71 -9.6,11.75 -11.38,13.86 -11.73,13.88 -25.72,26.24 -41.78,35.55 -13.12,7.59 -38.71,16.87 -48.73,29.32 -2.5,3.09 -8.25,11.53 -7.71,17.32 1.17,6.2 -0.6,7.49 1.87,14.59 2.74,7.9 6.14,10.43 9.94,14.54l3.8 3.45c0.12,0.08 0.28,0.19 0.4,0.27 3.48,2.41 7.5,4.21 12.45,5.39 13.76,3.3 27.67,2.06 39.04,-6.52 6.42,-4.85 3.24,-1.12 8.61,-8.55 7.02,-9.71 6.88,-26.36 -3.98,-33.62 -20.21,-13.51 -45.06,6.88 -33.01,19.64 6.23,6.6 7.45,2.68 11.27,3.58 0.21,0.05 0.44,0.18 0.61,0.24 0.17,0.05 0.43,0.15 0.62,0.28 -1.23,1.07 -1.2,1.42 -3.26,1.88 -1.14,0.26 -2.97,0.16 -4.12,-0.02 -13.78,-2.17 -16.05,-28.23 8.61,-31.75 10.02,-1.43 18.28,1.03 24.95,7.79 4.63,4.7 7.43,18.3 3.86,26.1 7.47,5.6 36.59,9.9 50.97,0.16 2.53,-1.7 2.88,-2.27 4.9,-4.29 13.01,-13.05 4.22,-29.35 -14.65,-23.74 -2.11,0.63 -5.45,1.34 -7.86,1.67 -1.01,0.13 -3.15,0.39 -4.13,0.43l-4.37 -0.9c1.42,-1.33 1.49,-1.26 4.92,-1.4 4.31,-0.18 10.25,-1.75 14.4,-3.31 4.66,-1.75 10.65,-5.71 14.13,-8.99 5.05,-4.77 11.11,-15.65 8.59,-24.1 -2.62,-8.75 -14,-13.34 -22.28,-8.79 -5.16,2.84 -4.91,6.08 -12.12,11.1 -2.03,1.41 -1.1,0.8 -2.92,2.49 -5.77,5.34 -16.52,10.18 -24.23,11.95 -1.9,0.43 -3.44,0.73 -5.05,-0.28 3.32,-3.32 12.97,-1.36 27.59,-13.53 5.33,-4.43 11.01,-9.64 15.11,-15.4l4.25 -6.39c4.78,-7.52 10.42,-21.97 7,-30.45 -2.24,-5.54 -13.01,-12.44 -22.73,-2.08l-3.58 2.51z"/>
   <path class="fil0" d="M62 381.66c4.38,-6.93 12.76,-8.34 22.19,-6.15 -4.45,-2.32 -12.53,-21.22 -12.71,-31.51 -0.04,-2.57 1.06,-6.22 0.9,-8.49l-8.65 -26.66c-5.04,-19.54 -4.93,-27.02 -6.56,-47.51 -0.52,-6.55 1.34,-25.8 2.45,-32.93 1.57,-10.13 3.85,-20.07 6.74,-29.36 4.03,-12.97 9.58,-25.47 16.2,-37.06 2.44,-4.25 6,-8.55 6.54,-12.41 -2.81,-0.69 -4.66,-1.59 -6.83,-3.08 -3.9,-2.68 -1.5,-2.31 -6.92,-1.66 -9.9,1.2 -13.09,-4.06 -16.02,-4.8 -6.2,5.77 -15.6,30.42 -19.34,38.6 -2.02,4.42 -3.37,10.03 -5.03,14.96 -6.85,20.37 -9.37,44.16 -9.47,68.4 -0.13,35.04 8.76,64.37 22,94.58l14.51 25.08z"/>
   <path class="fil0" d="M58 99.16c3.62,-2.86 2.33,-4.74 8.33,-7.01 6.08,-2.29 7.82,-0.55 13.67,-0.22 5.91,-7.47 15.96,-8.63 23.45,-2.68l3.22 2.7c11.43,-2.05 17.7,-1.27 22.32,8.34 3.25,6.79 2.99,2.29 7.92,8.15 1.65,1.97 1.23,2.45 3.48,4.52 1.69,1.56 2.95,2.83 3.81,4.7 9.66,0.3 15.57,-6.8 18.09,-14.27 1.28,-3.82 1.64,-1.55 1.73,-5.95 0.04,-1.57 -0.38,-0.35 0.08,-2.73 2.34,-1.46 3.83,-1.76 5.42,-3.74 2.48,-3.13 1.4,-2.5 4.42,-4.97 0.2,-4.92 -1.44,-8.22 -4.25,-11.09 -3.55,-3.62 -6.3,-3.31 -10.12,-5.15 -1.14,-4.14 -0.58,-7.1 -2.83,-10.51 -4.27,-6.47 -11.94,-9.17 -19.78,-6.46 -4.12,1.42 -4.73,4.74 -9.63,4.1 -2.42,-3.9 -3.84,-8.44 -8.84,-10.85 -7.58,-3.64 -16.86,-1.99 -21.38,4.98 -1.64,2.53 -1.83,5.2 -5.68,4.57 -2,-0.33 -3.82,-2.67 -7.03,-3.45 -8.67,-2.08 -17.5,2 -19.92,10.38 -0.88,3.03 0.04,5.96 -2.51,7.51 -2.06,1.25 -4.71,1.06 -7.36,3.24 -3.76,3.09 -7.05,8.02 -6.09,14.66 0.74,5.04 5.36,10.53 9.48,11.23z"/>
   <path class="fil0" d="M442.27 121.98c-0.18,0.34 -0.31,-0.25 1.06,0.68 2.22,-0.54 3.2,-1.32 4.79,-2.6l2.84 -2.24c2.85,-2.04 4.32,-3.19 6.95,-5.03l13.99 -10.05 0.17 -3.41 -4.22 -2.5c-4.67,-3.17 -7.03,-8.47 -7.48,-14.46 -0.37,-4.77 0.88,-27.72 -2.04,-28.52 -10.47,-2.88 -31.94,4.11 -38.16,-15.92 -20.96,0.69 -48.62,0.03 -70.84,0.03 -8.33,0 -15.26,-0.89 -23.37,-0.54 4.98,2.5 12.29,4.6 17.77,6.88 26.33,10.98 54.83,29.85 74.77,50.53 4.66,4.84 16.78,17.92 20.58,23.46l3.19 3.69z"/>
   <path class="fil0" d="M430.76 252.64c-5.42,0.4 -4.69,-2.26 -9.4,-3.06 -1.71,-0.29 -4.29,-0.19 -6.07,-0.13l-3.78 0.57c-11.48,4.51 -7.59,13.76 -10.79,15.93 -1.37,0.93 -11.07,2.67 -12.86,12.1 -0.78,4.15 -0.1,7.27 1.84,10.24 1.56,2.39 3.8,5.14 6.97,5.45 2.75,-2.37 3.06,-5.02 7.47,-6.78 5.38,-2.14 8.57,-0.06 13.19,-0.32 3.93,-3.32 5.5,-5.72 12.68,-5.65 6.21,0.06 8.56,3.04 11.99,6.13 3.02,-0.28 14.77,-4.77 20.43,5.78 1.08,2.01 0.86,3.18 2.07,4.65 2.23,2.72 9.03,3.28 9.13,12.96 3.97,-0.16 9.16,2.91 16.83,-5.36 2.72,-2.93 2.23,-3.74 3.95,-7.52l2.05 -3.18c1.73,-1.62 12.94,-5.85 8.26,-19.11 -2.62,-7.44 -8.47,-6.64 -13.11,-10.13 -0.5,-8.39 -3.41,-12.74 -9.67,-15.25 -10.86,-4.36 -14.12,4.33 -20.06,4 -1.95,-2.73 -2.37,-5.31 -4.88,-7.67 -5.74,-5.41 -14.53,-5.39 -20.58,-1.26 -2.83,1.93 -3.87,5.15 -5.66,7.61z"/>
   <path class="fil0" d="M258.67 455.04c-19.55,-0.05 -28.68,-0.95 -48,-4.56 -1.17,2.56 -2.98,6.3 -4.5,8.28l-6.22 7.2c-4.3,3.21 -6.81,5.47 -12.33,7.17l-3.7 1.09c-1.41,0.65 -0.88,0.41 -1.55,0.93 23.04,7.19 48.66,12.51 72.99,12.21 17,-0.22 48.42,-4.65 64.34,-10.36 2.56,-0.92 5.32,-2.09 8.3,-2.44 -9.76,-7.37 -4.24,-3.51 -8.86,-7.72 -7.21,-6.55 -6.58,-8.93 -10.47,-19.03 -2.73,-0.17 -30.42,7.13 -50,7.23z"/>
   <path class="fil0" d="M19.65 434l0.81 36c-0.17,15.28 5.86,18.89 20.18,19.78 7.36,0.46 32.34,3.2 37.43,1.72 11.29,-3.28 14.42,-18.13 4.85,-25.14 -5.64,-4.14 -17.03,-3.61 -25.65,-4.46 -5.55,-0.55 -4.29,1.02 -8.18,-1.9l-0.37 -20.67c0,-11.87 -1.09,-21.04 -11.51,-23.42 -5.62,-1.29 -10.58,1.13 -13.3,3.97 -3.74,3.91 -4.26,7.56 -4.26,14.12z"/>
   <path class="fil0" d="M462.92 51.57c2.2,12.43 -3.08,32.15 4.92,40.59 3.54,3.73 10.62,6.36 16.87,2.54 6.75,-4.12 7.65,-9.05 7.65,-18.03 0,-8.25 -0.67,-15.49 -0.62,-23.34 0.09,-15.73 2.45,-29.58 -17.76,-31 -7.6,-0.53 -15.54,-0.88 -22.76,-1.67 -7.49,-0.82 -16.59,-1.61 -21.85,1.99 -5.79,3.97 -7.55,12.21 -4.33,18.17 7.29,13.49 28.69,5.47 37.88,10.75z"/>
   <path class="fil0" d="M463.28 439.33l-0.06 20.67c-4.34,3.08 -18.57,2.55 -24.54,3.06 -21.21,1.81 -18.76,27.25 -2.62,28.84 4.08,0.4 20.29,-0.63 25.04,-1.33 28.4,-4.16 30.66,2.8 30.64,-35.24 0,-6.86 0.56,-14.48 0.61,-22 0.13,-20.2 -18.33,-20.88 -24.91,-13.25 -4.06,4.7 -4.16,12.48 -4.16,19.25z"/>
   <path class="fil0" d="M43.07 93.17c0.26,-7.13 -1.91,-7.82 0.88,-15.85 2.44,-6.99 4.82,-3.01 4.77,-13.31 -0.03,-5.71 -1.85,-13.16 3.98,-13.77 5.43,-0.57 11.47,0.32 16.29,-1.86 1.88,-0.85 3.81,-1.78 6.34,-2.26 2.15,-0.41 6.49,-0.37 8.25,-1.23 5.42,-2.65 8.87,-18.39 -3.55,-23.69 -6.45,-2.76 -46.69,1.17 -50.23,2.63 -10.38,4.28 -9.61,14.26 -9.56,26.84 0.03,7.97 -1.81,28.79 -0.01,34.84 3.18,10.65 13.63,14 22.84,7.66z"/>
   <path class="fil0" d="M104.67 136.97c4.53,-0.9 7.13,3.27 15.2,0.33 6.67,-2.43 5.04,-6.78 8.09,-10.04 1.39,-1.49 7.68,-3.39 6.15,-11.14 -1.42,-7.18 -7.95,-6.29 -9.41,-8.7 -0.63,-1.05 -0.66,-8.83 -7.39,-10.34 -8.39,-1.89 -9.9,5.45 -13.68,2.65 -2.13,-1.58 -1.95,-7.3 -9.61,-8 -9.37,-0.87 -8.26,5.38 -11.24,7.14 -3.91,2.3 -11.42,-7.99 -18.44,2.13 -1.9,2.74 -0.91,4.87 -2.52,6.83 -1.38,1.68 -7.72,1.66 -9.05,8.38 -1.58,7.98 5.94,10.4 6.67,11.02 3.26,2.78 1.25,6.63 7.51,9.86 6.97,3.6 11.72,-1.42 15.09,0.28 2.52,1.27 4.64,7.05 11.14,5.98 10.71,-1.74 8.35,-4.1 11.49,-6.38z"/>
   <path class="fil0" d="M420.67 293.38c-6.17,1.36 -4.14,-2.09 -10.66,-1.92 -4.34,0.11 -6.95,2.06 -8.2,5.04 -2.67,6.42 1.62,3.58 -5.5,7.16 -3.94,1.98 -4.3,4.56 -3.97,9.04 0.41,5.49 1.77,4.95 5.49,7.41 3.02,2 2.84,12.4 15.47,10.14 6.3,-1.13 5.22,-2.16 8.78,2.43 1.94,-0.06 15.75,-1.33 16.46,-1.75 4.16,-2.43 1.2,-2.71 7.55,-0.8 11.86,3.57 15,-8.89 16.93,-10.39 3.88,-3.02 8.15,-7.31 3.47,-13.5 -2.9,-3.84 -2.75,-1.66 -5.84,-3.6 -2.63,-1.66 -1.28,-4.23 -2.99,-6.99 -3.03,-4.9 -8.71,-5.41 -14.04,-1.96 -5.96,3.86 -4.05,-4.48 -10.79,-6.6 -6.3,-1.97 -10.78,1.14 -12.16,6.29z"/>
   <path class="fil2" d="M45.18 416.1c5.69,5.38 6.25,7.59 6.91,17.87 0.34,5.34 -0.69,20.36 0.63,23.93 2.88,3.21 25.62,-2.54 34.86,7.88 2.25,2.53 3.4,6.52 5.09,9.63l65.12 -0.12c-5.82,0.11 -19.2,-7.97 -23.2,-13.26l-4.71 -8.14c0.26,-0.04 -0.37,0.07 -0.47,0.32l-4.97 1.81c-2.63,0.85 -3.84,1.21 -6.44,1.73 -13.59,2.68 -26.84,3.74 -39.43,-2.82 -4.67,-2.43 -5.22,-3.49 -8.69,-6.84 -8.12,-7.85 -7.95,-28 9.46,-28.09 -1.08,0.51 0.24,0.65 -1.9,-0.56 -10.86,-6.16 -14.36,-14.63 -15.44,-15.44 0.92,2.35 -0.01,2.18 -2.26,3.67 -2.81,1.87 -10.01,6.69 -11.1,9.08l-3.46 -0.65z"/>
   <path class="fil2" d="M442.27 121.98c0.35,1.17 0.04,0.43 0.79,1.68l3.2 4.81c4.22,6.66 8.46,12.89 11.92,19.96l13.5 28.78c0.06,0.1 0.17,0.31 0.28,0.45l-0.06 -74.92 -13.99 10.05c-2.63,1.84 -4.1,2.99 -6.95,5.03l-2.84 2.24c-1.59,1.28 -2.57,2.06 -4.79,2.6 -1.37,-0.93 -1.24,-0.34 -1.06,-0.68z"/>
   <path class="fil0" d="M45.18 416.1l3.46 0.65c1.09,-2.39 8.29,-7.21 11.1,-9.08 2.25,-1.49 3.18,-1.32 2.26,-3.67 -1.49,-8.52 -1.92,-1.46 -2.47,-15.99 -0.13,-3.61 1.05,1.09 -2.97,-5.9l-10.14 -17.79c-2.3,-4.26 -3.56,-9.16 -6.43,-12.67l-0.03 60.35c0.51,2.7 2.24,0.63 5.22,4.1z"/>
   <path class="fil0" d="M459.01 405.41c-0.49,2.47 -0.01,1.73 1.26,3.01l4.11 2.74c1.59,0.92 2.6,1.24 3.62,2.84l2.37 -0.7c2.67,-0.07 1.67,-0.96 1.67,-7.96l0.01 -28.01c0,-12.52 0.1,-25.06 -0.16,-37.56 -1.29,1.99 -3.07,7.49 -4.34,10.39l-14.84 29.17c10.57,5.97 10.69,18.06 6.3,26.08z"/>
   <path class="fil0" d="M446.84 336.81c1.62,3.53 2.63,3.65 2.4,11.1 -0.11,3.61 -0.74,8.1 -2.08,11.77 -2.9,7.96 -5.35,13.3 -10.02,18.95 4.37,-1.04 6.84,-0.76 10.74,-1.37l5.02 -8.47c0.07,-0.11 0.18,-0.28 0.25,-0.39 3.15,-5.03 4.35,-8.98 6.15,-11.6 3.39,-4.94 14,-33.5 14.52,-39.32 -2.12,0.66 -9.07,11.07 -10.3,12.67 -2.1,2.72 -2.92,3.27 -6.41,4.98 -4.59,2.26 -5.1,1.15 -10.27,1.68z"/>
   <path class="fil0" d="M87.42 46.9l4.51 1.19c8.28,-10.89 21.38,-13.17 30.8,-6.84 4.22,2.84 4.24,3.27 7.27,7.42 4.36,-0.38 5.94,-3.37 14.02,-2.89 12.83,0.75 2.27,6.13 25.21,-3.94 3.67,-1.61 8.88,-2.37 12.17,-4.55 -7.88,0.14 -14.5,-0.69 -21.39,-0.65l-67.34 -0.02 -5.25 10.28z"/>
   <path class="fil2" d="M375.17 473.69c3.98,0.94 39.43,0.64 44.83,0.09 2.05,-4.55 3.75,-9.18 7.83,-10.06 -1.55,-1.37 0.23,-0.38 -1.9,-0.98 -1.94,-0.55 -19.18,1.41 -32.55,-4.57 -1.08,-0.48 -0.85,-0.37 -1.38,-0.84 -1.77,0.72 -2.17,2.95 -3.24,4.64 -2.72,4.3 -9.38,10.64 -13.59,11.72z"/>
   <path class="fil2" d="M470.37 413.3l-2.37 0.7c-1.02,-1.6 -2.03,-1.92 -3.62,-2.84l-4.11 -2.74c-1.27,-1.28 -1.75,-0.54 -1.26,-3.01 -0.35,8.17 -19.52,20.76 -16.35,17.26 1.22,1.65 16.42,1.31 13.06,19.39 -0.43,2.31 -1.24,4.19 -2.16,5.97 -3.26,6.3 -11.29,9.83 -13.21,11.56l18.93 -1.37c3.31,-9.94 -4.29,-31.53 7.06,-41.93 1.66,-1.52 2.36,-1.63 4.03,-2.99z"/>
   <path class="fil2" d="M48.11 110.37c-1.67,1.82 -0.53,0.59 -2.11,1.63 -1.68,-0.68 -1.79,-0.69 -3.46,-1.78 -0.96,-0.63 -1.41,-1 -2.39,-1.66l-0.09 57.01c2.64,-4.23 5.9,-11.4 7.89,-15.58 2.11,-4.46 7.81,-12.22 8.14,-16.28 -3.61,-2.88 -5.97,-3.53 -8.68,-8.41 -2.92,-5.25 -0.9,-10.21 0.7,-14.93z"/>
   <path class="fil0" d="M40.15 108.56c0.98,0.66 1.43,1.03 2.39,1.66 1.67,1.09 1.78,1.1 3.46,1.78 1.58,-1.04 0.44,0.19 2.11,-1.63 0.67,-0.93 1.32,-1.5 2.02,-2.17 0.79,-0.75 0.42,-0.29 1.08,-1.02 1.25,-1.4 0.33,-0.01 1.38,-1.85 -0.68,-1.48 -0.59,-1.25 -1.67,-2.3 -1.54,-1.52 -4.09,-2.69 -5.34,-6.6 -1.65,0.55 -1.83,0.74 -3.08,1.4 -3.06,1.6 -2.56,-0.96 -2.35,10.73z"/>
   <path class="fil0" d="M52.65 53.76l-0.46 13.39c7.71,-1.05 5.31,-4.07 8.25,-9.93 0.72,-1.43 1.87,-2.58 2.14,-4.21l-9.93 0.75z"/>
  </g>
 </g>
</svg>
