<?xml version="1.0" encoding="UTF-8"?>
<!DOCTYPE svg PUBLIC "-//W3C//DTD SVG 1.1//EN" "http://www.w3.org/Graphics/SVG/1.1/DTD/svg11.dtd">
<!-- Creator: CorelDRAW 2021 (64-Bit) -->
<svg xmlns="http://www.w3.org/2000/svg" xml:space="preserve" width="512px" height="512px" version="1.1" style="shape-rendering:geometricPrecision; text-rendering:geometricPrecision; image-rendering:optimizeQuality; fill-rule:evenodd; clip-rule:evenodd"
viewBox="0 0 512 512"
 xmlns:xlink="http://www.w3.org/1999/xlink"
 xmlns:xodm="http://www.corel.com/coreldraw/odm/2003">
 <defs>
  <style type="text/css">
   <![CDATA[
    .fil1 {fill:#19313A}
    .fil0 {fill:#303030}
    .fil3 {fill:#D69825}
    .fil2 {fill:#F4F4F4}
   ]]>
  </style>
 </defs>
 <g id="Layer_x0020_1">
  <metadata id="CorelCorpID_0Corel-Layer"/>
  <g id="_2436706567344">
   <path class="fil0" d="M96.23 31.72c0.19,0.18 0.5,0.38 0.61,0.49l0.97 0.99c0.07,-0.13 0.27,0.31 0.35,0.49l-4.04 3.1c-0.06,-0.13 -0.28,0.21 -0.44,0.28 -0.22,3.83 1.62,1.09 -0.32,3.1l-2.72 2.31c-0.13,0.11 -0.45,0.62 -0.54,0.46 -0.1,-0.16 -0.37,0.31 -0.55,0.46l1.72 1.24c2.2,1.24 1.82,0.82 6.83,0.77l30.31 -0.05c13.27,-0.22 26.78,-0.05 40.08,-0.05 25.68,0 55.06,-1.26 80.25,0.24 9.42,0.14 53.39,-1.12 58.1,0.82 14.93,-1.65 117.38,-1.31 140.55,-1.01l16.69 0.22c4.16,0.28 4.24,7.89 4.28,11.66 0.05,5.12 0.7,9 0.03,12.49l-0.04 39.05c0.12,7.23 -0.79,10.23 -0.72,12.25l2.06 24.59 -1.46 66.2c-0.25,2.13 -0.28,2.87 -0.05,5.01 0.86,7.71 1.48,3.36 2.32,8.04l0.81 49.94c-0.06,8.99 0.04,17.99 0.04,26.99 0.01,18 0.1,35.99 0.17,53.98 0.08,17.99 -0.01,35.99 0.01,53.98 0,8.84 -0.65,16.68 -0.68,26.18 -0.03,8.89 0.98,16.56 0.82,26.17 -2.01,1.36 -1.48,0.46 -1.57,4.06 -0.3,11.54 -7.87,2.75 -12.08,8.24l-403.22 1.37c-7.4,-1.32 1.36,-1.21 -6.14,-2.97 -9.37,-2.21 -5.87,-2.05 -6.89,-12.12 -1.37,-13.57 -0.82,-71.5 -0.65,-85.31 0.17,-14.98 1.52,-32.23 1.57,-47.41 0.06,-23.12 -0.82,-133.22 0.77,-146.65 1.47,-12.33 0.43,-91.54 2.43,-94.67 -9.2,0.24 -6.7,0.18 -7.46,-1.74 -3.27,1.84 -35.7,33.24 -38.43,34.73l0 392.36 512 0 0 -512 -381.89 0 -33.88 31.72z"/>
   <path class="fil1" d="M38.43 84.91c0.76,1.92 -1.74,1.98 7.46,1.74 -2,3.13 -0.96,82.34 -2.43,94.67 -1.59,13.43 -0.71,123.53 -0.77,146.65 -0.05,15.18 -1.4,32.43 -1.57,47.41 -0.17,13.81 -0.72,71.74 0.65,85.31 1.02,10.07 -2.48,9.91 6.89,12.12 7.5,1.76 -1.26,1.65 6.14,2.97l403.22 -1.37c4.21,-5.49 11.78,3.3 12.08,-8.24 0.09,-3.6 -0.44,-2.7 1.57,-4.06 0.16,-9.61 -0.85,-17.28 -0.82,-26.17 0.03,-9.5 0.68,-17.34 0.68,-26.18 -0.02,-17.99 0.07,-35.99 -0.01,-53.98 -0.07,-17.99 -0.16,-35.98 -0.17,-53.98 0,-9 -0.1,-18 -0.04,-26.99l-0.81 -49.94c-0.84,-4.68 -1.46,-0.33 -2.32,-8.04 -0.23,-2.14 -0.2,-2.88 0.05,-5.01l1.46 -66.2 -2.06 -24.59c-0.07,-2.02 0.84,-5.02 0.72,-12.25l0.04 -39.05c0.67,-3.49 0.02,-7.37 -0.03,-12.49 -0.04,-3.77 -0.12,-11.38 -4.28,-11.66l-16.69 -0.22c-23.17,-0.3 -125.62,-0.64 -140.55,1.01 -4.71,-1.94 -48.68,-0.68 -58.1,-0.82 -25.19,-1.5 -54.57,-0.24 -80.25,-0.24 -13.3,0 -26.81,-0.17 -40.08,0.05l-30.31 0.05c-5.01,0.05 -4.63,0.47 -6.83,-0.77l-1.72 -1.24c0.18,-0.15 0.45,-0.62 0.55,-0.46 0.09,0.16 0.41,-0.35 0.54,-0.46l2.72 -2.31c1.94,-2.01 0.1,0.73 0.32,-3.1 0.16,-0.07 0.38,-0.41 0.44,-0.28l4.04 -3.1c-0.08,-0.18 -0.28,-0.62 -0.35,-0.49l-0.97 -0.99c-0.11,-0.11 -0.42,-0.31 -0.61,-0.49l-21.89 19.75c-3.25,3.45 -4.04,4.05 -7.21,6.67 -2.78,2.31 -4.25,4.5 -7.1,6.79l-21.6 19.98zm293.81 102.54c-17.3,-16.71 -41.23,-40.54 -63.63,-63.67 -0.88,-0.92 -1.61,-1.76 -2.33,-2.51 -2.19,-1.79 -4.68,-3.29 -7.46,-3.84 -6.71,-1.34 -12.16,1.13 -17.13,5.11l-0.13 0.11c-4.45,3.72 -8.54,8.73 -13.01,13.3l-32.53 32.99c-2.53,2.08 -5.06,4.43 -7.58,6.9l-2.85 2.86c-5.08,5.17 -10.09,10.69 -14.94,15.49 -8.56,8.48 -16.38,16.43 -25.04,24.82l-23.49 23.57c-1.41,1.5 -2.75,3.09 -3.86,4.79 -2.02,3.26 -2.86,6.22 -2.89,8.94 0.03,2.72 0.87,5.68 2.89,8.94 1.12,1.7 2.45,3.29 3.86,4.79l23.49 23.57c8.66,8.39 16.48,16.34 25.04,24.82 4.85,4.8 9.86,10.32 14.94,15.49l2.85 2.86c2.52,2.47 5.05,4.81 7.58,6.9l32.53 32.99c4.47,4.57 8.56,9.58 13.01,13.3l0.13 0.1c4.97,3.99 10.42,6.46 17.13,5.12 2.78,-0.55 5.27,-2.05 7.46,-3.84 0.72,-0.75 1.45,-1.59 2.33,-2.51 22.4,-23.13 46.33,-46.96 63.63,-63.67l3.09 -3.11c12.95,-12.45 25.61,-25.16 38.19,-37.95 0.81,-0.88 1.68,-1.76 2.58,-2.63 3.04,-3.11 6.09,-6.22 9.12,-9.33 1.62,-1.64 3.49,-3.25 5.1,-5.22 1.89,-2.65 3.24,-5.42 3.66,-8.38 0.09,-0.7 0.14,-1.45 0.15,-2.24 -0.01,-0.79 -0.06,-1.54 -0.15,-2.25 -0.42,-2.95 -1.77,-5.73 -3.66,-8.37 -1.61,-1.98 -3.48,-3.58 -5.1,-5.23 -3.03,-3.1 -6.08,-6.21 -9.12,-9.32 -0.9,-0.87 -1.77,-1.75 -2.58,-2.63 -12.58,-12.79 -25.24,-25.51 -38.19,-37.95l-3.09 -3.11z"/>
   <path class="fil2" d="M193.96 347.8c-0.43,-0.87 -2.79,-3.54 -6.36,-7.32l-46.46 -46.67c-4.75,-4.68 -8.37,-8.22 -9.92,-9.75 -2.61,-2.55 -4.71,-5.16 -7.35,-7.43 -0.57,-0.33 -1.1,-0.36 -2.29,-0.52 -0.15,-0.02 -0.43,-0.04 -0.56,-0.05l-1.76 -0.36c-1.56,-3.89 0.82,-0.56 -0.43,-3.78 -0.1,-0.25 -0.18,-0.45 -0.25,-0.61 -0.37,-0.38 -0.74,-0.76 -1.1,-1.15 -0.28,-0.17 -0.65,-0.48 -1.23,-1.17 -5.7,-6.75 0.06,-1.6 -5.83,-4.81 0.08,-5.98 1.45,1.69 1.67,-7.87 -0.22,-9.56 -1.59,-1.89 -1.67,-7.87 5.89,-3.21 0.13,1.94 5.83,-4.82 0.58,-0.68 0.95,-0.99 1.23,-1.16 0.36,-0.39 0.73,-0.77 1.1,-1.15 0.07,-0.16 0.15,-0.36 0.25,-0.61 1.25,-3.22 -1.13,0.11 0.43,-3.78l1.76 -0.36c0.13,-0.01 0.41,-0.03 0.56,-0.05 1.19,-0.16 1.72,-0.19 2.29,-0.52 2.64,-2.27 4.74,-4.88 7.35,-7.43 1.55,-1.53 5.17,-5.07 9.92,-9.75l46.46 -46.67c3.57,-3.78 5.93,-6.45 6.36,-7.32 0.63,-0.19 2.13,-1.4 4.11,-3.19l0.68 -0.69c3.3,-3.3 18.49,-19.08 30.86,-31.17 4.03,-4.25 8.21,-8.51 12.47,-11.63 1.63,-1.38 2.89,-2.33 3.64,-2.69 3.01,-1.44 5.91,-2.23 9.34,-2.19 8.16,-0.04 13.29,4.47 17.06,8.17 4.05,3.61 7.96,7.94 11.79,11.94l3.82 3.86 0.09 0.1 0.01 0.01c6.6,6.56 13,12.84 19.44,19.35 3.21,3.09 5.53,5.18 6.24,5.52 1.81,3.25 -0.22,1.16 4.2,1.8 1.75,5.19 -2.46,0.91 5.82,8.93l23.3 23.3c10.39,10.44 20.21,20.27 30.65,30.71 5.32,5.32 12.95,11.54 17.3,18.8l0.73 0.62c1.95,3.48 2.72,6.79 2.64,9.94 0.08,3.15 -0.69,6.46 -2.64,9.93l-0.73 0.63c-4.35,7.26 -11.98,13.48 -17.3,18.8 -10.44,10.44 -20.26,20.26 -30.65,30.71l-23.3 23.3c-8.28,8.02 -4.07,3.74 -5.82,8.93 -4.42,0.64 -2.39,-1.45 -4.2,1.8 -0.71,0.34 -3.03,2.43 -6.24,5.52 -6.44,6.51 -12.84,12.79 -19.44,19.35l-0.01 0.01 -0.09 0.1 -3.82 3.86c-3.83,4 -7.74,8.33 -11.79,11.94 -3.77,3.7 -8.9,8.21 -17.06,8.17 -3.43,0.04 -6.33,-0.75 -9.34,-2.19 -0.75,-0.36 -2.01,-1.31 -3.64,-2.69 -4.26,-3.12 -8.44,-7.38 -12.47,-11.63 -12.37,-12.1 -27.56,-27.87 -30.86,-31.17l-0.68 -0.69c-1.98,-1.79 -3.48,-3 -4.11,-3.19zm138.28 -160.35c-17.3,-16.71 -41.23,-40.54 -63.63,-63.67 -0.88,-0.92 -1.61,-1.76 -2.33,-2.51 -2.19,-1.79 -4.68,-3.29 -7.46,-3.84 -6.71,-1.34 -12.16,1.13 -17.13,5.11l-0.13 0.11c-4.45,3.72 -8.54,8.73 -13.01,13.3l-32.53 32.99c-2.53,2.08 -5.06,4.43 -7.58,6.9l-2.85 2.86c-5.08,5.17 -10.09,10.69 -14.94,15.49 -8.56,8.48 -16.38,16.43 -25.04,24.82l-23.49 23.57c-1.41,1.5 -2.75,3.09 -3.86,4.79 -2.02,3.26 -2.86,6.22 -2.89,8.94 0.03,2.72 0.87,5.68 2.89,8.94 1.12,1.7 2.45,3.29 3.86,4.79l23.49 23.57c8.66,8.39 16.48,16.34 25.04,24.82 4.85,4.8 9.86,10.32 14.94,15.49l2.85 2.86c2.52,2.47 5.05,4.81 7.58,6.9l32.53 32.99c4.47,4.57 8.56,9.58 13.01,13.3l0.13 0.1c4.97,3.99 10.42,6.46 17.13,5.12 2.78,-0.55 5.27,-2.05 7.46,-3.84 0.72,-0.75 1.45,-1.59 2.33,-2.51 22.4,-23.13 46.33,-46.96 63.63,-63.67l3.09 -3.11c12.95,-12.45 25.61,-25.16 38.19,-37.95 0.81,-0.88 1.68,-1.76 2.58,-2.63 3.04,-3.11 6.09,-6.22 9.12,-9.33 1.62,-1.64 3.49,-3.25 5.1,-5.22 1.89,-2.65 3.24,-5.42 3.66,-8.38 0.09,-0.7 0.14,-1.45 0.15,-2.24 -0.01,-0.79 -0.06,-1.54 -0.15,-2.25 -0.42,-2.95 -1.77,-5.73 -3.66,-8.37 -1.61,-1.98 -3.48,-3.58 -5.1,-5.23 -3.03,-3.1 -6.08,-6.21 -9.12,-9.32 -0.9,-0.87 -1.77,-1.75 -2.58,-2.63 -12.58,-12.79 -25.24,-25.51 -38.19,-37.95l-3.09 -3.11z"/>
   <path class="fil2" d="M0 76.29l0 43.35c2.73,-1.49 35.16,-32.89 38.43,-34.73l21.6 -19.98c2.85,-2.29 4.32,-4.48 7.1,-6.79 3.17,-2.62 3.96,-3.22 7.21,-6.67l21.89 -19.75 33.88 -31.72 -47.15 0 -62.13 57.62c-1.74,1.75 -3.46,2.86 -5.37,4.47 -2.14,1.81 -12.89,12.87 -15.46,14.2z"/>
   <path class="fil0" d="M0 76.29c2.57,-1.33 13.32,-12.39 15.46,-14.2 1.91,-1.61 3.63,-2.72 5.37,-4.47l62.13 -57.62 -82.96 0 0 76.29z"/>
   <path class="fil3" d="M389.86 433.84c-5.54,1.18 -8.86,7.18 -5.63,12.88 3.1,5.47 10.65,4.1 18.17,4.13 8.43,0.03 36.93,1.12 43.18,-0.31 5.2,-1.19 8.58,-7.62 5.15,-13.02 -3.37,-5.3 -10.87,-3.99 -18.06,-3.99 -9.06,-0.01 -36.06,-1.13 -42.81,0.31z"/>
  </g>
 </g>
</svg>
