<?xml version="1.0" encoding="UTF-8"?>
<!DOCTYPE svg PUBLIC "-//W3C//DTD SVG 1.1//EN" "http://www.w3.org/Graphics/SVG/1.1/DTD/svg11.dtd">
<!-- Creator: CorelDRAW 2021 (64-Bit) -->
<svg xmlns="http://www.w3.org/2000/svg" xml:space="preserve" width="512px" height="512px" version="1.1" style="shape-rendering:geometricPrecision; text-rendering:geometricPrecision; image-rendering:optimizeQuality; fill-rule:evenodd; clip-rule:evenodd"
viewBox="0 0 512 512"
 xmlns:xlink="http://www.w3.org/1999/xlink"
 xmlns:xodm="http://www.corel.com/coreldraw/odm/2003">
 <defs>
  <style type="text/css">
   <![CDATA[
    .fil1 {fill:none}
    .fil2 {fill:#82116B}
    .fil7 {fill:#9C1A96}
    .fil3 {fill:#A91CA7}
    .fil5 {fill:#B638C6}
    .fil4 {fill:#D778E4}
    .fil0 {fill:#E692F5}
    .fil6 {fill:#EE19B5}
   ]]>
  </style>
 </defs>
 <g id="Layer_x0020_1">
  <metadata id="CorelCorpID_0Corel-Layer"/>
  <g id="_2436527105936">
   <path class="fil0" d="M0 352.85c32.91,5.96 68.37,48.23 87.95,66.37 13.13,12.16 25.47,23.61 41.63,35.11 15.29,10.89 35.24,21.1 59.65,19.4 34.13,-2.41 62.27,-22.91 98.83,-14.57 25.24,5.75 58.25,35.02 67.88,49.76l1.49 3.08 1.49 0 -9.31 -30.59c-3.21,-1.75 -1.03,1.99 -3.09,-3.97 -4.15,-9.86 -14.89,-23.2 -15.31,-32.64 -8.4,-0.4 -10.37,-13.8 -35.37,-30.2 -73.42,-48.16 -109.17,-2.95 -163.03,-5.96 -3.11,-0.04 -6.24,-0.24 -9.46,-0.78 -3.11,-0.51 -2.58,-0.37 -5.01,-1.27l-2.98 -1.44c-0.19,-0.1 -0.62,-0.38 -0.95,-0.53 -21.8,1.32 -45.53,-32.36 -55.94,-45.55 -10.27,-13.02 -35.45,-41.68 -57.04,-42.68l0 -316.39 -1.43 0 0 352.85z"/>
   <path class="fil1" d="M0 512l357.43 0 -1.49 -3.08c-1.55,1.8 -1.5,2.69 -6.16,3.08m-18.96 0l-152 -2.07c5.68,-2.74 17.71,-1.64 25.66,-1.76 -2.58,-0.61 -9.95,-1.13 -13.26,-1.62 -0.73,-0.11 -7.06,-0.89 -7.2,-0.92 -4.76,-1.22 -2.99,1.02 -4.92,-3.23 3.71,-2.41 7.61,-1.77 12.7,-1.82 -3.82,-2.01 -7.1,-1.31 -12.63,-1.35l0.06 -16.07c-7.45,0.11 -7.26,-0.31 -12.81,-1.71l18.87 -5.95c0.41,-0.15 0.99,-0.4 1.33,-0.53l2.61 -1.24c-24.41,1.7 -44.36,-8.51 -59.65,-19.4 -16.16,-11.5 -28.5,-22.95 -41.63,-35.11 -19.58,-18.14 -55.04,-60.41 -87.95,-66.37l0 159.15"/>
   <g>
    <path class="fil2" d="M299.65 91.82c17.57,1.58 30.67,5.34 47.4,9.95 21.53,7.82 40.34,17.64 57.65,31.13 17.25,13.44 31.65,28.5 44.04,47.15 8.56,12.89 14.28,26.38 21.14,40.03l-2.79 -101.92c-10.68,-1.41 -4.12,-4.94 -12.69,-5.13 -3.5,8.64 -16.17,5.37 -19.46,-4.36 8.63,1.08 6.32,2.03 11.46,5.38 2.93,-1.87 6.23,-4.9 9.75,-5.03 5.08,-0.2 5.69,2.84 9.35,4.59 -0.53,-6.95 -3.78,-9.44 -7.9,-12.55 -7.5,0.98 -4.86,5.09 -12.97,4.81 -8.09,-0.28 -2.34,-2.02 -9.87,-5.31 5.02,-5.04 -2.38,-1 3.61,-2.16l2.07 0.13c0.09,0.02 3.8,3.46 4.36,3.9 7.75,-2.89 3.11,-7.4 16.4,-4.86l-1.99 -4.78 -3.21 -3.51c-2.48,0.85 -8.86,10.72 -17.63,2.21 -4.78,-4.64 -1.77,-1.9 -3.79,-6.28l-134.93 6.61zm134.95 -6.64c10.96,1.07 7.75,4.51 12.23,4.79 8.28,0.53 -1.39,-3.69 8.86,-5.17l-2.84 -5.1c-2.2,3.18 -4.42,2.92 -11.24,3.02 -2.53,-9.56 -2.15,-0.73 -6.86,-9.23 9.4,0.59 6.31,5.63 11.71,4.9 6.98,-0.96 1.66,-5.69 -0.21,-7.23l-15.43 -11c-13.42,-9.21 -76.08,-26.57 -85.42,-60.16l-199 0c1.55,16.86 5.49,23.59 13.97,33.24 19.73,22.48 62.88,33.02 88.65,42.18 7.75,2.75 2.89,-0.54 8.58,6.14 4.7,-2.18 1.74,-0.68 3.62,-2.82 3.35,-3.79 1.08,-1.93 0.55,-1.94 2.84,4.96 2.35,3.17 8.75,5.12 2.15,0.65 6.19,1.9 9.22,2.73l16.24 4.86c0.43,0.22 0.85,0.48 1.24,0.69l2.43 1.62 134.95 -6.64zm-84.99 396.23l9.31 30.59 153.08 0 0 -208.3c-2.9,-2.44 -24.04,-14.08 -29.29,-17.19l-0.87 28.69 5.91 2.65c-2.37,0.11 -9.75,-3.26 -6.81,9.16 0.03,0.01 0.77,2.88 7.51,0.17 2.82,-1.14 0.59,-1.8 6.37,-3.62 -11.9,6.38 1,2.38 -16.13,7.73l1.71 8.74c11.6,1.8 6.05,-1.72 13.94,-4.95 -8.9,10.8 -13.56,4.73 -16.85,4.25 -2.11,8.19 -3.11,6.09 1.54,10.33 2.91,2.64 7.82,3.03 9.17,3.55 -7.74,0.25 -2.76,0.71 -7.59,-1.8 -4.38,-2.27 2.64,-0.51 -5.79,-3.22l-2.99 7.62c0.31,0.37 0.79,0.76 1.06,1l4.91 4.08c9.93,6.84 11.03,0.28 16.86,-2.05 -2.83,2.17 -6.23,5.01 -9.86,6.81 -7.19,-2.85 -4.16,-5.34 -12.57,-5.6 -5.14,7.1 -13.63,39.95 -47.22,74.57 -11.04,11.38 -51.38,42.86 -75.4,46.79z"/>
   </g>
   <path class="fil3" d="M106.86 190.87l7.77 -10.64c11.46,-17.28 12.45,-16.67 24.93,-29.47 13.58,-13.93 20.63,-21.18 41.12,-32.45 36.74,-20.22 69.89,-29.66 118.97,-26.49l-2.43 -1.62c-0.39,-0.21 -0.81,-0.47 -1.24,-0.69l-16.24 -4.86c-3.03,-0.83 -7.07,-2.08 -9.22,-2.73 -6.4,-1.95 -5.91,-0.16 -8.75,-5.12 0.53,0.01 2.8,-1.85 -0.55,1.94 -1.88,2.14 1.08,0.64 -3.62,2.82 -5.69,-6.68 -0.83,-3.39 -8.58,-6.14 -25.77,-9.16 -68.92,-19.7 -88.65,-42.18 -8.48,-9.65 -12.42,-16.38 -13.97,-33.24l-37.58 0 -107.39 0 0 316.39c21.59,1 46.77,29.66 57.04,42.68 10.41,13.19 34.14,46.87 55.94,45.55 -9.84,-19.78 -13.18,-19.63 -22.79,-46.55 -6.07,-17.01 -9.88,-37.8 -10.81,-57.21 -1.57,-32.88 4.23,-57.38 15.45,-86.28 2.35,-6.06 9.84,-19.8 10.6,-23.71z"/>
   <path class="fil4" d="M500.1 0l-154.7 0c9.34,33.59 72,50.95 85.42,60.16l15.43 11c1.87,1.54 7.19,6.27 0.21,7.23 -5.4,0.73 -2.31,-4.31 -11.71,-4.9 4.71,8.5 4.33,-0.33 6.86,9.23 6.82,-0.1 9.04,0.16 11.24,-3.02l2.84 5.1c-10.25,1.48 -0.58,5.7 -8.86,5.17 -4.48,-0.28 -1.26,-3.73 -12.27,-4.8 2.06,4.44 -0.99,1.67 3.81,6.32 8.77,8.51 15.15,-1.36 17.63,-2.21l3.21 3.51 1.99 4.78c-13.29,-2.54 -8.65,1.97 -16.4,4.86 -0.56,-0.44 -4.27,-3.88 -4.36,-3.9l-2.07 -0.13c-5.99,1.16 1.41,-2.88 -3.61,2.16 7.53,3.29 1.78,5.03 9.87,5.31 8.11,0.28 5.47,-3.83 12.97,-4.81 4.12,3.11 7.37,5.6 7.9,12.55 -3.66,-1.75 -4.27,-4.79 -9.35,-4.59 -3.52,0.13 -6.82,3.16 -9.75,5.03 -5.14,-3.35 -2.83,-4.3 -11.46,-5.38 3.29,9.73 15.96,13 19.46,4.36 8.57,0.19 2.01,3.72 12.69,5.13l2.79 101.92c2.13,9.78 6.29,19.76 8.63,30.76 2.55,11.94 3.39,23.62 4.2,35.67 5.25,3.11 26.39,14.75 29.29,17.19l0 -223.27 0 -80.43 -11.9 0z"/>
   <path class="fil5" d="M150.91 67.21c-0.27,0.49 -0.8,0.5 -0.99,1.36 -1.84,8.3 -1.58,-2.65 -3.76,6.82 -4.16,18.08 28.32,16.56 21.04,-2.33 -2.52,-6.55 -6.67,-5.4 -14.06,-7.83 20.93,-13.66 6.04,-39.61 -15.29,-32.27 -12.27,4.23 -24.19,34.25 13.06,34.25z"/>
   <path class="fil5" d="M343 57.84c-24.74,9.83 -11.98,39.67 9.78,34.19 23.82,-5.99 11.06,-42.48 -9.78,-34.19z"/>
   <path class="fil6" d="M475.74 393.63c-16.86,8.74 -4.48,31.25 12.11,25.38 16.19,-5.72 7.03,-35.29 -12.11,-25.38z"/>
   <path class="fil6" d="M422.79 16.22c-15.04,8.44 -2.98,27.15 11.09,21.08 12.94,-5.59 4.48,-29.82 -11.09,-21.08z"/>
   <path class="fil7" d="M103.55 493.82c16,3.51 19.26,-15.4 9.26,-19.66 -12.76,-5.43 -23.33,11.31 -9.26,19.66z"/>
   <path class="fil6" d="M15.78 340.56c-0.71,8.98 -0.45,15.8 9.85,15.73 9.29,-0.07 10.48,-6.25 9.31,-15.24 -7.81,-6.98 -11.23,-7 -19.16,-0.49z"/>
   <path class="fil5" d="M403.31 481.03c-0.12,0.05 -10.02,1.49 -4.54,12.65 1.95,3.97 7.56,6.35 12.98,3.09 8.61,-5.18 2.81,-20.07 -8.44,-15.74z"/>
   <path class="fil6" d="M131.2 434.54c12.56,-4.07 8.5,-15.38 -0.04,-15.39 -8.45,-0.01 -11.71,11.13 0.04,15.39z"/>
  </g>
 </g>
</svg>
