<?xml version="1.0" encoding="UTF-8"?>
<!DOCTYPE svg PUBLIC "-//W3C//DTD SVG 1.1//EN" "http://www.w3.org/Graphics/SVG/1.1/DTD/svg11.dtd">
<!-- Creator: CorelDRAW 2021 (64-Bit) -->
<svg xmlns="http://www.w3.org/2000/svg" xml:space="preserve" width="512px" height="512px" version="1.1" style="shape-rendering:geometricPrecision; text-rendering:geometricPrecision; image-rendering:optimizeQuality; fill-rule:evenodd; clip-rule:evenodd"
viewBox="0 0 512 512"
 xmlns:xlink="http://www.w3.org/1999/xlink"
 xmlns:xodm="http://www.corel.com/coreldraw/odm/2003">
 <defs>
  <style type="text/css">
   <![CDATA[
    .fil1 {fill:#050539}
    .fil3 {fill:#282359}
    .fil2 {fill:#E3432B}
    .fil0 {fill:#E95A2E}
    .fil5 {fill:#F49C5C}
    .fil4 {fill:#F58D42}
   ]]>
  </style>
 </defs>
 <g id="Layer_x0020_1">
  <metadata id="CorelCorpID_0Corel-Layer"/>
  <g id="_2436747399888">
   <path class="fil0" d="M86.41 242.16l10.22 4.29 25.34 8.99 11.27 1.32c34.09,-0.16 51.21,-19.54 51.22,-19.54 2.34,-2.19 0.82,-0.32 2.97,-3.35 3.01,-4.23 7.24,-11.35 7.78,-17.06 18.12,-6 37.01,-23.4 37.14,-47.16 0.1,-17.55 -15.51,-61.99 -13.15,-68.99 5.7,3.5 17.86,15.54 30.07,-1.96l2.74 -5.6c54.6,-10.22 124.74,11.07 163.08,48.55 5.08,4.96 11.24,11.74 16.5,15.61l19.77 26.49c4.69,7 12.74,21.72 15.98,30.88 4.07,11.34 7.78,20.01 10.23,32.31 2.61,13.19 2.89,24.67 5.09,37.37l-0.43 32.29c1.16,0.07 4.6,-0.21 4.97,-0.19l2.61 0.48c-7.19,2.23 -11.29,-0.56 -8.72,10 5.06,2.66 3.29,1.96 8.37,-0.49 2.98,-1.44 1.48,-2.54 5.54,-2.19 -4.67,0.8 -4.28,2.9 -7.49,4.66l-5.87 1.68 -1.08 9.36c11.18,1.64 5.82,-1.89 13.96,-4.98 -8.47,11.12 -14.13,4.95 -16.86,4.67 -3.67,12.71 2.9,10.31 10.61,13.67 -11.09,0.4 -4.24,-1.72 -13.18,-4.82l-3.1 7.63c1.9,2.13 3.63,3.69 5.23,4.81 -1.01,-0.39 -2.49,-0.65 -4.92,-0.73 -3.28,4.62 -8.96,17.43 -10.51,23.73 -5.12,3.32 -6.39,3.15 -6.22,10.85 -6.39,9.84 -12.84,18.7 -20.36,27.59 -4.28,5.05 -6.01,8.49 -10.83,13.25 -14.51,14.34 -50.95,40.08 -74.56,46.27l9.32 30.15 152.86 0 0 -208.3 0 -137.16 0 -71.43 0 -95.11 -167.07 0 -80.42 0 -32.19 0 -229.13 0 -3.19 0 0 189.77 0 3.74 0 46.18c0.28,32.59 0.92,64.53 0.94,76.07 30.18,3.7 49.94,35.66 68.63,56.22 7.74,8.52 24.96,33.13 44.76,32.58 -11.29,-20.74 -21.8,-36.94 -27.59,-63.76 -0.29,-0.16 -0.86,-0.41 -0.98,-0.1l-2.92 -0.32c-3.33,-0.64 1.03,3.57 -3.6,-1.18 1.37,-4.83 0,0.15 2.88,-2.99 2.72,-2.98 1.56,1.67 2.31,-3.39 0.8,-5.35 -2.83,-5.25 -5.18,-8.02 2.15,-7.09 3.98,1.86 1.92,-18.14 -2.75,-26.65 2.51,-41.64 5.24,-64.5zm-86.41 269.84l357.2 0c-2.23,-7.65 -15.58,-19.78 -20.74,-24.6 -7.08,-6.61 -15.54,-12.8 -24.85,-18.32 -27.64,-16.39 -39.43,-12.22 -70.83,-8.06 -18.26,9.93 -58.48,16.05 -79.75,9.95 -57.32,-16.46 -124.49,-118.8 -161.03,-116.52l0 157.55zm34.86 -170.49c1.72,6.1 -2.11,10.4 -4.31,13.28 -18.11,3.18 -19.57,-16.22 -9.54,-19.41 6.79,-2.16 12.46,1.22 13.85,6.13z"/>
   <path class="fil1" d="M461.79 383.89c9.42,-1.68 11.45,3.39 11.53,11.87 -6.65,7.42 -11.86,9.21 -17.75,-1.02 -6.39,9.84 -12.84,18.7 -20.36,27.59 -4.28,5.05 -6.01,8.49 -10.83,13.25 -14.51,14.34 -50.95,40.08 -74.56,46.27l9.32 30.15 152.86 0 0 -208.3c-4.9,-2.69 -10.39,-4.92 -15.36,-8.39 -2.19,-1.52 -4.78,-3.84 -6.9,-5.74 -3.78,-3.41 -2.55,-2.87 -7.08,-5.26l-0.43 32.29c1.16,0.07 4.6,-0.21 4.97,-0.19l2.61 0.48c-7.19,2.23 -11.29,-0.56 -8.72,10 5.06,2.66 3.29,1.96 8.37,-0.49 2.98,-1.44 1.48,-2.54 5.54,-2.19 -4.67,0.8 -4.28,2.9 -7.49,4.66l-5.87 1.68 -1.08 9.36c11.18,1.64 5.82,-1.89 13.96,-4.98 -8.47,11.12 -14.13,4.95 -16.86,4.67 -3.67,12.71 2.9,10.31 10.61,13.67 -11.09,0.4 -4.24,-1.72 -13.18,-4.82l-3.1 7.63c12.63,14.21 18.25,3.16 23.05,3.27 -4.62,1.94 -5.45,4.27 -10.24,6.43 -7.44,-2.68 -3.72,-5.34 -12.5,-5.62 -3.28,4.62 -8.96,17.43 -10.51,23.73z"/>
   <path class="fil2" d="M244.18 75.32c4.94,-3.07 17.7,-3.62 23.87,-4.19 9.36,-0.87 17.24,-0.99 26.61,-1.09 0.39,-30.03 41.92,-24.13 35.38,3.8l8.66 2.05c-27.82,13.9 19.2,36.61 9.84,3.47 32.91,9.1 45.08,27.34 58.37,36.79 5.47,9.16 22.67,27.63 24.68,41.11l19.77 26.49c4.69,7 12.74,21.72 15.98,30.88 6.22,-3.39 0.67,1.71 1.5,-3.68 0.02,-0.13 -0.03,-5.67 -0.05,-5.95 -0.39,-5.73 -0.71,-8.72 -0.45,-14.58 2.88,-20.67 -1.03,-50.81 -1.21,-72.02 -4.41,-1.57 -8.91,0.4 -11.13,-9.59 5.66,3 3.16,2.8 8.92,5.14 1.07,-7.02 0.18,-7.76 -5.71,-8.36l3.85 -4.58c-1.98,-1.82 -2.67,-7.66 -8.66,-11.98 -6.44,1.96 -4.64,5.99 -12.6,4.69 -2.93,-0.47 -4.33,-1.66 -5.66,-3.13 -2.71,-3.02 -1.97,-1.26 -2.75,-6.03 7,1.15 5.25,2.34 9.81,5.11 6.27,-1.54 3.48,-3.55 12.12,-5.62l-10.11 -12.16c-5.31,-3.66 -4.58,0.44 -11.69,-7.97 -6.25,-7.4 -16.12,-10.5 -35.51,-18.71 -6.34,-2.68 -11.47,-5.03 -17.22,-8.45 -15.41,-9.17 -27.22,-21.15 -35.86,-36.76l-80.42 0c-3.55,10.51 -10.41,18.64 -16.99,26.82 -10.22,12.71 -24.17,25.58 -27.26,49.87 7.14,-3.2 15.13,-8.87 23.92,-1.37z"/>
   <path class="fil3" d="M114.33 404.56c-11.29,-20.74 -21.8,-36.94 -27.59,-63.76 -0.29,-0.16 -0.86,-0.41 -0.98,-0.1l-2.92 -0.32c-3.33,-0.64 1.03,3.57 -3.6,-1.18 1.37,-4.83 0,0.15 2.88,-2.99 2.72,-2.98 1.56,1.67 2.31,-3.39 0.8,-5.35 -2.83,-5.25 -5.18,-8.02 2.15,-7.09 3.98,1.86 1.92,-18.14 -2.75,-26.65 2.51,-41.64 5.24,-64.5 -3.56,-4.29 -7.29,-5.76 -10.9,-8.93l-34.45 -39.04c-2.66,-3.06 -4.61,-5.8 -7.7,-9.82 -3.69,-4.79 -3.75,-5.21 -9.26,-10.24 -9.37,-8.55 -0.04,-2.44 -8.81,-2.12 0.94,-6.92 5.62,-0.96 -1.11,-7.91 -3.4,-2.8 -2.9,-3.17 -5.98,-6 -2.47,-2.27 -3.6,-2.62 -6.11,-4.18 -1.24,4.26 -1.85,17.99 -2.09,35.85l0 49.92c0.28,32.59 0.92,64.53 0.94,76.07 30.18,3.7 49.94,35.66 68.63,56.22 7.74,8.52 24.96,33.13 44.76,32.58z"/>
   <path class="fil4" d="M512 95.11l0 -95.11 -167.07 0c8.64,15.61 20.45,27.59 35.86,36.76 5.75,3.42 10.88,5.77 17.22,8.45 19.39,8.21 29.26,11.31 35.51,18.71 7.11,8.41 6.38,4.31 11.69,7.97l10.11 12.16c-8.64,2.07 -5.85,4.08 -12.12,5.62 -4.56,-2.77 -2.81,-3.96 -9.81,-5.11 0.78,4.77 0.04,3.01 2.75,6.03 1.33,1.47 2.73,2.66 5.66,3.13 7.96,1.3 6.16,-2.73 12.6,-4.69 5.99,4.32 6.68,10.16 8.66,11.98l-3.85 4.58c5.89,0.6 6.78,1.34 5.71,8.36 -5.76,-2.34 -3.26,-2.14 -8.92,-5.14 2.22,9.99 6.72,8.02 11.13,9.59 0.18,21.21 4.09,51.35 1.21,72.02 -0.26,5.86 0.06,8.85 0.45,14.58 0.02,0.28 0.07,5.82 0.05,5.95 -0.83,5.39 4.72,0.29 -1.5,3.68 4.07,11.34 7.78,20.01 10.23,32.31 2.61,13.19 2.89,24.67 5.09,37.37 4.53,2.39 3.3,1.85 7.08,5.26 2.12,1.9 4.71,4.22 6.9,5.74 4.97,3.47 10.46,5.7 15.36,8.39l0 -137.16 0 -71.43zm-28.79 79.16c-0.61,-12.74 -3.05,-4.32 3.55,-16.29 9.13,-1.25 15.43,1.22 15.1,10.51 -5.5,11.18 -7.64,11.07 -18.65,5.78z"/>
   <path class="fil4" d="M192.04 89.34c-2.1,10.07 -6.53,16.82 -7.72,29.22 -1.26,13.17 0.24,22.73 3.26,34.74 4.28,17.01 16.05,46.78 7.63,63.51 18.12,-6 37.01,-23.4 37.14,-47.16 0.1,-17.55 -15.51,-61.99 -13.15,-68.99 5.7,3.5 17.86,15.54 30.07,-1.96l2.74 -5.6c0.41,-10.19 -1.84,-13.14 -7.83,-17.78 -8.79,-7.5 -16.78,-1.83 -23.92,1.37 3.09,-24.29 17.04,-37.16 27.26,-49.87 6.58,-8.18 13.44,-16.31 16.99,-26.82l-32.19 0c4.97,45.92 -5.58,43.77 -26.67,71.24l-13.61 18.1z"/>
   <path class="fil1" d="M244.18 75.32c5.99,4.64 8.24,7.59 7.83,17.78 54.6,-10.22 124.74,11.07 163.08,48.55 5.08,4.96 11.24,11.74 16.5,15.61 -2.01,-13.48 -19.21,-31.95 -24.68,-41.11 -13.29,-9.45 -25.46,-27.69 -58.37,-36.79 9.36,33.14 -37.66,10.43 -9.84,-3.47l-8.66 -2.05c-3.68,7.17 -8.4,13.22 -19.43,12.31 -9,-0.74 -14.8,-7.51 -15.95,-16.11 -9.37,0.1 -17.25,0.22 -26.61,1.09 -6.17,0.57 -18.93,1.12 -23.87,4.19z"/>
   <path class="fil4" d="M294.66 70.04c1.15,8.6 6.95,15.37 15.95,16.11 11.03,0.91 15.75,-5.14 19.43,-12.31 6.54,-27.93 -34.99,-33.83 -35.38,-3.8z"/>
   <path class="fil5" d="M70.51 134.04c5.87,3.69 15,9.58 24.23,3.77 7.86,-4.96 9.47,-11.97 7.68,-22.79 -5.68,-5.62 -15.32,-13.14 -26,-6.49 -9.04,5.64 -10.53,13.67 -5.91,25.51z"/>
   <path class="fil0" d="M443.55 420.64c-20.68,8.21 -7.24,33.37 9.12,27.36 17.69,-6.49 8.13,-34.21 -9.12,-27.36z"/>
   <path class="fil5" d="M102.69 475.33c-12.89,6.99 -2.95,22.89 9.42,17.54 13.01,-5.64 4.87,-25.28 -9.42,-17.54z"/>
   <path class="fil0" d="M30.55 354.79c2.2,-2.88 6.03,-7.18 4.31,-13.28 -1.39,-4.91 -7.06,-8.29 -13.85,-6.13 -10.03,3.19 -8.57,22.59 9.54,19.41z"/>
   <path class="fil5" d="M144.71 216.48c-12.19,9.04 -2.23,21.99 9.87,16.35 12.86,-6 1.94,-25.1 -9.87,-16.35z"/>
   <path class="fil5" d="M210.98 47.23c-3.96,-3.13 -6.63,-6.73 -13.68,-5.08 -5.18,1.2 -9.17,6.93 -6.78,13.19 3.01,7.86 20.32,10.84 20.46,-8.11z"/>
   <path class="fil0" d="M206.01 186.78c20.14,3.09 16.51,-16.23 9.76,-18.83 -14.15,-5.45 -18.31,8.72 -9.76,18.83z"/>
   <path class="fil0" d="M483.21 174.27c11.01,5.29 13.15,5.4 18.65,-5.78 0.33,-9.29 -5.97,-11.76 -15.1,-10.51 -6.6,11.97 -4.16,3.55 -3.55,16.29z"/>
   <path class="fil4" d="M455.57 394.74c5.89,10.23 11.1,8.44 17.75,1.02 -0.08,-8.48 -2.11,-13.55 -11.53,-11.87 -5.12,3.32 -6.39,3.15 -6.22,10.85z"/>
   <path class="fil0" d="M72.81 260.05c1.76,-15.79 -11.54,-12.51 -13.95,-6.07 -3.49,9.32 5.93,12.23 13.95,6.07z"/>
  </g>
 </g>
</svg>
